<svg xmlns="http://www.w3.org/2000/svg" viewBox="0 0 1920 202.12"><defs><style>.cls-1{fill:#414141;}</style></defs><g id="Layer_2" data-name="Layer 2"><g id="Layer_1-2" data-name="Layer 1"><rect x="0.5" y="0.5" width="1919" height="199"/><path d="M1919,1V199H1V1H1919m1-1H0V200H1920V0Z"/><path class="cls-1" d="M1919.5,201.17c1-.09.44-.29-2.34-.25l-2,.33Z"/><path class="cls-1" d="M1900.77,200.55c-3.27.16-7,.44-4.93.75,3.25-.32,4-.19,7.52-.57,2.79,0,4.86.11,4.39.23,1-.08,4.33.08,5.83-.13a118.26,118.26,0,0,0-13-.06C1899.54,200.7,1900.54,200.61,1900.77,200.55Z"/><path class="cls-1" d="M1628.63,200l1.76,0C1629.91,200.05,1629.31,200,1628.63,200Z"/><path class="cls-1" d="M1460,199.85a12,12,0,0,0,1.88-.07A17.09,17.09,0,0,0,1460,199.85Z"/><path class="cls-1" d="M1431.23,199.49l1.7,0A16.69,16.69,0,0,0,1431.23,199.49Z"/><path class="cls-1" d="M1628.63,200l-4.5-.11A39.49,39.49,0,0,0,1628.63,200Z"/><path class="cls-1" d="M1863.25,201.35c.94,0,1.72,0,2.44-.09l-2.3,0Z"/><path class="cls-1" d="M1703,199.77h1.37c.41,0,.78-.09,1.14-.14Z"/><path class="cls-1" d="M1760,199.72a6,6,0,0,0-2.24.39,20.82,20.82,0,0,1,2.82-.19C1760.61,199.86,1760.44,199.8,1760,199.72Z"/><path class="cls-1" d="M1850.46,200.21l1.61,0Z"/><path class="cls-1" d="M1662.13,199.71a2.06,2.06,0,0,0-.52-.1A1.32,1.32,0,0,0,1662.13,199.71Z"/><path class="cls-1" d="M66.62,201.82s0,0,0,0C66.29,201.8,66.19,201.82,66.62,201.82Z"/><path class="cls-1" d="M.5,200.43l.92,0c.09,0,.19-.1.19-.16Z"/><path class="cls-1" d="M1378.55,199.13h.23C1380.17,199.1,1379.38,199.11,1378.55,199.13Z"/><path class="cls-1" d="M894.88,199.34c5.48.25-8.92.32-.67.6C893.44,199.83,901.71,199.5,894.88,199.34Z"/><path class="cls-1" d="M1861.77,201.31h-2.34C1860.49,201.33,1861.21,201.33,1861.77,201.31Z"/><path class="cls-1" d="M894.21,199.94h0l.85,0Z"/><path class="cls-1" d="M1257.15,199.3a11.24,11.24,0,0,0,1.24.12A6.8,6.8,0,0,0,1257.15,199.3Z"/><path class="cls-1" d="M1347.59,199.7l-2.24,0C1346.24,199.69,1347,199.7,1347.59,199.7Z"/><path class="cls-1" d="M1210.19,199.7c-1.21,0-1.63-.06-3.29,0l.51,0A26.55,26.55,0,0,1,1210.19,199.7Z"/><path class="cls-1" d="M1161.32,199.7l.9.05h1.55Z"/><path class="cls-1" d="M215.16,201.68a20.47,20.47,0,0,1-2.26-.25C213.65,201.63,206.47,201.7,215.16,201.68Z"/><path class="cls-1" d="M1863.22,201.19a6.85,6.85,0,0,1-1.45.12h1.62C1863.54,201.26,1863.57,201.22,1863.22,201.19Z"/><path class="cls-1" d="M1208.21,201.91l-7.77,0C1202.61,201.9,1205.44,201.91,1208.21,201.91Z"/><path class="cls-1" d="M565.78,201.64l-1.78,0C564.69,201.68,565.32,201.68,565.78,201.64Z"/><path class="cls-1" d="M1177.4,201.91c-1.39-.1-2.86-.15-4.37-.19-.33,0-.69,0-.91.07Z"/><path class="cls-1" d="M212.88,201.43h0Z"/><path class="cls-1" d="M161.74,202.1c7.4,0,3.47-.37,5-.58,8.83-.1,4.09.27,7.09.46,5.52-.09,9.75-.43,13.86-.42.31.06,1.1.08.17.16,5.83-.29,17.3,0,24.1-.38a6.06,6.06,0,0,1,.88.09c-1.1-.19-1.27-.37-1-.51a71.92,71.92,0,0,1,7.4,0,21,21,0,0,0-3.15.17l3.47-.11c3.13.35-4.74.12-4.74.38,6.78-.12,14.68-.4,19.87-.3,1.08.34-12.15.11-5.22.41l-8-.13c6.14.54-4.88,0,.76.54,10.57.1,11.83-.18,22.37-.08,2.38-.18-.78-.28,1.59-.46,15-.34,11.81.85,22.83.4a65.46,65.46,0,0,1,11.81-.43l-2.68.38c10.24,0,5.85-.55,16.57-.29-1.91.15-8.05.13-6.5.17,6.95.31,4.91-.22,10.25-.22l1.11.34c10.9,0,22.91-.29,35-.36-.67.1-2.74.21.09.31,15.22-.17,32.5,0,47.18.25l5.61-.3c1.31,0,2.43.14,1,.19,5.73.12.3-.18,3.05-.3,3.26,0,4.3.17,2.24.26,10.1-.25,28.77-.54,39.41-.22l-2.07.08c8.28.12,9.35-.6,17-.32l-1.47.05c18,.13,37.86-.14,51.58.3,2.61-.42,17.8.19,19-.4,10.27.29,7.32.4,21.79.59,3.86,0,5.75-.37,10.53-.43l.12.31,6.48-.32,3.45.37,4.48-.08a16.6,16.6,0,0,1-3.52-.23c7-.14,17,.22,17.23.37l16.55-.26c-.37.13-3.14.17-5.33.25,8.83-.32,1.6.32,9.7,0-1.09-.07.59-.18.77-.24,4,.19,13.22.19,20,.11l-1.3.21c12.27.05,25.88-.1,39.66-.1-4.94-.1-3.81-.46.23-.5l1.62.33c2.61-.21-4.22-.13,1.13-.37,5.15,0,3.47.37.51.47l6.26-.11c.37.1-1.1.15-1.48.27,2.56-.2,10.8.33,14.5,0l.36.09c13.77,0,20-.1,31.24-.12.22-.28,4.6-.22,8-.45,8.24.09,17.4.31,27.33.29,7-.14,2-.24,5.18-.41.51.26,10.44.24,5.29.42,11.92,0,15.23-.05,30.31-.26-1.64-.1-3.48-.15-2.52-.24a33.77,33.77,0,0,1,5.83.23l-.72,0c16.93-.38,39.07.75,52.55.21l-.76,0,14-.28c6.43,0-3.86.19.9.35,15.08-.42,23.83.06,36.25-.22,9.61.76,34.1-.05,47.08.43l-.75-.18a61.56,61.56,0,0,1,6.53.14c-.35-.13-3.64-.16-1.56-.25,28.41-.22,58.63.26,87.75.42,10.66,0,6-.92,19.48-.5l-3.82.33c21.5-.39,44,0,65-.32a27.81,27.81,0,0,1-3.34.17c4.44.24,16.43,0,16.51-.18,3.27,0,.76.18,2.77.28,4.46.14,11.19-.31,13.56-.07a14.51,14.51,0,0,1-2.07.1c2.91-.12,13.54,0,10.76-.25,7.9.13,15.11-.13,21.41,0,4.1-.31,13.51.15,14.82-.29-.57.45,13.84.36,18.84.15-1.67.14,4.34.14,2.38.33,5.7,0,10.92-.09,9.93-.32,10.5.54,21.1-.44,27,.26,16.93-.24,32.6-.41,47.82-.52-.54.46-16.83,0-16.17.52,14.44-.18,22.77-.57,37.1-.46,3.71.06-2.11.19-3.36.27,14.43-.18,27.91,0,40.75-.2,0,0-1.42.09-2.73.12,2.53,0,5.88.07,5.6-.14l-2.47.06c-4-.3,10-.63,10.5-.78-4.29.59,12.69.15,5.86.89,1.67,0,3.76-.14,3.38-.28,2.47,0,3.25.12.75.28,9.06-.11,5.84-.33,14-.32,0,.1-1.68.13-2.53.25,4.16-.19,8.34-.39,15.28-.3-.42.06.38.13-1.69.13,11.92,0,20.32-.51,33.4-.33-3.86.44,4.45.15,5.14.52l7-.11-2.82-.18c6.16,0,11.6-.27,16.9-.15l-4.58.16,11.54-.07-6.53-.14c6.23-.2-.67-.48,7.53-.37-1.66,0,6.16,0,9.37.22h0c3.05-.12,6.18-.24,10.74-.15,1.18.12-.95.41-.18.49,3-.31,14.42-.08,18.23-.42-1.27.08-1.34.28-.92.32l2.53-.25c2.85.08,3.27.12,2.8.27,8.59,0-2.72-.47,7.46-.27-.8,0-.42.06-2.08.1,10.23.11,19.77-.16,29.17,0,2.77.38-8.22.1-5,.41,13.55-.07,28.07-.45,41.18-.36l-2.44,0c1.82-.53,9.77.26,16.4,0-1.62,0-2.13.3-1.69.24,9,.08,18.37-.13,32-.3l-1.69.14c5.29.12,13.94.07,19.66.13,1.7-.14,5-.12,3-.31,17.63.77,33.63-.42,49.28.23-1.87,0-4.46.11-3,.12l13.32-.13a36.68,36.68,0,0,0-4.54-.32c1.68-.14,5.45-.24,8.75-.24-6,.15,0,.37,2.64.5-.44-.07.45-.15.23-.22,7,.41,1.17-.47,10.67-.19l-.5.12c3.56-.06,6.83-.22,10.67-.19,1.59.27-3.79.13-4,.35,5.39,0,10.63-.51,15.51-.24-2.29.07-5.58.07-7.87.15,5.31.31,5.92.23,9.87.28h-.39l9.12.14-2.32-.08c6.74-.7,13.73-.13,22.81-.58-8.83.43-1.46.25-2.14.55,2.32.08,5.85.18,4.84.26,4.3-.24,7.17.19,13.23-.16.27.1,4.59,0,3.62.25,5.58-.07-1.32-.17-.85-.29,8.6-.33,20.22.4,32.59-.05,10.68-.19,12.65-.52,22.55-.68,3.34.15-2.74.35-2.74.35,5.39.14,9.45.12,14.53,0-1,.08,0,.15,1.58.26,4.08,0,2.73-.35,8.1-.21-.92.11-2.1.28-4.07.39,4.81-.09,9.55-.27,14.52-.36,1.32.17-3,.26-4.75.37,5.59-.07,14.48-.15,16.21-.42l-3.59-.1c2,0,1.05.23-.45.28-4.79.21-6.91-.09-7.18-.19l3.54-.06c-3.64-.57-14.23.09-21.36.06l3-.42-7.32.35c-1.55-.11-2.62-.34.9-.4-5.11-.21-4.52.14-8.91-.09-.49,0-.27-.05.18-.07l-5,.13c1-.09-.84-.3,2.23-.24-9-.24-14.45.31-17.83,0l.75,0c-12.44.14-1.2.31-10.53.67l-6.28-.76-1.22.31c-1.29,0-3.83,0-3.36-.16-4.77.21.82.14-2,.33-6.18-.28-17,.13-18.43-.35-2.21.23,5.91.18-.68.34-1.88-.53-7.63.09-13.27-.15,1.73-.27,7.08-.13,1.43-.37-3.4.46-11-.1-15.74,0-.23.36-10.35.15-18.34.27.51-.12-15-.2-22.45-.33l.21-.06c-1.43.36-9.1.29-14.68.37.22-.22,1.23-.31,4.25-.4h-5.25c-1.23.12-2.87.18-6.27.22l1.32-.28c-7,0-14.06.33-23.05.14-.5.26,7.15.72-2.35.89-.36-.14-.71-.38,1.78-.43-.81,0-2.9.11-4.54.05l3.79-.23c-4.09-.1-2.14.19-5.41.17.07-.19-2.42-.14-1.95-.29.83,0,2.85.08,4.1,0-3.68,0-8.14-.15-9.62-.3.33.11,0,.26-2.7.29-7,0-2.39-.24-6.46-.34-1.69.14-6.14,0-6.26.29a19.17,19.17,0,0,1-3.21-.22c-3.61.13-16.88,0-12.81.35l.93,0-.59,0h0c-11.84.29-24.6-.17-36.36-.05l0-.09c-7,.11-15.61.06-20.62.28-2.07,0-4.9-.19-4-.3-5.36.07-6,.18-13.71,0,5.39-.17-1.86-.15,5.53-.13-7-.08-8.55-.24-16,0,2.55-.25-5.24-.32-8.56-.24l4.88.18c-3.72,0-7,0-10.28,0l1.79-.33c-14.26-.41-25.72.69-36.57,0-3.77.23,7.74.16,4.37.44-6.56-.05-13.39-.53-15.45-.53-9-.18-8.38.49-17.78.36,1.2.12,2.34.44-4.69.55-6.56,0-8.07-.5-3.92-.59a12.87,12.87,0,0,1,2.26.06c2.12,0,4.91-.09,2.31-.22l-.85.12c-3.26-.12-12.29-.11-10.17-.3-5,.11-2.12.19,1.55.25-8.41-.17-13.15,0-21.81-.12,1.38.07,2.64.21,1.27.21-12.71-.15-5.59.22-14.21.27-4.89-.18,1.76-.43-6.91-.28-5.29-.12-1.12-.31,1-.41-7.9.23-14.75-.15-19.27-.19l4.16-.1c-2.48.06-4.52.06-6.6.06l2.38.24a41,41,0,0,1-4.46-.15c-2.52.16,1.92.4-3.07.61-3.26-.12-9.92.13-11-.18,10.24.1-1.14-.32,7.53-.37-1.67,0-3.71,0-6.16,0-.37,0,.35-.06,1-.08-9.8-.28-4.51.36-14.67.35,1.29-.18-2.35-.34-4-.3,4.1,0,2,.3-1.8.43-6.51-.14-7.07.1-10.48.09l3.89.06c-1.32.18-4.58.16-9.12.21-.38-.13,4.13-.09,2.51-.15-5,.31-11.39-.33-18.42-.12-3.26-.12-.32-.33-3.18-.41-7.87.23-8.53-.24-16.81,0,2.39.24,2.81.18-3,.41l13.61-.17-8.74.35c4.11,0,8.67-.15,11.13-.11-4.16.19-3.73.13-1.77.33-5.62-.36-11.14.21-17.64,0l.2-.59c-9.77-.26-17.36.3-30,.15l4.08.11c-1.71.23-7.84,0-11.94.12.38-.19-2.19-.27-3.94-.39.21.15-9.29,0-10.44.38l-5.66-.26c-10.24-.1-11.69.57-21.54.5,3-.22-1.51-.36,5.09-.51a58.68,58.68,0,0,0-6.29.1c-1.93-.12-9.12.26-12.14.08a43.59,43.59,0,0,1-5.53.27c-.4,0,0-.09,0-.09s-5.77.13-2.55.35c-10.13-.62-28.3,0-37.12-.49-7.17.07-15.82.13-22.33.15a3.09,3.09,0,0,1,1.25-.08c-9-.18-5.52.57-15.74.36-5.22-.32,5.43-.17,2.17-.29-1.42-.65-12.34.09-19.22-.29l1.67,0c-5.26-.22-12.83.25-21.42.2,0,0,.41-.06.05-.1-5.88.33-17,.44-25.27.53,2.57-.25,3.76-.13,2.19-.39-3.71,0,1.08.42-6.31.49-2.41-.14-7.74-.26-8.45-.54h7c-3.58-.36-9,0-12.71-.05l.47-.16c-10.69.05-10.84.44-22.33.42l1.19.11c-6.28.39-5.27-.21-11.53.08l-1.9-.4c-4.14.1-14.51.38-21.94.46,4.21-.3,12.9-.45,18.29-.62-4.11,0-14,0-16.1.22,1.65,0,3.74-.13,5.37-.07-5,.31-11.67.46-19.85.46,1.45-.77-21.33-.2-27.27-.79-14.48.28-28.72-.12-45.59-.08,6,.6-4.92,0-3.89.63-3.92,0-5.42,0-5.77,0l-11.91-.36c-2.82-.18,3.74-.14,3.38-.28-8.61,0-3.61-.26-9.3-.42,1.16.22-3,.32-7.9.23l6.91.28c-12,.33-10.39-.51-22.51-.19l3.83-.19c-6.22.11-22.94,0-29,.49-1.1-.07-2.55-.24.18-.28-14.86-.08-33.08.52-44.62.22l1.12-.15c-2.77,0-4.82.28-8.29.13.18-.06,1.11-.15-.17-.16-1.47.05-7.36.26-11,.17l3.14-.16c-14.49-.2-22.24.41-34.4.51,0-.44-11.37-.59-17.06-.66l.19-.06c-16.87-.05-28.66.37-44.29.54-9.71-.48-32.87-.2-48.46-.47,2.38.08-.39.34-3.16.39-3.66-.09-10.12.3-9.54-.1h1.31c-2.76-.4-10.28-.29-16.15-.3l-1,.52c-15.36-.76-40.24.29-48.62-.4-3.71.13-8.3.13-12,.26l.19-.28c-10.26-.07-15.39-.11-28.08,0l2.58-.21c-7.16,0-9,.82-15.64.84l-2-.42c-12.49,0-25.13-.37-37.47,0a9.14,9.14,0,0,1,2.59-.2c-5.88,0-22.74-.28-20.61.3-.14-.38-12.88,0-19.63.13l1.05-.28c-5.7.35-5.88.45-13.83.55-1.88,0-1.65-.22.85-.15-6.27-.15-4.89.26-12.5.11l2.84-.17a88,88,0,0,0-9.51.28,126.21,126.21,0,0,1-13.21-.33,62.67,62.67,0,0,1-8.21.29c-.52-.09.87-.15,1.57-.18-10.8-.19-16.06.32-23.49.05a4.17,4.17,0,0,0-1.26-.17c8.58,0,15.49,0,14.85,0,0-.25-6.93-.3-1.42-.65-5.56.19-15.08.61-21.83.49-.33,0-.65-.05-.9-.09l.7,0c-1.56,0-3,0-4.27,0-2.16,0-3.52-.07-5.6-.07-.79-.21-7.94-.12-11.4-.13.29.28-4.24.24,0,.47a28.38,28.38,0,0,1,3,0l1.47,0-.23,0,8.59,0a90.8,90.8,0,0,1-9.41.11c-1.77.18-3.72.37-4.82.45-4.73-.39-13.85-.6-15.12-.84-10.55.15-24.86.1-31.49.63a24.68,24.68,0,0,1-4.58-.24c1.74-.05,3.8,0,4.73-.12-6,.14-17.77.06-19.2.43-7.57-.17,4.25-.34-6.14-.28l1.4-.12c-20.44-.59-33.23,1-55.9.19a26.19,26.19,0,0,1,2.68.13c-25.84-.34-53.24.31-78.74-.22-7.24-.1-8,.13-12.45.31l-1.57-.3-7.56.35c-10.73.25-18.57-.74-32.15-.26l1.75.2c-4.87,0-15.44.12-14.63-.11a20.72,20.72,0,0,1-3.5.1l-.15-.16-12,.28c-9.28-.12,1.46-.63-12.09-.66-5,.06-14.34.46-12.45.56a36.83,36.83,0,0,1,5.34.26l-4.6.08c-.84.47-4.38.94,6.93,1.27l7.88-.28,2.53.22-6.63,0a72.79,72.79,0,0,0,8.82-.11,25,25,0,0,0,3.3.25l7.74-.45c.93.19-3.47.37,1.72.47,3.62-.21-3.48-.41,2.52-.55a41,41,0,0,0,7.1.21c.62.12-.32.19-2.07.24,3.94-.14,10.42-.06,12.45-.3,3.93.26,13.3-.07,12.91.37,1.24-.11,6.94-.35,10.55-.36-6.61.52,13.54,0,11.8.59,4.89-.47,17.66-.21,26.33-.47-.49,0-1.44.11-2.2.09,4.87,0,6.29.18,9.42.27.63-.39,8.22-.48,12.31-.72,6,.37-3.63.46-1.75.82-.3-.32,10.39-.32,8.35-.58a48.88,48.88,0,0,1,6.3.44c.8-.49,4.25-.09,8-.39,6.62.24,1.71.46,9,.31C168.2,201.92,161.74,202.1,161.74,202.1Zm172.81-.85h0l-3.57,0Zm14.52,0h-6.3c-.51-.09,0-.19,1.51-.19C343.48,201.11,346.91,201.16,349.07,201.24Zm-30.72-1.94a22,22,0,0,1,3.39.07l-4,0-.27,0A4.35,4.35,0,0,1,318.35,199.3Z"/><path class="cls-1" d="M314.22,199.67l-1,0,1.37.06.82-.09Z"/><path class="cls-1" d="M1630.69,200.08h-.3c.25,0,.48,0,.64,0Z"/><polygon class="cls-1" points="549.61 201.78 549.59 201.71 548.32 201.77 549.61 201.78"/><path class="cls-1" d="M1710.68,201.05c.15,0,.45,0,1,.07A9.7,9.7,0,0,0,1710.68,201.05Z"/><path class="cls-1" d="M1745.23,201.11l4.89.1C1748,201.15,1746.46,201.13,1745.23,201.11Z"/><path class="cls-1" d="M1771.79,201.25a2.13,2.13,0,0,0,.52-.12h0Z"/><path class="cls-1" d="M1349.42,201.58h-1C1346,201.65,1347.62,201.63,1349.42,201.58Z"/><path class="cls-1" d="M1475.11,200.92l-4,.14A17.93,17.93,0,0,0,1475.11,200.92Z"/><path class="cls-1" d="M1209.06,201.92h0Z"/><path class="cls-1" d="M1465.23,201.05c2.23.06,4.1,0,5.84,0C1469.24,201,1467.08,201,1465.23,201.05Z"/><path class="cls-1" d="M1886.93,201.38h1.28s.06,0,.15,0Z"/><path class="cls-1" d="M1888.36,201.34l1.43,0C1889.13,201.31,1888.57,201.31,1888.36,201.34Z"/><path class="cls-1" d="M1892.78,201.24l-3,.07C1890.82,201.31,1892.1,201.32,1892.78,201.24Z"/><path class="cls-1" d="M1851.77,201.25l-.41.1A.93.93,0,0,0,1851.77,201.25Z"/><path class="cls-1" d="M1841.08,201.28c2.55,0,6.39.21,10,.15l.33-.08C1849.69,201.5,1843.5,201.1,1841.08,201.28Z"/><path class="cls-1" d="M1796.47,200l9,.08c-1.57-.11-3.63-.26.45-.28C1794.59,199.49,1808.21,200.06,1796.47,200Z"/><path class="cls-1" d="M1768.71,199.86c4.81-.05-.06-.16.19-.22C1765.85,199.74,1765.11,199.76,1768.71,199.86Z"/><path class="cls-1" d="M1568,199.86l.49-.26C1564.82,199.64,1568.49,199.7,1568,199.86Z"/><polygon class="cls-1" points="1529.68 201.18 1533.29 201.34 1535.01 201.1 1529.68 201.18"/><polygon class="cls-1" points="1507.03 199.36 1508.64 199.32 1502.46 199.41 1507.03 199.36"/><path class="cls-1" d="M1170,199.45l1.12.31C1173.64,199.71,1174.17,199.35,1170,199.45Z"/><path class="cls-1" d="M1024.52,199.77a67,67,0,0,0-8.19-.1C1019.6,199.69,1022.86,199.81,1024.52,199.77Z"/><polygon class="cls-1" points="588.19 199.26 591.12 199.15 585.61 199.24 588.19 199.26"/></g></g></svg>