<svg xmlns="http://www.w3.org/2000/svg" viewBox="0 0 150 150"><defs><style>.cls-1{fill:#474747;}</style></defs><g id="Layer_2" data-name="Layer 2"><g id="Layer_1-2" data-name="Layer 1"><rect x="1.59" y="1.46" width="147.25" height="147.1"/><path class="cls-1" d="M148.19,148.56c.08.3.28.13.24-.72l-.33-.61Z"/><path class="cls-1" d="M148.79,142.81c-.16-1-.43-2.16-.73-1.51.31,1,.18,1.24.55,2.31,0,.85-.1,1.49-.22,1.34a9.84,9.84,0,0,0,.13,1.79,11.46,11.46,0,0,0,0-4C148.65,142.44,148.73,142.74,148.79,142.81Z"/><path class="cls-1" d="M149.3,59.37l0,.54C149.28,59.76,149.29,59.58,149.3,59.37Z"/><path class="cls-1" d="M149.48,7.67c0,.4,0,.56.07.58C149.52,7.89,149.5,7.59,149.48,7.67Z"/><path class="cls-1" d="M146.23.47l.52,0A1.58,1.58,0,0,0,146.23.47Z"/><path class="cls-1" d="M149.3,59.37l.1-1.38C149.29,57.89,149.32,58.7,149.3,59.37Z"/><path class="cls-1" d="M148,131.31a5.07,5.07,0,0,0,.08.75l0-.71Z"/><path class="cls-1" d="M149.56,82.16v.42a2.84,2.84,0,0,0,.13.35Z"/><path class="cls-1" d="M149.61,99.65c0-.39-.26-.53-.38-.68a2.43,2.43,0,0,1,.19.86C149.47,99.84,149.53,99.79,149.61,99.65Z"/><path class="cls-1" d="M149.13,127.39l0,.49C149.15,127.75,149.14,127.54,149.13,127.39Z"/><path class="cls-1" d="M149.62,69.64a.32.32,0,0,0,.1-.16S149.65,69.55,149.62,69.64Z"/><path class="cls-1" d="M128.55,147.26s0,0,0,.05S128.68,147.26,128.55,147.26Z"/><path class="cls-1" d="M148.84,148.63h-.28a.35.35,0,0,0-.06.16Z"/><path class="cls-1" d="M130.06.11h.07C130.55.09,130.31.09,130.06.11Z"/><path class="cls-1" d="M.45,21.43c.24-1.68.31,2.73.59.2C.93,21.87.61,19.33.45,21.43Z"/><path class="cls-1" d="M148,130.85v-.71C148,130.46,148,130.68,148,130.85Z"/><path class="cls-1" d="M1,21.63H1l0-.26C1.05,21.48,1.05,21.54,1,21.63Z"/><path class="cls-1" d="M92.8.28a1.13,1.13,0,0,0,.38.12S93.08.34,92.8.28Z"/><path class="cls-1" d="M120.55.67l-.68,0Z"/><path class="cls-1" d="M78.38.67a5.37,5.37,0,0,0-1,0l.16,0A2.8,2.8,0,0,1,78.38.67Z"/><path class="cls-1" d="M63.38.67l.28.06.47,0Z"/><path class="cls-1" d="M83,147.39a3.23,3.23,0,0,1,.69.25C83.42,147.45,85.62,147.38,83,147.39Z"/><path class="cls-1" d="M148.16,131.3a.84.84,0,0,1-.12-.45c0,.18,0,.34,0,.5S148.14,131.41,148.16,131.3Z"/><path class="cls-1" d="M77.77,2.84l-2.38,0C76.06,2.83,76.92,2.84,77.77,2.84Z"/><path class="cls-1" d="M2.71,122.33l0,.55A2.3,2.3,0,0,0,2.71,122.33Z"/><path class="cls-1" d="M68.32,2.84A11.25,11.25,0,0,0,67,2.65a1.5,1.5,0,0,0-.27.07Z"/><path class="cls-1" d="M83.65,147.65h0Z"/><path class="cls-1" d="M99.35,147c-2.27,0-1.06.35-1.55.56-2.71.11-1.25-.26-2.17-.45-1.7.1-3,.43-4.26.42-.09-.06-.33-.09-.05-.16-1.79.29-5.31,0-7.39.38a1.48,1.48,0,0,1-.28-.09c.34.18.39.36.32.49-1,0-1.89.23-2.27,0a2.13,2.13,0,0,0,1-.16l-1.07.1c-1-.34,1.46-.11,1.46-.36-2.08.11-4.51.39-6.1.29-.33-.33,3.73-.11,1.6-.41l2.47.13c-1.89-.53,1.5,0-.24-.53-3.24-.09-3.63.17-6.86.08-.73.18.24.27-.49.46-4.6.33-3.62-.84-7-.4a6.57,6.57,0,0,1-3.62.42l.82-.37c-3.14,0-1.79.54-5.09.28.59-.14,2.47-.12,2-.17-2.13-.29-1.51.22-3.15.22l-.34-.34c-3.34.06-7,.3-10.73.36.2-.1.84-.2,0-.31-4.67.17-10,0-14.48-.23l-1.73.28c-.4,0-.74-.13-.31-.18-1.75-.11-.09.18-.93.29-1,0-1.32-.16-.69-.25a88.38,88.38,0,0,1-12.1.22l.64-.09c-2.54-.11-2.87.59-5.23.32l.45-.05c-1.7,0-3.47,0-5.21,0H2.45c0-.71,0-1.39.08-2,0-.92.09-1.79.18-2.59-.42-.8.18-5.46-.4-5.82.29-3.15.39-2.24.59-6.68,0-1.18-.36-1.76-.42-3.23l.3,0-.32-2,.36-1.06-.08-1.37c0,.54-.13,1.16-.22,1.08a19.36,19.36,0,0,1,.37-5.29l-.26-5.07a7,7,0,0,1,.24,1.63c-.31-2.71.32-.49,0-3-.07.33-.18-.18-.24-.24a45.43,45.43,0,0,0,.1-6.14l.21.4c.06-3.76-.1-7.93-.09-12.16-.1,1.52-.46,1.17-.5-.07l.32-.49c-.19-.8-.12,1.29-.36-.35,0-1.58.36-1.06.47-.16l-.11-1.92c.09-.11.14.34.26.46-.19-.79.33-3.31,0-4.45l.1-.11c0-4.22-.11-6.14-.13-9.58C2.65,77.39,2.71,76,2.48,75c.09-2.53.31-5.34.29-8.39-.14-2.14-.24-.62-.4-1.58.25-.16.23-3.2.41-1.63,0-3.65,0-4.67-.26-9.29-.1.5-.15,1.07-.23.77,0-.83.1-1.9.23-1.78l0,.22c-.38-5.19.73-12,.21-16.12l0,.24L2.5,33.17c0-2,.19,1.18.35-.28-.42-4.62.06-7.3-.22-11.11.74-3,0-10.46.42-14.43l-.17.23a5.68,5.68,0,0,1,.14-2c-.14.11-.16,1.12-.26.48,0-1.14,0-2.3,0-3.47l4.42,0,5.6.13L23.93,3c3.26,0,1.85-.9,6-.48l-1.17.32c6.6-.39,13.49,0,20-.31a3.16,3.16,0,0,1-1,.17,17.67,17.67,0,0,0,5.06-.18c1,0,.24.17.86.27,1.36.14,3.43-.3,4.16-.07.12,0-.39.08-.64.1.89-.12,4.16,0,3.3-.25,2.43.13,4.64-.12,6.57,0,1.27-.3,4.15.15,4.55-.28-.17.44,4.25.36,5.79.15-.52.13,1.33.14.73.32,1.75,0,3.35-.08,3-.31,3.22.53,6.47-.43,8.29.25,5.19-.24,10-.4,14.68-.5-.17.44-5.17,0-5,.51,4.43-.19,7-.57,11.39-.46,1.14.06-.65.19-1,.27,4.43-.18,8.56,0,12.5-.2a3.71,3.71,0,0,1-.83.12c.77,0,1.8.06,1.71-.14l-.75.06c-1.24-.3,3.08-.61,3.22-.77-1.32.58,3.89.15,1.8.87.51,0,1.15-.13,1-.26.75,0,1,.11.23.27,2.78-.11,1.79-.33,4.31-.32,0,.1-.52.13-.78.25a22.41,22.41,0,0,1,4.69-.3c-.13.06.12.14-.52.13,3.66,0,6.24-.5,10.26-.32-.6.21-.26.25.26.28l.41,0,.32,0c.11,0,.18.09.16.18l.37,0,.06.44a4.37,4.37,0,0,0,.18-.49c0,.12,0,.24,0,.36l0,.43c0,.45.05.88.07,1.31a18.91,18.91,0,0,1,0,2.49l-.15-1.4.07,3.54.14-2c.19,1.92.46-.2.36,2.31,0-.51,0,1.89-.22,2.88h0a16.29,16.29,0,0,1,.15,3.29c-.12.37-.41-.29-.49-.05.31.92.09,4.42.41,5.59-.07-.39-.26-.41-.3-.28l.24.77c-.07.87-.11,1-.27.86,0,2.63.47-.84.27,2.29a6.25,6.25,0,0,1-.1-.64c-.1,3.14.16,6.06,0,8.94-.37.85-.09-2.52-.4-1.54.06,4.15.44,8.6.35,12.63l0-.75c.52.55-.25,3,0,5,0-.49-.29-.65-.23-.51-.08,2.75.13,5.63.29,9.8l-.13-.52c-.12,1.63-.07,4.28-.13,6,.13.52.11,1.53.3.92-.76,5.4.41,10.31-.22,15.1,0-.57-.12-1.36-.12-.91l.12,4.09c.23-.32.14-.54.32-1.39a13.64,13.64,0,0,1,.24,2.68c-.15-1.84-.37,0-.49.81.07-.13.14.14.21.07-.4,2.13.46.36.19,3.27l-.12-.15c.06,1.09.22,2.09.18,3.27-.26.49-.12-1.16-.34-1.24,0,1.66.5,3.26.24,4.76-.07-.7-.07-1.71-.15-2.41a13.76,13.76,0,0,0-.28,3V95l-.14,2.8.09-.71c.68,2.06.12,4.21.57,7-.43-2.71-.25-.45-.54-.65-.09.71-.18,1.79-.26,1.48.24,1.32-.19,2.2.16,4.06-.1.08,0,1.4-.25,1.11.07,1.71.17-.41.29-.26.32,2.63-.4,6.2.05,10,.18,3.27.51,3.88.67,6.91-.16,1-.35-.84-.35-.84a26.59,26.59,0,0,0,0,4.46c-.08-.32-.15,0-.26.48,0,1.25.35.84.21,2.49a6,6,0,0,1-.39-1.25c.09,1.47.27,2.93.36,4.45-.17.41-.26-.92-.37-1.46a28.8,28.8,0,0,0,.42,5l.09-1.1c0,.63-.22.32-.27-.14-.21-1.46.09-2.11.19-2.2l.06,1.09c.56-1.12-.09-4.36-.06-6.55l.41.91-.34-2.24c.11-.48.33-.8.4.28.2-1.57-.15-1.39.07-2.74,0-.15.06-.08.08.06l-.13-1.53c.09.3.29-.26.23.68.24-2.75-.3-4.43,0-5.47l0,.23c-.14-3.81-.3-.36-.65-3.23l.74-1.92-.3-.38c0-.39,0-1.17.15-1-.2-1.47-.13.25-.32-.6.27-1.9-.13-5.23.35-5.65-.23-.68-.18,1.81-.34-.21.52-.58-.08-2.34.15-4.07.27.53.13,2.17.36.44-.44-1,.1-3.37,0-4.83-.36-.07-.15-3.17-.27-5.62.12.15.19-4.61.32-6.89l.06.07c-.36-.44-.29-2.79-.36-4.5.21.07.3.37.39,1.3V82.58a8.68,8.68,0,0,1-.22-1.92l.27.4c0-2.14-.31-4.31-.13-7.06-.26-.16-.7,2.19-.87-.72.13-.11.37-.22.42.54a7.14,7.14,0,0,1-.05-1.39l.23,1.16c.1-1.25-.2-.65-.17-1.66.19,0,.13-.74.29-.6a10.34,10.34,0,0,0,0,1.26,16.12,16.12,0,0,1,.3-3c-.11.1-.26,0-.29-.82,0-2.14.24-.74.34-2-.14-.51,0-1.88-.29-1.92a2,2,0,0,1,.22-1c-.13-1.11,0-5.17-.35-3.93l0,.29v-.18h0c-.29-3.63.16-7.55,0-11.15h.1c-.11-2.16-.07-4.79-.28-6.33,0-.63.18-1.5.3-1.23a23.62,23.62,0,0,1,0-4.2c.17,1.65.15-.57.13,1.69a23.08,23.08,0,0,0,0-4.91c.25.78.31-1.61.24-2.62l-.18,1.49c0-1.14,0-2.14,0-3.15l.33.55c.39-4.37-.68-7.89,0-11.22-.22-1.15-.16,2.38-.42,1.35,0-2,.51-4.11.51-4.74.18-2.76-.48-2.57-.35-5.45-.12.36-.43.71-.54-1.44s.49-2.47.58-1.2c0,.48,0,.71-.06.69,0,.65.09,1.5.21.71l-.11-.26c.12-1,.1-3.77.3-3.12-.12-1.52-.2-.65-.26.48.06-.91.08-1.68.08-2.41V.53h-2.41l-.61,0a2.57,2.57,0,0,1,.51.12c.18.05.08.08-.12.08-3.9-.14-1.72.22-4.36.27-1.5-.18.54-.42-2.12-.27-1.63-.12-.35-.31.3-.41A36.76,36.76,0,0,1,135,.09L136.32,0c-.76.06-1.39.05-2,.05l.72.24a4.18,4.18,0,0,1-1.37-.14c-.77.15.6.39-.94.59-1-.11-3,.13-3.39-.18,3.15.11-.34-.31,2.32-.36a14.78,14.78,0,0,1-1.89,0c-.12,0,.1-.07.31-.09-3-.27-1.39.35-4.5.35.39-.18-.73-.33-1.24-.3,1.26,0,.61.29-.55.43a23,23,0,0,0-3.22.08l1.2.07a13,13,0,0,1-2.8.2c-.12-.13,1.27-.09.77-.15-1.55.3-3.5-.32-5.65-.11-1-.12-.1-.33-1-.41-2.42.23-2.62-.24-5.16-.05.73.23.86.18-.93.4l4.18-.16L108.5.8c1.26,0,2.66-.15,3.42-.11-1.28.19-1.15.14-.55.33-1.72-.35-3.42.2-5.41,0L106,.41c-3-.26-5.33.29-9.22.15l1.25.1a28.1,28.1,0,0,1-3.67.13c.12-.2-.67-.27-1.2-.39.06.14-2.85,0-3.21.37L88.23.52c-3.14-.11-3.58.55-6.61.48.91-.21-.46-.34,1.57-.49A5.84,5.84,0,0,0,81.25.6c-.59-.12-2.8.26-3.72.08a4.18,4.18,0,0,1-1.7.27c-.12,0,0-.09,0-.09s-1.77.13-.78.34c-3.11-.6-8.69.05-11.39-.47-2.2.06-4.86.12-6.86.14.13-.06,0-.1.39-.08-2.76-.18-1.7.56-4.83.36C50.75.83,54,1,53,.86c-.43-.64-3.78.09-5.9-.29l.51,0C46,.32,43.7.78,41.06.73c0,0,.13,0,0-.09a71.78,71.78,0,0,1-7.75.52C34.11.91,34.47,1,34,.77c-1.14,0,.33.41-1.94.48A10,10,0,0,1,29.46.72H31.6c-1.09-.35-2.77,0-3.9,0l.15-.15C24.57.56,24.52.94,21,.92l.37.11c-1.93.38-1.62-.21-3.54.07L17.24.71c-1.27.1-4.46.38-6.74.45,1.29-.29,4-.43,5.61-.6a34.23,34.23,0,0,0-4.94.22A9.17,9.17,0,0,1,12.82.7a31.47,31.47,0,0,1-6.09.45C6.88.9,6.23.8,5.22.75,4.72.72,4.13.71,3.5.7L.8.67c0,.5,0,1,0,1.46s0,1-.05,1.21A6.86,6.86,0,0,1,.51,4.68c.27,4.44-.12,8.81-.08,14,.59-1.83,0,1.51.62,1.19a9.46,9.46,0,0,1,0,1.77L.68,25.28c-.17.86-.13-1.15-.27-1,0,2.64-.25,1.11-.41,2.85.21-.36.31.92.23,2.42L.5,27.4c.32,3.68-.5,3.18-.18,6.9L.13,33.12c.11,1.91,0,7,.47,8.9-.07.34-.23.79-.27-.05C.26,46.52.84,52.11.54,55.65L.4,55.3a11.37,11.37,0,0,1,.13,2.55c-.07-.06-.15-.34-.16,0a21.57,21.57,0,0,1,.17,3.38l-.16-1c-.2,4.45.4,6.82.5,10.55-.43,0-.57,3.49-.64,5.23L.18,76C.12,81.22.53,84.83.7,89.62.23,92.6.51,99.7.24,104.48c.08-.73.34.12.38,1-.08,1.12.3,3.1-.09,2.92V108c-.38.85-.28,3.15-.29,5l.52.3C0,117.93,1,125.56.36,128.13c.13,1.14.13,2.54.26,3.67l-.28-.06c-.07,3.15-.11,4.72,0,8.61l-.2-.79c0,2.19.8,2.77.82,4.8L.5,145c0,1.58,0,3.16-.07,4.75l5.13.08c1.32,0,2.63,0,3.94-.17-.07.06-.18.18-.8.2,1.8,0,7,.28,6.33-.29,0,.37,4,0,6-.13l-.32.28a17.93,17.93,0,0,1,4.24-.55c.58,0,.51.22-.26.15,1.93.15,1.5-.26,3.84-.11l-.87.17a8.87,8.87,0,0,0,2.92-.27,12.75,12.75,0,0,1,4,.31,6.36,6.36,0,0,1,2.52-.28c.16.1-.27.16-.48.18,3.32.19,4.93-.31,7.21-.05.05.09.2.14.39.17-2.64,0-4.76,0-4.56,0,0,.25,2.13.29.43.64a44.94,44.94,0,0,1,6.71-.48,1.07,1.07,0,0,1,.27.08l-.21,0a8,8,0,0,0,1.31,0c.66,0,1.08.07,1.71.08a18.34,18.34,0,0,0,3.51.12c-.09-.28,1.3-.23,0-.46.16,0-.21,0-.91,0l-.45,0,.07,0-2.64,0a9.22,9.22,0,0,1,2.89-.11c.54-.18,1.14-.36,1.48-.44,1.45.38,4.25.59,4.64.83,3.24-.16,7.63-.11,9.67-.62a2.59,2.59,0,0,1,1.4.23,14,14,0,0,0-1.45.12c1.84-.14,5.46-.06,5.89-.42,2.33.17-1.3.33,1.89.28l-.43.11c6.27.57,10.2-.93,17.15-.19a2.73,2.73,0,0,1-.82-.12c7.93.33,16.35-.31,24.17.21a14.14,14.14,0,0,0,3.82-.3l.49.29,2.32-.34c3.29-.25,5.7.73,9.86.26L132,149c1.49,0,4.74-.12,4.49.11a2,2,0,0,1,1.07-.11l.05.16,3.67-.27c2.85.12-.44.62,3.72.65,1.54-.06,4.4-.45,3.82-.56s-1.6-.09-1.64-.25l1.41-.08c.26-.45,1.34-.92-2.13-1.24l-2.41.28-.78-.22,2,0a6.91,6.91,0,0,0-2.7.11,2.49,2.49,0,0,0-1-.25l-2.37.44c-.29-.18,1.06-.36-.53-.46-1.11.21,1.07.4-.77.54-1.16-.21-.82-.38-2.18-.2-.19-.12.09-.19.63-.25a32.82,32.82,0,0,0-3.82.31c-1.21-.26-4.08.06-4-.37a21.55,21.55,0,0,1-3.24.36c2-.52-4.16,0-3.62-.59-1.5.47-5.42.21-8.08.47a2.17,2.17,0,0,1,.67-.09,27.84,27.84,0,0,1-2.89-.27c-.19.39-2.52.48-3.78.71-1.83-.37,1.11-.45.54-.81.09.32-3.19.32-2.56.58a5.54,5.54,0,0,1-1.94-.43c-.24.48-1.3.08-2.47.37-2-.24-.52-.45-2.75-.3C97.37,147.16,99.35,147,99.35,147Zm-53,.83h0l1.09,0Zm-4.46,0h1.94c.15.09,0,.19-.47.18C43.57,148,42.52,147.91,41.85,147.83Zm9.43,1.91a2.23,2.23,0,0,1-1-.08l1.24,0,.08,0A.91.91,0,0,1,51.28,149.74Z"/><path class="cls-1" d="M52.55,149.37l.29,0-.42-.06-.25.09Z"/><path class="cls-1" d="M149.25,60v-.09a.88.88,0,0,1,0,.2A.53.53,0,0,1,149.25,60Z"/><polygon class="cls-1" points="2.85 127.29 2.78 127.3 2.84 127.69 2.85 127.29"/><path class="cls-1" d="M148.31,84.53a.88.88,0,0,0-.07.32A2.11,2.11,0,0,0,148.31,84.53Z"/><path class="cls-1" d="M148.24,95.12l-.09,1.5C148.2,96,148.23,95.5,148.24,95.12Z"/><path class="cls-1" d="M148.11,103.27a.38.38,0,0,0,.12.16v0Z"/><path class="cls-1" d="M121.12,2.52h-.32C120.06,2.58,120.56,2.56,121.12,2.52Z"/><path class="cls-1" d="M148.43,12.3c-.05-.41-.1-.81-.13-1.24C148.28,11.75,148.27,12.28,148.43,12.3Z"/><path class="cls-1" d="M78,2.85h0Z"/><path class="cls-1" d="M148.3,9.27a11.83,11.83,0,0,0,0,1.79A17.81,17.81,0,0,0,148.3,9.27Z"/><path class="cls-1" d="M148,138.57V139s0,0,0,0Z"/><path class="cls-1" d="M148,139l0,.43A1.12,1.12,0,0,0,148,139Z"/><path class="cls-1" d="M148.12,140.36l-.07-.92A3.21,3.21,0,0,0,148.12,140.36Z"/><path class="cls-1" d="M148.11,127.79l-.1-.13A.17.17,0,0,0,148.11,127.79Z"/><path class="cls-1" d="M148.08,124.51c0,.78-.21,2-.15,3l.08.1C147.86,127.15,148.25,125.25,148.08,124.51Z"/><path class="cls-1" d="M149.32,110.83l-.08,2.75c.1-.48.25-1.11.27.14C149.83,110.26,149.27,114.43,149.32,110.83Z"/><path class="cls-1" d="M149.47,102.32c.05,1.48.16,0,.22.06C149.59,101.45,149.57,101.22,149.47,102.32Z"/><path class="cls-1" d="M149.47,40.79l.25.15C149.69,39.81,149.63,40.93,149.47,40.79Z"/><polygon class="cls-1" points="148.18 29.03 148.02 30.14 148.25 30.67 148.18 29.03"/><polygon class="cls-1" points="149.96 22.09 150 22.58 149.91 20.68 149.96 22.09"/><path class="cls-1" d="M66.05.43l.34.31C67.16.68,67.32.33,66.05.43Z"/><path class="cls-1" d="M21.39.74a6.77,6.77,0,0,0-2.51-.1C19.88.66,20.88.78,21.39.74Z"/><polygon class="cls-1" points="0.37 115.46 0.26 114.56 0.35 116.25 0.37 115.46"/></g></g></svg>