<svg xmlns="http://www.w3.org/2000/svg" viewBox="0 0 65 40"><defs><style>.cls-1{fill:#fff;}</style></defs><g id="Layer_2" data-name="Layer 2"><g id="Layer_1-2" data-name="Layer 1"><path class="cls-1" d="M54.44.72c-.13,0-.23,0-.2.06S54.43.74,54.44.72Z"/><path class="cls-1" d="M51.2.44l.18,0A.3.3,0,0,0,51.2.44Z"/><path class="cls-1" d="M64.58,9l.1-.46C64.58,8.49,64.6,8.76,64.58,9Z"/><path class="cls-1" d="M64.84,16.69a.69.69,0,0,0,.13.11l-.13-.25Z"/><path class="cls-1" d="M64.51,22.13a.41.41,0,0,1,.19.28.32.32,0,0,0,.19-.05C64.9,22.22,64.63,22.18,64.51,22.13Z"/><path class="cls-1" d="M64.14,38.66H64a.77.77,0,0,0,0,.15Z"/><path class="cls-1" d="M45.65.11h0C45.82.08,45.74.09,45.65.11Z"/><path class="cls-1" d="M.44,8c.24-.56.31.91.58.07C.91,8.16.6,7.32.44,8Z"/><path class="cls-1" d="M32.86.27A.47.47,0,0,0,33,.38S33,.32,32.86.27Z"/><path class="cls-1" d="M27.92.63a.79.79,0,0,0-.35,0l.05,0A.36.36,0,0,1,27.92.63Z"/><path class="cls-1" d="M22.77.64l.09,0,.17,0Z"/><path class="cls-1" d="M64.89,16.18a9.12,9.12,0,0,1-.13-2.34c-.17,0-.43.3-.62.22v-.48a.24.24,0,0,1,.18.2.82.82,0,0,1,0-.46l.22.38c.1-.41-.19-.21-.16-.55.19,0,.13-.24.28-.2s-.08.29,0,.42a2,2,0,0,1,.29-1c-.11,0-.26,0-.28-.27,0-.71.23-.25.32-.66-.13-.17,0-.63-.27-.64,0-.21.13-.24.21-.32-.13-.37,0-1.72-.34-1.31l0,.1V9.23c-.29-1.21.16-2.51,0-3.7h.1a11.83,11.83,0,0,0-.27-2.1c0-.21.17-.5.29-.41,0-.28-.08-.53-.1-.74a5.58,5.58,0,0,1,.08-1.06c.16.62.14-.37.12.69,0-.52.1-.89.11-1.24a5.27,5.27,0,0,0-1.32.14c.24-.12.09-.2-.23-.23a4.11,4.11,0,0,0-.94,0A5.63,5.63,0,0,0,63,.75h-.69l-.52,0L62,.43c-1.51-.37-2.71.64-3.86,0-.39.22.82.16.46.41A9.09,9.09,0,0,1,57,.36C56,.19,56.09.81,55.1.7c.13.11.25.4-.49.51-.69-.05-.85-.47-.41-.56.16,0,.24,0,.24.07.22,0,.51-.09.24-.21l-.09.11c-.34-.11-1.3-.1-1.07-.28-.53.1-.23.18.16.24-.89-.16-1.38,0-2.3-.12.15.07.28.19.14.19-1.34-.13-.59.21-1.5.26-.52-.17.18-.4-.73-.26-.56-.11-.12-.29.1-.38a4.93,4.93,0,0,1-2-.18L47.8,0a3.4,3.4,0,0,1-.69.05l.25.22c-.26,0-.48,0-.47-.13-.27.15.2.37-.33.57-.34-.12-1,.12-1.16-.18,1.08.1-.12-.29.8-.34a2,2,0,0,1-.65,0s0-.06.1-.08c-1-.26-.47.33-1.54.32.13-.16-.25-.31-.42-.27.43,0,.2.27-.19.4-.69-.13-.75.09-1.11.08L42.8.7c-.14.16-.48.14-1,.19,0-.12.44-.08.26-.14-.53.29-1.2-.3-1.94-.11-.34-.11,0-.31-.33-.38C39,.47,38.93,0,38.06.21c.25.22.29.17-.32.38L39.17.44l-.92.32c.44,0,.92-.14,1.18-.1-.44.18-.4.12-.19.31-.59-.34-1.17.19-1.86,0l0-.55c-1-.25-1.83.28-3.16.14l.43.1c-.18.21-.83,0-1.26.11,0-.18-.23-.25-.42-.36,0,.14-1,0-1.1.35L31.3.49C30.22.39,30.07,1,29,1c.31-.2-.16-.33.53-.47-.34,0-.65,0-.66.09-.2-.11-1,.25-1.28.08-.14.08-.19.27-.58.25,0,0,0-.09,0-.09s-.61.13-.27.33c-1.06-.57-3,0-3.91-.45-.75.06-1.66.12-2.35.13,0,0,0-.09.13-.07-.94-.17-.58.53-1.66.34-.55-.3.57-.16.23-.28-.15-.6-1.3.09-2-.27l.17,0C16.81.3,16,.74,15.11.69a.07.07,0,0,0,0-.09,9.33,9.33,0,0,1-2.66.5c.27-.24.39-.13.23-.37-.39,0,.11.39-.67.46-.25-.13-.81-.25-.89-.5l.74,0c-.38-.33-.95,0-1.34,0l.05-.15C9.44.53,9.43.89,8.22.87L8.34,1c-.66.36-.55-.21-1.21.06L6.93.68a22.59,22.59,0,0,1-2.31.42A9.59,9.59,0,0,1,6.54.53,4.32,4.32,0,0,0,4.85.74,1.09,1.09,0,0,1,5.41.67a4.25,4.25,0,0,1-2.09.42c0-.23-.1-.33-.65-.38S1.46.67.79.64A3.43,3.43,0,0,1,.5,2.16c0,.28.05.56.07.85a5,5,0,0,1,0,.55,10.57,10.57,0,0,1,0,1.12A22.92,22.92,0,0,0,.42,7.09c.58-.6,0,.51.61.4,0,.39,0,.55,0,.59L1,8l0,.09H1L.67,9.29C.5,9.58.54,8.91.41,9c0,.87-.25.36-.41.94.21-.12.3.31.22.81L.49,10c.32,1.23-.49,1.06-.18,2.3l-.19-.4c.11.64,0,2.34.47,3-.07.11-.23.26-.27,0-.07,1.51.5,3.37.21,4.54l-.14-.11c0,.28.27.49.12.84,0,0-.14-.11-.15,0a2.49,2.49,0,0,1,.17,1.12l-.16-.32c-.19,1.48.39,2.27.49,3.51-.42,0-.56,1.15-.63,1.73l-.06,0a29.46,29.46,0,0,0,.52,4.51C.23,31.64.5,34,.24,35.59c.08-.25.33,0,.37.32s.3,1-.09,1v-.14a.64.64,0,0,0-.2.3,3.78,3.78,0,0,0-.08.71c0,.57,0,1.19,0,1.75l.51-.28,0,.2a7.55,7.55,0,0,0,2.06.23h.87l.72,0a4,4,0,0,1,2.22.16c.39-.12.88-.12,1.26-.24l0,.26a21.87,21.87,0,0,0,3,0L10.5,40c.75,0,.95-.76,1.65-.78l.21.4c1.31,0,2.65.34,3.95,0a.28.28,0,0,1-.28.19c.62,0,2.4.26,2.17-.28,0,.36,1.36,0,2.07-.12l-.11.26a2.65,2.65,0,0,1,1.46-.51c.2,0,.17.21-.09.14.66.14.51-.24,1.32-.11l-.3.17a1.29,1.29,0,0,0,1-.26c.43-.11,1.29.06,1.39.3a.93.93,0,0,1,.87-.27c.05.09-.1.14-.17.17,1.14.18,1.69-.3,2.48-.05a.18.18,0,0,0,.13.16c-.91,0-1.63,0-1.57,0,0,.24.73.28.15.61a6,6,0,0,1,2.3-.46.39.39,0,0,1,.1.08l-.08,0a1.1,1.1,0,0,0,.45,0,3.06,3.06,0,0,0,.59.07c.09.2.84.11,1.2.12,0-.26.45-.22,0-.44.06,0-.06,0-.31,0l-.15,0,0,0-.9,0a1.19,1.19,0,0,1,1-.1,5.74,5.74,0,0,1,.51-.42c.5.36,1.46.56,1.59.78,1.11-.14,2.62-.09,3.32-.58.31-.07.36.14.48.21a2.29,2.29,0,0,0-.5.12c.63-.13,1.87,0,2-.4.79.16-.45.32.64.26l-.15.11c2.16.55,3.51-.88,5.89-.17-.16-.05-.25-.07-.28-.12,2.72.31,5.61-.3,8.3.2.76.1.84-.12,1.31-.29l.16.28.8-.32c1.13-.24,2,.69,3.39.24L58.34,39c.52,0,1.63-.11,1.54.1.06,0,.17-.19.37-.09l0,.14,1.26-.25c1,.11-.15.58,1.27.61.54,0,1.52-.42,1.32-.52s-.55-.09-.57-.24l.49-.08a.24.24,0,0,1,0-.08h.08v-.27a.74.74,0,0,0,0-.33V33.05l.07.05-.07-.16v-.7s.1.07.13.21c.19-.52-.15-.46.07-.91,0-.05.06,0,.07,0l-.12-.51c.09.1.29-.08.23.23.23-.91-.3-1.47,0-1.81l0,.07c-.1-.94-.22-.54-.41-.68v-.59l.49-.44-.29-.12c0-.13,0-.39.15-.34-.2-.49-.13.08-.32-.2.27-.63-.12-1.74.34-1.88-.22-.22-.17.6-.32-.07.5-.19-.09-.77.14-1.35.26.18.12.72.36.15-.44-.35.09-1.12,0-1.61-.35,0-.15-1.05-.27-1.86a14.85,14.85,0,0,0,.32-2.29l.06,0c-.35-.14-.28-.92-.36-1.49.21,0,.3.12.39.43v-.53a1.1,1.1,0,0,1-.21-.64ZM30.72,39.61l0,0a.38.38,0,0,1-.09.13c-.24,0-.33,0-.36-.07Zm33.46-8.27,0,.06v-.28C64.15,31.19,64.17,31.26,64.18,31.34Z"/><path class="cls-1" d="M31.08,39.37l.1,0a.42.42,0,0,0-.14-.06l-.09.08Z"/><path class="cls-1" d="M64.54,9.16l0,.07,0,0Z"/><path class="cls-1" d="M64.6,26.07l-.08.91c.11-.16.25-.37.27,0C65.1,25.88,64.56,27.26,64.6,26.07Z"/><path class="cls-1" d="M64.75,23.24c0,.49.15,0,.21,0C64.87,23,64.84,22.88,64.75,23.24Z"/><path class="cls-1" d="M64.75,2.79l.25.06C65,2.27,64.9,2.86,64.75,2.79Z"/><polygon class="cls-1" points="59.36 0.29 58.71 0.37 59.19 0.32 59.36 0.29"/><path class="cls-1" d="M23.68.41,23.8.7C24.07.65,24.12.32,23.68.41Z"/><path class="cls-1" d="M8.36.7A.91.91,0,0,0,7.49.61,5.92,5.92,0,0,0,8.36.7Z"/><polygon class="cls-1" points="0.91 39.84 2.01 39.76 1.53 39.75 0.91 39.84"/><path d="M25.36,23.9a4.82,4.82,0,0,1-.48,1.82,8.2,8.2,0,0,0-.63,1.78,6.13,6.13,0,0,1-3,.67,16.16,16.16,0,0,1-2.69-.29c-1.38-.22-2.27-.35-2.67-.38a1.31,1.31,0,0,1-1.05.53,3.62,3.62,0,0,1-.49,0l-.49,0a1.24,1.24,0,0,0-.75.21,8,8,0,0,0-.91-.72c-.43-.3-.65-.58-.65-.84s.34-.69,1-.89,1-.53,1-1v-.29a4.08,4.08,0,0,0,.51-1.58c0-.55.1-1.09.16-1.63a13.36,13.36,0,0,1-.24-2.52,21.87,21.87,0,0,1,.48-4c-.21-.47-.41-.92-.62-1.37a1.37,1.37,0,0,0-1.18-.74h-.29c.15-.31.5-.45,1.06-.43h.1a.79.79,0,0,0,.62.45,1.09,1.09,0,0,0,.61-.29,1.18,1.18,0,0,1,.66-.28.87.87,0,0,1,.65.33,2.08,2.08,0,0,1,1.73-.72,6,6,0,0,1,2.21.51c.45,0,.9-.05,1.34-.11A12.44,12.44,0,0,1,22.79,12c1,0,1.63.22,1.92.67a2.15,2.15,0,0,1,.19,1.06c0,.4,0,.81-.09,1.21a9.39,9.39,0,0,0-.1,1.19l-.19,0a1.17,1.17,0,0,1-1.08-.79c-.19-.5-.39-1-.58-1.46a1.3,1.3,0,0,0-1.22-.82h-.41l-.7-.43a3.86,3.86,0,0,1-2.11.65,2.75,2.75,0,0,1-1.82-.65,2.31,2.31,0,0,0-.79,1.73q-.08,1-.12,2a8.26,8.26,0,0,0,.38,1.76,1.34,1.34,0,0,0,1.25,1,2.42,2.42,0,0,0,.91-.21h.24c.59,0,1.05-.45,1.39-1.35s.79-1.38,1.37-1.46a20.75,20.75,0,0,0,.18,2.22,20.54,20.54,0,0,1,.18,2.22,3.11,3.11,0,0,1-.58,2,3.39,3.39,0,0,1-1.15-1.11,13.68,13.68,0,0,0-1-1.29,2.23,2.23,0,0,0-1.59-.6l-1.8,1a2.91,2.91,0,0,1,.39,1.53c0,.21,0,.52-.05.94s-.05.73-.05.93,0,.77,0,1.38-.05,1.08,0,1.38a4.57,4.57,0,0,1,2.42-.64,21.63,21.63,0,0,0,2.66-.29,1,1,0,0,0,.72.31,2.64,2.64,0,0,0,.92-.22l.91-.31a1.11,1.11,0,0,0,.24-.77v-1a1.31,1.31,0,0,1,.72-1.29l.89.24A3,3,0,0,1,25.36,23.9Z"/><path d="M38.8,22.08c0,.81-.09,1.63-.12,2.44a3.43,3.43,0,0,1-.82,2.19,3.38,3.38,0,0,1-1.42.79,5.3,5.3,0,0,1-1.67.31,3,3,0,0,1-1.06-.17,2.66,2.66,0,0,1-1.35.34,4.11,4.11,0,0,1-2.13-.58c-.05,0-.58-.49-1.61-1.39h-.07c-.19,0-.31.11-.34.39V27a.92.92,0,0,1-.07.4.5.5,0,0,1-.26.08c-.63,0-.94-.51-.94-1.52A11.58,11.58,0,0,1,27.19,24a9.82,9.82,0,0,0,.25-1.94,2.82,2.82,0,0,1,1.13,1.58,4.59,4.59,0,0,0,1.05,1.78,2.83,2.83,0,0,0,1,.52l1,.2a.94.94,0,0,1,.7.55,15,15,0,0,1,2.21-.46,5,5,0,0,0,2-.65,2.29,2.29,0,0,0,.86-2,3,3,0,0,0-1.15-2.21l-2.08-1.61a3.51,3.51,0,0,1-1.06.17,5.5,5.5,0,0,1-2.47-.7l-2.26-1.32a7.29,7.29,0,0,1-.38-2,3.3,3.3,0,0,1,.84-2.16,4.72,4.72,0,0,1,1.65-1.18l1.83-.89c.14.37.52.56,1.15.57s1,.2,1.15.59a16.63,16.63,0,0,1-2,.24,2.14,2.14,0,0,0-1.71.91,2.78,2.78,0,0,0-1.84.45c0,.64.09,1.28.14,1.92a3.79,3.79,0,0,0,.55,1.8l3.31.84a13.46,13.46,0,0,0,3.39.53,15.6,15.6,0,0,0,1.16,1.27C38,21.21,38.43,21.63,38.8,22.08Zm-.41-5.45c0,.32-.25.6-.74.84-.47,0-.73-.18-.79-.54l-.15-1.09a2.54,2.54,0,0,0-1-1.19c-.55-.41-.82-.7-.82-.88s.22-.46.65-.72a.63.63,0,0,0,.55.31,1.86,1.86,0,0,0,.47-.09,1.52,1.52,0,0,1,.46-.1c.28,0,.48.19.61.58a1.05,1.05,0,0,0-.2.6,2.5,2.5,0,0,0,.47,1.17A2.43,2.43,0,0,1,38.39,16.63Z"/><path d="M53.41,16.2A1.53,1.53,0,0,1,52,17.87h-.26a4.53,4.53,0,0,0-2.55-3,1.41,1.41,0,0,0-1.39-1.15.93.93,0,0,1-.46.12,2.61,2.61,0,0,1-.48-.05l-.46-.07a11.44,11.44,0,0,1-1.25,1.68A12.65,12.65,0,0,0,43.91,17a3.87,3.87,0,0,0-.55,2,3.23,3.23,0,0,0,.07.69,2.46,2.46,0,0,0-.07.6,5.68,5.68,0,0,0,.09.84,4.81,4.81,0,0,1,.1.84,1.13,1.13,0,0,1-.12.51,2.77,2.77,0,0,0,1,2,8.07,8.07,0,0,0,2,1.1,12.24,12.24,0,0,1,2.07,1.06l1.53-1.44a3.53,3.53,0,0,0,1-1.8,2.49,2.49,0,0,1,1.56-.91.7.7,0,0,1,.53.21,3.32,3.32,0,0,1,.17,1q0,1.93-2.72,3.89c-.22,0-1,.17-2.23.43a11.17,11.17,0,0,1-2.23.29,4.21,4.21,0,0,1-.62-.05q-.87-.64-1.71-1.32a3.82,3.82,0,0,1-1.32-1.68.86.86,0,0,0,.1-.41,2.94,2.94,0,0,0-.71-1.51A3.2,3.2,0,0,1,41.17,22V19.56a5.77,5.77,0,0,1,1.32-4,1.77,1.77,0,0,1,.72-1.42l1.42-.86.65-.47a2.49,2.49,0,0,1,1.39-.3,1.64,1.64,0,0,0,1.39-.67c0,.18.26.26.7.24a1.51,1.51,0,0,0,1.29.93,3.05,3.05,0,0,0,1.11-.3,3.45,3.45,0,0,1,1.1-.3,1.2,1.2,0,0,1,.89.39,1.86,1.86,0,0,0-.07.57,8.46,8.46,0,0,0,.16,1.42A8.47,8.47,0,0,1,53.41,16.2Z"/></g></g></svg>