<svg xmlns="http://www.w3.org/2000/svg" viewBox="0 0 70 150"><defs><style>.cls-1{fill:#474747;}</style></defs><g id="Layer_2" data-name="Layer 2"><g id="Layer_1-2" data-name="Layer 1"><path class="cls-1" d="M66.82,148.71c.66,0,.43.35.52.42C66.24,149,66.85,148.61,66.82,148.71Z"/><polygon class="cls-1" points="55.96 147.85 56.16 148.01 54.55 147.63 55.96 147.85"/><path class="cls-1" d="M45.81,147.86c1-.65,3.68.1,5.49-.13l.29-.14.82.52A59.1,59.1,0,0,0,45.81,147.86Z"/><path class="cls-1" d="M40.39,149.26c.33-.26-1.17-.22,1.26-.08a1.84,1.84,0,0,0-.23.06C41.21,149.24,40.9,149.24,40.39,149.26Z"/><path class="cls-1" d="M41.42,149.24c1.07,0-.7.21,0,0Z"/><path class="cls-1" d="M36.48,149.1l1.41.22c-.29.15-1.54.18-1.08.29C35.37,149.49,35.66,149.34,36.48,149.1Z"/><path class="cls-1" d="M35.15,148.63l.73.09C35.75,148.78,35.56,148.8,35.15,148.63Z"/><path class="cls-1" d="M37.43,148.92l-1.55-.2c.2-.1.22-.31.71.07C36.46,148.6,36.77,148.78,37.43,148.92Z"/><path class="cls-1" d="M38.3,148.82c.79-.14,1.82-.23.4-.45C41.4,148.46,41,148.91,38.3,148.82Z"/><path class="cls-1" d="M45.29,147.19l1.05-.19.92.22C46.8,147.11,45.22,147.39,45.29,147.19Z"/><path class="cls-1" d="M27.71,149.43c-.09-.14.47-.37.58-.54l1,.16C28.79,149.14,27.78,149.23,27.71,149.43Z"/><path class="cls-1" d="M28.29,148.89l-1.56-.24C28.12,148.63,28.37,148.74,28.29,148.89Z"/><polygon class="cls-1" points="34.9 147.91 37.46 148.4 34.41 147.9 34.9 147.91"/><polygon class="cls-1" points="21.76 149.45 22.64 149.77 21.07 149.28 21.76 149.45"/><path class="cls-1" d="M17.82,149.39c.65.27-.9.45-.21.61a13.67,13.67,0,0,1-2.81-.48A9.35,9.35,0,0,0,17.82,149.39Z"/><path class="cls-1" d="M13.42,149.23a13.68,13.68,0,0,1,1.38.29A7.54,7.54,0,0,1,13.42,149.23Z"/><path class="cls-1" d="M24.08,148.72a2.13,2.13,0,0,1-1.23.39l.61-.38Z"/><path class="cls-1" d="M23.49,148.71l0,0-1.32,0Z"/><path class="cls-1" d="M24.23,148.72h-.15C24.14,148.68,24.17,148.67,24.23,148.72Z"/><path class="cls-1" d="M30.82,148.26c-.92-.22-2.83-.45-1-.78C30.5,147.75,29.44,147.93,30.82,148.26Z"/><path class="cls-1" d="M25,148.24l1.66-.09c0,.1-.33.25.12.36Z"/><polygon class="cls-1" points="24.18 148.11 24.99 148.24 24.38 148.27 24.18 148.11"/><path class="cls-1" d="M16.25,148.87a11.58,11.58,0,0,0-2.38-.21c1-.08,1.93-.12,2.86-.12C16.86,148.66,17.26,148.88,16.25,148.87Z"/><path class="cls-1" d="M19.77,148.76l-.16,0C19.71,148.7,19.78,148.69,19.77,148.76Z"/><path class="cls-1" d="M4,148.66l.26-.07a.64.64,0,0,1,0,.07Z"/><path class="cls-1" d="M16.88,148.47a3.53,3.53,0,0,1,1.55.14c-.54,0-1.1-.07-1.7-.07C16.67,148.49,16.66,148.45,16.88,148.47Z"/><path class="cls-1" d="M11,149.05c.37-.08.79-.15,1.23-.22A2.76,2.76,0,0,1,11,149.05Z"/><path class="cls-1" d="M19.37,148.84l.1,0C19.24,148.94,19.27,148.9,19.37,148.84Z"/><path class="cls-1" d="M19.37,148.84a6.16,6.16,0,0,1-.94-.23c.43,0,.83.07,1.18.13A.75.75,0,0,0,19.37,148.84Z"/><path class="cls-1" d="M3.68,145.55a2.21,2.21,0,0,0-.39,1,7.19,7.19,0,0,0,2.88-.05c.73.14.93.5.61.91a5.28,5.28,0,0,1-2.56,1.2c0-.16,0-.3-2.17-.51.52-.1,1.9-.22,2.86-.35s1.48-.27.69-.44a8.9,8.9,0,0,0-3.43.26,1.64,1.64,0,0,1-.07-.25c.25.31.43-.67.64-1.56s.44-1.72.8-1.6L3.29,146C3.4,145.88,3.58,145.18,3.68,145.55Z"/><path class="cls-1" d="M8.44,148.55l.67,0a7.25,7.25,0,0,0-1.07.16l-.58.14-.34.08-.62.1c-1.92-.17-2.19-.31-2.26-.42l4.43,0Z"/><path class="cls-1" d="M12.13,148.6c-.53-.39-2.14-.56-1.15-1,2,0,1.38.33,2.56.5-3.19-.1.91.21-1.39.43.63.07,1.19.09,1.72.11-.57,0-1.12.1-1.65.17l.08,0h0c.14,0,.18-.07,0-.05h-.07c0-.06-.08-.1-.14-.15-.93.08-.15.1.14.15,0,0,0,0,0,.05h0l-3.19-.21A26.49,26.49,0,0,1,12.13,148.6Z"/><path class="cls-1" d="M28.14,146.64c-.1,0-.1.06-.1.09C27.83,146.69,27.75,146.65,28.14,146.64Z"/><path class="cls-1" d="M26.83,146.88a2.59,2.59,0,0,0,1.17.17c.66-.12,0-.19,0-.32.45.11,1.59.28.16.47l-.22,0a7.84,7.84,0,0,0-2.72.67A4.3,4.3,0,0,1,26.83,146.88Z"/><path class="cls-1" d="M19.38,147.64l-2.65-.19,1.35-.34-.07.2C19.52,147.23,19.2,147.48,19.38,147.64Z"/><path class="cls-1" d="M3.34,148.85a4.59,4.59,0,0,0,.36.41c-.81-.19-1.53-.38-2.17-.58Z"/><polygon class="cls-1" points="0.79 145.96 0.39 146.34 0.63 144.82 0.79 145.96"/><path class="cls-1" d="M41.24,4.68l.78.1A5.63,5.63,0,0,1,41.24,4.68Z"/><path class="cls-1" d="M35.59,4.71l-.14-.18C35.71,4.63,35.82,4.7,35.59,4.71Z"/><path class="cls-1" d="M.83,67.92c-.37-1-.94-2.19-.49-2.06l.43.32A5.63,5.63,0,0,0,.83,67.92Z"/><path class="cls-1" d="M3.42,15.27c0,.1.08.2.13.3l-.42.7Z"/><path class="cls-1" d="M5.21,14.54l-.28-1.36A8.67,8.67,0,0,1,5.21,14.54Z"/><path class="cls-1" d="M64.52,6.85l-.44.83C64.08,6.38,64.3,7,64.52,6.85Z"/><path class="cls-1" d="M1,112.73a13.82,13.82,0,0,1-.26-2.21C.94,111.59,1.31,112.45,1,112.73Z"/><path class="cls-1" d="M39,.52c.48.07.69.15.67.24C39.19.69,38.91.61,39,.52Z"/><path class="cls-1" d="M.69,108c0,.15.06.31.1.47a13.75,13.75,0,0,0-.1,2.1A4.58,4.58,0,0,1,.69,108Z"/><path class="cls-1" d="M64.87,108.34a1.28,1.28,0,0,0,.06.23C64.87,108.6,64.86,108.49,64.87,108.34Z"/><path class="cls-1" d="M69.24,137.91c0-.29,0-.76,0-1.21A6,6,0,0,1,69.24,137.91Z"/><path class="cls-1" d="M.6,132.2c0,.66,0,.1,0,0Z"/><path class="cls-1" d="M2.31,135.43c0-.14.11-.25.21-.27A.48.48,0,0,0,2.31,135.43Z"/><path class="cls-1" d="M3.38,101.33v0C3.47,101.47,3.45,101.44,3.38,101.33Z"/><path class="cls-1" d="M.8,133.2a6.36,6.36,0,0,1-.13-.85C.7,132.49.74,132.74.8,133.2Z"/><path class="cls-1" d="M.59,133.06c0,.23,0,.41,0,.58S.52,133.65.59,133.06Z"/><path class="cls-1" d="M.62,131.27c0,.38,0,.74.05,1.08,0-.13-.06-.19-.07-.15C.6,132,.61,131.73.62,131.27Z"/><path class="cls-1" d="M66,54a.83.83,0,0,1,0,.15C65.89,54.77,65.92,54.48,66,54Z"/><path class="cls-1" d="M5.33,50.64a.25.25,0,0,0,0,.07l0-.09Z"/><path class="cls-1" d="M5.65,48.25a3.24,3.24,0,0,0-.36,2.37L4,49.83Z"/><path class="cls-1" d="M52.59,4.72a13.29,13.29,0,0,1,6,.46c.92-.18-.73-.92,1.91-.72,3.72.24-.71.9,1.53,1l.81-.32.4-.16.21-.08c.06,0,.05-.05.08-.08a1.36,1.36,0,0,0,1,.21,5.66,5.66,0,0,1,.26.92,1.52,1.52,0,0,0,0,.25l-.05.24a.83.83,0,0,1-.11.29c.31,2.33-.68,4.88-.45,6.63.14-.41.44,1,.61,1.22l-.43,3.16c.18-1.4.58-1.34,1-1.6,0,1-.26,1.46-.31,2.13.14-.41.29-.82.47-.3l-.67,3.32a4.24,4.24,0,0,1-.11-.9,14.58,14.58,0,0,0,.07,3.82c.15-.11.3-.52.46-.62a2,2,0,0,1,.23-2.08c-.07,2.29.1.57.39,1.67,0,1.62-.55,2.28-.89,1.86a10.82,10.82,0,0,1-.15,4.27l.55-.36-.17,1.72.67-1.39c.37,3.28-.94.6-.63,4.25h.48c-.19,1.41-1,1.89-.42,3-.29,1.36-.68-2.33-.78.87a11.6,11.6,0,0,1,.53,2.7c-.22,1-.57-.78-.51-1.43-.22,4.83,1.65,3,1,7.31-.35-1.48-.93,1.24-.92-2.26-.28,1.67.7,3.28.17,5l.62-1.14a7,7,0,0,1-.29,1.68l.47-.15c-.83,2.16.4,4-.69,5.29.86-.89,0,1.6.28,2.46.61-1.77,0-5.08.78-5.32.24.83-.15,1.57.08,2.36a6.61,6.61,0,0,1,.49-1.58c.45,2.73-.48,4.28-.68,5.93L66,55.39c-.79.24-.14,1.32-.75,2.13.42,1.46-.2,2.61.07,3.79,0-.31.07-.33.06-.65,0,3.18,1.27,4.07,1.29,5.33s-.32,3.59-.66,2.74c-.22,1,.24-4.22-.79-2.41,1.19,1.82-.44,3.74.37,7.69.42-1.73.67,1,1-.53a5.72,5.72,0,0,1-.6,2.8l.37.57c-.83,2.46-.74.57-1.18,4.3.29-1.25.54,1.5.8.55a9.76,9.76,0,0,1-.31,2.79l0-.13c-.19,3.77.47,3.09.06,6.52l-.23-.34c-.6,4.5-.21,10.19-.49,14.85l-.18-1.64c.11.5-.35,3.14,0,4.59a6.54,6.54,0,0,0,.1-1.06c.25,0,.62.61.68,1.73l-.38.43.29.45c0,1.71-.54-.5-.54,1.21,1.1,1,.15,7.35,1.11,8.82-.79,1.16-.11-3.23-.83-2a7.09,7.09,0,0,1,.33,1.87l-.47-.39c.27,5.17.67,7.14.57,11.74l.1-.19a5.14,5.14,0,0,1-.31,3.25c.22.34.34-.84.53-.2-1.21,2.89.89,5.76,0,7.52,1-.23,1.87,3.54,2.61,2l-.11,1.18c.63-.39,0-3.71.67-4.39l-.66-3.73c.24.12.59-.49.68.11,0-.92,0-1.73.38-.52-1.6-8.91,0-18.06-.9-26.83,0-.59.27-.25.42,0-.61-1.62.32-1.55.41-2.43l-.88-2.37c.26-1,.53-.21.7-.28.18-4.47-.68-8.83-.16-12.45-.31-1.16-.71.27-.81-1.25.9,2.07.42-4.44,1.06-3.12C68.54,86,69.29,82,68,82.62c-.08-1.83.57-1.51.69-1A20.94,20.94,0,0,1,69,76.08c-.31-1.15.33-9.66-.68-11.55.66,1.29.34-.09.63-1.33l.57,1.11-.06-2.78c.06-.57,0-.73,0-.73,0-.47-.33.12-.48-1.08a6.39,6.39,0,0,1,.58-3l.09.29,0-1.29c0-.95-.57,3.35-.87.26a3.57,3.57,0,0,0,.51-2.69c0,1.58-.37,1.38-.54.8l-.05-2.21.73.73c0-6.34-.56-12.94-.51-19.7-.64.09,0-4.79-1-4.18l.09.26c-.09,1.66-.74-.49-.64-1.84.3,1.42.94-2.53,1.08.9L69,25.37c1.8-1.48-.15-7.1.43-11.12-.07.28-.17.36-.23.39a22.17,22.17,0,0,0,0-5.46C69.1,8.35,69,7.6,69,7a4.42,4.42,0,0,1,0-1.33,5.51,5.51,0,0,0-.5-.38A39.66,39.66,0,0,0,69.1.94c-.78-.06-1.62-.07-2.68,0l-1.76,0-1,0L62.78,1c0,.07.51.2-.12.29A11.1,11.1,0,0,0,58,.76l.11.14L53.76.83c0,1.38-7.39-.85-8.68.65-.84-.4-4-.53-5.4-.72,0,.06-.1.12-.33.18-1.66-.74-4.78.23-6.61.15-1.2-.18-.68-.41-.16-.65C30.22,1,26.05-.21,25.19,0c-1.73.06-.65.53-1.12.84-2.58-.13.43-1.25-3-.7.4.06,1.14.11.85.19-1.32.12-3.68,1.7-5,1.39l.87-.25c-2.41-.36-5.7,1.12-6.08.19l.22-.43a10.83,10.83,0,0,1-3,.19,5.07,5.07,0,0,0-.88,0c-.21,0-.48,0-.83,0l-1.62.14.09.07c-1.52,0-2.39.15-3.23.12a1,1,0,0,1-.4.87L2,1.81C2,3.18,2,4,2,4.71S2,6,2,7.24A3.37,3.37,0,0,0,2,8.79c-.64.1-.3,4.88-.26,5.81.09-1.66.37-.87.63-.4a3.41,3.41,0,0,0-.2,3c-.8.2-1.65.47-1.69,3.15.12-.42.18-1.07.35-.8s0,.89-.08,1.1c.17.27.29-.59.57-.29-.76,1.81-.05,3.12-.32,5.74.24-.83.39-.11.67.19-.91.2.78,3.58-.38,2.59.69,5.13.05,13,.8,15,.32.53-.21,2-.22,2.86l.39-.12c-.71,2.5-.26,1.94-1,4.88.47-1.21.68-.71,1.05.52l-.82,2,.61.39a7.08,7.08,0,0,0,0,2.68c0-.45.06-.2.17-.17C1.4,57.42,1.5,61,1.1,61.59c.82.9-.21,2.42.56,3.08a7.06,7.06,0,0,0-.29,1.09C1,65.33.61,65.17.78,66v.2l.48.35a21.23,21.23,0,0,0-.18,2.23,4.74,4.74,0,0,0-.24-.84c.07.35.16.68.24,1v.3a.9.9,0,0,0,0-.18,3.79,3.79,0,0,1,0,1.75c.73,2.91-1,6.46,0,9.66C1,80,1,79.29,1.13,79.11c0,2.68.64,5.34.27,7L1,86a41.69,41.69,0,0,0-.31,5.07l-.51.09c.19,2.29-.63,7.23.41,8.64-.4.56.12,3.18,0,4.49l.38.33a18,18,0,0,1-.12,3.78c.81,3.45,0,6.66.07,9.68l.11,0L.69,121.2c.35-.81-.24.6-.14,1.52a10.7,10.7,0,0,0,.16,3.71l0,2c.26-2.18.56.15,1,.27l-.36,1.25c.21.51.35-.8.44.12-.24.84-.22,3.31-.68,4.08a2,2,0,0,1-.31-.79c0-.11,0-.1,0,0l0-.08v.1a1.36,1.36,0,0,1-.18.34c.1,1.56-.08,1-.28.93.7,1.77.22,2.75,1,4.1-.92-1.83,0,4.05-.88,2.91a1.88,1.88,0,0,1,.35,1,.8.8,0,0,0,0,.26l.08.2a4,4,0,0,0,.18.41l0-.52v-.34c0-.24,0-.46,0-.69a11.86,11.86,0,0,1,.2-1.35c.18-.88.42-1.71.57-2.45l.42,1.46c.8-.95-.3-3.28,0-4.16a3.15,3.15,0,0,0,.17,2l-.61-.4a15.41,15.41,0,0,1,.54-5.23c.2,1.4.37-1.7.8-.68l-.08,1.1c.22.51.41-.56.59-1.18-.45-3.5-.06-9.9-.54-11.15A7.08,7.08,0,0,1,3,122.51l-.25-1.64c0,1.33.52,2.38.32,4.35-.39-.33-.92,1.09-1.46-.4-.61-3.76,1-3.09.86-7.62.12-.42-.63,1-.42-1.47.39-3,1.27-5.25,2.11-5.25-.24,1.28-.74,3.83-.13,4.23.25-1.28.4-3.48.8-3.6-.71-1.32-.21,2.41-.8.68a4.72,4.72,0,0,1,.36-1.7c-.29.6-.49-.8-.65-1.07,0-2.9-.32-4.57-.38-7.69-.1-.16-.33-.5-.5-.41.2-1.53,1.25-3.7,1.69-3.13,0-1.78-.3-1.88-.11-3.4.63,2.43-.1-.47.58-.73.08-1.55-.33-.54-.49-1.26.07-.26.3-.87.48-.92-.51-1-1.34,1.85-1.94.73A35.28,35.28,0,0,1,2,87.86c.57-.74,2.94-.52,3.7.59.4-.12-.42-1.47-.46-2.15-.64-2,.5-3,.25-4.65L5.11,82.9a8,8,0,0,1,.28-3.07c-.23-.06-1.15,1.25-1.42.5-.12-2.94,1.11-5.74,1.78-5.56l-.69,4.52c.56.16.56-3.21,1.23-3l-.2-4.16c0,.53-.18,2.13-.48,1.5,0-1.79-.1-.93-.36-2.12a47.27,47.27,0,0,1-3.39,7.14l.37-2.15-.33-.54c.44-2.79,2.63-5.32,3.21-6.06-.14-1.61-1.34-1-1.57-.66-.06-3.16,1.69-3.12,1.52-6.31l.26,1.19c.11-.75-.13-3.48.09-3.19-.32-.63-1.07-1.21-1.27-.51l1.12-2.82c-.11.42-1.07.14-1.24.32,0-1.13,1.1-1.93,1.26-1.21a17.13,17.13,0,0,0-1.13-3.46c.07-.66,1,.06,1.12.53a8.61,8.61,0,0,0,0-3c-.41,2.45-2.15.67-2.88,1.13l2.86-5.26a3.69,3.69,0,0,1-1.2.57c.85-.44,1-6.47.84-9.42v.45c-.3.59-.53-1.94-.23-3-.18.18-.12.41-.13.86-.64-2,1.28-2.56.53-4.56.08,1.82-.26,2.17-.59,2.08.3-1.49,0-4.95,1-4.22-.21-1-.09-1.82-.59-1.74L5.48,24c-.1.27-.39.51-.46-.56.13,2.05-.8,4-.15,5.12-.61.05-1-.72-1.47.26.3-4,1.35-6.13,2.07-8.63L5,16.66l.28-.15-.71-.6c.17-.44.31-.72.24-.81s-.16,0-.26.21a3.4,3.4,0,0,1,.17-.88c-.37-.14-.8.48-1.19,1.14l.39,1c-.35.68-.72,1.18-1,.22,0-.13.1-.3.15-.48-.26.43-.48.7-.59.38L2.89,14c.09.3.3.76.53,1.29.46-1.67,1-3.58,1.51-2.09l-.42-2A28.75,28.75,0,0,0,5.6,6.27c-.25-.16-.46.61-.64.09.11-.36.17-.49.2-.65a1.85,1.85,0,0,0,0-.52c-.06-.37-.22-.84-.35-1.32.4-.19.92-.34,1.2-.06,1.26.16.59.56,1.3.74,0-.07-.17-.21.18-.23l1.43.47c.58-.17-1.31-.32.29-.52a27.74,27.74,0,0,0,6.66.36c3.27.11-1.4.92,1.36.83a3,3,0,0,1,2.49-.89A6.87,6.87,0,0,0,22,5.29l-.1-.57c1.43,0,2.57.13,2.59-.31a7,7,0,0,0,2.59.11c2.17.31-1.6,1.18-2.11,1.4,2.14-.43,3.61-.18,4.83-.88L28,4.89c4-.72,3.82.82,5.69-.41-1.38,0-3-.26-2.22-.58l2,.3c.23-.16-1.15-.11-.23-.29.57.13,1.74.43,2.26.62l0,0,3.61.1c-.68,0-.85-.19-.16-.21l2.37.3c-.73-.14,0-.32,1.08-.42,3-.17,2.44,1.31,4.81.72-.35,0-.4-.06-.75-.05l1.22-.26C47.85,5.9,54.77,4.8,55,6c1.74-.49.12-.29-2.11-.87l1.85-.35C54,4.75,53.39,4.84,52.59,4.72ZM29.16,4.63c-.39.26-1.46,0-2-.12C28.08,4.37,28.55,4.13,29.16,4.63ZM4.24,17.4A2.51,2.51,0,0,1,4.34,19,5.28,5.28,0,0,1,4.24,17.4ZM1,124.87l0,0C.9,124.17.83,123.79,1,124.87Zm.09,1.18a2.64,2.64,0,0,1-.1,1.23c.07.1.13.11.2-.11C1.31,126.5,1.22,126.21,1.1,126.05ZM69.15,60.62l.12.43C69.13,61.33,69,61.6,69.15,60.62Z"/><path class="cls-1" d="M5,14.64a.42.42,0,0,0-.26-.21C4.82,14.24,4.91,14.24,5,14.64Z"/><path class="cls-1" d="M64.6,6.7v.07s0,.07-.08.08Z"/><path class="cls-1" d="M5.28,92.38a2.88,2.88,0,0,0-.25-.9C5.15,91.46,5.25,91.67,5.28,92.38Z"/><path class="cls-1" d="M.38,139.07l.13-1.44a3.66,3.66,0,0,0,.16,1.3C.55,138.9.39,138.62.38,139.07Z"/><path class="cls-1" d="M8.89,146.47c.23.05.49,0,.72.06l-.07.2C8.56,146.72,7.87,146.56,8.89,146.47Z"/><path class="cls-1" d="M2,140.4c.41.12.27,1,.19,2a.54.54,0,0,0,0-.18C1.61,142.55,1.8,141.47,2,140.4Z"/><path class="cls-1" d="M2.16,142.66a9.91,9.91,0,0,0,0,1.11c-.11.09-.13,0-.1-.27S2.12,143,2.16,142.66Z"/><path class="cls-1" d="M.93,130c.11.48-.52.3-.35.57C.06,131.12,1.2,127.4.93,130Z"/><polygon class="cls-1" points="3.31 141.22 2.82 140.86 3.22 140.29 3.31 141.22"/><path class="cls-1" d="M3,133.26l.14,1.61c-.09,0-.14.18-.17.43C2.9,134.31,2.8,133.22,3,133.26Z"/><path class="cls-1" d="M2.92,135.3a4.84,4.84,0,0,1-.09,1.3C2.84,136.32,2.86,135.72,2.92,135.3Z"/><polygon class="cls-1" points="3.46 139.02 3.36 138.54 3.33 137.41 3.46 139.02"/><path class="cls-1" d="M2.85,116,3,114.19c.17-.18.27.3.2,1C3.08,115.57,3,116.22,2.85,116Z"/><path class="cls-1" d="M4.22,121.27a1.62,1.62,0,0,0-.38-.78l.62,0Z"/><path class="cls-1" d="M4.37,116.14c.17-.17.49-2.55.45-.32C4.65,116,4.51,117.76,4.37,116.14Z"/><polygon class="cls-1" points="3.58 89.66 3.57 90.11 2.56 90.04 3.58 89.66"/><path class="cls-1" d="M6,66.32c.25,2.08-.62.49-.32,2.38-.24.48-.25-1.54-.46-1C5.49,66.4,5.34,65.74,6,66.32Z"/><path class="cls-1" d="M5.23,67.66a6.43,6.43,0,0,1-.15.64A3.31,3.31,0,0,1,5.23,67.66Z"/><polygon class="cls-1" points="69.79 142.82 70 144.16 69.66 143.29 69.79 142.82"/><path class="cls-1" d="M69,145.39l.65.32-.58.8A2.44,2.44,0,0,0,69,145.39Z"/><path class="cls-1" d="M23.07,5.7,23,5.56a2.53,2.53,0,0,1,1.27-.19Z"/><polygon class="cls-1" points="43.1 5.26 42.75 5.27 43.4 4.74 43.1 5.26"/><path class="cls-1" d="M59.91,5.93c-.68,0-1.49-.09-2.18-.07C59.23,6,60.1,5.27,59.91,5.93Z"/><path class="cls-1" d="M24.41,112c0,.13-.38-.07-.46-.08C24.13,111.75,24.51,112,24.41,112Z"/><polygon class="cls-1" points="26.21 110.46 26.04 110.43 26.55 110.31 26.21 110.46"/><path class="cls-1" d="M27.07,108.71c.57.43-.42.59-.34,1l.12.11-.59-.08C26.53,109.4,27.12,109.05,27.07,108.71Z"/><path class="cls-1" d="M26.13,107.2c.22.16.32-.11,0,.25l0-.07A1,1,0,0,0,26.13,107.2Z"/><path class="cls-1" d="M26.06,107.38c-.11.18-.16-.2,0,0Z"/><path class="cls-1" d="M26.62,106.59l-.34.15c-.13-.11-.05-.34-.2-.3C26.33,106.24,26.45,106.35,26.62,106.59Z"/><path class="cls-1" d="M27.21,106.55l-.16.09C27,106.59,27,106.55,27.21,106.55Z"/><path class="cls-1" d="M26.72,106.82l.33-.18c.09.08.3.17-.13.09C27.12,106.79,26.91,106.77,26.72,106.82Z"/><path class="cls-1" d="M26.74,107c.08.19.08.4.43.25C26.84,107.7,26.42,107.44,26.74,107Z"/><path class="cls-1" d="M27.79,108.89l.1.26-.3.07C27.74,109.19,27.59,108.8,27.79,108.89Z"/><path class="cls-1" d="M27,104.94a3.74,3.74,0,0,1,.5.32l-.25.12C27.24,105.24,27.24,105,27,104.94Z"/><path class="cls-1" d="M27.54,105.26l.37-.17C27.81,105.34,27.68,105.34,27.54,105.26Z"/><polygon class="cls-1" points="27.95 106.8 27.24 107.04 28 106.72 27.95 106.8"/><polygon class="cls-1" points="27.53 103.91 27.14 103.93 27.75 103.85 27.53 103.91"/><path class="cls-1" d="M27.93,103.25c-.32,0-.38-.34-.6-.29a1.44,1.44,0,0,1,.72-.29C27.86,102.78,27.81,103,27.93,103.25Z"/><path class="cls-1" d="M28.47,102.56a2.27,2.27,0,0,1-.42.11A1,1,0,0,1,28.47,102.56Z"/><path class="cls-1" d="M28.06,104.6c-.07,0-.27-.18-.28-.37l.33.26Z"/><path class="cls-1" d="M28.12,104.5h0l.09-.23Z"/><path class="cls-1" d="M28.05,104.63v0S28.11,104.64,28.05,104.63Z"/><path class="cls-1" d="M28,106c.3-.07.7-.31.87.15C28.5,106.11,28.4,105.85,28,106Z"/><path class="cls-1" d="M28.47,105l0,.32c-.1,0-.22-.16-.37-.12Z"/><polygon class="cls-1" points="28.67 104.87 28.47 104.96 28.49 104.84 28.67 104.87"/><path class="cls-1" d="M28.59,103.19a.62.62,0,0,0,.41-.32,1.22,1.22,0,0,1-.12.54C28.74,103.38,28.49,103.36,28.59,103.19Z"/><path class="cls-1" d="M28.4,103.84h0S28.46,103.87,28.4,103.84Z"/><polygon class="cls-1" points="29.75 101.37 29.8 101.42 29.73 101.4 29.75 101.37"/><path class="cls-1" d="M28.94,103.47c0,.15-.12.18-.28.2a.92.92,0,0,0,.22-.26C28.94,103.42,29,103.43,28.94,103.47Z"/><path class="cls-1" d="M28.86,102.21a1.82,1.82,0,0,1,.11.3C28.87,102.4,28.75,102.19,28.86,102.21Z"/><path class="cls-1" d="M28.35,103.74h0C28.26,103.68,28.29,103.7,28.35,103.74Z"/><path class="cls-1" d="M28.35,103.74a1.29,1.29,0,0,1,.31-.07.63.63,0,0,1-.23.16Z"/><path class="cls-1" d="M32.47,101.93c-.37-.12-.87.06-.62.5-.4.16-1.5-.5-2.05-1a.64.64,0,0,0,.66-.08c.15.18.15.81.6.71.37-.3,0-.36-.08-.62.37.34.89-.21,1.51.14l-.39.24C32.2,101.85,32.42,101.8,32.47,101.93Z"/><path class="cls-1" d="M29.58,102l-.11.1c0-.16-.09-.31-.29-.6a.75.75,0,0,1,.56-.07l-.24.59Z"/><path class="cls-1" d="M29.21,102.59c.44.07.74-.14,1.08.2-.19.33-.44.11-.71.24.37-.51-.3.07-.32-.42a1.07,1.07,0,0,0-.26.26,1.46,1.46,0,0,0,0-.36v0h0s.06.06.05,0h0l.16,0c0-.19-.09-.07-.16,0H29l.49-.46A1,1,0,0,1,29.21,102.59Z"/><path class="cls-1" d="M29.81,106.16l-.08-.06C29.79,106.09,29.83,106.09,29.81,106.16Z"/><path class="cls-1" d="M29.68,105.83c-.07,0-.24,0-.27.14s.19.07.32.13c-.15,0-.42.16-.49-.16l.07,0a1.25,1.25,0,0,0-.44-.74A3.56,3.56,0,0,1,29.68,105.83Z"/><path class="cls-1" d="M29.56,104.24l.42-.38.22.37-.2-.1C30,104.43,29.73,104.27,29.56,104.24Z"/><polygon class="cls-1" points="29.58 101.23 29.13 101.13 29.85 101.1 29.58 101.23"/><polygon class="cls-1" points="29.92 100.66 29.55 100.53 29.85 100.47 29.92 100.66"/><path class="cls-1" d="M43.52,67.1l0-.18A.44.44,0,0,1,43.52,67.1Z"/><path class="cls-1" d="M44,68.06l-.16.1C43.94,68.07,44,68,44,68.06Z"/><path class="cls-1" d="M37.23,86c-.24-.33-.65-.76-.26-.57l.36.22A.3.3,0,0,0,37.23,86Z"/><path class="cls-1" d="M44.56,77l.09.11-.44,0Z"/><path class="cls-1" d="M46.31,77.41,46.23,77A.84.84,0,0,1,46.31,77.41Z"/><path class="cls-1" d="M41.3,61.6l.32-.32C41.74,61.52,41.48,61.5,41.3,61.6Z"/><path class="cls-1" d="M33.1,94.62a.87.87,0,0,1,0-.52C33.19,94.39,33.45,94.7,33.1,94.62Z"/><path class="cls-1" d="M39.53,69.19a.28.28,0,0,1,.18-.21C39.68,69.09,39.63,69.17,39.53,69.19Z"/><path class="cls-1" d="M33.31,93.61a.5.5,0,0,1,0,.13.69.69,0,0,0-.29.36C33,93.88,33,93.66,33.31,93.61Z"/><path class="cls-1" d="M31.38,42.41l-.07,0C31.36,42.36,31.37,42.38,31.38,42.41Z"/><path class="cls-1" d="M24.6,38.41a.89.89,0,0,0,.09.24C24.64,38.62,24.61,38.55,24.6,38.41Z"/><path class="cls-1" d="M30.94,98.19c-.09.12-.05,0,0,0Z"/><path class="cls-1" d="M32.2,99.44a.44.44,0,0,1,.21,0A.68.68,0,0,0,32.2,99.44Z"/><path class="cls-1" d="M36.39,93.35h0C36.46,93.41,36.45,93.4,36.39,93.35Z"/><path class="cls-1" d="M31,98.46a.52.52,0,0,1,0-.21A.58.58,0,0,1,31,98.46Z"/><path class="cls-1" d="M30.85,98.35v.13C30.76,98.47,30.73,98.44,30.85,98.35Z"/><path class="cls-1" d="M31.05,98a.46.46,0,0,0-.06.23s0-.06,0-.06Z"/><path class="cls-1" d="M35.46,53.2l-.05,0C35.51,53,35.51,53.06,35.46,53.2Z"/><path class="cls-1" d="M43,84.43h0v0Z"/><path class="cls-1" d="M43.48,84.09c-.59,0-.58.13-.55.32l-1.07-.62Z"/><path class="cls-1" d="M42.59,65.12c-.73-.2-.27-.87-.06-1.22-.25-.09-.86.5-.88,0-.08-.74,1-.24.91-.69l-.78,0c.25-.69-.37-.88-.66-1.26a.29.29,0,0,1,.11-.24c-.5-.33.16-1.19-.22-1.44-.09.14-.49,0-.67,0l.1-.76c0,.33-.41.47-.74.66-.06-.2.1-.37.08-.52-.09.13-.18.27-.4.23l.3-.88a.43.43,0,0,1,.19.13c-.08-.16,0-.59-.43-.7-.13.08-.22.21-.36.29.5,0,.21.27,0,.48-.15-.46-.14-.07-.51-.17-.14-.31.29-.64.64-.68-.32-.29-.47-.36-.27-.87l-.47.27V57.3l-.48.51c-.65-.48.8-.46.17-1L37.7,57c0-.34.73-.73.1-.73.14-.36.84.19.63-.45a1.47,1.47,0,0,1-.74-.32c.11-.28.6-.06.6.09-.25-1-1.78,0-1.61-1,.45.15.73-.58,1,.09.1-.42-.95-.37-.64-.89l-.45.44c-.07-.11.07-.33.1-.42l-.42.2c.56-.72-.73-.62.14-1.26-.7.48-.11-.33-.49-.37-.39.56.49,1-.21,1.3-.29-.07,0-.35-.3-.41a1.32,1.32,0,0,1-.29.48c-.67-.35,0-1,.06-1.39l.11.63c.7-.34,0-.3.49-.69-.53-.12-.08-.56-.43-.69,0,.05,0,.09,0,.15-.28-.62-1.54-.31-1.68-.54s0-.8.35-.77c.1-.27.18.9.94.17-1.25.09.05-.88-1.06-1.33-.22.49-.7.06-.84.47-.09-.4.06-.48.29-.76L33,49c.53-.78.62-.38.67-1.26-.14.35-.63-.08-.78.2a.61.61,0,0,1,0-.65l0,0c-.18-.79-.71-.41-.66-1.22l.23,0c.13-1.08-.76-2-.95-3l.32.25c-.15,0,0-.73-.43-.88,0,.07,0,.2,0,.24-.24.08-.63.11-.79-.07l.31-.23-.31,0c-.17-.33.54-.11.37-.44-1.09.22-.82-1.34-1.84-1.26.61-.52.41.57.94.06a.77.77,0,0,1-.47-.23l.46-.1c-.73-.89-1.28-1.11-1.63-2l-.07.07c-.32-.25-.33-.45,0-.74-.23,0-.22.29-.46.24.83-1-1.35-.77-.75-1.42-.85.4-2,0-2.57.6v-.27c-.54.31.33.71-.21,1.09l1,.46c-.23.07-.49.32-.62.23.07.18.12.35-.31.25,2.31,1.09,1.76,3.41,3.37,4.77,0,.13-.23.15-.39.16.71.08-.14.41-.14.61l1,.12c-.14.28-.46.24-.61.32.26.92,1.45,1.43,1.32,2.31.4.1.62-.31.86-.06-1-.06,0,1-.67,1,1-.07.7,1,1.86.35.24.31-.38.5-.54.44a1.1,1.1,0,0,1,.2,1.19c.39.11.61,2,1.7,1.95-.71,0-.29.14-.44.48h-.63l.32.5c0,.13,0,.15.09.13s.29-.14.54,0c.21.35-.07.49-.24.8l-.11,0,.07.27c.11.17.21-.85.77-.38-.14.07-.66.7-.2.7-.18-.28.2-.4.41-.35l.25.41-.73.13c.63,1.19,1.73,2.25,2.33,3.56.57-.26.48.9,1.28.43H36c-.07-.35.72-.19.75.11-.4-.16-.61.83-1.07.23l-.15.67c-1.5,1,.81,1.29.66,2.28a.48.48,0,0,1,.16-.16c-.18.9,1.21,1.35,1,1.61l.48-.12c-.4.86-.43,1,.2,1.54.07,0,.16-.18.31-.1-.25.3-.5.6-.18,1l.14-.08.29.78C40,66,38.35,68.14,40,67.75c-.33.31-.19.91-.26,1.23a.3.3,0,0,1,.21,0c-.6.59.65.73.72,1.08s-.36.28-.64.29c.79.17-.1,1.4.22,1.44.21.28.59-.1.94-.15.09.5-1.3.44-.45.81,0-.09,0-.24.12-.22.23.18,2-.07,1.82.29l-.32,0c-.15.56,1.62.52.71,1l-.45.14c.93.48,0,.37.84.89l.07,0c0,.18.19.19.27.27s.08.15-.28.29l-.13,0c.06.27.13.27.3.54,0,0-.07.07-.06.11s0,.06,0,.08c-.69,0-.57.5-.6.65.18-.16.41,0,.62.14a1.18,1.18,0,0,0-.5,0c-.06.07,0,.2.07.4-.75-.26-1.55-.52-1.84,0,.15,0,.27-.14.39,0s-.1.16-.17.18c.12.11.32,0,.54.15-.86.06-.34.58-.83,1,.29-.07.37.12.59.28-.84-.3.37,1-.59.35.15,1.24-1.19,2.5-.69,3.16.25.23-.37.3-.47.46l.37.13c-.89.21-.42.27-1.36.56a.77.77,0,0,1,.91.49l-.94.08.52.3c-.29.07-.29.28-.29.5,0-.09.07,0,.17,0-.81-.23-1.06.49-1.48.45.66.48-.42.38.22.79a1.44,1.44,0,0,0-.37.1c-.29-.21-.64-.39-.56-.17,0,0,0,0,0,0l.41.24a1.27,1.27,0,0,0-.37.36,1.11,1.11,0,0,0-.14-.25,2.36,2.36,0,0,0,.12.28l0,.06s0,0,0,0,.06.25-.16.33c.4.83-1.53.86-.91,1.84,0-.13,0-.28.15-.25-.29.5.08,1.26-.42,1.44l-.39-.19a2.3,2.3,0,0,0-.77.85l-.47-.17c0,.51-1.26,1.14-.44,1.8-.42-.05-.19.65-.44.85l.32.2a.93.93,0,0,1-.47.68c.41,1-.62,1.27-.85,1.86l.1.05-.55.48c.4,0-.27,0-.27.24a.55.55,0,0,0-.2.76l-.17.38c.44-.31.49.24.89.43l-.44.11c.14.17.39,0,.39.18-.3.07-.52.55-1,.52a.67.67,0,0,1-.21-.26s0,0,0,0v0h-.19c-.06.33-.18.16-.35.07.47.6-.06.61.56,1.17-.67-.69-.39.77-1.08.22.52.52,0,.19.42.57,0-.42.76-.53,1.18-.7l.25.44c.82.11,0-.74.37-.81-.23,0-.18.37,0,.44l-.52-.3c0-.49.56-.63,1-.8,0,.35.5-.18.8.17l-.18.18c.15.18.42.05.65,0-.08-.83.88-1.9.56-2.32.07.2-.17.4-.4.45L34,96.84c-.15.25.25.65-.12,1-.32-.21-.94-.13-1.29-.62-.2-.94,1.21-.21,1.51-1.13.14,0-.67-.05-.25-.43a2.74,2.74,0,0,1,2.42-.22c-.35.15-1,.46-.52.76.35-.15.69-.52,1.06-.39-.51-.52-.41.38-.79-.17.1-.16.35-.15.5-.19-.32,0-.37-.33-.5-.44.27-.56.15-1,.38-1.61a1.07,1.07,0,0,0-.41-.26,2.37,2.37,0,0,1,1.83,0c.2-.33-.1-.47.22-.69.35.7-.05-.13.6.08.22-.27-.25-.23-.33-.42a1.17,1.17,0,0,1,.53,0c-.38-.37-1.4-.15-1.84-.58a4.94,4.94,0,0,1-.6-1.24,11.31,11.31,0,0,1,3.32,1.49c.37.12-.25-.44-.22-.59-.4-.61.74-.38.67-.79l-.45.11c-.12-.12.3-.5.54-.48-.2-.1-1.16-.2-1.34-.44.17-.6,1.56-.67,2.16-.39l-1.06.6c.49.24.81-.4,1.4-.12l.22-.86c-.07.09-.37.34-.59.1.2-.33,0-.21-.12-.53a24.77,24.77,0,0,1-3.77.09l.54-.27L37.44,88c.67-.37,2.91,0,3.5,0,0-.36-1.12-.7-1.37-.71.25-.63,1.84,0,2-.64l.12.33c.17-.11.21-.71.38-.58a2,2,0,0,0-1.1-.57l1.29-.12a8.53,8.53,0,0,1-1.17-.4c.07-.23,1.19.05,1.26.24-.42-.68-.13-.43-.7-1.08.13-.1.93.39,1,.52.38-.18.35-.39.32-.57-.6.32-2-.67-2.73-.85l3.1.06c-.17,0-1-.29-1.14-.34.82.23,1.49-.87,1.66-1.48l0,.08c-.32,0-.3-.56.07-.65-.17,0-.15,0-.2.12-.39-.61,1.42,0,.92-.67-.1.38-.44.32-.74.17.42-.17.44-1,1.29-.44-.1-.26.09-.38-.38-.55l.89-.47c-.12,0-.41,0-.37-.28-.07.44-1.11.47-.62.92-.56-.22-.79-.49-1.36-.5.64-.64,1.81-.67,2.7-.87l-.08-.83.27.07-.59-.38c.19,0,.37-.07.31-.11s-.15,0-.26,0a.56.56,0,0,1,.27-.17,3.53,3.53,0,0,0-1.24-.14l.27.33c-.39,0-.77,0-.9-.32l.19,0c-.29,0-.51,0-.58-.15.2-.14.36-.22.55-.34l.38.4c.58-.14,1.4-.53,1.67,0a5,5,0,0,0-.15-.61,3.84,3.84,0,0,0,1.15-.75,1.34,1.34,0,0,0,.13-.57c-.28,0-.4.22-.66.09.27-.33-.16-.7-.54-.92s-.72-.34-.43-.53c0-.4.49-.37.57-.65-.07,0-.2.12-.24.06l.34-.44c-.22,0-.21.36-.55.17.11-.62.21-1-.21-1.3-.17-.61,1-.14.72-.57-.42.08-.9.2-1.1-.07.18-.27.49-.37.52-.7l-.57.25c-.1-.25-.09-.5-.53-.32.15-.3,0-.42-.11-.49.12-.5,1.32-.21,1.59-.21-.62-.19-.49-.55-1.3-.47v.39c-1.07-.41.49-1-.9-.82a.41.41,0,0,1-.39.62l.12-.46c-.17,0,0,.24-.26.15a4.22,4.22,0,0,1,.43-.64l0,0-.21-.67c.08.11-.12.23-.2.12l.1-.53c-.08.18-.32.13-.51,0-.44-.45,1.1-1,.31-1.12,0,.05,0,.09,0,.15L43,66c1.21-.54-.49-1.29.72-1.83-.65-.1-.31.1-.7.72l-.51-.18C42.49,64.86,42.64,64.93,42.59,65.12Zm1.92,4.08c.29,0,.09.26.05.39C44.34,69.5,44.05,69.51,44.51,69.2Zm.6,8.5c.1.18.12.32-.06.33A.28.28,0,0,1,45.11,77.7ZM32,97h0C32,96.78,31.94,96.68,32,97Zm0,.26c0,.12-.07.21-.2.19a.19.19,0,0,0,.19.06C32.13,97.37,32.07,97.28,32,97.21Zm0-44.12-.15,0C31.94,53,32,52.85,32,53.09Z"/><path class="cls-1" d="M46.11,77.37a.52.52,0,0,0-.22-.14A.16.16,0,0,1,46.11,77.37Z"/><path class="cls-1" d="M41.24,61.66h0a.18.18,0,0,1,.07,0Z"/><path class="cls-1" d="M39,92.35a.47.47,0,0,0-.14-.26A.2.2,0,0,1,39,92.35Z"/><path class="cls-1" d="M30.09,99.42l.25-.23c-.08.13,0,.21,0,.31S30.14,99.34,30.09,99.42Z"/><path class="cls-1" d="M31.63,102.9c-.07,0-.05.09-.12.1l-.2-.09C31.41,102.74,31.63,102.69,31.63,102.9Z"/><path class="cls-1" d="M31.43,100.27c.35.17.14.29,0,.45,0,0,0,0,0,0C30.88,100.54,31.15,100.4,31.43,100.27Z"/><path class="cls-1" d="M31.38,100.76a.36.36,0,0,0-.1.18C31.06,100.88,31.27,100.85,31.38,100.76Z"/><path class="cls-1" d="M31.45,97.9c.05.13-.5-.14-.38,0C30.55,97.79,31.94,97.5,31.45,97.9Z"/><polygon class="cls-1" points="32.56 100.92 32.14 100.67 32.56 100.71 32.56 100.92"/><path class="cls-1" d="M33,99.27l0,.36a.2.2,0,0,0-.2,0C32.84,99.45,32.85,99.21,33,99.27Z"/><path class="cls-1" d="M32.76,99.64c0,.11-.1.2-.2.22A.78.78,0,0,1,32.76,99.64Z"/><polygon class="cls-1" points="32.91 100.56 32.86 100.43 32.93 100.2 32.91 100.56"/><path class="cls-1" d="M34.53,95.94l.3-.28c.17,0,.22.16.1.26S34.66,96.05,34.53,95.94Z"/><path class="cls-1" d="M35.28,97.46c-.05-.13-.15-.18-.28-.29l.57.22Z"/><path class="cls-1" d="M35.89,96.54c.18,0,.69-.31.45.1C36.16,96.61,35.87,96.9,35.89,96.54Z"/><polygon class="cls-1" points="37.68 91.2 37.63 91.29 36.71 90.9 37.68 91.2"/><path class="cls-1" d="M42.1,87.67c0,.48-.62-.14-.52.33-.26,0-.08-.39-.31-.37C41.62,87.49,41.55,87.31,42.1,87.67Z"/><path class="cls-1" d="M41.27,87.63a1.71,1.71,0,0,1-.21.07A.71.71,0,0,1,41.27,87.63Z"/><polygon class="cls-1" points="23.64 37.68 23.32 37.5 23.71 37.54 23.64 37.68"/><path class="cls-1" d="M24.09,36.91l-.62.18.45-.37C23.93,36.79,23.93,36.92,24.09,36.91Z"/><path class="cls-1" d="M46.1,69.82l-.13.07c-.18,0-.22,0-.3-.14Z"/><polygon class="cls-1" points="43.94 66.54 43.98 66.59 43.39 66.7 43.94 66.54"/><path class="cls-1" d="M43.18,63.36c.08.11,0,.3.11.41C43.26,63.47,42.5,63.6,43.18,63.36Z"/></g></g></svg>