<svg xmlns="http://www.w3.org/2000/svg" viewBox="0 0 800 200"><defs><style>.cls-1{fill:#fff;}</style></defs><g id="Layer_2" data-name="Layer 2"><g id="Layer_1-2" data-name="Layer 1"><rect x="1.61" y="1.47" width="797.53" height="197.04"/><path class="cls-1" d="M798.48,198.51c.08,1,.28.45.24-2.41l-.33-2Z"/><path class="cls-1" d="M799.09,179.28c-.16-3.36-.44-7.24-.74-5.06.31,3.33.18,4.13.56,7.72,0,2.86-.11,5-.23,4.5.09,1-.07,4.45.14,6a127.6,127.6,0,0,0,0-13.36C798.94,178,799,179,799.09,179.28Z"/><path class="cls-1" d="M696.32,1l1.82,0C697.64,1,697,1,696.32,1Z"/><path class="cls-1" d="M521.13.83a15.19,15.19,0,0,0,2-.07A12.93,12.93,0,0,0,521.13.83Z"/><path class="cls-1" d="M491.22.47l1.76,0C492.31.46,491.63.45,491.22.47Z"/><path class="cls-1" d="M696.32,1l-4.68-.1C691.31,1,694,1,696.32,1Z"/><path class="cls-1" d="M798.29,140.74c0,1,.05,1.78.09,2.52,0-.8,0-1.57,0-2.36A.91.91,0,0,1,798.29,140.74Z"/><path class="cls-1" d="M773.55.74H775c.42,0,.81-.08,1.18-.13Z"/><path class="cls-1" d="M799.92,34.74a6.21,6.21,0,0,0-.39-2.29,21.73,21.73,0,0,1,.19,2.89C799.78,35.36,799.84,35.18,799.92,34.74Z"/><path class="cls-1" d="M799.43,127.62l0,1.65C799.46,128.84,799.44,128.12,799.43,127.62Z"/><path class="cls-1" d="M731.12.68a2.37,2.37,0,0,0-.54-.09A1.56,1.56,0,0,0,731.12.68Z"/><path class="cls-1" d="M730.44,197.21c-.05,0,0,0,0,0C730.79,197.23,730.9,197.21,730.44,197.21Z"/><path class="cls-1" d="M799.14,198.58h-.95c-.1.06-.21.11-.21.16Z"/><path class="cls-1" d="M436.48.11h.24C438.16.09,437.35.09,436.48.11Z"/><path class="cls-1" d="M.45,68.33c.25-5.62.32,9.16.6.69C.94,69.81.62,61.32.45,68.33Z"/><path class="cls-1" d="M798.33,139.23v-2.4C798.32,137.92,798.32,138.66,798.33,139.23Z"/><path class="cls-1" d="M1.05,69h0l0-.88C1.07,68.51,1.06,68.71,1.05,69Z"/><path class="cls-1" d="M310.35.28a12.2,12.2,0,0,0,1.28.12A7.21,7.21,0,0,0,310.35.28Z"/><path class="cls-1" d="M404.31.68,402,.64Z"/><path class="cls-1" d="M261.56.67c-1.26,0-1.69-.06-3.42,0l.53,0C259.29.65,260.12.63,261.56.67Z"/><path class="cls-1" d="M210.78.67l.94.06h1.61Z"/><path class="cls-1" d="M576.12,197.34c1.11.08,1.8.16,2.34.25C577.68,197.39,585.14,197.32,576.12,197.34Z"/><path class="cls-1" d="M798.45,140.72a8,8,0,0,1-.12-1.49c0,.57,0,1.13,0,1.67C798.39,141,798.43,141.07,798.45,140.72Z"/><path class="cls-1" d="M259.5,2.86l-8.07,0Z"/><path class="cls-1" d="M211.82,197.38l1.85,0C213,197.34,212.3,197.35,211.82,197.38Z"/><path class="cls-1" d="M227.49,2.86c-1.44-.1-3-.16-4.55-.19-.33,0-.71,0-.93.07Z"/><path class="cls-1" d="M578.48,197.59h0Z"/><path class="cls-1" d="M631.62,196.93c-7.69,0-3.61.36-5.24.57-9.18.1-4.25-.27-7.37-.45-5.73.09-10.12.43-14.4.41-.32-.06-1.15-.08-.17-.16-6.06.29-18,0-25,.38a6.77,6.77,0,0,1-.92-.09c1.14.18,1.32.37,1.08.5a74.64,74.64,0,0,1-7.69,0,25,25,0,0,0,3.28-.16l-3.61.1c-3.25-.34,4.93-.11,4.93-.37-7.05.11-15.25.4-20.65.3-1.13-.33,12.62-.11,5.42-.41l8.35.13c-6.38-.53,5.07,0-.79-.53-11-.1-12.29.17-23.25.07-2.47.19.82.28-1.65.46-15.58.34-12.26-.84-23.72-.39a73.26,73.26,0,0,1-12.26.42l2.78-.38c-10.64,0-6.08.55-17.22.29,2-.15,8.36-.12,6.75-.17-7.21-.3-5.1.22-10.65.22l-1.15-.34-36.34.36c.69-.1,2.84-.21-.09-.31-15.82.17-33.77,0-49-.24l-5.83.29c-1.35,0-2.51-.13-1.05-.19-5.94-.11-.3.19-3.16.3-3.39,0-4.47-.17-2.33-.25-10.49.24-29.89.52-41,.21l2.16-.08c-8.61-.12-9.72.59-17.7.32l1.53,0c-18.69-.12-39.34.14-53.59-.3-2.71.42-18.5-.18-19.7.4-10.67-.29-7.61-.39-22.64-.59-4,0-6,.37-10.94.43l-.12-.31-6.74.32-3.58-.36-4.66.08a17.49,17.49,0,0,1,3.66.22c-3.64.07-8.07,0-11.61-.07-1.77-.05-3.32-.1-4.44-.15a13.83,13.83,0,0,1-1.85-.15l-17.2.26c.38-.12,3.26-.16,5.54-.24-9.18.31-1.67-.32-10.08,0,1.13.07-.61.18-.8.24-4.19-.18-13.74-.18-20.8-.1l1.35-.21c-12.75-.06-26.89.1-41.21.09,5.14.1,4,.46-.24.5l-1.68-.32c-2.71.2,4.39.12-1.18.36-5.34,0-3.59-.36-.52-.47l-6.5.11c-.39-.09,1.14-.14,1.54-.26-2.67.19-11.23-.33-15.08,0l-.36-.1-32.46.13c-.23.28-4.79.21-8.26.44-8.57-.09-18.08-.31-28.4-.29-7.26.14-2.12.24-5.38.4-.54-.25-10.85-.22-5.5-.41l-9.43.05c-.06-5.54-.12-10.22-.22-19.5-.1,1.68-.15,3.57-.24,2.59a35.51,35.51,0,0,1,.23-6l0,.74c-.38-17.38.74-40.12.21-54l0,.78-.28-14.36c0-6.6.19,4,.35-.92C2.47,91.26,3,82.28,2.67,69.53c.75-9.87,0-35,.43-48.35L2.92,22a64.83,64.83,0,0,1,.14-6.7c-.14.36-.16,3.73-.25,1.59,0-4.68,0-9.42-.06-14.25l17.62.05,19,.13,37.88.29c11.07,0,6.28-.91,20.24-.49l-4,.33c22.33-.39,45.66,0,67.52-.32-1.3.07-1.34.17-3.47.17,2.31.12,6.58.12,10.28.07,1.85,0,3.56-.06,4.81-.11a12.22,12.22,0,0,0,2.06-.14c3.41,0,.79.17,2.89.27,4.63.14,11.63-.3,14.09-.07a15.76,15.76,0,0,1-2.15.1c3-.12,14.06,0,11.17-.24,8.21.13,15.7-.13,22.24,0,4.27-.31,14.05.14,15.41-.29-.59.45,14.38.36,19.57.15-1.74.14,4.51.14,2.48.33,5.92,0,11.34-.09,10.31-.32,10.91.53,21.93-.43,28.07.25,17.59-.24,33.86-.4,49.68-.5-.57.44-17.48,0-16.81.51,15-.18,23.67-.57,38.55-.46,3.86.06-2.18.19-3.48.27,15-.18,29,0,42.33-.2a7.08,7.08,0,0,1-.92.06l-1.92.06c2.63,0,6.12.06,5.82-.14l-2.56.06c-4.2-.3,10.44-.62,10.91-.77-4.46.58,13.18.14,6.09.88,1.73,0,3.9-.14,3.51-.27,2.56,0,3.38.12.77.27,9.42-.11,6.08-.33,14.61-.32,0,.1-1.75.13-2.63.25,4.32-.19,8.66-.38,15.87-.3-.44.06.4.14-1.75.14,12.39,0,21.11-.51,34.7-.33-4,.43,4.62.14,5.34.51l7.3-.11-2.93-.18c6.4,0,12.06-.26,17.56-.14l-4.76.15,12-.07L519.27,2c6.47-.19-.69-.46,7.82-.36-1.73,0,6.41,0,9.74.22h0c3.17-.12,6.42-.24,11.16-.15,1.22.12-1,.41-.19.49,3.12-.31,15-.09,18.94-.42-1.32.08-1.39.27-1,.31l2.62-.25c3,.08,3.4.12,2.91.28,8.92,0-2.83-.47,7.76-.27-.84,0-.44.06-2.17.1,10.63.1,20.54-.16,30.31,0,2.88.37-8.54.09-5.24.4C616,2.27,631.12,1.89,644.75,2l-2.54,0c1.89-.53,10.15.26,17,0-1.68,0-2.21.29-1.75.23,9.33.08,19.08-.13,33.22-.29L689,2c5.5.12,14.48.07,20.43.13,1.76-.13,5.16-.11,3.09-.31,18.32.77,35-.41,51.2.23-1.94,0-4.63.12-3.09.12l13.85-.12a40,40,0,0,0-4.72-.32c1.75-.13,5.66-.24,9.09-.24-6.23.15,0,.37,2.74.49-.45-.07.47-.14.24-.21,7.24.4,1.22-.46,11.09-.19l-.52.12L799,1.56c0,1.23,0,2.68,0,4.17C798.8,7.4,799,1.67,798.73,2c0,.56,0,1.12,0,1.68l.06,2.05c.05,1.37.1,2.71.14,4.05.09,2.66.15,5.26,0,7.76-.05-2.35-.11-5.73-.15-8.08-.32,5.45-.24,6.09-.29,10.14v-.4l-.14,9.36.08-2.38c.7,6.92.13,14.09.59,23.42-.43-9.06-.25-1.5-.55-2.19-.09,2.38-.18,6-.27,5,.25,4.4-.19,7.36.17,13.57-.1.28,0,4.72-.26,3.73.08,5.73.17-1.36.29-.88.34,8.84-.4,20.76.06,33.47.18,11,.51,13,.68,23.15-.16,3.43-.36-2.81-.36-2.81-.14,5.53-.11,9.7,0,14.92-.09-1.06-.16,0-.27,1.62,0,4.18.35,2.8.21,8.32-.11-.95-.28-2.16-.39-4.18.12,4.93.24,9.8.36,14.91-.17,1.35-.26-3.08-.37-4.88.08,5.74.16,14.87.42,16.64l.1-3.68c0,2.09-.23,1.08-.28-.47-.21-4.92.09-7.09.19-7.37l.06,3.64c.57-3.74-.09-14.61-.06-21.93l.42,3-.34-7.51c.1-1.6.33-2.69.4.92.2-5.24-.15-4.64.08-9.15,0-.5,0-.27.07.19l-.12-5.13c.08,1,.29-.85.23,2.3.24-9.21-.31-14.85,0-18.31l0,.77c-.14-12.78-.31-1.24-.66-10.82l.75-6.45-.31-1.25c0-1.32,0-3.93.16-3.44-.21-4.91-.13.83-.33-2,.28-6.35-.13-17.49.35-18.92-.23-2.28-.17,6.07-.34-.7.53-1.94-.08-7.83.16-13.63.26,1.78.12,7.27.36,1.48-.45-3.5.1-11.29,0-16.17-.36-.23-.15-10.63-.27-18.83,0,.19.08-1.73.12-4.61,0-3,.07-7.08.11-11L791,.83l.23-.06c-1.49.36-9.46.3-15.25.37.22-.22,1.27-.3,4.41-.4H775c-1.29.12-3,.18-6.52.22l1.37-.27c-7.26,0-14.61.32-23.94.14-.53.25,7.42.7-2.45.87-.37-.14-.73-.37,1.85-.43-.84,0-3,.12-4.72.06l3.94-.23c-4.25-.1-2.22.19-5.62.17.07-.19-2.51-.14-2-.29.87,0,3,.08,4.27,0-3.83,0-8.47-.15-10-.3.34.11,0,.27-2.8.29-7.26,0-2.49-.23-6.72-.33-1.75.13-6.38,0-6.5.28a21.11,21.11,0,0,1-3.34-.21c-3.75.13-17.53,0-13.3.34l1,0-.61,0h0c-12.31.29-25.57-.17-37.78,0l0-.1c-7.29.11-16.22.06-21.42.27-2.16,0-5.09-.17-4.17-.29-5.57.07-6.2.18-14.24,0,5.6-.17-1.94-.15,5.74-.12-7.24-.09-8.88-.24-16.65,0,2.64-.25-5.45-.31-8.9-.24l5.08.18c-3.87,0-7.25,0-10.69,0l1.86-.33c-14.82-.4-26.72.68-38,0-3.92.23,8.05.16,4.54.43-6.81-.05-13.91-.52-16-.52-9.34-.18-8.71.48-18.48.36,1.25.11,2.43.43-4.87.54-6.82-.05-8.38-.49-4.08-.59a13.06,13.06,0,0,1,2.36.07c2.2,0,5.09-.09,2.39-.22l-.88.12C521.21.54,511.83.55,514,.36c-5.15.11-2.2.19,1.62.25C506.9.44,502,.61,493,.49c1.43.07,2.75.2,1.33.2C481.1.55,488.49.91,479.54,1c-5.08-.18,1.82-.43-7.18-.28-5.5-.12-1.17-.31,1-.41-8.21.23-15.33-.14-20-.19L457.68,0c-2.58.06-4.7.05-6.85.05l2.46.24a43.3,43.3,0,0,1-4.64-.14c-2.61.15,2,.39-3.18.6C442.08.63,435.16.87,434,.56c10.65.11-1.17-.31,7.84-.36-1.74,0-3.86,0-6.41,0-.38,0,.36-.07,1.06-.09-10.18-.27-4.68.36-15.24.35,1.34-.18-2.44-.33-4.16-.3,4.25,0,2,.3-1.87.43-6.77-.14-7.35.1-10.9.09l4.05.06c-1.37.17-4.76.15-9.47.21-.41-.14,4.28-.1,2.6-.16-5.24.31-11.84-.32-19.14-.11C379,.56,382,.35,379.05.27,370.87.5,370.19,0,361.58.22c2.48.24,2.92.18-3.14.41L372.58.46,363.51.8c4.26,0,9-.14,11.56-.1-4.33.19-3.88.13-1.84.32-5.84-.35-11.58.21-18.33,0l.21-.58c-10.15-.26-18,.3-31.21.15l4.23.1c-1.77.23-8.13,0-12.4.13.39-.2-2.27-.27-4.1-.39.23.15-9.64,0-10.84.38L294.91.52c-10.64-.1-12.15.56-22.38.49,3.09-.21-1.56-.35,5.29-.5a63.41,63.41,0,0,0-6.54.1c-2-.13-9.47.26-12.61.07a46.09,46.09,0,0,1-5.75.28c-.42,0,0-.1,0-.1s-6,.13-2.66.35c-10.52-.61-29.4,0-38.56-.48l-23.2.14a3.22,3.22,0,0,1,1.3-.07c-9.33-.19-5.74.55-16.36.35C168,.84,179.1,1,175.72.86c-1.48-.64-12.82.09-20-.28l1.73,0c-5.46-.22-13.33.24-22.26.2,0,0,.44-.06.06-.1-6.11.33-17.67.43-26.25.52,2.67-.25,3.9-.13,2.27-.38-3.85,0,1.12.41-6.56.48-2.5-.14-8-.26-8.78-.53l7.25,0C99.5.36,93.83.73,90,.66L90.5.51C79.39.56,79.24,1,67.3.92L68.53,1c-6.52.38-5.47-.22-12,.07l-2-.39c-4.31.09-15.08.37-22.8.45,4.37-.29,13.4-.44,19-.61-4.26,0-14.5,0-16.72.22,1.72,0,3.88-.13,5.58-.07-5.23.3-12.12.45-20.62.45C19.51.91,17.31.8,13.91.75L.82.68c0,1.39,0,2.77,0,4.08,0,1.06,0,2.07-.05,3,0,1.87-.11,3.44-.21,4.49C.8,27.13.39,41.76.44,59.08c.59-6.15,0,5,.63,4,0,4,0,5.57,0,5.93L.69,81.23C.51,84.12.56,77.39.42,77.76c0,8.83-.26,3.71-.42,9.55.22-1.2.31,3.07.23,8.11l.28-7.09C.83,100.67,0,99,.32,111.44L.13,107.5c.11,6.39,0,23.55.48,29.81-.07,1.13-.23,2.62-.28-.19-.07,15.26.52,34,.22,45.82L.4,181.79c0,2.84.28,5,.13,8.52-.06-.19-.15-1.15-.15.17,0,.55,0,1.73.09,3.18,0,.73,0,1.53.06,2.35,0,1.16,0,2.36,0,3.53H3.36l1.6,0-1.63.08-2.8.08,6.51,0,4.82,0c3.07,0,5.88-.09,8.62-.16,5.47-.14,10.64-.31,17-.36,0,.43,11.81.57,17.73.64l-.21.06c17.54.06,29.79-.35,46-.52,10.08.47,34.14.19,50.34.46-2.47-.08.41-.34,3.29-.39,3.8.09,10.51-.3,9.9.1h-1.35c2.86.39,10.68.29,16.78.3l1-.52c16,.76,41.81-.28,50.52.4l12.44-.26-.21.28c10.67.07,16,.11,29.19,0l-2.69.2c7.44,0,9.39-.8,16.25-.82l2.07.42c13,0,26.11.35,38.93,0a9.84,9.84,0,0,1-2.69.2c6.11,0,23.63.28,21.41-.29.08.18,3.42.19,7.63.13l12.77-.26-1.09.27c5.92-.35,6.1-.44,14.36-.54,2,0,1.72.22-.88.15,6.52.14,5.08-.26,13-.12l-2.94.18a97.79,97.79,0,0,0,9.87-.28c4.22-.11,12.73.07,13.72.32a70.74,70.74,0,0,1,8.54-.28c.53.09-.91.15-1.63.18,11.22.18,16.69-.32,24.4-.05a4.25,4.25,0,0,0,1.31.16c-8.92,0-16.1,0-15.43,0,0,.25,7.21.3,1.48.65,5.78-.19,15.66-.61,22.68-.49.34,0,.68.05.93.09l-.73,0c1.62,0,3.08,0,4.44,0,2.24,0,3.66.07,5.82.07.83.21,8.25.12,11.85.13-.3-.28,4.4-.24,0-.47a25.81,25.81,0,0,1-3.07.05l-1.53,0,.24,0-8.92,0c2.83-.14,5.8-.26,9.77-.1,1.84-.18,3.87-.36,5-.45,4.92.39,14.39.6,15.71.83,11-.15,25.83-.1,32.72-.62a28,28,0,0,1,4.75.23c-1.8,0-3.94,0-4.91.12,6.23-.13,18.47-.05,20-.42,7.85.17-4.42.34,6.38.28l-1.46.11c21.24.58,34.53-.93,58.07-.18-1.63-.05-2.45-.07-2.78-.13,26.85.33,55.32-.31,81.81.21,7.53.11,8.34-.12,12.94-.3l1.63.3,7.86-.35c11.14-.25,19.29.74,33.39.26l-1.82-.2c5.07,0,16-.12,15.21.11a22.32,22.32,0,0,1,3.64-.1l.15.15,12.44-.26c9.65.11-1.51.61,12.57.64,5.23-.06,14.9-.45,12.94-.55a40,40,0,0,1-5.56-.26l4.79-.08c.87-.46,4.55-.93-7.2-1.25l-8.19.28-2.63-.22h6.89a78.75,78.75,0,0,0-9.16.1,25.76,25.76,0,0,0-3.44-.24l-8,.43c-1-.17,3.6-.35-1.79-.45-3.77.2,3.61.4-2.62.54a44.28,44.28,0,0,0-7.37-.2c-.65-.12.32-.2,2.15-.25-4.1.14-10.83.06-12.94.3-4.09-.25-13.82.07-13.42-.36-1.28.1-7.2.34-11,.36,6.87-.52-14.07,0-12.25-.59-5.08.46-18.36.2-27.36.46.5,0,1.49-.11,2.29-.08-5.07,0-6.54-.18-9.8-.27-.65.38-8.54.47-12.79.71-6.21-.37,3.77-.45,1.82-.81.31.31-10.79.31-8.68.57a55.22,55.22,0,0,1-6.53-.43c-.84.48-4.43.08-8.36.38-6.88-.24-1.77-.45-9.32-.31C624.91,197.11,631.62,196.93,631.62,196.93Zm-179.55.84h3.7Zm-15.09,0h6.54c.53.1,0,.2-1.56.19C442.79,197.91,439.23,197.85,437,197.77Zm31.92,1.92a23.72,23.72,0,0,1-3.52-.07l4.18,0,.28,0A4.72,4.72,0,0,1,468.9,199.69Z"/><path class="cls-1" d="M473.19,199.33l1,0-1.42-.06-.85.08Z"/><path class="cls-1" d="M698.46,1.05h-.32c.26,0,.51,0,.67,0Z"/><polygon class="cls-1" points="228.62 197.24 228.65 197.31 229.97 197.25 228.62 197.24"/><path class="cls-1" d="M781.56,2a9.09,9.09,0,0,0,1.09.07Z"/><path class="cls-1" d="M798.53,19.57l-.1,5C798.48,22.41,798.51,20.83,798.53,19.57Z"/><path class="cls-1" d="M798.4,46.84a1.61,1.61,0,0,0,.12.54v-.06Z"/><path class="cls-1" d="M406.21,2.53h-1.06C402.65,2.59,404.35,2.57,406.21,2.53Z"/><path class="cls-1" d="M536.81,1.88l-4.2.13A19.81,19.81,0,0,0,536.81,1.88Z"/><path class="cls-1" d="M260.38,2.86h0Z"/><path class="cls-1" d="M526.54,2c2.32.05,4.27,0,6.07,0C530.7,2,528.46,2,526.54,2Z"/><path class="cls-1" d="M798.27,165.07v1.31s0,.06,0,.16Z"/><path class="cls-1" d="M798.3,166.54l0,1.46C798.33,167.33,798.33,166.74,798.3,166.54Z"/><path class="cls-1" d="M798.41,171.07l-.08-3.07C798.33,169.06,798.33,170.37,798.41,171.07Z"/><path class="cls-1" d="M798.4,129l-.1-.42A.82.82,0,0,0,798.4,129Z"/><path class="cls-1" d="M798.37,118c0,2.62-.22,6.57-.15,10.22l.08.34C798.15,126.83,798.54,120.47,798.37,118Z"/><path class="cls-1" d="M799.62,72.18l-.08,9.2c.11-1.61.26-3.72.28.46C800.15,70.25,799.58,84.23,799.62,72.18Z"/><path class="cls-1" d="M799.78,43.67c.05,4.94.16-.06.22.21C799.9,40.74,799.88,40,799.78,43.67Z"/><path class="cls-1" d="M633.36.83l.51-.25C630,.62,633.83.68,633.36.83Z"/><polygon class="cls-1" points="593.51 2.13 597.26 2.29 599.04 2.06 593.51 2.13"/><polygon class="cls-1" points="569.97 0.34 571.65 0.3 565.22 0.4 569.97 0.34"/><path class="cls-1" d="M219.82.43,221,.74C223.58.68,224.13.34,219.82.43Z"/><path class="cls-1" d="M68.65.75A74.52,74.52,0,0,0,60.13.64C63.53.66,66.92.79,68.65.75Z"/><polygon class="cls-1" points="188.53 199.73 185.49 199.84 191.22 199.75 188.53 199.73"/></g></g></svg>