<svg xmlns="http://www.w3.org/2000/svg" viewBox="0 0 100 50"><defs><style>.cls-1{fill:#474747;}</style></defs><g id="Layer_2" data-name="Layer 2"><g id="Layer_1-2" data-name="Layer 1"><path class="cls-1" d="M77.85.79c.2,0,.28,0,.29-.06C78,.75,77.81.77,77.85.79Z"/><path class="cls-1" d="M73.46.45l.26,0A.49.49,0,0,0,73.46.45Z"/><path class="cls-1" d="M99.61,5.67l.1-.66C99.6,5,99.63,5.35,99.61,5.67Z"/><path class="cls-1" d="M99.87,16.84,100,17l-.13-.37Z"/><path class="cls-1" d="M99.54,24.72a.67.67,0,0,1,.18.41.27.27,0,0,0,.2-.08C99.93,24.86,99.66,24.79,99.54,24.72Z"/><path class="cls-1" d="M99.44,38.39l0,.24Z"/><path class="cls-1" d="M99.15,48.64H99a.8.8,0,0,0,0,.15Z"/><path class="cls-1" d="M65.42.11h0C65.67.08,65.55.09,65.42.11Z"/><path class="cls-1" d="M.44,11c.25-.81.32,1.31.59.1C.92,11.22.6,10,.44,11Z"/><path class="cls-1" d="M46.91.27s.11.08.18.12S47.05.33,46.91.27Z"/><path class="cls-1" d="M39.74.64a1.58,1.58,0,0,0-.5,0,.11.11,0,0,0,.08,0A.79.79,0,0,1,39.74.64Z"/><path class="cls-1" d="M32.29.65l.14,0,.23,0Z"/><path class="cls-1" d="M99.92,16.11a19.09,19.09,0,0,1-.14-3.4c-.17-.05-.42.45-.63.34v-.71c.09,0,.16.1.19.28a1.67,1.67,0,0,1,0-.67l.23.56c.09-.6-.19-.31-.17-.79.19,0,.13-.36.29-.29s-.08.42,0,.6a3.87,3.87,0,0,1,.3-1.41c-.11,0-.26,0-.29-.4,0-1,.23-.36.33-1-.13-.25,0-.9-.28-.92a.63.63,0,0,1,.21-.47c-.12-.54,0-2.49-.34-1.89l0,.13V6A33.4,33.4,0,0,1,99.59,1c-.33,0-.66,0-1,0l0-.09L97.56,1l-.85,0a7.93,7.93,0,0,0-1.46.17c-.32,0-.75-.17-.61-.28a6.18,6.18,0,0,1-2.09,0c.82-.16-.29-.14.84-.12a6,6,0,0,0-2.45,0c.39-.24-.8-.3-1.3-.23l.74.17c-.56,0-1.06,0-1.57,0l.28-.31c-2.18-.38-3.92.65-5.58,0-.58.22,1.18.15.67.41A18.31,18.31,0,0,1,81.82.37c-1.37-.18-1.28.46-2.71.34.18.11.35.41-.72.51s-1.23-.47-.6-.56c.24,0,.36,0,.35.07.32,0,.75-.09.35-.21l-.13.11c-.5-.12-1.87-.1-1.55-.29-.76.11-.32.19.24.24-1.29-.16-2,0-3.33-.11.21.06.4.19.19.19C72,.52,73.06.88,71.75.92,71,.75,72,.52,70.69.66c-.81-.12-.17-.3.15-.39A9.85,9.85,0,0,1,67.9.09L68.54,0a7.25,7.25,0,0,1-1,.05l.36.23c-.37,0-.69,0-.68-.14-.38.15.3.37-.47.58C66.25.6,65.23.84,65.06.54c1.56.1-.17-.3,1.15-.35a3.67,3.67,0,0,1-.94,0c-.06,0,0-.06.15-.08-1.49-.27-.68.34-2.23.33.19-.17-.36-.32-.61-.28.62,0,.29.28-.28.4a5.61,5.61,0,0,0-1.6.09l.6.06c-.21.17-.7.14-1.4.2,0-.13.63-.09.39-.15-.77.29-1.74-.31-2.81-.11-.5-.11,0-.31-.49-.39-1.2.22-1.3-.23-2.56-.05.36.23.43.17-.46.39L56,.44,54.71.77c.63,0,1.32-.14,1.7-.1-.64.18-.57.12-.27.31-.86-.34-1.7.2-2.69,0l0-.56C52,.14,50.83.68,48.9.54l.62.09c-.26.23-1.2,0-1.82.13,0-.19-.34-.26-.61-.37,0,.13-1.41,0-1.59.35L44.64.5C43.08.4,42.86,1,41.35,1c.46-.21-.23-.34.78-.48-.5,0-1,0-1,.09-.29-.12-1.39.25-1.85.07a1.25,1.25,0,0,1-.85.27c-.06,0,0-.1,0-.1s-.88.13-.39.34c-1.55-.59-4.32,0-5.66-.46C31.33.76,30,.82,29,.83c.06,0,0-.09.19-.07-1.37-.17-.84.54-2.4.34-.8-.3.83-.16.33-.27-.22-.62-1.88.08-2.93-.28l.25,0c-.8-.21-1.95.23-3.27.18,0,0,.07,0,0-.09a18.2,18.2,0,0,1-3.85.5c.39-.24.57-.12.33-.37-.56,0,.17.39-1,.46-.37-.13-1.18-.24-1.29-.5l1.06,0c-.54-.33-1.37,0-1.93,0l.07-.15C13,.54,13,.91,11.22.88L11.4,1c-1,.37-.8-.2-1.76.07L9.36.69c-.64.09-2.22.36-3.35.43A18.71,18.71,0,0,1,8.8.53,9.39,9.39,0,0,0,6.34.75,2.28,2.28,0,0,1,7.16.68a8.77,8.77,0,0,1-3,.43C4.21.87,3.88.77,3.38.72c-.18,0-.71,0-1.15,0L.8.65A7.8,7.8,0,0,1,.5,3C.78,5.09.39,7.19.43,9.68c.58-.89,0,.72.61.57a2.26,2.26,0,0,1,0,.85l0-.12,0,.13H1L.68,12.86c-.18.41-.13-.55-.27-.5,0,1.27-.25.53-.41,1.37.21-.17.31.44.22,1.17l.28-1C.82,15.65,0,15.41.31,17.2l-.18-.57c.11.92,0,3.39.47,4.28-.07.17-.23.38-.27,0-.08,2.19.51,4.87.21,6.58L.39,27.3c0,.41.28.71.13,1.23-.06,0-.14-.17-.15,0a5.43,5.43,0,0,1,.17,1.63l-.17-.47c-.19,2.14.4,3.29.5,5.08-.43,0-.57,1.68-.63,2.51l-.07,0A61.42,61.42,0,0,0,.7,43.81a8.64,8.64,0,0,0-.27,2c0,.46,0,.94,0,1.43,0,.8,0,1.63,0,2.45l2.26,0h.54l.3,0,.57,0c-.36-.07.06-.32.49-.36s1.54-.29,1.45.09h-.2c.42.38,1.57.28,2.47.29l.14-.5c2.35.72,6.14-.27,7.42.38.57-.12,1.27-.12,1.83-.25l0,.27c1.56.07,2.34.1,4.28,0L21.5,50c1.09,0,1.38-.77,2.38-.79l.31.4c1.9,0,3.83.35,5.71,0,0,.06-.08.18-.39.19.89,0,3.47.27,3.14-.27,0,.35,2,0,3-.12l-.17.26a4.88,4.88,0,0,1,2.11-.52c.29,0,.26.21-.13.14,1,.14.75-.25,1.91-.11l-.43.17a2.41,2.41,0,0,0,1.45-.27,3.37,3.37,0,0,1,2,.31,1.77,1.77,0,0,1,1.26-.27c.07.09-.14.14-.24.17,1.64.18,2.45-.31,3.58-.05,0,.09.1.13.19.16-1.31,0-2.36,0-2.26,0,0,.24,1,.28.21.62a12.12,12.12,0,0,1,3.33-.47.67.67,0,0,1,.14.09l-.11,0a2.05,2.05,0,0,0,.66,0,8.12,8.12,0,0,0,.85.07c.12.2,1.21.11,1.74.12,0-.27.65-.23,0-.45.08,0-.1,0-.45,0a1.43,1.43,0,0,0-.23,0l0,0-1.31,0a2.32,2.32,0,0,1,1.43-.1c.27-.17.57-.35.74-.43.72.37,2.11.57,2.31.8,1.61-.15,3.79-.1,4.8-.6.46-.06.53.14.7.22a4.26,4.26,0,0,0-.72.12c.91-.13,2.71,0,2.93-.4,1.15.16-.65.32.93.26l-.21.11c3.12.56,5.07-.89,8.53-.17-.24,0-.36-.07-.41-.13,3.94.32,8.12-.29,12,.21a3.71,3.71,0,0,0,1.9-.29l.24.28,1.15-.33c1.64-.24,2.83.7,4.9.25l-.26-.2c.74,0,2.35-.11,2.23.11a.57.57,0,0,1,.53-.1l0,.15,1.82-.25c1.42.1-.22.59,1.85.62.77-.06,2.19-.44,1.9-.54s-.8-.09-.82-.24l.7-.08,0-.08h.1v-.28a.42.42,0,0,0,0-.33V40.54l.08.08-.08-.24v-1c.06,0,.11.13.14.34.2-.76-.15-.67.07-1.32,0-.07.06,0,.08,0l-.13-.74c.09.15.29-.12.23.33.24-1.32-.3-2.13,0-2.63l0,.11c-.1-1.37-.22-.79-.42-1v-.86l.51-.64-.3-.18c0-.19,0-.56.15-.49-.2-.71-.13.12-.32-.29.27-.91-.13-2.51.35-2.72-.23-.32-.18.87-.33-.1.51-.28-.09-1.12.14-1.95.27.25.13,1,.36.21-.44-.51.1-1.62,0-2.33-.35,0-.14-1.52-.26-2.7.12.08.19-2.22.32-3.31l.06,0c-.36-.21-.29-1.34-.36-2.16.21,0,.29.18.39.62v-.77a1.93,1.93,0,0,1-.22-.93ZM50.77,49.6l0,0a.62.62,0,0,1-.14.14c-.35,0-.47,0-.52-.07ZM99.2,38.07a.36.36,0,0,1,0,.09v-.41C99.17,37.85,99.18,38,99.2,38.07Z"/><path class="cls-1" d="M51.3,49.36l.14,0a.83.83,0,0,0-.21-.06l-.12.08Z"/><path class="cls-1" d="M99.57,5.93a.23.23,0,0,1,0,.1s0,0,0,0Z"/><path class="cls-1" d="M99.63,30.43l-.08,1.32c.1-.23.24-.54.27.06C100.14,30.15,99.58,32.16,99.63,30.43Z"/><path class="cls-1" d="M99.78,26.33c0,.71.15,0,.21,0C99.9,25.91,99.87,25.8,99.78,26.33Z"/><path class="cls-1" d="M94.33.8,94.4.56C93.84.59,94.4.65,94.33.8Z"/><polygon class="cls-1" points="85.27 0.29 84.33 0.38 85.02 0.33 85.27 0.29"/><path class="cls-1" d="M33.61.41l.18.3C34.17.65,34.25.32,33.61.41Z"/><path class="cls-1" d="M11.42.71A1.74,1.74,0,0,0,10.17.62,12.22,12.22,0,0,0,11.42.71Z"/><polygon class="cls-1" points="9.06 49.84 9.9 49.76 9.51 49.74 9.06 49.84"/></g></g></svg>