<svg xmlns="http://www.w3.org/2000/svg" viewBox="0 0 1920 400"><defs><style>.cls-1{fill:#fff;}</style></defs><g id="Layer_2" data-name="Layer 2"><g id="Layer_1-2" data-name="Layer 1"><rect x="0.46" y="1.11" width="1919.07" height="397.28"/><path class="cls-1" d="M.46,397.73c-1,.09-.43.28,2.35.24l2-.33Z"/><path class="cls-1" d="M19.19,398.34c3.28-.16,7-.44,4.93-.74-3.24.32-4,.18-7.52.56-2.78,0-4.86-.11-4.39-.23-1,.09-4.33-.07-5.82.14a121,121,0,0,0,13,.05C20.43,398.19,19.43,398.28,19.19,398.34Z"/><path class="cls-1" d="M291.34,398.85l-1.75,0C290.07,398.84,290.67,398.85,291.34,398.85Z"/><path class="cls-1" d="M460,399a13.81,13.81,0,0,0-1.88.07A11.86,11.86,0,0,0,460,399Z"/><path class="cls-1" d="M488.75,399.4l-1.7,0C487.7,399.4,488.35,399.42,488.75,399.4Z"/><path class="cls-1" d="M291.34,398.85l4.51.11A39.74,39.74,0,0,0,291.34,398.85Z"/><path class="cls-1" d="M56.72,397.55c-.94,0-1.73,0-2.45.08l2.3,0Z"/><path class="cls-1" d="M217,399.12h-1.37l-1.14.13Z"/><path class="cls-1" d="M160,399.17a6.19,6.19,0,0,0,2.24-.39,20.82,20.82,0,0,1-2.82.19C159.36,399,159.53,399.09,160,399.17Z"/><path class="cls-1" d="M69.51,398.68l-1.61,0Z"/><path class="cls-1" d="M257.84,399.18a2.16,2.16,0,0,0,.52.1A1.32,1.32,0,0,0,257.84,399.18Z"/><path class="cls-1" d="M1853.41,397.08c-.05,0,0,0,0,.05C1853.75,397.1,1853.85,397.08,1853.41,397.08Z"/><path class="cls-1" d="M1919.54,398.47h-.92c-.1,0-.2.11-.2.16Z"/><path class="cls-1" d="M541.44,399.75h-.23C539.82,399.78,540.6,399.77,541.44,399.75Z"/><path class="cls-1" d="M1025.12,399.55c-5.48-.25,8.92-.32.67-.6C1026.56,399.06,1018.29,399.39,1025.12,399.55Z"/><path class="cls-1" d="M58.2,397.58h0Z"/><path class="cls-1" d="M1025.79,399h0l-.85,0Z"/><path class="cls-1" d="M662.84,399.59c-.25,0-.73-.09-1.24-.13A6.05,6.05,0,0,0,662.84,399.59Z"/><path class="cls-1" d="M572.4,399.19l2.24,0C573.75,399.2,573,399.19,572.4,399.19Z"/><path class="cls-1" d="M709.8,399.19c1.21,0,1.63.06,3.29,0l-.51,0A26.55,26.55,0,0,1,709.8,399.19Z"/><path class="cls-1" d="M758.67,399.19l-.9-.06-1.55,0Z"/><path class="cls-1" d="M1704.87,397.22c1.07.08,1.74.16,2.26.25C1706.37,397.27,1713.56,397.2,1704.87,397.22Z"/><path class="cls-1" d="M56.75,397.71a6.57,6.57,0,0,1,1.45-.13l-1.63,0C56.43,397.64,56.4,397.68,56.75,397.71Z"/><path class="cls-1" d="M711.78,397l7.77,0C717.38,397,714.56,397,711.78,397Z"/><path class="cls-1" d="M1354.23,397.26l1.79,0C1355.33,397.22,1354.7,397.23,1354.23,397.26Z"/><path class="cls-1" d="M742.59,397c1.39.1,2.86.16,4.38.19.32,0,.69,0,.9-.07Z"/><path class="cls-1" d="M1707.15,397.47h0Z"/><path class="cls-1" d="M1758.29,396.81c-7.4,0-3.47.36-5,.57-8.83.1-4.09-.27-7.09-.46-5.52.1-9.75.43-13.86.42-.31-.06-1.11-.08-.17-.16-5.83.29-17.31,0-24.1.38a6.06,6.06,0,0,1-.88-.09c1.1.18,1.26.37,1,.5a70,70,0,0,1-7.41,0,22.55,22.55,0,0,0,3.16-.17l-3.48.11c-3.13-.35,4.75-.12,4.75-.38-6.78.11-14.68.4-19.87.3-1.09-.34,12.14-.11,5.21-.41l8,.13c-6.14-.54,4.88,0-.76-.54-10.58-.09-11.83.18-22.38.08-2.37.19.79.28-1.59.46-15,.34-11.8-.85-22.82-.4a65.52,65.52,0,0,1-11.81.43l2.67-.38c-10.23,0-5.84.55-16.56.29,1.9-.15,8-.13,6.49-.17-6.94-.3-4.91.21-10.25.21l-1.1-.33c-10.91.05-22.91.29-35,.36.67-.1,2.74-.21-.08-.31-15.23.17-32.51,0-47.19-.25l-5.61.3c-1.31,0-2.42-.14-1-.19-5.72-.11-.3.18-3,.3-3.26,0-4.3-.17-2.24-.26-10.1.25-28.77.53-39.41.22l2.07-.08c-8.28-.12-9.35.59-17,.32l1.47-.05c-18-.13-37.86.14-51.58-.3-2.61.42-17.8-.19-19,.4-10.27-.29-7.33-.4-21.79-.59-3.86,0-5.76.36-10.53.43l-.12-.31-6.49.32-3.45-.37-4.47.08a16.6,16.6,0,0,1,3.52.23c-7,.14-17.06-.21-17.23-.37l-16.56.26c.37-.13,3.14-.17,5.34-.25-8.84.32-1.61-.32-9.71,0,1.09.07-.58.18-.77.24-4-.18-13.22-.18-20-.11l1.31-.21c-12.28-.05-25.89.1-39.67.1,4.94.1,3.81.46-.23.5l-1.62-.32c-2.61.2,4.22.12-1.13.36-5.15,0-3.46-.37-.51-.47l-6.26.11c-.36-.1,1.1-.15,1.49-.27-2.57.2-10.81-.32-14.51,0l-.35-.09c-13.78,0-20,.11-31.25.12-.22.28-4.61.22-7.95.45-8.24-.09-17.4-.31-27.33-.29-7,.14-2,.24-5.18.4-.52-.25-10.44-.23-5.29-.41-11.93,0-15.23.05-30.31.26,1.63.1,3.47.15,2.52.23a33.3,33.3,0,0,1-5.84-.22l.73,0c-16.93.38-39.07-.74-52.55-.21l.75,0-14,.28c-6.43-.05,3.86-.19-.9-.35-15.08.42-23.83-.06-36.24.22-9.62-.75-34.11.05-47.09-.43l.75.18a61.64,61.64,0,0,1-6.53-.14c.35.14,3.64.16,1.56.25-28.41.22-58.63-.25-87.76-.41-10.65-.05-6,.91-19.47.49l3.81-.33c-21.49.39-43.95,0-65,.32a32.67,32.67,0,0,1,3.34-.17c-4.44-.24-16.44,0-16.51.18-3.28,0-.76-.17-2.78-.27-4.46-.14-11.19.3-13.56.06a15.82,15.82,0,0,1,2.07-.09c-2.91.11-13.54,0-10.76.24-7.89-.13-15.1.13-21.4,0-4.11.31-13.52-.15-14.83.29.57-.45-13.84-.36-18.84-.15,1.67-.14-4.34-.14-2.38-.33-5.7,0-10.92.09-9.93.32-10.5-.54-21.1.43-27-.26-16.93.25-32.6.41-47.83.51.55-.44,16.84,0,16.18-.51-14.44.18-22.78.57-37.1.46-3.71-.06,2.1-.19,3.36-.27-14.44.18-27.91,0-40.75.2,0,0,1.42-.08,2.73-.12-2.53,0-5.89-.06-5.6.14l2.47-.06c4,.3-10.06.62-10.51.78,4.3-.59-12.68-.15-5.86-.89-1.67,0-3.75.14-3.37.27-2.47,0-3.26-.12-.75-.27-9.07.11-5.85.33-14.06.32,0-.1,1.69-.13,2.54-.25-4.16.19-8.34.38-15.28.3.42-.06-.39-.14,1.68-.13-11.92,0-20.32.51-33.4.32,3.86-.43-4.44-.14-5.14-.51l-7,.11,2.82.18c-6.16,0-11.6.26-16.9.14l4.58-.15-11.54.07,6.53.14c-6.23.19.67.47-7.53.37,1.67,0-6.16,0-9.37-.23h0c-3.05.12-6.18.25-10.74.15-1.18-.11.95-.41.18-.49-3,.31-14.42.09-18.23.42,1.27-.08,1.34-.27.92-.31l-2.53.25c-2.85-.08-3.27-.12-2.8-.27-8.59-.05,2.72.47-7.46.26.8,0,.41-.05,2.08-.09-10.23-.11-19.77.16-29.17,0-2.77-.37,8.21-.09,5-.4-13.56.06-28.07.44-41.19.36l2.45,0c-1.82.52-9.77-.26-16.4,0,1.62,0,2.12-.3,1.69-.24-9-.08-18.37.13-32,.3l1.68-.14c-5.29-.12-13.94-.07-19.66-.13-1.69.14-5,.11-3,.31-17.63-.77-33.63.41-49.28-.23,1.87,0,4.46-.12,3-.12l-13.32.13a36.86,36.86,0,0,0,4.54.32c-1.68.13-5.44.24-8.75.24,6-.16-.05-.37-2.64-.5.44.07-.45.15-.23.22-7-.41-1.17.46-10.67.19l.5-.12c-3.55.06-6.83.22-10.67.18-1.59-.26,3.79-.12,4-.34-5.39,0-10.63.5-15.5.24,2.28-.08,5.57-.08,7.86-.15-5.31-.31-5.92-.23-9.87-.28h.39l-9.12-.14,2.32.09c-6.74.69-13.73.12-22.81.58,8.83-.43,1.46-.25,2.14-.55-2.32-.08-5.85-.18-4.85-.26-4.29.24-7.16-.19-13.22.16-.27-.1-4.59,0-3.62-.25-5.58.07,1.32.17.85.29-8.6.33-20.22-.4-32.6.05-10.67.19-12.64.51-22.54.68-3.34-.16,2.73-.36,2.73-.36-5.39-.14-9.44-.11-14.52,0,1-.09,0-.16-1.58-.27-4.08,0-2.73.36-8.11.21.92-.1,2.11-.28,4.07-.39-4.8.09-9.55.27-14.52.36-1.32-.17,3-.25,4.76-.36-5.59.07-14.49.15-16.21.42l3.58.09c-2,0-1.05-.23.46-.28a32,32,0,0,1,7.18.19l-3.55.06c3.64.57,14.23-.09,21.36-.05l-3,.41,7.31-.34c1.56.1,2.62.34-.9.4,5.11.2,4.53-.15,8.92.08.48,0,.26.05-.18.07l5-.12c-1,.08.83.29-2.24.23,9,.24,14.46-.31,17.84,0l-.75,0c12.44-.14,1.2-.31,10.53-.66l6.28.75,1.22-.31c1.29,0,3.82,0,3.35.16,4.78-.21-.81-.13,2-.33,6.18.28,17-.13,18.43.35,2.21-.23-5.91-.17.68-.33,1.88.52,7.62-.09,13.27.15-1.74.26-7.08.12-1.43.36,3.4-.45,11,.1,15.74,0,.23-.36,10.35-.15,18.34-.27-.51.12,15,.2,22.46.33l-.22.06c1.43-.36,9.1-.29,14.68-.37-.22.22-1.22.3-4.25.4h5.25c1.24-.12,2.87-.18,6.28-.22l-1.32.27c7,0,14.06-.32,23-.14.51-.25-7.14-.7,2.36-.87.35.13.7.37-1.79.43.82,0,2.91-.12,4.55-.06l-3.8.23c4.09.1,2.14-.19,5.41-.17-.06.2,2.42.14,1.95.29-.83,0-2.85-.08-4.1,0,3.69,0,8.15.15,9.62.3-.32-.11,0-.26,2.7-.29,7,0,2.39.24,6.46.34,1.69-.14,6.15,0,6.27-.29a19.17,19.17,0,0,1,3.21.22c3.61-.13,16.87,0,12.8-.35l-.92,0,.59,0h0c11.84-.29,24.6.17,36.35.05l0,.09c7-.11,15.62-.06,20.63-.27,2.07,0,4.89.18,4,.29,5.36-.07,6-.18,13.71,0-5.4.17,1.86.15-5.53.13,7,.08,8.55.24,16,0-2.55.25,5.24.32,8.56.24l-4.89-.18c3.73,0,7,0,10.29,0l-1.79.33c14.26.4,25.72-.69,36.57,0,3.77-.23-7.74-.17-4.37-.44,6.56.05,13.39.52,15.45.52,9,.19,8.38-.48,17.78-.35-1.2-.12-2.34-.44,4.69-.55,6.57.05,8.07.5,3.92.59a12,12,0,0,1-2.26-.07c-2.12,0-4.91.1-2.31.23l.85-.12c3.26.12,12.29.11,10.17.3,5-.11,2.12-.19-1.55-.26,8.42.18,13.15,0,21.81.12-1.37-.06-2.64-.2-1.27-.2,12.71.15,5.6-.22,14.21-.27,4.89.18-1.76.43,6.91.28,5.3.12,1.12.31-1,.4,7.9-.22,14.76.15,19.27.19l-4.16.1c2.49-.06,4.52-.05,6.6-.05l-2.38-.24a40,40,0,0,1,4.47.14c2.52-.15-1.93-.39,3.07-.6,3.25.12,9.91-.13,11,.18-10.24-.11,1.13.32-7.54.37,1.67,0,3.71,0,6.16,0,.37,0-.34.07-1,.08,9.8.28,4.5-.35,14.66-.34-1.29.17,2.36.33,4,.29-4.09,0-2-.29,1.8-.42,6.51.13,7.08-.11,10.49-.09l-3.89-.07c1.32-.17,4.57-.15,9.11-.2.39.13-4.12.09-2.5.15,5-.31,11.39.32,18.42.11,3.25.12.31.33,3.17.42,7.88-.23,8.53.24,16.81,0-2.38-.24-2.8-.18,3-.41l-13.61.16,8.74-.34c-4.11,0-8.67.15-11.13.11,4.16-.19,3.73-.14,1.76-.33,5.62.35,11.15-.21,17.65,0l-.2.59c9.77.26,17.35-.3,30-.16l-4.08-.1c1.7-.23,7.83,0,11.94-.13-.38.2,2.19.27,3.94.39-.21-.14,9.29,0,10.44-.37l5.66.25c10.24.11,11.69-.55,21.54-.49-3,.22,1.51.35-5.09.51a62.28,62.28,0,0,0,6.3-.1c1.92.12,9.11-.27,12.13-.08a41.63,41.63,0,0,1,5.53-.27c.41,0,0,.09,0,.09s5.78-.13,2.55-.35c10.13.62,28.3,0,37.12.48,7.18-.06,15.82-.12,22.33-.14a3.09,3.09,0,0,1-1.25.08c9,.18,5.52-.56,15.75-.36,5.22.32-5.43.17-2.18.29,1.42.65,12.34-.09,19.22.29l-1.66,0c5.25.22,12.83-.25,21.42-.2,0,0-.42.06,0,.1,5.87-.33,17-.44,25.26-.53-2.57.25-3.75.13-2.18.39,3.7,0-1.09-.41,6.31-.49,2.4.14,7.74.26,8.45.54h-7c3.57.36,9,0,12.71.05l-.47.16c10.69-.05,10.84-.45,22.33-.42l-1.19-.11c6.28-.39,5.26.21,11.53-.07l1.89.39c4.15-.1,14.52-.38,22-.46-4.21.3-12.91.44-18.29.62,4.11,0,14,0,16.1-.23-1.65,0-3.74.14-5.37.08,5-.31,11.66-.46,19.85-.45-1.45.76,21.33.19,27.27.78,14.48-.28,28.72.12,45.59.07-6-.59,4.92,0,3.89-.62,3.93,0,5.42,0,5.78,0l11.9.36c2.82.18-3.73.13-3.37.27,8.6.05,3.61.26,9.3.42-1.17-.22,3-.31,7.89-.23l-6.9-.28c12-.32,10.39.51,22.51.19l-3.84.19c6.22-.11,22.94,0,29-.48,1.1.07,2.55.23-.19.28,14.86.07,33.08-.52,44.63-.22l-1.13.15c2.78,0,4.83-.28,8.3-.13-.18.06-1.12.15.17.16,1.47-.06,7.36-.26,11-.18l-3.14.17c14.49.19,22.24-.41,34.4-.51,0,.44,11.37.58,17.06.65l-.2.06c16.88.06,28.67-.36,44.3-.53,9.71.47,32.87.2,48.46.46-2.38-.08.39-.34,3.16-.38,3.66.09,10.12-.3,9.54.1h-1.31c2.76.39,10.28.29,16.15.3l1-.53c15.36.77,40.25-.28,48.63.41,3.7-.13,8.3-.13,12-.26l-.2.28c10.27.07,15.4.1,28.09,0l-2.59.2c7.16,0,9-.81,15.65-.83l2,.42c12.5,0,25.14.36,37.48,0a9.14,9.14,0,0,1-2.59.2c5.88,0,22.74.29,20.61-.29.14.37,12.88,0,19.63-.13l-1,.28c5.7-.36,5.88-.45,13.83-.55,1.88,0,1.65.22-.85.15,6.28.15,4.89-.26,12.5-.11l-2.83.17a90.58,90.58,0,0,0,9.5-.28,129.78,129.78,0,0,1,13.21.32,65.42,65.42,0,0,1,8.21-.28c.52.09-.87.15-1.57.18,10.81.19,16.07-.32,23.5-.05a4,4,0,0,0,1.25.17c-8.58,0-15.49,0-14.85-.05,0,.26,6.94.3,1.42.66,5.57-.2,15.08-.61,21.84-.49.33,0,.65,0,.89.08l-.7,0c1.56,0,3,0,4.27,0,2.16,0,3.53.07,5.6.08.8.21,8,.11,11.4.12-.28-.28,4.24-.23,0-.46a28.38,28.38,0,0,1-3,0c-.52,0-1.13,0-1.47,0l.24,0-8.6,0a90.85,90.85,0,0,1,9.41-.11c1.77-.18,3.73-.37,4.83-.45,4.73.39,13.84.6,15.11.84,10.56-.16,24.86-.1,31.5-.63a25.94,25.94,0,0,1,4.57.23c-1.73.06-3.79.05-4.73.12,6-.13,17.78-.05,19.21-.42,7.56.17-4.25.34,6.14.28l-1.4.11c20.44.59,33.23-.93,55.89-.18-1.57-.05-2.35-.07-2.67-.13,25.84.33,53.24-.31,78.74.22,7.25.1,8-.13,12.45-.31l1.57.3,7.57-.35c10.72-.25,18.57.74,32.14.26l-1.75-.2c4.88,0,15.44-.12,14.63.11a20.81,20.81,0,0,1,3.51-.1l.14.15,12-.26c9.29.11-1.45.62,12.1.65,5-.06,14.34-.46,12.45-.56a37,37,0,0,1-5.35-.26l4.61-.08c.83-.46,4.38-.94-6.93-1.26l-7.88.28-2.54-.22h6.63a70.87,70.87,0,0,0-8.81.1,25.15,25.15,0,0,0-3.31-.25l-7.73.44c-.94-.18,3.47-.35-1.72-.45-3.63.2,3.47.4-2.53.54a40.89,40.89,0,0,0-7.09-.21c-.62-.12.31-.19,2.07-.24-3.94.14-10.42.06-12.46.3-3.93-.26-13.29.07-12.91-.37-1.23.11-6.93.35-10.55.36,6.61-.52-13.54,0-11.79-.59-4.89.47-17.67.21-26.33.47.48,0,1.43-.11,2.2-.09-4.88,0-6.3-.18-9.43-.27-.63.39-8.22.48-12.31.72-6-.37,3.63-.46,1.75-.82.3.32-10.38.32-8.35.58a51.6,51.6,0,0,1-6.3-.43c-.8.48-4.25.08-8,.38-6.62-.24-1.71-.46-9-.31C1751.83,397,1758.29,396.81,1758.29,396.81Zm-172.82.84H1589Zm-14.52,0c1.77,0,4,0,6.3,0,.51.1,0,.2-1.5.19C1576.54,397.79,1573.12,397.74,1571,397.65Zm30.72,1.94a23.43,23.43,0,0,1-3.38-.07l4,0,.27,0A6.33,6.33,0,0,1,1601.67,399.59Z"/><path class="cls-1" d="M1605.8,399.22l1,0-1.37-.06-.81.09Z"/><path class="cls-1" d="M289.28,398.81h.31c-.26,0-.49,0-.64,0Z"/><polygon class="cls-1" points="1370.41 397.12 1370.43 397.19 1371.7 397.13 1370.41 397.12"/><path class="cls-1" d="M209.29,397.85c-.15,0-.45-.05-1-.07C208.29,397.8,208.74,397.82,209.29,397.85Z"/><path class="cls-1" d="M174.74,397.79l-4.89-.1Z"/><path class="cls-1" d="M148.18,397.65a2.13,2.13,0,0,0-.52.12h.05Z"/><path class="cls-1" d="M570.57,397.32h1C574,397.25,572.36,397.28,570.57,397.32Z"/><path class="cls-1" d="M444.87,398c1.33-.05,2.65-.1,4-.13A18.31,18.31,0,0,0,444.87,398Z"/><path class="cls-1" d="M710.93,397h0Z"/><path class="cls-1" d="M454.75,397.85c-2.23-.06-4.1-.05-5.84,0C450.74,397.86,452.91,397.89,454.75,397.85Z"/><path class="cls-1" d="M33,397.52H31.75s-.05,0-.15.05Z"/><path class="cls-1" d="M31.6,397.56l-1.42,0C30.83,397.59,31.4,397.59,31.6,397.56Z"/><path class="cls-1" d="M27.19,397.66l3-.07C29.14,397.59,27.87,397.58,27.19,397.66Z"/><path class="cls-1" d="M68.2,397.65l.4-.1A.75.75,0,0,0,68.2,397.65Z"/><path class="cls-1" d="M78.89,397.62c-2.55,0-6.4-.21-10-.15l-.34.08C70.28,397.4,76.47,397.79,78.89,397.62Z"/><path class="cls-1" d="M123.5,398.87l-9-.08c1.57.11,3.63.26-.45.28C125.38,399.39,111.76,398.83,123.5,398.87Z"/><path class="cls-1" d="M151.26,399c-4.81.05.06.16-.19.22C154.12,399.15,154.86,399.12,151.26,399Z"/><path class="cls-1" d="M351.93,399l-.48.26C355.16,399.25,351.49,399.19,351.93,399Z"/><polygon class="cls-1" points="390.29 397.72 386.69 397.56 384.97 397.79 390.29 397.72"/><polygon class="cls-1" points="412.95 399.53 411.33 399.56 417.52 399.47 412.95 399.53"/><path class="cls-1" d="M750,399.44l-1.12-.32C746.35,399.18,745.82,399.53,750,399.44Z"/><path class="cls-1" d="M895.47,399.12a67.24,67.24,0,0,0,8.2.1C900.4,399.2,897.14,399.08,895.47,399.12Z"/><polygon class="cls-1" points="1331.82 399.63 1328.89 399.73 1334.41 399.65 1331.82 399.63"/><path class="cls-1" d="M1919.54,2.27c1-.09.43-.28-2.35-.24l-2,.33Z"/><path class="cls-1" d="M1900.81,1.66c-3.28.16-7,.44-4.93.74,3.24-.32,4-.18,7.52-.56,2.78,0,4.86.11,4.39.23,1-.09,4.33.07,5.82-.14a121,121,0,0,0-13-.05C1899.57,1.81,1900.57,1.72,1900.81,1.66Z"/><path class="cls-1" d="M1628.66,1.15l1.75,0C1629.93,1.16,1629.33,1.15,1628.66,1.15Z"/><path class="cls-1" d="M1460,1a13.81,13.81,0,0,0,1.88-.07A11.86,11.86,0,0,0,1460,1Z"/><path class="cls-1" d="M1431.25.6l1.7,0C1432.3.6,1431.65.58,1431.25.6Z"/><path class="cls-1" d="M1628.66,1.15,1624.15,1A39.74,39.74,0,0,0,1628.66,1.15Z"/><path class="cls-1" d="M1863.28,2.45c.94,0,1.73,0,2.45-.08l-2.3,0Z"/><path class="cls-1" d="M1703,.88h1.37l1.14-.13Z"/><path class="cls-1" d="M1760,.83a6.19,6.19,0,0,0-2.24.39,20.82,20.82,0,0,1,2.82-.19C1760.64,1,1760.47.91,1760,.83Z"/><path class="cls-1" d="M1850.49,1.32l1.61,0Z"/><path class="cls-1" d="M1662.16.82a2.16,2.16,0,0,0-.52-.1S1661.84.79,1662.16.82Z"/><path class="cls-1" d="M66.59,2.92s0,0,0,0C66.25,2.9,66.15,2.92,66.59,2.92Z"/><path class="cls-1" d="M.46,1.53h.92c.1-.05.2-.11.2-.16Z"/><path class="cls-1" d="M1378.56.25h.23C1380.18.22,1379.4.23,1378.56.25Z"/><path class="cls-1" d="M894.88.45c5.48.25-8.92.32-.67.6C893.44.94,901.71.61,894.88.45Z"/><path class="cls-1" d="M1861.8,2.42h-2.34C1860.53,2.43,1861.25,2.43,1861.8,2.42Z"/><path class="cls-1" d="M894.21,1.05h0l.85,0Z"/><path class="cls-1" d="M1257.16.41c.25.05.73.09,1.24.13A6.05,6.05,0,0,0,1257.16.41Z"/><path class="cls-1" d="M1347.6.81l-2.24,0C1346.25.8,1347,.81,1347.6.81Z"/><path class="cls-1" d="M1210.2.81c-1.21,0-1.63-.06-3.29,0l.51,0A26.55,26.55,0,0,1,1210.2.81Z"/><path class="cls-1" d="M1161.33.81l.9.06,1.55,0Z"/><path class="cls-1" d="M215.13,2.78c-1.07-.08-1.74-.16-2.26-.25C213.62,2.73,206.44,2.8,215.13,2.78Z"/><path class="cls-1" d="M1863.25,2.29a6.57,6.57,0,0,1-1.45.13l1.63,0C1863.57,2.36,1863.6,2.32,1863.25,2.29Z"/><path class="cls-1" d="M1208.22,3l-7.77,0C1202.62,3,1205.44,3,1208.22,3Z"/><path class="cls-1" d="M565.77,2.74l-1.79,0C564.67,2.78,565.3,2.77,565.77,2.74Z"/><path class="cls-1" d="M1177.41,3c-1.39-.1-2.86-.16-4.38-.19-.32,0-.69,0-.9.07Z"/><path class="cls-1" d="M212.85,2.53h0Z"/><path class="cls-1" d="M161.71,3.19c7.4,0,3.47-.36,5-.57,8.83-.1,4.09.27,7.09.46,5.52-.1,9.75-.43,13.86-.42.31.06,1.11.08.17.16,5.83-.29,17.31,0,24.1-.38a6.06,6.06,0,0,1,.88.09c-1.1-.18-1.26-.37-1-.5,3.32,0,6.16-.24,7.4,0a22.49,22.49,0,0,0-3.15.17l3.48-.11c3.13.35-4.75.12-4.75.38,6.78-.11,14.68-.4,19.87-.3,1.09.34-12.14.11-5.21.41l-8-.13c6.14.54-4.88,0,.76.54,10.58.09,11.83-.18,22.38-.08,2.37-.19-.79-.28,1.59-.46,15-.34,11.8.85,22.82.4a65.52,65.52,0,0,1,11.81-.43l-2.67.38c10.23,0,5.84-.55,16.56-.29-1.9.15-8,.13-6.49.17,6.94.3,4.91-.21,10.25-.21l1.1.33c10.9,0,22.91-.29,35-.36-.66.1-2.73.21.09.31,15.23-.17,32.51,0,47.19.25l5.61-.3c1.31,0,2.42.14,1,.19,5.72.11.3-.18,3.05-.3,3.25,0,4.3.17,2.24.26,10.1-.25,28.77-.53,39.41-.22L431,2.71c8.28.12,9.35-.59,17-.32l-1.47,0c18,.13,37.86-.14,51.58.3,2.61-.42,17.8.19,19-.4,10.27.29,7.33.4,21.79.59,3.86,0,5.76-.36,10.53-.43l.12.31,6.48-.32,3.46.37L564,2.78a16.6,16.6,0,0,1-3.52-.23c7-.14,17.06.21,17.23.37l16.56-.26c-.37.13-3.14.17-5.34.25,8.84-.32,1.61.32,9.71,0-1.09-.07.58-.18.77-.24,4,.18,13.22.18,20,.11L618.1,3c12.28,0,25.89-.1,39.67-.1-4.94-.1-3.81-.46.23-.5l1.62.32c2.61-.2-4.22-.12,1.13-.36,5.15,0,3.46.37.51.47l6.26-.11c.36.1-1.1.15-1.49.27,2.57-.2,10.81.32,14.51,0l.35.09c13.78,0,20-.11,31.25-.12.22-.28,4.61-.22,8-.45,8.24.09,17.4.31,27.33.29,7-.14,2-.24,5.18-.4.52.25,10.44.23,5.29.41,11.93,0,15.23-.05,30.31-.26-1.63-.1-3.47-.15-2.52-.23a33.3,33.3,0,0,1,5.84.22l-.73,0c16.93-.38,39.07.74,52.55.21l-.75,0,14-.28c6.43.05-3.86.19.9.35,15.08-.42,23.83.06,36.24-.22,9.62.75,34.11-.05,47.09.43l-.75-.18a61.64,61.64,0,0,1,6.53.14c-.35-.14-3.64-.16-1.56-.25,28.41-.22,58.63.25,87.76.41,10.65,0,6-.91,19.47-.49l-3.81.33c21.49-.39,44,0,65-.32a32.67,32.67,0,0,1-3.34.17c4.44.24,16.44,0,16.51-.18,3.28,0,.76.17,2.78.27,4.46.14,11.19-.3,13.56-.06a15.82,15.82,0,0,1-2.07.09c2.91-.11,13.54,0,10.76-.24,7.89.13,15.1-.13,21.4,0,4.11-.31,13.52.15,14.83-.29-.57.45,13.84.36,18.84.15-1.67.14,4.34.14,2.38.33,5.7,0,10.92-.09,9.93-.32,10.5.54,21.1-.43,27,.26,16.93-.25,32.6-.41,47.83-.51-.55.44-16.84,0-16.18.51,14.44-.18,22.78-.57,37.1-.46,3.71.06-2.1.19-3.36.27,14.44-.18,27.91,0,40.75-.2,0,0-1.42.08-2.73.12,2.53,0,5.89.06,5.6-.14l-2.47.06c-4-.3,10.06-.62,10.51-.78-4.3.59,12.68.15,5.86.89,1.67,0,3.75-.14,3.37-.27,2.47,0,3.26.12.75.27,9.07-.11,5.85-.33,14.06-.32,0,.1-1.69.13-2.54.25,4.16-.19,8.34-.38,15.28-.3-.42.06.39.14-1.68.13,11.92,0,20.32-.51,33.4-.32-3.86.43,4.44.14,5.14.51l7-.11-2.82-.18c6.16,0,11.6-.26,16.9-.14l-4.58.15,11.54-.07-6.53-.14c6.23-.19-.67-.47,7.53-.37-1.67,0,6.16,0,9.37.23h0c3-.12,6.18-.25,10.74-.15,1.18.11-.95.41-.18.49,3-.31,14.42-.09,18.23-.42-1.27.08-1.34.27-.92.31l2.53-.25c2.85.08,3.27.12,2.8.27,8.59.05-2.72-.47,7.46-.26-.8,0-.41,0-2.08.09,10.23.11,19.77-.16,29.17,0,2.77.37-8.21.09-5,.4,13.56-.06,28.07-.44,41.19-.36l-2.45,0c1.82-.52,9.77.26,16.4,0-1.62,0-2.12.3-1.69.24,9,.08,18.37-.13,32-.3l-1.68.14c5.29.12,13.94.07,19.66.13,1.69-.14,5-.11,3-.31,17.63.77,33.63-.41,49.28.23-1.87,0-4.46.12-3,.12l13.32-.13a36.86,36.86,0,0,0-4.54-.32c1.68-.13,5.44-.24,8.75-.24-6,.16,0,.37,2.64.5-.44-.07.45-.15.23-.22,7,.41,1.17-.46,10.67-.19l-.5.12c3.55-.06,6.83-.22,10.67-.18,1.59.26-3.79.12-4,.34,5.39,0,10.63-.5,15.5-.24-2.28.08-5.57.08-7.86.15,5.31.31,5.92.23,9.87.28h-.39l9.12.14-2.32-.09c6.74-.69,13.73-.12,22.81-.58-8.83.43-1.46.25-2.14.55,2.32.08,5.85.18,4.85.26,4.29-.24,7.16.19,13.22-.16.27.1,4.59,0,3.62.25,5.58-.07-1.32-.17-.85-.29,8.6-.33,20.22.4,32.6,0,10.67-.19,12.64-.51,22.54-.68,3.34.16-2.73.36-2.73.36,5.39.14,9.44.11,14.52,0-1,.09,0,.16,1.58.27,4.08,0,2.73-.36,8.11-.21-.92.1-2.11.28-4.07.39,4.8-.09,9.55-.27,14.52-.36,1.32.17-3,.25-4.76.36,5.59-.07,14.49-.15,16.21-.42l-3.58-.09c2,0,1.05.23-.46.28a32,32,0,0,1-7.18-.19l3.55-.06c-3.64-.57-14.23.09-21.36.05l3-.41-7.31.34c-1.56-.1-2.62-.34.9-.4-5.11-.2-4.53.15-8.92-.08-.48,0-.27,0,.18-.07l-5,.12c1-.08-.83-.29,2.24-.23-9-.24-14.46.31-17.84,0l.75,0c-12.44.14-1.2.31-10.53.66l-6.28-.75-1.22.31c-1.29,0-3.82,0-3.35-.16-4.78.21.81.13-2,.33-6.18-.28-17,.13-18.43-.35-2.21.23,5.91.17-.68.33-1.88-.52-7.63.09-13.27-.15,1.74-.26,7.08-.12,1.43-.36-3.4.45-11-.1-15.74,0-.23.36-10.35.15-18.34.27.51-.12-15-.2-22.46-.33l.22-.06c-1.44.36-9.1.29-14.68.37.22-.22,1.22-.3,4.25-.4h-5.25c-1.24.12-2.87.18-6.28.22l1.32-.27c-7,0-14.06.32-23,.14-.51.25,7.14.7-2.36.87-.35-.13-.7-.37,1.79-.43-.82,0-2.91.12-4.55.06l3.8-.23c-4.09-.1-2.14.19-5.41.17.06-.2-2.42-.14-2-.29.84,0,2.86.08,4.11,0-3.69,0-8.15-.15-9.62-.3.32.11,0,.26-2.7.29-7,0-2.39-.24-6.46-.34-1.69.14-6.15,0-6.27.29a19.17,19.17,0,0,1-3.21-.22c-3.61.13-16.87,0-12.8.35l.92,0-.59,0h0c-11.84.29-24.6-.17-36.35-.05l0-.09c-7,.11-15.62.06-20.63.27-2.07,0-4.89-.18-4-.29-5.36.07-6,.18-13.71,0,5.4-.17-1.86-.15,5.53-.13-7-.08-8.55-.24-16,0,2.55-.25-5.24-.32-8.56-.24l4.89.18c-3.73,0-7,0-10.29,0l1.79-.33c-14.26-.4-25.72.69-36.57,0-3.77.23,7.74.17,4.37.44-6.56-.05-13.39-.52-15.45-.52-9-.19-8.38.48-17.78.35,1.2.12,2.34.44-4.69.55-6.57,0-8.07-.5-3.92-.59a12,12,0,0,1,2.26.07c2.12-.05,4.91-.1,2.31-.23l-.85.12c-3.26-.12-12.29-.11-10.17-.3-5,.11-2.12.19,1.55.26-8.42-.18-13.15,0-21.81-.12,1.37.06,2.64.2,1.27.2-12.71-.15-5.6.22-14.21.27-4.89-.18,1.76-.43-6.91-.28-5.3-.12-1.12-.31,1-.4-7.9.22-14.76-.15-19.27-.19l4.16-.1c-2.49.06-4.52,0-6.6,0l2.38.24a40,40,0,0,1-4.47-.14c-2.52.15,1.93.39-3.07.6-3.25-.12-9.91.13-11-.18,10.24.11-1.13-.32,7.54-.37-1.67,0-3.71,0-6.16,0-.37,0,.34-.07,1-.08-9.8-.28-4.5.35-14.66.34,1.29-.17-2.36-.33-4-.29,4.09,0,2,.29-1.8.42-6.51-.13-7.08.11-10.49.09l3.89.07c-1.32.17-4.57.15-9.11.2-.39-.13,4.12-.09,2.5-.15-5,.31-11.39-.32-18.42-.11-3.25-.12-.31-.33-3.17-.42-7.88.23-8.53-.24-16.81-.05,2.38.24,2.8.18-3,.41L1317.06.6l-8.74.34c4.11,0,8.67-.15,11.13-.11-4.16.19-3.73.14-1.76.33-5.62-.35-11.15.21-17.65,0l.2-.59c-9.77-.26-17.35.3-30,.16l4.08.1c-1.7.23-7.83,0-11.94.13.38-.2-2.19-.27-3.94-.39.21.14-9.29,0-10.44.37L1242.3.66c-10.24-.11-11.69.55-21.54.49,3-.22-1.51-.35,5.09-.51a62.28,62.28,0,0,0-6.3.1c-1.92-.12-9.11.27-12.13.08a41.63,41.63,0,0,1-5.53.27c-.41,0,0-.09,0-.09s-5.78.13-2.55.35c-10.13-.62-28.3,0-37.12-.48-7.18.06-15.82.12-22.33.14a3.09,3.09,0,0,1,1.25-.08c-9-.18-5.52.56-15.75.36-5.22-.32,5.43-.17,2.18-.29-1.42-.65-12.34.09-19.22-.29l1.66,0c-5.25-.22-12.83.25-21.42.2,0,0,.42-.06.05-.1-5.87.33-17,.44-25.26.53,2.57-.25,3.75-.13,2.18-.39-3.7,0,1.09.41-6.31.49-2.4-.14-7.74-.26-8.45-.54h7c-3.57-.36-9,0-12.71,0l.47-.16c-10.69,0-10.84.45-22.33.42l1.19.11c-6.28.39-5.26-.21-11.53.07L1011,.85c-4.15.1-14.52.38-22,.46,4.21-.3,12.91-.44,18.29-.62-4.11,0-14,0-16.1.23,1.65,0,3.74-.14,5.37-.08-5,.31-11.66.46-19.85.45,1.45-.76-21.33-.19-27.27-.78C935,.79,920.76.39,903.89.44c6,.59-4.92,0-3.89.62-3.93,0-5.42,0-5.78,0L882.32.69c-2.82-.18,3.73-.13,3.37-.27-8.6,0-3.61-.26-9.3-.42,1.17.22-3,.31-7.89.23l6.9.28C863.38.83,865,0,852.89.32l3.84-.19c-6.22.11-22.94,0-29,.48-1.1-.07-2.55-.23.19-.28C813,.26,794.8.85,783.25.55L784.38.4c-2.78,0-4.83.28-8.3.13.18-.06,1.12-.15-.17-.16-1.47.06-7.36.26-11,.18L768,.38c-14.49-.19-22.24.41-34.4.51,0-.44-11.37-.58-17.06-.65l.2-.06c-16.88-.06-28.67.36-44.31.53C662.74.24,639.58.51,624,.25c2.38.08-.39.34-3.16.38-3.66-.09-10.12.3-9.54-.1h1.31c-2.76-.39-10.28-.29-16.15-.3l-1,.53c-15.36-.77-40.25.28-48.63-.41-3.7.13-8.3.13-12,.26l.2-.28C524.81.27,519.68.24,507,.3l2.59-.2c-7.16,0-9,.81-15.65.83l-2-.42c-12.5,0-25.14-.36-37.48,0a9.14,9.14,0,0,1,2.59-.2c-5.88,0-22.74-.29-20.61.29-.14-.37-12.89,0-19.63.13l1.05-.28C412.17.83,412,.92,404,1c-1.88,0-1.65-.22.85-.15-6.28-.15-4.89.26-12.5.11l2.83-.17a90.58,90.58,0,0,0-9.5.28A129.78,129.78,0,0,1,372.51.77a65.42,65.42,0,0,1-8.21.28c-.52-.09.87-.15,1.57-.18-10.81-.19-16.07.32-23.5.05a4,4,0,0,0-1.25-.17c8.58,0,15.49,0,14.85.05,0-.26-6.94-.3-1.42-.66-5.57.2-15.08.61-21.84.49-.33,0-.65,0-.89-.08l.7,0c-1.56,0-3,0-4.27,0-2.16,0-3.53-.07-5.6-.08-.8-.21-7.95-.11-11.4-.12.28.28-4.24.23,0,.46a28.38,28.38,0,0,1,2.95,0c.52,0,1.13,0,1.47,0l-.24,0,8.6,0a90.85,90.85,0,0,1-9.41.11c-1.77.18-3.73.37-4.83.45C305.06.92,296,.71,294.68.47c-10.56.16-24.86.1-31.5.63a25.94,25.94,0,0,1-4.57-.23c1.73-.06,3.79-.05,4.73-.12-6,.13-17.78.05-19.21.42C236.57,1,248.38.83,238,.89l1.4-.11C219,.19,206.16,1.71,183.5,1c1.57.05,2.35.07,2.67.13-25.84-.33-53.24.31-78.74-.22-7.25-.1-8,.13-12.45.31L93.41.88l-7.57.35C75.12,1.48,67.27.49,53.7,1l1.75.2c-4.88,0-15.44.12-14.63-.11a20.81,20.81,0,0,1-3.51.1L37.17,1l-12,.26C15.9,1.16,26.64.65,13.09.62c-5,.06-14.34.46-12.45.56A37.1,37.1,0,0,1,6,1.44l-4.61.08C.55,2-3,2.46,8.31,2.78l7.88-.28,2.54.22H12.1a70.87,70.87,0,0,0,8.81-.1,25.15,25.15,0,0,0,3.31.25L32,2.44c.94.18-3.47.35,1.72.45,3.63-.2-3.47-.4,2.53-.54a40.89,40.89,0,0,0,7.09.21c.62.12-.31.19-2.07.24,3.94-.14,10.42-.06,12.46-.3,3.93.26,13.29-.07,12.91.37,1.23-.11,6.93-.35,10.55-.36-6.61.52,13.54,0,11.79.59,4.89-.47,17.67-.21,26.33-.47-.48,0-1.43.11-2.2.09,4.88,0,6.3.18,9.43.27.63-.39,8.22-.48,12.31-.72,6,.37-3.63.46-1.75.82-.3-.32,10.38-.32,8.35-.58a51.6,51.6,0,0,1,6.3.43c.8-.48,4.25-.08,8-.38,6.62.24,1.71.46,9,.31C168.17,3,161.71,3.19,161.71,3.19Zm172.82-.84H331Zm14.52,0c-1.77,0-4,0-6.3,0-.51-.1,0-.2,1.5-.19C343.46,2.21,346.88,2.26,349.05,2.35ZM318.33.41a23.43,23.43,0,0,1,3.38.07l-4,0-.27,0A6.33,6.33,0,0,1,318.33.41Z"/><path class="cls-1" d="M314.2.78l-.95,0,1.37.06.81-.09Z"/><path class="cls-1" d="M1630.72,1.19h-.31c.26,0,.49,0,.64,0Z"/><polygon class="cls-1" points="549.59 2.88 549.57 2.81 548.3 2.87 549.59 2.88"/><path class="cls-1" d="M1710.71,2.15c.15,0,.45.05,1,.07C1711.71,2.2,1711.26,2.18,1710.71,2.15Z"/><path class="cls-1" d="M1745.26,2.21l4.89.1Z"/><path class="cls-1" d="M1771.82,2.35a2.13,2.13,0,0,0,.52-.12h0Z"/><path class="cls-1" d="M1349.43,2.68h-1C1346,2.75,1347.64,2.72,1349.43,2.68Z"/><path class="cls-1" d="M1475.13,2c-1.33.05-2.65.1-4,.13A18.31,18.31,0,0,0,1475.13,2Z"/><path class="cls-1" d="M1209.07,3h0Z"/><path class="cls-1" d="M1465.25,2.15c2.23.06,4.1.05,5.84,0C1469.26,2.14,1467.09,2.11,1465.25,2.15Z"/><path class="cls-1" d="M1887,2.48h1.28s0,0,.15-.05Z"/><path class="cls-1" d="M1888.4,2.44l1.42,0C1889.17,2.41,1888.6,2.41,1888.4,2.44Z"/><path class="cls-1" d="M1892.81,2.34l-3,.07C1890.86,2.41,1892.13,2.42,1892.81,2.34Z"/><path class="cls-1" d="M1851.8,2.35l-.4.1A.75.75,0,0,0,1851.8,2.35Z"/><path class="cls-1" d="M1841.11,2.38c2.55,0,6.4.21,10,.15l.34-.08C1849.72,2.6,1843.53,2.21,1841.11,2.38Z"/><path class="cls-1" d="M1796.5,1.13l9,.08c-1.57-.11-3.63-.26.45-.28C1794.62.61,1808.24,1.17,1796.5,1.13Z"/><path class="cls-1" d="M1768.74,1c4.81,0-.06-.16.19-.22C1765.88.85,1765.14.88,1768.74,1Z"/><path class="cls-1" d="M1568.07,1l.48-.26C1564.84.75,1568.51.81,1568.07,1Z"/><polygon class="cls-1" points="1529.71 2.28 1533.32 2.44 1535.03 2.21 1529.71 2.28"/><polygon class="cls-1" points="1507.05 0.47 1508.66 0.44 1502.48 0.53 1507.05 0.47"/><path class="cls-1" d="M1170,.56l1.12.32C1173.65.82,1174.18.47,1170,.56Z"/><path class="cls-1" d="M1024.53.88a67.24,67.24,0,0,0-8.2-.1C1019.6.8,1022.86.92,1024.53.88Z"/><polygon class="cls-1" points="588.18 0.37 591.11 0.27 585.59 0.35 588.18 0.37"/></g></g></svg>