<svg xmlns="http://www.w3.org/2000/svg" viewBox="0 0 70 150"><defs><style>.cls-1{fill:#474747;}</style></defs><g id="Layer_2" data-name="Layer 2"><g id="Layer_1-2" data-name="Layer 1"><path class="cls-1" d="M3.18,148.71c-.66,0-.43.35-.52.42C3.76,149,3.15,148.61,3.18,148.71Z"/><polygon class="cls-1" points="14.04 147.85 13.85 148.01 15.45 147.63 14.04 147.85"/><path class="cls-1" d="M24.19,147.86c-1-.65-3.68.1-5.49-.13l-.29-.14-.82.52A59.1,59.1,0,0,1,24.19,147.86Z"/><path class="cls-1" d="M29.61,149.26c-.33-.26,1.17-.22-1.26-.08a1.84,1.84,0,0,1,.23.06C28.79,149.24,29.1,149.24,29.61,149.26Z"/><path class="cls-1" d="M28.58,149.24c-1.07,0,.7.21,0,0Z"/><path class="cls-1" d="M33.52,149.1l-1.41.22c.29.15,1.54.18,1.08.29C34.63,149.49,34.34,149.34,33.52,149.1Z"/><path class="cls-1" d="M34.85,148.63l-.73.09C34.25,148.78,34.44,148.8,34.85,148.63Z"/><path class="cls-1" d="M32.57,148.92l1.55-.2c-.2-.1-.22-.31-.71.07C33.54,148.6,33.23,148.78,32.57,148.92Z"/><path class="cls-1" d="M31.7,148.82c-.79-.14-1.82-.23-.4-.45C28.6,148.46,29,148.91,31.7,148.82Z"/><path class="cls-1" d="M24.71,147.19,23.66,147l-.92.22C23.2,147.11,24.78,147.39,24.71,147.19Z"/><path class="cls-1" d="M42.29,149.43c.09-.14-.47-.37-.58-.54l-1,.16C41.21,149.14,42.22,149.23,42.29,149.43Z"/><path class="cls-1" d="M41.71,148.89l1.56-.24C41.88,148.63,41.63,148.74,41.71,148.89Z"/><polygon class="cls-1" points="35.1 147.91 32.54 148.4 35.59 147.9 35.1 147.91"/><polygon class="cls-1" points="48.24 149.45 47.36 149.77 48.93 149.28 48.24 149.45"/><path class="cls-1" d="M52.18,149.39c-.65.27.9.45.21.61a13.55,13.55,0,0,0,2.81-.48A9.35,9.35,0,0,1,52.18,149.39Z"/><path class="cls-1" d="M56.58,149.23a13.68,13.68,0,0,0-1.38.29A7.54,7.54,0,0,0,56.58,149.23Z"/><path class="cls-1" d="M45.92,148.72a2.17,2.17,0,0,0,1.23.39l-.61-.38Z"/><path class="cls-1" d="M46.51,148.71l0,0,1.32,0Z"/><path class="cls-1" d="M45.77,148.72h.15C45.86,148.68,45.83,148.67,45.77,148.72Z"/><path class="cls-1" d="M39.18,148.26c.92-.22,2.83-.45,1-.78C39.5,147.75,40.56,147.93,39.18,148.26Z"/><path class="cls-1" d="M45,148.24l-1.66-.09c0,.1.33.25-.12.36Z"/><polygon class="cls-1" points="45.82 148.11 45.01 148.24 45.62 148.27 45.82 148.11"/><path class="cls-1" d="M53.75,148.87a11.58,11.58,0,0,1,2.38-.21c-1-.08-1.93-.12-2.86-.12C53.14,148.66,52.74,148.88,53.75,148.87Z"/><path class="cls-1" d="M50.23,148.76l.16,0C50.29,148.7,50.22,148.69,50.23,148.76Z"/><path class="cls-1" d="M66,148.66l-.26-.07a.64.64,0,0,0,0,.07Z"/><path class="cls-1" d="M53.12,148.47a3.53,3.53,0,0,0-1.55.14c.54,0,1.1-.07,1.7-.07C53.33,148.49,53.34,148.45,53.12,148.47Z"/><path class="cls-1" d="M59,149.05c-.37-.08-.79-.15-1.23-.22A2.76,2.76,0,0,0,59,149.05Z"/><path class="cls-1" d="M50.63,148.84l-.1,0C50.76,148.94,50.73,148.9,50.63,148.84Z"/><path class="cls-1" d="M50.63,148.84a6.16,6.16,0,0,0,.94-.23c-.43,0-.83.07-1.18.13A.75.75,0,0,1,50.63,148.84Z"/><path class="cls-1" d="M66.32,145.55a2.21,2.21,0,0,1,.39,1,7.19,7.19,0,0,1-2.88-.05c-.73.14-.93.5-.61.91a5.28,5.28,0,0,0,2.56,1.2c0-.16,0-.3,2.17-.51-.52-.1-1.9-.22-2.86-.35s-1.48-.27-.69-.44a8.9,8.9,0,0,1,3.43.26,1.64,1.64,0,0,0,.07-.25c-.25.31-.43-.67-.64-1.56s-.44-1.72-.8-1.6l.25,1.81C66.6,145.88,66.42,145.18,66.32,145.55Z"/><path class="cls-1" d="M61.56,148.55l-.67,0a7.25,7.25,0,0,1,1.07.16l.58.14.34.08.62.1c1.92-.17,2.19-.31,2.26-.42l-4.43,0Z"/><path class="cls-1" d="M57.87,148.6c.53-.39,2.14-.56,1.15-1-2,0-1.38.33-2.56.5,3.19-.1-.91.21,1.39.43-.63.07-1.19.09-1.72.11.57,0,1.12.1,1.65.17l-.08,0h0c-.14,0-.18-.07,0-.05h.07c0-.06.08-.1.14-.15.93.08.15.1-.14.15,0,0,0,0,0,.05h0l3.19-.21A26.49,26.49,0,0,0,57.87,148.6Z"/><path class="cls-1" d="M41.86,146.64c.1,0,.1.06.1.09C42.17,146.69,42.25,146.65,41.86,146.64Z"/><path class="cls-1" d="M43.17,146.88a2.59,2.59,0,0,1-1.17.17c-.66-.12,0-.19,0-.32-.45.11-1.59.28-.16.47l.22,0a7.84,7.84,0,0,1,2.72.67A4.3,4.3,0,0,0,43.17,146.88Z"/><path class="cls-1" d="M50.62,147.64l2.65-.19-1.35-.34.07.2C50.48,147.23,50.8,147.48,50.62,147.64Z"/><path class="cls-1" d="M66.66,148.85a4.59,4.59,0,0,1-.36.41c.81-.19,1.53-.38,2.17-.58Z"/><polygon class="cls-1" points="69.21 145.96 69.61 146.34 69.37 144.82 69.21 145.96"/><path class="cls-1" d="M28.76,4.68l-.78.1A5.63,5.63,0,0,0,28.76,4.68Z"/><path class="cls-1" d="M34.41,4.71l.14-.18C34.29,4.63,34.18,4.7,34.41,4.71Z"/><path class="cls-1" d="M69.17,67.92c.37-1,.94-2.19.49-2.06l-.43.32A5.63,5.63,0,0,1,69.17,67.92Z"/><path class="cls-1" d="M66.58,15.27l-.13.3.42.7Z"/><path class="cls-1" d="M64.79,14.54l.28-1.36A8.67,8.67,0,0,0,64.79,14.54Z"/><path class="cls-1" d="M5.48,6.85l.44.83C5.92,6.38,5.7,7,5.48,6.85Z"/><path class="cls-1" d="M69.05,112.73a13.82,13.82,0,0,0,.26-2.21C69.06,111.59,68.69,112.45,69.05,112.73Z"/><path class="cls-1" d="M31,.52c-.48.07-.69.15-.67.24C30.81.69,31.09.61,31,.52Z"/><path class="cls-1" d="M69.31,108c0,.15-.06.31-.1.47a13.75,13.75,0,0,1,.1,2.1A4.58,4.58,0,0,0,69.31,108Z"/><path class="cls-1" d="M5.13,108.34a1.28,1.28,0,0,1-.06.23C5.13,108.6,5.14,108.49,5.13,108.34Z"/><path class="cls-1" d="M.76,137.91c0-.29,0-.76,0-1.21A6,6,0,0,0,.76,137.91Z"/><path class="cls-1" d="M69.4,132.2c0,.66,0,.1,0,0Z"/><path class="cls-1" d="M67.69,135.43c0-.14-.11-.25-.21-.27A.48.48,0,0,1,67.69,135.43Z"/><path class="cls-1" d="M66.62,101.33v0C66.53,101.47,66.55,101.44,66.62,101.33Z"/><path class="cls-1" d="M69.2,133.2a6.36,6.36,0,0,0,.13-.85C69.3,132.49,69.26,132.74,69.2,133.2Z"/><path class="cls-1" d="M69.41,133.06c0,.23,0,.41,0,.58S69.48,133.65,69.41,133.06Z"/><path class="cls-1" d="M69.38,131.27c0,.38,0,.74,0,1.08,0-.13.06-.19.07-.15C69.4,132,69.39,131.73,69.38,131.27Z"/><path class="cls-1" d="M4,54a.83.83,0,0,0,0,.15C4.11,54.77,4.08,54.48,4,54Z"/><path class="cls-1" d="M64.67,50.64a.25.25,0,0,1,0,.07l0-.09Z"/><path class="cls-1" d="M64.35,48.25a3.24,3.24,0,0,1,.36,2.37L66,49.83Z"/><path class="cls-1" d="M15.23,4.8l1.85.35c-2.23.58-3.85.38-2.11.87.26-1.22,7.18-.12,7.43-1.35l1.22.26c-.35,0-.4.06-.75.05,2.37.59,1.76-.89,4.81-.72,1.07.1,1.81.28,1.08.42l2.37-.3c.69,0,.52.24-.16.21l3.61-.1,0,0c.52-.19,1.69-.49,2.26-.62.92.18-.46.13-.23.29l2-.3c.82.32-.84.63-2.22.58,1.87,1.23,1.66-.31,5.69.41L40.16,5c1.22.7,2.69.45,4.83.88-.51-.22-4.28-1.09-2.11-1.4a7,7,0,0,0,2.59-.11c0,.44,1.16.33,2.59.31l-.1.57a6.87,6.87,0,0,0,2.34-.72,3,3,0,0,1,2.49.89c2.76.09-1.91-.72,1.36-.83a27.74,27.74,0,0,0,6.66-.36c1.6.2-.29.35.29.52l1.43-.47c.35,0,.23.16.18.23.71-.18,0-.58,1.3-.74.28-.28.8-.13,1.2.06-.13.48-.29,1-.35,1.32a1.85,1.85,0,0,0,0,.52c0,.16.09.29.2.65-.18.52-.39-.25-.64-.09a28.75,28.75,0,0,0,1.09,4.88l-.42,2c.48-1.49,1.05.42,1.51,2.09.23-.53.44-1,.53-1.29l.35,2.67c-.11.32-.33.05-.59-.38,0,.18.1.35.15.48-.24,1-.61.46-1-.22.13-.32.26-.65.39-1-.39-.66-.82-1.28-1.19-1.14a3.4,3.4,0,0,1,.17.88c-.1-.18-.2-.29-.26-.21s.07.37.24.81l-.71.6.28.15-.45,3.49c.72,2.5,1.77,4.67,2.07,8.63-.52-1-.85-.21-1.47-.26.65-1.08-.28-3.07-.15-5.12-.07,1.07-.36.83-.46.56l.59,3.66c-.5-.08-.38.78-.59,1.74,1-.73.67,2.73,1,4.22-.33.09-.67-.26-.59-2.08-.75,2,1.17,2.59.53,4.56,0-.45,0-.68-.13-.86.3,1,.07,3.57-.23,3v-.45c-.12,3,0,9,.84,9.42a3.69,3.69,0,0,1-1.2-.57l2.86,5.26c-.73-.46-2.47,1.32-2.88-1.13a8.61,8.61,0,0,0,0,3c.1-.47,1-1.19,1.12-.53a17.13,17.13,0,0,0-1.13,3.46c.16-.72,1.3.08,1.26,1.21-.17-.18-1.13.1-1.24-.32l1.12,2.82c-.2-.7-1-.12-1.27.51.22-.29,0,2.44.09,3.19l.26-1.19c-.17,3.19,1.58,3.15,1.52,6.31-.23-.38-1.43-1-1.57.66.58.74,2.77,3.27,3.21,6.06l-.33.54.37,2.15a47.27,47.27,0,0,1-3.39-7.14c-.26,1.19-.39.33-.36,2.12-.3.63-.46-1-.48-1.5l-.2,4.16c.67-.19.67,3.18,1.23,3l-.69-4.52c.67-.18,1.9,2.62,1.78,5.56-.26.75-1.19-.56-1.42-.5a8,8,0,0,1,.28,3.07l-.36-1.25c-.25,1.64.89,2.68.25,4.65,0,.68-.86,2-.46,2.15.76-1.11,3.13-1.33,3.7-.59a35.28,35.28,0,0,1-1.11,4.35c-.6,1.12-1.43-1.68-1.94-.73.18,0,.41.66.48.92-.16.72-.57-.29-.49,1.26.68.26,0,3.16.58.73.19,1.52-.14,1.62-.11,3.4.44-.57,1.49,1.6,1.69,3.13-.17-.09-.4.25-.5.41-.06,3.12-.37,4.79-.38,7.69-.16.27-.36,1.67-.65,1.07a4.72,4.72,0,0,1,.36,1.7c-.59,1.73-.09-2-.8-.68.4.12.55,2.32.8,3.6.61-.4.11-2.95-.13-4.23.84,0,1.72,2.22,2.11,5.25.21,2.42-.54,1-.42,1.47-.15,4.53,1.47,3.86.86,7.62-.54,1.49-1.07.07-1.46.4-.2-2,.34-3,.32-4.35L67,122.51a7.08,7.08,0,0,1-.16-2.65c-.48,1.25-.09,7.65-.54,11.15.18.62.37,1.69.59,1.18l-.08-1.1c.43-1,.6,2.08.8.68a15.41,15.41,0,0,1,.54,5.23l-.61.4a3.15,3.15,0,0,0,.17-2c.28.88-.82,3.21,0,4.16l.42-1.46c.15.74.39,1.57.57,2.45a11.86,11.86,0,0,1,.2,1.35c0,.23,0,.45,0,.69V143l0,.52a4,4,0,0,0,.18-.41l.08-.2a.8.8,0,0,0,0-.26,1.88,1.88,0,0,1,.35-1c-.88,1.14,0-4.74-.88-2.91.82-1.35.34-2.33,1-4.1-.2.06-.38.63-.28-.93a1.36,1.36,0,0,1-.18-.34v-.1l0,.08c0-.06,0-.07,0,0a2,2,0,0,1-.31.79c-.46-.77-.44-3.24-.68-4.08.09-.92.23.39.44-.12l-.36-1.25c.45-.12.75-2.45,1-.27l0-2a10.7,10.7,0,0,0,.16-3.71c.1-.92-.49-2.33-.14-1.52L69,118.13l.11,0c.06-3-.74-6.23.07-9.68a18,18,0,0,1-.12-3.78l.38-.33c-.13-1.31.39-3.93,0-4.49,1-1.41.22-6.35.41-8.64l-.51-.09A41.69,41.69,0,0,0,69.05,86l-.45.12c-.37-1.69.32-4.35.27-7,.17.18.13.86,0,1.34,1-3.2-.73-6.75,0-9.66a3.79,3.79,0,0,1,0-1.75.9.9,0,0,0,0,.18v-.3c.08-.32.17-.65.24-1a4.74,4.74,0,0,0-.24.84,21.23,21.23,0,0,0-.18-2.23l.48-.35V66c.17-.81-.23-.65-.59-.22a7.06,7.06,0,0,0-.29-1.09c.77-.66-.26-2.18.56-3.08-.4-.56-.3-4.17-1.15-4.61.11,0,.17-.28.17.17a7.08,7.08,0,0,0,0-2.68l.61-.39-.82-2c.37-1.23.58-1.73,1-.52-.72-2.94-.27-2.38-1-4.88l.39.12c0-.9-.54-2.33-.22-2.86.75-2,.11-9.9.8-15-1.16,1,.53-2.39-.38-2.59.28-.3.43-1,.67-.19-.27-2.62.44-3.93-.32-5.74.28-.3.4.56.57.29-.06-.21-.24-.83-.08-1.1s.23.38.35.8c0-2.68-.89-2.95-1.69-3.15a3.41,3.41,0,0,0-.2-3c.26-.47.54-1.26.63.4,0-.93.38-5.71-.26-5.81a3.37,3.37,0,0,0,0-1.55C68,6,68,5.37,68,4.71s0-1.53,0-2.9l-.1.84a1.07,1.07,0,0,1-.4-.87c-.84,0-1.71-.17-3.23-.12l.09-.07-1.62-.14c-.35,0-.62,0-.83,0a5.07,5.07,0,0,0-.88,0,10.83,10.83,0,0,1-3-.19l.22.43c-.38.93-3.67-.55-6.08-.19l.87.25c-1.31.31-3.67-1.27-5-1.39-.29-.08.45-.13.85-.19-3.45-.55-.44.57-3,.7-.47-.31.61-.78-1.12-.84-.86-.24-5,1-7.39.41.52.24,1,.47-.16.65-1.83.08-4.95-.89-6.61-.15-.23-.06-.32-.12-.33-.18-1.4.19-4.56.32-5.4.72-1.29-1.5-8.71.73-8.68-.65L11.93.9,12,.76a11.1,11.1,0,0,0-4.7.57c-.63-.09-.17-.22-.12-.29L6.38,1l-1,0L3.58.89C2.52.87,1.68.88.9.94A39.66,39.66,0,0,0,1.52,5.3a5.51,5.51,0,0,0-.5.38A4.42,4.42,0,0,1,1,7C1,7.6.9,8.35.82,9.18a22.17,22.17,0,0,0,0,5.46c-.06,0-.16-.11-.23-.39.58,4-1.37,9.64.43,11.12L1.48,28c.14-3.43.78.52,1.08-.9.1,1.35-.55,3.5-.64,1.84L2,28.7c-.94-.61-.33,4.27-1,4.18.05,6.76-.47,13.36-.51,19.7l.73-.73-.05,2.21c-.17.58-.57.78-.54-.8A3.57,3.57,0,0,0,1.18,56C.88,59,.33,54.74.31,55.69L.36,57l.09-.29a6.39,6.39,0,0,1,.58,3c-.15,1.2-.45.61-.48,1.08-.05,0-.08.16,0,.73L.47,64.31,1,63.2c.29,1.24,0,2.62.63,1.33-1,1.89-.37,10.4-.68,11.55a20.94,20.94,0,0,1,.36,5.55c.12-.52.77-.84.69,1C.71,82,1.46,86,.5,87.43c.64-1.32.16,5.19,1.06,3.12-.1,1.52-.5.09-.81,1.25.52,3.62-.34,8-.16,12.45.17.07.44-.68.7.28L.41,106.9c.09.88,1,.81.41,2.43.15-.23.37-.57.42,0-.85,8.77.7,17.92-.9,26.83.34-1.21.37-.4.38.52.09-.6.44,0,.68-.11l-.66,3.73c.66.68,0,4,.67,4.39l-.11-1.18c.74,1.57,1.65-2.2,2.61-2-.85-1.76,1.25-4.63,0-7.52.2-.64.31.54.53.2A5.14,5.14,0,0,1,4.17,131l.1.19c-.1-4.6.3-6.57.57-11.74l-.47.39A7.09,7.09,0,0,1,4.7,118c-.72-1.27,0,3.12-.83,2,1-1.47,0-7.83,1.11-8.82,0-1.71-.55.5-.54-1.21l.29-.45L4.35,109c.06-1.12.43-1.69.68-1.73a6.54,6.54,0,0,0,.1,1.06c.34-1.45-.12-4.09,0-4.59l-.18,1.64c-.28-4.66.11-10.35-.49-14.85l-.23.34c-.41-3.43.25-2.75.06-6.52l0,.13A9.76,9.76,0,0,1,4,81.7c.26,1,.51-1.8.8-.55-.44-3.73-.35-1.84-1.18-4.3L4,76.28a5.72,5.72,0,0,1-.6-2.8c.31,1.55.56-1.2,1,.53.81-4-.82-5.87.37-7.69-1-1.81-.57,3.43-.79,2.41-.34.85-.77-1.5-.66-2.74s1.31-2.15,1.29-5.33c0,.32.07.34.06.65.27-1.18-.35-2.33.07-3.79-.61-.81,0-1.89-.75-2.13l.18,2.92C4,56.66,3,55.11,3.48,52.38A6.61,6.61,0,0,1,4,54c.23-.79-.16-1.53.08-2.36.79.24.17,3.55.78,5.32.33-.86-.58-3.35.28-2.46-1.09-1.28.14-3.13-.69-5.29l.47.15a7,7,0,0,1-.29-1.68l.62,1.14c-.53-1.75.46-3.36.17-5,0,3.5-.57.78-.92,2.26-.63-4.32,1.24-2.48,1-7.31.06.65-.29,2.45-.51,1.43a11.6,11.6,0,0,1,.53-2.7c-.1-3.2-.49.49-.78-.87.58-1.09-.23-1.57-.42-3h.48c.31-3.65-1-1-.63-4.25l.67,1.39L4.66,29l.55.36a10.82,10.82,0,0,1-.15-4.27c-.34.42-.88-.24-.89-1.86.29-1.1.46.62.39-1.67a2,2,0,0,1,.23,2.08c.16.1.31.51.46.62a14.58,14.58,0,0,0,.07-3.82,4.24,4.24,0,0,1-.11.9L4.54,18c.18-.52.33-.11.47.3,0-.67-.27-1.14-.31-2.13.39.26.79.2,1,1.6l-.44-3.16c.17-.22.47-1.63.61-1.22.23-1.75-.76-4.3-.45-6.63a.83.83,0,0,1-.11-.29l0-.24a1.52,1.52,0,0,0,0-.25,5.66,5.66,0,0,1,.26-.92,1.36,1.36,0,0,0,1-.21s0,.06.08.08L6.74,5l.4.16L8,5.5c2.24-.14-2.19-.8,1.53-1,2.64-.2,1,.54,1.91.72a13.29,13.29,0,0,1,6-.46C16.61,4.84,16,4.75,15.23,4.8Zm27.6-.29c-.53.1-1.6.38-2,.12C41.45,4.13,41.92,4.37,42.83,4.51ZM65.66,19a2.51,2.51,0,0,1,.1-1.55A5.28,5.28,0,0,1,65.66,19Zm3.35,106,0,0C69.17,123.79,69.1,124.17,69,124.92Zm-.21,2.25c.07.22.13.21.2.11a2.54,2.54,0,0,1-.09-1.23C68.78,126.21,68.69,126.5,68.8,127.17ZM.73,61.05l.12-.43C1,61.6.87,61.33.73,61.05Z"/><path class="cls-1" d="M65,14.64a.42.42,0,0,1,.26-.21C65.18,14.24,65.09,14.24,65,14.64Z"/><path class="cls-1" d="M5.4,6.7v.07s0,.07.08.08Z"/><path class="cls-1" d="M64.72,92.38a2.88,2.88,0,0,1,.25-.9C64.85,91.46,64.75,91.67,64.72,92.38Z"/><path class="cls-1" d="M69.62,139.07l-.13-1.44a3.66,3.66,0,0,1-.16,1.3C69.45,138.9,69.61,138.62,69.62,139.07Z"/><path class="cls-1" d="M61.11,146.47c-.23.05-.49,0-.72.06l.07.2C61.44,146.72,62.13,146.56,61.11,146.47Z"/><path class="cls-1" d="M68,140.4c-.41.12-.27,1-.19,2a.54.54,0,0,1,0-.18C68.39,142.55,68.21,141.47,68,140.4Z"/><path class="cls-1" d="M67.84,142.66a9.91,9.91,0,0,1,0,1.11c.11.09.13,0,.1-.27Z"/><path class="cls-1" d="M69.07,130c-.11.48.52.3.35.57C69.94,131.12,68.8,127.4,69.07,130Z"/><polygon class="cls-1" points="66.69 141.22 67.19 140.86 66.78 140.29 66.69 141.22"/><path class="cls-1" d="M67.05,133.26l-.14,1.61c.09,0,.14.18.17.43C67.1,134.31,67.2,133.22,67.05,133.26Z"/><path class="cls-1" d="M67.08,135.3a4.84,4.84,0,0,0,.09,1.3C67.16,136.32,67.14,135.72,67.08,135.3Z"/><polygon class="cls-1" points="66.53 139.02 66.64 138.54 66.67 137.41 66.53 139.02"/><path class="cls-1" d="M67.15,116,67,114.19c-.17-.18-.27.3-.2,1C66.92,115.57,67,116.22,67.15,116Z"/><path class="cls-1" d="M65.78,121.27a1.62,1.62,0,0,1,.38-.78l-.62,0Z"/><path class="cls-1" d="M65.63,116.14c-.17-.17-.49-2.55-.45-.32C65.35,116,65.49,117.76,65.63,116.14Z"/><polygon class="cls-1" points="66.42 89.66 66.43 90.11 67.44 90.04 66.42 89.66"/><path class="cls-1" d="M64,66.32c-.25,2.08.62.49.32,2.38.24.48.25-1.54.46-1C64.51,66.4,64.66,65.74,64,66.32Z"/><path class="cls-1" d="M64.77,67.66a6.43,6.43,0,0,0,.15.64A3.31,3.31,0,0,0,64.77,67.66Z"/><polygon class="cls-1" points="0.21 142.82 0 144.16 0.34 143.29 0.21 142.82"/><path class="cls-1" d="M1,145.39l-.65.32.58.8A2.44,2.44,0,0,1,1,145.39Z"/><path class="cls-1" d="M46.93,5.7l.12-.14a2.53,2.53,0,0,0-1.27-.19Z"/><polygon class="cls-1" points="26.9 5.26 27.25 5.27 26.6 4.74 26.9 5.26"/><path class="cls-1" d="M10.09,5.93c.68,0,1.49-.09,2.18-.07C10.77,6,9.9,5.27,10.09,5.93Z"/><path class="cls-1" d="M45.59,112c0,.13.38-.07.46-.08C45.87,111.75,45.49,112,45.59,112Z"/><polygon class="cls-1" points="43.79 110.46 43.97 110.43 43.45 110.31 43.79 110.46"/><path class="cls-1" d="M42.93,108.71c-.57.43.42.59.34,1l-.12.11.59-.08C43.47,109.4,42.88,109.05,42.93,108.71Z"/><path class="cls-1" d="M43.87,107.2c-.22.16-.32-.11,0,.25l0-.07A1,1,0,0,1,43.87,107.2Z"/><path class="cls-1" d="M43.94,107.38c.11.18.16-.2,0,0Z"/><path class="cls-1" d="M43.38,106.59l.34.15c.13-.11.05-.34.2-.3C43.67,106.24,43.55,106.35,43.38,106.59Z"/><path class="cls-1" d="M42.79,106.55l.16.09S43,106.55,42.79,106.55Z"/><path class="cls-1" d="M43.28,106.82l-.33-.18c-.09.08-.3.17.13.09C42.88,106.79,43.09,106.77,43.28,106.82Z"/><path class="cls-1" d="M43.26,107c-.08.19-.08.4-.42.25C43.16,107.7,43.58,107.44,43.26,107Z"/><path class="cls-1" d="M42.21,108.89l-.1.26.3.07C42.26,109.19,42.41,108.8,42.21,108.89Z"/><path class="cls-1" d="M43,104.94a3.74,3.74,0,0,0-.5.32l.25.12C42.76,105.24,42.76,105,43,104.94Z"/><path class="cls-1" d="M42.46,105.26l-.37-.17C42.19,105.34,42.32,105.34,42.46,105.26Z"/><polygon class="cls-1" points="42.05 106.8 42.76 107.04 42 106.72 42.05 106.8"/><polygon class="cls-1" points="42.47 103.91 42.86 103.93 42.24 103.85 42.47 103.91"/><path class="cls-1" d="M42.07,103.25c.32,0,.38-.34.6-.29a1.44,1.44,0,0,0-.72-.29C42.14,102.78,42.19,103,42.07,103.25Z"/><path class="cls-1" d="M41.53,102.56a2.27,2.27,0,0,0,.42.11A1,1,0,0,0,41.53,102.56Z"/><path class="cls-1" d="M41.94,104.6c.07,0,.27-.18.28-.37l-.33.26Z"/><path class="cls-1" d="M41.88,104.5h0l-.09-.23Z"/><path class="cls-1" d="M42,104.63v0S41.89,104.64,42,104.63Z"/><path class="cls-1" d="M42.05,106c-.3-.07-.7-.31-.87.15C41.5,106.11,41.6,105.85,42.05,106Z"/><path class="cls-1" d="M41.53,105l0,.32c.1,0,.22-.16.37-.12Z"/><polygon class="cls-1" points="41.33 104.87 41.53 104.96 41.51 104.84 41.33 104.87"/><path class="cls-1" d="M41.41,103.19a.62.62,0,0,1-.41-.32,1.22,1.22,0,0,0,.12.54C41.26,103.38,41.51,103.36,41.41,103.19Z"/><path class="cls-1" d="M41.6,103.84h0S41.54,103.87,41.6,103.84Z"/><polygon class="cls-1" points="40.25 101.37 40.2 101.42 40.27 101.4 40.25 101.37"/><path class="cls-1" d="M41.06,103.47c0,.15.12.18.28.2a.92.92,0,0,1-.22-.26C41.06,103.42,41,103.43,41.06,103.47Z"/><path class="cls-1" d="M41.14,102.21a1.82,1.82,0,0,0-.11.3C41.13,102.4,41.25,102.19,41.14,102.21Z"/><path class="cls-1" d="M41.65,103.74h0C41.74,103.68,41.71,103.7,41.65,103.74Z"/><path class="cls-1" d="M41.65,103.74a1.29,1.29,0,0,0-.31-.07.63.63,0,0,0,.23.16Z"/><path class="cls-1" d="M37.53,101.93c.37-.12.87.06.62.5.41.16,1.5-.5,2.05-1a.64.64,0,0,1-.66-.08c-.15.18-.15.81-.6.71-.37-.3,0-.36.08-.62-.37.34-.89-.21-1.51.14l.39.24C37.8,101.85,37.58,101.8,37.53,101.93Z"/><path class="cls-1" d="M40.43,102l.1.1c0-.16.09-.31.29-.6a.75.75,0,0,0-.56-.07l.24.59Z"/><path class="cls-1" d="M40.79,102.59c-.44.07-.74-.14-1.08.2.19.33.44.11.71.24-.37-.51.3.07.32-.42a.92.92,0,0,1,.26.26,1.46,1.46,0,0,1,0-.36v0h0s-.06.06,0,0h0l-.16,0c0-.19.09-.07.16,0H41l-.49-.46A1,1,0,0,0,40.79,102.59Z"/><path class="cls-1" d="M40.19,106.16a.24.24,0,0,1,.09-.06C40.21,106.09,40.17,106.09,40.19,106.16Z"/><path class="cls-1" d="M40.32,105.83c.07,0,.24,0,.27.14s-.19.07-.31.13c.14,0,.41.16.48-.16l-.07,0a1.25,1.25,0,0,1,.44-.74A3.56,3.56,0,0,0,40.32,105.83Z"/><path class="cls-1" d="M40.44,104.24l-.42-.38-.22.37.2-.1C40.05,104.43,40.27,104.27,40.44,104.24Z"/><polygon class="cls-1" points="40.42 101.23 40.87 101.13 40.15 101.1 40.42 101.23"/><polygon class="cls-1" points="40.08 100.66 40.45 100.53 40.15 100.47 40.08 100.66"/><path class="cls-1" d="M26.48,67.1l0-.18A.44.44,0,0,0,26.48,67.1Z"/><path class="cls-1" d="M26,68.06l.16.1C26.06,68.07,26,68,26,68.06Z"/><path class="cls-1" d="M32.77,86c.24-.33.65-.76.26-.57l-.36.22A.3.3,0,0,1,32.77,86Z"/><path class="cls-1" d="M25.44,77l-.09.11.44,0Z"/><path class="cls-1" d="M23.69,77.41l.08-.46A.84.84,0,0,0,23.69,77.41Z"/><path class="cls-1" d="M28.7,61.6l-.32-.32C28.26,61.52,28.52,61.5,28.7,61.6Z"/><path class="cls-1" d="M36.9,94.62a.87.87,0,0,0,0-.52C36.81,94.39,36.55,94.7,36.9,94.62Z"/><path class="cls-1" d="M30.47,69.19a.28.28,0,0,0-.18-.21C30.32,69.09,30.37,69.17,30.47,69.19Z"/><path class="cls-1" d="M36.69,93.61a.5.5,0,0,0,0,.13.69.69,0,0,1,.29.36C37,93.88,37,93.66,36.69,93.61Z"/><path class="cls-1" d="M38.62,42.41l.07,0S38.63,42.38,38.62,42.41Z"/><path class="cls-1" d="M45.4,38.41a.89.89,0,0,1-.09.24S45.39,38.55,45.4,38.41Z"/><path class="cls-1" d="M39.06,98.19c.09.12,0,0,0,0Z"/><path class="cls-1" d="M37.8,99.44a.44.44,0,0,0-.21,0A.68.68,0,0,1,37.8,99.44Z"/><path class="cls-1" d="M33.61,93.35h0C33.54,93.41,33.55,93.4,33.61,93.35Z"/><path class="cls-1" d="M39,98.46a.52.52,0,0,0,0-.21A.58.58,0,0,0,39,98.46Z"/><path class="cls-1" d="M39.15,98.35v.13C39.24,98.47,39.27,98.44,39.15,98.35Z"/><path class="cls-1" d="M39,98a.46.46,0,0,1,.06.23s0-.06.05-.06Z"/><path class="cls-1" d="M34.54,53.2l.05,0C34.49,53,34.49,53.06,34.54,53.2Z"/><path class="cls-1" d="M27,84.43h0v0Z"/><path class="cls-1" d="M26.52,84.09c.59,0,.58.13.55.32l1.07-.62Z"/><path class="cls-1" d="M27.52,64.71l-.51.18c-.39-.62-.05-.82-.7-.72,1.21.54-.49,1.29.72,1.83l-.36.11c0-.06,0-.1,0-.15-.79.17.75.67.31,1.12-.19.15-.43.2-.51,0l.1.53c-.08.11-.28,0-.2-.12l-.21.67,0,0a4.22,4.22,0,0,1,.43.64c-.25.09-.09-.13-.26-.15l.12.46a.41.41,0,0,1-.39-.62c-1.39-.18.17.41-.9.82v-.39c-.81-.08-.68.28-1.3.47.27,0,1.47-.29,1.59.21-.15.07-.26.19-.11.49-.44-.18-.43.07-.53.32l-.57-.25c0,.33.34.43.52.7-.2.27-.68.15-1.1.07-.33.43.89,0,.72.57-.42.31-.32.68-.21,1.3-.34.19-.33-.2-.55-.17l.34.44c0,.06-.17,0-.24-.06.08.28.58.25.57.65.29.19-.05.3-.43.53s-.81.59-.54.92c-.26.13-.38-.11-.66-.09a1.34,1.34,0,0,0,.13.57,3.84,3.84,0,0,0,1.15.75,5,5,0,0,0-.15.61c.27-.5,1.09-.11,1.67,0l.38-.4c.19.12.35.2.55.34-.07.1-.29.13-.58.15l.19,0c-.13.27-.51.32-.9.32l.27-.33a3.53,3.53,0,0,0-1.24.14.59.59,0,0,1,.28.17c-.12,0-.23,0-.27,0s.12.09.31.11l-.59.38.27-.07-.08.83c.89.2,2.06.23,2.7.87-.57,0-.8.28-1.36.5.49-.45-.55-.48-.62-.92,0,.23-.25.29-.37.28l.89.47c-.47.17-.28.29-.38.55.85-.51.87.27,1.29.44-.3.15-.64.21-.74-.17-.5.66,1.31.06.92.67-.05-.08,0-.15-.2-.12.37.09.39.66.07.65l-.05-.08c.17.61.84,1.71,1.66,1.48-.1,0-1,.31-1.14.34l3.1-.06c-.71.18-2.13,1.17-2.73.85,0,.18-.06.39.32.57,0-.13.84-.62,1-.52-.57.65-.28.4-.7,1.08.07-.19,1.19-.47,1.26-.24a8.53,8.53,0,0,1-1.17.4l1.29.12a2,2,0,0,0-1.1.57c.17-.13.21.47.38.58l.12-.33c.15.67,1.74,0,2,.64-.25,0-1.39.35-1.37.71.59-.08,2.83-.41,3.5,0l-.25.22.54.27a24.77,24.77,0,0,1-3.77-.09c-.12.32-.32.2-.12.53-.22.24-.52,0-.59-.1l.22.86c.59-.28.91.36,1.4.12l-1.06-.6c.6-.28,2-.21,2.16.39-.18.24-1.14.34-1.34.44.24,0,.66.36.54.48l-.45-.11c-.07.41,1.07.18.67.79,0,.15-.59.71-.22.59a11.31,11.31,0,0,1,3.32-1.49,4.94,4.94,0,0,1-.6,1.24c-.44.43-1.46.21-1.84.58a1.17,1.17,0,0,1,.53,0c-.08.19-.55.15-.33.42.65-.21.25.62.6-.08.32.22,0,.36.22.69a2.37,2.37,0,0,1,1.83,0,1.07,1.07,0,0,0-.41.26c.23.62.11,1.05.38,1.61-.13.11-.18.45-.5.44.15,0,.4,0,.5.19-.38.55-.28-.35-.79.17.37-.13.71.24,1.06.39.52-.3-.17-.61-.52-.76a2.74,2.74,0,0,1,2.42.22c.42.38-.39.4-.25.43.3.92,1.71.19,1.51,1.13-.35.49-1,.41-1.29.62-.37-.3,0-.7-.12-1l-.07.41c-.23,0-.47-.25-.4-.45-.32.42.64,1.49.56,2.32.23.06.5.19.65,0L36.57,99c.3-.35.75.18.8-.17.42.17,1,.31,1,.8l-.52.3c.16-.07.21-.39,0-.44.33.07-.45.92.37.81l.25-.44c.42.17,1.18.28,1.18.7.47-.38-.1-.05.42-.57-.69.55-.41-.91-1.08-.22.62-.56.09-.57.56-1.17-.17.09-.29.26-.35-.07H39v0s0,0,0,0a.67.67,0,0,1-.21.26c-.49,0-.71-.45-1-.52,0-.21.25,0,.39-.18l-.44-.11c.4-.19.45-.74.89-.43l-.17-.38a.55.55,0,0,0-.2-.76c0-.21-.67-.26-.27-.24l-.55-.48.1-.05c-.23-.59-1.26-.9-.85-1.86a.93.93,0,0,1-.47-.68l.32-.2c-.25-.2,0-.9-.44-.85.82-.66-.39-1.29-.44-1.8l-.47.17a2.3,2.3,0,0,0-.77-.85l-.39.19c-.5-.18-.13-.94-.42-1.44.17,0,.2.12.15.25.62-1-1.31-1-.91-1.84-.22-.08-.22-.2-.16-.33s0,0,0,0l0-.06a2.36,2.36,0,0,0,.12-.28,1.11,1.11,0,0,0-.14.25,1.27,1.27,0,0,0-.37-.36l.41-.24s0,0,0,0c.08-.22-.27,0-.56.17a1.44,1.44,0,0,0-.37-.1c.64-.41-.44-.31.23-.79-.43,0-.68-.68-1.49-.45.1,0,.12-.12.17,0,0-.22,0-.43-.29-.5l.52-.3-.94-.08a.77.77,0,0,1,.91-.49c-.93-.29-.47-.35-1.36-.56l.37-.13c-.1-.16-.72-.23-.47-.46.5-.66-.84-1.92-.69-3.16-1,.62.25-.65-.59-.35.22-.16.3-.35.59-.28-.49-.4,0-.92-.83-1,.22-.16.42,0,.54-.15-.07,0-.3-.07-.17-.18s.24,0,.39,0c-.29-.49-1.09-.23-1.84,0,.11-.2.13-.33.07-.4a1.18,1.18,0,0,0-.5,0c.21-.15.44-.3.62-.14,0-.15.1-.65-.6-.65.06,0,.07,0,0-.08s0-.09-.06-.11c.17-.27.24-.27.3-.54l-.13,0c-.36-.14-.36-.22-.28-.29s.23-.09.27-.27l.07,0c.86-.52-.09-.41.84-.89L27,73.42c-.91-.45.86-.41.71-1l-.32,0c-.21-.36,1.59-.11,1.82-.29.1,0,.09.13.12.22.85-.37-.54-.31-.45-.81.35,0,.73.43.94.15.32,0-.57-1.27.22-1.44-.28,0-.56,0-.64-.29.07-.35,1.32-.49.72-1.08a.3.3,0,0,1,.21,0c-.07-.32.07-.92-.26-1.23,1.62.39,0-1.8,1.4-1.23l.29-.78.14.08c.32-.44.07-.74-.18-1,.15-.08.24.06.31.1.63-.58.6-.68.2-1.54l.48.12c-.19-.26,1.2-.71,1-1.61a.48.48,0,0,1,.16.16c-.15-1,2.16-1.33.66-2.28l-.15-.67c-.46.6-.67-.39-1.07-.23,0-.3.82-.46.75-.11h-.11c.8.47.71-.69,1.28-.43.6-1.31,1.7-2.37,2.33-3.56l-.73-.13.25-.41c.21-.05.59.07.41.35.46,0-.06-.63-.2-.7.56-.47.66.55.77.38l.07-.27L38,54c-.17-.31-.45-.45-.24-.8.25-.17.47.05.54,0s.08,0,.09-.13l.32-.5h-.63c-.15-.34.27-.48-.44-.48,1.09,0,1.31-1.84,1.7-1.95a1.1,1.1,0,0,1,.2-1.19c-.16.06-.78-.13-.54-.44,1.16.62.85-.42,1.86-.35-.7,0,.35-1-.67-1,.24-.25.46.16.86.06-.13-.88,1.06-1.39,1.32-2.31-.15-.08-.47,0-.61-.32l1-.12c0-.2-.85-.53-.14-.61-.16,0-.39,0-.39-.16,1.61-1.36,1.06-3.68,3.37-4.77-.43.1-.38-.07-.31-.25-.13.09-.39-.16-.62-.23l1-.46c-.54-.38.33-.78-.21-1.09v.27c-.54-.58-1.72-.2-2.57-.6.6.65-1.58.42-.75,1.42-.24,0-.23-.22-.46-.24.3.29.3.49,0,.74l-.07-.07c-.35.91-.9,1.13-1.63,2l.46.1a.77.77,0,0,1-.47.23c.53.51.33-.58.94-.06-1-.08-.75,1.48-1.84,1.26-.17.33.54.11.38.44l-.32,0,.31.23c-.16.18-.55.15-.79.07.06,0,0-.17,0-.24-.45.15-.28.83-.43.88l.32-.25c-.19,1-1.08,1.93-.95,3l.23,0c.05.81-.48.43-.66,1.22l0,0a.61.61,0,0,1,0,.65c-.15-.28-.64.15-.78-.2.05.88.14.48.67,1.26l-.4,0c.23.28.38.36.29.76-.14-.41-.62,0-.84-.47-1.11.45.19,1.42-1.06,1.33.76.73.84-.44.94-.17.39,0,.56.57.35.77s-1.4-.08-1.68.54c0-.06,0-.1,0-.15-.35.13.1.57-.43.69.49.39-.21.35.49.69l.11-.63c0,.4.73,1,.06,1.39a1.32,1.32,0,0,1-.29-.48c-.29.06,0,.34-.3.41-.7-.34.18-.74-.21-1.3-.38,0,.21.85-.49.37.87.64-.42.54.14,1.26l-.42-.2c0,.09.17.31.1.42l-.45-.44c.31.52-.74.47-.64.89.32-.67.6.06,1-.09.17,1.06-1.36,0-1.61,1,0-.15.49-.37.6-.09a1.47,1.47,0,0,1-.74.32c-.21.64.49.09.63.45-.63,0,.06.39.1.73l-.44-.18c-.63.58.82.56.17,1l-.48-.51v.39l-.47-.27c.2.51.05.58-.27.87.35,0,.78.37.64.68-.37.1-.36-.29-.51.17-.23-.21-.52-.45,0-.48-.14-.08-.23-.21-.36-.29-.41.11-.35.54-.43.7a.43.43,0,0,1,.19-.13l.3.88c-.22,0-.31-.1-.4-.23,0,.15.14.32.08.52-.33-.19-.7-.33-.74-.66l.1.76c-.18,0-.58.14-.67,0-.38.25.28,1.11-.22,1.44a.29.29,0,0,1,.11.24c-.29.38-.91.57-.66,1.26l-.78,0c-.05.45,1-.05.91.69,0,.54-.63,0-.88,0,.21.35.67,1-.06,1.22C27.36,64.93,27.51,64.86,27.52,64.71Zm-2.08,4.88c0-.13-.24-.43,0-.39C26,69.51,25.66,69.5,25.44,69.59ZM25,78c-.18,0-.16-.15-.06-.33A.28.28,0,0,1,25,78ZM38,97h0C38.06,96.68,38,96.78,38,97Zm0,.51a.19.19,0,0,0,.19-.06c-.13,0-.18-.07-.2-.19C37.93,97.28,37.87,97.37,38,97.46Zm.12-44.41-.15,0C38,52.85,38.06,53,38.16,53.05Z"/><path class="cls-1" d="M23.89,77.37a.52.52,0,0,1,.22-.14A.16.16,0,0,0,23.89,77.37Z"/><path class="cls-1" d="M28.76,61.66h0a.18.18,0,0,0-.07,0Z"/><path class="cls-1" d="M31,92.35a.47.47,0,0,1,.14-.26A.2.2,0,0,0,31,92.35Z"/><path class="cls-1" d="M39.91,99.42l-.25-.23c.08.13,0,.21,0,.31S39.86,99.34,39.91,99.42Z"/><path class="cls-1" d="M38.37,102.9c.07,0,.05.09.12.1l.2-.09C38.59,102.74,38.37,102.69,38.37,102.9Z"/><path class="cls-1" d="M38.57,100.27c-.35.17-.14.29,0,.45,0,0,0,0,0,0C39.12,100.54,38.85,100.4,38.57,100.27Z"/><path class="cls-1" d="M38.62,100.76a.36.36,0,0,1,.1.18C38.94,100.88,38.73,100.85,38.62,100.76Z"/><path class="cls-1" d="M38.55,97.9c0,.13.5-.14.38,0C39.45,97.79,38.06,97.5,38.55,97.9Z"/><polygon class="cls-1" points="37.44 100.92 37.86 100.67 37.44 100.71 37.44 100.92"/><path class="cls-1" d="M37,99.27l0,.36a.2.2,0,0,1,.2,0C37.16,99.45,37.15,99.21,37,99.27Z"/><path class="cls-1" d="M37.24,99.64c0,.11.1.2.2.22A.78.78,0,0,0,37.24,99.64Z"/><polygon class="cls-1" points="37.09 100.56 37.14 100.43 37.07 100.2 37.09 100.56"/><path class="cls-1" d="M35.47,95.94l-.3-.28c-.17,0-.22.16-.1.26S35.34,96.05,35.47,95.94Z"/><path class="cls-1" d="M34.72,97.46c.05-.13.15-.18.28-.29l-.57.22Z"/><path class="cls-1" d="M34.11,96.54c-.18,0-.69-.31-.45.1C33.84,96.61,34.13,96.9,34.11,96.54Z"/><polygon class="cls-1" points="32.32 91.2 32.37 91.29 33.29 90.9 32.32 91.2"/><path class="cls-1" d="M27.9,87.67c0,.48.62-.14.52.33.26,0,.08-.39.31-.37C28.38,87.49,28.45,87.31,27.9,87.67Z"/><path class="cls-1" d="M28.73,87.63a1.71,1.71,0,0,0,.21.07A.71.71,0,0,0,28.73,87.63Z"/><polygon class="cls-1" points="46.36 37.68 46.68 37.5 46.28 37.54 46.36 37.68"/><path class="cls-1" d="M45.91,36.91l.62.18-.45-.37C46.07,36.79,46.07,36.92,45.91,36.91Z"/><path class="cls-1" d="M23.9,69.82l.13.07c.18,0,.22,0,.3-.14Z"/><polygon class="cls-1" points="26.06 66.54 26.02 66.59 26.61 66.7 26.06 66.54"/><path class="cls-1" d="M26.82,63.36c-.08.11,0,.3-.11.41C26.74,63.47,27.5,63.6,26.82,63.36Z"/></g></g></svg>