<svg xmlns="http://www.w3.org/2000/svg" viewBox="0 0 65 40"><defs><style>.cls-1{fill:#fff;}</style></defs><g id="Layer_2" data-name="Layer 2"><g id="Layer_1-2" data-name="Layer 1"><rect x="1.56" y="1.38" width="62.58" height="37.21"/><path class="cls-1" d="M63.49,38.59c.09.1.28,0,.24-.24l-.32-.2Z"/><path class="cls-1" d="M64.09,36.68c-.16-.33-.43-.71-.72-.5.3.33.17.41.54.77,0,.28-.1.49-.22.44.08.1-.07.44.13.6a1.36,1.36,0,0,0,0-1.33C63.94,36.56,64,36.66,64.09,36.68Z"/><path class="cls-1" d="M64.58,9l0,.18A.48.48,0,0,0,64.58,9Z"/><path class="cls-1" d="M54.24.78c.13,0,.19,0,.2-.06S54.21.76,54.24.78Z"/><path class="cls-1" d="M51.2.44l.18,0A.3.3,0,0,0,51.2.44Z"/><path class="cls-1" d="M64.58,9l.1-.46C64.58,8.49,64.6,8.76,64.58,9Z"/><path class="cls-1" d="M63.32,32.86a.61.61,0,0,0,.08.25l0-.23Z"/><path class="cls-1" d="M64.84,16.55v.14a.69.69,0,0,0,.13.11Z"/><path class="cls-1" d="M64.89,22.36c0-.14-.26-.18-.38-.23a.41.41,0,0,1,.19.28A.32.32,0,0,0,64.89,22.36Z"/><path class="cls-1" d="M64.41,31.56l0,.17Z"/><path class="cls-1" d="M64.9,12.39l.1-.05A.14.14,0,0,0,64.9,12.39Z"/><path class="cls-1" d="M57.17,37.36s0,0,0,0S57.22,37.36,57.17,37.36Z"/><path class="cls-1" d="M64.14,38.66H64a.77.77,0,0,0,0,.15Z"/><path class="cls-1" d="M45.65.11h0C45.82.08,45.74.09,45.65.11Z"/><path class="cls-1" d="M.44,8c.24-.56.31.91.58.07C.91,8.16.6,7.32.44,8Z"/><path class="cls-1" d="M63.35,32.71v-.23A.86.86,0,0,0,63.35,32.71Z"/><path class="cls-1" d="M1,8.08H1L1,8Z"/><path class="cls-1" d="M32.86.27A.47.47,0,0,0,33,.38S33,.32,32.86.27Z"/><path class="cls-1" d="M42.39.64l-.23,0A1.11,1.11,0,0,0,42.39.64Z"/><path class="cls-1" d="M27.92.63a.79.79,0,0,0-.35,0l.05,0A.36.36,0,0,1,27.92.63Z"/><path class="cls-1" d="M22.77.64l.09,0,.17,0Z"/><path class="cls-1" d="M41.52,37.49a.88.88,0,0,1,.24.23C41.68,37.54,42.44,37.47,41.52,37.49Z"/><path class="cls-1" d="M63.47,32.86a.19.19,0,0,1-.12-.15l0,.17S63.44,32.9,63.47,32.86Z"/><path class="cls-1" d="M27.71,2.7l-.82,0C27.12,2.68,27.42,2.7,27.71,2.7Z"/><path class="cls-1" d="M4.58,37.53l.19,0A.38.38,0,0,0,4.58,37.53Z"/><path class="cls-1" d="M24.46,2.7A1.3,1.3,0,0,0,24,2.52s-.07,0-.09.06Z"/><path class="cls-1" d="M41.76,37.73h0Z"/><path class="cls-1" d="M47.15,37.11c-.78,0-.37.33-.53.53-.93.1-.43-.25-.75-.43-.58.09-1,.41-1.46.39,0-.05-.12-.07,0-.14-.61.27-1.82,0-2.54.35a.24.24,0,0,1-.09-.08.63.63,0,0,1,.11.47c-.35,0-.65.22-.78,0,.21,0,.23-.08.33-.15l-.36.09c-.33-.32.5-.11.5-.35a8.05,8.05,0,0,1-2.1.28c-.11-.31,1.28-.1.55-.38l.85.12c-.65-.5.51,0-.08-.5-1.12-.09-1.25.16-2.36.07-.25.17.08.26-.17.43-1.58.32-1.24-.79-2.4-.37-.3.21-.42.61-1.25.4l.29-.36c-1.08,0-.62.51-1.75.27.2-.14.85-.11.69-.16-.74-.28-.52.21-1.08.21l-.12-.32c-1.15.05-2.41.28-3.69.34.07-.1.29-.2,0-.29a24.19,24.19,0,0,1-5-.23l-.59.27c-.14,0-.25-.12-.1-.17-.61-.11,0,.17-.32.28s-.46-.16-.24-.24a10.91,10.91,0,0,1-4.15.2l.22-.08c-.88-.11-1,.56-1.8.31l.16,0c-1.9-.12-4,.13-5.44-.28-.27.39-1.87-.18-2,.37a9.59,9.59,0,0,0-2.29-.55c-.41,0-.61.34-1.11.4v-.29l-.69.3-.36-.34-.47.07c.19,0,.4.13.37.22a2.68,2.68,0,0,1-1.82-.35l-.21,0,0,0-.12.06-.35.12c.13-.11.25-.15.34-.23-.28.19-.11,0,0-.07s.06-.06,0,0a.83.83,0,0,1-.23.14.85.85,0,0,0,.14-.3,1,1,0,0,0,0-.22V36.6c0-.19,0-.38,0-.55l.21.13c0-1.25-.1-2.63-.1-4-.09.5-.45.38-.48,0L2.66,32c-.19-.27-.12.43-.36-.12,0-.52.36-.35.46-.05l-.11-.64c.1,0,.15.12.27.16-.2-.27.31-1.1,0-1.48l.1,0c0-1.4-.11-2-.12-3.18-.27,0-.21-.47-.43-.81A20.64,20.64,0,0,0,2.71,23c-.13-.71-.23-.21-.39-.53.25,0,.23-1.06.4-.53a23.7,23.7,0,0,0-.25-3.09c-.1.17-.14.35-.23.26,0-.28.11-.64.23-.6l0,.08c-.37-1.73.72-4,.21-5.35l0,.07-.27-1.42c0-.65.19.39.34-.09-.41-1.54.06-2.43-.21-3.69.73-1-.05-3.47.41-4.79l-.17.07a.35.35,0,0,1,0-.36l.09-.14c0-.05.05,0,.06,0s-.11,0-.14,0-.06.09-.11,0a1.85,1.85,0,0,1,0-.46l6.56.44c1.13,0,.64-.86,2.06-.46l-.41.3c2.27-.36,4.63,0,6.85-.3-.13.07-.13.17-.35.17.47.22,1.73,0,1.74-.18.34,0,.08.17.29.26.47.13,1.18-.28,1.43-.06,0,0-.13.07-.22.09.31-.11,1.43,0,1.14-.23.83.12,1.59-.12,2.25,0,.43-.29,1.42.14,1.56-.27-.06.42,1.46.34,2,.14-.18.13.45.13.25.31.6,0,1.15-.09,1-.3,1.11.5,2.23-.41,2.85.24,1.78-.23,3.43-.38,5-.48-.06.42-1.77,0-1.71.48a19.42,19.42,0,0,1,3.91-.43c.39.06-.22.18-.35.25,1.52-.17,2.94,0,4.29-.19,0,0-.15.09-.29.12.27,0,.62.06.59-.13l-.26.05C42.49,2,44,1.73,44,1.59c-.45.54,1.34.13.62.82.17,0,.39-.12.35-.25.26,0,.35.11.08.26,1-.11.62-.31,1.48-.31,0,.1-.17.13-.26.24a2.9,2.9,0,0,1,1.61-.28c0,.05,0,.13-.18.13,1.25,0,2.14-.48,3.52-.31-.41.4.47.13.54.48l.74-.1-.3-.17A10.36,10.36,0,0,1,54,2l-.48.15L54.74,2l-.69-.13c.65-.18-.07-.44.79-.34-.17,0,.65,0,1,.21h0A2,2,0,0,1,57,1.64c.12.11-.1.38,0,.45.32-.29,1.52-.08,1.92-.39a.24.24,0,0,0-.1.3L59,1.76c.3.08.34.11.29.26.91,0-.28-.44.79-.25-.08,0,0,.05-.22.09a9.09,9.09,0,0,0,1.57,0l.76,0h.37l.26,0c0,.18-.1.2-.21.21s-.39,0-.21.17a1.43,1.43,0,0,0,.28,0l.22,0,.53-.1a6.14,6.14,0,0,1,.15.71,4.17,4.17,0,0,1,0,.56,4.26,4.26,0,0,1,0,.62l0-.25c.52.19-.25,1,0,1.67,0-.16-.28-.22-.22-.17a16.82,16.82,0,0,0,.28,3.25l-.13-.17c-.12.54-.07,1.42-.13,2,.14.18.11.51.3.31-.74,1.79.41,3.42-.22,5,0-.19-.11-.45-.11-.3l.12,1.36c.22-.11.13-.18.31-.47a1.75,1.75,0,0,1,.23.9c-.15-.61-.36,0-.48.26.07,0,.14.05.21,0-.39.71.45.12.18,1.08l-.11-.05a4.36,4.36,0,0,1,.18,1.09c-.26.16-.12-.39-.34-.41,0,.55.49,1.08.24,1.58-.08-.24-.08-.57-.15-.8a1.75,1.75,0,0,0-.27,1v0l-.14.93.08-.24c.67.69.12,1.4.56,2.33-.41-.9-.24-.15-.53-.22-.08.23-.17.59-.25.49.23.44-.19.73.16,1.35-.1,0,0,.46-.25.37.07.56.16-.14.28-.09.32.87-.39,2.06.05,3.32.18,1.08.5,1.28.66,2.29-.15.34-.34-.28-.34-.28a3,3,0,0,0,0,1.48c-.08-.1-.15,0-.26.16,0,.42.35.28.21.83a1.59,1.59,0,0,1-.38-.42c.09.49.26,1,.35,1.48-.17.14-.25-.3-.36-.48.08.57.15,1.47.41,1.65l.09-.37c0,.21-.22.11-.27,0-.2-.49.09-.71.19-.73l.06.36c.55-.37-.09-1.45-.06-2.18l.4.3-.33-.74c.1-.16.33-.27.39.09.19-.52-.15-.46.07-.91,0-.05.06,0,.07,0l-.12-.51c.09.1.29-.08.23.23.23-.91-.3-1.47,0-1.81l0,.07c-.14-1.26-.3-.12-.64-1.07l.72-.64-.29-.12c0-.13,0-.39.15-.34-.2-.49-.13.08-.32-.2.27-.63-.12-1.74.34-1.88-.22-.22-.17.6-.32-.07.5-.19-.09-.77.14-1.35.26.18.12.72.36.15-.44-.35.09-1.12,0-1.61-.35,0-.15-1.05-.27-1.86a14.85,14.85,0,0,0,.32-2.29l.06,0c-.35-.14-.28-.92-.36-1.49.21,0,.3.12.39.43v-.53a1.1,1.1,0,0,1-.21-.64l.26.13a9.12,9.12,0,0,1-.13-2.34c-.25-.05-.69.73-.85-.24.13,0,.36-.07.41.18a.82.82,0,0,1,0-.46l.22.38c.1-.41-.19-.21-.16-.55.19,0,.13-.24.28-.2s-.08.29,0,.42a2,2,0,0,1,.29-1c-.11,0-.26,0-.28-.27,0-.71.23-.25.32-.66-.13-.17,0-.63-.27-.64,0-.21.13-.24.21-.32-.13-.37,0-1.72-.34-1.31l0,.1V9.23h0c-.29-1.21.16-2.51,0-3.7h.1a11.83,11.83,0,0,0-.27-2.1c0-.21.17-.5.29-.41,0-.28-.08-.53-.1-.74a5.58,5.58,0,0,1,.08-1.06c.16.62.14-.37.12.69,0-.52.1-.89.11-1.24a5.27,5.27,0,0,0-1.32.14c.24-.12.09-.2-.23-.23a4.11,4.11,0,0,0-.94,0A5.63,5.63,0,0,0,63,.75h-.69l-.52,0L62,.43c-1.51-.37-2.71.64-3.86,0-.39.22.82.16.46.41A9.09,9.09,0,0,1,57,.36C56,.19,56.09.81,55.1.7c.13.11.25.4-.49.51-.69-.05-.85-.47-.41-.56.16,0,.24,0,.24.07.22,0,.51-.09.24-.21l-.09.11c-.34-.11-1.3-.1-1.07-.28-.53.1-.23.18.16.24-.89-.16-1.38,0-2.3-.12.15.07.28.19.14.19-1.34-.13-.59.21-1.5.26-.52-.17.18-.4-.73-.26-.56-.11-.12-.29.1-.38a4.93,4.93,0,0,1-2-.18L47.8,0a3.4,3.4,0,0,1-.69.05l.25.22c-.26,0-.48,0-.47-.13-.27.15.2.37-.33.57-.34-.12-1,.12-1.16-.18,1.08.1-.12-.29.8-.34a2,2,0,0,1-.65,0s0-.06.1-.08c-1-.26-.47.33-1.54.32.13-.16-.25-.31-.42-.27.43,0,.2.27-.19.4-.69-.13-.75.09-1.11.08L42.8.7c-.14.16-.48.14-1,.19,0-.12.44-.08.26-.14-.53.29-1.2-.3-1.94-.11-.34-.11,0-.31-.33-.38C39,.47,38.93,0,38.06.21c.25.22.29.17-.32.38L39.17.44l-.92.32c.44,0,.92-.14,1.18-.1-.44.18-.4.12-.19.31-.59-.34-1.17.19-1.86,0l0-.55c-1-.25-1.83.28-3.16.14l.43.1c-.18.21-.83,0-1.26.11,0-.18-.23-.25-.42-.36,0,.14-1,0-1.1.35L31.3.49C30.22.39,30.07,1,29,1c.31-.2-.16-.33.53-.47-.34,0-.65,0-.66.09-.2-.11-1,.25-1.28.08-.14.08-.19.27-.58.25,0,0,0-.09,0-.09s-.61.13-.27.33c-1.06-.57-3,0-3.91-.45-.75.06-1.66.12-2.35.13,0,0,0-.09.13-.07-.94-.17-.58.53-1.66.34-.55-.3.57-.16.23-.28-.15-.6-1.3.09-2-.27l.17,0C16.81.3,16,.74,15.11.69a.07.07,0,0,0,0-.09,9.33,9.33,0,0,1-2.66.5c.27-.24.39-.13.23-.37-.39,0,.11.39-.67.46-.25-.13-.81-.25-.89-.5l.74,0c-.38-.33-.95,0-1.34,0l.05-.15C9.44.53,9.43.89,8.22.87L8.34,1c-.66.36-.55-.21-1.21.06L6.93.68a22.59,22.59,0,0,1-2.31.42A9.59,9.59,0,0,1,6.54.53,4.32,4.32,0,0,0,4.85.74,1.09,1.09,0,0,1,5.41.67a4.25,4.25,0,0,1-2.09.42c0-.23-.1-.33-.65-.38S1.46.67.79.64A3.43,3.43,0,0,1,.5,2.16L.57,3a5,5,0,0,1,0,.55,10.57,10.57,0,0,1,0,1.12A22.92,22.92,0,0,0,.42,7.09c.58-.6,0,.51.61.4,0,.4,0,.55,0,.59L.67,9.29C.5,9.58.54,8.91.41,9c0,.87-.25.36-.41.94.21-.12.3.31.22.81L.49,10c.32,1.23-.49,1.06-.18,2.3l-.19-.4c.11.64,0,2.34.47,3-.07.11-.23.26-.27,0-.07,1.51.5,3.37.21,4.54l-.14-.11c0,.28.27.49.12.84,0,0-.14-.11-.15,0a2.49,2.49,0,0,1,.17,1.12l-.16-.32c-.19,1.48.39,2.27.49,3.51-.42,0-.56,1.15-.63,1.73l-.06,0a29.46,29.46,0,0,0,.52,4.51C.23,31.64.5,34,.24,35.59c.08-.25.33,0,.37.32s.3,1-.09,1v-.14a.64.64,0,0,0-.2.3,3.78,3.78,0,0,0-.08.71c0,.57,0,1.19,0,1.75l.51-.28,0,.2a7.55,7.55,0,0,0,2.06.23h.87l.72,0a4,4,0,0,1,2.22.16c.39-.12.88-.12,1.26-.24l0,.26a21.87,21.87,0,0,0,3,0L10.5,40c.75,0,.95-.76,1.65-.78l.21.4c1.31,0,2.65.34,3.95,0a.28.28,0,0,1-.28.19c.62,0,2.4.26,2.17-.28,0,.36,1.36,0,2.07-.12l-.11.26a2.65,2.65,0,0,1,1.46-.51c.2,0,.17.21-.09.14.66.14.51-.24,1.32-.11l-.3.17a1.29,1.29,0,0,0,1-.26c.43-.11,1.29.06,1.39.3a.93.93,0,0,1,.87-.27c.05.09-.1.14-.17.17,1.14.18,1.69-.3,2.48-.05a.18.18,0,0,0,.13.16c-.91,0-1.63,0-1.57,0,0,.24.73.28.15.61a6,6,0,0,1,2.3-.46.39.39,0,0,1,.1.08l-.08,0a1.1,1.1,0,0,0,.45,0,3.06,3.06,0,0,0,.59.07c.09.2.84.11,1.2.12,0-.26.45-.22,0-.44.06,0-.06,0-.31,0l-.15,0,0,0-.9,0a1.19,1.19,0,0,1,1-.1,5.74,5.74,0,0,1,.51-.42c.5.36,1.46.56,1.59.78,1.11-.14,2.62-.09,3.32-.58.31-.07.36.14.48.21a2.29,2.29,0,0,0-.5.12c.63-.13,1.87,0,2-.4.79.16-.45.32.64.26l-.15.11c2.16.55,3.51-.88,5.89-.17-.16-.05-.25-.07-.28-.12,2.72.31,5.61-.3,8.3.2.76.1.84-.12,1.31-.29l.16.28.8-.32c1.13-.24,2,.69,3.39.24L58.34,39c.52,0,1.63-.11,1.54.1.06,0,.17-.19.37-.09l0,.14,1.26-.25c1,.11-.15.58,1.27.61.54,0,1.52-.42,1.32-.52s-.55-.09-.57-.24l.49-.08c.09-.43.46-.87-.73-1.18l-.83.27-.27-.21.7,0a1,1,0,0,0-.93.1.53.53,0,0,0-.35-.23l-.81.41c-.1-.17.36-.33-.18-.43-.39.2.36.38-.27.51-.4-.2-.28-.36-.75-.19-.06-.11,0-.18.22-.23-.41.13-1.1.06-1.31.29-.41-.25-1.4.06-1.36-.35a3,3,0,0,1-1.11.34c.69-.49-1.43,0-1.24-.56-.52.44-1.87.2-2.78.44.05,0,.15-.1.23-.08a4.15,4.15,0,0,1-1-.25c-.07.36-.87.45-1.3.67-.63-.35.39-.43.19-.77,0,.3-1.1.3-.88.55-.48-.22-.42-.11-.67-.41-.08.45-.44.07-.84.35-.7-.22-.18-.42-1-.28C46.47,37.27,47.15,37.11,47.15,37.11Zm-18.21.78h0l.38,0Zm-1.53,0h.67c.05.09,0,.18-.16.18C28,38,27.64,38,27.41,37.9Zm3.24,1.81c-.24,0-.33,0-.36-.07l.43,0,0,0A.38.38,0,0,1,30.65,39.71Z"/><path class="cls-1" d="M31.08,39.37l.1,0a.42.42,0,0,0-.14-.06l-.09.08Z"/><path class="cls-1" d="M64.54,9.19v0l0,.07Z"/><polygon class="cls-1" points="6.29 37.4 6.29 37.46 6.42 37.41 6.29 37.4"/><path class="cls-1" d="M63.61,17.33a.26.26,0,0,0-.07.11S63.58,17.39,63.61,17.33Z"/><path class="cls-1" d="M63.55,20.85l-.1.5A3.94,3.94,0,0,0,63.55,20.85Z"/><path class="cls-1" d="M63.41,23.56l.12.05h0Z"/><path class="cls-1" d="M42.58,2.39h-.1C42.22,2.45,42.4,2.43,42.58,2.39Z"/><path class="cls-1" d="M55.83,1.78c-.14,0-.28.09-.43.12C55.64,1.92,55.82,1.93,55.83,1.78Z"/><polygon class="cls-1" points="27.8 2.7 27.8 2.7 27.71 2.7 27.8 2.7"/><path class="cls-1" d="M54.79,1.9a1.39,1.39,0,0,0,.61,0A2.08,2.08,0,0,0,54.79,1.9Z"/><path class="cls-1" d="M63.29,35.28v.13s0,0,0,0Z"/><path class="cls-1" d="M63.32,35.42l0,.15C63.36,35.5,63.35,35.44,63.32,35.42Z"/><path class="cls-1" d="M63.42,35.87l-.06-.3A.39.39,0,0,0,63.42,35.87Z"/><path class="cls-1" d="M63.42,31.7l-.1-.05S63.37,31.69,63.42,31.7Z"/><path class="cls-1" d="M63.39,30.61a3.71,3.71,0,0,0-.15,1l.08,0C63.17,31.48,63.55,30.85,63.39,30.61Z"/><path class="cls-1" d="M64.6,26.07l-.08.91c.11-.16.25-.37.27,0C65.1,25.88,64.56,27.26,64.6,26.07Z"/><path class="cls-1" d="M64.75,23.24c0,.49.15,0,.21,0C64.87,23,64.84,22.87,64.75,23.24Z"/><path class="cls-1" d="M64.75,2.79l.25.06C65,2.27,64.9,2.86,64.75,2.79Z"/><polygon class="cls-1" points="61.58 2.02 61.96 2.16 62.14 1.95 61.58 2.02"/><polygon class="cls-1" points="59.19 0.32 59.36 0.29 58.71 0.37 59.19 0.32"/><path class="cls-1" d="M23.68.41,23.8.7C24.07.65,24.12.32,23.68.41Z"/><path class="cls-1" d="M8.36.7A.91.91,0,0,0,7.49.61,5.92,5.92,0,0,0,8.36.7Z"/><polygon class="cls-1" points="1.53 39.75 0.91 39.84 2.01 39.76 1.53 39.75"/><path class="cls-1" d="M25.7,23.89a4.64,4.64,0,0,1-.48,1.82,8.53,8.53,0,0,0-.62,1.78,6.14,6.14,0,0,1-3,.67,16,16,0,0,1-2.68-.29c-1.38-.22-2.27-.35-2.67-.38a1.29,1.29,0,0,1-1,.52l-.5,0-.49,0a1.31,1.31,0,0,0-.74.22,9,9,0,0,0-.91-.72c-.44-.3-.65-.58-.65-.84s.34-.7,1-.9,1-.52,1-1v-.29a4.14,4.14,0,0,0,.51-1.58c0-.54.1-1.08.16-1.63a13.26,13.26,0,0,1-.24-2.51,20.31,20.31,0,0,1,.48-4c-.21-.46-.42-.91-.62-1.36a1.38,1.38,0,0,0-1.18-.75h-.29c.15-.3.5-.44,1.06-.43h.09c.2.31.4.46.63.46a1.28,1.28,0,0,0,.61-.29,1.27,1.27,0,0,1,.66-.29.93.93,0,0,1,.65.34,2.08,2.08,0,0,1,1.73-.72,5.74,5.74,0,0,1,2.2.5,12.28,12.28,0,0,0,1.35-.11,12.44,12.44,0,0,1,1.37-.1c1,0,1.63.22,1.92.67a2.23,2.23,0,0,1,.19,1.05,10,10,0,0,1-.1,1.22,11.71,11.71,0,0,0-.09,1.18.69.69,0,0,1-.2,0,1.2,1.2,0,0,1-1.08-.79l-.57-1.47A1.31,1.31,0,0,0,22,13.09h-.4l-.7-.44a3.8,3.8,0,0,1-2.11.65,2.67,2.67,0,0,1-1.83-.65,2.39,2.39,0,0,0-.79,1.74c0,.66-.09,1.32-.12,2a8.78,8.78,0,0,0,.39,1.76c.27.69.68,1,1.24,1a2.26,2.26,0,0,0,.92-.22h.24c.59,0,1.05-.45,1.39-1.34s.79-1.39,1.37-1.47a16.34,16.34,0,0,0,.18,2.22,20.75,20.75,0,0,1,.18,2.22,3.15,3.15,0,0,1-.58,2,3.27,3.27,0,0,1-1.15-1.1,13.52,13.52,0,0,0-1-1.3,2.29,2.29,0,0,0-1.58-.6l-1.8,1a2.87,2.87,0,0,1,.38,1.54c0,.21,0,.52,0,.94s-.05.72-.05.93,0,.77-.05,1.38,0,1.08,0,1.38a4.59,4.59,0,0,1,2.43-.65,19.85,19.85,0,0,0,2.66-.29,1,1,0,0,0,.72.32,2.64,2.64,0,0,0,.91-.22c.55-.19.85-.3.91-.31a1.08,1.08,0,0,0,.24-.77v-1a1.34,1.34,0,0,1,.73-1.3l.89.24A3,3,0,0,1,25.7,23.89Z"/><path class="cls-1" d="M39.14,22.06,39,24.51a3.34,3.34,0,0,1-.81,2.18,3.4,3.4,0,0,1-1.42.8,5.67,5.67,0,0,1-1.68.31,2.86,2.86,0,0,1-1-.17,2.79,2.79,0,0,1-1.35.34,4.18,4.18,0,0,1-2.13-.58S30,26.89,29,26H28.9c-.2,0-.31.11-.34.38V27a1.14,1.14,0,0,1-.07.41.5.5,0,0,1-.27.07c-.62,0-.93-.5-.93-1.51A10.62,10.62,0,0,1,27.54,24a10.62,10.62,0,0,0,.25-2,2.86,2.86,0,0,1,1.13,1.59,4.42,4.42,0,0,0,1,1.77A2.82,2.82,0,0,0,31,26l1,.19a1,1,0,0,1,.69.55,17,17,0,0,1,2.21-.45,5,5,0,0,0,2-.65,2.3,2.3,0,0,0,.86-2,3,3,0,0,0-1.15-2.2c-.7-.55-1.4-1.08-2.09-1.61a3.44,3.44,0,0,1-1,.17,5.67,5.67,0,0,1-2.48-.7q-1.12-.68-2.25-1.32a7.69,7.69,0,0,1-.39-2,3.34,3.34,0,0,1,.84-2.16,5,5,0,0,1,1.66-1.17l1.82-.89c.15.37.53.56,1.16.56s1,.21,1.15.59a13.51,13.51,0,0,1-2,.24,2.17,2.17,0,0,0-1.71.91,2.77,2.77,0,0,0-1.85.46l.15,1.92a3.59,3.59,0,0,0,.55,1.8l3.31.84a13.85,13.85,0,0,0,3.39.53A15.45,15.45,0,0,0,38,20.79,15.45,15.45,0,0,1,39.14,22.06Zm-.4-5.45q0,.48-.75.84-.69,0-.78-.54c-.05-.35-.11-.72-.15-1.09a2.56,2.56,0,0,0-1-1.19c-.54-.4-.81-.7-.81-.87s.21-.47.64-.72a.66.66,0,0,0,.56.31,1.46,1.46,0,0,0,.46-.1,1.86,1.86,0,0,1,.47-.09q.4,0,.6.57a1.09,1.09,0,0,0-.19.6,2.4,2.4,0,0,0,.47,1.18A2.58,2.58,0,0,1,38.74,16.61Z"/><path class="cls-1" d="M53.76,16.18a1.55,1.55,0,0,1-1.4,1.68,1.13,1.13,0,0,1-.26,0,4.59,4.59,0,0,0-2.55-3,1.42,1.42,0,0,0-1.4-1.15.89.89,0,0,1-.45.12,3.54,3.54,0,0,1-.48-.05l-.46-.07a13.55,13.55,0,0,1-1.25,1.68A13.25,13.25,0,0,0,44.26,17a3.74,3.74,0,0,0-.49,2.69,3.07,3.07,0,0,0-.07.6,4.81,4.81,0,0,0,.1.84,6,6,0,0,1,.09.84,1,1,0,0,1-.12.5,2.86,2.86,0,0,0,1,2,7.72,7.72,0,0,0,2,1.1,11.46,11.46,0,0,1,2.06,1.06l1.54-1.44a3.57,3.57,0,0,0,1-1.8A2.47,2.47,0,0,1,53,22.49a.73.73,0,0,1,.52.22,3,3,0,0,1,.17,1q0,1.95-2.71,3.89c-.22,0-1,.18-2.23.43a10.48,10.48,0,0,1-2.23.29,3.35,3.35,0,0,1-.63-.05c-.57-.43-1.14-.87-1.7-1.32a3.77,3.77,0,0,1-1.32-1.68.78.78,0,0,0,.09-.4,3,3,0,0,0-.7-1.52A3,3,0,0,1,41.52,22V19.54a5.7,5.7,0,0,1,1.32-4,1.75,1.75,0,0,1,.72-1.41L45,13.25l.65-.46a2.42,2.42,0,0,1,1.39-.3,1.65,1.65,0,0,0,1.4-.68c0,.18.26.27.69.25a1.53,1.53,0,0,0,1.3.93,3,3,0,0,0,1.1-.3,3.05,3.05,0,0,1,1.11-.3,1.23,1.23,0,0,1,.88.38,2.87,2.87,0,0,0-.07.58,9.66,9.66,0,0,0,.17,1.42A8.35,8.35,0,0,1,53.76,16.18Z"/></g></g></svg>