<svg xmlns="http://www.w3.org/2000/svg" viewBox="0 0 602.08 73"><defs><style>.cls-1{fill:#fff;}</style></defs><g id="Layer_2" data-name="Layer 2"><g id="Layer_1-2" data-name="Layer 1"><rect x="1.62" y="1.49" width="600" height="70"/><path d="M601,71.49c.09.7.28.3.25-1.64l-.34-1.38Z"/><path d="M601.57,58.41c-.17-2.29-.45-4.92-.75-3.44.32,2.26.18,2.81.56,5.25,0,1.94-.1,3.39-.23,3.06.09.69-.07,3,.14,4.07a56.56,56.56,0,0,0,.05-9.08C601.42,57.55,601.5,58.25,601.57,58.41Z"/><path d="M468.51,1l1.23,0Z"/><path d="M350.77.84a6.91,6.91,0,0,0,1.32-.07A5.87,5.87,0,0,0,350.77.84Z"/><path d="M330.67.48l1.18,0A8,8,0,0,0,330.67.48Z"/><path d="M468.51,1l-3.14-.1A18.7,18.7,0,0,0,468.51,1Z"/><path d="M600.77,32.21c0,.65,0,1.2.08,1.7l0-1.6A.93.93,0,0,1,600.77,32.21Z"/><path d="M520.41.75h1c.28,0,.55-.08.8-.13Z"/><path d="M560.25.7a3,3,0,0,0-1.56.4,10,10,0,0,1,2-.2C560.67.85,560.55.79,560.25.7Z"/><path d="M601.91,23.28l0,1.12C601.93,24.11,601.92,23.62,601.91,23.28Z"/><path d="M491.9.69a1.35,1.35,0,0,0-.36-.1S491.68.66,491.9.69Z"/><path d="M555.44,70.17s0,0,0,0C555.68,70.19,555.75,70.17,555.44,70.17Z"/><path d="M601.62,71.56H601c-.07.06-.14.11-.14.16Z"/><path d="M293.88.12H294C295,.09,294.46.1,293.88.12Z"/><path d="M.45,47c.26-3.83.33,6.23.61.47C1,48,.62,42.19.45,47Z"/><path d="M600.8,31.17V29.54C600.79,30.28,600.79,30.79,600.8,31.17Z"/><path d="M1.06,47.43h0l0-.6Z"/><path d="M209.11.29a7.29,7.29,0,0,0,.87.12A3,3,0,0,0,209.11.29Z"/><path d="M272.26.69l-1.56,0Z"/><path d="M176.32.68c-.85,0-1.13-.06-2.3,0l.36,0A16.5,16.5,0,0,1,176.32.68Z"/><path d="M142.2.68l.63.06h1.08Z"/><path d="M451.73,70.3a11.11,11.11,0,0,1,1.57.26C452.78,70.36,457.79,70.28,451.73,70.3Z"/><path d="M600.93,32.19a3.31,3.31,0,0,1-.13-1c0,.4,0,.77,0,1.14C600.86,32.41,600.9,32.43,600.93,32.19Z"/><path d="M174.94,2.9l-5.43,0Z"/><path d="M206.89,70.34l1.25,0A11.87,11.87,0,0,0,206.89,70.34Z"/><path d="M153.42,2.9c-1-.1-2-.16-3-.19-.23,0-.48,0-.63.07Z"/><path d="M453.32,70.56h0Z"/><path d="M489,69.89c-5.17,0-2.43.36-3.52.57-6.17.11-2.86-.27-5-.46-3.85.1-6.8.44-9.67.43-.21-.07-.77-.09-.12-.16-4.07.29-12.08,0-16.83.38a2.89,2.89,0,0,1-.61-.09c.76.18.88.37.72.51a35.17,35.17,0,0,1-5.17,0,11.21,11.21,0,0,0,2.21-.17l-2.43.11c-2.19-.35,3.31-.12,3.31-.38-4.73.11-10.25.4-13.87.3-.76-.34,8.48-.11,3.64-.41l5.61.12c-4.29-.53,3.41,0-.53-.53-7.38-.1-8.26.17-15.62.07-1.66.19.54.28-1.12.47-10.46.34-8.24-.85-15.93-.4a32.18,32.18,0,0,1-8.25.43l1.87-.39c-7.15,0-4.08.56-11.57.3,1.33-.15,5.62-.13,4.54-.17-4.85-.31-3.43.21-7.16.21l-.77-.34-24.43.36c.47-.1,1.91-.2-.06-.31-10.63.17-22.69,0-32.95-.24l-3.92.29c-.91,0-1.69-.13-.7-.19-4-.11-.21.19-2.13.3-2.27,0-3-.16-1.56-.25-7.05.25-20.09.53-27.52.22l1.45-.09c-5.79-.12-6.53.6-11.9.33l1,0c-12.56-.13-26.44.14-36-.3-1.82.42-12.43-.19-13.24.4-7.17-.29-5.11-.4-15.21-.6-2.7,0-4,.37-7.36.43l-.08-.3-4.53.32-2.41-.37-3.12.08a8.23,8.23,0,0,1,2.46.23c-2.45.07-5.42,0-7.81-.08a32.15,32.15,0,0,1-4.22-.3L187,70.42a35.4,35.4,0,0,1,3.72-.24c-6.17.31-1.12-.33-6.77,0,.75.07-.41.19-.54.25-2.82-.19-9.24-.19-14-.11l.91-.21c-8.58-.06-18.08.1-27.7.09,3.45.1,2.66.47-.16.51l-1.13-.33c-1.82.2,2.95.12-.79.37-3.6,0-2.42-.37-.35-.48l-4.37.12c-.26-.1.76-.15,1-.28-1.79.21-7.54-.32-10.13,0l-.25-.1-21.81.13c-.16.28-3.22.22-5.55.44-5.76-.09-12.15-.31-19.09-.28-4.88.14-1.42.24-3.62.4-.35-.25-7.28-.23-3.69-.41-8.33,0-10.63,0-21.17.26,1.15.1,2.43.15,1.77.23-1.91,0-4.35-.1-4.08-.23l.51,0c-11.82.38-27.28-.75-36.7-.22l.53,0-9.76.28H3.19l-.19,0c-.1,0-.13,0-.13,0a1.37,1.37,0,0,1,.31-.08H3.4l.29,0a2.2,2.2,0,0,0,.39-.05c.14,0-.06-.08-.85-.12l-.39.06,0-.2V70a2,2,0,0,1,0-.22l0-1.68,0-3.16,0-5.78c0-3.7.07-7.23-.06-11.34.75-6.71-.06-23.82.43-32.88l-.18.53a28.83,28.83,0,0,1,.14-4.56c-.14.25-.16,2.54-.26,1.09L2.76,2.63l11.47.05L27,2.82l25.46.28c7.44,0,4.23-.92,13.6-.49l-2.66.33c15-.4,30.69,0,45.38-.32a16,16,0,0,1-2.33.17c1.55.12,4.42.12,6.91.07A34.79,34.79,0,0,0,118,2.61c2.29,0,.53.17,1.94.27,3.11.14,7.81-.3,9.47-.06a9.1,9.1,0,0,1-1.45.09c2-.11,9.45,0,7.51-.25,5.52.14,10.55-.12,15,0,2.87-.31,9.44.14,10.35-.29-.39.45,9.67.36,13.16.15-1.17.14,3,.14,1.66.33,4,0,7.63-.09,6.93-.32,7.33.54,14.74-.44,18.87.26,11.82-.25,22.76-.41,33.39-.52-.39.45-11.76.05-11.3.52,10.09-.19,15.91-.57,25.91-.46,2.59.06-1.47.19-2.35.27,10.08-.19,19.49,0,28.46-.21a15.47,15.47,0,0,1-1.91.13c1.77,0,4.11.06,3.91-.14l-1.72,0c-2.82-.29,7-.62,7.33-.78-3,.59,8.86.15,4.09.89,1.17,0,2.63-.13,2.36-.27,1.73,0,2.27.12.52.28,6.33-.11,4.08-.33,9.82-.33a16,16,0,0,1-1.77.26c2.9-.2,5.82-.39,10.67-.31-.3.06.27.14-1.18.14,8.33,0,14.19-.52,23.32-.33-2.69.43,3.11.14,3.59.52l4.91-.11-2-.19c4.3,0,8.1-.26,11.8-.14l-3.2.15,8.06-.07-4.56-.14c4.35-.19-.46-.47,5.26-.37-1.16,0,4.3,0,6.54.23h0c2.13-.12,4.32-.24,7.5-.15.82.12-.67.41-.13.49,2.1-.31,10.07-.09,12.73-.42-.88.08-.93.28-.64.32l1.76-.26c2,.08,2.29.12,2,.28,6,.05-1.9-.47,5.21-.27-.56,0-.29.06-1.45.1,7.14.1,13.8-.16,20.37,0,1.93.38-5.74.09-3.52.41,9.46-.07,19.6-.45,28.76-.36l-1.71,0c1.27-.53,6.82.26,11.45,0-1.13,0-1.48.29-1.18.23,6.27.09,12.83-.13,22.33-.29l-1.18.13c3.7.12,9.74.07,13.73.13,1.19-.13,3.47-.11,2.08-.31,12.31.78,23.49-.41,34.41.23-1.3,0-3.11.12-2.07.12L521,2.1a18.09,18.09,0,0,0-3.17-.32c1.18-.14,3.8-.25,6.11-.25-4.19.16,0,.37,1.84.5-.3-.07.32-.15.16-.22,4.87.41.82-.46,7.46-.19l-.36.13c2.49-.07,4.78-.23,7.46-.19,1.11.27-2.65.12-2.82.34,3.76,0,7.42-.5,10.83-.24L543,1.81a68.16,68.16,0,0,0,6.89.29h-.27l6.37.14-1.63-.08c4.71-.7,9.59-.13,15.93-.59-6.16.43-1,.25-1.49.56,1.62.08,4.08.17,3.38.26,3-.25,5,.19,9.23-.17.19.1,3.21,0,2.53.26,3.9-.08-.92-.17-.59-.29,2.47-.14,5.3-.1,8.37,0l4.78.1,2.51,0h1.79c0,.48,0,1,0,1.46L601,6c.19,7.45.52,8.83.68,15.74-.15,2.34-.35-1.91-.35-1.91-.15,3.77-.12,6.6,0,10.15-.08-.72-.16,0-.27,1.1,0,2.85.36,1.9.22,5.66a26.27,26.27,0,0,1-.4-2.85c.12,3.36.24,6.67.36,10.14-.17.93-.25-2.09-.37-3.32.08,3.91.16,10.12.43,11.32l.09-2.5c0,1.42-.23.73-.28-.32-.21-3.34.1-4.82.2-5l.06,2.47c.57-2.54-.09-9.93-.06-14.91l.42,2.07-.35-5.1c.11-1.09.34-1.83.4.63.21-3.57-.15-3.16.08-6.23,0-.34.06-.19.08.13l-.13-3.49c.09.68.3-.58.24,1.56.24-6.26-.32-10.09,0-12.45l0,.52c-.07-4.34-.14-4.55-.25-4.49s-.11.13-.17-.18a6.69,6.69,0,0,1-.11-.85c0-.39-.07-.93-.13-1.68l.1-.6c-.46-.11-1.1-.21-1.76-.32L597.82,1l-.86.31c-.89,0-2.67,0-2.34-.16-3.33.21.57.13-1.37.33-4.31-.28-11.89.13-12.86-.36-1.55.24,4.12.18-.48.34-1.31-.52-5.32.09-9.26-.15,1.21-.27,4.94-.12,1-.36-2.38.45-7.67-.1-11,0-.15.37-7.22.15-12.8.28.35-.13-10.49-.2-15.68-.34l.15-.06c-1,.37-6.36.3-10.25.38.15-.22.85-.31,3-.41h-3.66A40.2,40.2,0,0,1,517,1l.92-.28c-4.88,0-9.82.32-16.09.14-.35.26,5,.71-1.65.89-.24-.14-.49-.38,1.25-.44-.57,0-2,.12-3.17.06l2.65-.23c-2.86-.11-1.5.19-3.78.17,0-.2-1.69-.14-1.37-.3.59,0,2,.08,2.87,0-2.57,0-5.69-.16-6.72-.31.23.12,0,.27-1.88.3-4.88,0-1.67-.24-4.51-.34-1.18.13-4.3,0-4.38.29a9.45,9.45,0,0,1-2.24-.22c-2.52.13-11.78,0-8.94.35l.65,0h-.42c-8.27.3-17.18-.16-25.38,0V1c-4.9.12-10.9.07-14.4.28-1.45,0-3.42-.18-2.8-.3-3.74.08-4.16.19-9.57,0,3.76-.18-1.3-.16,3.86-.13-4.87-.09-6-.24-11.19,0,1.77-.26-3.67-.32-6-.25l3.41.18c-2.6,0-4.87,0-7.19,0L402.2.46c-9.95-.4-17.95.69-25.53,0-2.63.23,5.41.16,3.05.43-4.58,0-9.35-.52-10.78-.52-6.28-.19-5.86.48-12.42.36.84.12,1.63.43-3.28.55-4.58-.05-5.63-.5-2.74-.6a6,6,0,0,1,1.59.07c1.48,0,3.42-.09,1.61-.22l-.6.12c-2.27-.12-8.58-.11-7.1-.31-3.46.12-1.48.2,1.09.26-5.88-.17-9.19,0-15.24-.12,1,.06,1.85.2.89.2-8.87-.14-3.9.23-9.92.28C319.41.8,324.05.55,318,.7c-3.69-.12-.78-.32.69-.41-5.51.23-10.3-.15-13.45-.19l2.9-.1c-1.74.06-3.16.06-4.61.05l1.66.24a19.62,19.62,0,0,1-3.12-.14c-1.75.16,1.35.4-2.14.61-2.27-.12-6.92.13-7.71-.19,7.15.11-.79-.31,5.26-.36-1.16,0-2.59,0-4.3,0-.26,0,.24-.07.71-.08-6.84-.28-3.15.35-10.24.35.9-.18-1.64-.34-2.8-.3,2.86,0,1.37.29-1.25.43-4.55-.14-4.95.1-7.33.09L275,.75c-.92.18-3.19.15-6.37.21-.27-.14,2.88-.09,1.75-.16-3.52.32-7.95-.32-12.86-.11-2.27-.12-.22-.33-2.22-.41-5.5.23-5.95-.25-11.73-.06,1.66.24,1.95.18-2.12.42l9.51-.17-6.1.35c2.87,0,6-.15,7.77-.11C249.7.9,250,.84,251.37,1c-3.92-.36-7.78.21-12.31,0l.13-.59c-6.82-.27-12.12.3-21,.15l2.84.1c-1.18.24-5.47,0-8.33.13C213,.6,211.2.53,210,.41c.14.15-6.49,0-7.29.38l-4-.26c-7.15-.11-8.16.56-15,.49,2.07-.21-1.06-.35,3.55-.5a27.38,27.38,0,0,0-4.4.1c-1.34-.13-6.36.26-8.47.07a20.1,20.1,0,0,1-3.86.28c-.28,0,0-.1,0-.1s-4,.14-1.79.35C161.67.61,149,1.27,142.83.74l-15.6.14c.29-.05,0-.09.88-.07-6.28-.19-3.86.56-11,.36C113.46.85,120.9,1,118.63.88c-1-.65-8.62.08-13.42-.3l1.16,0c-3.67-.22-9,.24-15,.2,0,0,.3-.06,0-.1-4.1.33-11.87.44-17.64.53,1.79-.25,2.62-.13,1.52-.39-2.58,0,.76.41-4.4.49C69.25,1.14,65.52,1,65,.74l4.87,0c-2.5-.35-6.31,0-8.87,0l.33-.15c-7.47,0-7.57.44-15.6.41l.83.12c-4.38.39-3.67-.22-8.05.07L37.22.73c-2.89.09-10.14.38-15.32.45,2.94-.29,9-.44,12.76-.61-2.86,0-9.74,0-11.24.22C24.58.75,26,.66,27.18.72q-5.28.47-13.87.45C13.65.92,12.17.82,9.88.76L6,.72.82.69l0,3-.06,2C.69,7.05.62,8.11.52,8.83.8,18.94.4,28.89.44,40.67c.6-4.18,0,3.43.63,2.71,0,2.74,0,3.79,0,4L.69,55.73c-.17,2-.13-2.61-.27-2.36,0,6-.26,2.52-.42,6.5.22-.82.31,2.09.23,5.51l.28-4.82c.12,3.16.08,5,0,6.45l-.14,2.1,0,.54,0,.85,0,2.35H3.68c.78,0,1.68,0,2.72-.07L3.73,73c4.34-.12,16,0,20.27-.49.77.07,1.78.24-.13.28,10.38.07,23.1-.52,31.16-.22l-.78.15A55.46,55.46,0,0,1,60,72.57c-.12.06-.78.15.12.16s5.14-.26,7.71-.18l-2.2.17c10.12.2,15.54-.41,24-.51,0,.44,8,.58,11.92.65l-.14.07c11.79,0,20-.37,30.93-.54,6.78.48,22.95.2,33.84.47-1.66-.08.27-.35,2.21-.39,2.55.09,7.06-.31,6.66.1h-.92c1.93.4,7.18.29,11.28.3l.68-.53c10.72.77,28.1-.28,33.95.41,2.59-.13,5.79-.13,8.36-.26l-.14.28c7.17.07,10.75.11,19.61,0l-1.8.2c5,0,6.31-.81,10.92-.83l1.39.42c8.72,0,17.55.37,26.17,0a4.34,4.34,0,0,1-1.81.2c4.1,0,15.88.29,14.39-.29.1.38,9,0,13.71-.13l-.74.28a88.23,88.23,0,0,1,9.66-.55c1.31,0,1.15.22-.6.15,4.39.15,3.42-.26,8.74-.12l-2,.18a44.25,44.25,0,0,0,6.64-.28,63.23,63.23,0,0,1,9.22.32,31.11,31.11,0,0,1,5.74-.28c.36.09-.61.15-1.1.18,7.55.19,11.22-.32,16.41,0a2,2,0,0,0,.87.16c-6,0-10.81,0-10.36,0,0,.26,4.84.3,1,.66,3.88-.19,10.53-.62,15.24-.49l.63.08-.49,0c1.09,0,2.06,0,3,0,1.51,0,2.46.08,3.91.08.56.21,5.55.11,8,.12-.2-.28,3-.23,0-.46a13.66,13.66,0,0,1-2.06,0c-.36,0-.79,0-1,0l.17,0h-6a45.91,45.91,0,0,1,6.57-.1c1.24-.18,2.6-.37,3.37-.46,3.3.4,9.67.61,10.55.85,7.37-.16,17.36-.1,22-.63a12.75,12.75,0,0,1,3.19.23c-1.21.06-2.65,0-3.31.12,4.19-.13,12.42,0,13.42-.42,5.28.17-3,.34,4.29.28l-1,.11c14.27.59,23.2-.94,39-.18A14.48,14.48,0,0,1,472,72c18,.33,37.18-.31,55,.22a69.92,69.92,0,0,0,8.69-.31l1.1.3,5.28-.35c7.49-.25,13,.74,22.45.26l-1.23-.2c3.41,0,10.79-.12,10.22.11a10,10,0,0,1,2.45-.11l.1.16,8.36-.27c6.49.12-1,.63,8.45.66,3.52-.06,10-.46,8.69-.57a17.62,17.62,0,0,1-3.73-.25l3.22-.09c.58-.46,3-.94-4.84-1.26l-5.5.28-1.78-.22,4.64,0a35.53,35.53,0,0,0-6.16.11,11.56,11.56,0,0,0-2.31-.25l-5.4.44c-.65-.18,2.42-.36-1.2-.46-2.53.21,2.43.41-1.76.54a20.13,20.13,0,0,0-5-.2c-.43-.12.22-.2,1.45-.25-2.75.15-7.28.06-8.7.31-2.74-.26-9.28.07-9-.37-.87.1-4.85.34-7.37.36,4.61-.53-9.46,0-8.24-.59-3.41.47-12.33.21-18.38.47a9.6,9.6,0,0,1,1.53-.09c-3.4,0-4.39-.18-6.58-.27-.43.39-5.74.48-8.6.72-4.17-.38,2.54-.46,1.23-.82.21.31-7.25.31-5.83.58a25.11,25.11,0,0,1-4.4-.44c-.56.49-3,.08-5.62.38-4.61-.24-1.19-.45-6.26-.31C484.52,70.06,489,69.89,489,69.89Zm-120.67.85h2.49Zm-10.14,0h4.4c.35.1,0,.2-1.05.2A25,25,0,0,0,358.22,70.74Zm21.45,2a11.59,11.59,0,0,1-2.37-.07l2.81,0,.19,0A3.2,3.2,0,0,1,379.67,72.69Z"/><path d="M382.55,72.32l.66,0-.95-.06-.57.09Z"/><path d="M470,1.07h-.21a3.94,3.94,0,0,1,.44,0Z"/><polygon points="218.19 70.2 218.2 70.28 219.09 70.21 218.19 70.2"/><path d="M525.8,2a5,5,0,0,0,.73.08A5.32,5.32,0,0,0,525.8,2Z"/><path d="M549.93,2.1l3.41.1Z"/><path d="M568.48,2.24a1.24,1.24,0,0,0,.36-.12h0Z"/><path d="M273.54,2.57h-.72C271.15,2.63,272.29,2.61,273.54,2.57Z"/><path d="M361.31,1.91,358.49,2A9,9,0,0,0,361.31,1.91Z"/><path d="M175.53,2.9h0Z"/><path d="M354.41,2c1.56,0,2.87,0,4.08,0C357.21,2,355.7,2,354.41,2Z"/><path d="M600.74,48.75v.89s0,0,0,.11Z"/><path d="M600.77,49.75l0,1A5.84,5.84,0,0,0,600.77,49.75Z"/><path d="M600.88,52.83l-.07-2.09A16.46,16.46,0,0,0,600.88,52.83Z"/><path d="M600.87,24.19l-.1-.28C600.79,24.06,600.82,24.16,600.87,24.19Z"/><path d="M600.84,16.73c0,1.78-.22,4.46-.15,7l.08.23C600.62,22.74,601,18.42,600.84,16.73Z"/><path d="M585.71,1l6.25.08c-1.09-.1-2.53-.25.32-.28C584.39.48,593.9,1.05,585.71,1Z"/><path d="M566.32.85c3.36,0,0-.16.14-.22C564.33.73,563.81.75,566.32.85Z"/><path d="M426.2.84l.34-.25C424,.63,426.52.69,426.2.84Z"/><polygon points="399.42 2.17 401.94 2.33 403.14 2.09 399.42 2.17"/><polygon points="383.59 0.34 384.73 0.31 380.4 0.4 383.59 0.34"/><path d="M148.27.44l.78.31C150.8.69,151.17.34,148.27.44Z"/><path d="M46.67.76A33.63,33.63,0,0,0,41,.65C43.23.67,45.51.8,46.67.76Z"/><polygon points="191.24 72.73 189.2 72.84 193.05 72.75 191.24 72.73"/><rect class="cls-1" x="15.12" y="11.49" width="143.75" height="50"/><path d="M158.2,61.49c.09.2.28.09.25-.48l-.34-.4Z"/><path d="M158.82,57.71c-.17-.67-.45-1.43-.75-1,.32.65.18.81.56,1.52,0,.56-.1,1-.23.88.09.2-.07.88.14,1.18a4.83,4.83,0,0,0,.05-2.63C158.67,57.46,158.75,57.66,158.82,57.71Z"/><path d="M150.13,11l.36,0Z"/><path d="M116.09,10.84c.25,0,.36,0,.38-.07C116.23,10.79,116,10.81,116.09,10.84Z"/><path d="M110.27,10.48l.35,0A.72.72,0,0,0,110.27,10.48Z"/><path d="M150.13,11l-.91-.1C149.16,11,149.69,11,150.13,11Z"/><path d="M158,50.13a2.18,2.18,0,0,0,.08.49l0-.46Z"/><path d="M159.6,17.76V18a1.71,1.71,0,0,0,.13.23Z"/><path d="M159.65,29.28c0-.26-.27-.35-.39-.45a1.1,1.1,0,0,1,.19.57C159.51,29.4,159.57,29.37,159.65,29.28Z"/><path d="M159.16,47.55l0,.32Z"/><path d="M156.9,10.69a.27.27,0,0,0-.11-.1S156.83,10.66,156.9,10.69Z"/><path d="M145.52,60.17s0,0,0,0S145.6,60.17,145.52,60.17Z"/><path d="M158.87,61.56h-.19a.53.53,0,0,0,0,.16Z"/><path d="M99.63,10.12h.05C100,10.09,99.8,10.1,99.63,10.12Z"/><path d="M14,24.64c.26-1.11.33,1.8.61.13C14.45,24.93,14.12,23.26,14,24.64Z"/><path d="M158.05,49.83v-.47A3.59,3.59,0,0,0,158.05,49.83Z"/><path d="M14.56,24.77h0l0-.17Z"/><path d="M75.12,10.29a.83.83,0,0,0,.25.12S75.31,10.34,75.12,10.29Z"/><path d="M93.38,10.69l-.45,0Z"/><path d="M65.64,10.68a2.38,2.38,0,0,0-.67,0l.11,0A1.39,1.39,0,0,1,65.64,10.68Z"/><path d="M55.77,10.68a1,1,0,0,0,.18.06h.31Z"/><path d="M115.52,60.3a1.47,1.47,0,0,1,.46.26C115.83,60.36,117.28,60.28,115.52,60.3Z"/><path d="M158.18,50.12a.38.38,0,0,1-.13-.29l0,.33S158.15,50.19,158.18,50.12Z"/><path d="M65.24,12.9l-1.57,0C64.11,12.89,64.68,12.9,65.24,12.9Z"/><path d="M44.72,60.34l.36,0A1,1,0,0,0,44.72,60.34Z"/><path d="M59,12.9a3.71,3.71,0,0,0-.89-.19.75.75,0,0,0-.18.07Z"/><path d="M116,60.56Z"/><path d="M126.31,59.89c-1.49,0-.7.36-1,.57-1.78.11-.82-.27-1.43-.46-1.11.1-2,.44-2.8.43-.06-.07-.22-.09,0-.16-1.18.29-3.5,0-4.87.38a.41.41,0,0,1-.18-.09.46.46,0,0,1,.21.51c-.67,0-1.24.23-1.49,0a1,1,0,0,0,.63-.17l-.7.11c-.63-.35,1-.12,1-.38a29,29,0,0,1-4,.3c-.22-.34,2.45-.11,1-.41l1.62.12c-1.24-.53,1,0-.15-.53-2.13-.1-2.39.17-4.52.07-.48.19.16.28-.32.47-3,.34-2.38-.85-4.61-.4a3,3,0,0,1-2.38.43l.54-.39c-2.07,0-1.18.56-3.35.3.39-.15,1.63-.13,1.31-.17-1.4-.31-1,.21-2.07.21l-.22-.34c-2.2.06-4.62.3-7.06.36.13-.1.55-.2,0-.31a81.41,81.41,0,0,1-9.53-.24l-1.13.29c-.26,0-.49-.13-.2-.19-1.16-.11-.06.19-.62.3s-.87-.16-.45-.25a37.66,37.66,0,0,1-8,.22l.42-.09c-1.67-.12-1.89.6-3.44.33l.3-.05c-3.64-.13-7.65.14-10.42-.3-.53.42-3.59-.19-3.83.4a31.63,31.63,0,0,0-4.4-.6c-.78,0-1.16.37-2.12.43l0-.3-1.31.32L46,60.23l-.91.08c.36,0,.77.14.71.23a8.5,8.5,0,0,1-3.48-.38L39,60.42c.08-.12.63-.16,1.08-.24-1.79.31-.33-.33-2,0,.22.07-.12.19-.16.25a19,19,0,0,0-4-.11l.26-.21c-2.48-.06-5.22.1-8,.09,1,.1.77.47,0,.51l-.33-.33c-.53.2.85.12-.23.37-1,0-.7-.37-.1-.48l-1.26.12c-.08-.1.22-.15.3-.28-.52.21-2.19-.32-2.93,0l-.08-.1c-1.39,0-2.4,0-3.34.06l-1.4,0-.25,0a.1.1,0,0,1-.06,0c-.22.19-.18,0-.39-.28.09-1.6.31-3.5.29-5.49-.14-1.41-.24-.41-.41-1,.26-.1.23-2.1.42-1.06,0-2.41,0-3.08-.26-6.12-.11.33-.15.7-.24.51,0-.56.11-1.26.23-1.18l0,.14c-.39-3.41.75-7.89.21-10.61l0,.15-.28-2.82c0-1.3.19.78.35-.18-.43-3,.06-4.81-.22-7.32.75-1.94-.06-6.89.43-9.51l-.18.16c-.18-.68.1-.82.14-1.32-.14.07-.16.73-.26.31l0-1.88,2.5,0,3.69.14c2.46.1,4.93.22,7.36.28,2.15.05,1.22-.92,3.93-.49l-.76.33c4.34-.4,8.87,0,13.12-.32a1.48,1.48,0,0,1-.68.17,7.63,7.63,0,0,0,3.34-.18c.66,0,.15.17.56.27.9.14,2.26-.3,2.74-.06.08,0-.26.07-.42.09.59-.11,2.73,0,2.17-.25,1.6.14,3-.12,4.32.05.83-.31,2.73.14,3-.29-.12.45,2.79.36,3.8.15-.34.14.88.14.48.33,1.15,0,2.21-.09,2-.32,2.12.54,4.26-.44,5.45.26,3.42-.25,6.58-.41,9.66-.52-.11.45-3.4,0-3.27.52a63.13,63.13,0,0,1,7.49-.46c.75.06-.42.19-.67.27,2.91-.19,5.63,0,8.22-.21,0,.05-.28.09-.55.13.51,0,1.19.06,1.13-.14l-.5.05c-.81-.29,2-.62,2.13-.78-.87.59,2.56.15,1.18.89.34,0,.76-.13.68-.27.5,0,.66.12.15.28,1.83-.11,1.18-.33,2.84-.33,0,.1-.34.14-.51.26a9.45,9.45,0,0,1,3.08-.31c-.08.06.08.14-.34.14,2.41,0,4.11-.52,6.75-.33-.78.43.89.14,1,.52l1.42-.11-.57-.19c1.25,0,2.35-.26,3.42-.14l-.93.15,2.33-.07-1.32-.14c1.26-.19-.13-.47,1.53-.37a17.26,17.26,0,0,1,1.89.23h0a6.83,6.83,0,0,1,2.17-.15c.24.12-.19.41,0,.49.61-.31,2.92-.09,3.69-.42-.26.08-.27.28-.19.32l.51-.26c.58.08.66.12.57.28,1.73.05-.55-.47,1.5-.27a2.53,2.53,0,0,1-.42.1c2.07.1,4-.16,5.89,0,.56.38-1.66.09-1,.41,2.73-.07,5.66-.45,8.31-.36l-.49,0c.37-.53,2,.26,3.31,0-.33,0-.43.29-.34.23,1.81.09,3.71-.13,6.46-.29l-.34.13c1.06.12,2.81.07,4,.13.34-.13,1-.11.6-.31a13.36,13.36,0,0,0,2.85.28l.7,0,.58,0,.94-.1a12.76,12.76,0,0,1-.1,3.85c0-.38-.12-.9-.12-.6l.13,2.69c.23-.21.14-.35.32-.92a6.07,6.07,0,0,1,.24,1.77c-.15-1.21-.37,0-.5.53.07-.09.15.09.22.05-.41,1.4.47.23.19,2.15l-.12-.1a16.52,16.52,0,0,1,.19,2.15c-.27.33-.13-.76-.35-.81,0,1.09.51,2.15.24,3.13-.07-.46-.07-1.12-.15-1.59a6.17,6.17,0,0,0-.28,2v-.08l-.15,1.84.09-.47c.69,1.36.13,2.77.58,4.61-.43-1.79-.25-.3-.55-.43-.09.46-.18,1.18-.26,1,.24.87-.2,1.45.16,2.67-.1.06,0,.93-.25.74.07,1.12.17-.27.29-.18.33,1.74-.41,4.09,0,6.59.19,2.15.52,2.55.68,4.55-.15.67-.35-.55-.35-.55a11.06,11.06,0,0,0,0,2.93c-.08-.21-.16,0-.27.32,0,.82.36.55.22,1.63a2.82,2.82,0,0,1-.4-.82c.09,1,.28,1.93.36,2.93-.17.27-.25-.6-.37-1a12.28,12.28,0,0,0,.43,3.28l.09-.73c0,.41-.23.21-.28-.09-.21-1,.1-1.39.2-1.45l.06.72c.57-.74-.09-2.88-.06-4.32l.42.6-.35-1.47c.11-.32.34-.53.4.18.21-1-.15-.91.08-1.8,0-.1.06,0,.08,0l-.13-1c.09.19.3-.17.24.45.24-1.81-.32-2.92,0-3.6l0,.15c-.14-2.51-.3-.24-.66-2.13l.75-1.26-.3-.25c0-.26,0-.77.15-.68-.2-1-.13.17-.33-.39.28-1.25-.13-3.44.36-3.72-.23-.45-.18,1.19-.34-.14.52-.38-.09-1.54.15-2.68.27.35.13,1.43.37.29-.46-.69.1-2.22,0-3.18-.36,0-.15-2.09-.27-3.7.12.1.2-3,.33-4.54l.06.05c-.37-.3-.3-1.84-.37-3,.22,0,.3.25.4.86V18a3.42,3.42,0,0,1-.22-1.27l.27.27c0-.71-.09-1.42-.14-2.18,0-.38,0-.77,0-1.18V13l0-.93c-.12,0-.3.54-.47.7s-.33,0-.41-.71c.14-.16.37-.46.43.08a4.7,4.7,0,0,1-.07-.8l-.13,0,.19,0c.06.17.12.36.19.58,0-.59,0-.66-.07-.7a1.45,1.45,0,0,1-.62.1c.16-.2-.5-.14-.31-.3a7.52,7.52,0,0,0,1.08,0c-.46,0-1-.06-1.45-.11l-.65-.09a1.17,1.17,0,0,1-.32-.11c.06.12,0,.27-.55.3-1.41,0-.48-.24-1.3-.34-.34.13-1.24,0-1.27.29a.93.93,0,0,1-.64-.22c-.73.13-3.41,0-2.59.35l.19,0h-.12c-2.39.3-5-.16-7.34,0V11c-1.42.12-3.15.07-4.16.28-.42,0-1-.18-.81-.3a10.32,10.32,0,0,1-2.77,0c1.09-.18-.38-.16,1.11-.13a9.75,9.75,0,0,0-3.23,0c.51-.26-1.06-.32-1.73-.25l1,.18c-.76,0-1.41,0-2.08,0l.36-.34c-2.88-.4-5.19.69-7.39,0-.76.23,1.57.16.89.43a28.45,28.45,0,0,1-3.12-.52c-1.82-.19-1.69.48-3.59.36.24.12.47.43-1,.55-1.32-.05-1.63-.5-.79-.6.32,0,.47,0,.46.07.42,0,1-.09.46-.22l-.17.12c-.66-.12-2.48-.11-2.05-.31-1,.12-.43.2.31.26-1.7-.17-2.66,0-4.4-.12.27.06.53.2.25.2-2.56-.14-1.13.23-2.87.28-1-.18.36-.43-1.39-.28-1.07-.12-.23-.32.2-.41a16.44,16.44,0,0,1-3.89-.19l.84-.1a9,9,0,0,1-1.34.05l.48.24c-.49,0-.91,0-.9-.14-.51.16.39.4-.62.61-.66-.12-2,.13-2.23-.19,2.07.11-.23-.31,1.52-.36a7.4,7.4,0,0,1-1.24,0c-.08,0,.07-.07.2-.08-2-.28-.91.35-3,.35.26-.18-.47-.34-.81-.3.83,0,.4.29-.36.43a9.19,9.19,0,0,0-2.12.09l.79.06a5.62,5.62,0,0,1-1.84.21c-.08-.14.83-.09.5-.16-1,.32-2.3-.32-3.72-.11-.65-.12-.06-.33-.64-.41-1.59.23-1.72-.25-3.39-.06.48.24.56.18-.61.42l2.75-.17-1.77.35c.83,0,1.75-.15,2.25-.11-.84.19-.76.13-.36.33-1.13-.36-2.25.21-3.56,0l0-.59c-2-.27-3.5.3-6.07.15l.83.1c-.35.24-1.58,0-2.41.13.07-.2-.45-.27-.8-.39,0,.15-1.87,0-2.11.38l-1.14-.26c-2.07-.11-2.36.56-4.35.49.6-.21-.3-.35,1-.5-.67,0-1.26,0-1.27.1-.39-.13-1.84.26-2.45.07A1.93,1.93,0,0,1,64,11c-.08,0,0-.1,0-.1s-1.16.14-.51.35c-2.05-.61-5.72,0-7.5-.48-1.45.07-3.19.13-4.51.14.09-.05,0-.09.26-.07-1.82-.19-1.12.56-3.18.36-1.06-.32,1.09-.17.43-.29-.28-.65-2.49.08-3.88-.3l.34,0c-1.06-.22-2.59.24-4.33.2,0,0,.09-.06,0-.1a30.44,30.44,0,0,1-5.11.53c.52-.25.76-.13.44-.39-.74,0,.22.41-1.27.49-.48-.14-1.56-.27-1.71-.54l1.41,0c-.72-.35-1.82,0-2.56-.05l.09-.15c-2.16.05-2.19.44-4.51.41l.24.12c-1.26.39-1.06-.22-2.32.07l-.39-.39c-.83.09-2.93.38-4.43.45a29.89,29.89,0,0,1,3.69-.61,15.58,15.58,0,0,0-3.25.22,4,4,0,0,1,1.09-.07,13.89,13.89,0,0,1-4,.45c.1-.25-.33-.35-1-.41l-.54,0h-.76l-1.89,0a10,10,0,0,1-.3,2.92c.28,2.92-.12,5.8-.08,9.21.6-1.21,0,1,.63.78a4.2,4.2,0,0,1,0,1.17l-.37,2.4c-.17.57-.13-.75-.27-.68-.05,1.74-.26.73-.42,1.88.22-.24.31.6.23,1.59L14,28.57c.33,2.43-.51,2.1-.19,4.54l-.19-.77c.11,1.26,0,4.63.49,5.86-.07.22-.24.52-.29,0-.07,3,.53,6.67.22,9L13.9,47A4.28,4.28,0,0,1,14,48.62c-.06,0-.14-.22-.15,0a9.42,9.42,0,0,1,.17,2.23l-.17-.64c-.19,2.93.41,4.49.52,7-.22,0-.37.57-.47,1.29,0,.36-.09.75-.12,1.13l0,.3,0,.49,0,.9-.06-.05v1.67l2.05,0,1,0,.52,0c.67,0,1.32-.1,2-.15,1.29-.11,2.56-.24,4-.32,2,.48,6.64.2,9.79.47-.49-.08.07-.35.63-.39.74.09,2-.31,1.93.1h-.26c.55.4,2.07.29,3.26.3l.19-.53c3.1.77,8.13-.28,9.82.41.75-.13,1.68-.13,2.42-.26l0,.28c2.07.07,3.11.11,5.67,0l-.52.2c1.44,0,1.82-.81,3.16-.83l.4.42c2.52,0,5.07.37,7.56,0,0,.06-.11.19-.52.2,1.19,0,4.59.29,4.16-.29,0,.38,2.6,0,4-.13l-.21.28a7.81,7.81,0,0,1,2.79-.55c.38,0,.33.22-.17.15,1.26.15,1-.26,2.52-.12l-.57.18A3.92,3.92,0,0,0,81.08,62a5.47,5.47,0,0,1,2.66.32,2.81,2.81,0,0,1,1.66-.28c.11.09-.17.15-.31.18,2.18.19,3.24-.32,4.74,0a.29.29,0,0,0,.25.16c-1.73,0-3.13,0-3,0,0,.26,1.4.3.29.66a19.09,19.09,0,0,1,4.41-.49.75.75,0,0,1,.18.08l-.14,0a3,3,0,0,0,.86,0,11.12,11.12,0,0,0,1.13.08c.16.21,1.61.11,2.3.12,0-.28.86-.23,0-.46.12,0-.13,0-.59,0a2.16,2.16,0,0,0-.3,0l0,0H93.53a3.92,3.92,0,0,1,1.9-.1c.36-.18.76-.37,1-.46,1,.4,2.79.61,3,.85,2.13-.16,5-.1,6.36-.63a1.21,1.21,0,0,1,.92.23c-.35.06-.76.05-.95.12,1.21-.13,3.59-.05,3.88-.42,1.52.17-.86.34,1.24.28l-.29.11c4.13.59,6.71-.94,11.29-.18-.32,0-.48-.07-.54-.13,5.22.33,10.75-.31,15.9.22a6,6,0,0,0,2.51-.31l.32.3,1.53-.35c2.16-.25,3.75.74,6.49.26l-.35-.2c1,0,3.11-.12,2.95.11a.91.91,0,0,1,.71-.11l0,.16,2.42-.27c1.87.12-.3.63,2.44.66,1-.06,2.89-.46,2.51-.57s-1.05-.09-1.08-.25l.93-.09c.17-.46.89-.94-1.4-1.26l-1.59.28-.51-.22,1.34,0a3.05,3.05,0,0,0-1.78.11,1.2,1.2,0,0,0-.67-.25l-1.56.44c-.19-.18.7-.36-.35-.46-.73.21.7.41-.51.54-.76-.21-.54-.38-1.43-.2-.13-.12.06-.2.42-.25a14.48,14.48,0,0,0-2.52.31c-.79-.26-2.68.07-2.6-.37a9.57,9.57,0,0,1-2.13.36c1.33-.53-2.74,0-2.39-.59-1,.47-3.56.21-5.31.47a.87.87,0,0,1,.44-.09,12.23,12.23,0,0,1-1.9-.27c-.13.39-1.66.48-2.49.72-1.2-.38.73-.46.36-.82.06.31-2.1.31-1.69.58-.92-.24-.8-.11-1.27-.44-.16.49-.86.08-1.63.38-1.33-.24-.34-.45-1.81-.31C125,60.06,126.31,59.89,126.31,59.89Zm-34.9.85h.72Zm-2.93,0h1.27c.11.1,0,.2-.3.2C89.61,60.88,88.92,60.82,88.48,60.74Zm6.2,1.95c-.46,0-.62,0-.68-.07l.81,0,.06,0A.59.59,0,0,1,94.68,62.69Z"/><path d="M95.52,62.32l.19,0-.28-.06-.16.09Z"/><path d="M150.55,11.07h-.06a.4.4,0,0,1,.13,0Z"/><polygon points="47.99 60.2 47.99 60.27 48.25 60.21 47.99 60.2"/><path d="M158.32,19.32a.53.53,0,0,0-.07.21A.66.66,0,0,0,158.32,19.32Z"/><path d="M158.26,26.3l-.1,1C158.21,26.86,158.24,26.55,158.26,26.3Z"/><path d="M158.12,31.66a.29.29,0,0,0,.12.11h0Z"/><path d="M93.75,12.57h-.2C93.06,12.63,93.39,12.61,93.75,12.57Z"/><path d="M119.13,11.91c-.27.05-.53.1-.81.13C118.77,12.06,119.12,12.07,119.13,11.91Z"/><path d="M65.41,12.9Z"/><path d="M117.14,12a5.15,5.15,0,0,0,1.18,0A6.64,6.64,0,0,0,117.14,12Z"/><path d="M158,54.91v.26s0,0,0,0Z"/><path d="M158,55.2l0,.29C158.06,55.35,158.06,55.24,158,55.2Z"/><path d="M158.13,56.09l-.07-.6A1.4,1.4,0,0,0,158.13,56.09Z"/><path d="M158.12,47.81l-.1-.08A.14.14,0,0,0,158.12,47.81Z"/><path d="M158.09,45.65a12.9,12.9,0,0,0-.15,2l.08.07C157.87,47.39,158.26,46.14,158.09,45.65Z"/><path d="M159.35,36.64l-.08,1.81c.11-.31.25-.73.28.09C159.87,36.26,159.31,39,159.35,36.64Z"/><path d="M159.51,31c.05,1,.16,0,.22,0C159.63,30.46,159.6,30.31,159.51,31Z"/><path d="M137.9,10.84l.1-.25C137.25,10.63,138,10.69,137.9,10.84Z"/><polygon points="130.15 12.17 130.88 12.33 131.23 12.09 130.15 12.17"/><polygon points="125.58 10.35 125.9 10.31 124.66 10.4 125.58 10.35"/><path d="M57.53,10.44l.22.31C58.26,10.69,58.36,10.34,57.53,10.44Z"/><path d="M28.15,10.76a2.91,2.91,0,0,0-1.66-.11C27.15,10.67,27.81,10.8,28.15,10.76Z"/><polygon points="40.2 62.73 39.6 62.84 40.72 62.75 40.2 62.73"/><rect class="cls-1" x="158.87" y="11.49" width="143.75" height="50"/><path d="M302,61.49c.09.2.28.09.24-.48l-.33-.4Z"/><path d="M302.57,57.71c-.16-.67-.45-1.43-.75-1,.32.65.18.81.56,1.52,0,.56-.1,1-.22.88.08.2-.08.88.13,1.18a4.83,4.83,0,0,0,0-2.63C302.42,57.46,302.5,57.66,302.57,57.71Z"/><path d="M293.88,11l.36,0Z"/><path d="M259.84,10.84c.25,0,.36,0,.38-.07C260,10.79,259.78,10.81,259.84,10.84Z"/><path d="M254,10.48l.35,0A.72.72,0,0,0,254,10.48Z"/><path d="M293.88,11l-.91-.1C292.91,11,293.44,11,293.88,11Z"/><path d="M301.77,50.13a2.18,2.18,0,0,0,.08.49l0-.46Z"/><path d="M303.35,17.76V18a1.71,1.71,0,0,0,.13.23Z"/><path d="M303.4,29.28c0-.26-.27-.35-.39-.45a1.1,1.1,0,0,1,.19.57C303.26,29.4,303.32,29.37,303.4,29.28Z"/><path d="M302.91,47.55l0,.32Z"/><path d="M300.65,10.69a.27.27,0,0,0-.11-.1S300.58,10.66,300.65,10.69Z"/><path d="M289.27,60.17s0,0,0,0S289.35,60.17,289.27,60.17Z"/><path d="M302.62,61.56h-.19a.53.53,0,0,0,0,.16Z"/><path d="M243.38,10.12h.05C243.71,10.09,243.55,10.1,243.38,10.12Z"/><path d="M157.7,24.64c.26-1.11.33,1.8.61.13C158.2,24.93,157.87,23.26,157.7,24.64Z"/><path d="M301.8,49.83v-.47A3.59,3.59,0,0,0,301.8,49.83Z"/><path d="M158.31,24.77h0l0-.17Z"/><path d="M218.87,10.29a.83.83,0,0,0,.25.12S219.06,10.34,218.87,10.29Z"/><path d="M237.13,10.69l-.45,0Z"/><path d="M209.39,10.68a2.38,2.38,0,0,0-.67,0l.11,0A1.39,1.39,0,0,1,209.39,10.68Z"/><path d="M199.52,10.68a1,1,0,0,0,.18.06H200Z"/><path d="M259.27,60.3a1.47,1.47,0,0,1,.46.26C259.58,60.36,261,60.28,259.27,60.3Z"/><path d="M301.93,50.12a.38.38,0,0,1-.13-.29l0,.33S301.9,50.19,301.93,50.12Z"/><path d="M209,12.9l-1.57,0C207.86,12.89,208.43,12.9,209,12.9Z"/><path d="M188.47,60.34l.36,0A1,1,0,0,0,188.47,60.34Z"/><path d="M202.77,12.9a3.71,3.71,0,0,0-.89-.19.75.75,0,0,0-.18.07Z"/><path d="M259.73,60.56Z"/><path d="M270.06,59.89c-1.49,0-.7.36-1,.57-1.78.11-.82-.27-1.43-.46-1.11.1-2,.44-2.8.43-.06-.07-.22-.09,0-.16-1.18.29-3.5,0-4.87.38a.41.41,0,0,1-.18-.09.46.46,0,0,1,.21.51c-.67,0-1.24.23-1.49,0a1,1,0,0,0,.63-.17l-.7.11c-.63-.35,1-.12,1-.38a29,29,0,0,1-4,.3c-.22-.34,2.45-.11,1-.41l1.62.12c-1.24-.53,1,0-.15-.53-2.13-.1-2.39.17-4.52.07-.48.19.16.28-.32.47-3,.34-2.38-.85-4.61-.4a3,3,0,0,1-2.38.43l.54-.39c-2.07,0-1.18.56-3.35.3.39-.15,1.63-.13,1.31-.17-1.4-.31-1,.21-2.07.21l-.22-.34c-2.2.06-4.62.3-7.06.36.13-.1.55-.2,0-.31a81.41,81.41,0,0,1-9.53-.24l-1.13.29c-.26,0-.49-.13-.2-.19-1.16-.11-.06.19-.62.3s-.87-.16-.45-.25a37.66,37.66,0,0,1-8,.22l.42-.09c-1.67-.12-1.89.6-3.44.33l.3-.05c-3.64-.13-7.65.14-10.42-.3-.53.42-3.59-.19-3.83.4a31.63,31.63,0,0,0-4.4-.6c-.78,0-1.16.37-2.12.43l0-.3-1.31.32-.69-.37-.91.08c.36,0,.77.14.71.23a8.5,8.5,0,0,1-3.48-.38l-3.34.26c.08-.12.63-.16,1.08-.24-1.79.31-.33-.33-2,0,.22.07-.12.19-.16.25a19,19,0,0,0-4-.11l.26-.21c-2.48-.06-5.22.1-8,.09,1,.1.77.47,0,.51l-.33-.33c-.53.2.85.12-.23.37-1,0-.7-.37-.1-.48l-1.26.12c-.08-.1.22-.15.3-.28-.52.21-2.19-.32-2.93,0l-.08-.1c-1.39,0-2.4,0-3.34.06l-1.4,0-.25,0a.1.1,0,0,1-.06,0c-.22.19-.18,0-.39-.28.09-1.6.31-3.5.29-5.49-.14-1.41-.24-.41-.41-1,.26-.1.23-2.1.42-1.06,0-2.41-.05-3.08-.26-6.12-.11.33-.15.7-.24.51,0-.56.11-1.26.23-1.18l0,.14c-.39-3.41.75-7.89.21-10.61l0,.15-.28-2.82c0-1.3.19.78.35-.18-.43-3,.06-4.81-.22-7.32.75-1.94-.06-6.89.43-9.51l-.18.16c-.18-.68.1-.82.14-1.32-.14.07-.16.73-.26.31L160,12.63l2.5,0,3.69.14c2.46.1,4.93.22,7.36.28,2.15.05,1.22-.92,3.93-.49l-.76.33c4.34-.4,8.87,0,13.12-.32a1.48,1.48,0,0,1-.68.17,7.63,7.63,0,0,0,3.34-.18c.66,0,.15.17.56.27.9.14,2.26-.3,2.74-.06.08,0-.26.07-.42.09.59-.11,2.73,0,2.17-.25,1.6.14,3.05-.12,4.32.05.83-.31,2.73.14,3-.29-.12.45,2.79.36,3.8.15-.34.14.88.14.48.33,1.15,0,2.21-.09,2-.32,2.12.54,4.26-.44,5.45.26,3.42-.25,6.58-.41,9.66-.52-.11.45-3.4,0-3.27.52a63.13,63.13,0,0,1,7.49-.46c.75.06-.42.19-.67.27,2.91-.19,5.63,0,8.22-.21,0,.05-.28.09-.55.13.51,0,1.19.06,1.13-.14l-.5.05c-.81-.29,2-.62,2.13-.78-.87.59,2.56.15,1.18.89.34,0,.76-.13.68-.27.5,0,.66.12.15.28,1.83-.11,1.18-.33,2.84-.33,0,.1-.34.14-.51.26a9.45,9.45,0,0,1,3.08-.31c-.08.06.08.14-.34.14,2.41,0,4.11-.52,6.75-.33-.78.43.89.14,1,.52l1.42-.11-.57-.19c1.25,0,2.35-.26,3.42-.14l-.93.15,2.33-.07-1.32-.14c1.26-.19-.13-.47,1.53-.37a17.26,17.26,0,0,1,1.89.23h0a6.83,6.83,0,0,1,2.17-.15c.24.12-.19.41,0,.49.61-.31,2.92-.09,3.69-.42-.26.08-.27.28-.19.32l.51-.26c.58.08.66.12.57.28,1.73.05-.55-.47,1.5-.27a2.53,2.53,0,0,1-.42.1c2.07.1,4-.16,5.89,0,.56.38-1.66.09-1,.41,2.73-.07,5.66-.45,8.31-.36l-.49,0c.37-.53,2,.26,3.31,0-.33,0-.43.29-.34.23,1.81.09,3.71-.13,6.46-.29l-.34.13c1.06.12,2.81.07,4,.13.34-.13,1-.11.6-.31a13.36,13.36,0,0,0,2.85.28l.7,0,.58,0,.94-.1a12.76,12.76,0,0,1-.1,3.85c0-.38-.12-.9-.12-.6l.13,2.69c.23-.21.14-.35.32-.92a6.07,6.07,0,0,1,.24,1.77c-.15-1.21-.37,0-.5.53.07-.09.15.09.22.05-.41,1.4.47.23.19,2.15l-.12-.1a16.52,16.52,0,0,1,.19,2.15c-.27.33-.13-.76-.35-.81,0,1.09.51,2.15.24,3.13-.07-.46-.07-1.12-.15-1.59a6.17,6.17,0,0,0-.28,2v-.08l-.15,1.84.09-.47c.7,1.36.13,2.77.58,4.61-.43-1.79-.25-.3-.55-.43-.08.46-.18,1.18-.26,1,.24.87-.2,1.45.16,2.67-.1.06,0,.93-.25.74.07,1.12.17-.27.29-.18.33,1.74-.41,4.09.05,6.59.19,2.15.52,2.55.68,4.55-.15.67-.35-.55-.35-.55a11.06,11.06,0,0,0,0,2.93c-.08-.21-.16,0-.27.32,0,.82.36.55.22,1.63a2.82,2.82,0,0,1-.4-.82c.09,1,.28,1.93.36,2.93-.17.27-.25-.6-.37-1a12.28,12.28,0,0,0,.43,3.28l.09-.73c0,.41-.23.21-.28-.09-.21-1,.1-1.39.2-1.45l.06.72c.57-.74-.09-2.88-.06-4.32l.41.6-.34-1.47c.11-.32.34-.53.4.18.21-1-.15-.91.08-1.8,0-.1.06,0,.08,0l-.13-1c.09.19.3-.17.24.45.24-1.81-.32-2.92,0-3.6l0,.15c-.14-2.51-.3-.24-.66-2.13l.75-1.26-.3-.25c0-.26,0-.77.15-.68-.2-1-.13.17-.33-.39.28-1.25-.13-3.44.36-3.72-.23-.45-.18,1.19-.34-.14.52-.38-.09-1.54.15-2.68.27.35.13,1.43.37.29-.46-.69.1-2.22,0-3.18-.36,0-.15-2.09-.27-3.7.12.1.2-3,.33-4.54l.06.05c-.37-.3-.3-1.84-.37-3,.22,0,.3.25.4.86V18a3.42,3.42,0,0,1-.22-1.27l.27.27c0-.71-.09-1.42-.14-2.18,0-.38-.05-.77-.05-1.18V13l0-.93c-.12,0-.3.54-.47.7s-.33,0-.41-.71c.14-.16.37-.46.43.08a4.7,4.7,0,0,1-.07-.8l-.13,0,.19,0c.06.17.12.36.19.58.05-.59,0-.66-.07-.7a1.45,1.45,0,0,1-.62.1c.16-.2-.5-.14-.31-.3a7.52,7.52,0,0,0,1.08,0c-.46,0-1-.06-1.45-.11L301,10.8a1.17,1.17,0,0,1-.32-.11c.06.12,0,.27-.55.3-1.41,0-.48-.24-1.3-.34-.34.13-1.24,0-1.27.29a.93.93,0,0,1-.64-.22c-.73.13-3.41,0-2.59.35l.19,0h-.12c-2.39.3-5-.16-7.34,0V11c-1.42.12-3.15.07-4.16.28-.42,0-1-.18-.81-.3a10.32,10.32,0,0,1-2.77,0c1.09-.18-.38-.16,1.11-.13a9.75,9.75,0,0,0-3.23,0c.51-.26-1.06-.32-1.73-.25l1,.18c-.76,0-1.41,0-2.08,0l.36-.34c-2.88-.4-5.19.69-7.39,0-.76.23,1.57.16.89.43a28.45,28.45,0,0,1-3.12-.52c-1.82-.19-1.69.48-3.59.36.24.12.47.43-.95.55-1.32-.05-1.63-.5-.79-.6.32,0,.47,0,.46.07.42,0,1-.09.46-.22l-.17.12c-.66-.12-2.48-.11-2.05-.31-1,.12-.43.2.31.26-1.7-.17-2.66,0-4.4-.12.27.06.53.2.25.2-2.56-.14-1.13.23-2.87.28-1-.18.36-.43-1.39-.28-1.07-.12-.23-.32.2-.41a16.44,16.44,0,0,1-3.89-.19l.84-.1a9,9,0,0,1-1.34.05l.48.24c-.49,0-.91,0-.9-.14-.51.16.39.4-.62.61-.66-.12-2,.13-2.23-.19,2.07.11-.23-.31,1.52-.36a7.4,7.4,0,0,1-1.24,0c-.08,0,.07-.07.2-.08-2-.28-.91.35-3,.35.26-.18-.47-.34-.81-.3.83,0,.4.29-.36.43a9.19,9.19,0,0,0-2.12.09l.79.06a5.62,5.62,0,0,1-1.84.21c-.08-.14.83-.09.5-.16-1,.32-2.3-.32-3.72-.11-.65-.12-.06-.33-.64-.41-1.59.23-1.72-.25-3.39-.06.48.24.56.18-.61.42l2.75-.17-1.77.35c.83,0,1.75-.15,2.25-.11-.84.19-.76.13-.36.33-1.13-.36-2.25.21-3.56,0l0-.59c-2-.27-3.5.3-6.07.15l.83.1c-.35.24-1.58,0-2.41.13.07-.2-.45-.27-.8-.39,0,.15-1.87,0-2.11.38l-1.14-.26c-2.07-.11-2.36.56-4.35.49.6-.21-.3-.35,1-.5-.67,0-1.26,0-1.27.1-.39-.13-1.84.26-2.45.07a1.93,1.93,0,0,1-1.12.28c-.08,0,0-.1,0-.1s-1.16.14-.51.35c-2-.61-5.72,0-7.5-.48-1.45.07-3.19.13-4.51.14.09-.05,0-.09.26-.07-1.82-.19-1.12.56-3.18.36-1.06-.32,1.09-.17.43-.29-.28-.65-2.49.08-3.88-.3l.34,0c-1.06-.22-2.59.24-4.33.2,0,0,.09-.06,0-.1a30.44,30.44,0,0,1-5.11.53c.52-.25.76-.13.44-.39-.74,0,.22.41-1.27.49-.48-.14-1.56-.27-1.71-.54l1.41,0c-.72-.35-1.82,0-2.56-.05l.09-.15c-2.16.05-2.19.44-4.51.41l.24.12c-1.26.39-1.06-.22-2.32.07l-.39-.39c-.83.09-2.93.38-4.43.45a29.89,29.89,0,0,1,3.69-.61,15.58,15.58,0,0,0-3.25.22,4,4,0,0,1,1.09-.07,13.89,13.89,0,0,1-4,.45c.1-.25-.33-.35-1-.41l-.54,0H160l-1.89,0a10,10,0,0,1-.3,2.92c.28,2.92-.12,5.8-.08,9.21.6-1.21,0,1,.63.78a4.2,4.2,0,0,1,0,1.17l-.37,2.4c-.17.57-.13-.75-.27-.68,0,1.74-.26.73-.42,1.88.22-.24.31.6.23,1.59l.28-1.39c.33,2.43-.51,2.1-.19,4.54l-.19-.77c.11,1.26,0,4.63.49,5.86-.07.22-.24.52-.29,0-.07,3,.53,6.67.22,9l-.15-.23a4.28,4.28,0,0,1,.13,1.67c-.06,0-.14-.22-.15,0a9.42,9.42,0,0,1,.17,2.23l-.17-.64c-.19,2.93.41,4.49.52,7-.22,0-.37.57-.47,1.29-.05.36-.09.75-.12,1.13l0,.3,0,.49,0,.9-.06-.05v1.67l2,0,1,0,.52,0c.67,0,1.32-.1,2-.15,1.29-.11,2.56-.24,4-.32,2,.48,6.64.2,9.79.47-.49-.08.07-.35.63-.39.74.09,2.05-.31,1.93.1H179c.55.4,2.07.29,3.26.3l.19-.53c3.1.77,8.13-.28,9.82.41.75-.13,1.68-.13,2.42-.26l0,.28c2.07.07,3.11.11,5.67,0l-.52.2c1.44,0,1.82-.81,3.16-.83l.4.42c2.52,0,5.07.37,7.56,0,0,.06-.11.19-.52.2,1.19,0,4.59.29,4.16-.29,0,.38,2.6,0,4-.13l-.21.28a7.81,7.81,0,0,1,2.79-.55c.38,0,.33.22-.17.15,1.26.15,1-.26,2.52-.12l-.57.18a3.92,3.92,0,0,0,1.92-.28,5.47,5.47,0,0,1,2.66.32,2.81,2.81,0,0,1,1.66-.28c.11.09-.17.15-.31.18,2.18.19,3.24-.32,4.74,0a.29.29,0,0,0,.25.16c-1.73,0-3.13,0-3,0,0,.26,1.4.3.29.66a19.09,19.09,0,0,1,4.41-.49.75.75,0,0,1,.18.08l-.14,0a3,3,0,0,0,.86,0,11.12,11.12,0,0,0,1.13.08c.16.21,1.61.11,2.3.12-.05-.28.86-.23,0-.46.12,0-.13,0-.59,0a2.16,2.16,0,0,0-.3,0l.05,0h-1.74a3.92,3.92,0,0,1,1.9-.1c.36-.18.76-.37,1-.46,1,.4,2.79.61,3.05.85,2.13-.16,5-.1,6.36-.63a1.21,1.21,0,0,1,.92.23c-.35.06-.76.05-1,.12,1.21-.13,3.59-.05,3.88-.42,1.52.17-.86.34,1.24.28l-.29.11c4.13.59,6.71-.94,11.29-.18-.32,0-.48-.07-.54-.13,5.22.33,10.75-.31,15.9.22a6,6,0,0,0,2.51-.31l.32.3,1.53-.35c2.16-.25,3.75.74,6.49.26l-.36-.2c1,0,3.12-.12,3,.11a.91.91,0,0,1,.71-.11l0,.16,2.42-.27c1.87.12-.3.63,2.44.66,1-.06,2.89-.46,2.51-.57s-1.05-.09-1.08-.25l.93-.09c.17-.46.89-.94-1.4-1.26l-1.59.28-.51-.22,1.34,0a3.05,3.05,0,0,0-1.78.11,1.2,1.2,0,0,0-.67-.25l-1.56.44c-.19-.18.7-.36-.35-.46-.73.21.7.41-.51.54-.76-.21-.54-.38-1.43-.2-.13-.12.06-.2.42-.25a14.48,14.48,0,0,0-2.52.31c-.79-.26-2.68.07-2.6-.37a9.57,9.57,0,0,1-2.13.36c1.33-.53-2.74,0-2.39-.59-1,.47-3.56.21-5.31.47a.87.87,0,0,1,.44-.09,12.23,12.23,0,0,1-1.9-.27c-.13.39-1.66.48-2.49.72-1.2-.38.73-.46.36-.82.06.31-2.1.31-1.69.58-.92-.24-.8-.11-1.27-.44-.16.49-.86.08-1.63.38-1.33-.24-.34-.45-1.81-.31C268.75,60.06,270.06,59.89,270.06,59.89Zm-34.9.85h.72Zm-2.93,0h1.27c.11.1,0,.2-.3.2C233.36,60.88,232.67,60.82,232.23,60.74Zm6.2,1.95c-.46,0-.62,0-.68-.07l.81,0,.06,0A.59.59,0,0,1,238.43,62.69Z"/><path d="M239.27,62.32l.19,0-.28-.06-.16.09Z"/><path d="M294.3,11.07h-.06a.4.4,0,0,1,.13,0Z"/><polygon points="191.74 60.2 191.74 60.27 192 60.21 191.74 60.2"/><path d="M302.07,19.32a.53.53,0,0,0-.07.21A.66.66,0,0,0,302.07,19.32Z"/><path d="M302,26.3l-.1,1C302,26.86,302,26.55,302,26.3Z"/><path d="M301.87,31.66a.29.29,0,0,0,.12.11h0Z"/><path d="M237.5,12.57h-.2C236.81,12.63,237.14,12.61,237.5,12.57Z"/><path d="M262.88,11.91c-.27.05-.53.1-.81.13C262.52,12.06,262.87,12.07,262.88,11.91Z"/><path d="M209.16,12.9Z"/><path d="M260.89,12a5.15,5.15,0,0,0,1.18,0A6.64,6.64,0,0,0,260.89,12Z"/><path d="M301.74,54.91v.26s0,0,0,0Z"/><path d="M301.77,55.2l0,.29C301.81,55.35,301.81,55.24,301.77,55.2Z"/><path d="M301.88,56.09l-.07-.6A1.4,1.4,0,0,0,301.88,56.09Z"/><path d="M301.87,47.81l-.1-.08A.14.14,0,0,0,301.87,47.81Z"/><path d="M301.84,45.65a12.9,12.9,0,0,0-.15,2l.08.07C301.62,47.39,302,46.14,301.84,45.65Z"/><path d="M303.1,36.64,303,38.45c.11-.31.25-.73.28.09C303.62,36.26,303.06,39,303.1,36.64Z"/><path d="M303.26,31c.05,1,.16,0,.22,0C303.38,30.46,303.35,30.31,303.26,31Z"/><path d="M281.65,10.84l.1-.25C281,10.63,281.74,10.69,281.65,10.84Z"/><polygon points="273.9 12.17 274.63 12.33 274.98 12.09 273.9 12.17"/><polygon points="269.33 10.35 269.65 10.31 268.4 10.4 269.33 10.35"/><path d="M201.28,10.44l.22.31C202,10.69,202.11,10.34,201.28,10.44Z"/><path d="M171.9,10.76a2.91,2.91,0,0,0-1.66-.11C170.9,10.67,171.56,10.8,171.9,10.76Z"/><polygon points="183.95 62.73 183.35 62.84 184.47 62.75 183.95 62.73"/><rect class="cls-1" x="302.62" y="11.49" width="143.75" height="50"/><path d="M445.7,61.49c.09.2.28.09.24-.48l-.33-.4Z"/><path d="M446.32,57.71c-.16-.67-.45-1.43-.75-1,.32.65.18.81.56,1.52,0,.56-.1,1-.22.88.08.2-.08.88.13,1.18a4.83,4.83,0,0,0,0-2.63C446.17,57.46,446.25,57.66,446.32,57.71Z"/><path d="M437.63,11l.36,0Z"/><path d="M403.59,10.84c.25,0,.36,0,.38-.07C403.73,10.79,403.53,10.81,403.59,10.84Z"/><path d="M397.77,10.48l.35,0A.72.72,0,0,0,397.77,10.48Z"/><path d="M437.63,11l-.91-.1C436.66,11,437.19,11,437.63,11Z"/><path d="M445.52,50.13a2.18,2.18,0,0,0,.08.49l0-.46Z"/><path d="M447.1,17.76V18a1.71,1.71,0,0,0,.13.23Z"/><path d="M447.15,29.28c0-.26-.27-.35-.39-.45a1.1,1.1,0,0,1,.19.57C447,29.4,447.07,29.37,447.15,29.28Z"/><path d="M446.66,47.55l0,.32Z"/><path d="M444.4,10.69a.27.27,0,0,0-.11-.1S444.33,10.66,444.4,10.69Z"/><path d="M433,60.17s0,0,0,0S433.1,60.17,433,60.17Z"/><path d="M446.37,61.56h-.19a.53.53,0,0,0,0,.16Z"/><path d="M387.13,10.12h.05C387.46,10.09,387.3,10.1,387.13,10.12Z"/><path d="M301.45,24.64c.26-1.11.33,1.8.61.13C302,24.93,301.62,23.26,301.45,24.64Z"/><path d="M445.55,49.83v-.47A3.59,3.59,0,0,0,445.55,49.83Z"/><path d="M302.06,24.77h0l0-.17Z"/><path d="M362.62,10.29a.83.83,0,0,0,.25.12S362.81,10.34,362.62,10.29Z"/><path d="M380.88,10.69l-.45,0Z"/><path d="M353.14,10.68a2.38,2.38,0,0,0-.67,0l.11,0A1.39,1.39,0,0,1,353.14,10.68Z"/><path d="M343.27,10.68a1,1,0,0,0,.18.06h.31Z"/><path d="M403,60.3a1.47,1.47,0,0,1,.46.26C403.33,60.36,404.78,60.28,403,60.3Z"/><path d="M445.68,50.12a.38.38,0,0,1-.13-.29l0,.33S445.65,50.19,445.68,50.12Z"/><path d="M352.74,12.9l-1.57,0C351.61,12.89,352.18,12.9,352.74,12.9Z"/><path d="M332.22,60.34l.36,0A1,1,0,0,0,332.22,60.34Z"/><path d="M346.52,12.9a3.71,3.71,0,0,0-.89-.19.75.75,0,0,0-.18.07Z"/><path d="M403.48,60.56Z"/><path d="M413.81,59.89c-1.49,0-.7.36-1,.57-1.78.11-.82-.27-1.43-.46-1.11.1-2,.44-2.8.43-.06-.07-.22-.09,0-.16-1.18.29-3.5,0-4.87.38a.41.41,0,0,1-.18-.09.46.46,0,0,1,.21.51c-.67,0-1.24.23-1.49,0a1,1,0,0,0,.63-.17l-.7.11c-.63-.35,1-.12,1-.38a29,29,0,0,1-4,.3c-.22-.34,2.45-.11,1.05-.41l1.62.12c-1.24-.53,1,0-.15-.53-2.13-.1-2.39.17-4.52.07-.48.19.16.28-.32.47-3,.34-2.38-.85-4.61-.4a3,3,0,0,1-2.38.43l.54-.39c-2.07,0-1.18.56-3.35.3.39-.15,1.63-.13,1.32-.17-1.41-.31-1,.21-2.08.21l-.22-.34c-2.2.06-4.62.3-7.06.36.13-.1.55-.2,0-.31a81.41,81.41,0,0,1-9.53-.24l-1.13.29c-.26,0-.49-.13-.2-.19-1.16-.11-.06.19-.62.3s-.87-.16-.45-.25a37.66,37.66,0,0,1-8,.22l.42-.09c-1.67-.12-1.89.6-3.44.33l.3-.05c-3.64-.13-7.65.14-10.42-.3-.53.42-3.59-.19-3.83.4a31.63,31.63,0,0,0-4.4-.6c-.78,0-1.16.37-2.12.43l0-.3-1.31.32-.69-.37-.91.08c.36,0,.77.14.71.23a8.5,8.5,0,0,1-3.48-.38l-3.34.26c.08-.12.63-.16,1.08-.24-1.79.31-.33-.33-2,0,.22.07-.12.19-.16.25a19,19,0,0,0-4-.11l.26-.21c-2.48-.06-5.22.1-8,.09,1,.1.77.47,0,.51l-.33-.33c-.53.2.85.12-.23.37-1,0-.7-.37-.1-.48l-1.26.12c-.08-.1.22-.15.3-.28-.52.21-2.19-.32-2.93,0L309,60c-1.39,0-2.4,0-3.34.06l-1.4,0-.25,0a.1.1,0,0,1-.06,0c-.22.19-.18,0-.39-.28.09-1.6.31-3.5.29-5.49-.14-1.41-.24-.41-.41-1,.26-.1.23-2.1.42-1.06,0-2.41-.05-3.08-.26-6.12-.11.33-.15.7-.24.51,0-.56.11-1.26.23-1.18l0,.14c-.39-3.41.75-7.89.21-10.61l0,.15-.28-2.82c0-1.3.19.78.35-.18-.43-3,.06-4.81-.22-7.32.75-1.94-.06-6.89.43-9.51l-.18.16c-.18-.68.1-.82.14-1.32-.14.07-.16.73-.26.31,0-.62,0-1.24-.05-1.88l2.5,0,3.69.14c2.46.1,4.93.22,7.36.28,2.15.05,1.22-.92,3.93-.49l-.76.33c4.34-.4,8.87,0,13.12-.32a1.48,1.48,0,0,1-.68.17,7.63,7.63,0,0,0,3.34-.18c.66,0,.15.17.56.27.9.14,2.26-.3,2.74-.06.08,0-.26.07-.42.09.59-.11,2.73,0,2.17-.25,1.6.14,3.05-.12,4.32.05.83-.31,2.73.14,3-.29-.12.45,2.79.36,3.8.15-.34.14.88.14.48.33,1.15,0,2.21-.09,2-.32,2.12.54,4.26-.44,5.45.26,3.42-.25,6.58-.41,9.66-.52-.11.45-3.4,0-3.27.52a63.13,63.13,0,0,1,7.49-.46c.75.06-.42.19-.67.27,2.91-.19,5.63,0,8.22-.21,0,.05-.28.09-.55.13.51,0,1.19.06,1.13-.14l-.5.05c-.81-.29,2-.62,2.13-.78-.87.59,2.56.15,1.18.89.34,0,.76-.13.68-.27.5,0,.66.12.15.28,1.83-.11,1.18-.33,2.84-.33,0,.1-.34.14-.51.26a9.45,9.45,0,0,1,3.08-.31c-.08.06.08.14-.34.14,2.41,0,4.11-.52,6.75-.33-.78.43.89.14,1,.52l1.42-.11-.57-.19c1.25,0,2.35-.26,3.42-.14l-.93.15,2.33-.07-1.32-.14c1.26-.19-.13-.47,1.53-.37a17.26,17.26,0,0,1,1.89.23h0a6.83,6.83,0,0,1,2.17-.15c.24.12-.19.41,0,.49.61-.31,2.92-.09,3.69-.42-.26.08-.27.28-.19.32l.51-.26c.58.08.66.12.57.28,1.73.05-.55-.47,1.5-.27a2.53,2.53,0,0,1-.42.1c2.07.1,4-.16,5.89,0,.56.38-1.66.09-1,.41,2.73-.07,5.66-.45,8.31-.36l-.49,0c.37-.53,2,.26,3.31,0-.33,0-.43.29-.34.23,1.81.09,3.71-.13,6.46-.29l-.34.13c1.06.12,2.81.07,4,.13.34-.13,1-.11.6-.31a13.36,13.36,0,0,0,2.85.28l.7,0,.58,0,.94-.1a12.76,12.76,0,0,1-.1,3.85c0-.38-.12-.9-.12-.6l.13,2.69c.23-.21.14-.35.32-.92a6.07,6.07,0,0,1,.24,1.77c-.15-1.21-.37,0-.5.53.07-.09.15.09.22.05-.41,1.4.47.23.19,2.15l-.12-.1a16.52,16.52,0,0,1,.19,2.15c-.27.33-.13-.76-.35-.81,0,1.09.51,2.15.24,3.13-.07-.46-.07-1.12-.15-1.59a6.17,6.17,0,0,0-.28,2v-.08l-.15,1.84.09-.47c.7,1.36.13,2.77.58,4.61-.43-1.79-.25-.3-.55-.43-.08.46-.18,1.18-.26,1,.24.87-.2,1.45.16,2.67-.1.06,0,.93-.25.74.07,1.12.17-.27.29-.18.33,1.74-.41,4.09.05,6.59.19,2.15.52,2.55.68,4.55-.15.67-.35-.55-.35-.55a11.06,11.06,0,0,0,0,2.93c-.08-.21-.16,0-.27.32,0,.82.36.55.22,1.63a2.82,2.82,0,0,1-.4-.82c.09,1,.28,1.93.36,2.93-.17.27-.25-.6-.37-1a12.28,12.28,0,0,0,.43,3.28l.09-.73c0,.41-.23.21-.28-.09-.21-1,.1-1.39.2-1.45l.06.72c.57-.74-.09-2.88-.06-4.32l.41.6-.34-1.47c.11-.32.34-.53.4.18.21-1-.15-.91.08-1.8,0-.1.06,0,.08,0l-.13-1c.09.19.3-.17.24.45.24-1.81-.32-2.92,0-3.6l0,.15c-.14-2.51-.3-.24-.66-2.13l.75-1.26-.3-.25c0-.26,0-.77.15-.68-.2-1-.13.17-.33-.39.28-1.25-.13-3.44.36-3.72-.23-.45-.18,1.19-.34-.14.52-.38-.09-1.54.15-2.68.27.35.13,1.43.37.29-.46-.69.1-2.22,0-3.18-.36,0-.15-2.09-.27-3.7.12.1.2-3,.33-4.54l.06.05c-.37-.3-.3-1.84-.37-3,.22,0,.3.25.4.86V18a3.42,3.42,0,0,1-.22-1.27l.27.27c0-.71-.09-1.42-.14-2.18,0-.38-.05-.77-.05-1.18V13l0-.93c-.12,0-.3.54-.47.7s-.33,0-.41-.71c.14-.16.37-.46.43.08a4.7,4.7,0,0,1-.07-.8l-.13,0,.19,0c.06.17.12.36.19.58.05-.59,0-.66-.07-.7a1.45,1.45,0,0,1-.62.1c.16-.2-.5-.14-.31-.3a7.52,7.52,0,0,0,1.08,0c-.46,0-1-.06-1.45-.11l-.65-.09a1.17,1.17,0,0,1-.32-.11c.06.12,0,.27-.55.3-1.41,0-.48-.24-1.3-.34-.34.13-1.24,0-1.27.29a.93.93,0,0,1-.64-.22c-.73.13-3.41,0-2.59.35l.19,0h-.12c-2.39.3-5-.16-7.34,0V11c-1.42.12-3.15.07-4.16.28-.42,0-1-.18-.81-.3A10.32,10.32,0,0,1,423,11c1.09-.18-.38-.16,1.11-.13a9.75,9.75,0,0,0-3.23,0c.51-.26-1.06-.32-1.73-.25l1,.18c-.76,0-1.41,0-2.08,0l.36-.34c-2.88-.4-5.19.69-7.39,0-.76.23,1.57.16.89.43a28.45,28.45,0,0,1-3.12-.52c-1.82-.19-1.69.48-3.59.36.24.12.47.43-.95.55-1.32-.05-1.63-.5-.79-.6.32,0,.47,0,.46.07.42,0,1-.09.46-.22l-.17.12c-.66-.12-2.48-.11-2.05-.31-1,.12-.43.2.31.26-1.7-.17-2.66,0-4.4-.12.27.06.53.2.25.2-2.56-.14-1.13.23-2.87.28-1-.18.36-.43-1.39-.28-1.07-.12-.23-.32.2-.41a16.44,16.44,0,0,1-3.89-.19l.84-.1a9,9,0,0,1-1.34.05l.48.24c-.49,0-.91,0-.9-.14-.51.16.39.4-.62.61-.66-.12-2,.13-2.23-.19,2.07.11-.23-.31,1.52-.36a7.4,7.4,0,0,1-1.24,0c-.08,0,.07-.07.2-.08-2-.28-.91.35-3,.35.26-.18-.47-.34-.81-.3.83,0,.4.29-.36.43a9.19,9.19,0,0,0-2.12.09l.79.06a5.62,5.62,0,0,1-1.84.21c-.08-.14.83-.09.5-.16-1,.32-2.3-.32-3.72-.11-.65-.12-.06-.33-.64-.41-1.59.23-1.72-.25-3.39-.06.48.24.56.18-.61.42l2.75-.17-1.77.35c.83,0,1.75-.15,2.25-.11-.84.19-.76.13-.36.33-1.13-.36-2.25.21-3.56,0l0-.59c-2-.27-3.5.3-6.07.15l.83.1c-.35.24-1.58,0-2.41.13.07-.2-.45-.27-.8-.39,0,.15-1.87,0-2.11.38l-1.14-.26c-2.07-.11-2.36.56-4.35.49.6-.21-.3-.35,1-.5-.67,0-1.26,0-1.27.1-.39-.13-1.84.26-2.45.07a1.93,1.93,0,0,1-1.12.28c-.08,0,0-.1,0-.1s-1.16.14-.51.35c-2.05-.61-5.72,0-7.5-.48-1.45.07-3.19.13-4.51.14.09-.05,0-.09.26-.07-1.82-.19-1.12.56-3.18.36-1.06-.32,1.09-.17.43-.29-.28-.65-2.49.08-3.88-.3l.34,0c-1.06-.22-2.59.24-4.33.2,0,0,.09-.06,0-.1a30.44,30.44,0,0,1-5.11.53c.52-.25.76-.13.44-.39-.74,0,.22.41-1.27.49-.48-.14-1.56-.27-1.71-.54l1.41,0c-.72-.35-1.82,0-2.56-.05l.09-.15c-2.16.05-2.19.44-4.51.41l.24.12c-1.26.39-1.06-.22-2.32.07l-.39-.39c-.83.09-2.93.38-4.43.45a29.89,29.89,0,0,1,3.69-.61,15.58,15.58,0,0,0-3.25.22,4,4,0,0,1,1.09-.07,13.89,13.89,0,0,1-4,.45c.1-.25-.33-.35-1-.41l-.54,0h-.76l-1.89,0a10,10,0,0,1-.3,2.92c.28,2.92-.12,5.8-.08,9.21.6-1.21,0,1,.63.78a4.2,4.2,0,0,1,0,1.17l-.37,2.4c-.17.57-.13-.75-.27-.68-.05,1.74-.26.73-.42,1.88.22-.24.31.6.23,1.59l.28-1.39c.33,2.43-.51,2.1-.19,4.54l-.19-.77c.11,1.26,0,4.63.49,5.86-.07.22-.24.52-.29,0-.07,3,.53,6.67.22,9L301.4,47a4.28,4.28,0,0,1,.13,1.67c-.06,0-.14-.22-.15,0a9.42,9.42,0,0,1,.17,2.23l-.17-.64c-.19,2.93.41,4.49.52,7-.22,0-.37.57-.47,1.29-.05.36-.09.75-.12,1.13l0,.3,0,.49,0,.9-.06-.05v1.67l2.05,0,1,0,.52,0c.67,0,1.32-.1,2-.15,1.29-.11,2.56-.24,4-.32,2,.48,6.64.2,9.79.47-.49-.08.07-.35.63-.39.74.09,2-.31,1.93.1h-.26c.55.4,2.07.29,3.26.3l.19-.53c3.1.77,8.13-.28,9.82.41.75-.13,1.68-.13,2.42-.26l0,.28c2.07.07,3.11.11,5.67,0l-.52.2c1.44,0,1.82-.81,3.16-.83l.4.42c2.52,0,5.07.37,7.56,0,0,.06-.11.19-.52.2,1.19,0,4.59.29,4.16-.29,0,.38,2.6,0,4-.13l-.21.28a7.81,7.81,0,0,1,2.79-.55c.38,0,.33.22-.17.15,1.26.15,1-.26,2.52-.12l-.57.18a3.92,3.92,0,0,0,1.92-.28,5.47,5.47,0,0,1,2.66.32,2.81,2.81,0,0,1,1.66-.28c.11.09-.17.15-.31.18,2.18.19,3.24-.32,4.74,0a.29.29,0,0,0,.25.16c-1.73,0-3.13,0-3,0,0,.26,1.4.3.29.66a19.09,19.09,0,0,1,4.41-.49.75.75,0,0,1,.18.08l-.14,0a3,3,0,0,0,.86,0,11.12,11.12,0,0,0,1.13.08c.16.21,1.61.11,2.3.12-.05-.28.86-.23,0-.46.12,0-.13,0-.59,0a2.16,2.16,0,0,0-.3,0l0,0H381a3.92,3.92,0,0,1,1.9-.1c.36-.18.76-.37,1-.46.95.4,2.79.61,3,.85,2.13-.16,5-.1,6.36-.63a1.21,1.21,0,0,1,.92.23c-.35.06-.76.05-.95.12,1.21-.13,3.59-.05,3.88-.42,1.52.17-.86.34,1.24.28l-.29.11c4.13.59,6.71-.94,11.29-.18-.32,0-.48-.07-.54-.13,5.22.33,10.75-.31,15.9.22a6,6,0,0,0,2.51-.31l.32.3,1.53-.35c2.16-.25,3.75.74,6.49.26l-.36-.2c1,0,3.12-.12,3,.11a.91.91,0,0,1,.71-.11l0,.16,2.42-.27c1.87.12-.3.63,2.44.66,1-.06,2.89-.46,2.51-.57s-1.05-.09-1.08-.25l.93-.09c.17-.46.89-.94-1.4-1.26l-1.59.28-.51-.22,1.34,0a3.05,3.05,0,0,0-1.78.11,1.2,1.2,0,0,0-.67-.25l-1.56.44c-.19-.18.7-.36-.35-.46-.73.21.7.41-.51.54-.76-.21-.54-.38-1.43-.2-.13-.12.06-.2.42-.25a14.48,14.48,0,0,0-2.52.31c-.79-.26-2.68.07-2.6-.37a9.57,9.57,0,0,1-2.13.36c1.33-.53-2.74,0-2.39-.59-1,.47-3.56.21-5.31.47a.87.87,0,0,1,.44-.09,12.23,12.23,0,0,1-1.9-.27c-.13.39-1.66.48-2.49.72-1.2-.38.73-.46.36-.82.06.31-2.1.31-1.69.58-.92-.24-.8-.11-1.27-.44-.16.49-.86.08-1.63.38-1.33-.24-.34-.45-1.81-.31C412.5,60.06,413.81,59.89,413.81,59.89Zm-34.9.85h.72Zm-2.93,0h1.27c.11.1,0,.2-.3.2C377.11,60.88,376.42,60.82,376,60.74Zm6.2,1.95c-.46,0-.62,0-.68-.07l.81,0,.06,0A.59.59,0,0,1,382.18,62.69Z"/><path d="M383,62.32l.19,0-.28-.06-.16.09Z"/><path d="M438.05,11.07H438a.4.4,0,0,1,.13,0Z"/><polygon points="335.49 60.2 335.49 60.27 335.75 60.21 335.49 60.2"/><path d="M445.82,19.32a.53.53,0,0,0-.07.21A.66.66,0,0,0,445.82,19.32Z"/><path d="M445.76,26.3l-.1,1C445.71,26.86,445.74,26.55,445.76,26.3Z"/><path d="M445.62,31.66a.29.29,0,0,0,.12.11h0Z"/><path d="M381.25,12.57h-.2C380.56,12.63,380.89,12.61,381.25,12.57Z"/><path d="M406.63,11.91c-.27.05-.53.1-.81.13C406.27,12.06,406.62,12.07,406.63,11.91Z"/><path d="M352.91,12.9Z"/><path d="M404.64,12a5.15,5.15,0,0,0,1.18,0A6.64,6.64,0,0,0,404.64,12Z"/><path d="M445.49,54.91v.26s0,0,0,0Z"/><path d="M445.52,55.2l0,.29C445.56,55.35,445.56,55.24,445.52,55.2Z"/><path d="M445.63,56.09l-.07-.6A1.4,1.4,0,0,0,445.63,56.09Z"/><path d="M445.62,47.81l-.1-.08A.14.14,0,0,0,445.62,47.81Z"/><path d="M445.59,45.65a12.9,12.9,0,0,0-.15,2l.08.07C445.37,47.39,445.76,46.14,445.59,45.65Z"/><path d="M446.85,36.64l-.08,1.81c.11-.31.25-.73.28.09C447.37,36.26,446.81,39,446.85,36.64Z"/><path d="M447,31c.05,1,.16,0,.22,0C447.13,30.46,447.1,30.31,447,31Z"/><path d="M425.4,10.84l.1-.25C424.75,10.63,425.49,10.69,425.4,10.84Z"/><polygon points="417.65 12.17 418.38 12.33 418.73 12.09 417.65 12.17"/><polygon points="413.08 10.35 413.4 10.31 412.15 10.4 413.08 10.35"/><path d="M345,10.44l.22.31C345.76,10.69,345.86,10.34,345,10.44Z"/><path d="M315.65,10.76a2.91,2.91,0,0,0-1.66-.11C314.65,10.67,315.31,10.8,315.65,10.76Z"/><polygon points="327.7 62.73 327.11 62.84 328.22 62.75 327.7 62.73"/><rect class="cls-1" x="446.37" y="11.49" width="143.75" height="50"/><path d="M589.45,61.49c.09.2.28.09.25-.48l-.34-.4Z"/><path d="M590.07,57.71c-.17-.67-.45-1.43-.75-1,.32.65.18.81.56,1.52,0,.56-.1,1-.23.88.09.2-.07.88.14,1.18a4.83,4.83,0,0,0,.05-2.63C589.92,57.46,590,57.66,590.07,57.71Z"/><path d="M581.38,11l.36,0Z"/><path d="M547.34,10.84c.25,0,.36,0,.38-.07C547.48,10.79,547.28,10.81,547.34,10.84Z"/><path d="M541.52,10.48l.35,0A.72.72,0,0,0,541.52,10.48Z"/><path d="M581.38,11l-.91-.1C580.41,11,580.94,11,581.38,11Z"/><path d="M589.27,50.13a2.18,2.18,0,0,0,.08.49l0-.46Z"/><path d="M590.85,17.76V18a1.71,1.71,0,0,0,.13.23Z"/><path d="M590.9,29.28c0-.26-.27-.35-.39-.45a1.1,1.1,0,0,1,.19.57C590.76,29.4,590.82,29.37,590.9,29.28Z"/><path d="M590.41,47.55l0,.32Z"/><path d="M588.15,10.69a.27.27,0,0,0-.11-.1S588.08,10.66,588.15,10.69Z"/><path d="M576.77,60.17s0,0,0,0S576.85,60.17,576.77,60.17Z"/><path d="M590.12,61.56h-.19a.53.53,0,0,0,0,.16Z"/><path d="M530.88,10.12h0C531.21,10.09,531.05,10.1,530.88,10.12Z"/><path d="M445.2,24.64c.26-1.11.33,1.8.61.13C445.7,24.93,445.37,23.26,445.2,24.64Z"/><path d="M589.3,49.83v-.47A3.59,3.59,0,0,0,589.3,49.83Z"/><path d="M445.81,24.77h0l0-.17Z"/><path d="M506.37,10.29a.83.83,0,0,0,.25.12S506.56,10.34,506.37,10.29Z"/><path d="M524.63,10.69l-.45,0Z"/><path d="M496.89,10.68a2.38,2.38,0,0,0-.67,0l.11,0A1.39,1.39,0,0,1,496.89,10.68Z"/><path d="M487,10.68a1,1,0,0,0,.18.06h.31Z"/><path d="M546.77,60.3a1.47,1.47,0,0,1,.46.26C547.08,60.36,548.53,60.28,546.77,60.3Z"/><path d="M589.43,50.12a.38.38,0,0,1-.13-.29l0,.33S589.4,50.19,589.43,50.12Z"/><path d="M496.49,12.9l-1.57,0C495.36,12.89,495.93,12.9,496.49,12.9Z"/><path d="M476,60.34l.36,0A1,1,0,0,0,476,60.34Z"/><path d="M490.27,12.9a3.71,3.71,0,0,0-.89-.19.75.75,0,0,0-.18.07Z"/><path d="M547.23,60.56Z"/><path d="M557.56,59.89c-1.49,0-.7.36-1,.57-1.78.11-.82-.27-1.43-.46-1.11.1-2,.44-2.8.43-.06-.07-.22-.09,0-.16-1.18.29-3.5,0-4.87.38a.41.41,0,0,1-.18-.09.46.46,0,0,1,.21.51c-.67,0-1.24.23-1.49,0a1,1,0,0,0,.63-.17l-.7.11c-.63-.35,1-.12,1-.38a29,29,0,0,1-4,.3c-.22-.34,2.45-.11,1-.41l1.62.12c-1.24-.53,1,0-.15-.53-2.13-.1-2.39.17-4.52.07-.48.19.16.28-.32.47-3,.34-2.38-.85-4.61-.4a3,3,0,0,1-2.38.43l.54-.39c-2.07,0-1.18.56-3.35.3.39-.15,1.63-.13,1.31-.17-1.4-.31-1,.21-2.07.21l-.22-.34c-2.2.06-4.62.3-7.06.36.13-.1.55-.2,0-.31a81.41,81.41,0,0,1-9.53-.24l-1.13.29c-.26,0-.49-.13-.2-.19-1.16-.11-.06.19-.62.3s-.87-.16-.45-.25a37.66,37.66,0,0,1-8,.22l.42-.09c-1.67-.12-1.89.6-3.44.33l.3-.05c-3.64-.13-7.65.14-10.42-.3-.53.42-3.59-.19-3.83.4a31.63,31.63,0,0,0-4.4-.6c-.78,0-1.16.37-2.12.43l0-.3-1.31.32-.69-.37-.91.08c.36,0,.77.14.71.23a8.5,8.5,0,0,1-3.48-.38l-3.34.26c.08-.12.63-.16,1.08-.24-1.79.31-.33-.33-2,0,.22.07-.12.19-.16.25a19,19,0,0,0-4-.11l.26-.21c-2.48-.06-5.22.1-8,.09,1,.1.77.47,0,.51l-.33-.33c-.53.2.85.12-.23.37-1,0-.7-.37-.1-.48l-1.26.12c-.08-.1.22-.15.3-.28-.52.21-2.19-.32-2.93,0l-.08-.1c-1.39,0-2.4,0-3.34.06l-1.4,0-.25,0a.1.1,0,0,1-.06,0c-.22.19-.18,0-.39-.28.09-1.6.31-3.5.29-5.49-.14-1.41-.24-.41-.41-1,.26-.1.23-2.1.42-1.06,0-2.41-.05-3.08-.26-6.12-.11.33-.15.7-.24.51,0-.56.11-1.26.23-1.18l0,.14c-.39-3.41.75-7.89.21-10.61l0,.15-.28-2.82c0-1.3.19.78.35-.18-.43-3,.06-4.81-.22-7.32.75-1.94-.06-6.89.43-9.51l-.18.16c-.18-.68.1-.82.14-1.32-.14.07-.16.73-.26.31,0-.62,0-1.24-.05-1.88l2.5,0,3.69.14c2.46.1,4.93.22,7.36.28,2.15.05,1.22-.92,3.93-.49l-.76.33c4.34-.4,8.87,0,13.12-.32a1.48,1.48,0,0,1-.68.17,7.63,7.63,0,0,0,3.34-.18c.66,0,.15.17.56.27.9.14,2.26-.3,2.74-.06.08,0-.26.07-.42.09.59-.11,2.73,0,2.17-.25,1.6.14,3.05-.12,4.32.05.83-.31,2.73.14,3-.29-.12.45,2.79.36,3.8.15-.34.14.88.14.48.33,1.15,0,2.21-.09,2-.32,2.12.54,4.26-.44,5.45.26,3.42-.25,6.58-.41,9.66-.52-.11.45-3.4,0-3.27.52a63.13,63.13,0,0,1,7.49-.46c.75.06-.42.19-.67.27,2.91-.19,5.63,0,8.22-.21,0,.05-.28.09-.55.13.51,0,1.19.06,1.13-.14l-.5.05c-.81-.29,2-.62,2.13-.78-.87.59,2.56.15,1.18.89.34,0,.76-.13.68-.27.5,0,.66.12.15.28,1.83-.11,1.18-.33,2.84-.33,0,.1-.34.14-.51.26a9.45,9.45,0,0,1,3.08-.31c-.08.06.08.14-.34.14,2.41,0,4.11-.52,6.75-.33-.78.43.89.14,1,.52l1.42-.11-.57-.19c1.25,0,2.35-.26,3.42-.14l-.93.15,2.33-.07L547,12.05c1.26-.19-.13-.47,1.53-.37a17.26,17.26,0,0,1,1.89.23h0a6.83,6.83,0,0,1,2.17-.15c.24.12-.19.41,0,.49.61-.31,2.92-.09,3.69-.42-.26.08-.27.28-.19.32l.51-.26c.58.08.66.12.57.28,1.73.05-.55-.47,1.5-.27a2.53,2.53,0,0,1-.42.1c2.07.1,4-.16,5.89,0,.56.38-1.66.09-1,.41,2.73-.07,5.66-.45,8.31-.36l-.49,0c.37-.53,2,.26,3.31,0-.33,0-.43.29-.34.23,1.81.09,3.71-.13,6.46-.29l-.34.13c1.06.12,2.81.07,4,.13.34-.13,1-.11.6-.31a13.36,13.36,0,0,0,2.85.28l.7,0,.58,0,.94-.1a12.76,12.76,0,0,1-.1,3.85c0-.38-.12-.9-.12-.6l.13,2.69c.23-.21.14-.35.32-.92a6.07,6.07,0,0,1,.24,1.77c-.15-1.21-.37,0-.5.53.07-.09.15.09.22.05-.41,1.4.47.23.19,2.15l-.12-.1a16.52,16.52,0,0,1,.19,2.15c-.27.33-.13-.76-.35-.81,0,1.09.51,2.15.24,3.13-.07-.46-.07-1.12-.15-1.59a6.17,6.17,0,0,0-.28,2v-.08l-.15,1.84.09-.47c.69,1.36.13,2.77.58,4.61-.43-1.79-.25-.3-.55-.43-.09.46-.18,1.18-.26,1,.24.87-.2,1.45.16,2.67-.1.06,0,.93-.25.74.07,1.12.17-.27.29-.18.33,1.74-.41,4.09.05,6.59.19,2.15.52,2.55.68,4.55-.15.67-.35-.55-.35-.55a11.06,11.06,0,0,0,0,2.93c-.08-.21-.16,0-.27.32,0,.82.36.55.22,1.63a2.82,2.82,0,0,1-.4-.82c.09,1,.28,1.93.36,2.93-.17.27-.25-.6-.37-1a12.28,12.28,0,0,0,.43,3.28l.09-.73c0,.41-.23.21-.28-.09-.21-1,.1-1.39.2-1.45l.06.72c.57-.74-.09-2.88-.06-4.32l.42.6-.35-1.47c.11-.32.34-.53.4.18.21-1-.15-.91.08-1.8,0-.1.06,0,.08,0l-.13-1c.09.19.3-.17.24.45.24-1.81-.32-2.92,0-3.6l0,.15c-.14-2.51-.3-.24-.66-2.13l.75-1.26-.3-.25c0-.26,0-.77.15-.68-.2-1-.13.17-.33-.39.28-1.25-.13-3.44.36-3.72-.23-.45-.18,1.19-.34-.14.52-.38-.09-1.54.15-2.68.27.35.13,1.43.37.29-.46-.69.1-2.22,0-3.18-.36,0-.15-2.09-.27-3.7.12.1.2-3,.33-4.54l.06.05c-.37-.3-.3-1.84-.37-3,.22,0,.3.25.4.86V18a3.42,3.42,0,0,1-.22-1.27l.27.27c0-.71-.09-1.42-.14-2.18,0-.38,0-.77,0-1.18V13l0-.93c-.12,0-.3.54-.47.7s-.33,0-.41-.71c.14-.16.37-.46.43.08a4.7,4.7,0,0,1-.07-.8l-.13,0,.19,0c.06.17.12.36.19.58,0-.59,0-.66-.07-.7a1.45,1.45,0,0,1-.62.1c.16-.2-.5-.14-.31-.3a7.52,7.52,0,0,0,1.08,0c-.46,0-1-.06-1.45-.11l-.65-.09a1.17,1.17,0,0,1-.32-.11c.06.12,0,.27-.55.3-1.41,0-.48-.24-1.3-.34-.34.13-1.24,0-1.27.29a.93.93,0,0,1-.64-.22c-.73.13-3.41,0-2.59.35l.19,0h-.12c-2.39.3-5-.16-7.34,0V11c-1.42.12-3.15.07-4.16.28-.42,0-1-.18-.81-.3a10.32,10.32,0,0,1-2.77,0c1.09-.18-.38-.16,1.11-.13a9.75,9.75,0,0,0-3.23,0c.51-.26-1.06-.32-1.73-.25l1,.18c-.76,0-1.41,0-2.08,0l.36-.34c-2.88-.4-5.19.69-7.39,0-.76.23,1.57.16.89.43a28.45,28.45,0,0,1-3.12-.52c-1.82-.19-1.69.48-3.59.36.24.12.47.43-1,.55-1.32-.05-1.63-.5-.79-.6.32,0,.47,0,.46.07.42,0,1-.09.46-.22l-.17.12c-.66-.12-2.48-.11-2-.31-1,.12-.43.2.31.26-1.7-.17-2.66,0-4.4-.12.27.06.53.2.25.2-2.56-.14-1.13.23-2.87.28-1-.18.36-.43-1.39-.28-1.07-.12-.23-.32.2-.41a16.44,16.44,0,0,1-3.89-.19L535,10a9,9,0,0,1-1.34.05l.48.24c-.49,0-.91,0-.9-.14-.51.16.39.4-.62.61-.66-.12-2,.13-2.23-.19,2.07.11-.23-.31,1.52-.36a7.4,7.4,0,0,1-1.24,0c-.08,0,.07-.07.2-.08-2-.28-.91.35-3,.35.26-.18-.47-.34-.81-.3.83,0,.4.29-.36.43a9.19,9.19,0,0,0-2.12.09l.79.06a5.62,5.62,0,0,1-1.84.21c-.08-.14.83-.09.5-.16-1,.32-2.3-.32-3.72-.11-.65-.12-.06-.33-.64-.41-1.59.23-1.72-.25-3.39-.06.48.24.56.18-.61.42l2.75-.17-1.77.35c.83,0,1.75-.15,2.25-.11-.84.19-.76.13-.36.33-1.13-.36-2.25.21-3.56,0l0-.59c-2-.27-3.5.3-6.07.15l.83.1c-.35.24-1.58,0-2.41.13.07-.2-.45-.27-.8-.39,0,.15-1.87,0-2.11.38l-1.14-.26c-2.07-.11-2.36.56-4.35.49.6-.21-.3-.35,1-.5-.67,0-1.26,0-1.27.1-.39-.13-1.84.26-2.45.07a1.93,1.93,0,0,1-1.12.28c-.08,0,0-.1,0-.1s-1.16.14-.51.35c-2.05-.61-5.72,0-7.5-.48-1.45.07-3.19.13-4.51.14.09-.05,0-.09.26-.07-1.82-.19-1.12.56-3.18.36-1.06-.32,1.09-.17.43-.29-.28-.65-2.49.08-3.88-.3l.34,0c-1.06-.22-2.59.24-4.33.2,0,0,.09-.06,0-.1a30.44,30.44,0,0,1-5.11.53c.52-.25.76-.13.44-.39-.74,0,.22.41-1.27.49-.48-.14-1.56-.27-1.71-.54l1.41,0c-.72-.35-1.82,0-2.56-.05l.09-.15c-2.16.05-2.19.44-4.51.41l.24.12c-1.26.39-1.06-.22-2.32.07l-.39-.39c-.83.09-2.93.38-4.43.45a29.89,29.89,0,0,1,3.69-.61,15.58,15.58,0,0,0-3.25.22,4,4,0,0,1,1.09-.07,13.89,13.89,0,0,1-4,.45c.1-.25-.33-.35-1-.41l-.54,0h-.76l-1.89,0a10,10,0,0,1-.3,2.92c.28,2.92-.12,5.8-.08,9.21.6-1.21,0,1,.63.78a4.2,4.2,0,0,1,0,1.17l-.37,2.4c-.17.57-.13-.75-.27-.68-.05,1.74-.26.73-.42,1.88.22-.24.31.6.23,1.59l.28-1.39c.33,2.43-.51,2.1-.19,4.54l-.19-.77c.11,1.26,0,4.63.49,5.86-.07.22-.24.52-.29,0-.07,3,.53,6.67.22,9l-.15-.23a4.28,4.28,0,0,1,.13,1.67c-.06,0-.14-.22-.15,0a9.42,9.42,0,0,1,.17,2.23l-.17-.64c-.19,2.93.41,4.49.52,7-.22,0-.37.57-.47,1.29-.05.36-.09.75-.12,1.13l0,.3,0,.49,0,.9-.06-.05v1.67l2.05,0,1,0,.52,0c.67,0,1.32-.1,2-.15,1.29-.11,2.56-.24,4-.32,2,.48,6.64.2,9.79.47-.49-.08.07-.35.63-.39.74.09,2-.31,1.93.1h-.26c.55.4,2.07.29,3.26.3l.19-.53c3.1.77,8.13-.28,9.82.41.75-.13,1.68-.13,2.42-.26l0,.28c2.07.07,3.11.11,5.67,0l-.52.2c1.44,0,1.82-.81,3.16-.83l.4.42c2.52,0,5.07.37,7.56,0,0,.06-.11.19-.52.2,1.19,0,4.59.29,4.16-.29,0,.38,2.6,0,4-.13l-.21.28a7.81,7.81,0,0,1,2.79-.55c.38,0,.33.22-.17.15,1.26.15,1-.26,2.52-.12l-.57.18a3.92,3.92,0,0,0,1.92-.28,5.47,5.47,0,0,1,2.66.32,2.81,2.81,0,0,1,1.66-.28c.11.09-.17.15-.31.18,2.18.19,3.24-.32,4.74,0a.29.29,0,0,0,.25.16c-1.73,0-3.13,0-3,0,0,.26,1.4.3.29.66a19.09,19.09,0,0,1,4.41-.49.75.75,0,0,1,.18.08l-.14,0a3,3,0,0,0,.86,0,11.12,11.12,0,0,0,1.13.08c.16.21,1.61.11,2.3.12-.05-.28.86-.23,0-.46.12,0-.13,0-.59,0a2.16,2.16,0,0,0-.3,0l0,0h-1.74a3.92,3.92,0,0,1,1.9-.1c.36-.18.76-.37,1-.46,1,.4,2.79.61,3.05.85,2.13-.16,5-.1,6.36-.63a1.21,1.21,0,0,1,.92.23c-.35.06-.76.05-1,.12,1.21-.13,3.59-.05,3.88-.42,1.52.17-.86.34,1.24.28l-.29.11c4.13.59,6.71-.94,11.29-.18-.32,0-.48-.07-.54-.13,5.22.33,10.75-.31,15.9.22a6,6,0,0,0,2.51-.31l.32.3,1.53-.35c2.16-.25,3.75.74,6.49.26l-.35-.2c1,0,3.11-.12,3,.11a.91.91,0,0,1,.71-.11l0,.16,2.42-.27c1.87.12-.3.63,2.44.66,1-.06,2.89-.46,2.51-.57s-1.05-.09-1.08-.25l.93-.09c.17-.46.89-.94-1.4-1.26l-1.59.28-.51-.22,1.34,0a3.05,3.05,0,0,0-1.78.11,1.2,1.2,0,0,0-.67-.25l-1.56.44c-.19-.18.7-.36-.35-.46-.73.21.7.41-.51.54-.76-.21-.54-.38-1.43-.2-.13-.12.06-.2.42-.25a14.48,14.48,0,0,0-2.52.31c-.79-.26-2.68.07-2.6-.37a9.57,9.57,0,0,1-2.13.36c1.33-.53-2.74,0-2.39-.59-1,.47-3.56.21-5.31.47a.87.87,0,0,1,.44-.09,12.23,12.23,0,0,1-1.9-.27c-.13.39-1.66.48-2.49.72-1.2-.38.73-.46.36-.82.06.31-2.1.31-1.69.58-.92-.24-.8-.11-1.27-.44-.16.49-.86.08-1.63.38-1.33-.24-.34-.45-1.81-.31C556.25,60.06,557.56,59.89,557.56,59.89Zm-34.9.85h.72Zm-2.93,0H521c.11.1,0,.2-.3.2C520.86,60.88,520.17,60.82,519.73,60.74Zm6.2,1.95c-.46,0-.62,0-.68-.07l.81,0,.06,0A.59.59,0,0,1,525.93,62.69Z"/><path d="M526.77,62.32l.19,0-.28-.06-.16.09Z"/><path d="M581.8,11.07h-.06a.4.4,0,0,1,.13,0Z"/><polygon points="479.24 60.2 479.24 60.27 479.5 60.21 479.24 60.2"/><path d="M589.57,19.32a.53.53,0,0,0-.07.21A.66.66,0,0,0,589.57,19.32Z"/><path d="M589.51,26.3l-.1,1C589.46,26.86,589.49,26.55,589.51,26.3Z"/><path d="M589.37,31.66a.36.36,0,0,0,.12.11h0Z"/><path d="M525,12.57h-.21C524.31,12.63,524.64,12.61,525,12.57Z"/><path d="M550.38,11.91c-.27.05-.53.1-.81.13C550,12.06,550.37,12.07,550.38,11.91Z"/><path d="M496.66,12.9Z"/><path d="M548.39,12a5.15,5.15,0,0,0,1.18,0A6.64,6.64,0,0,0,548.39,12Z"/><path d="M589.24,54.91v.26s0,0,0,0Z"/><path d="M589.27,55.2l0,.29C589.31,55.35,589.31,55.24,589.27,55.2Z"/><path d="M589.38,56.09l-.07-.6A1.4,1.4,0,0,0,589.38,56.09Z"/><path d="M589.37,47.81l-.1-.08A.14.14,0,0,0,589.37,47.81Z"/><path d="M589.34,45.65a12.9,12.9,0,0,0-.15,2l.08.07C589.12,47.39,589.51,46.14,589.34,45.65Z"/><path d="M590.6,36.64l-.08,1.81c.11-.31.25-.73.28.09C591.12,36.26,590.56,39,590.6,36.64Z"/><path d="M590.76,31c0,1,.16,0,.22,0C590.88,30.46,590.85,30.31,590.76,31Z"/><path d="M569.15,10.84l.1-.25C568.5,10.63,569.24,10.69,569.15,10.84Z"/><polygon points="561.4 12.17 562.13 12.33 562.48 12.09 561.4 12.17"/><polygon points="556.83 10.35 557.15 10.31 555.9 10.4 556.83 10.35"/><path d="M488.78,10.44l.22.31C489.51,10.69,489.61,10.34,488.78,10.44Z"/><path d="M459.4,10.76a2.91,2.91,0,0,0-1.66-.11C458.4,10.67,459.06,10.8,459.4,10.76Z"/><polygon points="471.45 62.73 470.86 62.84 471.97 62.75 471.45 62.73"/></g></g></svg>