<svg xmlns="http://www.w3.org/2000/svg" viewBox="0 0 150 60"><defs><style>.cls-1{fill:#fff;}</style></defs><g id="Layer_2" data-name="Layer 2"><g id="Layer_1-2" data-name="Layer 1"><path d="M109,.84c.28,0,.39,0,.41-.07C109.18.79,109,.81,109,.84Z"/><path d="M102.85.48l.36,0A.76.76,0,0,0,102.85.48Z"/><path d="M145.24,1l-1-.11C144.2,1,144.76,1,145.24,1Z"/><path d="M149.83,13.56c0,.08.09.16.14.24l-.14-.53Z"/><path d="M149.48,24.72a1.06,1.06,0,0,1,.2.58c.06,0,.12,0,.21-.12C149.9,24.91,149.61,24.82,149.48,24.72Z"/><path d="M149.38,44.07l0,.33Z"/><path d="M149.9,4.75a.27.27,0,0,0,.1-.11S149.93,4.68,149.9,4.75Z"/><path d="M149.08,58.55l-.2,0a.42.42,0,0,0,0,.16Z"/><path d="M91.54.12h0C91.89.09,91.72.1,91.54.12Z"/><path d="M.47,15.09c.26-1.15.33,1.86.62.14C1,15.39.64,13.66.47,15.09Z"/><path d="M65.74.41s-.07-.06-.27-.12A.86.86,0,0,0,65.74.41Z"/><path d="M55.39.68a2.66,2.66,0,0,0-.71,0l.11,0A1.36,1.36,0,0,1,55.39.68Z"/><path d="M44.89.69l.2.05h.33Z"/><path d="M149.89,12.52a36.07,36.07,0,0,1-.15-4.81c-.17-.07-.45.64-.66.49v-1c.09,0,.17.15.2.41a3.27,3.27,0,0,1-.06-1l.24.8c.11-.86-.2-.45-.18-1.13.21,0,.15-.51.31-.41a4.09,4.09,0,0,0,0,.86,6.8,6.8,0,0,1,.31-2c-.12.06-.28,0-.3-.57,0-.73.05-.85.13-.9s.08,0,.11-.08a1.09,1.09,0,0,0,.11-.51c-.15-.48,0-2-.3-1.7V.94a1.14,1.14,0,0,1-.74-.22c-.31,0-.78.05-1.3.07l-1.18,0c-.7,0-1.19.08-.75.24l.2,0h-.13c-2.54.3-5.28-.16-7.81,0V1c-1.51.11-3.35.06-4.43.27-.45,0-1.05-.18-.86-.29a12.18,12.18,0,0,1-2.94,0c1.15-.17-.4-.15,1.18-.13a11.36,11.36,0,0,0-3.44,0c.55-.25-1.13-.32-1.84-.24l1,.18c-.8,0-1.5,0-2.21,0l.39-.33c-3.06-.41-5.52.69-7.86,0-.8.23,1.67.16.94.43a32.65,32.65,0,0,1-3.31-.52c-1.93-.19-1.8.49-3.82.36.26.12.5.44-1,.55-1.41-.05-1.73-.5-.84-.6.34,0,.5,0,.49.07.45,0,1-.09.49-.22l-.18.12c-.7-.12-2.64-.11-2.18-.31-1.07.12-.46.2.33.26-1.81-.17-2.83,0-4.69-.12.3.07.57.21.28.2-2.73-.14-1.2.23-3,.28-1-.18.37-.43-1.49-.28-1.13-.12-.24-.31.21-.41A18.53,18.53,0,0,1,95,.1l.89-.1A10,10,0,0,1,94.5.05L95,.29c-.52,0-1,0-1-.14-.54.16.42.4-.66.61C92.7.64,91.27.89,91,.57c2.2.11-.24-.31,1.62-.36a8.39,8.39,0,0,1-1.32,0c-.08,0,.07-.06.22-.08-2.11-.29-1,.35-3.15.35.28-.18-.51-.34-.86-.3.88,0,.42.29-.39.43a10.29,10.29,0,0,0-2.25.09l.84.06a6.06,6.06,0,0,1-2,.21c-.08-.14.88-.09.54-.15-1.09.31-2.45-.33-4-.12-.7-.12-.07-.33-.68-.41C78,.51,77.84,0,76.06.22c.51.24.6.19-.65.42L78.33.47,76.46.82c.88,0,1.86-.15,2.39-.11C78,.9,78,.84,78.47,1c-1.21-.36-2.4.21-3.79,0l0-.59c-2.1-.27-3.73.3-6.45.15l.88.1c-.37.24-1.69,0-2.57.13.08-.2-.47-.27-.84-.39,0,.15-2,0-2.24.38L62.28.53c-2.2-.11-2.51.56-4.62.5.63-.22-.33-.36,1.09-.51-.71,0-1.34,0-1.35.1-.42-.13-2,.26-2.61.08A2.24,2.24,0,0,1,53.6,1c-.08,0,0-.09,0-.09s-1.24.13-.55.35c-2.18-.62-6.08,0-8-.49-1.54.07-3.4.13-4.8.15.09-.06,0-.1.27-.08-1.93-.19-1.18.57-3.38.36C36.06.85,38.35,1,37.65.88,37.34.23,35,1,33.52.59l.36,0c-1.13-.22-2.76.24-4.6.2,0,0,.09-.06,0-.1a34.17,34.17,0,0,1-5.42.53c.55-.25.8-.13.47-.39-.8,0,.23.42-1.36.49-.52-.14-1.66-.26-1.81-.54h1.49c-.76-.36-1.93,0-2.72,0L20,.52c-2.3,0-2.33.44-4.8.42l.26.11c-1.35.39-1.13-.22-2.48.07L12.61.73c-.88.09-3.11.38-4.71.46A31.5,31.5,0,0,1,11.83.57,18.42,18.42,0,0,0,8.37.79,4.56,4.56,0,0,1,9.53.72a16,16,0,0,1-4.27.46c.11-.26-.35-.36-1-.41l-.57,0-.79,0-2,0a9.94,9.94,0,0,1-.31,3c.29,3-.12,6-.08,9.51.62-1.24,0,1,.65.82a4.48,4.48,0,0,1,0,1.2l0-.17,0,.18h0L.72,17.71C.53,18.3.58,16.93.43,17c0,1.8-.26.76-.43,1.95.23-.25.32.62.24,1.64l.29-1.44c.33,2.51-.53,2.17-.2,4.7l-.2-.8c.12,1.3,0,4.79.5,6.06-.07.23-.24.54-.29,0C.27,32.18.88,36,.57,38.39l-.15-.23a4.77,4.77,0,0,1,.13,1.73c-.06,0-.15-.23-.16,0a10,10,0,0,1,.18,2.31L.4,41.57c-.21,3,.42,4.65.52,7.18-.45,0-.6,2.38-.67,3.57l-.07,0c0,1.17,0,2.23.08,3.24,0,.55.08,1.08.11,1.61,0,.83.09,1.65.13,2.48l2.6-.12,1.7-.11c2.08.48,7.05.2,10.4.47-.51-.08.09-.34.68-.38.79.08,2.17-.31,2,.09h-.28c.59.39,2.2.29,3.47.3l.2-.53c3.3.77,8.64-.28,10.44.41.8-.14,1.79-.14,2.57-.27l0,.29c2.21.07,3.31.1,6,0l-.55.2c1.53,0,1.94-.82,3.36-.84l.42.43c2.68,0,5.4.36,8.05,0,0,.06-.12.18-.56.2,1.27,0,4.89.29,4.43-.29,0,.38,2.76,0,4.21-.13l-.22.28a8.76,8.76,0,0,1,3-.56c.4,0,.35.23-.19.15,1.35.15,1-.26,2.69-.11l-.61.18a4.5,4.5,0,0,0,2-.28,6.09,6.09,0,0,1,2.84.32A3.07,3.07,0,0,1,71,59c.11.1-.19.16-.34.18,2.32.19,3.45-.32,5,0,0,.1.13.14.27.17-1.85,0-3.33,0-3.19,0,0,.26,1.49.3.3.66a21.55,21.55,0,0,1,4.69-.5.84.84,0,0,1,.19.09l-.15,0a3.9,3.9,0,0,0,.92,0c.46,0,.76.07,1.2.08a8.6,8.6,0,0,0,2.45.12c-.06-.28.91-.24,0-.47.12,0-.14,0-.63,0a2.5,2.5,0,0,0-.32,0l0,0-1.84,0a4.53,4.53,0,0,1,2-.11c.38-.18.8-.36,1-.45,1,.39,3,.6,3.25.85,2.26-.16,5.34-.11,6.76-.64a1.3,1.3,0,0,1,1,.24,6.82,6.82,0,0,0-1,.12c1.29-.14,3.81-.05,4.12-.42,1.63.16-.91.34,1.32.28l-.3.11c4.39.59,7.13-.94,12-.19-.34,0-.51-.06-.57-.13,5.54.34,11.43-.31,16.9.22a6.67,6.67,0,0,0,2.68-.31l.33.3,1.63-.34c2.3-.26,4,.74,6.9.25l-.38-.2c1,0,3.32-.12,3.14.11a1.06,1.06,0,0,1,.76-.1l0,.16,2.57-.27c2,.11-.31.62,2.6.66,1.08-.07,3.08-.47,2.67-.57s-1.11-.1-1.15-.26l1-.08,0-.09h.16v-.29a.35.35,0,0,0,0-.37V47.11l.08.12-.08-.34V45.42c.06,0,.11.18.14.47.21-1.07-.15-.94.08-1.86,0-.1.06-.06.08,0l-.13-1c.09.21.3-.17.24.47.25-1.87-.32-3,0-3.72l0,.15c-.11-1.94-.23-1.12-.44-1.39V37.31l.53-.9-.31-.25c0-.27,0-.8.16-.7-.22-1-.14.17-.34-.41.28-1.29-.14-3.55.36-3.85-.23-.46-.18,1.24-.35-.14.54-.39-.09-1.59.16-2.77.28.36.13,1.48.38.3-.47-.71.1-2.29,0-3.29-.37,0-.16-2.16-.28-3.83.13.11.21-3.13.34-4.68l.06,0c-.37-.3-.3-1.9-.38-3.06.23,0,.31.25.42.88V13.56a3.64,3.64,0,0,1-.22-1.31ZM81,59.58l0,0a.49.49,0,0,1-.19.14c-.49,0-.66,0-.73-.08Zm68.15-16a.5.5,0,0,1,0,.13v-.58C149.09,43.31,149.11,43.45,149.12,43.61Z"/><path d="M81.72,59.32l.2,0-.29-.07-.18.09Z"/><path d="M145.61,1.07l.14,0-.07,0Z"/><path d="M149.58,32.8l-.09,1.86c.12-.32.27-.75.29.1C150.12,32.4,149.53,35.24,149.58,32.8Z"/><path d="M149.74,27c0,1,.16,0,.23,0C149.86,26.4,149.84,26.25,149.74,27Z"/><path d="M132.23.85l.1-.26C131.53.63,132.32.69,132.23.85Z"/><polygon points="119.47 0.31 118.14 0.4 119.12 0.34 119.47 0.31"/><path d="M46.76.44,47,.75C47.54.7,47.65.34,46.76.44Z"/><path d="M15.52.76A3.26,3.26,0,0,0,13.76.65C14.46.68,15.16.8,15.52.76Z"/><polygon points="22.26 59.83 23.45 59.74 22.89 59.73 22.26 59.83"/><path class="cls-1" d="M125.93,8.21c.13,0,.18,0,.19-.05S125.9,8.19,125.93,8.21Z"/><path class="cls-1" d="M123,8l.17,0A.22.22,0,0,0,123,8Z"/><path class="cls-1" d="M142,10.38l.06-.66C142,9.7,142,10.07,142,10.38Z"/><path class="cls-1" d="M142.13,21a.77.77,0,0,0,.07.16l-.07-.35Z"/><path class="cls-1" d="M142,28.55a.9.9,0,0,1,.1.4s.06,0,.1-.09S142,28.62,142,28.55Z"/><path class="cls-1" d="M141.9,41.59l0,.23Z"/><path class="cls-1" d="M142.16,15.09a.13.13,0,0,0,.05-.07S142.18,15.05,142.16,15.09Z"/><path class="cls-1" d="M141.76,51.36h-.1a.5.5,0,0,0,0,.12Z"/><path class="cls-1" d="M117.69,7.69h0C117.85,7.68,117.77,7.68,117.69,7.69Z"/><path class="cls-1" d="M74.77,17.83c.13-.77.16,1.26.31.1C75,18,74.85,16.87,74.77,17.83Z"/><path class="cls-1" d="M105.54,7.9s0,0-.13-.09A.3.3,0,0,0,105.54,7.9Z"/><path class="cls-1" d="M100.66,8.1a.69.69,0,0,0-.33,0l0,0A.43.43,0,0,1,100.66,8.1Z"/><path class="cls-1" d="M95.72,8.1l.09,0H96Z"/><path class="cls-1" d="M142.16,20.33c0-1-.17-2-.08-3.24-.08-.05-.22.43-.32.33v-.69s.08.1.09.28a3.11,3.11,0,0,1,0-.64l.11.53c.06-.57-.1-.3-.08-.76.1,0,.07-.34.15-.27a3.59,3.59,0,0,0,0,.57,5.85,5.85,0,0,1,.15-1.35c-.06.05-.14,0-.15-.38,0-1,.12-.34.17-.91-.07-.24,0-.86-.14-.88a.83.83,0,0,1,.11-.45c-.07-.51,0-2.38-.18-1.8v0c0-.34,0-.65,0-1s0-.81,0-1.23l-1.27-.08a7.93,7.93,0,0,0-1.09,0V8.3a16.65,16.65,0,0,0-2.09.19c-.21,0-.49-.12-.4-.21a3.68,3.68,0,0,1-1.39,0c.55-.12-.19-.11.56-.09a3.55,3.55,0,0,0-1.62,0c.26-.18-.53-.23-.87-.18l.5.13a9,9,0,0,1-1,0l.18-.24c-1.44-.29-2.6.49-3.7,0-.38.17.78.12.44.31a11,11,0,0,1-1.56-.37c-.91-.13-.85.34-1.8.25.12.09.24.31-.47.39s-.82-.35-.4-.42c.16,0,.24,0,.23.05.22,0,.5-.07.23-.16l-.08.09c-.33-.09-1.25-.08-1-.22-.5.08-.22.14.16.18-.85-.12-1.33,0-2.21-.08.14,0,.27.14.13.14-1.29-.1-.57.16-1.44.2-.49-.13.18-.31-.7-.2-.53-.09-.11-.22.1-.29a5.91,5.91,0,0,1-2-.14l.42-.07a3.88,3.88,0,0,1-.66,0l.24.17c-.25,0-.46,0-.45-.1-.26.11.19.28-.31.43-.33-.09-1,.09-1.12-.13,1,.07-.12-.23.76-.26a2.62,2.62,0,0,1-.62,0s0,0,.1-.06c-1-.2-.46.26-1.48.25.13-.12-.24-.24-.41-.21.42,0,.2.21-.18.31-.66-.1-.72.07-1.06.06l.39.05c-.13.12-.46.1-.92.14,0-.09.42-.06.25-.11-.51.23-1.15-.23-1.86-.08-.33-.08,0-.23-.32-.29-.8.16-.86-.17-1.7,0,.24.17.28.13-.31.29l1.38-.12-.88.25c.41,0,.87-.11,1.12-.08-.42.14-.37.1-.18.24-.56-.25-1.12.15-1.78,0l0-.42c-1-.19-1.76.21-3,.11l.41.07c-.17.17-.79,0-1.2.09,0-.14-.22-.19-.4-.28,0,.11-.94,0-1.06.27L103.91,8c-1-.08-1.18.4-2.18.35.3-.15-.15-.25.52-.36-.34,0-.63,0-.64.07-.19-.09-.92.19-1.23,0a.74.74,0,0,1-.56.2s0-.07,0-.07-.59.1-.26.25c-1-.44-2.87,0-3.76-.34-.72,0-1.6.09-2.26.1,0,0,0-.07.13-.05-.91-.14-.56.4-1.59.25-.53-.22.55-.12.22-.21-.14-.46-1.25.07-1.94-.2l.16,0c-.53-.16-1.29.17-2.16.14,0,0,0,0,0-.07a10.38,10.38,0,0,1-2.55.38c.26-.18.38-.09.22-.28-.38,0,.11.3-.64.35-.24-.1-.78-.19-.85-.38h.7c-.36-.26-.91,0-1.28,0L84,8c-1.08,0-1.09.32-2.25.3l.12.08c-.64.28-.54-.16-1.17.05l-.19-.28c-.42.07-1.47.27-2.22.32A11.17,11.17,0,0,1,80.15,8a6,6,0,0,0-1.63.16,1.68,1.68,0,0,1,.54-.05,5.12,5.12,0,0,1-2,.33c0-.18-.17-.26-.5-.3s-1,0-1.61-.05c0,.45,0,.89,0,1.28,0,.17,0,.41,0,.5a1.31,1.31,0,0,1-.07.27c.14,2-.06,4,0,6.41.31-.84,0,.7.32.55a4.31,4.31,0,0,1,0,.81v0h0l-.19,1.67c-.09.4-.07-.53-.14-.47,0,1.21-.13.5-.21,1.3.11-.16.16.43.11,1.12l.15-1c.16,1.7-.26,1.47-.1,3.17l-.1-.54a29.36,29.36,0,0,0,.25,4.09c0,.15-.12.36-.14,0,0,2.09.26,4.66.11,6.28l-.08-.16a4.33,4.33,0,0,1,.07,1.17s-.08-.16-.08,0a10,10,0,0,1,.09,1.55l-.09-.44A46.67,46.67,0,0,0,75,40.53c-.22,0-.29,1.6-.33,2.4l0,0c0,2.38.18,4,.27,6.24a9.07,9.07,0,0,0-.1.94c0,.06,0,.28,0,.43l0,.52c0,.36,0,.74,0,1.13l2.3,0a16.38,16.38,0,0,1,1.64.09c-.24-.05,0-.24.32-.27s1-.22,1,.07h-.13c.28.28,1,.21,1.63.22l.1-.38c1.56.55,4.07-.2,4.92.29.37-.09.84-.09,1.21-.19l0,.21a26.35,26.35,0,0,0,2.84,0l-.26.15c.72,0,.91-.58,1.58-.59l.2.3a17.78,17.78,0,0,0,3.79,0c0,.05,0,.13-.26.15.6,0,2.3.2,2.08-.21,0,.27,1.31,0,2-.09l-.11.19a3.05,3.05,0,0,1,1.4-.39c.19,0,.17.16-.08.11.63.1.49-.19,1.26-.08l-.29.12a1.43,1.43,0,0,0,1-.2,2,2,0,0,1,1.33.23,1.08,1.08,0,0,1,.83-.2c.05.07-.09.11-.16.13,1.1.13,1.63-.23,2.38,0,0,.07.06.1.13.12-.87,0-1.57,0-1.51,0,0,.18.71.22.15.47a6.78,6.78,0,0,1,2.21-.35l.09.06-.07,0a1.23,1.23,0,0,0,.43,0,5.62,5.62,0,0,0,.56.06c.08.15.81.08,1.16.08,0-.19.43-.16,0-.33,0,0-.07,0-.3,0a.57.57,0,0,0-.15,0l0,0H109a1.45,1.45,0,0,1,1-.08c.17-.12.37-.26.48-.32.48.28,1.4.43,1.53.6a10.69,10.69,0,0,0,3.19-.45c.3,0,.35.11.46.17a2.29,2.29,0,0,0-.48.09c.61-.1,1.8,0,1.94-.3.77.12-.43.24.62.2l-.14.08c2.07.41,3.36-.67,5.66-.14-.16,0-.24,0-.28-.09,2.62.24,5.39-.22,8,.16a2.32,2.32,0,0,0,1.26-.22l.16.21.76-.25c1.09-.18,1.88.53,3.25.19l-.18-.15c.5,0,1.57-.08,1.48.08a.36.36,0,0,1,.36-.07v.11l1.21-.19c.94.08-.14.44,1.23.47.51-.05,1.45-.33,1.26-.41s-.53-.07-.54-.18l.46-.06s0,0,0-.06h.08v-.2a.42.42,0,0,0,0-.27V43.65l0,.08,0-.23v-1s.05.12.06.31c.11-.72-.07-.63.05-1.25,0-.07,0,0,0,0l-.06-.7c0,.14.15-.12.12.32.12-1.26-.16-2,0-2.51v.1c-.05-1.31-.11-.75-.21-.94V37l.26-.6-.16-.18c0-.18,0-.53.08-.47-.1-.67-.07.12-.17-.27.15-.87-.06-2.4.19-2.6-.12-.31-.1.84-.18-.09.27-.27,0-1.07.08-1.87.14.24.06,1,.19.2-.24-.48,0-1.54,0-2.21a11.91,11.91,0,0,1-.14-2.58c.07.07.11-2.12.17-3.16l0,0a7.21,7.21,0,0,1-.19-2.07c.12,0,.16.17.21.6V21a3.15,3.15,0,0,1-.11-.88ZM109.67,52.09l0,0a.41.41,0,0,1-.09.1c-.23,0-.31,0-.34-.06Zm32.11-10.8a.37.37,0,0,0,0,.09V41C141.76,41.08,141.77,41.18,141.78,41.29Z"/><path class="cls-1" d="M110,51.9h.09l-.13,0-.09.07Z"/><path class="cls-1" d="M142,10.62a.2.2,0,0,1,0,.09l0,0Z"/><path class="cls-1" d="M142,34l0,1.26c.06-.22.13-.51.14.06C142.27,33.73,142,35.65,142,34Z"/><path class="cls-1" d="M142.08,30.09c0,.68.08,0,.11,0C142.14,29.69,142.13,29.58,142.08,30.09Z"/><path class="cls-1" d="M136.85,8.21,136.9,8C136.53,8.06,136.9,8.1,136.85,8.21Z"/><polygon class="cls-1" points="130.85 7.83 130.22 7.9 130.68 7.86 130.85 7.83"/><path class="cls-1" d="M96.6,7.92l.11.23C97,8.1,97,7.85,96.6,7.92Z"/><path class="cls-1" d="M81.89,8.15a1.06,1.06,0,0,0-.83-.07C81.39,8.09,81.72,8.18,81.89,8.15Z"/><polygon class="cls-1" points="82.03 52.27 82.58 52.21 82.32 52.2 82.03 52.27"/></g></g></svg>