<svg xmlns="http://www.w3.org/2000/svg" viewBox="0 0 102.8 102.96"><defs><style>.cls-1{fill:#fff;}</style></defs><g id="Layer_2" data-name="Layer 2"><g id="Layer_1-2" data-name="Layer 1"><rect x="1.62" y="1.49" width="100" height="100"/><path class="cls-1" d="M101,101.49c.09.21.28.09.24-.49l-.33-.41Z"/><path class="cls-1" d="M101.57,97.58c-.17-.68-.45-1.47-.75-1,.32.67.18.84.56,1.56,0,.58-.1,1-.23.92.09.2-.07.9.14,1.21a5.12,5.12,0,0,0,0-2.71C101.42,97.33,101.5,97.53,101.57,97.58Z"/><path class="cls-1" d="M102.08,40.86l0,.36A1.79,1.79,0,0,0,102.08,40.86Z"/><path class="cls-1" d="M102.26,5.71c0,.27,0,.38.07.39C102.31,5.86,102.29,5.65,102.26,5.71Z"/><path class="cls-1" d="M99.84.48l.48,0-.32,0A.28.28,0,0,0,99.84.48Z"/><path class="cls-1" d="M102.08,40.86l.11-.94C102.08,39.85,102.11,40.4,102.08,40.86Z"/><path class="cls-1" d="M100.77,89.76a2.37,2.37,0,0,0,.08.51l0-.48Z"/><path class="cls-1" d="M102.35,56.35v.29a1.71,1.71,0,0,0,.13.23Z"/><path class="cls-1" d="M102.4,68.24c0-.27-.27-.36-.39-.46a1.14,1.14,0,0,1,.19.58C102.26,68.37,102.32,68.33,102.4,68.24Z"/><path class="cls-1" d="M101.91,87.1l0,.33Z"/><path class="cls-1" d="M102.41,47.84a.22.22,0,0,0,.1-.11S102.44,47.78,102.41,47.84Z"/><path class="cls-1" d="M87.83,100.17s0,0,0,0S87.93,100.17,87.83,100.17Z"/><path class="cls-1" d="M101.62,101.56h-.19a.53.53,0,0,0,0,.16Z"/><path class="cls-1" d="M88.86.12h0C89.2.09,89,.1,88.86.12Z"/><path class="cls-1" d="M.45,15.06c.26-1.14.33,1.86.61.14C1,15.36.62,13.64.45,15.06Z"/><path class="cls-1" d="M100.8,89.45V89A3.73,3.73,0,0,0,100.8,89.45Z"/><path class="cls-1" d="M1.06,15.2h0l0-.18Z"/><path class="cls-1" d="M63.56.29a.83.83,0,0,0,.25.12S63.75.34,63.56.29Z"/><path class="cls-1" d="M82.41.69l-.47,0Z"/><path class="cls-1" d="M53.77.68a2.51,2.51,0,0,0-.69,0l.11,0A1.48,1.48,0,0,1,53.77.68Z"/><path class="cls-1" d="M43.58.68a1.39,1.39,0,0,0,.19.06h.32Z"/><path class="cls-1" d="M56.87,100.3a1.32,1.32,0,0,1,.47.26C57.19,100.36,58.68,100.28,56.87,100.3Z"/><path class="cls-1" d="M100.93,89.76a.41.41,0,0,1-.13-.31l0,.34S100.9,89.83,100.93,89.76Z"/><path class="cls-1" d="M53.35,2.9l-1.61,0C52.19,2.89,52.78,2.9,53.35,2.9Z"/><path class="cls-1" d="M2.76,83.66l0,.37A1.35,1.35,0,0,0,2.76,83.66Z"/><path class="cls-1" d="M46.93,2.9A3.87,3.87,0,0,0,46,2.71a.84.84,0,0,0-.19.07Z"/><path class="cls-1" d="M57.35,100.56h0Z"/><path class="cls-1" d="M68,99.89c-1.54,0-.72.36-1.05.57-1.84.11-.85-.27-1.48-.46-1.15.1-2,.44-2.89.43-.06-.07-.23-.09,0-.16-1.22.29-3.61,0-5,.38a.36.36,0,0,1-.18-.09.47.47,0,0,1,.22.51c-.7,0-1.29.23-1.55,0a1.12,1.12,0,0,0,.66-.17L56,101c-.66-.35,1-.12,1-.38a30.75,30.75,0,0,1-4.14.3c-.22-.34,2.53-.11,1.09-.41l1.67.12c-1.28-.53,1,0-.15-.53-2.21-.1-2.47.17-4.67.07-.49.19.17.28-.33.47-3.12.34-2.46-.85-4.76-.4a3.15,3.15,0,0,1-2.46.43l.56-.39c-2.13,0-1.22.56-3.45.3.39-.15,1.67-.13,1.35-.17-1.45-.31-1,.21-2.14.21l-.23-.34c-2.27.06-4.77.3-7.29.36.14-.1.57-.2,0-.31a86.57,86.57,0,0,1-9.83-.24l-1.17.29c-.27,0-.51-.13-.21-.19-1.19-.11-.06.19-.64.3s-.89-.16-.46-.25a40.15,40.15,0,0,1-8.22.22l.43-.09c-1.72-.12-1.95.6-3.55.33l.31,0c-1.16,0-2.36,0-3.54,0H3.32l-.82,0,0-.46,0-.22v-.41a17.58,17.58,0,0,1,.19-1.76c-.42-.55.19-3.71-.4-4A34,34,0,0,0,3,89.25c0-.8-.37-1.2-.43-2.19l.31,0-.32-1.35L2.87,85,2.8,84c0,.37-.14.79-.23.73a9.1,9.1,0,0,1,.37-3.59l-.26-3.45c.12.08.17.66.25,1.11-.32-1.84.32-.33,0-2-.07.23-.18-.12-.24-.16a21.72,21.72,0,0,0,.11-4.17l.21.27c0-2.56-.1-5.4-.1-8.27-.1,1-.47.8-.5,0l.32-.33c-.2-.55-.12.88-.37-.24,0-1.07.37-.72.48-.11l-.11-1.3c.09-.08.15.23.27.31-.2-.54.33-2.25,0-3l.09-.08c0-2.87-.11-4.17-.12-6.51-.28,0-.22-1-.45-1.66.09-1.72.31-3.62.29-5.69-.14-1.46-.24-.43-.41-1.08.26-.11.23-2.18.42-1.11,0-2.48-.05-3.17-.26-6.32-.11.35-.15.73-.24.53,0-.57.11-1.3.23-1.22l0,.16c-.39-3.53.75-8.15.21-11l0,.16-.28-2.91c0-1.34.19.8.35-.19-.43-3.15.06-5-.22-7.56.75-2-.06-7.11.43-9.81l-.18.16c-.18-.7.1-.85.14-1.37-.14.08-.16.76-.26.33l-.05-2,2.62.05,3.81.14c2.54.1,5.09.22,7.6.28,2.22,0,1.26-.92,4.06-.49l-.8.33c4.48-.4,9.16,0,13.55-.32a1.58,1.58,0,0,1-.7.17,8.06,8.06,0,0,0,3.44-.18c.69,0,.16.17.58.27.93.14,2.33-.3,2.83-.06.08,0-.26.07-.43.09.6-.11,2.82,0,2.24-.25,1.65.14,3.15-.12,4.46,0,.86-.31,2.82.14,3.09-.29C49,2.87,52,2.78,53,2.57c-.35.14.9.14.5.33,1.18,0,2.27-.09,2.06-.32,2.19.54,4.4-.44,5.64.26,3.52-.25,6.79-.41,10-.52-.11.45-3.51.05-3.37.52a67.2,67.2,0,0,1,7.73-.46c.78.06-.43.19-.7.27,3-.19,5.82,0,8.5-.21,0,.05-.3.09-.57.13.53,0,1.23.06,1.17-.14l-.52,0c-.84-.29,2.1-.62,2.19-.78-.89.59,2.64.15,1.22.89.35,0,.79-.13.71-.27.51,0,.67.12.15.28,1.89-.11,1.22-.33,2.93-.33,0,.1-.35.14-.53.26a10.12,10.12,0,0,1,3.19-.31c-.09.06.08.14-.35.14,2.48,0,4.23-.52,7-.33-.42.22-.13.25.13.28s.39,0,.3.24l.27,0,.06.28a3.89,3.89,0,0,0,.18-.4,2.52,2.52,0,0,0,0,.48l0,.25,0,.45a8.7,8.7,0,0,1,0,1.69l-.15-1,.07,2.41.14-1.36c.19,1.3.47-.14.37,1.57a16.81,16.81,0,0,1-.22,1.95h0a7.21,7.21,0,0,1,.16,2.24c-.12.24-.42-.2-.5,0,.32.62.09,3,.42,3.8-.08-.27-.27-.28-.31-.19l.25.52c-.08.6-.12.68-.27.59,0,1.79.47-.57.27,1.55a2.48,2.48,0,0,1-.1-.43c-.11,2.13.16,4.12,0,6.08-.37.58-.09-1.71-.4-1.05.06,2.82.45,5.85.36,8.58l0-.51c.53.38-.26,2,0,3.42,0-.34-.3-.44-.24-.35-.08,1.87.13,3.83.3,6.67l-.14-.36c-.12,1.11-.07,2.91-.13,4.1.14.36.11,1,.31.62-.77,3.68.42,7-.23,10.27,0-.39-.12-.92-.12-.61l.13,2.77c.23-.22.14-.36.32-.94a6.4,6.4,0,0,1,.24,1.82c-.15-1.25-.37,0-.5.55.07-.09.15.09.22,0-.41,1.45.47.24.19,2.22l-.12-.1a17.47,17.47,0,0,1,.19,2.22c-.27.33-.13-.79-.35-.84,0,1.12.51,2.22.24,3.23-.07-.47-.07-1.16-.15-1.64a6.54,6.54,0,0,0-.28,2.06v-.08l-.15,1.9.09-.48c.69,1.4.13,2.86.58,4.75-.43-1.84-.25-.3-.55-.44-.09.48-.18,1.22-.26,1,.24.89-.2,1.49.16,2.75-.1.06,0,1-.25.76.07,1.16.17-.28.29-.18.33,1.79-.41,4.22,0,6.79.19,2.23.52,2.64.68,4.7-.15.7-.35-.57-.35-.57a11.83,11.83,0,0,0,0,3c-.08-.21-.16,0-.27.33,0,.85.36.57.22,1.69a3.08,3.08,0,0,1-.4-.85c.09,1,.28,2,.36,3-.17.27-.25-.63-.37-1a13,13,0,0,0,.43,3.38l.09-.75c0,.42-.23.22-.28-.1-.21-1,.1-1.44.2-1.49l.06.74c.57-.76-.09-3-.06-4.46l.41.62-.34-1.52c.11-.33.34-.55.4.19.21-1.07-.15-1,.08-1.86,0-.1.06-.06.08,0l-.13-1c.09.2.3-.18.24.46.24-1.87-.32-3,0-3.72l0,.16c-.14-2.59-.3-.25-.66-2.19l.75-1.31-.3-.26c0-.27,0-.79.15-.7-.2-1-.13.17-.33-.41.28-1.28-.13-3.54.36-3.84-.23-.46-.18,1.24-.34-.14.52-.39-.09-1.59.15-2.76.27.36.13,1.47.37.3-.46-.71.1-2.3,0-3.29-.36,0-.15-2.15-.27-3.82.12.11.2-3.13.33-4.68l.06,0c-.37-.3-.3-1.9-.37-3.06.22,0,.3.25.4.88V56.64a3.64,3.64,0,0,1-.22-1.31l.27.27a37.9,37.9,0,0,1-.14-4.8c-.25-.1-.71,1.49-.88-.49.14-.07.37-.15.43.37a3.33,3.33,0,0,1,0-1l.23.8c.1-.86-.2-.45-.17-1.13.19,0,.14-.51.29-.41a4.09,4.09,0,0,0,0,.86,7.22,7.22,0,0,1,.3-2c-.11.07-.27,0-.29-.56,0-1.46.24-.5.34-1.35-.14-.35,0-1.28-.29-1.3a1,1,0,0,1,.22-.67c-.13-.76,0-3.52-.35-2.67l0,.19,0-.12h0c-.29-2.47.17-5.13,0-7.58h.1c-.11-1.46-.06-3.25-.28-4.3,0-.43.18-1,.3-.83a11.52,11.52,0,0,1,0-2.86c.17,1.13.15-.39.12,1.15a10.41,10.41,0,0,0,0-3.34c.25.53.32-1.09.24-1.78l-.18,1c0-.78,0-1.46,0-2.15l.33.37c.4-3-.69-5.35,0-7.62-.23-.78-.17,1.62-.44.91,0-1.36.53-2.79.53-3.22.18-1.87-.49-1.74-.36-3.7-.12.25-.44.48-.55-1s.5-1.68.59-.82c0,.33,0,.49-.07.47,0,.45.1,1,.23.48l-.12-.17c.12-.68.11-2.56.3-2.12-.11-1-.19-.44-.26.32,0-.31,0-.59.07-.86V.54c-.67,0-1.39,0-2.24,0,.46.06.79.2.37.2l-1,0h-.52a1.18,1.18,0,0,0-.47.09A2.14,2.14,0,0,1,97.5,1c-1-.18.37-.43-1.44-.28-1.1-.12-.24-.32.2-.41a17.51,17.51,0,0,1-4-.19l.86-.1a9.34,9.34,0,0,1-1.37.05l.49.24c-.51,0-.94,0-.93-.14-.52.16.4.4-.64.61C90,.64,88.6.89,88.36.57c2.14.11-.23-.31,1.57-.36a7.89,7.89,0,0,1-1.28,0c-.08,0,.07-.07.21-.08-2-.28-.94.35-3.06.35.27-.18-.49-.34-.83-.3.85,0,.41.29-.38.43a9.7,9.7,0,0,0-2.18.09l.81.06a6,6,0,0,1-1.9.21c-.08-.14.86-.09.52-.16-1,.32-2.37-.32-3.84-.11-.68-.12-.06-.33-.66-.41C75.7.51,75.56,0,73.84.22c.49.24.58.18-.64.42L76,.47,74.22.82c.86,0,1.81-.15,2.32-.11-.87.19-.78.13-.37.33-1.17-.36-2.32.21-3.68,0l.05-.59c-2-.27-3.62.3-6.27.15l.85.1c-.35.24-1.63,0-2.48.13.07-.2-.46-.27-.83-.39,0,.15-1.93,0-2.17.38L60.46.53C58.32.42,58,1.09,56,1c.62-.21-.31-.35,1.06-.5-.69,0-1.3,0-1.31.1-.4-.13-1.9.26-2.53.07A2,2,0,0,1,52,1c-.09,0,0-.1,0-.1s-1.21.14-.53.35c-2.11-.61-5.9.05-7.74-.48-1.5.07-3.3.13-4.66.14.09-.05,0-.09.27-.07-1.88-.19-1.16.56-3.29.36C35,.85,37.23,1,36.55.88c-.3-.65-2.58.08-4-.3l.35,0c-1.1-.22-2.68.24-4.47.2,0,0,.09-.06,0-.1a32.15,32.15,0,0,1-5.26.53c.53-.25.78-.13.45-.39-.77,0,.23.41-1.31.49-.5-.14-1.62-.27-1.76-.54L22,.72c-.74-.35-1.88,0-2.65,0l.1-.15c-2.23,0-2.26.44-4.65.41l.24.12c-1.31.39-1.09-.22-2.4.07L12.25.73c-.87.09-3,.38-4.58.45A31.7,31.7,0,0,1,11.48.57,16.5,16.5,0,0,0,8.13.79,4.22,4.22,0,0,1,9.25.72a14.73,14.73,0,0,1-4.14.45c.1-.25-.34-.35-1-.41l-.56,0H2.77L.82.69a10.32,10.32,0,0,1-.3,3c.28,3-.12,6-.08,9.5.6-1.25,0,1,.63.81a4.5,4.5,0,0,1,0,1.21L.69,17.68C.52,18.27.56,16.9.42,17c0,1.8-.26.76-.42,1.94.22-.24.31.63.23,1.65l.28-1.44C.84,21.63,0,21.29.32,23.81L.13,23c.11,1.3,0,4.78.49,6-.07.23-.24.54-.29,0-.07,3.09.53,6.89.22,9.3L.4,38.09a4.59,4.59,0,0,1,.13,1.73c-.06,0-.14-.23-.15,0a10,10,0,0,1,.17,2.3L.38,41.5c-.19,3,.41,4.64.52,7.17-.44,0-.59,2.37-.66,3.56l-.06,0c-.06,3.52.36,6,.54,9.23-.48,2-.2,6.85-.47,10.1.08-.49.34.08.39.66-.09.76.3,2.11-.1,2V73.9c-.4.57-.3,2.14-.31,3.36l.53.21c-.77,3.2.28,8.38-.4,10.13.13.77.13,1.73.26,2.5l-.28,0C.27,92.2.24,93.26.3,95.91l-.2-.54c0,1.49.82,1.88.84,3.26l-.43.42-.07,3.61,3.87.09A18.47,18.47,0,0,0,7,102.57c0,.06-.12.19-.54.2,1.22,0,4.74.29,4.29-.29,0,.38,2.69,0,4.1-.13l-.22.28a8.27,8.27,0,0,1,2.88-.55c.39,0,.34.22-.18.15,1.31.15,1-.26,2.61-.12l-.59.18a4.15,4.15,0,0,0,2-.28,5.85,5.85,0,0,1,2.75.32,3,3,0,0,1,1.71-.28c.11.09-.18.15-.32.18,2.25.19,3.34-.32,4.89,0a.31.31,0,0,0,.26.16c-1.79,0-3.23,0-3.09,0,0,.26,1.44.3.29.66a20.37,20.37,0,0,1,4.56-.49l.18.08-.14,0a3.25,3.25,0,0,0,.89,0c.45,0,.73.08,1.16.08a8.13,8.13,0,0,0,2.38.12c-.06-.28.88-.23,0-.46.11,0-.14,0-.61,0a2.32,2.32,0,0,0-.31,0l0,0H34.18a4.16,4.16,0,0,1,2-.1c.37-.18.77-.37,1-.46,1,.4,2.89.61,3.15.85,2.2-.16,5.19-.1,6.57-.63a1.3,1.3,0,0,1,1,.23c-.36.06-.79,0-1,.12,1.25-.13,3.7,0,4-.42,1.58.17-.89.34,1.28.28l-.29.11c4.26.59,6.92-.94,11.65-.18a1.45,1.45,0,0,1-.56-.13c5.39.33,11.1-.31,16.41.22a6.47,6.47,0,0,0,2.6-.31l.33.3,1.57-.35c2.24-.25,3.87.74,6.7.26l-.36-.2c1,0,3.22-.12,3,.11a1,1,0,0,1,.73-.11l0,.16,2.49-.27c1.94.12-.3.63,2.53.66,1.05-.06,3-.46,2.59-.57s-1.08-.09-1.11-.25l1-.09c.17-.46.91-.94-1.45-1.26l-1.64.28-.53-.22,1.38,0a3.22,3.22,0,0,0-1.83.11,1.31,1.31,0,0,0-.69-.25l-1.62.44c-.19-.18.73-.36-.35-.46-.76.21.72.41-.53.54-.79-.21-.56-.38-1.48-.2-.13-.12.07-.2.43-.25a15.29,15.29,0,0,0-2.59.31c-.82-.26-2.78.07-2.69-.37a10.25,10.25,0,0,1-2.2.36c1.37-.53-2.83,0-2.46-.59-1,.47-3.68.21-5.49.47a.92.92,0,0,1,.46-.09,13.18,13.18,0,0,1-2-.27c-.13.39-1.71.48-2.56.72-1.25-.38.75-.46.36-.82.06.31-2.16.31-1.74.58-.95-.24-.82-.11-1.31-.44-.17.49-.89.08-1.68.38-1.38-.24-.35-.45-1.87-.31C66.66,100.06,68,99.89,68,99.89Zm-36,.85h.74Zm-3,0h1.31c.11.1,0,.2-.31.2C30.13,100.88,29.41,100.82,29,100.74Zm6.4,2c-.48,0-.64,0-.7-.07l.84,0,0,0A.43.43,0,0,1,35.36,102.69Z"/><path class="cls-1" d="M36.23,102.32l.19,0-.28-.06-.17.09Z"/><path class="cls-1" d="M102,41.29v-.07a.39.39,0,0,1,0,.14S102,41.31,102,41.29Z"/><polygon class="cls-1" points="2.9 87.03 2.83 87.03 2.89 87.3 2.9 87.03"/><path class="cls-1" d="M101.07,58a.54.54,0,0,0-.07.22A.77.77,0,0,0,101.07,58Z"/><path class="cls-1" d="M101,65.16l-.1,1C101,65.74,101,65.42,101,65.16Z"/><path class="cls-1" d="M100.87,70.7a.29.29,0,0,0,.12.11h0Z"/><path class="cls-1" d="M82.79,2.57h-.22C82.07,2.63,82.41,2.61,82.79,2.57Z"/><path class="cls-1" d="M101.19,8.86c0-.28-.1-.55-.13-.84C101,8.48,101,8.84,101.19,8.86Z"/><path class="cls-1" d="M53.53,2.9h0Z"/><path class="cls-1" d="M101.07,6.8a5,5,0,0,0,0,1.22A8.29,8.29,0,0,0,101.07,6.8Z"/><path class="cls-1" d="M100.74,94.7V95s0,0,0,0Z"/><path class="cls-1" d="M100.77,95l0,.29C100.81,95.16,100.81,95,100.77,95Z"/><path class="cls-1" d="M100.88,95.92l-.07-.63A1.52,1.52,0,0,0,100.88,95.92Z"/><path class="cls-1" d="M100.87,87.37l-.1-.09A.13.13,0,0,0,100.87,87.37Z"/><path class="cls-1" d="M100.84,85.14a13.63,13.63,0,0,0-.15,2.07l.08.07C100.62,86.94,101,85.65,100.84,85.14Z"/><path class="cls-1" d="M102.1,75.84,102,77.71c.11-.33.25-.76.28.09C102.62,75.45,102.06,78.29,102.1,75.84Z"/><path class="cls-1" d="M102.26,70.05c0,1,.16,0,.22,0C102.38,69.46,102.35,69.31,102.26,70.05Z"/><path class="cls-1" d="M102.26,28.23l.26.1C102.48,27.56,102.42,28.32,102.26,28.23Z"/><polygon class="cls-1" points="100.94 20.23 100.78 20.98 101.01 21.34 100.94 20.23"/><polygon class="cls-1" points="102.76 15.51 102.8 15.85 102.7 14.56 102.76 15.51"/><path class="cls-1" d="M45.39.44l.24.31C46.15.69,46.26.34,45.39.44Z"/><path class="cls-1" d="M15.07.76A3.09,3.09,0,0,0,13.36.65C14,.67,14.72.8,15.07.76Z"/><polygon class="cls-1" points="0.37 78.99 0.27 78.38 0.36 79.53 0.37 78.99"/><path class="cls-1" d="M91.4,53.14c-.27-.62-1.5-.26-1.22-.28C90.1,53.22,91.2,53.09,91.4,53.14Z"/><polygon class="cls-1" points="87.65 47.3 86.43 46.66 87.19 47.27 87.65 47.3"/><path class="cls-1" d="M86,45.21l1.58.09C87.07,44.2,85.74,43,86,42.12c-1.66,1,.77,1.75.37,2.84Z"/><path class="cls-1" d="M88.86,38.75a.78.78,0,0,1,.13-.19,1.94,1.94,0,0,1-.17-.58C88.21,38.43,88,37.58,88.86,38.75Z"/><path class="cls-1" d="M89,38.56c.26.56.43-.6,0,0Z"/><path class="cls-1" d="M88.93,35.66c-.7-.62-1-.27-1.44.45l.94.47C88.75,36.25,88.52,35.55,88.93,35.66Z"/><path class="cls-1" d="M85.93,36l.42.25C86.48,36.13,86.49,36,85.93,36Z"/><path class="cls-1" d="M86.71,36.54c-.53.17,0,.09.55.27l-.91-.54C86.13,36.5,85.58,36.76,86.71,36.54Z"/><path class="cls-1" d="M87.21,37.37c-.17.55-.23,1.17-1.11.71C86.86,39.34,88,38.67,87.21,37.37Z"/><path class="cls-1" d="M85.44,32.58c.08-.39,0-1,.47-1.37-.37.17-.76.79-1.17,1.11Z"/><path class="cls-1" d="M84.74,32.32l-1-.38C84,32.63,84.39,32.59,84.74,32.32Z"/><path class="cls-1" d="M85.89,37.43c-.68-.3-1.35-.58-2-.84l.13.22C84.62,37,85.26,37.21,85.89,37.43Z"/><polygon class="cls-1" points="83.97 28.32 85.02 28.2 83.35 28.29 83.97 28.32"/><path class="cls-1" d="M82.42,26.61c.85-.2.63-1.22,1.27-1.22a3.58,3.58,0,0,0-2.17-.34C82.11,25.21,82.43,25.69,82.42,26.61Z"/><path class="cls-1" d="M81.52,25.05a2.7,2.7,0,0,0-1.18,0A5.69,5.69,0,0,0,81.52,25.05Z"/><path class="cls-1" d="M82.86,30.33c.06.09.13.18.19.28a1.62,1.62,0,0,0,.52-1.21Z"/><path class="cls-1" d="M82.84,30.36l0,0c-.19-.32-.33-.53-.39-.63Z"/><path class="cls-1" d="M83.1,30.68l0-.07C83,30.7,83,30.74,83.1,30.68Z"/><path class="cls-1" d="M81.67,35.11c.84-.09,1-.84,2.22-.68C83.09,34.3,82,33.82,81.67,35.11Z"/><path class="cls-1" d="M82.45,32.69c.24-.17.52-.55.91-.5-.39-.14-.76-.27-1.17-.38A8.89,8.89,0,0,1,82.45,32.69Z"/><polygon class="cls-1" points="81.64 31.66 82.19 31.81 82.07 31.49 81.64 31.66"/><path class="cls-1" d="M80.66,26.94a1.86,1.86,0,0,1-1.35-.58,4.16,4.16,0,0,0,.82,1.39C80.44,27.57,81.07,27.33,80.66,26.94Z"/><path class="cls-1" d="M81.69,28.63l-.1,0C81.55,28.7,81.55,28.76,81.69,28.63Z"/><path class="cls-1" d="M75.82,23.05a1.72,1.72,0,0,1-.07.21l.14-.14Z"/><path class="cls-1" d="M80,28c.09.42.45.42.87.36a2.76,2.76,0,0,1-.77-.56C80,27.83,79.9,27.89,80,28Z"/><path class="cls-1" d="M79,24.41a7.09,7.09,0,0,0,0,.92C79.19,24.93,79.27,24.25,79,24.41Z"/><path class="cls-1" d="M81.75,28.3l.08,0C81.94,28.06,81.85,28.15,81.75,28.3Z"/><path class="cls-1" d="M81.75,28.3a2.7,2.7,0,0,0-.85,0,2,2,0,0,0,.69.29A1.77,1.77,0,0,1,81.75,28.3Z"/><path class="cls-1" d="M77,24.48l.36.16a4,4,0,0,1,0-1.92,1.71,1.71,0,0,0-1.4.4l1.27,1.34Z"/><path class="cls-1" d="M78.54,25.77c-1,.56-2,.36-2.44,1.57.78.64,1.16-.15,2,0-1.36-1.06.79-.07.41-1.43a2.64,2.64,0,0,1,.85.49,5.54,5.54,0,0,1-.25-1,.19.19,0,0,1,0,.08h0c-.05.15-.1.23-.1.11h0a2.5,2.5,0,0,1-.36.24c-.18-.54.16-.27.36-.24a1.7,1.7,0,0,1,.14-.1v0c-.54-.3-1.15-.52-1.72-.77C77.48,25,77.87,25.27,78.54,25.77Z"/><path class="cls-1" d="M81.11,32.76l.17-.17S81.19,32.66,81.11,32.76Z"/><path class="cls-1" d="M77,21.73c-.57.23-1.18.5-1.75.76l.84,0Z"/><polygon class="cls-1" points="75.1 20.68 74.31 20.87 74.42 21.46 75.1 20.68"/><path class="cls-1" d="M29.65,19.61c-1-.49-2.52-1.34-1.81-.42l.8.84A1,1,0,0,1,29.65,19.61Z"/><path class="cls-1" d="M56.18,14.41a2.81,2.81,0,0,0-1.28-.87C55.5,14.28,55.87,15.32,56.18,14.41Z"/><path class="cls-1" d="M16.33,71.85a.84.84,0,0,0,.79,0A.72.72,0,0,0,16.33,71.85Z"/><path class="cls-1" d="M54.9,13.54c-.43-.55-1-.86-1.6-.11a3.7,3.7,0,0,0,.28.28A1.92,1.92,0,0,1,54.9,13.54Z"/><path class="cls-1" d="M88.43,58.19a2.59,2.59,0,0,1,0,.72C88.5,58.8,88.53,58.58,88.43,58.19Z"/><path class="cls-1" d="M68,17c.41.11.12-.08,0,0Z"/><path class="cls-1" d="M68.3,17.74a2,2,0,0,0-.33-.53A2,2,0,0,0,68.3,17.74Z"/><path class="cls-1" d="M68.46,17.23c.11.11.2.18.28.25C68.87,17.34,68.89,17.21,68.46,17.23Z"/><path class="cls-1" d="M67.41,16.82a1.49,1.49,0,0,1,.56.39c0-.1,0-.17,0-.2Z"/><path class="cls-1" d="M88.4,58.91c-.26.32-1.12-.18-1.75-.2.67-.61,1.38-1.25,2-1.92-1.7-.54,0-2.35-1.64-2.63l.27.67a3.73,3.73,0,0,0-2.58-.06c.08-1,.15-2,.15-3.05a34.89,34.89,0,0,0-1.11-8.6l.68.24c-.34-.13.21-1.12-.35-.9l-.34.61a34.61,34.61,0,0,0-3.21-8.21s0,0,0,0h0a2.39,2.39,0,0,1-.13-.21,5.3,5.3,0,0,1,.72-1.85A15.41,15.41,0,0,0,80,34a32.83,32.83,0,0,0-2.24-3.33l.11-.1c.3.72.74.15,1.16-.06a11.37,11.37,0,0,0-1.3-.67l-.15.58a36.44,36.44,0,0,0-3.52-3.93,12.22,12.22,0,0,0,1.69-3.2c-.31.34-.57.62-1.65.58-.07.55.47,1.95-.32,2.37l-.85-.78a2.29,2.29,0,0,0,.09-.72,1.28,1.28,0,0,1-.35.49,35.94,35.94,0,0,0-3.09-2.4l-.1-1.11c1.12-.24,3.06-1.13,3.66,0,.5-1.6-.3,0,.09-2-.69,2.27-2.46-1.61-2.78,1,.4-2.24-.71-1.54-.83-3.63-.22.49-.12,1.07-.88.41a2.91,2.91,0,0,1-.4.33.25.25,0,0,1,0-.07l0,.08c-.07.05-.09.07,0,0a1.71,1.71,0,0,1,.07.92c-1,.87-2.26.22-3,.59-.38-.46.45-.46.41-1.1a10.83,10.83,0,0,0-1,.58c.4-1.11-.67-2.32.84-2.5l-1.12-.46c-.44-.86-1.32-1.47-2.06-1.18-.5-.39-1.77.88-1,.12l-2,.23,0-.28c-.89-.34-1.94,0-2.94.11a3.24,3.24,0,0,1-3-1.17,2.85,2.85,0,0,1-2.34.21l-.19-1c-.81.3-2.52-.93-2.82.13a2,2,0,0,0-2.67-1.17c-1.08.29-2.17.87-2.94.75l.2,1.31A5.92,5.92,0,0,0,40,15.46l.38,1.11c-.7,1.12-2.71,0-4.23.66-.07-.45.37-.49.74-.34a1.76,1.76,0,0,0-1.73-.26A3.48,3.48,0,0,0,34,17.8c-.67,1-1.23,1.91-2.45,1.52-.16.59-.5.63-.92.53a.14.14,0,0,0,.07-.1.51.51,0,0,0-.17.08,7.55,7.55,0,0,0-.85-.22,2.45,2.45,0,0,0,.77.27,3.24,3.24,0,0,0-.9,1.09L28.64,20s-.06,0-.08.09c-.69-.12,0,.7.74,1.35a2.53,2.53,0,0,0-.1,1c-1.5-1.42-.61,1.3-2.35-.11.19.52-.19,1.05-.45,1.68a2.35,2.35,0,0,0,0,1.77l-.32.3a.9.9,0,0,0-.6.54,3.2,3.2,0,0,0-.27.25l-1.05-.82c.12.49.29,1,.44,1.47-.21.22-.41.45-.62.68a1.86,1.86,0,0,1-1.32-1.52c.2,2.26-.3,1.73-.08,3.13-.09.1-.16.22-.24.32L22,29.8a1.94,1.94,0,0,0-.06,1l-.52.69c-1.11-.11-2.05,1-2.91,2.38s-1.77,3.05-3.28,4.06c1.53.35,1.06.52.49.75s-1.21.56-.13,1c-.73-.1-1.27.17-1.68-.52.14,1.71-2,1.9-.3,3.54-.74,0-.93-.62-1.38-.58.11.17.47.66,0,.71s-.52-.39-.76-.73c-.32,1.68,1.82,2.34,3.83,2.91-1.11.49-1.1.92,0,1.64,0,.05,0,.09,0,.14-.66.14-1.33.35-1.41-.56-.18.49-1.52,3.16.18,3.38-.43.12-.17.73,0,.88a7.57,7.57,0,0,0-.21,2.45l.29-.32a2.56,2.56,0,0,1,.8.3c0,.27,0,.54,0,.81a1,1,0,0,0-.11.76l-.21,0c-.67,1.09-.48,1.33-.32,1.54s.23.42-.42,1.56l1.24-.26h.21c.06.41.11.83.19,1.23-.5.63-1.05,1.42-.49,1.88l.64-.57c.49.24-.29.85-1.23,1.55s-2,1.5-2.07,1.9c-.19.21-.43-.15-.66-.33-1.05,2.3,1.66-.17,2.38,1.07-.78.5-2.28.31-2.14,1.3-.26.34.67.8,1.51,1.34s1.54,1.19,1.07,2.1c.5-.53,1-1,1.76-.67.32.38,0,1.23-.06,2s0,1.46,1.24,1.31a1,1,0,0,1-.38.41c.88.37,2.07,1.6,3.26,1.32-1.63,1.47-.46,2.13.62,2.62s2.17.8.65,2.1l1.72,1.55-.34.24c.85,1.26,1.95.87,2.95.51.06.42-.36.54-.53.68,1,2,1.46,2,4,1.47l-.61,1.16c.41-.16.71.72,1.35,1.55s1.49,1.81,2.8,1.59a1,1,0,0,1-.48.41c1.44-.17,2.29,1.31,3.31,2.23s2.06,1.38,3.19-.72a17.09,17.09,0,0,0,1.8-.69c-1.41-.67,0-1.49.3-2.27l.84.21c.19.5.17,1.06-.33,1.07l-.08-.26c-1,2.27,2.09,1.45,1.71,3,3.84.63,7.69,2.06,11.57,1.82l-.63-1.85c.43,0,.85,0,1.27-.06.39.39.67,1.41-.28,1.47.64,1,1.44-1.13,1.37-1.54,1.93.48-.33,2.3.22,2.26l.75-.26-.21-.19c.48-.89.38-1.63,1.47-1.82.76.2.62,1.06.91,1.06,0,.13.14.17.44-.06l1.67-.26-1.06-1.28c.49-.88,1.48-.32.27-1.75.89,1.12,2.4.8,3.77.31s2.5-1.39,3-1.16a3.49,3.49,0,0,1,2.3-2.41c-.43-.11-1.46-1.46-.51-1.79.79,1.55,1.42,1.65,2.08,1.48a2.58,2.58,0,0,1,2.5.21c-.82-.43-.27-1,.17-1.54S75,81,73.84,80.52c.82-.35.89,1,1.93,1.14.33-1.24,1.39-1.78,2.44-2.5s2.37-1.34,3-2.59c-.35-.31-1.16-.4-1.38-1.25.89.11,1.78.19,2.7.25.12-.58-1.87-1.86,0-1.79-.4-.09-1-.25-.94-.62,2.32-1.51,3.2-4.12,3.91-6.6a30.4,30.4,0,0,1,1.31-3.68,12.68,12.68,0,0,1,2.64-3.5C88.37,60,88.36,59.45,88.4,58.91ZM69,21.28l-.37.91-.45-.28A.52.52,0,0,0,68,21.8c-.5-.3-1-.62-1.5-.9C67.39,20.58,68.43,20.33,69,21.28Zm-5.57-5,0,.05C62.89,15.61,63.05,15.87,63.4,16.25Zm-.6,1.56a2.74,2.74,0,0,1-.08,1.38c-.83-.33-1.67-.65-2.54-.92l.46-.42C61.34,17.19,62,16.67,62.8,17.81Zm-4.67-.07-.67-.17C57.86,17.49,58.05,17.58,58.13,17.74ZM36.57,19.36l-.19.07c.06-.12.11-.24.17-.34C36.56,19.17,36.56,19.27,36.57,19.36Zm-1.38.46.11.11-.17.08C35.16,20,35.16,19.87,35.19,19.82ZM59.73,90l-.33-.26C59.88,89.27,59.8,89.63,59.73,90Z"/><path class="cls-1" d="M71.58,19.16c.14-.26.21-.71.47-.58l-1-.19C71.51,18.56,71.5,18.88,71.58,19.16Z"/><path class="cls-1" d="M70.49,22.52c-.53.94.12.85.68,1.05,0,0-.07,0-.09-.06C72.07,22.39,71.29,22.42,70.49,22.52Z"/><path class="cls-1" d="M71.29,23.62a.88.88,0,0,1,.44.29C72.13,23.46,71.63,23.68,71.29,23.62Z"/><path class="cls-1" d="M66.38,17.22c.15.37.72-1.16.69-.69C67.91,15.42,64.62,17.2,66.38,17.22Z"/><polygon class="cls-1" points="90.13 55.4 90.73 54.6 89.8 55.09 90.13 55.4"/><path class="cls-1" d="M88.22,53.79l1.71-.16-1.52-.49C88.48,53.32,88.61,53.67,88.22,53.79Z"/></g></g></svg>