<svg xmlns="http://www.w3.org/2000/svg" viewBox="0 0 200 200"><defs><style>.cls-1{fill:none;}.cls-2{fill-rule:evenodd;}.cls-3{fill:#fff;}</style></defs><g id="Layer_2" data-name="Layer 2"><g id="Layer_1-2" data-name="Layer 1"><path class="cls-1" d="M200,100a99.92,99.92,0,1,0-7.61,38.28A100.08,100.08,0,0,0,200,100H151.21a51.14,51.14,0,1,1-3.89-19.59A51.32,51.32,0,0,1,151.21,100Z"/><path class="cls-2" d="M180.84,100c-.4.13-.51-.2-.78-.29.16-.43.27-.93.76-.89C180.83,99.18,180.84,99.58,180.84,100Z"/><path class="cls-2" d="M186.38,57c-.83-1.46-.14-1.88-.77-3.2-.47-1.27-.93-.81-1.39-1.27a45.54,45.54,0,0,0-13.43-17.23c.42-.15-.08-.61-.45-1a2.49,2.49,0,0,1,2.41-.27,76.26,76.26,0,0,1,7.87,8.6c.59.75,1.2,1.49,1.78,2.25l1.73,2.31.88,1.15.86,1.18c.57.79,1.16,1.58,1.76,2.38C185.42,52.3,188.31,56.29,186.38,57Z"/><path class="cls-2" d="M125.62,4.34c-.42-.51-1.75-.76-1.53-1.4C125.11,3.26,125.61,3.76,125.62,4.34Z"/><path class="cls-2" d="M109.84,48.54a3.85,3.85,0,0,1-1.53-.07c-.52-.15-1-.34-1.06-.75a12.77,12.77,0,0,1-1.77.7,5.27,5.27,0,0,1-2.17.26,4.6,4.6,0,0,1-.32-1.19,13.12,13.12,0,0,1,2-1l.59-.22a5.66,5.66,0,0,1,.59-.15A6.88,6.88,0,0,1,107.3,46a4.21,4.21,0,0,1,1.08.07,2.2,2.2,0,0,1,.84.45A2.27,2.27,0,0,1,109.84,48.54Z"/><path class="cls-2" d="M54.82,19.56c1.33-.54-.77,1.05.28.51,0,.5-1.6,1-1.64.5C53.83,20.23,55.07,19.9,54.82,19.56Z"/><path class="cls-2" d="M23.81,44c.46.22.6.59,0,1.3C23.37,45.05,23.23,44.67,23.81,44Z"/><path class="cls-2" d="M12.06,97.44c-.74,1.91.56,1.69-.44,2.9a17.27,17.27,0,0,1,.37,2.78c0,1,.09,2,.13,3s.06,2,.12,3,.21,1.93.38,2.8c.32,1.73,1.28,3.21,1.79,4.92,2.13,6.77,4.31,14.27,7.46,20.65,1.85,3.65,4.06,7.21,5.48,10.42a5.86,5.86,0,0,1-2.8-1.64,14.76,14.76,0,0,1-2.29-3.17,57.16,57.16,0,0,1-3.17-7.52,9,9,0,0,0-.8-1,6.26,6.26,0,0,0-.8-.76c-2-5.87-4.13-10.82-5.58-15.78s-2.13-9.88-1-15.07a9,9,0,0,1-.37-2.53,13.13,13.13,0,0,0-.23-2.7c.09-.29.18-.58.4-.64C11,96.62,11.65,97.18,12.06,97.44Z"/><path class="cls-2" d="M26.39,137c.69.77,1.78,2.58.89,3,1,.72,1,2.2,2,3.42A42.37,42.37,0,0,0,36.78,156a135.73,135.73,0,0,0,11.45,12c-.22,1-1.08.25-1.71.14a32.4,32.4,0,0,0-4.8-3.77,27.82,27.82,0,0,1-2.27-1.82c-.37-.34-.73-.69-1.07-1.07s-.64-.83-.94-1.29a13.11,13.11,0,0,1-3.13-3c-.46-.57-.89-1.17-1.31-1.78s-.77-1.28-1.13-1.94-.71-1.3-1-2l-.92-2L29,147.71q-.42-.94-.87-1.8a9.82,9.82,0,0,0-.47-1.8c-.21-.66-.46-1.38-.77-2.12s-.68-1.47-1-2.24-.74-1.52-1.16-2.24C24.78,137.11,25.84,136.92,26.39,137Z"/><path class="cls-2" d="M44.62,159.94l.4-.43c2.17,1.37,3.56,3.54,5.79,4.63-.84.38-2.09-.44-3.08-.45-.64-.72-1.26-1.27-1.82-1.83A4.9,4.9,0,0,1,44.62,159.94Z"/><path class="cls-2" d="M48.62,169.06c.38-.89,2.62,1.11,3.05,1.69C50.44,170.62,49.86,169.48,48.62,169.06Z"/><path class="cls-2" d="M109.07,186.56c.35-.75,2.14-2.59,3.63-1.63a15.72,15.72,0,0,1,4.71-1.83,35.19,35.19,0,0,0,5.39-1.72c-.08.84,1.81.19,2.2-.22-.31-.59-1,.83-1-.11,1.19-.51,2.38-1,3.47-1.35.55-.21,1.07-.4,1.54-.62a7.72,7.72,0,0,0,1.24-.77c.19.26-.16.41-.08.65s.58-.05.93-.16c0,.39-2.43,1.27-1.51.39-.52.18-.53.45-1.1.6.59-.06.6.23.68.44s.23.35,1.12-.07c0,.28-.85.41-.75.7-.58,0-.77-.45-1.21-.6a14.53,14.53,0,0,1-2.36,1.1c-.86.38-1.51.68-.92,1-.54.47-1.64.42-2.69.43s-2.09,0-2.54.76a16.11,16.11,0,0,0-2.61.63c-.8.22-1.55.5-2.34.79A26,26,0,0,1,109.07,186.56Z"/><path class="cls-2" d="M131.38,177.85c.64-.09,1.4.08.94.67C131.68,178.75,131.52,178.31,131.38,177.85Z"/><path class="cls-2" d="M133.14,176.5c.84-.48,1,.14,1.64-.11C134.58,177.05,133.2,177,133.14,176.5Z"/><path class="cls-2" d="M137.62,175.9c-.2-.71,1.61-.74,2.31-1.61C140.14,174.9,138.48,175.37,137.62,175.9Z"/><path class="cls-2" d="M141.54,173.38c.3-.54.26-1.09,1.22-1.59A2.41,2.41,0,0,1,141.54,173.38Z"/><path class="cls-2" d="M172.52,156.7a2.36,2.36,0,0,1,2.17-.9C174,156,173.14,157.06,172.52,156.7Z"/><path class="cls-2" d="M112.44,155.07c-.92,0-1.87-.11-2.77,0a7.15,7.15,0,0,0-1.32.24,4.2,4.2,0,0,0-1.23.54c-.48,0-1,0-1.48-.06l-1.55-.17c-1-.07-2.1-.24-3.15-.34a22.13,22.13,0,0,0-6.14,0,4.68,4.68,0,0,0-2.06-.57c-.36,0-.73,0-1.08-.08a3.69,3.69,0,0,1-1-.3,38.24,38.24,0,0,0-9.53-2.66c-3.3-.58-6.8-1-10.29-1.74-.43-.24-.86-.48-1.27-.76-1-.33-2.13-.48-3.21-.8-.55-.14-1.11-.3-1.67-.48a10.23,10.23,0,0,1-1.64-.7,21.33,21.33,0,0,1-6.11-5,45.85,45.85,0,0,1-4.64-6.55c.23-.2.56-.38.22-.7a26.17,26.17,0,0,1-1.32-3.48c-.17-.59-.36-1.17-.52-1.76s-.29-1.18-.43-1.78l-.24-.87-.2-.89c-.14-.58-.29-1.16-.47-1.73s-.3-1.17-.49-1.74c-.1-.28-.2-.56-.31-.85s-.2-.57-.31-.85a11.13,11.13,0,0,0-.86-1.55,2.55,2.55,0,0,1-.34-1.71A8.49,8.49,0,0,1,45.65,116c-.39-.66-.82-1.35-1.17-2a13.63,13.63,0,0,0-.36-2.38,19.24,19.24,0,0,0-.67-2.61,18,18,0,0,0-.92-2.53,12,12,0,0,0-1.14-2.09,3.86,3.86,0,0,0,.08-1.26,7.05,7.05,0,0,0-.17-1.21c-.1-.41-.19-.81-.29-1.23,0-.2-.09-.41-.13-.63s0-.42,0-.64a53.33,53.33,0,0,1,2-16l.28-1c.1-.34.22-.67.33-1,.22-.67.42-1.34.66-2,.51-1.31,1-2.63,1.56-3.88s1.15-2.48,1.72-3.67c.29-.6.63-1.16.93-1.73s.6-1.13.93-1.66c-.05-1.11.51-1.57.8-2.64A9.75,9.75,0,0,0,51.86,64a23.1,23.1,0,0,0,1.77-2.41c.6-.83,1.14-1.73,1.65-2.56A24.2,24.2,0,0,0,56.6,56.7a6.86,6.86,0,0,0,2.68-1.77c.46-.39.94-.81,1.43-1.21.25-.2.5-.4.76-.58s.54-.33.82-.47c1.75-.92,3.81-.94,4.44-2.54,1.92-1,3.71-2.26,5.72-3.32L74,46c.52-.22,1.07-.43,1.62-.63a13.65,13.65,0,0,1,3.48-.76c2-.17,4.09.13,6.06.08,2.47-.94,5-1.12,7.56-1.87,0-.23-.11-.54.14-.6a3.91,3.91,0,0,0,1.33-.2c.48-.13,1-.31,1.54-.49a5.4,5.4,0,0,1,3.3-.32c.84-.37,1.67-.73,2.53-1.09l1.34-.55a11.78,11.78,0,0,1,1.42-.44,12,12,0,0,1,3.22-.48,17,17,0,0,1,1.85.08,19.2,19.2,0,0,1,2,.42,4.72,4.72,0,0,1,1.08-.45,5.63,5.63,0,0,1,1.25-.15,12.93,12.93,0,0,1,1.38,0l.72.07.72.13c1,.19,2,.37,2.92.62a18.07,18.07,0,0,0,2.7.5c2.23,1.18,5.87,3.14,6.7,5.33.66.43,1.22,1,1.88,1.42a12.53,12.53,0,0,0,1,.7c.36.23.75.48,1.18.72.38.49.33,1,.9,1.49a2.31,2.31,0,0,1,1.43.3,20.13,20.13,0,0,0,1.8,2.25c.35.38.72.75,1.12,1.11s.77.76,1.19,1.13.84.71,1.26,1.07.85.72,1.28,1.06c.88.66,1.71,1.34,2.55,1.9-.12.42.18.65.46.9s.57.54.45,1a49.4,49.4,0,0,1,7.47,7.24,17.5,17.5,0,0,1,4,9.65A24.62,24.62,0,0,0,154.78,80a7,7,0,0,1-2.58,2.29c-.24.61,0,1.44-.61,1.87-.6.08-.64.49-1,.71a16.26,16.26,0,0,0-.51,3.61,4.37,4.37,0,0,0,1.09,3.31c2,.6,4,1.63,5.83-.28,2-.17,4.09-1.11,5.86-1.37s3.28.22,4.11,3.15c1.84.74,3.05,1.76,5.51,1.06a22.82,22.82,0,0,1,1.81-2.3,7.84,7.84,0,0,0,1.51-3c.43.47.48,0,.95-.13,0-1.22-.61-3,.25-3.23.33,3,1.82,3.2,2.39,5.51a5.47,5.47,0,0,0,3.47,1.73,5.07,5.07,0,0,1,3.2,1.35,2.74,2.74,0,0,0-.08,1.9c1.3.49,1.66-.75,2.54.86.76-.6.65-1.45.65-2.63a5,5,0,0,0,2-3.1,43.94,43.94,0,0,0,.88-4.59c-.12-1.09-.3-2.14-.4-3.16s-.16-2-.27-3-.17-1.9-.24-2.82c0-.46-.07-.92-.1-1.37l-.15-1.35a40.84,40.84,0,0,0-.83-5.28c-.2-.87-.43-1.75-.71-2.62s-.66-1.74-1.06-2.61c.52-.33.49-1.14.19-2a8.09,8.09,0,0,0-1.46-2.39c.17-.78,1.3-.86,1-2-.89-.67-.6.64-1.08.9-.91-1-2.57-3.51-2.54-4.63a17.62,17.62,0,0,1-3-3.67A21,21,0,0,0,178,46.86a6.33,6.33,0,0,0-.45-2.27A10.8,10.8,0,0,0,176,41.84a2.56,2.56,0,0,1-1.87.13c-.62-.57-1.16-1.12-1.66-1.67s-1-1.06-1.4-1.59c-.86-1.05-1.57-2.11-2.34-3.1a28.24,28.24,0,0,0-2.46-3,18.24,18.24,0,0,0-3.43-2.74,12.7,12.7,0,0,0-2.1-2.5,35.41,35.41,0,0,0-3.12-2.58C153.55,18.59,144,12.67,135,11.11a4.91,4.91,0,0,0-1.61-1.66,10.35,10.35,0,0,0-2.24-1c-.81-.26-1.65-.48-2.46-.73A13.66,13.66,0,0,1,126.39,7c-2.27-1.06-4.55-2.18-6.93-3.1a25.4,25.4,0,0,0-3.66-1A14.06,14.06,0,0,0,112,2.68c-.59-.07-.27.51-.78.49a20.82,20.82,0,0,0-3-.31c-1,0-2.15-.08-3.25-.1l-3.34.09-1.64,0-1.6.06c-3,0-5.93-.5-8.9.15A19.41,19.41,0,0,0,85,4.65,10.59,10.59,0,0,0,81.9,7.17a5.64,5.64,0,0,0-1.93.7c-.64.33-1.27.73-1.9,1.1a6.68,6.68,0,0,1-3.94,1.26c-.43.37-.16.89-1.09,1.12-.63.24-.73-.06-1.1-.07.25.68.53.41.35,1.11,1.7-.9,2.6-1.06,4-2.15a4.32,4.32,0,0,0,1.37-.15,51.43,51.43,0,0,1,5.54-3A38,38,0,0,1,90,4.58a35.28,35.28,0,0,1,7.21-.73c1.15,0,2.25-.1,3.29-.18a11.93,11.93,0,0,0,2.85-.5c.8.1.44.79,1,1,1.86-.59,3.41.47,5.6.41,1.53,0,2.94-.75,4.7-.57a24.58,24.58,0,0,1,4.64,1.16,43.92,43.92,0,0,0,4.94,1.59,7.5,7.5,0,0,0,3.16,1.81c1.17.43,2.14.92,2.06,1.55-.47.2-1-.2-1.55-.56a2,2,0,0,0-1.77-.45c.61.37,1.33.72,1.44,1.22a16.83,16.83,0,0,0-4.76,1.26,12.26,12.26,0,0,1-5.16,1,23.22,23.22,0,0,0-4.58-.63,17.6,17.6,0,0,0-3.6.36,56,56,0,0,0-19.09-.5,61.1,61.1,0,0,0-18.22,5.51q-1,.14-2,.33a14.19,14.19,0,0,0-1.89.58,19.89,19.89,0,0,0-4,1.94,6.67,6.67,0,0,0-3.8.7,22.67,22.67,0,0,0-4.09,2.43l-2,1.42c-.63.48-1.24.95-1.83,1.36A14.93,14.93,0,0,1,51,27.14a5.68,5.68,0,0,1-1.52.61c-.11,1.3-1.39,2.46-2.8,3.47a13.26,13.26,0,0,1-2.23,1.22,8,8,0,0,1-1.85.67c.19.72-.28,1.4-1,2a14.21,14.21,0,0,1-2.33,1.54c-.2-.2.56-1.38-.4-.42-.5.4-.28.64-.43,1-.73.09-1.49.42-2.11.19-.94.78-.73,1.24-1.66,2a2,2,0,0,1,.2-1.62c1-1.46,1.65-1.21,2.48-1.7-.36-.32-.88,0-.3-.78,1.15.56,1.33-1.69,2.68-1.48A1.86,1.86,0,0,0,39,35c.79-1,1.82-2.17,2.54-3.06-.26.24-.69.48-.37.07A44.39,44.39,0,0,0,28.54,43.15a76.84,76.84,0,0,0-8.69,14.36,7.63,7.63,0,0,0-2.06,2.32c-1,3.27-1.95,5.48-.38,7.08,1.46-3.66,2.31-6.73,5.56-12.19a3.55,3.55,0,0,1,3.33-1c-.53,1.13-1.1,2.25-1.74,3.34-.32.55-.66,1.08-1,1.62l-1,1.64-1,1.64c-.32.55-.59,1.11-.86,1.67A17.39,17.39,0,0,0,19.44,67c-.17.66,0,1-.22,1.62-.69,1.85-1.18,3.24-1.75,4.44s-1,2.29-1.51,3.55c-1.85,4.91-2.45,10.53-3.23,15.68-.15,1.13-1.16,2.22-.44,3.51.33-1.4.65-2.87.83-4.25a20.61,20.61,0,0,0,.31-3.7c.13-.35.26-.74.38-1.15s.28-.84.42-1.29c.28-.91.55-1.88.81-2.88.62-2,1.11-4,1.66-5.71.43-.79.81-1.55,1.16-2.3s.71-1.47,1-2.21.58-1.46.89-2.18.6-1.46.89-2.2c.55-1.5,1.26-3,2-4.6.37-.8.83-1.59,1.3-2.43a25.59,25.59,0,0,1,1.59-2.53c1.1.13,1.42-.82,2.23-1.94.93.67,1.86.05,2.79-1.15.21-.87-.95,0-.65-.78.77-.55,1.52-1,2.29-.67-.46.66-.88,1.48-1.32,1.66.93.27,1.83-1.32,2.76-.68a40.19,40.19,0,0,0-1.84,3.89c-.49,1.33-1,2.62-1.42,3.91s-.89,2.57-1.37,3.84c-.23.64-.49,1.27-.77,1.9s-.61,1.24-.92,1.87c-.76.5-1.63.56-2.37,1.26.54.85,1.74-.94,2.62-.84a20.26,20.26,0,0,1-.48,2.95,9.56,9.56,0,0,0-.19,2.84c-.37.23-.92,0-1.08.85a26.58,26.58,0,0,0-1.09,3.54c-.22,1.14-.37,2.21-.48,3.25-.13,2.09-.16,4-.2,6.11,0,.78-.09,1.55-.12,2.31s-.08,1.52-.13,2.27c-.15,1.5-.17,3-.26,4.53-.06.76,0,1.53,0,2.31s0,1.56.07,2.36.16,1.61.28,2.43l.18,1.24c.08.42.19.84.29,1.26-.09.46-.95,0-.67.93,0,.52.08,1.07.15,1.63s.18,1.14.27,1.73c.19,1.17.38,2.36.56,3.5a16,16,0,0,1,.17,3.26,5.34,5.34,0,0,1-.81,2.68,4.78,4.78,0,0,1,.37,2,8.53,8.53,0,0,0,0,1.61,11.89,11.89,0,0,1,.94,1.53c-.45.85.71,2.53,1.17,4s.2,3.2.79,4.86a9,9,0,0,0,3.22,4.67c.63.62,1.37,1.4,2.12,2.09a4.34,4.34,0,0,0,2.35,1.31,8.34,8.34,0,0,1,0-1.73c-.81-.59-1.82-1.14-2.8-1.84a9.17,9.17,0,0,1-2.47-2.76c-.73-1.5-.14-2.95-1.3-4.26l.53-.25A19.71,19.71,0,0,1,27.58,131a17.41,17.41,0,0,1-.7-2.73c-.08-.44-.14-.88-.19-1.31s-.06-.87-.08-1.3c0-.85,0-1.69,0-2.52a34.7,34.7,0,0,0-.56-10.5,20.31,20.31,0,0,1,1-3.21,14.82,14.82,0,0,1,1.36-2.8,6,6,0,0,0,.24,1.76,11.54,11.54,0,0,0,.48,1.37c.18.43.34.86.51,1.34a7.52,7.52,0,0,1,.39,1.66,24.9,24.9,0,0,1,2.39,4.92c.35.87.67,1.77.95,2.7s.63,1.84.92,2.78c1.22,3.74,2.64,7.61,4.85,10.61a16.72,16.72,0,0,0,1.76,3.6c.35.55.71,1.09,1.09,1.6s.81,1,1.22,1.48.83,1,1.28,1.42l1.35,1.37c.87.94,1.85,1.81,2.74,2.8a2.83,2.83,0,0,0,.84,2.18c.29.39.62.78.94,1.17s.66.76.93,1.13c.46.28.73-.65,1.28.15,2.71,2.67,1,5.2,2.87,7.52a3,3,0,0,0,.83.57,6,6,0,0,1,1,.55,18.9,18.9,0,0,1,1.46,1.32,7.78,7.78,0,0,0,1.43,1.12,15.05,15.05,0,0,0,2,.88c.7.22,1.41.41,2.12.61a23.62,23.62,0,0,1,4.27,1.5A81.92,81.92,0,0,0,82,170.08a13.69,13.69,0,0,0,3.19,1.27c1.2.28,2.5.5,3.85.7s2.72.31,4.09.47c.69.07,1.37.17,2,.29.34.06.67.13,1,.21s.66.13,1,.21a15.93,15.93,0,0,1,3.45-.44c.63,0,1.27-.06,1.92-.07s1.3,0,2-.08c2.61-.15,5.2-.6,6.86-2,.67-.18.33.7,1.14.39a9,9,0,0,1,1.61-.81c.55-.22,1.09-.46,1.61-.68a4.43,4.43,0,0,0,2.42-1.93,2.09,2.09,0,0,1,1.29-.16c.76-.46,1.51-.94,2.23-1.48s1.46-1,2.18-1.6l2.15-1.69c.72-.55,1.42-1.17,2.15-1.73a70.58,70.58,0,0,1,9.55-6.63l2.49,0c.84,0,1.65,0,2.5-.05a29.09,29.09,0,0,0,5.16-.6,30.08,30.08,0,0,0,5.33-.21,13.1,13.1,0,0,0,2.78-.79,14.34,14.34,0,0,0,1.45-.67q.71-.42,1.44-1c.3-.59.57-1.17.8-1.74a17.55,17.55,0,0,0,.51-1.77,15.5,15.5,0,0,0,.46-3.38,25.76,25.76,0,0,0-.1-3.1c-.09-1-.25-1.89-.37-2.7a3.83,3.83,0,0,0-.51-3.63c.59-1.93,1-3.7,1.46-5.42.2-.88.42-1.75.66-2.62s.44-1.8.71-2.74a24.71,24.71,0,0,1,.9-2.64c.35-.82.76-1.59,1.14-2.34s.87-1.47,1.33-2.18.89-1.43,1.35-2.14c1.77-2.86,3.51-6,3.42-10,.22-.33.56-.48.66-1-.59-.27-.35-1-.18-1.85s.24-1.59-.69-1.81a7.64,7.64,0,0,0-1.58,2.89c-.17.59-.36,1.2-.48,1.81a9.62,9.62,0,0,0-.19,1.82c-1.15.68-.74,2.11-1.19,3.38a7.29,7.29,0,0,1-1.43,2.11,14.63,14.63,0,0,0-1.45,1.83c-.2.35,0,.85,0,1a8.44,8.44,0,0,1-1,1.36,4.76,4.76,0,0,0-1,1.59,28.76,28.76,0,0,0-1,3.41c-.18,1-.37,1.9-.69,3.29-1.3,5.65-3.88,10.87-1.75,14.81a3.46,3.46,0,0,0-.31,3c.11.53.27,1.07.35,1.61a4.36,4.36,0,0,1,0,1.61c-1.53,2.3-.75,2.23-2.7,4.16a21.91,21.91,0,0,1-2.55.31c-.85.06-1.69.09-2.52.1-1.65,0-3.32-.1-4.93-.15s-3.26-.18-4.85-.13c-.82,0-1.64,0-2.45.09-.41,0-.82.08-1.22.13s-.84.09-1.26.16a9.82,9.82,0,0,1-1.63,1.23,2.63,2.63,0,0,1-1.68.32c1.89-2.93,5.65-5.49,9.13-8.7s6.57-7,7.08-10.69c-1.15.12-1.28,1.15-1.79,1.9l-.55.75-.59.73c-.4.49-.79,1-1.21,1.5-.88.95-1.73,2-2.7,2.92s-2,1.92-3,2.92-2.1,1.94-3.25,2.88a11.51,11.51,0,0,0-.94.91c-.31.32-.62.63-.92,1-.6.66-1.16,1.38-1.81,2a16.08,16.08,0,0,1-2,1.93,10.12,10.12,0,0,1-2.47,1.52,18.6,18.6,0,0,1-3.16,1c-.52.13-1,.28-1.6.47a13.1,13.1,0,0,0-1.73.63c-.2-.25-.69.09-.68-.57a4.14,4.14,0,0,1-2.16.44,13.83,13.83,0,0,1-2.23-.24,6.62,6.62,0,0,0-2.07-.07,2.85,2.85,0,0,0-1.83.93C112.44,155.46,112.93,155.36,112.44,155.07Zm58.12-65.79c0-.33.35-.32.38-.06.23-.07.09-.49.06-.8.42,0,.35.94.74,1a4.64,4.64,0,0,0,.51-1.7C173.31,89,171.33,90.31,170.56,89.28Zm1.13-18.35c.81-.48,1.64.19,2.3,1.1a6.54,6.54,0,0,1,.45.71,7.46,7.46,0,0,1,.33.72,4.55,4.55,0,0,1,.33,1.1c.11.93-.26,2.63-1.19,1.91-.51-.4-.71-1.46-.95-2.59A5.76,5.76,0,0,0,171.69,70.93Zm-5.57-6a1,1,0,0,1-1,.21,8.64,8.64,0,0,0-.92-3.1,14.1,14.1,0,0,1-.54-1.63,2.5,2.5,0,0,1,0-1.44,14,14,0,0,1,1.18,2.87A21.31,21.31,0,0,0,166.12,64.92Zm-2-9.26c-.31.47-.64-.24-1,0,.1-.53-.35-1.26,0-1.72C163.79,54.64,163.49,55,164.09,55.66Zm-4.28,2a27,27,0,0,0-5.43-8.49,14.12,14.12,0,0,0-1.79-1.42c-.63-.42-1.3-.77-1.93-1.13a10.2,10.2,0,0,1-3.15-2.41c2.86.81,5.91,3.84,8.57,4.51.77,1.16,1.5,2.5,2.25,3.71a8.78,8.78,0,0,0,2.41,2.87C160.17,56,160.8,57.11,159.81,57.65Zm2.78-4.43-.47.35c-.87-.83-2.42-2.3-1.65-3A5.7,5.7,0,0,1,162.59,53.22Zm-1.85-3.3a.88.88,0,0,0-.79.28C159,49.32,160.1,48.78,160.74,49.92Zm2.78-2.69c.26-.71-.91-1.17-1.24-1.73a5.7,5.7,0,0,1-.58-1.61,4.15,4.15,0,0,0-.61-1.43A5.27,5.27,0,0,0,159.18,41a7.56,7.56,0,0,1-2.32-1.65c-.58-.52-.84.19-1.31.09-4.69-3.32-9.33-6.09-14.17-8.86s-9.91-5.52-15.83-8.49c.55-.84,1.7-.76,2.78-.83s2.06-.21,2.35-1.66c.9.26,1.77.54,2.6.84s1.6.67,2.37,1c1.53.68,2.92,1.47,4.29,2.21a41.77,41.77,0,0,0,8.46,3.79,26.07,26.07,0,0,1,2.52,1.92l1.17,1,1.11,1.09c.74.74,1.52,1.46,2.3,2.27s1.63,1.63,2.56,2.48,1.86,1.84,2.7,2.76a21,21,0,0,1,2.09,2.84C164,43.69,164.33,45.57,163.52,47.23Zm-12.2-18.94c-.89-.57-.42-1-.88-1.57A15,15,0,0,1,147,23.56a15.88,15.88,0,0,0-2.68-1.62l-1.63-.82-1.7-.78c-2.24-1.07-4.37-2-5.14-3.24,1.73,1.24,3.76,0,5.53,1.55a12.89,12.89,0,0,1,2.88-.31,11.33,11.33,0,0,1,2.93.55,15.13,15.13,0,0,1,1.57.63,17.9,17.9,0,0,1,1.63.95A22.68,22.68,0,0,1,154,23.33a10.46,10.46,0,0,1,1.42,1.84,14.39,14.39,0,0,0,1.33,1.89c1.87,2,4.38,3.22,4.68,4.92-1.23.69-3-.3-4.83-1.43-.94-.54-1.9-1.12-2.8-1.57A5.48,5.48,0,0,0,151.32,28.29Zm-4.54,15.53c-.81,0-.88-.55-1.92-1C145.49,42.14,146.31,43.36,146.78,43.82ZM110.6,29a42.07,42.07,0,0,0-5.27-.22c-1.77,0-3.57.05-5.48-.17a20.87,20.87,0,0,1-2.43-.31l-1.12-.22-1.12-.17c-.76-.1-1.55-.19-2.44-.22a19.35,19.35,0,0,0-3,.29,5.33,5.33,0,0,0-1.77.72,10.33,10.33,0,0,1-2.24.94c-1.09.34-2.2.47-3.2.69a3.91,3.91,0,0,0-2.45,1.51,23.34,23.34,0,0,0-3.65.69,5.57,5.57,0,0,0-2.91,1.79A5.61,5.61,0,0,1,75,31.46c.84-1,1.89-2,2.71-2.92a76.09,76.09,0,0,1,17-3,32.66,32.66,0,0,1,16,3ZM61.14,41.31c.1.26-.61.47-.43.74a8.36,8.36,0,0,0-3,2c-.76.82-1.4,1.64-2.12,2.3s-1.74.83-2.71,1.57c-1.24,1.06-2,3.25-3.42,2.78a6.38,6.38,0,0,1-1.73,2.36,6.14,6.14,0,0,0-1.66,2.55c-.7-.66.42-3.13-1.39-2.53-.16.79.53,1.35.49,2.12-1,1.3-1.91,1.92-2.85,1.43A11.85,11.85,0,0,1,45,51.5,18.46,18.46,0,0,1,47.27,49a10,10,0,0,1,2.27-1.62c1-1.85,2.6-2.49,4.31-3.59-.17-.4-.53,0-.86.22.65-1.17,2-1.52,3.39-1.84s2.84-.48,3.78-1.4C60.61,40.64,60.66,41.55,61.14,41.31ZM42.66,57.85a8.28,8.28,0,0,1-1.23.73,1.31,1.31,0,0,1,0-1.65C42.17,56.57,42.43,57.21,42.66,57.85Zm.9,15.36a46,46,0,0,0-2.75,9.39c-.1.56-.24,1.13-.39,1.71s-.25,1.18-.4,1.79-.31,1.22-.42,1.86-.23,1.27-.35,1.91A17.71,17.71,0,0,0,39,91.79c-.06.64-.11,1.28-.15,1.91a19.07,19.07,0,0,0,.31,3.62c-.12.42-.25,1-.36,1.57a9.56,9.56,0,0,0-.18,2c0,1.32.24,2.59,1,3.18a11.79,11.79,0,0,0,.18,2.52c.18.82.42,1.62.67,2.4.6,1.56,1.26,3,1.89,4.42a11.36,11.36,0,0,0,.22,1.52c.12.51.27,1,.43,1.51s.32,1,.53,1.51l.63,1.5c.39,1,.9,2,1.27,3a18.69,18.69,0,0,1,1,3.23c.26,1-.17,2.09.1,3.16.27.91,1.05,1.77,1.39,2.8.55,1.44.52,3.24,1.22,4.62.29.64,1,1.23,1.36,1.84.2.41-.05,1,.1,1.38a5.36,5.36,0,0,0,.46.93c.2.29.42.57.63.85a4.18,4.18,0,0,1,.88,1.76c.77.6,1.48,1.22,2.17,1.86l2.14,1.87c.72.64,1.51,1.23,2.31,1.88s1.73,1.21,2.69,1.84a31.5,31.5,0,0,0-3.41-.57,4.86,4.86,0,0,0-3.18.66L54.6,150l-.68-.59-1.35-1.18a18.38,18.38,0,0,1-2.38-2.67c-.5-.73-.76-1.27-1.17-1.87a11.27,11.27,0,0,0-.75-1c-.29-.39-.65-.83-1.12-1.36s-.94-.88-1.4-1.31a10.61,10.61,0,0,1-1.28-1.32c-1.93-2.59-3.07-5.77-4.43-8.56-.65-1.17-1.3-2.34-1.92-3.44a6.65,6.65,0,0,1-.86-3.38,22,22,0,0,1-1.19-3.14c-.31-1.11-.55-2.26-.85-3.38a23.23,23.23,0,0,0-.89-3.26A10,10,0,0,0,33,110.68a11.42,11.42,0,0,0,0-2.34c-.1-.77-.27-1.53-.41-2.28s-.32-1.5-.48-2.21a14.41,14.41,0,0,1-.26-2.08c.45-.63.89-1.3,1.34-2a15.15,15.15,0,0,0,2.14-4.86,9.11,9.11,0,0,0,.21-1.43,11,11,0,0,0,.07-1.54,8.81,8.81,0,0,0-.48-2.44,17.15,17.15,0,0,0-1-2.25c-.37-.74-.72-1.46-1-2.18a8.87,8.87,0,0,1-.58-2.22,3,3,0,0,0,.72-2,6,6,0,0,1,.31-2.21,23.12,23.12,0,0,1,2-3.56,16.25,16.25,0,0,0,1.09-2,10.36,10.36,0,0,0,.86-2.41c1.61,1.3,3,1.94,4.07,3.22C42.3,73.79,42.75,72.82,43.56,73.21Zm19.65,78.21c.33-.33.72-.38,1-1a1.91,1.91,0,0,0,1.55,1.07,17.9,17.9,0,0,0,2,.13,14.27,14.27,0,0,0,2.17,1,19.62,19.62,0,0,0,2.12.72c.71.2,1.41.41,2.12.63s1.46.41,2.22.69c.51.51.78,1.05,1.25,1.56.53.22,1,.45,1.55.69l1.56.65c.52.2,1,.45,1.54.63l1.54.52a19.11,19.11,0,0,0,3.45.66c1.15.16,2.31.2,3.36.42a28.67,28.67,0,0,1,3.5,1,4.23,4.23,0,0,0,3.35-.18c1.2.15,2.64.59,4.06.76a11.4,11.4,0,0,0,2.06.16,5.45,5.45,0,0,0,1.75-.33,9.66,9.66,0,0,0,3.92.4c.74,0,1.48-.12,2.23-.13.37,0,.75,0,1.12,0s.72,0,1.08,0c.63-.24,1.21-.5,1.77-.77s1.07-.61,1.57-.92,1-.62,1.46-.94.93-.66,1.4-1a15.84,15.84,0,0,1,6.75-2.71,8,8,0,0,1-2.86,2.11,5.43,5.43,0,0,0-2.56,2,7,7,0,0,0-2.84,1.45c-.83.61-1.58,1.32-2.28,1.75-1.23.67-2.91,1.1-4.26,1.7-1.64.81-2.52,1.73-5.32,2.12-1.12.1-2.18.16-3.42.24-2.62.15-5.48-1-7.53-1.06-.56,0-1.17.34-1.72.26a7.69,7.69,0,0,1-2-.73,9.38,9.38,0,0,0-2.13-.76c-.21,0-1,.23-1.24.16a15.25,15.25,0,0,1-2-1.15c-.53-.25-1.09-.47-1.67-.69l-.89-.3L83,162c-.61-.22-1.24-.43-1.89-.64l-1.94-.7c-1.33-.43-2.63-1-4-1.53-.66-.29-1.3-.61-1.94-.91l-1-.46-.91-.52c-1-.58-1.73-1.36-2.71-1.89a14.88,14.88,0,0,1-2.22-.84A9.14,9.14,0,0,1,65,152.81,3.39,3.39,0,0,0,63.21,151.42Zm50.31,4.6c.56-.11.33-.41.82-.19C114.69,156.52,113.53,156.78,113.52,156Z"/><path class="cls-2" d="M64.46,15.47a12,12,0,0,0,1.34-1.16,8.22,8.22,0,0,0,3-1.12c1.07-.49,2.13-.92,2.88-.59L68.5,13.82,65.6,15l-1.42.58-1.4.64c-.94.43-1.92.83-2.92,1.31C60.18,16.56,64.24,15.1,64.46,15.47Z"/><path class="cls-2" d="M56.6,18.58c1.1-.51.83-1.08,1.84-1.6-.11.78-1.45,1.51-1.48,2.28C56.17,19.62,57.22,18.76,56.6,18.58Z"/><path class="cls-2" d="M130.64,180.22a9.08,9.08,0,0,1,3.06-2,15.29,15.29,0,0,0,3.37-2.05,8.35,8.35,0,0,1-3,2.19c-.59.32-1.2.6-1.8.89A13.43,13.43,0,0,0,130.64,180.22Z"/><path class="cls-3" d="M169.52,86.4c-.44-2.78-.74-4.65-1-6-.09-.66-.14-1.19-.16-1.62a9.76,9.76,0,0,1,0-1,8.53,8.53,0,0,0,.05-3.54c.42.89.74,1.81,1.11,2.72.18.46.37.91.54,1.38l.47,1.39a61,61,0,0,1,1.69,12.36,37.16,37.16,0,0,1-.13,4.25c-.15.92-.33,1.23-.53.67,0-.36-.42-1.86-.77-3.84-.19-1-.46-2.09-.66-3.24-.09-.58-.22-1.17-.34-1.75S169.6,87,169.52,86.4Z"/><path class="cls-3" d="M174.14,99.18c0-1.1.06-1.29,0-2.39l1,3.21Z"/><path class="cls-3" d="M164.57,66.52l-.64-1.2-.7-1.16c-.47-.78-.9-1.58-1.42-2.32-.29-.56,0-.21.39.25s.79,1.08.8,1c-.44-.93-1-1.82-1.46-2.72L160.79,59,160,57.68l.81,1.23.68,1.1c.42.68.79,1.26,1.12,1.76L164,64A3.1,3.1,0,0,1,164.57,66.52Z"/><path class="cls-3" d="M108.18,22.89c-1.08-.24-1.42-.37-1.27-.48a4.51,4.51,0,0,1,1.59-.18c.82,0,1.84,0,2.76.05s1.76.09,2.22.06c.92.19,1.8.38,2.56.6a17.73,17.73,0,0,1,1.8.67c.85.4.86.65-.62.52-.59-.14-1.14-.28-1.65-.38l-1.44-.24-2.34-.33C110.4,23.08,109.33,23,108.18,22.89Z"/><path class="cls-3" d="M144,42.49A11.32,11.32,0,0,1,146.68,44c1.1.86,2.41,1.87,3.53,2.94.58.52,1.14,1,1.64,1.48s.93.89,1.3,1.22c.74.66,1.19,1,1.14.6a5.09,5.09,0,0,0-1.08-2.46c-.74-.7-1.58-1.32-2.36-2s-1.61-1.27-2.43-1.87c-1.4-1.32-2.45-2.14-3.11-2.74a9.71,9.71,0,0,1-1.08-1c-.07-.14.11-.09.43,0s.77.41,1.26.69a21.66,21.66,0,0,0,2.48,1.33c.38.09.1-.47-1.87-2.24-.45-.34-.84-.65-1.2-.91l-1-.65a15.75,15.75,0,0,0-1.46-.87c-4.53-2.45-3.38-1.41-1.14.53-6.19-4-8.11-5.25-9.14-6.47A14.84,14.84,0,0,0,131,30a8.91,8.91,0,0,0-1.36-.89c-.59-.3-1.33-.63-2.29-1-5.37-1.81-6.58-1.51-6.71-1.1s.71,1.2-.63,1.09c.12-.33-1-1.05-3-1.8-.51-.2-1.07-.4-1.68-.62s-1.28-.38-2-.58-1.47-.42-2.28-.58L108.57,24a65,65,0,0,0-11.95-1,68.8,68.8,0,0,0-12.8,1.37A108.09,108.09,0,0,0,72.29,28c-1,.39-2,.72-2.91,1.15l-2.9,1.26q-1.44.69-2.88,1.41c-1,.48-1.9,1-2.86,1.54a65.61,65.61,0,0,0-20.41,17.7,77.28,77.28,0,0,0-7.91,11A72.89,72.89,0,0,0,26,76.15a.52.52,0,0,1-.21-.07c0,.27,0,.44.06.46a31,31,0,0,0-1.2,3.15,16.57,16.57,0,0,0-.55,1.88c-.17.65-.34,1.33-.51,2-.33,1.38-.54,2.85-.8,4.31s-.37,2.95-.52,4.39-.22,2.83-.29,4.13-.09,2.49-.17,3.54c-.06,2.1-.23,3.6-.63,4.1l.29,1.9c.18,2.39.36,3.57.36,4.11s-.09.42-.22.18c-.27-.47-.66-1.47-.47,1.31a112.39,112.39,0,0,0,3,14c.34,1.12.67,2.2,1.08,3.21s.76,2,1.18,2.82a15.52,15.52,0,0,0,2.5,4c.25.69-.25-.13,0,.56l.88,1.59c.3.53.63,1,.94,1.55.64,1,1.26,2.06,2,3,.55.23,1.66,1.22,1.32,0,.85,1.42,2,2.35,3.3,4.34,3.66,4.68-.1,1,1,2.85a84.87,84.87,0,0,0,8.1,8.37,93.72,93.72,0,0,0,9.39,7.4,99.91,99.91,0,0,0,10.19,6,108.48,108.48,0,0,0,10.33,4.49c-.18.54,3.74,2.09,8.73,3.12a65.25,65.25,0,0,0,7.79,1.13c1.28.08,2.51.21,3.65.22l3,0a49.23,49.23,0,0,0,10.88-.4c1.84-.22,3.65-.63,5.45-1,.89-.2,1.77-.47,2.65-.7s1.76-.47,2.61-.77l2.53-.83c.83-.3,1.65-.63,2.45-.93,1.63-.58,3.15-1.3,4.65-1.9l4.27-1.92c1.33-.66,2.65-1.2,3.87-1.76a44.74,44.74,0,0,1-10,5l-1.26.49-1.2.41c-.77.27-1.47.52-2.08.75a7.2,7.2,0,0,0-2.32,1.06c1-.16,2-.26,2.93-.48a73,73,0,0,0,10.94-4c.9-.44,1.77-.88,2.6-1.31s1.58-.92,2.29-1.35a17.58,17.58,0,0,0,3.24-2.47c-.84.4-1.5.68-2,.88a11.54,11.54,0,0,1-1.3.38c-.68.15-1.1.16-1.71.3a31.68,31.68,0,0,0,2.61-1.94c.72-.62,1.54-1.25,3-2.3l3.21-2.33c1-.78,2-1.5,2.85-2.13,1.66-1.29,2.88-2.1,3.08-1.88a37.93,37.93,0,0,1-3.34,3c-1.19.89-2.33,1.8-3.42,2.57-.1.28.31.14,1-.24s1.68-1.09,2.77-1.86S153,161,154,160.12s1.9-1.67,2.52-2.17c-2.56,1.39-1.24-.62-.78-1.71.24-.56.26-.9-.46-.49a13.89,13.89,0,0,0-1.75,1.19c-.8.64-1.92,1.45-3.38,2.55a77.49,77.49,0,0,0,5.63-5.69c.81-1.34,0-.9-1.43.33-.75.59-1.7,1.35-2.7,2.19s-2.17,1.66-3.24,2.48-2.18,1.5-3.08,2.07a18.05,18.05,0,0,1-2.11,1.12c-.9.35-.54-.2,1.93-2.48.41-.58.19-.68.28-1a2.46,2.46,0,0,1,.49-.78c.32-.38.85-.88,1.62-1.69-.27.14-.57.33-.88.53s-.66.41-1,.64c-.7.46-1.41,1-2.13,1.53-1.45,1-2.78,2.12-3.55,2.76-1.67.5-5.7,2.89-9.68,4.61a45.11,45.11,0,0,1-5.42,2c-1.52.37-2.57.5-2.79.19a22.27,22.27,0,0,1-2.1.83c-.69.24-1.36.48-2,.69-1.32.35-2.58.69-3.8.91s-2.4.38-3.55.48-2.27.14-3.38.17l-3.33-.07-3.39-.24c-1.16-.08-2.35-.25-3.6-.34s-2.54-.33-3.93-.45l-2.36-.33c-.7-.1-1.33-.16-1.87-.27-1.09-.2-1.9-.32-2.49-.38-1.18-.14-1.5-.11-1.53.08-.06.34,1.12,1.12-1,1-1.74-.47-3.45-1.05-5.15-1.51s-3.33-1-4.87-1.56c-3.11-1-5.84-2.07-7.89-2.93a21.39,21.39,0,0,1-2.26-1.35,11.46,11.46,0,0,1-1.38-1c-.56-.56-.42-.67.76-.08a74,74,0,0,1-31.21-43.77,76.88,76.88,0,0,1-1.84-10.73,80.4,80.4,0,0,1-.21-10.86,78.53,78.53,0,0,1,1.39-10.73,111.88,111.88,0,0,1,5.78-16,43.81,43.81,0,0,1,9.79-13.61L45.25,57.5c-.29.11.54-1.09,1.21-2C45,56.75,43.64,58,42.38,59.25c1-1.38,2.16-2.68,3.24-4s2.26-2.58,3.45-3.79c.85-1.79,4.39-5.25,8.43-8.27S66,37.6,68,36c1.07-.55,2.1-.94,3-1.34l1.32-.55,1.22-.44c.78-.27,1.48-.53,2.13-.74l1.78-.52L78.93,32l1.27-.27c.79-.16,1.47-.3,2.16-.42L84.54,31l1.28-.2,1.53-.18,1.84-.23,2.24-.19,1.29-.12L94.14,30c1,0,2.08-.13,3.27-.1a69.53,69.53,0,0,1,16.5.67A61.72,61.72,0,0,1,131,36.15c1,.52,1.92,1,2.77,1.55s1.56,1.06,2.15,1.49a9.13,9.13,0,0,1,1.26,1.08c.25.26.3.39.11.35l1.76,1.09c.6.39,1.2.83,1.83,1.26s1.28.88,1.89,1.38l1.9,1.48c1.21,1.06,2.47,2.07,3.57,3.17.55.54,1.12,1,1.63,1.58l1.46,1.55c.54.49,1,1,1.44,1.44L154,54.83c.76.78,1.35,1.47,1.87,2a22.3,22.3,0,0,0,1.92,1.92c.3.21.3,0,.06-.53-.11-.27-.29-.61-.51-1s-.54-.85-.87-1.36-.71-1.06-1.12-1.65L154,52.39c-.24-.31-.49-.64-.75-1l-.83-.94c-.56-.63-1.1-1.3-1.7-1.9l-1.78-1.82c-.59-.59-1.21-1.12-1.78-1.65C146,44.06,144.9,43.21,144,42.49Z"/><path class="cls-3" d="M60.07,170.41c-.3,0-.17.26.22.63.2.18.46.39.77.63s.67.46,1.06.71c.77.5,1.63,1,2.43,1.52s1.55.86,2,1.16l1.41.52,1.42.45c.88.31,1.66.58,2.33.8s1.28.33,1.77.44a4.92,4.92,0,0,0,1.8.21c.46-.13-.51-.76-2.64-1.7a8.5,8.5,0,0,1-2.24-.51c-.49-.15-1-.34-1.63-.54s-1.18-.48-1.8-.74l-1.89-.84c-.63-.29-1.24-.62-1.84-.93l-1.73-.92C61,171,60.52,170.68,60.07,170.41Z"/><path class="cls-3" d="M22.76,125.7l.95.72-.77-2.13c-.25-.71-.46-1.44-.69-2.16s-.46-1.44-.66-2.17l-.56-2.2c-.18.16,0,1.33.3,2.86S22.19,124.07,22.76,125.7Z"/><path class="cls-3" d="M168.24,134.16a59,59,0,0,1-5.24,8.22c-1.79,2.26-3.53,4.61-6.29,7.84l2-.42A76.55,76.55,0,0,0,167,139.65a58.45,58.45,0,0,0,6.6-12.86c.26-1.74.08-1.88-.31-1.2s-1.08,2.18-1.81,3.76c-.35.79-.79,1.58-1.18,2.32s-.75,1.41-1.08,1.91C168.55,134.6,168.13,135,168.24,134.16Z"/><path class="cls-3" d="M156.94,147.41c2.07-3,4.16-6,6.12-9.26a88.62,88.62,0,0,0,5.16-10.08,57.6,57.6,0,0,0,3.33-10.38c.17-.85.33-1.7.47-2.54s.21-1.67.3-2.48a34.52,34.52,0,0,0,.13-4.73c-1.61,1.49-2.26,7.27-4,13.65a73,73,0,0,1-3.24,9.45,35.48,35.48,0,0,1-4.16,7.31c-.36.65-.7,1.26-1,1.85s-.7,1.13-1,1.68-.67,1.09-1,1.61l-1.08,1.56a62.58,62.58,0,0,1-5.73,7.06c-1.8,2.13-1,1.69.61.38.8-.65,1.75-1.59,2.7-2.49S156.28,148.11,156.94,147.41Z"/><path class="cls-3" d="M174.09,104.28A37.83,37.83,0,0,0,174,100c-.21-1.12-.49,1.8-.72,3.12a17.25,17.25,0,0,0,.14,2.83C173.58,106.6,173.8,106.52,174.09,104.28Z"/></g></g></svg>