<svg xmlns="http://www.w3.org/2000/svg" viewBox="0 0 150 60"><defs><style>.cls-1{fill:#474747;}</style></defs><g id="Layer_2" data-name="Layer 2"><g id="Layer_1-2" data-name="Layer 1"><path d="M.33,58.41c.08.21.29.09.25-.49l-.34-.41Z"/><path d="M1,54.51c-.17-.68-.46-1.47-.77-1,.33.68.19.84.58,1.57,0,.58-.11,1-.23.91.08.21-.08.9.13,1.21a5,5,0,0,0,.06-2.7C.81,54.25.9,54.46,1,54.51Z"/><path d="M.14,46.7a2.37,2.37,0,0,0,.08.51l0-.48S.15,46.72.14,46.7Z"/><path d="M15.21,59.72s0,0,0,0S15.12,59.72,15.21,59.72Z"/><path d="M.17,46.39v-.48A3.73,3.73,0,0,0,.17,46.39Z"/><path d="M47.12,59.59a1.82,1.82,0,0,1-.49-.25C46.79,59.54,45.25,59.61,47.12,59.59Z"/><path d="M.3,46.7a.41.41,0,0,1-.13-.31l0,.34S.27,46.77.3,46.7Z"/><path d="M95.16.21l1.66,0C96.36.22,95.75.21,95.16.21Z"/><path d="M101.77.21a4.9,4.9,0,0,0,.94.19.69.69,0,0,0,.19-.07Z"/><path d="M.73,52.05a.62.62,0,0,0,0-.18Z"/><path d="M149.92,55.72c0-.81,0-1.59,0-2.54-.29,0-.23-1-.46-1.65.09-1.72.32-3.62.29-5.69-.14-1.45-.24-.42-.42-1.08.27-.1.24-2.17.43-1.1,0-2.48-.05-3.17-.26-6.3-.11.34-.16.72-.25.52,0-.57.11-1.29.24-1.21l0,.15c-.4-3.52.77-8.13.21-10.93l0,.15-.28-2.91c0-1.33.19.81.36-.18-.44-3.14.06-5-.23-7.54.78-2-.06-7.1.44-9.8l-.18.16c-.18-.7.1-.85.14-1.36-.14.07-.16.76-.26.32s0-1.05,0-1.58c0-.88,0-1.77,0-2.67l-3.11,0-1.94,0L140.67.29c-2.62-.1-5.25-.22-7.84-.29-2.28,0-1.29.92-4.18.5l.82-.33c-4.62.39-9.44,0-14,.32a1.43,1.43,0,0,1,.72-.17,8.42,8.42,0,0,0-3.55.18c-.7,0-.16-.18-.59-.28-1-.14-2.41.31-2.92.07,0,0,.09,0,.24-.07-.81.07-2.64,0-2.1.22-1.7-.13-3.25.12-4.6,0-.88.31-2.9-.15-3.18.29.12-.45-3-.37-4-.15C95.84.4,94.55.4,95,.21c-1.22,0-2.35.09-2.13.32C90.58,0,88.3,1,87,.27,83.4.51,80,.68,76.76.78c.12-.45,3.62,0,3.48-.51a73.72,73.72,0,0,1-8,.46c-.8-.06.45-.2.72-.27-3.1.18-6,0-8.75.2a1.71,1.71,0,0,1,.59-.12c-.55,0-1.27-.07-1.21.14l.53-.06c.87.3-2.16.62-2.25.78.92-.59-2.73-.15-1.26-.89-.36,0-.81.14-.73.27-.53,0-.7-.12-.16-.27a30.27,30.27,0,0,1-3,.32c0-.1.37-.13.55-.25A10.72,10.72,0,0,1,54,.88c.09-.06-.09-.14.36-.13-2.56,0-4.37.51-7.17.32.82-.43-1-.14-1.11-.51L44.57.67l.61.18c-1.33,0-2.49.27-3.63.14l1-.15L40.05.91l1.41.14c-1.34.19.14.47-1.62.37a17.57,17.57,0,0,1-2-.22h0a8,8,0,0,1-2.31.15c-.25-.12.21-.42,0-.49-.64.31-3.1.08-3.91.41.27-.07.28-.27.19-.31l-.54.25c-.61-.08-.7-.12-.6-.27-1.84,0,.58.47-1.6.27a3,3,0,0,1,.44-.1c-2.19-.11-4.24.16-6.26,0-.6-.38,1.76-.1,1.08-.41-2.91.06-6,.45-8.84.36l.52,0c-.39.53-2.1-.26-3.52,0,.35,0,.46-.3.36-.24C11,.81,8.94,1,6,1.19l.37-.14C5.81,1,5.06,1,4.3,1L1.93.92c-.49.14-1.39.11-.7.31L.52,1.14a24.31,24.31,0,0,0-.06,5.5,17.06,17.06,0,0,1-.08,4.74c0-.38-.13-.92-.13-.61l.13,2.77c.24-.22.15-.37.33-.95A6.07,6.07,0,0,1,1,14.41c-.15-1.24-.38,0-.51.55.07-.09.15.1.23,0-.43,1.45.48.24.19,2.22l-.12-.1a17.47,17.47,0,0,1,.19,2.22c-.28.33-.13-.79-.36-.84,0,1.12.53,2.21.25,3.22C.75,21.26.75,20.57.68,20.1a6,6,0,0,0-.3,2v-.08L.24,24l.09-.49c.72,1.41.13,2.86.6,4.75-.44-1.84-.25-.3-.57-.44-.08.48-.18,1.21-.27,1,.25.89-.2,1.49.17,2.75-.1.06,0,1-.26.76.08,1.16.17-.28.3-.18.34,1.79-.42,4.21.06,6.78.17,2,.47,2.57.65,4.24v.58c-.15.33-.32-.7-.32-.7a11.31,11.31,0,0,0,0,3c-.09-.21-.17,0-.28.33,0,.85.37.57.22,1.69a3.36,3.36,0,0,1-.41-.85c.1,1,.29,2,.38,3-.18.28-.27-.62-.38-1a12.16,12.16,0,0,0,.43,3.38l.08-.57c-.07.15-.23,0-.27-.27-.22-1,.1-1.44.2-1.5L.72,51c.59-.76-.09-3-.06-4.44l.35.5V58.41h.16c-.22.43-.75.87,1.53,1.17l1.69-.28.54.23H3.51a3.42,3.42,0,0,0,1.89-.11,1.36,1.36,0,0,0,.71.25l1.67-.44c.2.18-.75.36.36.46.78-.21-.74-.41.55-.54.81.21.57.38,1.52.2.13.12-.07.2-.44.25a15.35,15.35,0,0,0,2.67-.31c.84.26,2.86-.07,2.77.37a10.83,10.83,0,0,1,2.27-.36c-1.42.53,2.91,0,2.53.6,1-.48,3.8-.21,5.66-.48a1,1,0,0,1-.47.09,13.82,13.82,0,0,1,2,.27c.13-.39,1.77-.48,2.64-.72,1.29.38-.78.46-.37.82-.07-.31,2.23-.31,1.79-.58,1,.24.85.12,1.35.44.18-.49.92-.08,1.73-.38,1.42.24.37.46,1.93.31.74.15-.65.32-.65.32,1.59,0,.75-.36,1.09-.57,1.89-.11.87.27,1.52.46,1.18-.1,2.09-.44,3-.42.07.06.24.08,0,.15,1.25-.29,3.72,0,5.18-.38a.55.55,0,0,1,.19.09c-.24-.18-.28-.37-.23-.5.72,0,1.33-.24,1.59,0a1.16,1.16,0,0,0-.67.17l.74-.1c.67.34-1,.12-1,.37a32.92,32.92,0,0,1,4.27-.3c.23.34-2.61.11-1.12.42l-1.72-.13c1.31.53-1,0,.16.53,2.27.1,2.54-.17,4.8-.07.51-.19-.16-.28.35-.47,3.22-.34,2.53.85,4.9.4a3.42,3.42,0,0,1,2.53-.43l-.57.39c2.2,0,1.25-.55,3.56-.3-.41.15-1.73.13-1.4.18,1.49.3,1.06-.22,2.2-.22l.24.34c2.34-.06,4.92-.3,7.51-.36-.14.1-.58.2,0,.31a92.13,92.13,0,0,1,10.14.24l1.2-.29c.28,0,.52.13.22.19,1.23.11.06-.19.65-.3s.93.17.48.25a42.61,42.61,0,0,1,8.47-.22l-.45.09c1.78.12,2-.6,3.66-.33l-.31.05c3.86.13,8.13-.14,11.07.3.57-.42,3.83.19,4.08-.4a33.88,33.88,0,0,0,4.68.6c.83,0,1.23-.37,2.26-.43l0,.31,1.4-.33.74.37,1-.08c-.38,0-.81-.14-.76-.22a9.56,9.56,0,0,1,3.7.37l3.56-.26a1.86,1.86,0,0,1-.79.19c1.33-.17.11.36,1.73.09-.24-.07.12-.18.16-.25a21.47,21.47,0,0,0,4.3.11l-.28.21c2.64.06,5.56-.1,8.52-.09-1.06-.1-.82-.47,0-.51l.35.33c.56-.2-.91-.12.24-.37,1.11,0,.75.37.11.48l1.35-.12c.07.1-.24.15-.32.28a4.32,4.32,0,0,1,1.46,0c.31,0,.62.06.91.06l.4,0a4.41,4.41,0,0,0,.58-.1l.16.1H150c0-1,0-1.91,0-2.75C149.94,56.63,149.93,56.17,149.92,55.72ZM.77,7.33a.29.29,0,0,1,.24,0v1C.91,8.23.82,8,.77,7.33Zm0,30.39L1,37.31v1.21A2.15,2.15,0,0,1,.77,37.72Zm0,8c.06-.19.18-.35.27-.28v1.46Zm72,13.49-.77,0,.77,0Zm1.77,0c-.11-.1,0-.2.32-.19-.17.06.56.12,1,.2Z"/><path d="M109.41.22l.21,0Z"/><path d="M127.75,59.66l-.36.05Z"/><polygon points="118.95 59.69 118.94 59.62 118.67 59.68 118.95 59.69"/><path d="M.45,15a.56.56,0,0,0-.08.22A.58.58,0,0,0,.45,15Z"/><path d="M.38,22.15l-.1,1C.34,22.73.37,22.41.38,22.15Z"/><path d="M.24,27.68a.36.36,0,0,0,.12.11v0Z"/><path d="M64.83.54h.22C65.56.47,65.21.49,64.83.54Z"/><path d="M37.83,1.2a8.3,8.3,0,0,1,.87-.14C38.22,1,37.84,1,37.83,1.2Z"/><path d="M95,.2h0Z"/><path d="M40,1.07a5.25,5.25,0,0,0-1.25,0A8.69,8.69,0,0,0,40,1.07Z"/><path d="M.1,51.9s0,0,0,0l0-.3Z"/><path d="M.18,52.22a.66.66,0,0,0,0-.29Z"/><path d="M.18,52.22a1.54,1.54,0,0,0,.07.63Z"/><path d="M.21,42.09a14.91,14.91,0,0,0-.16,2.07l.09.07C0,43.88.39,42.59.21,42.09Z"/><polygon points="25.33 0.78 24.96 1.01 26.11 0.94 25.33 0.78"/><path class="cls-1" d="M8,51.33c.05.14.15.06.13-.33L8,50.72Z"/><path class="cls-1" d="M8.33,48.69c-.09-.46-.23-1-.38-.69.16.46.09.57.28,1.06,0,.39-.05.68-.11.62,0,.14,0,.61.07.82a4.64,4.64,0,0,0,0-1.83C8.25,48.52,8.3,48.66,8.33,48.69Z"/><path class="cls-1" d="M7.92,43.41a2.84,2.84,0,0,0,0,.35v-.33Z"/><path class="cls-1" d="M15,52.27s0,0,0,0S15,52.27,15,52.27Z"/><path class="cls-1" d="M7.94,43.2v-.32A1.65,1.65,0,0,0,7.94,43.2Z"/><path class="cls-1" d="M30.06,52.17a.74.74,0,0,1-.23-.18C29.91,52.13,29.18,52.18,30.06,52.17Z"/><path class="cls-1" d="M8,43.41s0-.1-.06-.21v.23S8,43.46,8,43.41Z"/><path class="cls-1" d="M49.64,7.68l.79,0C50.21,7.69,49.93,7.68,49.64,7.68Z"/><path class="cls-1" d="M52.76,7.68a1.73,1.73,0,0,0,.44.14l.09-.05Z"/><path class="cls-1" d="M56.36,7.69l.1,0Z"/><path class="cls-1" d="M75.47,50.06c-.11-.36.16-1.52,0-2l0-.05c0-1.94,0-2.82-.06-4.4-.14,0-.11-.65-.23-1.12.05-1.16.16-2.45.15-3.85-.07-1-.12-.28-.21-.73.13-.07.12-1.46.21-.74,0-1.68,0-2.14-.13-4.27,0,.23-.07.49-.12.36,0-.39.06-.88.12-.82v.1c-.19-2.38.38-5.5.11-7.4v.11l-.14-2c0-.9.1.55.18-.12-.22-2.13,0-3.36-.11-5.1.38-1.36,0-4.8.22-6.63l-.09.1c-.09-.47,0-.57.07-.91-.07.05-.08.51-.13.21s0-.73,0-1.1c0-.6,0-1.21,0-1.82H73.84l-.92,0-1.85-.1c-1.23-.07-2.47-.16-3.68-.2s-.61.65-2,.35l.38-.24c-2.17.29-4.44,0-6.57.23.13,0,.13-.12.34-.12a2.7,2.7,0,0,0-1.67.13c-.33,0-.08-.12-.28-.2-.45-.1-1.13.22-1.37,0,0,0,0,0,.11,0-.38,0-1.25,0-1,.16-.8-.09-1.53.09-2.17,0-.41.22-1.36-.11-1.5.21.06-.33-1.4-.26-1.9-.11.17-.1-.44-.1-.24-.24-.58,0-1.11.07-1,.23-1.06-.38-2.13.31-2.73-.18-1.71.17-3.3.29-4.83.36,0-.32,1.7,0,1.63-.36a23.85,23.85,0,0,1-3.75.33c-.38-.05.21-.14.34-.2-1.46.13-2.82,0-4.12.15,0,0,.14-.07.27-.09-.25,0-.59,0-.56.1l.25,0c.41.21-1,.44-1.07.55.44-.42-1.28-.1-.59-.63-.17,0-.38.1-.34.19-.25,0-.33-.08-.07-.19-.92.08-.6.23-1.43.23,0-.07.17-.1.26-.18a3.41,3.41,0,0,1-1.54.21s0-.09.17-.09a24.37,24.37,0,0,1-3.38.23c.39-.31-.45-.1-.52-.37L25.83,8l.28.13a11.48,11.48,0,0,1-1.71.1l.47-.11-1.17,0,.66.1c-.63.14.07.34-.76.27a7.1,7.1,0,0,1-1-.16h0a2.41,2.41,0,0,1-1.08.1c-.12-.08.09-.29,0-.35-.3.23-1.45.07-1.84.3.13,0,.14-.19.09-.22l-.25.18c-.29-.06-.33-.09-.29-.2-.86,0,.28.34-.75.19.08,0,0,0,.21-.07-1-.07-2,.12-2.95,0-.28-.27.83-.06.51-.29-1.37,0-2.84.32-4.16.26l.24,0c-.18.37-1-.19-1.66,0,.17,0,.22-.21.17-.17a9.1,9.1,0,0,0-1.16,0l-1.65.13c0,.38,0,.81,0,1.26l-.07-.33c0,.22,0,.59,0,.78v.73c0,.5,0,1,0,1.41.07.23.06.7.16.42-.4,2.48.21,4.73-.12,6.93,0-.26-.06-.63-.06-.42L8,21c.12-.15.07-.25.17-.64a5.45,5.45,0,0,1,.12,1.23c-.08-.84-.19,0-.26.37,0-.06.08.06.12,0-.21,1,.23.17.09,1.51l-.06-.08c0,.51.11,1,.1,1.51-.14.22-.07-.54-.18-.57a11,11,0,0,1,.12,2.18c0-.32,0-.78-.07-1.11A6,6,0,0,0,8,26.8v-.05L8,28l0-.32c.35.94.06,1.93.29,3.21-.22-1.25-.12-.21-.28-.3,0,.32-.09.82-.13.68.12.6-.1,1,.08,1.86-.05,0,0,.64-.13.51,0,.78.09-.19.15-.12.17,1.21-.21,2.84,0,4.58.09,1.39.23,1.74.32,2.87v.39c-.07.23-.16-.47-.16-.47a10.8,10.8,0,0,0,0,2c0-.15-.08,0-.13.22,0,.57.18.38.1,1.14a3.21,3.21,0,0,1-.2-.57c0,.67.14,1.34.19,2C8.06,46,8,45.38,8,45.13a12.11,12.11,0,0,0,.21,2.28l.05-.5c0,.29-.11.15-.14-.07-.11-.67.05-1,.1-1l0,.5c.29-.51-.05-2,0-3l.17.34V51h0v.33h.08c-.11.31-.35.62.72.84l.79-.2.26.16H9.53a1.11,1.11,0,0,0,.89-.08.53.53,0,0,0,.34.18l.78-.32c.09.13-.35.26.17.33.37-.15-.35-.29.26-.39.38.16.27.28.71.15.07.08,0,.14-.2.18.39-.11,1,0,1.25-.22.4.18,1.35,0,1.31.26A3.77,3.77,0,0,1,16.11,52c-.67.38,1.37,0,1.19.43.49-.34,1.79-.15,2.66-.34a.32.32,0,0,1-.22.06,4.07,4.07,0,0,1,1,.2c.07-.28.83-.34,1.25-.52.6.27-.37.33-.18.59,0-.23,1-.23.85-.41.46.16.39.08.63.31.08-.35.43-.06.82-.28.67.18.17.33.9.22.35.11-.3.23-.3.23.75,0,.35-.25.51-.4.89-.08.41.19.72.32a13.34,13.34,0,0,1,1.4-.3c0,.05.11.06,0,.12.58-.21,1.75,0,2.43-.28a.25.25,0,0,1,.09.07.39.39,0,0,1-.1-.36c.33,0,.62-.17.75,0a.4.4,0,0,0-.32.11l.35-.07c.31.25-.48.08-.48.27a10.25,10.25,0,0,1,2-.22c.11.24-1.23.08-.53.3l-.81-.09c.62.38-.5,0,.07.38,1.07.07,1.2-.13,2.27-.06.24-.13-.08-.19.16-.33,1.51-.24,1.19.61,2.31.29a1.17,1.17,0,0,1,1.19-.31l-.27.27c1,0,.59-.39,1.68-.2-.2.1-.82.09-.66.12.7.21.49-.16,1-.16l.12.25c1.1,0,2.31-.22,3.53-.26-.06.07-.27.15,0,.22a29.2,29.2,0,0,1,4.78.17l.56-.21c.13,0,.25.1.1.14.58.08,0-.13.31-.22s.44.12.23.19a13.24,13.24,0,0,1,4-.16l-.2.06c.83.09.94-.43,1.72-.23l-.15,0a38.27,38.27,0,0,1,5.22.21c.26-.3,1.8.13,1.91-.28a11.92,11.92,0,0,0,2.21.42c.39,0,.58-.26,1.06-.31v.22l.66-.23.35.26.45,0c-.18,0-.38-.1-.36-.16a3.19,3.19,0,0,1,1.75.26l1.67-.19c0,.07-.19.11-.37.14.63-.12,0,.26.81.07-.11,0,.06-.14.08-.18a7.17,7.17,0,0,0,2,.08l-.14.15c.61,0,1.25,0,1.91,0l1,0,1.69,0v0c-.72-.07-.64-.27-.24-.32V51.7a1.06,1.06,0,0,0,.16-.19c0-.35-.07-.11-.08,0s0,.17-.11-.44c0-1.05.19-.75.25,0l0-.78v-.52C75.38,49.8,75.4,50,75.47,50.06ZM8.23,16.78s.08-.05.12,0v.68S8.26,17.21,8.23,16.78Zm0,20.56.12-.28v.82A2.28,2.28,0,0,1,8.23,37.34Zm0,5.38c0-.14.09-.24.13-.2v1Zm33.92,9.15h-.36l.36,0Zm.83,0c0-.07,0-.14.15-.14-.08,0,.27.09.49.15Z"/><path class="cls-1" d="M68,52.22l-.17,0Z"/><polygon class="cls-1" points="63.89 52.24 63.88 52.19 63.76 52.23 63.89 52.24"/><path class="cls-1" d="M8.07,21.94a.51.51,0,0,0,0,.15A.51.51,0,0,0,8.07,21.94Z"/><path class="cls-1" d="M8,26.8l0,.69C8,27.19,8,27,8,26.8Z"/><path class="cls-1" d="M8,30.54l.06.08H8Z"/><path class="cls-1" d="M35.36,7.92h.11C35.71,7.87,35.55,7.89,35.36,7.92Z"/><path class="cls-1" d="M22.65,8.39a3.06,3.06,0,0,1,.41-.1C22.83,8.28,22.66,8.27,22.65,8.39Z"/><path class="cls-1" d="M49.56,7.68Z"/><path class="cls-1" d="M23.65,8.3a1.68,1.68,0,0,0-.59,0A2.33,2.33,0,0,0,23.65,8.3Z"/><path class="cls-1" d="M7.9,46.93s0,0,0,0v0Z"/><path class="cls-1" d="M7.94,47.15a.5.5,0,0,0,0-.2Z"/><path class="cls-1" d="M7.94,47.15a1.11,1.11,0,0,0,0,.42Z"/><path class="cls-1" d="M8,40.29a13.61,13.61,0,0,0-.08,1.4l0,.05C7.84,41.5,8,40.63,8,40.29Z"/><polygon class="cls-1" points="16.77 8.09 16.59 8.26 17.13 8.2 16.77 8.09"/></g></g></svg>