<svg xmlns="http://www.w3.org/2000/svg" viewBox="0 0 102.8 102.96"><defs><style>.cls-1{fill:#fff;}</style></defs><g id="Layer_2" data-name="Layer 2"><g id="Layer_1-2" data-name="Layer 1"><g id="BTN_NO"><rect x="1.62" y="1.49" width="100" height="100"/><path class="cls-1" d="M101,101.49c.09.21.28.09.24-.49l-.33-.41Z"/><path class="cls-1" d="M101.57,97.58c-.17-.68-.45-1.47-.75-1,.32.67.18.84.56,1.56,0,.58-.1,1-.23.92.09.2-.07.9.14,1.21a5.12,5.12,0,0,0,0-2.71C101.42,97.33,101.5,97.53,101.57,97.58Z"/><path class="cls-1" d="M102.08,40.86l0,.36A1.79,1.79,0,0,0,102.08,40.86Z"/><path class="cls-1" d="M102.26,5.71c0,.27,0,.38.07.39C102.31,5.86,102.29,5.65,102.26,5.71Z"/><path class="cls-1" d="M99.84.48l.48,0-.32,0A.28.28,0,0,0,99.84.48Z"/><path class="cls-1" d="M102.08,40.86l.11-.94C102.08,39.85,102.11,40.4,102.08,40.86Z"/><path class="cls-1" d="M100.77,89.76a2.37,2.37,0,0,0,.08.51l0-.48Z"/><path class="cls-1" d="M102.35,56.35v.29a1.71,1.71,0,0,0,.13.23Z"/><path class="cls-1" d="M102.4,68.24c0-.27-.27-.36-.39-.46a1.14,1.14,0,0,1,.19.58C102.26,68.37,102.32,68.33,102.4,68.24Z"/><path class="cls-1" d="M101.91,87.1l0,.33C101.93,87.34,101.92,87.2,101.91,87.1Z"/><path class="cls-1" d="M102.41,47.84a.22.22,0,0,0,.1-.11S102.44,47.78,102.41,47.84Z"/><path class="cls-1" d="M87.83,100.17s0,0,0,0S87.93,100.17,87.83,100.17Z"/><path class="cls-1" d="M101.62,101.56h-.19a.53.53,0,0,0,0,.16Z"/><path class="cls-1" d="M88.86.12h0C89.2.09,89,.1,88.86.12Z"/><path class="cls-1" d="M.45,15.06c.26-1.14.33,1.86.61.14C1,15.36.62,13.64.45,15.06Z"/><path class="cls-1" d="M100.8,89.45V89A3.73,3.73,0,0,0,100.8,89.45Z"/><path class="cls-1" d="M1.06,15.2h0l0-.18Z"/><path class="cls-1" d="M63.56.29a.83.83,0,0,0,.25.12S63.75.34,63.56.29Z"/><path class="cls-1" d="M82.41.69l-.47,0Z"/><path class="cls-1" d="M53.77.68a2.53,2.53,0,0,0-.69,0l.11,0A1.48,1.48,0,0,1,53.77.68Z"/><path class="cls-1" d="M43.58.68a1.39,1.39,0,0,0,.19.06h.32Z"/><path class="cls-1" d="M56.87,100.3a1.32,1.32,0,0,1,.47.26C57.19,100.36,58.68,100.28,56.87,100.3Z"/><path class="cls-1" d="M100.92,89.76a.45.45,0,0,1-.12-.31c0,.12,0,.23,0,.34S100.9,89.83,100.92,89.76Z"/><path class="cls-1" d="M53.35,2.9l-1.61,0C52.19,2.89,52.78,2.9,53.35,2.9Z"/><path class="cls-1" d="M2.76,83.66l0,.37A1.35,1.35,0,0,0,2.76,83.66Z"/><path class="cls-1" d="M46.93,2.9A3.87,3.87,0,0,0,46,2.71a.84.84,0,0,0-.19.07Z"/><path class="cls-1" d="M57.35,100.56h0Z"/><path class="cls-1" d="M68,99.89c-1.54,0-.72.36-1.05.57-1.84.11-.85-.27-1.48-.46-1.15.1-2,.44-2.89.43-.06-.07-.23-.09,0-.16-1.22.29-3.61,0-5,.38a.36.36,0,0,1-.18-.09.47.47,0,0,1,.22.51c-.7,0-1.29.23-1.55,0a1.12,1.12,0,0,0,.66-.17L56,101c-.66-.35,1-.12,1-.38a30.75,30.75,0,0,1-4.14.3c-.22-.34,2.53-.11,1.09-.41l1.67.12c-1.28-.53,1,0-.15-.53-2.21-.1-2.47.17-4.67.07-.49.19.17.28-.33.47-3.12.34-2.46-.85-4.76-.4a3.15,3.15,0,0,1-2.46.43l.56-.39c-2.13,0-1.22.56-3.45.3.39-.15,1.67-.13,1.35-.18-1.45-.3-1,.22-2.14.22l-.23-.34c-2.27.06-4.77.3-7.29.36.14-.1.57-.2,0-.31a86.57,86.57,0,0,1-9.83-.24l-1.17.29c-.27,0-.51-.13-.21-.19-1.19-.11-.06.19-.64.3s-.89-.16-.46-.25a40.15,40.15,0,0,1-8.22.22l.43-.09c-1.72-.12-1.95.6-3.55.33l.31,0c-1.16,0-2.36,0-3.54,0H3.32l-.82,0,0-.46,0-.22v-.41a17.58,17.58,0,0,1,.19-1.76c-.42-.55.19-3.71-.4-4A34,34,0,0,0,3,89.25c0-.8-.37-1.2-.43-2.19l.31,0-.32-1.35L2.87,85,2.8,84c0,.37-.14.79-.23.73a9.1,9.1,0,0,1,.37-3.59l-.26-3.45c.12.08.17.66.25,1.11-.32-1.84.32-.33,0-2-.07.23-.18-.12-.24-.16a21.72,21.72,0,0,0,.11-4.17l.21.27c0-2.56-.1-5.4-.1-8.27-.1,1-.47.8-.5,0l.32-.33c-.2-.55-.12.88-.37-.24,0-1.07.37-.72.48-.11l-.11-1.3c.09-.08.15.23.27.31-.2-.54.33-2.25,0-3l.09-.08c0-2.87-.11-4.17-.12-6.51-.28,0-.22-1-.45-1.66.09-1.72.31-3.62.29-5.69-.14-1.46-.24-.43-.41-1.08.26-.11.23-2.18.42-1.11,0-2.48-.05-3.17-.26-6.32-.11.35-.15.73-.24.53,0-.57.11-1.3.23-1.22l0,.16c-.39-3.53.75-8.15.21-11l0,.16-.28-2.91c0-1.34.19.8.35-.19-.43-3.15.06-5-.22-7.56.75-2-.06-7.11.43-9.81l-.18.16c-.18-.7.1-.85.14-1.37-.14.08-.16.76-.26.33,0-.65,0-1.31-.05-2l2.62.05,3.81.14c2.54.1,5.09.22,7.6.28,2.22,0,1.26-.92,4.06-.49l-.8.33c4.48-.4,9.16,0,13.55-.32a1.58,1.58,0,0,1-.7.17,8.06,8.06,0,0,0,3.44-.18c.69,0,.16.17.58.27.93.14,2.33-.3,2.83-.06.08,0-.26.07-.43.09.6-.11,2.82,0,2.24-.25,1.65.14,3.15-.12,4.46,0,.86-.31,2.82.14,3.09-.29C49,2.87,52,2.78,53,2.57c-.35.14.9.14.49.33,1.19,0,2.28-.09,2.07-.32,2.19.54,4.4-.44,5.64.26,3.52-.25,6.79-.41,10-.52-.11.45-3.51.05-3.37.52a67.2,67.2,0,0,1,7.73-.46c.78.06-.43.19-.7.27,3-.19,5.82,0,8.5-.21,0,.05-.3.09-.57.13.53,0,1.23.06,1.17-.14l-.52,0c-.84-.29,2.1-.62,2.19-.78-.89.59,2.64.15,1.22.89.35,0,.79-.13.71-.27.51,0,.67.12.15.28,1.89-.11,1.22-.33,2.93-.33,0,.1-.35.14-.53.26a10.12,10.12,0,0,1,3.19-.31c-.09.06.08.14-.35.14,2.48,0,4.23-.52,7-.33-.42.22-.13.25.13.28s.39,0,.3.24l.27,0,.06.28a3.89,3.89,0,0,0,.18-.4,2.52,2.52,0,0,0,0,.48l0,.25,0,.45a8.7,8.7,0,0,1,0,1.69l-.15-1,.07,2.41.14-1.36c.19,1.3.47-.14.37,1.57a16.81,16.81,0,0,1-.22,1.95h0a7.21,7.21,0,0,1,.16,2.24c-.12.24-.42-.2-.5,0,.32.62.09,3,.42,3.8-.08-.27-.27-.28-.31-.19l.25.52c-.08.6-.12.68-.27.59,0,1.79.47-.57.27,1.55a1.76,1.76,0,0,1-.1-.43c-.11,2.13.16,4.12,0,6.08-.37.58-.09-1.71-.4-1.05.06,2.82.45,5.85.36,8.58l0-.51c.53.38-.26,2,0,3.42,0-.34-.3-.44-.24-.35-.08,1.87.13,3.83.3,6.67l-.14-.36c-.12,1.11-.07,2.91-.13,4.1.14.36.11,1,.31.62-.77,3.68.42,7-.23,10.27,0-.39-.12-.92-.12-.61l.13,2.77c.23-.22.14-.36.32-.94a6.4,6.4,0,0,1,.24,1.82c-.15-1.25-.37,0-.5.55.07-.09.15.09.22,0-.41,1.45.47.24.19,2.22l-.12-.1a17.47,17.47,0,0,1,.19,2.22c-.27.33-.13-.79-.35-.84,0,1.12.51,2.22.24,3.23-.07-.47-.07-1.16-.15-1.64a6.54,6.54,0,0,0-.28,2.06v-.08l-.15,1.9.09-.48c.69,1.4.13,2.86.58,4.75-.43-1.84-.25-.3-.55-.44-.09.48-.18,1.22-.26,1,.24.89-.2,1.49.16,2.75-.1.06,0,1-.25.76.07,1.16.17-.28.29-.18.33,1.79-.41,4.22,0,6.79.19,2.23.52,2.64.68,4.7-.15.7-.35-.57-.35-.57a11.83,11.83,0,0,0,0,3c-.08-.21-.16,0-.27.33,0,.85.36.57.22,1.69a3.08,3.08,0,0,1-.4-.85c.09,1,.28,2,.36,3-.17.27-.25-.63-.37-1a13,13,0,0,0,.43,3.38l.09-.75c0,.42-.23.22-.28-.1-.21-1,.1-1.44.2-1.49l.06.74c.57-.76-.09-3-.06-4.46l.41.62-.34-1.52c.11-.33.34-.55.4.19.21-1.07-.15-1,.08-1.86,0-.1.06-.06.08,0l-.13-1c.09.2.3-.18.24.46.24-1.87-.32-3,0-3.72l0,.16c-.14-2.59-.3-.25-.66-2.19l.75-1.31-.3-.26c0-.27,0-.79.15-.7-.2-1-.13.17-.33-.41.28-1.28-.13-3.55.36-3.84-.23-.46-.18,1.24-.34-.14.52-.39-.09-1.59.15-2.76.27.36.13,1.47.37.3-.46-.71.1-2.3,0-3.29-.36,0-.15-2.15-.27-3.82.12.11.2-3.13.33-4.68l.06,0c-.37-.3-.3-1.9-.37-3.06.22,0,.3.25.4.88V56.64a3.64,3.64,0,0,1-.22-1.31l.27.27a37.9,37.9,0,0,1-.14-4.8c-.25-.1-.71,1.49-.88-.49.14-.07.37-.15.43.37a3.33,3.33,0,0,1,0-1l.23.8c.1-.86-.2-.45-.17-1.13.19,0,.14-.51.29-.41a4.09,4.09,0,0,0,0,.86,7.22,7.22,0,0,1,.3-2c-.11.07-.27,0-.29-.56,0-1.46.24-.5.34-1.35-.14-.35,0-1.28-.29-1.3a1,1,0,0,1,.22-.67c-.13-.76,0-3.52-.35-2.67l0,.19,0-.12h0c-.29-2.47.17-5.13,0-7.58h.1c-.11-1.46-.06-3.25-.28-4.29,0-.44.18-1,.3-.84a11.52,11.52,0,0,1,0-2.86c.17,1.13.15-.39.12,1.15a10.41,10.41,0,0,0,0-3.34c.25.53.32-1.09.24-1.78l-.18,1c0-.78,0-1.46,0-2.15l.33.37c.4-3-.69-5.35,0-7.62-.23-.78-.17,1.62-.44.91a30.4,30.4,0,0,1,.53-3.22c.18-1.87-.49-1.74-.36-3.7-.12.25-.44.48-.55-1s.5-1.68.59-.82c0,.33,0,.49-.07.47,0,.45.1,1,.23.49l-.12-.18c.12-.68.11-2.56.3-2.12-.11-1-.19-.44-.26.32,0-.31,0-.59.07-.86v-.4c0-.15,0-.3,0-.45,0-.79,0-1.54,0-2.36-.67,0-1.39,0-2.24,0,.46.06.79.2.37.2l-1,0h-.52a1.18,1.18,0,0,0-.47.09A2.14,2.14,0,0,1,97.5,1c-1-.18.37-.43-1.44-.28-1.1-.12-.24-.32.2-.41a17.51,17.51,0,0,1-4-.19l.86-.1a9.34,9.34,0,0,1-1.37.05l.49.24c-.51,0-.94,0-.93-.14-.52.16.4.4-.64.61C90,.64,88.6.89,88.36.57c2.14.11-.23-.31,1.57-.36a7.89,7.89,0,0,1-1.28,0c-.08,0,.07-.07.21-.08-2-.28-.94.35-3.06.35.27-.18-.49-.34-.83-.3.85,0,.41.29-.38.43a9.7,9.7,0,0,0-2.18.09l.81.06a6,6,0,0,1-1.9.21c-.08-.14.86-.09.52-.16-1,.32-2.37-.32-3.84-.11-.68-.12-.06-.33-.66-.41C75.7.51,75.56,0,73.83.22c.5.24.59.18-.63.42L76,.47,74.22.82c.86,0,1.81-.15,2.32-.11-.87.19-.78.13-.37.33-1.17-.36-2.32.21-3.68,0l.05-.59c-2-.27-3.62.3-6.27.15l.85.1c-.35.24-1.63,0-2.48.13.07-.2-.46-.27-.83-.39,0,.15-1.93,0-2.17.38L60.46.53C58.32.42,58,1.09,56,1c.62-.21-.31-.35,1.06-.5-.69,0-1.3,0-1.31.1-.4-.13-1.9.26-2.53.07A2,2,0,0,1,52,1c-.09,0,0-.1,0-.1s-1.21.14-.53.35c-2.11-.61-5.9.05-7.74-.48-1.5.07-3.3.13-4.66.14.09-.05,0-.09.27-.07-1.88-.19-1.16.56-3.29.36C35,.85,37.23,1,36.55.88c-.3-.65-2.58.08-4-.3l.35,0c-1.1-.22-2.68.24-4.47.2,0,0,.09-.06,0-.1a32.15,32.15,0,0,1-5.26.53c.53-.25.78-.13.45-.39-.77,0,.23.41-1.31.49-.5-.14-1.62-.27-1.76-.54L22,.72c-.74-.35-1.88,0-2.65,0l.1-.15c-2.23,0-2.26.44-4.65.41l.24.12c-1.31.39-1.09-.22-2.4.07l-.4-.39c-.86.09-3,.38-4.57.45A31.7,31.7,0,0,1,11.48.57,16.5,16.5,0,0,0,8.13.79,4.22,4.22,0,0,1,9.25.72a14.73,14.73,0,0,1-4.14.45c.1-.25-.34-.35-1-.41l-.56,0H2.77L.82.69a10.32,10.32,0,0,1-.3,3c.28,3-.12,6-.08,9.5.6-1.25,0,1,.63.81a4.5,4.5,0,0,1,0,1.21L.69,17.68C.52,18.27.56,16.9.42,17c0,1.8-.26.76-.42,1.94.22-.24.31.63.23,1.65l.28-1.44C.84,21.63,0,21.29.32,23.81L.13,23c.11,1.3,0,4.78.49,6-.07.23-.24.54-.29,0-.07,3.09.53,6.89.22,9.3L.4,38.09a4.59,4.59,0,0,1,.13,1.73c-.06,0-.14-.23-.15,0a10,10,0,0,1,.17,2.3L.38,41.5c-.19,3,.41,4.64.52,7.17-.44,0-.59,2.37-.66,3.56l-.06,0c-.06,3.52.36,6,.54,9.23-.48,2-.2,6.85-.47,10.1.08-.49.34.08.39.66-.09.77.3,2.11-.1,2V73.9c-.4.57-.3,2.14-.31,3.36l.53.21c-.77,3.2.28,8.38-.4,10.13.13.77.13,1.73.26,2.5l-.28,0c-.08,2.14-.11,3.2,0,5.85l-.2-.54c0,1.49.82,1.88.84,3.26l-.43.42c0,1.2,0,2.4-.07,3.61l3.87.09A18.47,18.47,0,0,0,7,102.57c0,.06-.12.19-.54.2,1.22,0,4.74.29,4.29-.29,0,.38,2.69,0,4.1-.13l-.22.28a8.27,8.27,0,0,1,2.88-.55c.39,0,.34.22-.18.15,1.31.15,1-.26,2.61-.12l-.59.18a4.15,4.15,0,0,0,2-.28,5.85,5.85,0,0,1,2.75.32,3,3,0,0,1,1.71-.28c.11.09-.18.15-.32.18,2.25.19,3.34-.33,4.89,0a.31.31,0,0,0,.26.16c-1.79,0-3.23,0-3.09,0,0,.26,1.44.3.29.66a20.37,20.37,0,0,1,4.56-.49l.18.08-.14,0a3.25,3.25,0,0,0,.89,0c.45,0,.73.08,1.16.08a8.13,8.13,0,0,0,2.38.12c-.06-.28.88-.23,0-.46.11,0-.14,0-.61,0a2.32,2.32,0,0,0-.31,0l0,0H34.18a4.16,4.16,0,0,1,2-.1c.37-.18.77-.37,1-.46,1,.4,2.89.61,3.15.85,2.2-.16,5.19-.1,6.57-.63a1.3,1.3,0,0,1,1,.23c-.36.06-.79,0-1,.12,1.25-.13,3.7,0,4-.42,1.58.17-.89.34,1.28.28l-.29.11c4.26.59,6.92-.94,11.65-.18a1.45,1.45,0,0,1-.56-.13c5.39.33,11.1-.31,16.41.22a6.47,6.47,0,0,0,2.6-.31l.33.3,1.57-.35c2.24-.25,3.87.74,6.7.26l-.36-.2c1,0,3.22-.12,3,.11a1,1,0,0,1,.73-.11l0,.16,2.49-.27c1.94.12-.3.63,2.53.66,1.05-.06,3-.46,2.59-.57s-1.08-.09-1.11-.25l1-.09c.17-.46.91-.94-1.45-1.26l-1.64.28-.53-.22,1.38,0a3.22,3.22,0,0,0-1.83.11,1.31,1.31,0,0,0-.69-.25l-1.62.44c-.19-.18.73-.36-.35-.46-.76.21.72.41-.53.54-.79-.21-.56-.38-1.48-.2-.13-.12.07-.2.43-.25a15.29,15.29,0,0,0-2.59.31c-.82-.26-2.78.07-2.69-.37a10.25,10.25,0,0,1-2.2.36c1.37-.53-2.83,0-2.46-.59-1,.47-3.68.21-5.49.47a.92.92,0,0,1,.46-.09,13.18,13.18,0,0,1-2-.27c-.13.39-1.71.48-2.56.72-1.25-.38.75-.46.36-.82.06.31-2.16.31-1.74.58-.95-.24-.82-.11-1.31-.44-.17.49-.89.08-1.68.38-1.38-.24-.35-.45-1.87-.31C66.66,100.06,68,99.89,68,99.89Zm-36,.85h.74Zm-3,0h1.31c.11.1,0,.2-.31.2C30.13,100.88,29.41,100.82,29,100.74Zm6.4,2c-.48,0-.64,0-.7-.07l.84,0,0,0A.49.49,0,0,1,35.36,102.69Z"/><path class="cls-1" d="M36.23,102.32l.19,0-.28-.06-.17.09Z"/><path class="cls-1" d="M102,41.29v-.07a.39.39,0,0,1,0,.14S102,41.31,102,41.29Z"/><polygon class="cls-1" points="2.9 87.03 2.83 87.03 2.89 87.3 2.9 87.03"/><path class="cls-1" d="M101.07,58a.54.54,0,0,0-.07.22A.77.77,0,0,0,101.07,58Z"/><path class="cls-1" d="M101,65.16l-.1,1C101,65.74,101,65.42,101,65.16Z"/><path class="cls-1" d="M100.87,70.7a.29.29,0,0,0,.12.11h0Z"/><path class="cls-1" d="M82.79,2.57h-.22C82.07,2.63,82.41,2.61,82.79,2.57Z"/><path class="cls-1" d="M101.19,8.86c0-.28-.1-.55-.13-.84C101,8.48,101,8.84,101.19,8.86Z"/><path class="cls-1" d="M53.53,2.9Z"/><path class="cls-1" d="M101.07,6.8a5,5,0,0,0,0,1.22A8.29,8.29,0,0,0,101.07,6.8Z"/><path class="cls-1" d="M100.74,94.7V95s0,0,0,0Z"/><path class="cls-1" d="M100.77,95l0,.29C100.81,95.16,100.81,95,100.77,95Z"/><path class="cls-1" d="M100.88,95.92l-.07-.63A1.52,1.52,0,0,0,100.88,95.92Z"/><path class="cls-1" d="M100.87,87.37l-.1-.09A.13.13,0,0,0,100.87,87.37Z"/><path class="cls-1" d="M100.84,85.14a13.63,13.63,0,0,0-.15,2.07l.08.07C100.62,86.94,101,85.65,100.84,85.14Z"/><path class="cls-1" d="M102.1,75.84,102,77.71c.11-.33.25-.76.28.09C102.62,75.45,102.06,78.29,102.1,75.84Z"/><path class="cls-1" d="M102.26,70.06c0,1,.16,0,.22,0C102.38,69.46,102.35,69.31,102.26,70.06Z"/><path class="cls-1" d="M102.26,28.23l.26.1C102.48,27.56,102.42,28.32,102.26,28.23Z"/><polygon class="cls-1" points="100.94 20.23 100.78 20.98 101.01 21.34 100.94 20.23"/><polygon class="cls-1" points="102.76 15.51 102.8 15.85 102.7 14.56 102.76 15.51"/><path class="cls-1" d="M45.39.44l.24.31C46.15.69,46.26.34,45.39.44Z"/><path class="cls-1" d="M15.07.76A3.09,3.09,0,0,0,13.36.65C14,.67,14.72.8,15.07.76Z"/><polygon class="cls-1" points="0.37 78.99 0.27 78.38 0.36 79.53 0.37 78.99"/><path class="cls-1" d="M80.77,74.71c0,.12.52-.44.63-.52C81.15,74.18,80.64,74.85,80.77,74.71Z"/><polygon class="cls-1" points="78.25 74.61 78.48 74.41 77.77 74.75 78.25 74.61"/><path class="cls-1" d="M78.15,73.83c-.39-.15-1.21,0-1.16-.45-.76,1,.6.3.51.83l-.16.24Z"/><path class="cls-1" d="M78.32,70.93a.35.35,0,0,1-.11-.14c-.3.39-.44.16.05.26Z"/><path class="cls-1" d="M78.32,70.93c.16.1.2-.38,0,0Z"/><path class="cls-1" d="M77.51,70.54,78,70.4c.17-.24.05-.44.26-.54C77.9,69.86,77.74,70.1,77.51,70.54Z"/><path class="cls-1" d="M76.7,71l.22-.05C77,70.89,77,70.84,76.7,71Z"/><path class="cls-1" d="M77.11,71c-.28.25,0,0,.28-.08l-.47.09C76.81,71.16,76.52,71.46,77.11,71Z"/><path class="cls-1" d="M77.36,71.14c-.09.29-.08.54-.56.68C77.25,72,77.82,71.34,77.36,71.14Z"/><path class="cls-1" d="M76,74.25l-.13.39.41-.19C76.1,74.54,76.28,74,76,74.25Z"/><path class="cls-1" d="M76.55,69.75a1.36,1.36,0,0,1,.32-.72c-.2.18-.44.56-.67.82Z"/><path class="cls-1" d="M76.2,69.85l-.51.14C75.83,70.2,76,70.07,76.2,69.85Z"/><polygon class="cls-1" points="75.63 71.96 75.7 72.01 76.69 71.62 75.63 71.96"/><polygon class="cls-1" points="76.15 68.29 76.69 67.95 75.84 68.43 76.15 68.29"/><path class="cls-1" d="M75.39,67.35c.26,0,.34.1.19.55.44-.29.5-.73.8-.88C76.19,67,75.77,67.17,75.39,67.35Z"/><path class="cls-1" d="M75.39,67.35a2.06,2.06,0,0,0-.58.25A4.57,4.57,0,0,0,75.39,67.35Z"/><path class="cls-1" d="M75.38,69.5l.07.08a1.65,1.65,0,0,0,.38-.69Z"/><path class="cls-1" d="M75.37,69.52v0a2.24,2.24,0,0,1-.13-.19A2.33,2.33,0,0,0,75.37,69.52Z"/><path class="cls-1" d="M75.47,69.6l0,0C75.41,69.64,75.39,69.66,75.47,69.6Z"/><path class="cls-1" d="M75.66,71c-.41.19-1,.29-1.18,1C74.93,71.71,75.05,71.32,75.66,71Z"/><path class="cls-1" d="M75,70.69a2.12,2.12,0,0,1,.5-.49l-.58.16Z"/><polygon class="cls-1" points="74.64 70.44 74.91 70.36 74.87 70.25 74.64 70.44"/><path class="cls-1" d="M74.67,68.44a.54.54,0,0,1-.58,0,.74.74,0,0,0,.2.5C74.47,68.8,74.82,68.54,74.67,68.44Z"/><path class="cls-1" d="M75,69h0C74.88,69.08,74.88,69.11,75,69Z"/><path class="cls-1" d="M73,67.41l-.08.11.1-.09Z"/><path class="cls-1" d="M74.21,69.07c0,.19.17.11.38,0a.5.5,0,0,1-.3-.11C74.21,69,74.16,69.07,74.21,69.07Z"/><path class="cls-1" d="M74.26,67.56a3,3,0,0,0-.13.44C74.25,67.79,74.42,67.44,74.26,67.56Z"/><path class="cls-1" d="M75,68.85h0C75.15,68.69,75.1,68.75,75,68.85Z"/><path class="cls-1" d="M75,68.85a2.45,2.45,0,0,0-.44.21.74.74,0,0,0,.32,0Z"/><path class="cls-1" d="M72.93,67.52A1.58,1.58,0,0,1,72,68c-.2.34-.17,1.07-.79,1.36-.52,0,0-.39.08-.78-.5.73-1.23.58-2.06,1.55l.55-.1c-.13.15-.44.29-.5.49.5-.49,1.18-.72.86,0C70.74,70.37,72.21,68.6,72.93,67.52Z"/><path class="cls-1" d="M73.27,67.94l.14,0a2.51,2.51,0,0,1,.38-.95,1.72,1.72,0,0,0-.76.42l.34.47Z"/><path class="cls-1" d="M73.79,68.32c-.59.48-1,.52-1.47,1.23.28.19.62-.29,1-.39-.53-.24.41-.19.43-.77a.6.6,0,0,1,.35.06,1.47,1.47,0,0,1,0-.45l0,0h0c0,.08-.09.13-.07.07h0l-.21.19c0-.22.12-.16.21-.19l.09-.07h0L73.41,68C73.43,68.12,73.55,68.2,73.79,68.32Z"/><path class="cls-1" d="M73.13,73a.85.85,0,0,1,.11-.14C73.15,72.86,73.1,72.9,73.13,73Z"/><path class="cls-1" d="M74.28,71.1l.1-.13A.4.4,0,0,0,74.28,71.1Z"/><path class="cls-1" d="M73.29,72.48c.1,0,.34-.25.38-.1s-.26.26-.43.44c.2-.09.58-.2.66-.63l-.1,0a3.61,3.61,0,0,1,.48-1.14A11.82,11.82,0,0,0,73.29,72.48Z"/><path class="cls-1" d="M72.51,71.11l.27-.29c.08.29.38-.1.61-.29l-.59,0Z"/><polygon class="cls-1" points="73.84 66.57 72.86 67.19 73.24 67.1 73.84 66.57"/><polygon class="cls-1" points="72.74 66.76 73.24 66.27 72.83 66.46 72.74 66.76"/><path class="cls-1" d="M43.07,50.35l.26-.23C43.16,50.22,43.05,50.31,43.07,50.35Z"/><path class="cls-1" d="M62.11,56.67c.31-.6.86-1.48.33-.9l-.49.59C62.14,56.35,62.16,56.49,62.11,56.67Z"/><path class="cls-1" d="M52.17,52.76l-.49.22-.12.21Z"/><path class="cls-1" d="M38,46.52l-.66.45C37.51,47.14,37.7,46.78,38,46.52Z"/><path class="cls-1" d="M68.13,62.73a.89.89,0,0,0,0-.63C68,62.56,67.65,63.14,68.13,62.73Z"/><path class="cls-1" d="M47.93,44.35a.65.65,0,0,0,.41-.25A.93.93,0,0,0,47.93,44.35Z"/><path class="cls-1" d="M67.79,61.77c0,.07,0,.12-.06.19.18,0,.34,0,.42.14C68.27,61.77,68.28,61.5,67.79,61.77Z"/><path class="cls-1" d="M24.47,32.68a.38.38,0,0,1,0-.1C24.42,32.65,24.43,32.67,24.47,32.68Z"/><path class="cls-1" d="M25.79,23.26a.53.53,0,0,1,.2.12C26,23.31,26,23.27,25.79,23.26Z"/><path class="cls-1" d="M71.24,64.86c.13,0,.07,0,0,0Z"/><path class="cls-1" d="M69.57,67.44a1.49,1.49,0,0,0-.29.23A2.28,2.28,0,0,1,69.57,67.44Z"/><path class="cls-1" d="M63.56,64.3h0C63.48,64.42,63.49,64.4,63.56,64.3Z"/><path class="cls-1" d="M71.13,65.24a1,1,0,0,0,.05-.28A.82.82,0,0,0,71.13,65.24Z"/><path class="cls-1" d="M71.37,65a.5.5,0,0,0,0,.13C71.5,65,71.54,64.94,71.37,65Z"/><path class="cls-1" d="M71.08,64.76a.28.28,0,0,1,.1.2.16.16,0,0,1,.06-.1Z"/><path class="cls-1" d="M33.38,38.39a.36.36,0,0,1,0-.07C33.09,38.46,33.17,38.46,33.38,38.39Z"/><path class="cls-1" d="M54.19,60.07l0,0v0Z"/><path class="cls-1" d="M53.46,60.16c.81-.55.81-.39.77-.14l1.43-1.68Z"/><path class="cls-1" d="M38.11,46.44v0l-.11.1Z"/><path class="cls-1" d="M60,65.51a1.07,1.07,0,0,1,.18-.43C60,65.23,59.93,65.38,60,65.51Z"/><path class="cls-1" d="M72.45,65.49l-.35,0c.12.06,0,.22,0,.37C72.22,65.68,72.38,65.44,72.45,65.49Z"/><path class="cls-1" d="M70.67,70.9l.27-.29a.32.32,0,0,0-.44.29C70.6,70.85,70.57,71,70.67,70.9Z"/><path class="cls-1" d="M70.66,67.68c-.48.53-.19.47,0,.51a0,0,0,0,1,0,0C71.42,67.49,71,67.59,70.66,67.68Z"/><path class="cls-1" d="M70.89,68.32c.3-.27,0-.11-.14-.11C70.82,68.22,70.88,68.25,70.89,68.32Z"/><path class="cls-1" d="M70.53,65c-.06.19.68-.62.51-.37C71.75,64,69.84,65,70.53,65Z"/><polygon class="cls-1" points="69.13 69.47 69.7 68.8 69.12 69.23 69.13 69.47"/><path class="cls-1" d="M68.49,68l.05.39a.44.44,0,0,1,.27-.16C68.69,68,68.67,67.77,68.49,68Z"/><path class="cls-1" d="M69.09,68.26a.41.41,0,0,0-.28-.07A.21.21,0,0,0,69.09,68.26Z"/><polygon class="cls-1" points="68.64 69.37 68.71 69.18 68.59 68.98 68.64 69.37"/><path class="cls-1" d="M66.23,65.56l-.42,0c-.24.19-.3.38-.13.38S66.06,65.8,66.23,65.56Z"/><path class="cls-1" d="M65.27,68a2.67,2.67,0,0,1,.36-.59l-.77.78Z"/><path class="cls-1" d="M63.78,68c.24-.19.65-.14.61-.53C64.15,67.69,63.43,67.78,63.78,68Z"/><polygon class="cls-1" points="63.02 61.77 61.71 63.01 61.78 63.06 63.02 61.77"/><path class="cls-1" d="M56.23,62.9c.36-.23.09-.51.42-.71-.49.16-.4-.11-1.15.81C55.49,63.58,56.34,62.27,56.23,62.9Z"/><path class="cls-1" d="M56.65,62.19a1.56,1.56,0,0,0,.28-.11A.85.85,0,0,0,56.65,62.19Z"/><polygon class="cls-1" points="25.86 21.48 25.56 22.02 25.78 21.92 25.86 21.48"/><path class="cls-1" d="M24.5,22.54l.76-.86-.84.63C24.5,22.31,24.65,22.32,24.5,22.54Z"/><polygon class="cls-1" points="41.39 50.21 41.41 50.27 42.06 49.45 41.39 50.21"/><path class="cls-1" d="M38.37,49.15c.06.11.32,0,.37.15C38.43,49.26,39.25,48.2,38.37,49.15Z"/><path class="cls-1" d="M25.32,80.84c-.12,0,.42.53.5.64C25.84,81.23,25.18,80.71,25.32,80.84Z"/><polygon class="cls-1" points="25.69 78.58 25.38 77.86 25.51 78.34 25.69 78.58"/><path class="cls-1" d="M25.93,77.62l-.24-.17.61.82c.16-.38,0-1.2.48-1.13C25.79,76.35,26.47,77.72,25.93,77.62Z"/><path class="cls-1" d="M29.36,78.44c-.39-.31-.15-.45-.27,0a.67.67,0,0,1,.12.06A.27.27,0,0,1,29.36,78.44Z"/><path class="cls-1" d="M29.21,78.54c-.11.15.37.21,0,0Z"/><path class="cls-1" d="M29.63,77.75l.13.48c.24.17.44.07.53.27C30.3,78.16,30.06,78,29.63,77.75Z"/><path class="cls-1" d="M29.15,76.93l0,.22C29.29,77.22,29.35,77.23,29.15,76.93Z"/><path class="cls-1" d="M29.27,77.61l-.08-.46c-.16-.12-.45-.41,0,.19C29,77.05,29.17,77.35,29.27,77.61Z"/><path class="cls-1" d="M28.36,77c-.21.45.46,1,.67.58C28.74,77.48,28.49,77.48,28.36,77Z"/><path class="cls-1" d="M25.94,76.15,25.55,76l.18.41C25.64,76.22,26.22,76.42,25.94,76.15Z"/><path class="cls-1" d="M30.45,76.82a1.5,1.5,0,0,1,.73.34c-.18-.2-.56-.45-.81-.68Z"/><path class="cls-1" d="M30.37,76.48,30.24,76C30,76.09,30.15,76.28,30.37,76.48Z"/><polygon class="cls-1" points="28.26 75.83 28.21 75.9 28.57 76.9 28.26 75.83"/><polygon class="cls-1" points="31.94 76.47 32.27 77.02 31.81 76.17 31.94 76.47"/><path class="cls-1" d="M32.36,75.93c.28.44.72.51.85.82.07-.2-.12-.62-.3-1C33,76,32.8,76.08,32.36,75.93Z"/><path class="cls-1" d="M32.91,75.75a1.65,1.65,0,0,0-.23-.58A4,4,0,0,0,32.91,75.75Z"/><path class="cls-1" d="M30.67,75.74a1.68,1.68,0,0,0,.68.4l-.6-.47Z"/><path class="cls-1" d="M30.73,75.66h0l.19-.12Z"/><path class="cls-1" d="M30.64,75.76l0,0C30.61,75.69,30.58,75.68,30.64,75.76Z"/><path class="cls-1" d="M29.2,75.9c-.18-.41-.26-1-.94-1.2C28.54,75.15,28.93,75.28,29.2,75.9Z"/><path class="cls-1" d="M30,75.76l-.15-.59-.32.08A2.08,2.08,0,0,1,30,75.76Z"/><polygon class="cls-1" points="29.83 74.91 29.89 75.17 30.01 75.15 29.83 74.91"/><path class="cls-1" d="M31.84,75a.53.53,0,0,1,0-.57.76.76,0,0,0-.51.18C31.48,74.79,31.73,75.14,31.84,75Z"/><path class="cls-1" d="M31.25,75.28a.07.07,0,0,0,0,0S31.16,75.19,31.25,75.28Z"/><path class="cls-1" d="M32.82,73.31l.09.1,0,0Z"/><path class="cls-1" d="M31.22,74.53c-.19,0-.12.16,0,.37a.43.43,0,0,1,.12-.29C31.27,74.52,31.22,74.47,31.22,74.53Z"/><path class="cls-1" d="M32.74,74.63a2.29,2.29,0,0,0-.44-.15C32.51,74.61,32.86,74.78,32.74,74.63Z"/><path class="cls-1" d="M31.42,75.35s0,0,0,0S31.51,75.42,31.42,75.35Z"/><path class="cls-1" d="M31.42,75.35a3.31,3.31,0,0,0-.2-.45.76.76,0,0,0,0,.33A.8.8,0,0,1,31.42,75.35Z"/><path class="cls-1" d="M31,71.58c0-.52.4,0,.79.1-.72-.52-.54-1.24-1.49-2.09l.07.54c-.14-.13-.28-.44-.47-.51.47.51.69,1.2,0,.86.16.56,1.9,2.08,3,2.83a1.54,1.54,0,0,1-.48-.91C32,72.19,31.26,72.19,31,71.58Z"/><path class="cls-1" d="M32.43,73.73l0-.1,0,.14a2.63,2.63,0,0,1,1,.4,1.68,1.68,0,0,0-.4-.76Z"/><path class="cls-1" d="M32,74.14c-.47-.61-.49-1-1.19-1.5-.21.27.27.62.36,1,.26-.51.18.42.76.45a.57.57,0,0,1-.07.35,1.88,1.88,0,0,1,.45,0l0,0h0c-.09,0-.13-.09-.07-.07s0,0,0,0a1.74,1.74,0,0,1-.18-.22c.23,0,.16.13.18.22l.08.09h0l.1-.68C32.2,73.78,32.11,73.9,32,74.14Z"/><path class="cls-1" d="M27.33,73.33l.14.11C27.43,73.35,27.39,73.3,27.33,73.33Z"/><path class="cls-1" d="M29.17,74.52a15.89,15.89,0,0,0-1.35-1c0,.1.23.34.08.38s-.25-.26-.43-.44a.9.9,0,0,0,.62.68L28,74A3.63,3.63,0,0,1,29.17,74.52Z"/><path class="cls-1" d="M29.17,74.52l.13.11A.56.56,0,0,0,29.17,74.52Z"/><path class="cls-1" d="M29.78,73.67l.07-.58-.63-.31.29.27C29.21,73.12,29.59,73.43,29.78,73.67Z"/><polygon class="cls-1" points="33.24 73.63 33.76 74.24 33.16 73.25 33.24 73.63"/><polygon class="cls-1" points="33.6 73.14 34.07 73.66 33.89 73.25 33.6 73.14"/><path class="cls-1" d="M51.12,44.29l.22.27C51.24,44.39,51.16,44.28,51.12,44.29Z"/><path class="cls-1" d="M44.12,62.94c.6.33,1.46.9.9.36l-.58-.5C44.44,63,44.3,63,44.12,62.94Z"/><path class="cls-1" d="M55.14,39.38l-.43-.67C54.54,38.89,54.89,39.09,55.14,39.38Z"/><path class="cls-1" d="M37.82,68.71c.33.1.51.1.62,0C38,68.58,37.41,68.22,37.82,68.71Z"/><path class="cls-1" d="M57,49.31a.67.67,0,0,0,.25.41A.88.88,0,0,0,57,49.31Z"/><path class="cls-1" d="M38.79,68.41a1.46,1.46,0,0,0-.19-.07c0,.18,0,.34-.16.41C38.78,68.88,39.05,68.9,38.79,68.41Z"/><path class="cls-1" d="M69.55,26.44l.09,0C69.57,26.4,69.55,26.41,69.55,26.44Z"/><path class="cls-1" d="M79,28.05a.43.43,0,0,1-.13.21C78.94,28.27,79,28.21,79,28.05Z"/><path class="cls-1" d="M35.57,71.72c-.06.12,0,.08,0,0Z"/><path class="cls-1" d="M32.79,69.68A1.4,1.4,0,0,1,33,70,1.29,1.29,0,0,0,32.79,69.68Z"/><path class="cls-1" d="M36.38,64.13h0C36.26,64.05,36.28,64.06,36.38,64.13Z"/><path class="cls-1" d="M35.19,71.6a.56.56,0,0,0,.27.05A1.08,1.08,0,0,0,35.19,71.6Z"/><path class="cls-1" d="M35.46,71.85l-.13,0C35.4,72,35.47,72,35.46,71.85Z"/><path class="cls-1" d="M35.67,71.57a.25.25,0,0,1-.21.08.26.26,0,0,1,.11.07A.93.93,0,0,1,35.67,71.57Z"/><path class="cls-1" d="M63.49,35.08l.07,0C63.43,34.8,63.43,34.87,63.49,35.08Z"/><path class="cls-1" d="M41,55s0,0,0,0h0Z"/><path class="cls-1" d="M40.89,54.27c.52.81.36.8.11.76l1.65,1.47Z"/><path class="cls-1" d="M79.13,26.33l0,.3c-.71-1.15-2.35-1.8-3.49-3,.8,1.3-2.19-1-1.09.94-.33-.16-.31-.46-.63-.69.41.61.39.84-.06.82l-.1-.15c-.51.73-1.28.48-2.32.82l.64.55c-.23.06-.45-.09-.67-.17.71,1.07.48-.36,1.3.79-1.39-1-1.1,1-2.58-.24-.24.22.74.63.5.85l-.43-.32.41.54c-.23.07-.76-.32-1.08-.63.08,0,0-.19,0-.26-.63-.25-.42.69-.63.61l.45,0c-.3,1-1.56,1.22-1.44,2.57l.32.24c0,1-.68.05-1,.79l-.05-.08c.17.38.17.65,0,.76-.19-.46-.87-.41-1.06-.94,0,1.05.18.69.86,2.06l-.53-.39c.29.53.5.76.36,1.13-.18-.6-.86-.55-1.14-1.31-1.54-.5.2,1.81-1.51.55,1,1.53,1.17.27,1.3.68.53.31.74,1.16.44,1.2S64.05,33,63.64,33.4c0,0,0-.14,0-.17-.48-.18.12.75-.6.41.65.89-.31.2.63,1.23l.18-.61c0,.47.95,1.85,0,1.64a3.21,3.21,0,0,1-.39-.82c-.39-.19,0,.4-.43.2-.94-1,.28-.68-.22-1.68-.53-.31.25,1.17-.69,0,1.17,1.54-.6.24.13,1.57l-.56-.61c0,.13.22.51.12.58l-.6-.93c.4.89-1-.13-.91.45.47-.48.81.62,1.44.86.19,1.37-1.86-1.24-2.25-.32,0-.17.69,0,.82.45a2,2,0,0,1-1-.31c-.32.55.67.55.84,1.1-.86-.59.07.5.1.92l-.59-.61c-.88.1,1.1,1.4.19,1.36l-.63-1,0,.44-.63-.74c.24.76,0,.7-.41.75.48.37,1,1.14.84,1.37-.5-.22-.47-.66-.7-.27-.3-.45-.69-1,0-.58-.18-.21-.3-.44-.48-.65-.57-.26-.5.3-.61.41a.31.31,0,0,1,.26,0l.37,1.28a1.21,1.21,0,0,1-.54-.63c0,.16.18.5.1.68-.45-.53-1-1-1-1.45l.1,1c-.24-.19-.8-.38-.92-.61-.53-.06.34,1.52-.35,1.45a.62.62,0,0,1,.13.37c-.41.18-1.26-.17-1,.84L53.34,40c-.08.47,1.37.86,1.23,1.64-.06.59-.86-.64-1.22-.78.27.61.88,1.79-.13,1.36-.06-.27.14-.21.17-.37l-.71-.27c-.51-1.07,0-1-.93-1.47,1.64,1.74-.72,1,.92,2.78l-.51-.22c.06,0,0-.13,0-.15-1.09-.54,1,1.44.37,1.56a.77.77,0,0,1-.7-.45l.12.71c-.12,0-.39-.27-.27-.32l-.32.57,0,0a10.57,10.57,0,0,1,.56,1.12c-.35-.13-.12-.23-.36-.42l.16.66c-.53-.35-.75-1-.51-1.08-1.9-1.48.21.63-1.27.11l0-.44c-1.1-.82-.94-.3-1.8-.65A11.55,11.55,0,0,1,50,45.12c-.51.15-1.07.25-.79-.36a4,4,0,0,1-.41.56l-.21-.23a1,1,0,0,0,.1.33,1.08,1.08,0,0,1-.38.23c-.21-.06,0-.73,0-1.06l0,0c.24.19.3.16.42.11l-.49-.26-.07,0,0,0,0,0a.92.92,0,0,0-.51.22,1.76,1.76,0,0,1,.21-.3c-.43.1-1-.1-1.65.36,1.87-2.24-2.08,0-.2-1.94l-.63-.42.2-.18c-.22-.46-.79-.11-1.36.23.05-.2.28-.33.39-.42-.13-.87-.26-.84-1.62-.28l.57-.67c-.47.26.23-1.67-1-1.42a1.27,1.27,0,0,1,.33-.23c-1.27.21.36-3-2.06-.92l-.92.21c.3.63-1,.92-1.2,1.48-.32,0,.18-1.15.53-1l-.08.15c1.24-1.11-.18-1,.62-1.78-1-.84-1.25-2.36-2.07-3.25l-.8,1-.25-.35c.13-.29.59-.82.77-.58.4-.63-.79.09-1,.29-.06-.78,1.22-.92,1.11-1.07l-.25-.1-.06.15c-.51.24-.92.63-1.13.33,0-.34.47-.65.44-.75s.07-.11-.08-.12l-.3-.45-.56.88c-.52.19-.32-.38-1,.61,1-1.52-1-1.83-.76-2.38-.75.31-1,.07-1.21-.27-.07.22-.83,1.08-1,.74,1.74-1.6.25-1.17,1.24-2.58-.61,1-.91-.49-1.74.93-.08-.34.6-.65.83-1.2-1.14.18-.68-1.47-1.51-1.84-.23.21-.46.65-.91.85l.75-1.42c-.22,0-1.36,1.17-.83.19-.15.22-.38.54-.53.53C29,25.41,25.78,26.16,26.54,23c-.25.59-.4.52-.55.42,0,.18-.53.54-.81.86l.3-1.33c-.91.75-.6-.47-1.44.28h.31c-1.14.73-1.74,2.38-3,3.56,1.28-.84-.91,2.19,1,1-.15.33-.45.32-.68.65.61-.43.83-.42.83,0l-.15.11c.76.48.53,1.25.91,2.27l.53-.65c.07.23-.08.44-.15.66,1.06-.73-.38-.46.75-1.31-1,1.41,1.06,1.06-.15,2.57.23.23.61-.76.83-.53l-.3.44.53-.43c.08.23-.3.77-.6,1.09,0-.07-.2,0-.26,0-.23.63.71.39.64.6v-.45c1,.27,1.29,1.51,2.65,1.34l.23-.33c1-.06.08.68.83.93l-.08,0c.37-.18.65-.19.76,0-.45.21-.38.88-.91,1.08,1.06-.07.69-.2,2.05-.92l-.38.54c.53-.31.75-.52,1.13-.39-.6.19-.53.87-1.28,1.17-.46,1.54,1.81-.26.6,1.48,1.51-1.06.23-1.17.64-1.32.3-.53,1.15-.76,1.2-.47s-1.32,1.94-.86,2.33c0,0-.14.05-.18,0-.15.49.76-.14.44.59.87-.67.22.3,1.22-.67l-.62-.15c.48,0,1.83-1,1.65-.08a3,3,0,0,1-.81.4c-.18.4.4,0,.22.42-1,1-.7-.25-1.69.28-.29.53,1.17-.29,0,.68,1.52-1.21.26.59,1.58-.18l-.6.58c.14-.05.51-.24.58-.14l-.91.62c.88-.43-.11,1,.48.89-.5-.45.59-.83.81-1.46,1.38-.23-1.18,1.89-.24,2.24-.17,0,0-.68.43-.82a2,2,0,0,1-.28,1c.56.3.53-.68,1.08-.87-.56.88.5-.09.92-.13l-.59.61c.12.87,1.37-1.14,1.36-.24l-1,.66H36l-.73.64c.76-.26.71-.05.77.38.36-.48,1.11-1.07,1.35-.88-.2.51-.65.5-.25.71-.44.32-1,.72-.57,0-.21.18-.45.31-.65.49-.24.58.32.49.44.6a.27.27,0,0,1,0-.26l1.28-.41a1.25,1.25,0,0,1-.62.55c.16,0,.5-.19.68-.11-.51.46-1,1-1.42,1l1-.13c-.18.24-.36.81-.59.93,0,.53,1.53-.39,1.47.3a.65.65,0,0,1,.37-.14c.19.4-.13,1.26.89.92l-.67,1.08c.48.07.82-1.37,1.61-1.26.61,0-.61.87-.74,1.23.6-.29,1.77-.93,1.37.08-.26.07-.21-.13-.37-.16l-.25.72c-1.07.54-1,.07-1.45,1,1.7-1.68,1.06.69,2.76-1l-.2.5s-.13,0-.15,0c-.51,1.1,1.42-1,1.57-.42a.8.8,0,0,1-.44.72l.71-.14c0,.11-.26.39-.31.27l.58.3-.05,0a9.6,9.6,0,0,1,1.12-.59c-.12.35-.23.12-.41.36l.65-.17c-.33.54-1,.77-1.07.54-1.43,1.94.63-.23.16,1.25h-.45c-.79,1.12-.27.94-.59,1.8.24-.37.95-2,1.64-2.2,0,.11,0,.2.06.23l.07.38a.15.15,0,0,0,0,.15l.06.29-.15.15c-.4-.38-.41-.19-.75-.31a3.55,3.55,0,0,1,.52.54l-.26.26a1.3,1.3,0,0,0,.36-.13c.34.54-.13.67,0,1.12-.43-.42-.8-.9-.45-1a.87.87,0,0,0-.27-.12h0c-.08,0-.09,0-.07.13l-.23.46.2-.18.09-.13c.25.5,1,1.48.32,1.11.05-.07.15,0,0-.27.22.51-.42.55-.69.1l0-.07A1.38,1.38,0,0,0,43,56.09c-.14-.14-1.21-1.34-1.39-1.58l2.79,4.3c-.83-1-3.22-2.94-3.39-3.79-.22,0-.49-.07-.38.45a6.1,6.1,0,0,1,1.46,1.34,10.1,10.1,0,0,0-1.87-1c.29.1,1.59,1.65,1.39,1.75-.18-.24-1.4-1.41-1.49-1.62l1,1.79a6.93,6.93,0,0,0-1.63-1.53c.31.24-.36.3-.33.53l.49.18c-.65.2,1.51,2.4,1,2.75-.23-.35-1.62-1.93-2-1.9.61.83,3,3.93,3.12,4.85l-.48-.34.17.76c-.89-1.27-2.61-4.07-3.2-5.23-.49-.17-.53-.45-.74-.17a.73.73,0,0,1-.39-.81l-.82.29c.86.83.4,1.27,1.11,2l-.24-1.48c.85.83,2,2.75,1.44,3a15.11,15.11,0,0,1-1.68-1.85c.23.34.16.92-.08.75l-.27-.62c-.54-.1.73,1.48-.33.93-.15,0-1.35-.82-.87-.3A42.24,42.24,0,0,1,40,64.13a10.47,10.47,0,0,1-2-.83c-.89-.61-1.53-2-2.3-2.55a3,3,0,0,1,.47.73c-.29-.1-.66-.76-.77-.45.8.9-.51.35.61.83,0,.44-.4,0-.61.31a6.54,6.54,0,0,1,1.66,2.54,4.49,4.49,0,0,0-.68-.58c-.5.34-1.11.17-1.52.54-.24-.17-.68-.24-1-.68.09.2.33.54.22.68-1-.51.17-.38-.89-1.09.47.51.36,1,.49,1.47.8.72.54-.24.42-.72A6.45,6.45,0,0,1,36,67.69c-.08.58-.82-.55-.73-.34-.8.41,1.29,2.36,0,2.09C34.44,69,34,68.1,33.46,67.66c0-.52.84,0,1-.17l-.53-.11c-.14-.3-.13-.65.16-.54-.76-.45-1.16.89-2.19.79a1.68,1.68,0,0,0,.55.89l.06-.24c.68.41.45,1,.89,1.1.18.58.54,1.4,0,1.37L32.53,70c.23.22.64.28.49,0,.21.46-1.46-.62-.61.52l.73.34c.17.59.72,1.65.23,1.65.86.65,0-.14,1,.57-1.24-1,.7-.57-.69-1.5,1.19.86.75.13,1.85.78-.25-.24-.56-.4-.22-.48a2.52,2.52,0,0,1-.18-.27h0s0-.06,0,0a2,2,0,0,1-.49-.28c-.46-.69-.1-1-.28-1.41.24,0,.23.34.56.55l-.27-.62c.57.55,1.26.62,1.28,1.23l.3-.23c.46.17.81.09.71-.28.24,0-.29-.94,0-.39l.08-.75.14.14c.49-.33-.06-1.76,1.41-1.2,0-.27,0-.59.37-.65l.52.44c0-.34,1,0,.6-.61,1.48,1.13,1.16-.55,1.7-.62l-.61-.65c.25-.17.28-.55.3-1.07l-.57-.55c-.22-.69,1-.17,1.31-.58.18.24,0,.27-.16.2,1.69.86,0-1.82,1.33-1.27-.1-.3,0-.3.25-.22,0,0,0,0,0,.05a.09.09,0,0,0,0,0c.14,0,.29.12.43.16a2.22,2.22,0,0,0-.41-.19.74.74,0,0,0,.09-.51l.64.56s0,0,0,0c.33.12-.19-.37-.7-.77a2.23,2.23,0,0,0-.2-.51c1,.89,0-.62,1.12.31-.42-.59.2-.94-.79-2.07.14.14.24.17.19.24.24,0,.49,0,.31-.41l.81.72L44.45,59a2.52,2.52,0,0,1,1.38,1.27c-.49-1.31,0-.66-.55-1.9l.47.52c.11-.14-.35-1,.13-.66,1.2.69,1.49-1.17,3-1-1.57-1.33,1,.35-.11-.82.38.31.67.41.85.82,0-.68,1,0,.41-1.13h0a2.17,2.17,0,0,1,.43.5,1,1,0,0,1-.19.15l.26-.05.13.12a1.09,1.09,0,0,1,0-.14l.18,0a1.2,1.2,0,0,1,.25.49c.09-.12.06-.31,0-.54l.5-.11c-.63.63-.36.59-.48,1,1.13-1.36,1.19-.48,1.78-.67-.4.43-.88.82-1,.48-.65,1.21,1.81-1.15,1.29-.08-.07,0,0-.14-.27,0,.51-.24.56.39.12.68l-.07,0a1.39,1.39,0,0,0,2.33.18c-.13.15-1.31,1.24-1.55,1.44l4.25-2.91c-1,.85-2.86,3.28-3.7,3.48,0,.22-.07.49.46.36A6.31,6.31,0,0,1,56,58.92a11,11,0,0,0-.91,1.88c.09-.29,1.61-1.63,1.72-1.43-.23.19-1.37,1.44-1.58,1.53l1.77-1a6.9,6.9,0,0,0-1.49,1.67c.23-.32.31.34.55.3l.16-.48c.23.63,2.38-1.58,2.74-1.09-.34.24-1.89,1.68-1.84,2.07.81-.63,3.85-3.06,4.78-3.25l-.33.48.76-.19c-1.25.92-4,2.72-5.16,3.35-.16.48-.44.53-.15.73a.74.74,0,0,1-.81.41l.33.8c.8-.87,1.27-.43,1.93-1.15L57,63.79c.81-.87,2.71-2.06,3-1.52A15.38,15.38,0,0,1,58.13,64c.34-.24.93-.19.77.06l-.62.28c-.08.54,1.47-.77.95.3,0,.15-.78,1.36-.28.87a40.56,40.56,0,0,1,4.49-4.75,11.11,11.11,0,0,1-.77,2c-.58.91-2,1.58-2.5,2.36a3.52,3.52,0,0,1,.72-.49c-.09.3-.74.68-.42.78.87-.82.36.49.81-.63.45,0,0,.39.33.59a6.46,6.46,0,0,1,2.51-1.72,4.85,4.85,0,0,0-.56.69c.35.49.2,1.1.6,1.49-.17.24-.22.68-.67,1,.21-.1.55-.34.69-.24-.49,1-.39-.15-1.08.92.51-.49,1-.39,1.47-.53.7-.82-.26-.54-.74-.39a6.55,6.55,0,0,1,3.33-2c.59,0-.53.83-.32.73.44.78,2.34-1.35,2.11-.08-.45.87-1.31,1.35-1.74,1.88-.52,0,0-.82-.2-1l-.09.53c-.3.15-.65.15-.56-.15-.42.78.94,1.13.87,2.15.31-.14.69-.23.88-.57L67.87,68c.39-.68,1-.48,1.08-.92.58-.18,1.4-.57,1.38,0l-.7.82c.21-.23.26-.64,0-.48.46-.23-.58,1.47.54.58l.32-.73c.58-.19,1.64-.77,1.66-.28.62-.87-.15,0,.54-1-.93,1.26-.6-.68-1.49.73.83-1.21.11-.74.73-1.86-.24.26-.39.57-.48.24l-.27.18v0s0,0,0,0-.06,0,0,0a1.83,1.83,0,0,1-.27.49c-.68.49-1,.14-1.41.33,0-.24.34-.24.54-.57l-.62.28c.54-.58.58-1.26,1.21-1.3l-.25-.29c.15-.47.06-.8-.31-.69,0-.25-.93.32-.39,0l-.76-.05.13-.15c-.34-.47-1.77.12-1.25-1.36-.28,0-.59,0-.67-.34l.43-.54c-.34,0-.06-1-.63-.57,1.09-1.5-.6-1.12-.69-1.66l-.63.63c-.18-.25-.57-.27-1.09-.27l-.53.58c-.69.24-.21-1-.64-1.27.24-.19.28-.05.22.15.8-1.7-1.84,0-1.33-1.28-.3.11-.3,0-.24-.24H62l0,0c0-.14.12-.29.16-.43a2.69,2.69,0,0,0-.18.41A.84.84,0,0,0,61.4,57l.55-.65H61.9c.11-.33-.37.2-.75.71a2.25,2.25,0,0,0-.51.23c.87-1.07-.62,0,.27-1.13-.57.44-.94-.16-2,.85.13-.14.16-.24.23-.19,0-.24,0-.49-.42-.3l.7-.82-1.29.77a2.5,2.5,0,0,1,1.23-1.4c-1.29.52-.66,0-1.89.6l.5-.48c-.14-.1-1,.38-.66-.11.65-1.21-1.23-1.43-1.08-3-.6.74-.57.58-.49.32.23,0,.21-.06.07-.22.05-.19.06-.34-.16-.17L55.54,52l.13-.18c.2.19.38.32.51.27.2.11.08-.28,0-.69h0c-.13-.51-.22-1.06.39-.76a2.92,2.92,0,0,1-.69-.6l.14-.06a.3.3,0,0,0-.21,0,.7.7,0,0,1-.11-.23c.12-.34,1.84.65,1-.58a1.11,1.11,0,0,1,.29.22c-.08-.44.14-1-.31-1.66,2.2,1.94.1-2,2-.13l.43-.61.18.21c.47-.21.14-.78-.19-1.36.21.05.32.29.42.39.88-.09.85-.22.33-1.58l.65.58c-.24-.47,1.69.28,1.47-.92a1.54,1.54,0,0,1,.22.34c-.16-1.27,3,.46,1-2L63,41.65c-.65.27-.9-1.06-1.46-1.25.05-.31,1.15.22,1,.56l-.15-.08c1.07,1.27,1-.14,1.77.68.88-1,2.42-1.17,3.34-2l-1-.83.36-.24c.29.14.81.62.56.79.62.41-.07-.79-.26-1,.79,0,.89,1.23,1,1.13l.11-.24-.15-.07c-.22-.51-.6-.93-.29-1.13.34,0,.64.49.74.46s.11.08.12-.07l.46-.29-.86-.58c-.18-.52.4-.31-.58-1,1.5,1,1.87-.91,2.41-.67-.28-.76,0-1,.32-1.19-.22-.08-1.06-.86-.71-1C71.36,35.5,71,34,72.37,35c-1-.63.52-.88-.88-1.75.34-.07.63.62,1.18.86-.14-1.13,1.51-.63,1.91-1.44-.21-.23-.64-.47-.83-.93l1.41.8c0-.23-1.14-1.39-.17-.83-.21-.16-.53-.39-.52-.54,2.26-.08,1.6-3.25,4.81-2.4-.59-.27-.52-.42-.41-.55-.18,0-.53-.55-.84-.84l1.33.34C78.64,26.84,79.85,27.18,79.13,26.33Zm-43,43.94,0,0C36.44,70.32,36.3,70.28,36.09,70.27Zm33.67-5.88,0,0C69.8,64,69.76,64.18,69.76,64.39Zm-1.3-26.16-.21-.1C68.21,37.83,68.33,38,68.46,38.23ZM51.05,54.64c-.18.11-.21,0-.17-.1a.58.58,0,0,0,.17-.18S51.09,54.5,51.05,54.64Zm-1.6-.07.08,0v0h0l.22.08a.83.83,0,0,0-.07.13Zm-4.89-1.93c.19.14.31.19.38.18l-.08.12Zm.68-.58c.06.14,0,.37-.21.64,0-.12,0-.3-.06-.47A1.78,1.78,0,0,1,45.24,52.06Zm.4.54c0,.3.13.41.38.42a2.93,2.93,0,0,1,.32,1.52A8.2,8.2,0,0,0,45,53C45.17,52.75,45.4,52.49,45.64,52.6Zm2.5.06,0,.07.13.09s0,.08,0,.13l-.09-.22-.07,0Zm2.47-7.24a.82.82,0,0,1,.13.22l-.05,0-.24-.08A1.24,1.24,0,0,0,50.61,45.42Zm-.49.53s0,0,0,.08l0-.05Zm-.32,8.26.09-.11a2.12,2.12,0,0,1,.27.21l-.21.22A1.41,1.41,0,0,0,49.8,54.21Zm-.1-.16-.08-.13.1.07Zm0,.79a.76.76,0,0,1,.11-.14c.14,0,.19,0,.15-.17a.64.64,0,0,1,.31-.09,1.4,1.4,0,0,0-.35.31c-.07.09.14,0,.4-.2l-.42.51Zm1.15-1.12s0,0,0,0l.06,0ZM36.39,33.36l-.09.22C36,33.62,36.19,33.5,36.39,33.36Zm8,17.72c-.19.07-.7.33-.4-.07C44.73,50.38,44.47,50.77,44.38,51.08Zm.1.26a.72.72,0,0,0,.37-.08c-.1.1-.17.19-.23.26Zm.17,1.11v.06l0,0Zm3.11.36a.81.81,0,0,1,.29-.09c.07.1.13.2.2.29l-.09.24A3.5,3.5,0,0,1,47.76,52.81Zm4,3.76c.66-1-.77,0-.89-.49a.14.14,0,0,1,0,.09,3.43,3.43,0,0,0-.24-.33c1.07-.56,2.25-1.21,3-1.09A12.61,12.61,0,0,0,51.71,56.57Zm-.5-2.76.35-.62c-.18.12-.35.26-.53.39a.32.32,0,0,0,0-.14c.28-.19.39-.2.54-.39l.14-.07c.19-.33.36-.61.45-.78a.17.17,0,0,0,.09-.06l.73-.08a3,3,0,0,1-.78.7l.25-.13A3.19,3.19,0,0,1,51.21,53.81Zm4.24-1.66a.32.32,0,0,0-.09.08l.07-.11Zm-2-.49c.28-.65.12-.67-.66-.14l.27-.41c.12,0,.19,0,.17-.2a.57.57,0,0,1,.13-.1l.59.37Z"/><path class="cls-1" d="M55.22,39.5h0l-.1-.12Z"/><path class="cls-1" d="M35.27,60.55a1.2,1.2,0,0,1,.43.2C35.56,60.6,35.41,60.5,35.27,60.55Z"/><path class="cls-1" d="M34.56,72.53c.14.13.38.3.33.37l0-.35C34.87,72.68,34.7,72.58,34.56,72.53Z"/><path class="cls-1" d="M29.78,71.23c.1-.13,0-.44-.28-.44,0,.1-.05.07,0,.17Z"/><path class="cls-1" d="M32.74,71.06c-.52-.5-.47-.21-.52,0,0,0,0,0,0,0C32.9,71.81,32.82,71.43,32.74,71.06Z"/><path class="cls-1" d="M32.09,71.27c.26.3.11,0,.11-.14A.18.18,0,0,1,32.09,71.27Z"/><path class="cls-1" d="M35.46,71c-.2-.07.59.7.35.52C36.38,72.26,35.48,70.33,35.46,71Z"/><polygon class="cls-1" points="31.64 70.06 31.23 69.48 30.98 69.48 31.64 70.06"/><path class="cls-1" d="M32.53,68.89l-.4,0a.41.41,0,0,1,.15.27C32.44,69.09,32.71,69.08,32.53,68.89Z"/><path class="cls-1" d="M32.21,69.48a.38.38,0,0,0,.07-.28A.21.21,0,0,0,32.21,69.48Z"/><polygon class="cls-1" points="31.1 69 31.29 69.07 31.49 68.97 31.1 69"/><path class="cls-1" d="M34.7,66.18c.09.21.08.38.33.55l.06-.41C34.9,66.08,34.71,66,34.7,66.18Z"/><path class="cls-1" d="M32.61,65.7a2.8,2.8,0,0,1,.57.38l-.76-.79Z"/><path class="cls-1" d="M32.62,64.23c.18.24.12.65.51.62C32.94,64.61,32.88,63.89,32.62,64.23Z"/><polygon class="cls-1" points="37.74 62.34 37.69 62.41 38.95 63.69 37.74 62.34"/><path class="cls-1" d="M38,56.91c.23.37.51.11.7.44-.14-.48.13-.39-.78-1.16C37.37,56.16,38.66,57.05,38,56.91Z"/><path class="cls-1" d="M38.73,57.35a1.61,1.61,0,0,0,.1.28A1,1,0,0,0,38.73,57.35Z"/><polygon class="cls-1" points="80.25 27.87 80.35 28.1 80.79 28.19 80.25 27.87"/><path class="cls-1" d="M80,26.73c0,.08,0,.23-.23.08l.84.77Z"/><polygon class="cls-1" points="51.31 42.63 51.25 42.65 52.05 43.31 51.31 42.63"/><path class="cls-1" d="M52.49,39.67c-.12,0-.06.32-.18.37C52.37,39.72,53.41,40.57,52.49,39.67Z"/></g></g></g></svg>