<svg xmlns="http://www.w3.org/2000/svg" viewBox="0 0 102.8 102.96"><defs><style>.cls-1{fill:#fff;}</style></defs><g id="Layer_2" data-name="Layer 2"><g id="Layer_1-2" data-name="Layer 1"><path class="cls-1" d="M102.26,5.71c0,.27,0,.38.07.39C102.31,5.86,102.29,5.65,102.26,5.71Z"/><path class="cls-1" d="M99.84.48l.48,0-.32,0A.28.28,0,0,0,99.84.48Z"/><path class="cls-1" d="M102.08,40.86l.11-.94C102.08,39.85,102.11,40.4,102.08,40.86Z"/><path class="cls-1" d="M102.35,56.35v.29a1.71,1.71,0,0,0,.13.23Z"/><path class="cls-1" d="M102,67.78a1.14,1.14,0,0,1,.19.58c.06,0,.12,0,.2-.12C102.41,68,102.13,67.88,102,67.78Z"/><path class="cls-1" d="M101.91,87.1l0,.33Z"/><path class="cls-1" d="M102.41,47.84a.22.22,0,0,0,.1-.11S102.44,47.78,102.41,47.84Z"/><path class="cls-1" d="M101.62,101.56h-.19a.53.53,0,0,0,0,.16Z"/><path class="cls-1" d="M88.86.12h0C89.2.09,89,.1,88.86.12Z"/><path class="cls-1" d="M.45,15.06c.26-1.14.33,1.86.61.14C1,15.36.62,13.64.45,15.06Z"/><path class="cls-1" d="M63.81.41s-.06-.07-.25-.12A.83.83,0,0,0,63.81.41Z"/><path class="cls-1" d="M53.77.68a2.51,2.51,0,0,0-.69,0l.11,0A1.48,1.48,0,0,1,53.77.68Z"/><path class="cls-1" d="M43.58.68a1.39,1.39,0,0,0,.19.06h.32Z"/><path class="cls-1" d="M102.63,13.44c-.23-.78-.17,1.62-.44.91a30.4,30.4,0,0,1,.53-3.22c.18-1.87-.49-1.74-.36-3.7-.12.25-.44.48-.55-1s.5-1.68.59-.82c0,.33,0,.49-.07.47,0,.45.1,1,.23.48l-.12-.17c.12-.68.11-2.56.3-2.12-.11-1-.19-.44-.26.32,0-.31,0-.59.07-.86V2.9c0-.79,0-1.54,0-2.36-.67,0-1.39,0-2.24,0,.46.06.79.2.37.2l-1,0h-.52a1.18,1.18,0,0,0-.47.09A2.14,2.14,0,0,1,97.5,1c-1-.18.37-.43-1.44-.28-1.1-.12-.24-.32.2-.41a17.51,17.51,0,0,1-4-.19l.86-.1a9.34,9.34,0,0,1-1.37.05l.49.24c-.51,0-.94,0-.93-.14-.52.16.4.4-.64.61C90,.64,88.6.89,88.36.57c2.14.11-.23-.31,1.57-.36a7.89,7.89,0,0,1-1.28,0c-.08,0,.07-.07.21-.08-2-.28-.94.35-3.06.35.27-.18-.49-.34-.83-.3.85,0,.41.29-.38.43a9.7,9.7,0,0,0-2.18.09l.81.06a6,6,0,0,1-1.9.21c-.08-.14.86-.09.52-.16-1,.32-2.37-.32-3.84-.11-.68-.12-.06-.33-.66-.41C75.7.51,75.56,0,73.84.22c.49.24.58.18-.64.42L76,.47,74.22.82c.86,0,1.81-.15,2.32-.11-.87.19-.78.13-.37.33-1.17-.36-2.32.21-3.68,0l.05-.59c-2-.27-3.62.3-6.27.15l.85.1c-.35.24-1.63,0-2.48.13.07-.2-.46-.27-.83-.39,0,.15-1.93,0-2.17.38L60.46.53C58.32.42,58,1.09,56,1c.62-.21-.31-.35,1.06-.5-.69,0-1.3,0-1.31.1-.4-.13-1.9.26-2.53.07A2,2,0,0,1,52,1c-.09,0,0-.1,0-.1s-1.21.14-.53.35c-2.11-.61-5.9.05-7.74-.48-1.5.07-3.3.13-4.66.14.09-.05,0-.09.27-.07-1.88-.19-1.16.56-3.29.36C35,.85,37.23,1,36.55.88c-.3-.65-2.58.08-4-.3l.35,0c-1.1-.22-2.68.24-4.47.2,0,0,.09-.06,0-.1a32.15,32.15,0,0,1-5.26.53c.53-.25.78-.13.45-.39-.77,0,.23.41-1.31.49-.5-.14-1.62-.27-1.76-.54L22,.72c-.74-.35-1.88,0-2.65,0l.1-.15c-2.23,0-2.26.44-4.65.41l.24.12c-1.31.39-1.09-.22-2.4.07l-.4-.39c-.86.09-3,.38-4.57.45A31.7,31.7,0,0,1,11.48.57,16.5,16.5,0,0,0,8.13.79,4.22,4.22,0,0,1,9.25.72a14.73,14.73,0,0,1-4.14.45c.1-.25-.34-.35-1-.41l-.56,0H2.77L.82.69a10.32,10.32,0,0,1-.3,3c.28,3-.12,6-.08,9.5.6-1.25,0,1,.63.81a4.44,4.44,0,0,1,0,1.2l0-.17,0,.18h0L.69,17.68C.52,18.27.56,16.9.42,17c0,1.8-.26.76-.42,1.94.22-.24.31.63.23,1.65l.28-1.44C.84,21.63,0,21.29.32,23.81L.13,23c.11,1.3,0,4.78.49,6-.07.23-.24.54-.29,0-.07,3.09.53,6.89.22,9.3L.4,38.09a4.59,4.59,0,0,1,.13,1.73c-.06,0-.14-.23-.15,0a10,10,0,0,1,.17,2.3L.38,41.5c-.19,3,.41,4.64.52,7.17-.44,0-.59,2.37-.66,3.56l-.06,0c-.06,3.52.36,6,.54,9.23-.48,2-.2,6.85-.47,10.1.08-.49.34.08.39.66-.09.76.3,2.11-.1,2V73.9c-.4.57-.3,2.14-.31,3.36l.53.21c-.77,3.2.28,8.38-.4,10.13.13.77.13,1.73.26,2.5l-.28,0C.27,92.2.24,93.26.3,95.91l-.2-.54c0,1.49.82,1.88.84,3.26l-.43.42c0,1.2,0,2.4-.07,3.61l3.87.09A18.47,18.47,0,0,0,7,102.57c0,.06-.12.19-.54.2,1.22,0,4.74.29,4.29-.29,0,.38,2.69,0,4.1-.13l-.22.28a8.27,8.27,0,0,1,2.88-.55c.39,0,.34.22-.18.15,1.31.15,1-.26,2.61-.12l-.59.18a4.15,4.15,0,0,0,2-.28,5.85,5.85,0,0,1,2.75.32,3,3,0,0,1,1.71-.28c.11.09-.18.15-.32.18,2.25.19,3.34-.32,4.89,0a.31.31,0,0,0,.26.16c-1.79,0-3.23,0-3.09,0,0,.26,1.44.3.29.66a20.37,20.37,0,0,1,4.56-.49l.18.08-.14,0a3.25,3.25,0,0,0,.89,0c.45,0,.73.08,1.16.08a8.13,8.13,0,0,0,2.38.12c-.06-.28.88-.23,0-.46.11,0-.14,0-.61,0a2.32,2.32,0,0,0-.31,0l0,0H34.18a4.16,4.16,0,0,1,2-.1c.37-.18.77-.37,1-.46,1,.4,2.89.61,3.15.85,2.2-.16,5.19-.1,6.57-.63a1.3,1.3,0,0,1,1,.23c-.36.06-.79,0-1,.12,1.25-.13,3.7,0,4-.42,1.58.17-.89.34,1.28.28l-.29.11c4.26.59,6.92-.94,11.65-.18a1.45,1.45,0,0,1-.56-.13c5.39.33,11.1-.31,16.41.22a6.47,6.47,0,0,0,2.6-.31l.33.3,1.57-.35c2.24-.25,3.87.74,6.7.26l-.36-.2c1,0,3.22-.12,3,.11a1,1,0,0,1,.73-.11l0,.16,2.49-.27c1.94.12-.3.63,2.53.66,1.05-.06,3-.46,2.59-.57s-1.08-.09-1.11-.25l1-.09a.59.59,0,0,1,0-.08h.15v-.29a.35.35,0,0,0,0-.37V90.14l.08.11-.08-.34V88.45c.06,0,.11.18.13.47.21-1.07-.15-1,.08-1.86,0-.1.06-.06.08,0l-.13-1c.09.2.3-.18.24.46.24-1.87-.32-3,0-3.72l0,.16c-.1-1.94-.22-1.12-.42-1.39V80.35l.51-.89-.3-.26c0-.27,0-.79.15-.7-.2-1-.13.17-.33-.41.28-1.28-.13-3.54.36-3.84-.23-.46-.18,1.24-.34-.14.52-.39-.09-1.59.15-2.76.27.36.13,1.47.37.3-.46-.71.1-2.3,0-3.29-.36,0-.15-2.15-.27-3.82.12.11.2-3.13.33-4.68l.06,0c-.37-.3-.3-1.9-.37-3.06.22,0,.3.25.4.88V56.64a3.64,3.64,0,0,1-.22-1.31l.27.27a37.9,37.9,0,0,1-.14-4.8c-.17-.07-.44.63-.64.48v-1c.08,0,.16.14.19.41a3.33,3.33,0,0,1,0-1l.23.8c.1-.86-.2-.45-.17-1.13.19,0,.14-.51.29-.41a4.09,4.09,0,0,0,0,.86,7.22,7.22,0,0,1,.3-2c-.11.07-.27,0-.29-.56,0-1.46.24-.5.34-1.35-.14-.35,0-1.28-.29-1.3a1,1,0,0,1,.22-.67c-.13-.76,0-3.52-.35-2.67l0,.19,0-.12c-.29-2.47.17-5.13,0-7.58h.1c-.11-1.46-.06-3.25-.28-4.3,0-.43.18-1,.3-.83a11.52,11.52,0,0,1,0-2.86c.17,1.13.15-.39.12,1.15a10.41,10.41,0,0,0,0-3.34c.25.53.32-1.09.24-1.78l-.18,1c0-.78,0-1.46,0-2.15l.33.37C103,18.09,102,15.71,102.63,13.44ZM35.5,102.58l0,0a.43.43,0,0,1-.19.14c-.48,0-.64,0-.7-.07Zm66.16-15.94a.5.5,0,0,1,0,.13v-.58C101.63,86.34,101.65,86.48,101.66,86.64Z"/><path class="cls-1" d="M36.23,102.32l.19,0-.28-.06-.17.09Z"/><path class="cls-1" d="M102,41.22a.39.39,0,0,1,0,.14s0,0,0-.07Z"/><path class="cls-1" d="M102.1,75.84,102,77.71c.11-.33.25-.76.28.09C102.62,75.45,102.06,78.29,102.1,75.84Z"/><path class="cls-1" d="M102.26,70.05c0,1,.16,0,.22,0C102.38,69.46,102.35,69.31,102.26,70.05Z"/><path class="cls-1" d="M102.26,28.23l.26.1C102.48,27.56,102.42,28.32,102.26,28.23Z"/><polygon class="cls-1" points="102.7 14.56 102.76 15.51 102.8 15.85 102.7 14.56"/><path class="cls-1" d="M45.39.44l.24.31C46.15.69,46.26.34,45.39.44Z"/><path class="cls-1" d="M15.07.76A3.09,3.09,0,0,0,13.36.65C14,.67,14.72.8,15.07.76Z"/><polygon class="cls-1" points="0.37 78.99 0.27 78.38 0.36 79.53 0.37 78.99"/></g></g></svg>