<svg xmlns="http://www.w3.org/2000/svg" viewBox="0 0 102.8 102.96"><defs><style>.cls-1{fill:#fff;}</style></defs><g id="Layer_2" data-name="Layer 2"><g id="Layer_1-2" data-name="Layer 1"><rect x="1.62" y="1.49" width="100" height="100"/><path class="cls-1" d="M101,101.49c.09.21.28.09.25-.49l-.34-.41Z"/><path class="cls-1" d="M101.57,97.58c-.17-.68-.45-1.47-.75-1,.32.67.18.84.56,1.56,0,.58-.1,1-.23.92.09.2-.07.9.14,1.21a5.12,5.12,0,0,0,0-2.71C101.42,97.33,101.5,97.53,101.57,97.58Z"/><path class="cls-1" d="M102.08,40.86l0,.36A1.79,1.79,0,0,0,102.08,40.86Z"/><path class="cls-1" d="M102.26,5.71c0,.27,0,.38.07.39C102.31,5.86,102.29,5.65,102.26,5.71Z"/><path class="cls-1" d="M99.84.48l.48,0-.32,0A.28.28,0,0,0,99.84.48Z"/><path class="cls-1" d="M102.08,40.86l.11-.94C102.08,39.85,102.11,40.4,102.08,40.86Z"/><path class="cls-1" d="M100.77,89.76a2.37,2.37,0,0,0,.08.51l0-.48Z"/><path class="cls-1" d="M102.35,56.35v.29a1.71,1.71,0,0,0,.13.23Z"/><path class="cls-1" d="M102.4,68.24c0-.27-.27-.36-.39-.46a1.14,1.14,0,0,1,.19.58C102.26,68.37,102.32,68.33,102.4,68.24Z"/><path class="cls-1" d="M101.91,87.1l0,.33Z"/><path class="cls-1" d="M102.41,47.84a.22.22,0,0,0,.1-.11S102.44,47.78,102.41,47.84Z"/><path class="cls-1" d="M87.83,100.17s0,0,0,0S87.93,100.17,87.83,100.17Z"/><path class="cls-1" d="M101.62,101.56h-.19a.53.53,0,0,0,0,.16Z"/><path class="cls-1" d="M88.86.12h0C89.2.09,89,.1,88.86.12Z"/><path class="cls-1" d="M.45,15.06c.26-1.14.33,1.86.61.14C1,15.36.62,13.64.45,15.06Z"/><path class="cls-1" d="M100.8,89.45V89A3.73,3.73,0,0,0,100.8,89.45Z"/><path class="cls-1" d="M1.06,15.2h0l0-.18Z"/><path class="cls-1" d="M63.56.29a.83.83,0,0,0,.25.12S63.75.34,63.56.29Z"/><path class="cls-1" d="M82.41.69l-.47,0Z"/><path class="cls-1" d="M53.77.68a2.51,2.51,0,0,0-.69,0l.11,0A1.48,1.48,0,0,1,53.77.68Z"/><path class="cls-1" d="M43.58.68a1.39,1.39,0,0,0,.19.06h.32Z"/><path class="cls-1" d="M56.87,100.3a1.32,1.32,0,0,1,.47.26C57.19,100.36,58.68,100.28,56.87,100.3Z"/><path class="cls-1" d="M100.92,89.76a.45.45,0,0,1-.12-.31l0,.34S100.9,89.83,100.92,89.76Z"/><path class="cls-1" d="M53.35,2.9l-1.61,0C52.19,2.89,52.78,2.9,53.35,2.9Z"/><path class="cls-1" d="M2.76,83.66l0,.37A1.35,1.35,0,0,0,2.76,83.66Z"/><path class="cls-1" d="M46.93,2.9A3.87,3.87,0,0,0,46,2.71a.84.84,0,0,0-.19.07Z"/><path class="cls-1" d="M57.35,100.56h0Z"/><path class="cls-1" d="M68,99.89c-1.54,0-.72.36-1.05.57-1.84.11-.85-.27-1.48-.46-1.15.1-2,.44-2.89.43-.06-.07-.23-.09,0-.16-1.22.29-3.61,0-5,.38a.36.36,0,0,1-.18-.09.47.47,0,0,1,.22.51c-.7,0-1.29.23-1.55,0a1.12,1.12,0,0,0,.66-.17L56,101c-.66-.35,1-.12,1-.38a30.75,30.75,0,0,1-4.14.3c-.22-.34,2.53-.11,1.09-.41l1.67.12c-1.28-.53,1,0-.15-.53-2.21-.1-2.47.17-4.67.07-.49.19.17.28-.33.47-3.12.34-2.46-.85-4.76-.4a3.15,3.15,0,0,1-2.46.43l.56-.39c-2.13,0-1.22.56-3.45.3.39-.15,1.67-.13,1.35-.17-1.45-.31-1,.21-2.14.21l-.23-.34c-2.27.06-4.77.3-7.29.36.14-.1.57-.2,0-.31a86.57,86.57,0,0,1-9.83-.24l-1.17.29c-.27,0-.51-.13-.21-.19-1.19-.11-.06.19-.64.3s-.89-.16-.46-.25a40.15,40.15,0,0,1-8.22.22l.43-.09c-1.72-.12-1.95.6-3.55.33l.31,0c-1.16,0-2.36,0-3.54,0H3.32l-.82,0,0-.46,0-.22v-.41a17.58,17.58,0,0,1,.19-1.76c-.42-.55.19-3.71-.4-4A34,34,0,0,0,3,89.25c0-.8-.37-1.2-.43-2.19l.31,0-.32-1.35L2.87,85,2.8,84c0,.37-.14.79-.23.73a9.1,9.1,0,0,1,.37-3.59l-.26-3.45c.12.08.17.66.25,1.11-.32-1.84.32-.33,0-2-.07.23-.18-.12-.24-.16a21.72,21.72,0,0,0,.11-4.17l.21.27c0-2.56-.1-5.4-.1-8.27-.1,1-.47.8-.5,0l.32-.33c-.2-.55-.12.88-.37-.24,0-1.07.37-.72.48-.11l-.11-1.3c.09-.08.15.23.27.31-.2-.54.33-2.25,0-3l.09-.08c0-2.87-.11-4.17-.12-6.51-.28,0-.22-1-.45-1.66.09-1.72.31-3.62.29-5.69-.14-1.46-.24-.43-.41-1.08.26-.11.23-2.18.42-1.11,0-2.48-.05-3.17-.26-6.32-.11.35-.15.73-.24.53,0-.57.11-1.3.23-1.22l0,.16c-.39-3.53.75-8.15.21-11l0,.16-.28-2.91c0-1.34.19.8.35-.19-.43-3.15.06-5-.22-7.56.75-2-.06-7.11.43-9.81l-.18.16c-.18-.7.1-.85.14-1.37-.14.08-.16.76-.26.33,0-.65,0-1.31-.05-2l2.62.05,3.81.14c2.54.1,5.09.22,7.6.28,2.22,0,1.26-.92,4.06-.49l-.8.33c4.48-.4,9.16,0,13.55-.32a1.58,1.58,0,0,1-.7.17,8.06,8.06,0,0,0,3.44-.18c.69,0,.16.17.58.27.93.14,2.33-.3,2.83-.06.08,0-.26.07-.43.09.6-.11,2.82,0,2.24-.25,1.65.14,3.15-.12,4.46,0,.86-.31,2.82.14,3.09-.29C49,2.87,52,2.78,53,2.57c-.35.14.9.14.5.33,1.18,0,2.27-.09,2.06-.32,2.19.54,4.4-.44,5.64.26,3.52-.25,6.79-.41,10-.52-.11.45-3.51.05-3.37.52a67.2,67.2,0,0,1,7.73-.46c.78.06-.43.19-.7.27,3-.19,5.82,0,8.5-.21,0,.05-.3.09-.57.13.53,0,1.23.06,1.17-.14l-.52,0c-.84-.29,2.1-.62,2.19-.78-.89.59,2.64.15,1.22.89.35,0,.79-.13.71-.27.51,0,.67.12.15.28,1.89-.11,1.22-.33,2.93-.33,0,.1-.35.14-.53.26a10.12,10.12,0,0,1,3.19-.31c-.09.06.08.14-.35.14,2.48,0,4.23-.52,7-.33-.42.22-.13.25.13.28s.39,0,.3.24l.27,0,.06.28a3.89,3.89,0,0,0,.18-.4,2.52,2.52,0,0,0,0,.48l0,.25,0,.45a8.7,8.7,0,0,1,0,1.69l-.15-1,.07,2.41.14-1.36c.19,1.3.47-.14.37,1.57a16.81,16.81,0,0,1-.22,1.95h0a7.57,7.57,0,0,1,.15,2.24c-.12.24-.42-.2-.5,0,.32.62.09,3,.42,3.8-.07-.27-.27-.28-.31-.19l.25.52c-.08.6-.12.68-.27.59,0,1.79.47-.57.27,1.55a1.76,1.76,0,0,1-.1-.43c-.11,2.13.16,4.12,0,6.08-.37.58-.09-1.71-.4-1.05.06,2.82.45,5.85.36,8.58l0-.51c.53.38-.26,2,0,3.42,0-.34-.3-.44-.24-.35-.08,1.87.13,3.83.3,6.67l-.14-.36c-.12,1.11-.07,2.91-.13,4.1.14.36.11,1,.31.62-.77,3.68.42,7-.23,10.27,0-.39-.12-.92-.12-.61l.13,2.77c.23-.22.14-.36.32-.94a6.4,6.4,0,0,1,.24,1.82c-.15-1.25-.37,0-.5.55.07-.09.15.09.22,0-.41,1.45.47.24.19,2.22l-.12-.1a17.47,17.47,0,0,1,.19,2.22c-.27.33-.13-.79-.35-.84,0,1.12.51,2.22.24,3.23-.07-.47-.07-1.16-.15-1.64a6.54,6.54,0,0,0-.28,2.06v-.08l-.15,1.9.09-.48c.69,1.4.13,2.86.58,4.75-.43-1.84-.25-.3-.55-.44-.09.48-.18,1.22-.26,1,.24.89-.2,1.49.16,2.75-.1.06,0,1-.25.76.07,1.16.17-.28.29-.18.33,1.79-.41,4.22,0,6.79.19,2.23.52,2.64.68,4.7-.15.7-.35-.57-.35-.57a11.83,11.83,0,0,0,0,3c-.08-.21-.16,0-.27.33,0,.85.36.57.22,1.69a3.08,3.08,0,0,1-.4-.85c.09,1,.28,2,.36,3-.17.27-.25-.63-.37-1a13,13,0,0,0,.43,3.38l.09-.75c0,.42-.23.22-.28-.1-.21-1,.1-1.44.2-1.49l.06.74c.57-.76-.09-3-.06-4.46l.42.62-.35-1.52c.11-.33.34-.55.4.19.21-1.07-.15-1,.08-1.86,0-.1.06-.06.08,0l-.13-1c.09.2.3-.18.24.46.24-1.87-.32-3,0-3.72l0,.16c-.14-2.59-.3-.25-.66-2.19l.75-1.31-.3-.26c0-.27,0-.79.15-.7-.2-1-.13.17-.33-.41.28-1.28-.13-3.54.36-3.84-.23-.46-.18,1.24-.34-.14.52-.39-.09-1.59.15-2.76.27.36.13,1.47.37.3-.46-.71.1-2.3,0-3.29-.36,0-.15-2.15-.27-3.82.12.11.2-3.13.33-4.68l.06,0c-.37-.3-.3-1.9-.37-3.06.22,0,.3.25.4.88V56.64a3.64,3.64,0,0,1-.22-1.31l.27.27a37.9,37.9,0,0,1-.14-4.8c-.25-.1-.71,1.49-.88-.49.14-.07.37-.15.43.37a3.33,3.33,0,0,1,0-1l.23.8c.1-.86-.2-.45-.17-1.13.19,0,.14-.51.29-.41a4.09,4.09,0,0,0,0,.86,7.22,7.22,0,0,1,.3-2c-.11.07-.27,0-.29-.56,0-1.46.24-.5.34-1.35-.14-.35,0-1.28-.29-1.3a1,1,0,0,1,.22-.67c-.13-.76,0-3.52-.35-2.67l0,.19,0-.12h0c-.29-2.47.17-5.13,0-7.58h.1c-.11-1.46-.06-3.25-.28-4.29,0-.44.18-1,.3-.84a11.52,11.52,0,0,1,0-2.86c.17,1.13.15-.39.12,1.15a10.41,10.41,0,0,0,0-3.34c.25.53.32-1.09.24-1.78l-.18,1c0-.78,0-1.46,0-2.15l.33.37c.4-3-.69-5.35,0-7.62-.23-.78-.17,1.62-.44.91a30.4,30.4,0,0,1,.53-3.22c.18-1.87-.49-1.74-.36-3.7-.12.25-.44.48-.55-1s.5-1.68.59-.82c0,.33,0,.49-.07.47,0,.45.1,1,.23.49l-.12-.18c.12-.68.11-2.56.3-2.12-.11-1-.19-.44-.26.32,0-.31,0-.59.07-.86V2.9c0-.79,0-1.54,0-2.36-.67,0-1.39,0-2.24,0,.46.06.79.2.37.2l-1,0h-.52a1.18,1.18,0,0,0-.47.09A2.14,2.14,0,0,1,97.5,1c-1-.18.37-.43-1.44-.28-1.1-.12-.24-.32.2-.41a17.51,17.51,0,0,1-4-.19l.86-.1a9.34,9.34,0,0,1-1.37.05l.49.24c-.51,0-.94,0-.93-.14-.52.16.4.4-.64.61C90,.64,88.6.89,88.36.57c2.14.11-.23-.31,1.57-.36a7.89,7.89,0,0,1-1.28,0c-.08,0,.07-.07.21-.08-2-.28-.94.35-3.06.35.27-.18-.49-.34-.83-.3.85,0,.41.29-.38.43a9.7,9.7,0,0,0-2.18.09l.81.06a6,6,0,0,1-1.9.21c-.08-.14.86-.09.52-.16-1,.32-2.37-.32-3.84-.11-.68-.12-.06-.33-.66-.41C75.7.51,75.56,0,73.84.22c.49.24.58.18-.64.42L76,.47,74.22.82c.86,0,1.81-.15,2.32-.11-.87.19-.78.13-.37.33-1.17-.36-2.32.21-3.68,0l.05-.59c-2-.27-3.62.3-6.27.15l.85.1c-.35.24-1.63,0-2.48.13.07-.2-.46-.27-.83-.39,0,.15-1.93,0-2.17.38L60.46.53C58.32.42,58,1.09,56,1c.62-.21-.31-.35,1.06-.5-.69,0-1.3,0-1.31.1-.4-.13-1.9.26-2.53.07A2,2,0,0,1,52,1c-.09,0,0-.1,0-.1s-1.21.14-.53.35c-2.11-.61-5.9.05-7.74-.48-1.5.07-3.3.13-4.66.14.09-.05,0-.09.27-.07-1.88-.19-1.16.56-3.29.36C35,.85,37.23,1,36.55.88c-.3-.65-2.58.08-4-.3l.35,0c-1.1-.22-2.68.24-4.47.2,0,0,.09-.06,0-.1a32.15,32.15,0,0,1-5.26.53c.53-.25.78-.13.45-.39-.77,0,.23.41-1.31.49-.5-.14-1.62-.27-1.76-.54L22,.72c-.74-.35-1.88,0-2.65,0l.1-.15c-2.23,0-2.26.44-4.65.41l.24.12c-1.31.39-1.09-.22-2.4.07l-.4-.39c-.86.09-3,.38-4.57.45A31.7,31.7,0,0,1,11.48.57,16.5,16.5,0,0,0,8.13.79,4.22,4.22,0,0,1,9.25.72a14.73,14.73,0,0,1-4.14.45c.1-.25-.34-.35-1-.41l-.56,0H2.77L.82.69a10.32,10.32,0,0,1-.3,3c.28,3-.12,6-.08,9.5.6-1.25,0,1,.63.81a4.5,4.5,0,0,1,0,1.21L.69,17.68C.52,18.27.56,16.9.42,17c0,1.8-.26.76-.42,1.94.22-.24.31.63.23,1.65l.28-1.44C.84,21.63,0,21.29.32,23.81L.13,23c.11,1.3,0,4.78.49,6-.07.23-.24.54-.29,0-.07,3.09.53,6.89.22,9.3L.4,38.09a4.59,4.59,0,0,1,.13,1.73c-.06,0-.14-.23-.15,0a10,10,0,0,1,.17,2.3L.38,41.5c-.19,3,.41,4.64.52,7.17-.44,0-.59,2.37-.66,3.56l-.06,0c-.06,3.52.36,6,.54,9.23-.48,2-.2,6.85-.47,10.1.08-.49.34.08.39.66-.09.76.3,2.11-.1,2V73.9c-.4.57-.3,2.14-.31,3.36l.53.21c-.77,3.2.28,8.38-.4,10.13.13.77.13,1.73.26,2.5l-.28,0C.27,92.2.24,93.26.3,95.91l-.2-.54c0,1.49.82,1.88.84,3.26l-.43.42c0,1.2,0,2.4-.07,3.61l3.87.09A18.47,18.47,0,0,0,7,102.57c0,.06-.12.19-.54.2,1.22,0,4.74.29,4.29-.29,0,.38,2.69,0,4.1-.13l-.22.28a8.27,8.27,0,0,1,2.88-.55c.39,0,.34.22-.18.15,1.31.15,1-.26,2.61-.12l-.59.18a4.15,4.15,0,0,0,2-.28,5.85,5.85,0,0,1,2.75.32,3,3,0,0,1,1.71-.28c.11.09-.18.15-.32.18,2.25.19,3.34-.32,4.89,0a.31.31,0,0,0,.26.16c-1.79,0-3.23,0-3.09,0,0,.26,1.44.3.29.66a20.37,20.37,0,0,1,4.56-.49l.18.08-.14,0a3.25,3.25,0,0,0,.89,0c.45,0,.73.08,1.16.08a8.13,8.13,0,0,0,2.38.12c-.06-.28.88-.23,0-.46.11,0-.14,0-.61,0a2.32,2.32,0,0,0-.31,0l0,0H34.18a4.16,4.16,0,0,1,2-.1c.37-.18.77-.37,1-.46,1,.4,2.89.61,3.15.85,2.2-.16,5.19-.1,6.57-.63a1.3,1.3,0,0,1,1,.23c-.36.06-.79,0-1,.12,1.25-.13,3.7,0,4-.42,1.58.17-.89.34,1.28.28l-.29.11c4.26.59,6.92-.94,11.65-.18a1.45,1.45,0,0,1-.56-.13c5.39.33,11.1-.31,16.41.22a6.47,6.47,0,0,0,2.6-.31l.33.3,1.57-.35c2.24-.25,3.87.74,6.7.26l-.36-.2c1,0,3.22-.12,3,.11a1,1,0,0,1,.73-.11l0,.16,2.49-.27c1.94.12-.3.63,2.53.66,1.05-.06,3-.46,2.59-.57s-1.08-.09-1.11-.25l1-.09c.17-.46.91-.94-1.45-1.26l-1.64.28-.53-.22,1.38,0a3.22,3.22,0,0,0-1.83.11,1.31,1.31,0,0,0-.69-.25l-1.62.44c-.19-.18.73-.36-.35-.46-.76.21.72.41-.53.54-.79-.21-.56-.38-1.48-.2-.13-.12.07-.2.43-.25a15.29,15.29,0,0,0-2.59.31c-.82-.26-2.78.07-2.69-.37a10.25,10.25,0,0,1-2.2.36c1.37-.53-2.83,0-2.46-.59-1,.47-3.68.21-5.49.47a.92.92,0,0,1,.46-.09,13.18,13.18,0,0,1-2-.27c-.13.39-1.71.48-2.56.72-1.25-.38.75-.46.36-.82.06.31-2.16.31-1.74.58-.95-.24-.82-.11-1.31-.44-.17.49-.89.08-1.68.38-1.38-.24-.35-.45-1.87-.31C66.66,100.06,68,99.89,68,99.89Zm-36,.85h.74Zm-3,0h1.31c.11.1,0,.2-.31.2C30.13,100.88,29.41,100.82,29,100.74Zm6.4,2c-.48,0-.64,0-.7-.07l.84,0,0,0A.43.43,0,0,1,35.36,102.69Z"/><path class="cls-1" d="M36.23,102.32l.19,0-.28-.06-.17.09Z"/><path class="cls-1" d="M102,41.29v-.07a.39.39,0,0,1,0,.14S102,41.31,102,41.29Z"/><polygon class="cls-1" points="2.9 87.03 2.83 87.03 2.89 87.3 2.9 87.03"/><path class="cls-1" d="M101.07,58a.54.54,0,0,0-.07.22A.77.77,0,0,0,101.07,58Z"/><path class="cls-1" d="M101,65.16l-.1,1C101,65.74,101,65.42,101,65.16Z"/><path class="cls-1" d="M100.87,70.7a.36.36,0,0,0,.12.11h0Z"/><path class="cls-1" d="M82.79,2.57h-.22C82.07,2.63,82.41,2.61,82.79,2.57Z"/><path class="cls-1" d="M101.2,8.86a7.74,7.74,0,0,1-.14-.84C101,8.48,101,8.84,101.2,8.86Z"/><path class="cls-1" d="M53.53,2.9h0Z"/><path class="cls-1" d="M101.07,6.8a5,5,0,0,0,0,1.22A8.29,8.29,0,0,0,101.07,6.8Z"/><path class="cls-1" d="M100.74,94.7V95s0,0,0,0Z"/><path class="cls-1" d="M100.77,95l0,.29C100.81,95.16,100.81,95,100.77,95Z"/><path class="cls-1" d="M100.88,95.92l-.07-.63A1.52,1.52,0,0,0,100.88,95.92Z"/><path class="cls-1" d="M100.87,87.37l-.1-.09A.13.13,0,0,0,100.87,87.37Z"/><path class="cls-1" d="M100.84,85.14a13.63,13.63,0,0,0-.15,2.07l.08.07C100.62,86.94,101,85.65,100.84,85.14Z"/><path class="cls-1" d="M102.1,75.84,102,77.71c.11-.33.25-.76.28.09C102.62,75.45,102.06,78.29,102.1,75.84Z"/><path class="cls-1" d="M102.26,70.05c0,1,.16,0,.22,0C102.38,69.46,102.35,69.31,102.26,70.05Z"/><path class="cls-1" d="M102.26,28.23l.26.1C102.48,27.56,102.42,28.32,102.26,28.23Z"/><polygon class="cls-1" points="100.94 20.23 100.78 20.98 101.01 21.34 100.94 20.23"/><polygon class="cls-1" points="102.76 15.51 102.8 15.85 102.7 14.56 102.76 15.51"/><path class="cls-1" d="M45.39.44l.24.31C46.15.69,46.26.34,45.39.44Z"/><path class="cls-1" d="M15.07.76A3.09,3.09,0,0,0,13.36.65C14,.67,14.72.8,15.07.76Z"/><polygon class="cls-1" points="0.37 78.99 0.27 78.38 0.36 79.53 0.37 78.99"/><path class="cls-1" d="M55.85,54.44l-.53.14c-.32-.72,0-.9-.61-.87,1.14.73-.62,1.36.52,2.08l-.37.08c0-.06,0-.11,0-.16-.8.09.67.8.19,1.25-.2.14-.45.17-.51,0l0,.59c-.1.11-.28,0-.19-.14-.09.22-.2.49-.26.67l0,0a2.59,2.59,0,0,1,.44.59c-.21,0-.09-.14-.24-.21a2.83,2.83,0,0,1,.14.41c-.3-.17-.47-.56-.38-.62-.58-.34-.51-.3-.42-.14s.2.41-.13.2L53.49,58c-.56-.56-.4-.29-.7-.73a4,4,0,0,0,.48.66,2.61,2.61,0,0,1,.51.72c-.1,0-.15,0-.05.33-.27-.49-.24-.3-.29-.17l-.31-.73c0,.27.21.65.3,1.07-.11.06-.31-.58-.47-1.13,0,0,0,.23.12.53a1.85,1.85,0,0,1,.16.8c-.17-.19-.13.26-.21,1.17a6.38,6.38,0,0,1-.1-1v1a2.12,2.12,0,0,1,0-.44,14,14,0,0,1,0,1.71c0,.61-.07.41-.13.1-.09-.69-.13-1.46-.25-.77,0-.38.06-.68.08-1.15a5.89,5.89,0,0,1-.21.59c-.06.13-.11.32-.29.72,0-.31,0-.61,0-.89a2.52,2.52,0,0,1-.16,1,2.39,2.39,0,0,1-.54.82c0,.42,0,.8,0,1a2.9,2.9,0,0,1-.48-.14,1.53,1.53,0,0,1,.29-.68l-.12.09a2,2,0,0,1,.42-1.18l-.06.68a5.27,5.27,0,0,0,.54-1.45c0,.08-.08.13-.13.12a1.61,1.61,0,0,0,.12-.33c0-.1-.06.06-.15.22l.24-1-.12.35a8.42,8.42,0,0,1,0-.87c-.48.59-1.34,1.21-2,.61.5-.17.67-.55,1.15-.94-.21.28-.09.35.06.35s.35-.06.37.11c0-.18.18-.41.26-.48a1.66,1.66,0,0,1-.62.11c.38-.35.23-.35.35-.57-.75.7-.68.15-1.16-.07.27-.2.64-.25.73.08.47-.7-1.29.09-.95-.6.06.08,0,.16.21.11-.38-.06-.46-.68-.14-.71l0,.09c-.23-.64-1-1.78-1.78-1.44a10.59,10.59,0,0,1,1.09-.48l-3.05.39c.68-.27,2-1.49,2.6-1.22a.53.53,0,0,0-.07-.37.54.54,0,0,0-.3-.21c0,.14-.77.76-.91.66.5-.76.24-.46.58-1.24,0,.22-1.13.63-1.22.39a9.61,9.61,0,0,1,1.11-.56H46.9c.26,0,.84-.45,1-.73-.16.17-.26-.49-.44-.59l-.09.37c-.21-.71-1.71.17-2-.48.24,0,1.33-.53,1.27-.92-.57.14-2.74.74-3.44.41l.22-.27-.56-.23a21.14,21.14,0,0,1,3.72-.3c.09-.36.3-.26.07-.59.2-.28.51,0,.59.05l-.3-.92c-.56.37-.94-.29-1.4,0l1.11.54c-.56.37-1.94.44-2.17-.2.15-.28,1.09-.49,1.28-.61-.24,0-.7-.33-.59-.47l.45.07c0-.45-1.06-.08-.73-.79,0-.16.51-.84.15-.66a10.84,10.84,0,0,1-3.12,2,5.82,5.82,0,0,1,.46-1.41c.39-.52,1.42-.39,1.76-.83a1.13,1.13,0,0,1-.52.06c.06-.22.52-.23.28-.49-.62.29-.31-.65-.58.14-.34-.2-.06-.39-.29-.72a2.32,2.32,0,0,1-.88.31,2.25,2.25,0,0,1-.93-.08,1.41,1.41,0,0,0,.39-.34c-.29-.63-.24-1.15-.53-1.68.11-.12.17-.42.5-.44-.15,0-.4,0-.5-.13.43-.42.26.27.83-.16-.38.13-.71-.13-1.09-.3-.61.16.18.54.51.62a2.68,2.68,0,0,1-2.77-.59c-.59-.63.46-.29.27-.39-.22-.54-.8-.8-1.32-1.1s-1-.61-.9-1.05c.5-.19,1.45.4,1.93.45.5.47-.09.54.12.86a1.57,1.57,0,0,1,.12-.3c.31.18.62.45.51.58.22-.11,0-.46-.17-.87s-.47-.88-.31-1a4.26,4.26,0,0,0-1-.65l.25.28c-.54-.06-1.2-.89-1.33-.71-.68-.57-1.74-1.47-1.66-1.81l.54.27.53.28-.23-.1c-.18,0-.18.11.13.37-.26-.21-.11-.25,0-.28.54.16,1,.31.44-.14l-1.12-.42c-.08-.31-.39-1,.55-.77-1.14-.61,0,.07-1.55-.64,1.73.88-1.84,0,.32.89a7.53,7.53,0,0,0-1.37-.51c-.06.13.1.39-.4.38.32.16.52.13.65.56l.35.26v0h0c.06,0,.07.06,0,0a.34.34,0,0,1,.18,0,.33.33,0,0,1,.17,0,20.18,20.18,0,0,1,1.76,1.7c0,.2-.41-.26-.65-.25l.74.57c-.65-.24-.65.37-1.43-.47l.34.63c-.14.27.06.81.49,1.19.06.3,1.07.87.48.54L37,42h-.13a9.92,9.92,0,0,0,1.12,1.46,2.46,2.46,0,0,1,.48.79,2.55,2.55,0,0,1,.14.91c.16.17.25.21.35.32a.88.88,0,0,1,.22.44l-.3.26c.27.19.11,1,.52.87-.74.81.52,1.37.62,1.92l.45-.24a2.36,2.36,0,0,0,.85.84l.37-.25c.5.15.22,1,.56,1.53-.17,0-.21-.11-.17-.26-.51,1.14,1.39,1,1.09,1.91.22.06.23.19.19.35l0,0h0a.09.09,0,0,0,0,.06c0,.11-.07.21-.09.32a.92.92,0,0,0,.11-.29,1.16,1.16,0,0,0,.4.36l-.37.31,0,0c-.06.25.27,0,.53-.25a1.22,1.22,0,0,0,.38.07c-.6.52.47.3-.14.89.41-.09.73.67,1.51.33-.09.06-.11.14-.17.05,0,.23,0,.46.34.51l-.48.38h.94c-.18.42-.31.63-.85.63,1,.22.5.33,1.4.47l-.36.17c.12.17.74.19.52.46s0,.88.35,1.46A7,7,0,0,1,48.18,61c.37-.52.36-.27.36.06s0,.75.35.42c-.14.3-.12.66-.43.59a2.47,2.47,0,0,1,.56,1c.13.32.29.57.65.43-.09.4-.31.27-.35.52.07,0,.27,0,.24.28s-.18.14-.33.13c.56.88,1-.09,1.34-1,0,.82.2,1,.51.49,0,.48,0,1.1-.27.77.11.28.84,2.23,1,1.18,0,.35.19.44.24.37a6.42,6.42,0,0,0,.65,1.21l-.08-.35c0-.46.09-.59.14-.55.08-.22.19,0,.34-.34v.16c.3,0,.37-.22.42-.42s.09-.36.44-.35l-.14-.71c-.09-.88,0-.81.26-.71s.51.19.6-.36a1.84,1.84,0,0,1-.22-.17c0-.39.26-.1.57.18s.67.59.82.47,0,.29,0,.49c.9-.35-.22-.86.1-1.71.26.21.36,1.08.7.62.16,0,.22-.67.31-1.27s.2-1.17.64-1.29c-.29,0-.56-.07-.53-.5.08-.24.49-.47.77-.65s.44-.32.17-.67a.39.39,0,0,1,.21,0c0-.36.16-1-.14-1.36,1.56.59.2-2,1.51-1.2l.37-.81.13.1c.37-.44.15-.8-.06-1.15.15-.07.22.09.29.14.67-.57.66-.67.35-1.66l.46.19c-.15-.31,1.27-.65,1.17-1.65a.4.4,0,0,1,.15.19c0-1.09,2.27-1.21.89-2.41L63.18,49c-.51.6-.62-.5-1-.37.06-.32.87-.42.76,0h-.11c.74.6.77-.67,1.31-.33a11.16,11.16,0,0,1,1.32-1.86l.71-.88a4.59,4.59,0,0,0,.36-.48l.45-.71c-.27,0-.54,0-.8-.07l.38-.58c.26-.11.7-.08.4.39.55-.14.1-.88-.07-.9.4-.39.59-.3.68-.1s.08.5.18.35l.17-.42-.14.08c-.13-.36-.47-.41-.13-.94.37-.34.63-.19.74-.33s.12,0,.16-.22l.56-.87-.92.45c-.16-.29.45-.72-.59-.22a4.27,4.27,0,0,0,1.74-1.83,7.16,7.16,0,0,1,1-1.6c-.23-.07-.26-.24-.14-.49a4.42,4.42,0,0,1-.73,0,2.38,2.38,0,0,1-1.34.69c2.21-1.34-.07-.58.65-1.54-.36.64-1.93.16-2.22,1.06-.34-.1.5-.5.44-.81a3.69,3.69,0,0,1-2,0,7,7,0,0,0-2.14-.21c-.06.18.1.45-.26.71a6.18,6.18,0,0,0-.64-.88c-.17,0-.25.3-.36.47s-.24.24-.41-.06c.06.14.13.37,0,.42-2-.85-4,.71-6.06-.9.27.34.09.37-.12.38.14.08,0,.44,0,.68l-.85-.67c-.15.66-.9.05-1,.68L53.4,37c-.35.74.5,1.66.45,2.61.39-.84,1,1.26,1.69.05.15.19-.12.3,0,.53.16-.41.36-.5.73-.31l0,.1c1-.1,1.48.3,2.65.57l-.09-.47c.25.06.31.21.42.33.29-.72-.7,0-.44-.83.34,1,1.77,0,2,1.11.38,0-.12-.55.27-.55l.1.3.1-.38c.24.06.21.43.21.68,0,0-.07.07-.09.09.08.35.34-.11.37,0a.64.64,0,0,0-.1-.18,1.59,1.59,0,0,1,.77-.13,2.47,2.47,0,0,0,1.12-.36l.19-.23c.94-.41.08.25.79.06l-.09,0a1.83,1.83,0,0,1,.84-.31c-.52.26-.58.51-1.2.8l.67-.28c.25-.06.5-.27,1.36-.56l-.65.4c.48-.17.76-.3.74-.08-.37,0-1,.56-1.5.65-.75.49-.5.46-.35.52s.23.14-.62.43c1.25-.13,1-.61,1.24-.58.55-.29.95-.12.68.14s-1.9.69-2,.94c0,0-.07,0-.05,0-.36.1.27.23-.28.35.62.16-.14.16.66.35,0-.14,0-.27,0-.39.06.11.3.24.43.43s.13.4-.2.54a2.5,2.5,0,0,1-.34-.39c-.28,0,0,.26-.25.27-.35-.18-.34-.28-.3-.4s.13-.25-.15-.37.41.43-.4.13c.51.2.42.28.32.34s-.12,0-.13.11,0,.13.14.36l-.39-.26c0,.1.14.35.06.47L62.3,43c.25.6-.78.43-.72.9.38-.69.58.13,1.05,0,0,1.16-1.35-.14-1.7.93,0-.16.52-.34.59,0a1.3,1.3,0,0,1-.75.27c-.28.68.47.15.57.56-.62-.07,0,.43,0,.8L61,46.25c-.68.56.75.69.06,1.15l-.42-.61,0,.43-.44-.34c.14.57,0,.63-.35.91.34.09.72.49.55.81-.37.08-.32-.35-.52.14-.2-.26-.46-.56,0-.53-.12-.1-.2-.25-.32-.35-.42.07-.4.55-.49.71a.37.37,0,0,1,.2-.12l.2,1c-.22,0-.3-.14-.37-.29,0,.16.1.36,0,.58-.31-.25-.67-.44-.67-.81l0,.84c-.17,0-.59.09-.66-.06-.4.23.16,1.22-.36,1.53a.54.54,0,0,1,.07.13.33.33,0,0,1,0,.14c-.32.39-.95.53-.79,1.31l-.77-.06c-.09.48,1,0,.84.85-.08.58-.62-.13-.88-.06.17.41.55,1.18-.19,1.33C55.66,54.66,55.82,54.6,55.85,54.44Zm-2.07,4.23c0-.14-.2-.47,0-.26C54.14,58.9,53.92,58.74,53.78,58.67Zm-2.41,1.79c.1-.13.11,0,.08.35-.05,0-.09-.12-.08-.35ZM35.74,39.89l0,0C35.73,40.19,35.76,40.09,35.74,39.89Zm-.11-.61a.5.5,0,0,0-.31-.14,1,1,0,0,1,.23.18.85.85,0,0,1,.13.25c.15,0,.22,0,0-.29Zm32.56,2.48-.23.13C68,41.62,68.07,41.69,68.19,41.76Z"/></g></g></svg>