<svg xmlns="http://www.w3.org/2000/svg" viewBox="0 0 200 200"><defs><style>.cls-1{fill:#fff;}</style></defs><g id="Layer_2" data-name="Layer 2"><g id="Layer_1-2" data-name="Layer 1"><rect x="1.6" y="1.47" width="197.24" height="197.08"/><path class="cls-1" d="M198.18,198.55c.09.41.28.18.24-1l-.33-.82Z"/><path class="cls-1" d="M198.79,190.86c-.16-1.35-.44-2.9-.74-2,.31,1.33.18,1.66.56,3.09,0,1.14-.11,2-.23,1.8a17.69,17.69,0,0,0,.13,2.4,20.07,20.07,0,0,0,.06-5.35C198.64,190.35,198.73,190.76,198.79,190.86Z"/><path class="cls-1" d="M199.29,79.06l0,.72Q199.29,79.48,199.29,79.06Z"/><path class="cls-1" d="M199.47,9.79a2.47,2.47,0,0,0,.07.78C199.52,10.08,199.5,9.67,199.47,9.79Z"/><path class="cls-1" d="M195.33.47l.7,0A3.42,3.42,0,0,0,195.33.47Z"/><path class="cls-1" d="M199.29,79.06l.11-1.85C199.29,77.08,199.32,78.16,199.29,79.06Z"/><path class="cls-1" d="M198,175.44a8.82,8.82,0,0,0,.08,1l0-.94Z"/><path class="cls-1" d="M199.56,109.59v.57c0,.16.08.32.13.46Z"/><path class="cls-1" d="M199.61,133a1.34,1.34,0,0,0-.39-.92,3.64,3.64,0,0,1,.19,1.16C199.47,133.28,199.53,133.21,199.61,133Z"/><path class="cls-1" d="M199.12,170.19l0,.66C199.15,170.67,199.13,170.39,199.12,170.19Z"/><path class="cls-1" d="M199.62,92.82a.46.46,0,0,0,.1-.21S199.65,92.69,199.62,92.82Z"/><path class="cls-1" d="M171.65,197.25s0,0,0,.05S171.83,197.25,171.65,197.25Z"/><path class="cls-1" d="M198.84,198.62l-.38,0a.28.28,0,0,0-.08.15Z"/><path class="cls-1" d="M173.67.11h.1C174.34.09,174,.09,173.67.11Z"/><path class="cls-1" d="M.45,28.22c.25-2.25.32,3.66.59.27C.93,28.81.61,25.41.45,28.22Z"/><path class="cls-1" d="M198,174.83v-1C198,174.31,198,174.6,198,174.83Z"/><path class="cls-1" d="M1,28.49H1l0-.35Z"/><path class="cls-1" d="M123.76.28a2.26,2.26,0,0,0,.51.12S124.14.34,123.76.28Z"/><path class="cls-1" d="M161,.68l-.92,0Z"/><path class="cls-1" d="M104.46.67a9.61,9.61,0,0,0-1.35,0l.2,0A5.81,5.81,0,0,1,104.46.67Z"/><path class="cls-1" d="M84.37.67l.37.06h.63Z"/><path class="cls-1" d="M110.59,197.38a4.88,4.88,0,0,1,.92.25C111.2,197.43,114.15,197.36,110.59,197.38Z"/><path class="cls-1" d="M198.15,175.43a1.4,1.4,0,0,1-.12-.6l0,.67C198.09,175.56,198.13,175.57,198.15,175.43Z"/><path class="cls-1" d="M103.64,2.86l-3.19,0C101.34,2.84,102.5,2.86,103.64,2.86Z"/><path class="cls-1" d="M2.72,163.41l0,.73A4,4,0,0,0,2.72,163.41Z"/><path class="cls-1" d="M91,2.86a14.6,14.6,0,0,0-1.8-.19,2.45,2.45,0,0,0-.37.07Z"/><path class="cls-1" d="M111.52,197.63h0Z"/><path class="cls-1" d="M132.55,197c-3,0-1.43.35-2.08.56-3.63.1-1.68-.27-2.91-.45-2.27.09-4,.43-5.7.41-.12-.06-.45-.08-.07-.15-2.4.29-7.11,0-9.91.37a1.16,1.16,0,0,1-.36-.09c.45.19.52.37.43.5a12.42,12.42,0,0,1-3,0,3.93,3.93,0,0,0,1.3-.17l-1.43.11c-1.28-.35,2-.12,2-.38-2.78.12-6,.4-8.17.3-.44-.33,5-.11,2.15-.41l3.3.13c-2.52-.53,2,0-.31-.53-4.35-.1-4.86.17-9.2.07-1,.19.32.28-.65.47-6.17.33-4.86-.85-9.39-.4a11.57,11.57,0,0,1-4.85.42l1.1-.38c-4.21,0-2.41.55-6.81.29.78-.15,3.3-.12,2.67-.17-2.86-.3-2,.22-4.22.22l-.45-.34c-4.48,0-9.42.3-14.38.36.27-.1,1.12-.21,0-.31-6.26.17-13.36,0-19.4-.24l-2.31.29c-.53,0-1-.13-.41-.19-2.35-.11-.12.19-1.25.3-1.34,0-1.77-.17-.92-.25a158.52,158.52,0,0,1-16.21.22l.86-.09c-3.41-.12-3.85.59-7,.32l.61-.05c-2.29,0-4.65,0-7,0h-6c0-1.05,0-2.06.07-3,0-1.24.1-2.41.18-3.48-.42-1.07.19-7.31-.4-7.79.29-4.22.4-3,.59-8.95,0-1.59-.36-2.37-.42-4.33l.3-.05-.32-2.66L2.84,166l-.08-1.84c0,.74-.14,1.56-.23,1.45a35.22,35.22,0,0,1,.37-7.08l-.26-6.8a11.29,11.29,0,0,1,.25,2.19c-.31-3.63.32-.66,0-4-.07.44-.18-.24-.24-.32.18-1.66.18-5.43.11-8.22l.21.53c0-5-.1-10.63-.1-16.29-.1,2-.46,1.56-.5-.1l.33-.66c-.2-1.07-.13,1.73-.37-.47,0-2.11.37-1.42.47-.21l-.11-2.57c.1-.15.15.46.27.61-.2-1,.32-4.43,0-6l.1-.14c0-5.66-.11-8.23-.12-12.84-.28-.09-.22-1.89-.44-3.26.08-3.39.3-7.15.28-11.23-.14-2.87-.24-.84-.4-2.13.25-.21.23-4.29.41-2.17,0-4.9,0-6.26-.26-12.45-.1.67-.14,1.43-.23,1a5.84,5.84,0,0,1,.23-2.39l0,.29c-.38-7,.74-16,.21-21.58l0,.31L2.51,44c.05-2.64.19,1.59.35-.37-.42-6.19.06-9.78-.22-14.88.75-3.95-.05-14,.42-19.35l-.17.31A10.42,10.42,0,0,1,3,7c-.14.14-.16,1.49-.25.64,0-1.65,0-3.33-.06-5L9,2.64l7.5.13,15,.29c4.37,0,2.48-.91,8-.49L38,2.9c8.84-.39,18.07,0,26.73-.32a5.72,5.72,0,0,1-1.38.17,31,31,0,0,0,6.79-.18c1.35,0,.31.17,1.14.27,1.83.14,4.6-.3,5.58-.07.16,0-.52.08-.85.1,1.19-.11,5.56,0,4.42-.24,3.24.13,6.21-.13,8.8,0,1.69-.31,5.56.14,6.09-.29-.23.45,5.69.36,7.75.15-.69.14,1.78.14,1,.33,2.34,0,4.49-.09,4.08-.32,4.32.53,8.68-.43,11.11.25,7-.24,13.4-.4,19.66-.5-.23.44-6.92,0-6.66.51,5.94-.18,9.37-.57,15.26-.46,1.52.06-.87.19-1.38.27,5.93-.18,11.47,0,16.75-.2a5.6,5.6,0,0,1-1.12.12c1,0,2.42.06,2.3-.14l-1,.06c-1.66-.3,4.13-.62,4.31-.77-1.76.58,5.22.15,2.41.88.69,0,1.55-.14,1.39-.27,1,0,1.34.12.31.27,3.73-.11,2.4-.32,5.78-.32,0,.1-.69.14-1,.25a39.91,39.91,0,0,1,6.28-.3c-.17.06.16.14-.69.14,4.9,0,8.35-.51,13.73-.33-.8.21-.34.25.35.28s1.71.05,1.54.23l.48,0,.06.64c.06-.21.12-.38.18-.63,0,.17,0,.33,0,.49l0,.82c0,.6,0,1.19.07,1.76a31.15,31.15,0,0,1,0,3.34L198.07,7l.07,4.74.14-2.68c.19,2.56.47-.28.36,3.09,0-.68,0,2.53-.22,3.85h0a27.84,27.84,0,0,1,.15,4.41c-.12.49-.41-.39-.49-.07.31,1.23.09,5.92.42,7.49-.08-.52-.27-.55-.31-.38l.25,1c-.08,1.17-.12,1.34-.27,1.15,0,3.53.46-1.12.26,3.07a8.55,8.55,0,0,1-.09-.86c-.11,4.2.15,8.12,0,12-.37,1.14-.09-3.37-.4-2.07.06,5.57.44,11.53.35,16.92l.05-1c.52.74-.26,4,0,6.74,0-.67-.29-.88-.23-.7-.08,3.69.13,7.55.29,13.14l-.13-.7c-.12,2.18-.07,5.73-.13,8.08.13.7.11,2,.31,1.23-.77,7.24.41,13.81-.23,20.24,0-.77-.12-1.83-.12-1.22l.13,5.47a7.06,7.06,0,0,0,.31-1.87,23.24,23.24,0,0,1,.24,3.6c-.15-2.46-.36,0-.49,1.08.07-.17.15.19.22.1-.41,2.86.45.48.18,4.38l-.12-.2c.06,1.46.22,2.8.19,4.38-.27.65-.13-1.56-.34-1.66,0,2.22.5,4.37.23,6.37-.07-.94-.07-2.29-.14-3.23a24.76,24.76,0,0,0-.28,4.06v-.16l-.14,3.75.09-1c.68,2.77.12,5.64.57,9.37-.42-3.62-.24-.6-.54-.88-.09,1-.18,2.41-.26,2,.24,1.77-.19,3,.16,5.43-.1.12,0,1.89-.25,1.49.07,2.3.17-.54.29-.35.33,3.54-.4,8.31.05,13.39.19,4.39.51,5.2.67,9.27-.15,1.37-.35-1.13-.35-1.13a45.73,45.73,0,0,0,0,6c-.09-.42-.16,0-.27.65,0,1.67.35,1.12.21,3.33a9.88,9.88,0,0,1-.39-1.68c.09,2,.27,3.93.36,6-.17.54-.26-1.23-.36-1.95a50.22,50.22,0,0,0,.41,6.66l.1-1.48c0,.84-.23.43-.28-.18a5.44,5.44,0,0,1,.19-3l.06,1.45c.57-1.49-.09-5.84-.06-8.77l.41,1.22-.34-3c.11-.63.34-1.07.4.37.2-2.1-.15-1.85.08-3.66,0-.2.06-.11.07.08l-.12-2.05c.09.4.29-.35.23.91.24-3.68-.31-5.93,0-7.32l0,.31c-.14-5.11-.3-.5-.66-4.33l.75-2.58-.3-.5c0-.53,0-1.57.15-1.38-.21-2-.13.34-.33-.8.28-2.54-.12-7,.36-7.57-.23-.91-.18,2.43-.34-.28.52-.78-.09-3.13.15-5.45.26.71.12,2.91.36.59-.45-1.4.1-4.52,0-6.47-.36-.09-.15-4.25-.27-7.53.12.2.2-6.18.33-9.23l.06.09c-.36-.59-.29-3.74-.37-6,.22.09.3.5.4,1.74v-2.15a13.49,13.49,0,0,1-.22-2.58l.27.54c0-2.87-.32-5.78-.14-9.47-.25-.2-.7,2.94-.87-1,.14-.15.37-.29.43.73a12.62,12.62,0,0,1-.06-1.87l.23,1.56c.1-1.68-.19-.88-.17-2.22.2,0,.14-1,.3-.8a15.34,15.34,0,0,0,0,1.68,28.61,28.61,0,0,1,.3-4c-.11.13-.26,0-.29-1.11,0-2.87.24-1,.34-2.65-.14-.7,0-2.53-.29-2.57a3.38,3.38,0,0,1,.22-1.32c-.13-1.49,0-6.94-.35-5.26l0,.38c0-.07,0-.16,0-.25v0c-.29-4.86.16-10.1,0-14.93h.09c-.11-2.89-.06-6.42-.27-8.48,0-.85.18-2,.29-1.64a44.55,44.55,0,0,1,0-5.63c.17,2.21.15-.77.13,2.27a41.52,41.52,0,0,0,0-6.59c.25,1.05.31-2.15.24-3.51l-.18,2c0-1.53,0-2.87,0-4.22l.33.73c.39-5.86-.68-10.56,0-15-.23-1.55-.16,3.18-.43,1.79,0-2.69.52-5.5.52-6.34.18-3.69-.48-3.44-.35-7.31-.12.5-.43,1-.54-1.92,0-2.7.49-3.32.58-1.61,0,.64,0,.95-.07.93.05.87.1,2,.22.94l-.11-.35c.12-1.33.1-5,.3-4.17-.12-2-.2-.87-.26.63.06-1.21.08-2.24.08-3.22V.54h-2.09L196,.49c.57.07,1.09.2.53.2-5.23-.14-2.3.22-5.84.28-2-.18.72-.43-2.85-.28-2.17-.12-.46-.31.41-.41a65.88,65.88,0,0,1-7.93-.19L182.07,0c-1,.06-1.87.05-2.72.05l1,.24a6.84,6.84,0,0,1-1.84-.14c-1,.15.79.39-1.26.6-1.34-.12-4.08.12-4.54-.19,4.21.11-.46-.31,3.1-.36-.69,0-1.53,0-2.53,0-.15,0,.14-.07.41-.09-4-.27-1.85.36-6,.35.53-.18-1-.33-1.65-.3,1.68,0,.8.3-.74.43A37.61,37.61,0,0,0,161,.68l1.6.06A23.89,23.89,0,0,1,158.8,1c-.16-.14,1.69-.1,1-.16-2.07.31-4.69-.32-7.57-.11-1.34-.12-.13-.33-1.31-.41C147.71.5,147.44,0,144,.22c1,.24,1.15.18-1.25.41l5.6-.17L144.8.8c1.69,0,3.56-.14,4.57-.1-1.71.19-1.53.13-.72.32-2.31-.35-4.58.21-7.26,0l.09-.58c-4-.26-7.14.3-12.35.15l1.67.1a47.33,47.33,0,0,1-4.91.13c.16-.2-.9-.27-1.62-.39.09.15-3.81,0-4.29.38L117.65.52c-4.21-.1-4.8.56-8.85.49,1.22-.21-.62-.35,2.09-.5a10,10,0,0,0-2.59.1c-.79-.12-3.74.26-5,.07A7.39,7.39,0,0,1,101,1c-.17,0,0-.1,0-.1s-2.38.13-1,.35C95.83.6,88.36,1.25,84.74.73c-2.95.07-6.51.13-9.18.14.17-.06,0-.09.51-.07-3.69-.19-2.27.55-6.47.35C67.45.84,71.83,1,70.49.86c-.58-.64-5.07.09-7.9-.28l.68,0c-2.16-.22-5.27.24-8.8.2,0,0,.17-.06,0-.1-2.42.33-7,.43-10.39.52C45.16.91,45.64,1,45,.78c-1.53,0,.44.41-2.6.48-1-.14-3.18-.26-3.47-.53l2.87,0c-1.47-.35-3.71,0-5.23,0l.2-.15c-4.4.05-4.46.44-9.18.41l.49.12c-2.59.38-2.17-.22-4.74.07L22.56.72c-1.71.09-6,.37-9,.45,1.73-.29,5.3-.44,7.51-.61-1.69,0-5.74,0-6.62.22A16.38,16.38,0,0,1,16.64.71a59.23,59.23,0,0,1-8.16.45c.2-.25-.67-.36-2-.41l-2.3,0L.81.68c0,.67,0,1.33,0,2,0,.26,0,.52,0,.76L.72,4a11.15,11.15,0,0,1-.21,1.8C.79,11.73.39,17.58.44,24.51c.58-2.45,0,2,.61,1.6a17.24,17.24,0,0,1,0,2.38L.68,33.38C.51,34.54.55,31.84.42,32c0,3.53-.26,1.48-.42,3.82.22-.48.31,1.23.23,3.24L.5,36.22c.33,4.94-.5,4.27-.18,9.24L.13,43.89c.11,2.55,0,9.42.48,11.93-.07.45-.24,1-.28-.08-.07,6.1.51,13.59.22,18.33L.4,73.61A19.28,19.28,0,0,1,.53,77c-.06-.08-.15-.46-.16.07a38.51,38.51,0,0,1,.17,4.53L.38,80.33c-.19,6,.4,9.14.5,14.13-.43,0-.57,4.67-.64,7l-.06-.08c-.06,6.94.36,11.78.53,18.2-.47,4-.2,13.5-.46,19.91.07-1,.33.16.38,1.29-.09,1.51.3,4.16-.1,3.92v-.53c-.39,1.13-.29,4.22-.3,6.63l.52.4c-.76,6.31.28,16.53-.4,20,.13,1.52.13,3.41.26,4.92L.34,176c-.07,4.22-.11,6.32,0,11.54l-.2-1.07c0,2.95.81,3.72.82,6.43l-.41.82q0,3-.07,6l6.47.08c1.77,0,3.53,0,5.28-.17-.09.06-.24.18-1.07.2,2.42,0,9.35.28,8.47-.29.06.37,5.3,0,8.08-.13l-.44.27a32,32,0,0,1,5.69-.54c.77,0,.68.22-.35.15,2.58.14,2-.26,5.14-.11l-1.17.17a15.49,15.49,0,0,0,3.91-.28,22.09,22.09,0,0,1,5.43.32,11.25,11.25,0,0,1,3.38-.28c.21.09-.36.15-.65.18,4.44.19,6.61-.32,9.66-.05.06.09.26.14.52.16-3.53,0-6.37,0-6.11,0,0,.26,2.85.3.59.65a79.94,79.94,0,0,1,9-.49,2.51,2.51,0,0,1,.37.09l-.29,0a16.58,16.58,0,0,0,1.76,0c.89,0,1.45.07,2.3.07a31,31,0,0,0,4.69.13c-.12-.28,1.74-.23,0-.46.22,0-.27,0-1.21,0-.22,0-.47,0-.61,0l.1,0H65.81a16.52,16.52,0,0,1,3.87-.1c.73-.18,1.53-.36,2-.45,1.94.39,5.69.6,6.21.84,4.34-.16,10.22-.11,13-.63a4.75,4.75,0,0,1,1.88.23c-.71.06-1.56.05-1.95.12,2.47-.13,7.31-.05,7.9-.41,3.11.16-1.75.33,2.53.27l-.58.11c8.4.58,13.66-.92,23-.18a4.46,4.46,0,0,1-1.1-.13c10.62.33,21.89-.31,32.37.22A24.46,24.46,0,0,0,160,199l.65.3,3.11-.34c4.4-.25,7.63.73,13.21.25l-.72-.2c2,0,6.35-.12,6,.11a3.54,3.54,0,0,1,1.44-.1l.06.16,4.92-.27c3.82.11-.59.62,5,.65,2.07-.06,5.89-.46,5.11-.56a6.74,6.74,0,0,1-2.19-.25l1.89-.08c.34-.46,1.8-.93-2.85-1.25l-3.24.28-1-.23h2.72a12.74,12.74,0,0,0-3.62.1,4.19,4.19,0,0,0-1.36-.24l-3.18.44c-.38-.18,1.43-.36-.71-.46-1.49.2,1.43.4-1,.54a7.06,7.06,0,0,0-2.92-.2c-.26-.12.13-.2.85-.25-1.62.14-4.28.06-5.12.31-1.61-.26-5.47.06-5.31-.37a38.26,38.26,0,0,1-4.34.36c2.72-.52-5.56,0-4.84-.59-2,.47-7.27.21-10.83.47a3.41,3.41,0,0,1,.91-.09c-2,0-2.59-.18-3.88-.27-.26.39-3.38.47-5.06.71-2.46-.37,1.49-.45.72-.81.12.31-4.27.31-3.43.57a9.1,9.1,0,0,1-2.59-.43c-.33.48-1.75.08-3.31.38-2.72-.24-.7-.45-3.69-.31C129.89,197.15,132.55,197,132.55,197Zm-71.05.83h0l1.46,0Zm-6,0h2.59c.21.09,0,.19-.62.18A10.61,10.61,0,0,0,55.53,197.82Zm12.63,1.91a3.73,3.73,0,0,1-1.39-.07l1.65,0,.11,0A1,1,0,0,1,68.16,199.73Z"/><path class="cls-1" d="M69.86,199.37l.39,0-.57-.06-.33.09Z"/><path class="cls-1" d="M199.25,79.91v-.13c0,.1,0,.2,0,.26A.86.86,0,0,1,199.25,79.91Z"/><polygon class="cls-1" points="2.86 170.06 2.79 170.06 2.85 170.59 2.86 170.06"/><path class="cls-1" d="M198.3,112.76a1.59,1.59,0,0,0-.07.44A2.51,2.51,0,0,0,198.3,112.76Z"/><path class="cls-1" d="M198.24,127l-.1,2C198.19,128.1,198.22,127.46,198.24,127Z"/><path class="cls-1" d="M198.1,137.87c.05.14.08.18.12.21v0Z"/><path class="cls-1" d="M161.7,2.53h-.42C160.29,2.6,161,2.57,161.7,2.53Z"/><path class="cls-1" d="M198.42,16c0-.55-.1-1.09-.13-1.66C198.27,15.25,198.26,16,198.42,16Z"/><path class="cls-1" d="M104,2.86h0Z"/><path class="cls-1" d="M198.29,11.93a21.26,21.26,0,0,0,0,2.4C198.31,13.58,198.34,12.69,198.29,11.93Z"/><path class="cls-1" d="M198,185.17v.53s0,0,0,.06Z"/><path class="cls-1" d="M198,185.76l0,.58A2.67,2.67,0,0,0,198,185.76Z"/><path class="cls-1" d="M198.11,187.57l-.07-1.23A5.7,5.7,0,0,0,198.11,187.57Z"/><path class="cls-1" d="M198.1,170.72l-.1-.16C198,170.65,198.05,170.71,198.1,170.72Z"/><path class="cls-1" d="M198.07,166.33c0,1-.21,2.63-.15,4.09l.08.14C197.85,169.87,198.24,167.33,198.07,166.33Z"/><path class="cls-1" d="M199.31,148l-.08,3.68c.11-.65.26-1.49.28.18C199.83,147.23,199.27,152.83,199.31,148Z"/><path class="cls-1" d="M199.47,136.6c.05,2,.16,0,.22.08C199.59,135.43,199.56,135.13,199.47,136.6Z"/><path class="cls-1" d="M199.47,54.17l.25.2C199.69,52.84,199.63,54.35,199.47,54.17Z"/><polygon class="cls-1" points="198.17 38.41 198.01 39.89 198.24 40.6 198.17 38.41"/><polygon class="cls-1" points="199.96 29.1 200 29.77 199.91 27.23 199.96 29.1"/><path class="cls-1" d="M87.94.43l.46.31C89.43.68,89.65.34,87.94.43Z"/><path class="cls-1" d="M28.12.75A11.73,11.73,0,0,0,24.75.64C26.1.66,27.44.79,28.12.75Z"/><polygon class="cls-1" points="0.37 154.21 0.27 153 0.35 155.27 0.37 154.21"/></g></g></svg>