<svg xmlns="http://www.w3.org/2000/svg" viewBox="0 0 557.96 103"><defs><style>.cls-1{fill:#474747;}</style></defs><g id="Layer_2" data-name="Layer 2"><g id="Layer_1-2" data-name="Layer 1"><rect class="cls-1" x="1.62" y="1.49" width="555.56" height="100"/><path class="cls-1" d="M556.51,101.49c.08.69.28.3.24-1.6l-.33-1.36Z"/><path class="cls-1" d="M557.12,88.69c-.16-2.23-.44-4.81-.75-3.37.32,2.22.19,2.76.57,5.14,0,1.9-.11,3.32-.23,3,.09.67-.07,3,.14,4a56.54,56.54,0,0,0,0-8.89C557,87.85,557.06,88.53,557.12,88.69Z"/><path class="cls-1" d="M458.45,1l1.19,0Z"/><path class="cls-1" d="M343.24.84a6.51,6.51,0,0,0,1.29-.07A5.78,5.78,0,0,0,343.24.84Z"/><path class="cls-1" d="M323.57.48l1.16,0A7.77,7.77,0,0,0,323.57.48Z"/><path class="cls-1" d="M458.45,1l-3.08-.1A17.88,17.88,0,0,0,458.45,1Z"/><path class="cls-1" d="M556.32,63.05c0,.65,0,1.18.09,1.67,0-.53,0-1,0-1.57C556.36,63.12,556.34,63.1,556.32,63.05Z"/><path class="cls-1" d="M509.23.75h.94c.27,0,.53-.08.77-.13Z"/><path class="cls-1" d="M548.2.7a2.91,2.91,0,0,0-1.52.4A9.67,9.67,0,0,1,548.6.9C548.61.85,548.5.79,548.2.7Z"/><path class="cls-1" d="M557.46,54.32l0,1.09C557.49,55.13,557.47,54.65,557.46,54.32Z"/><path class="cls-1" d="M481.33.69a1.25,1.25,0,0,0-.35-.1S481.12.66,481.33.69Z"/><path class="cls-1" d="M512,100.17s0,0,0,0C512.23,100.19,512.3,100.17,512,100.17Z"/><path class="cls-1" d="M557.17,101.56h-.62c-.07.06-.14.11-.14.16Z"/><path class="cls-1" d="M287.58.12h.16C288.69.09,288.15.1,287.58.12Z"/><path class="cls-1" d="M.45,46c.26-3.74.33,6.09.61.46C1,47,.62,41.31.45,46Z"/><path class="cls-1" d="M556.36,62V60.45C556.35,61.17,556.35,61.66,556.36,62Z"/><path class="cls-1" d="M1.06,46.44h0l0-.59Z"/><path class="cls-1" d="M204.64.29a6.92,6.92,0,0,0,.84.12A2.68,2.68,0,0,0,204.64.29Z"/><path class="cls-1" d="M266.43.69l-1.53,0Z"/><path class="cls-1" d="M172.56.68c-.83,0-1.12-.06-2.25,0l.34,0A16,16,0,0,1,172.56.68Z"/><path class="cls-1" d="M139.16.68l.62.06h1.06Z"/><path class="cls-1" d="M410.51,100.3a11,11,0,0,1,1.55.26C411.54,100.36,416.45,100.28,410.51,100.3Z"/><path class="cls-1" d="M556.48,63a3.35,3.35,0,0,1-.12-1c0,.39,0,.75,0,1.11C556.42,63.25,556.46,63.27,556.48,63Z"/><path class="cls-1" d="M171.2,2.9l-5.31,0Z"/><path class="cls-1" d="M171,100.34l1.22,0A11.2,11.2,0,0,0,171,100.34Z"/><path class="cls-1" d="M150.15,2.9c-1-.1-2-.16-3-.19-.22,0-.47,0-.61.07Z"/><path class="cls-1" d="M412.07,100.56h0Z"/><path class="cls-1" d="M447,99.89c-5.05,0-2.37.36-3.44.57-6,.11-2.8-.27-4.85-.46-3.77.1-6.66.44-9.47.43-.21-.07-.75-.09-.11-.16-4,.29-11.83,0-16.47.38a2.87,2.87,0,0,1-.6-.09c.75.18.86.37.71.51a33.67,33.67,0,0,1-5.06,0,10.66,10.66,0,0,0,2.16-.17l-2.38.11c-2.13-.35,3.24-.12,3.24-.38-4.63.11-10,.4-13.57.3-.74-.34,8.3-.11,3.56-.41l5.49.12c-4.19-.53,3.34,0-.52-.53-7.22-.1-8.08.17-15.28.07-1.63.19.53.28-1.09.47-10.24.34-8.06-.85-15.6-.4a30.68,30.68,0,0,1-8.06.43l1.83-.39c-7,0-4,.56-11.32.3,1.3-.15,5.49-.13,4.44-.17-4.75-.31-3.36.21-7,.21l-.76-.34-23.89.36c.45-.1,1.87-.2-.06-.31-10.41.17-22.21,0-32.24-.24l-3.84.29c-.89,0-1.65-.13-.69-.19-3.91-.11-.2.19-2.08.3-2.22,0-2.94-.16-1.53-.25-6.9.25-19.65.53-26.92.22l1.41-.09c-5.66-.12-6.39.6-11.64.33l1,0c-12.29-.13-25.87.14-35.24-.3-1.78.42-12.16-.19-12.95.4-7-.29-5-.4-14.89-.6-2.64,0-3.93.37-7.2.43l-.08-.3-4.43.32-2.35-.37-3.06.08a7.81,7.81,0,0,1,2.4.23c-2.39.07-5.3,0-7.63-.08a31.07,31.07,0,0,1-4.14-.3l-11.31.26a34.18,34.18,0,0,1,3.64-.24c-6,.31-1.09-.33-6.62,0,.74.07-.41.19-.53.25-2.76-.19-9-.19-13.68-.11l.89-.21c-8.39-.06-17.68.1-27.1.09,3.38.1,2.6.47-.16.51l-1.1-.33c-1.78.2,2.88.12-.78.37-3.51,0-2.36-.37-.34-.48l-4.28.12c-.25-.1.75-.15,1-.28-1.76.21-7.39-.32-9.92,0l-.24-.1L71,100.13c-.15.28-3.15.22-5.44.44-5.63-.09-11.88-.31-18.67-.28-4.77.14-1.39.24-3.54.4-.35-.25-7.13-.23-3.61-.41-8.15,0-10.41,0-20.71.26,1.12.1,2.37.15,1.72.23-1.87,0-4.25-.1-4-.23l.49,0c-2.41.08-5,.09-7.59.07l-4-.06-2,0-.44,0H3l-.34,0,0-.5,0-1.27.07-2.77.11-5.37c.05-3.46,0-6.66-.12-9.34l0,.51-.28-9.55c0-4.39.19,2.64.35-.61C2.47,61.23,3,55.26,2.68,46.77c.75-6.56-.06-23.3.43-32.16l-.18.51a27.57,27.57,0,0,1,.14-4.46c-.14.24-.16,2.48-.26,1.06L2.76,2.63,14,2.68l12.47.14,24.91.28c7.28,0,4.13-.92,13.3-.49L62,2.94c14.68-.4,30,0,44.4-.32a15.26,15.26,0,0,1-2.28.17c1.52.12,4.33.12,6.76.07a33.42,33.42,0,0,0,4.52-.25c2.24,0,.52.17,1.9.27,3,.14,7.64-.3,9.26-.06a8.43,8.43,0,0,1-1.41.09c2-.11,9.25,0,7.35-.25,5.39.14,10.32-.12,14.62,0,2.81-.31,9.24.14,10.13-.29-.39.45,9.46.36,12.87.15-1.14.14,3,.14,1.63.33,3.89,0,7.46-.09,6.78-.32,7.18.54,14.42-.44,18.46.26,11.57-.25,22.27-.41,32.67-.52-.37.45-11.5.05-11,.52,9.87-.19,15.56-.57,25.35-.46,2.53.06-1.44.19-2.3.27,9.86-.19,19.07,0,27.84-.21a14.43,14.43,0,0,1-1.86.13c1.73,0,4,.06,3.82-.14l-1.68,0c-2.76-.29,6.86-.62,7.17-.78-2.93.59,8.67.15,4,.89,1.14,0,2.56-.13,2.3-.27,1.69,0,2.23.12.52.28,6.19-.11,4-.33,9.6-.33a15.18,15.18,0,0,1-1.73.26c2.84-.2,5.69-.39,10.43-.31-.28.06.27.14-1.14.14,8.14,0,13.88-.52,22.81-.33-2.63.43,3,.14,3.51.52l4.81-.11-1.93-.19c4.21,0,7.93-.26,11.55-.14l-3.13.15,7.89-.07L342,2.05c4.26-.19-.45-.47,5.15-.37-1.14,0,4.21,0,6.4.23h0c2.08-.12,4.22-.24,7.33-.15.81.12-.65.41-.12.49,2.05-.31,9.85-.09,12.45-.42-.86.08-.91.28-.62.32l1.72-.26c1.95.08,2.24.12,1.92.28,5.86.05-1.86-.47,5.1-.27-.55,0-.29.06-1.43.1,7,.1,13.51-.16,19.93,0,1.9.38-5.61.09-3.44.41,9.26-.07,19.18-.45,28.14-.36l-1.67,0c1.24-.53,6.67.26,11.2,0-1.11,0-1.45.29-1.15.23,6.14.09,12.55-.13,21.85-.29l-1.16.13c3.62.12,9.53.07,13.44.13,1.16-.13,3.39-.11,2-.31,12.05.78,23-.41,33.67.23-1.28,0-3.05.12-2,.12l9.1-.12a17.35,17.35,0,0,0-3.1-.32c1.15-.14,3.72-.25,6-.25-4.1.16,0,.37,1.8.5-.3-.07.31-.15.16-.22,4.76.41.8-.46,7.29-.19l-.34.13c2.43-.07,4.67-.23,7.29-.19,1.08.27-2.59.12-2.76.34,3.68,0,7.27-.5,10.6-.24l-5.38.15a65.52,65.52,0,0,0,6.75.29h-.27l6.23.14-1.58-.08a45.49,45.49,0,0,1,6.81-.38h3.76l2,0,1,0,1-.06.06.8c0-.35-.05-.64-.08-.78-2.07.17-2.14.21-1.66.26s1.07.07.84.22l.32,0-.06.71,0,.34,0,.47c0,.57-.08.88-.12.57.25,2.93-.19,4.9.17,9-.1.18,0,3.13-.26,2.47.08,3.82.17-.9.29-.58.34,5.88-.4,13.82.06,22.27.18,7.29.51,8.64.68,15.4-.16,2.29-.36-1.87-.36-1.87-.14,3.69-.11,6.46,0,9.93-.09-.7-.16,0-.27,1.08,0,2.79.36,1.86.21,5.54a25.6,25.6,0,0,1-.39-2.79c.12,3.29.24,6.53.36,9.93-.17.9-.26-2.05-.37-3.25.08,3.82.15,9.89.42,11.07l.1-2.45c0,1.39-.23.72-.28-.31-.21-3.27.09-4.72.19-4.9l.06,2.42c.58-2.49-.09-9.72-.06-14.6l.42,2-.34-5c.1-1.06.34-1.79.4.61.2-3.49-.15-3.09.08-6.09,0-.33.06-.18.07.13l-.12-3.42c.09.67.29-.56.23,1.53.24-6.12-.31-9.87,0-12.18l0,.51c-.14-8.5-.31-.82-.66-7.19l.75-4.29-.31-.84c0-.88,0-2.61.16-2.29-.21-3.26-.13.56-.33-1.34.28-4.22-.13-11.63.36-12.58-.24-1.52-.18,4-.34-.47.52-1.31-.09-5.16.15-9.12.27,1.29.12,4.87.36,1a9.14,9.14,0,0,1-.12-1.1c0-.46,0-.95,0-1.48h-1.26l-1.23,0L552.83,1c-1.51-.06-3-.12-4.23-.09-.15.37-7.07.15-12.53.28.35-.13-10.26-.2-15.34-.34l.15-.06c-1,.37-6.22.3-10,.38.15-.22.83-.31,2.9-.41h-3.58a38.73,38.73,0,0,1-4.29.23l.9-.28C502,.72,497.17,1,491,.84c-.34.26,4.89.71-1.6.89-.25-.14-.48-.38,1.21-.44-.55,0-2,.12-3.1.06l2.59-.23c-2.79-.11-1.46.19-3.69.17,0-.2-1.66-.14-1.34-.3.57,0,1.95.08,2.81,0-2.52,0-5.57-.16-6.58-.31.22.12,0,.27-1.84.3-4.77,0-1.63-.24-4.42-.34-1.15.13-4.19,0-4.27.29a9.09,9.09,0,0,1-2.2-.22c-2.47.13-11.53,0-8.75.35l.64,0h-.41c-8.09.3-16.81-.16-24.84,0l0-.1c-4.8.12-10.67.07-14.09.28-1.42,0-3.35-.18-2.74-.3-3.67.08-4.08.19-9.37,0,3.68-.18-1.27-.16,3.78-.13C408.08.75,407,.6,401.89.87,403.63.61,398.3.55,396,.62l3.33.18c-2.54,0-4.76,0-7,0l1.22-.34c-9.74-.4-17.57.69-25,0-2.57.23,5.29.16,3,.43-4.48,0-9.15-.52-10.55-.52-6.14-.19-5.73.48-12.15.36.82.12,1.59.43-3.21.55-4.48-.05-5.51-.5-2.68-.6a5.63,5.63,0,0,1,1.55.07c1.45,0,3.35-.09,1.58-.22l-.59.12c-2.22-.12-8.39-.11-6.94-.31-3.39.12-1.45.2,1.06.26-5.75-.17-9,0-14.91-.12.95.06,1.81.2.88.2-8.69-.14-3.83.23-9.71.28C312.56.8,317.1.55,311.17.7c-3.61-.12-.76-.32.68-.41-5.4.23-10.09-.15-13.17-.19l2.84-.1c-1.7.06-3.09.06-4.51.05l1.63.24a18.56,18.56,0,0,1-3.05-.14c-1.72.16,1.31.4-2.1.61-2.22-.12-6.78.13-7.54-.19,7,.11-.78-.31,5.15-.36-1.15,0-2.54,0-4.21,0-.26,0,.23-.07.69-.08-6.7-.28-3.08.35-10,.35.88-.18-1.61-.34-2.74-.3,2.8,0,1.34.29-1.23.43-4.45-.14-4.83.1-7.16.09l2.66.06a62.14,62.14,0,0,1-6.23.21c-.27-.14,2.82-.09,1.71-.16-3.45.32-7.78-.32-12.59-.11-2.22-.12-.21-.33-2.16-.41C244.43.51,244,0,238.33.22c1.63.24,1.92.18-2.07.42l9.3-.17-6,.35c2.81,0,5.93-.15,7.61-.11C244.35.9,244.65.84,246,1c-3.84-.36-7.61.21-12.05,0l.13-.59c-6.67-.27-11.86.3-20.52.15l2.78.1c-1.16.24-5.35,0-8.15.13.26-.2-1.5-.27-2.7-.39.15.15-6.34,0-7.13.38L194.48.53c-7-.11-8,.56-14.71.49,2-.21-1-.35,3.48-.5a26.08,26.08,0,0,0-4.3.1c-1.32-.13-6.23.26-8.3.07a19,19,0,0,1-3.77.28c-.28,0,0-.1,0-.1s-3.95.14-1.75.35c-6.92-.61-19.34.05-25.36-.48L124.52.88c.29-.05,0-.09.86-.07-6.14-.19-3.77.56-10.76.36-3.57-.32,3.71-.17,1.49-.29-1-.65-8.43.08-13.13-.3l1.13,0c-3.59-.22-8.76.24-14.63.2,0,0,.28-.06,0-.1-4,.33-11.61.44-17.26.53C74,.93,74.82,1.05,73.74.79c-2.53,0,.75.41-4.31.49C67.79,1.14,64.14,1,63.66.74l4.77,0c-2.44-.35-6.17,0-8.68,0l.32-.15c-7.31,0-7.41.44-15.26.41l.81.12c-4.29.39-3.59-.22-7.87.07L36.45.73c-2.83.09-9.91.38-15,.45C24.34.89,30.28.74,34,.57c-2.8,0-9.53,0-11,.22,1.13,0,2.56-.13,3.68-.07q-5.18.47-13.57.45C13.39.92,11.94.82,9.71.76L5.88.72.82.69l0,3-.06,2a29.89,29.89,0,0,1-.21,3C.8,18.56.4,28.3.44,39.82c.6-4.09,0,3.36.63,2.66,0,2.68,0,3.71,0,3.94L.69,54.56C.52,56.49.56,52,.42,52.25c0,5.88-.26,2.47-.42,6.36.22-.8.31,2,.23,5.39l.28-4.72C.84,67.5,0,66.38.32,74.66L.13,72c.11,4.25,0,15.67.49,19.84-.07.75-.24,1.74-.29-.13v4.78l.07,6.17,12.37-.2c3.56,0,6.85,0,9.59,0l-.77.15a53.25,53.25,0,0,1,5.67-.13c-.12.06-.76.15.12.16s5-.26,7.54-.18l-2.15.17c9.91.2,15.2-.41,23.51-.51,0,.44,7.77.58,11.65.65l-.13.07c11.53,0,19.59-.37,30.27-.54,6.62.48,22.45.2,33.1.47-1.63-.08.27-.35,2.16-.39,2.5.09,6.91-.31,6.52.1H139c1.89.4,7,.29,11,.3l.66-.53c10.49.77,27.49-.28,33.22.41,2.53-.13,5.67-.13,8.18-.26l-.14.28c7,.07,10.52.11,19.2,0l-1.77.2c4.89,0,6.17-.81,10.69-.83l1.35.42c8.54,0,17.17.37,25.61,0a4.17,4.17,0,0,1-1.77.2c4,0,15.53.29,14.08-.29.1.38,8.8,0,13.41-.13l-.72.28a84.4,84.4,0,0,1,9.45-.55c1.29,0,1.13.22-.58.15,4.29.15,3.34-.26,8.54-.12l-1.94.18A42.47,42.47,0,0,0,294,102a60.61,60.61,0,0,1,9,.32,29.68,29.68,0,0,1,5.61-.28c.35.09-.59.15-1.07.18,7.38.19,11-.32,16.05,0a1.93,1.93,0,0,0,.86.16c-5.87,0-10.59,0-10.15,0,0,.26,4.74.3,1,.66,3.8-.19,10.31-.62,14.92-.49.23,0,.44,0,.61.08l-.48,0c1.07,0,2,0,2.92,0,1.47,0,2.41.08,3.83.08.54.21,5.43.11,7.79.12-.2-.28,2.89-.23,0-.46a13.57,13.57,0,0,1-2,0c-.35,0-.77,0-1,0l.17,0h-5.87a43.82,43.82,0,0,1,6.42-.1c1.21-.18,2.55-.37,3.3-.46,3.23.4,9.46.61,10.33.85,7.21-.16,17-.1,21.52-.63a12.21,12.21,0,0,1,3.12.23c-1.18.06-2.59,0-3.23.12,4.1-.13,12.14,0,13.12-.42,5.17.17-2.9.34,4.2.28l-1,.11c14,.59,22.7-.94,38.19-.18a13.9,13.9,0,0,1-1.83-.13c17.65.33,36.37-.31,53.79.22a67.15,67.15,0,0,0,8.51-.31l1.07.3,5.17-.35c7.33-.25,12.69.74,22,.26l-1.19-.2c3.33,0,10.55-.12,10,.11a9.54,9.54,0,0,1,2.4-.11l.1.16,8.18-.27c6.34.12-1,.63,8.27.66,3.44-.06,9.79-.46,8.5-.57a16.83,16.83,0,0,1-3.65-.25l3.15-.09c.57-.46,3-.94-4.74-1.26l-5.38.28-1.74-.22,4.54,0a34.09,34.09,0,0,0-6,.11,11,11,0,0,0-2.25-.25l-5.29.44c-.64-.18,2.37-.36-1.18-.46-2.47.21,2.38.41-1.72.54a19.23,19.23,0,0,0-4.85-.2c-.42-.12.22-.2,1.42-.25-2.69.15-7.12.06-8.51.31-2.69-.26-9.09.07-8.82-.37-.85.1-4.74.34-7.21.36,4.51-.53-9.25,0-8.06-.59-3.34.47-12.07.21-18,.47a9.26,9.26,0,0,1,1.51-.09c-3.34,0-4.3-.18-6.44-.27-.43.39-5.62.48-8.42.72-4.08-.38,2.48-.46,1.2-.82.21.31-7.09.31-5.71.58a23.94,23.94,0,0,1-4.3-.44c-.54.49-2.9.08-5.49.38-4.52-.24-1.17-.45-6.13-.31C442.6,100.06,447,99.89,447,99.89Zm-118.07.85h2.44Zm-9.92,0h4.3c.35.1,0,.2-1,.2A23.87,23.87,0,0,0,319,100.74Zm21,2a11,11,0,0,1-2.31-.07l2.74,0,.19,0A3.06,3.06,0,0,1,340,102.69Z"/><path class="cls-1" d="M342.83,102.32l.65,0-.94-.06-.55.09Z"/><path class="cls-1" d="M459.85,1.07h-.21a3.72,3.72,0,0,1,.44,0Z"/><polygon class="cls-1" points="182.01 100.2 182.02 100.28 182.89 100.21 182.01 100.2"/><path class="cls-1" d="M514.5,2a4.6,4.6,0,0,0,.72.08A5.3,5.3,0,0,0,514.5,2Z"/><path class="cls-1" d="M538.11,2.1l3.34.1Z"/><path class="cls-1" d="M555.93,2.24a1.51,1.51,0,0,0,.27-.12h0Z"/><path class="cls-1" d="M267.68,2.57H267C265.33,2.63,266.45,2.61,267.68,2.57Z"/><path class="cls-1" d="M353.56,1.91,350.79,2A8.72,8.72,0,0,0,353.56,1.91Z"/><path class="cls-1" d="M171.78,2.9h0Z"/><path class="cls-1" d="M346.8,2c1.53,0,2.81,0,4,0C349.54,2,348.07,2,346.8,2Z"/><path class="cls-1" d="M556.3,79.24l0,.87s0,0,.05.1Z"/><path class="cls-1" d="M556.33,80.21l0,1A7.67,7.67,0,0,0,556.33,80.21Z"/><path class="cls-1" d="M556.43,83.23l-.07-2A15.65,15.65,0,0,0,556.43,83.23Z"/><path class="cls-1" d="M556.43,55.21l-.11-.28C556.35,55.08,556.38,55.18,556.43,55.21Z"/><path class="cls-1" d="M556.4,47.91c0,1.74-.22,4.37-.16,6.8l.08.22C556.17,53.79,556.57,49.56,556.4,47.91Z"/><path class="cls-1" d="M557.66,17.43l-.08,6.12c.1-1.07.25-2.48.28.31C558.18,16.14,557.61,25.45,557.66,17.43Z"/><path class="cls-1" d="M554.15.85c3.28,0,0-.16.13-.22C552.2.73,551.69.75,554.15.85Z"/><path class="cls-1" d="M417.05.84l.33-.25C414.85.63,417.36.69,417.05.84Z"/><polygon class="cls-1" points="390.84 2.17 393.31 2.33 394.48 2.09 390.84 2.17"/><polygon class="cls-1" points="375.36 0.34 376.47 0.31 372.24 0.4 375.36 0.34"/><path class="cls-1" d="M145.1.44l.77.31C147.58.69,147.94.34,145.1.44Z"/><path class="cls-1" d="M45.7.76A32.25,32.25,0,0,0,40.1.65C42.34.67,44.56.8,45.7.76Z"/><polygon class="cls-1" points="155.65 102.73 153.65 102.84 157.41 102.75 155.65 102.73"/></g></g></svg>