<svg xmlns="http://www.w3.org/2000/svg" viewBox="0 0 102.8 102.96"><defs><style>.cls-1{fill:#fff;}</style></defs><g id="Layer_2" data-name="Layer 2"><g id="Layer_1-2" data-name="Layer 1"><g id="BTN_YES"><rect x="1.62" y="1.49" width="100" height="100"/><path class="cls-1" d="M101,101.49c.09.21.28.09.24-.49l-.33-.41Z"/><path class="cls-1" d="M101.57,97.58c-.17-.68-.45-1.47-.75-1,.32.67.18.84.56,1.56,0,.58-.1,1-.23.92.09.2-.07.9.14,1.21a5.12,5.12,0,0,0,0-2.71C101.42,97.33,101.5,97.53,101.57,97.58Z"/><path class="cls-1" d="M102.08,40.86l0,.36A1.79,1.79,0,0,0,102.08,40.86Z"/><path class="cls-1" d="M102.26,5.71c0,.27,0,.38.07.39C102.31,5.86,102.29,5.65,102.26,5.71Z"/><path class="cls-1" d="M99.84.48l.48,0-.32,0A.28.28,0,0,0,99.84.48Z"/><path class="cls-1" d="M102.08,40.86l.11-.94C102.08,39.85,102.11,40.4,102.08,40.86Z"/><path class="cls-1" d="M100.77,89.76a2.37,2.37,0,0,0,.08.51l0-.48Z"/><path class="cls-1" d="M102.35,56.35v.29a1.71,1.71,0,0,0,.13.23Z"/><path class="cls-1" d="M102.4,68.24c0-.27-.27-.36-.39-.46a1.14,1.14,0,0,1,.19.58C102.26,68.37,102.32,68.33,102.4,68.24Z"/><path class="cls-1" d="M101.91,87.1l0,.33C101.93,87.34,101.92,87.2,101.91,87.1Z"/><path class="cls-1" d="M102.41,47.84a.22.22,0,0,0,.1-.11S102.44,47.78,102.41,47.84Z"/><path class="cls-1" d="M87.83,100.17s0,0,0,0S87.93,100.17,87.83,100.17Z"/><path class="cls-1" d="M101.62,101.56h-.19a.53.53,0,0,0,0,.16Z"/><path class="cls-1" d="M88.86.12h0C89.2.09,89,.1,88.86.12Z"/><path class="cls-1" d="M.45,15.06c.26-1.14.33,1.86.61.14C1,15.36.62,13.64.45,15.06Z"/><path class="cls-1" d="M100.8,89.45V89A3.73,3.73,0,0,0,100.8,89.45Z"/><path class="cls-1" d="M1.06,15.2h0l0-.18Z"/><path class="cls-1" d="M63.56.29a.83.83,0,0,0,.25.12S63.75.34,63.56.29Z"/><path class="cls-1" d="M82.41.69l-.47,0Z"/><path class="cls-1" d="M53.77.68a2.53,2.53,0,0,0-.69,0l.11,0A1.48,1.48,0,0,1,53.77.68Z"/><path class="cls-1" d="M43.58.68a1.39,1.39,0,0,0,.19.06h.32Z"/><path class="cls-1" d="M56.87,100.3a1.32,1.32,0,0,1,.47.26C57.19,100.36,58.68,100.28,56.87,100.3Z"/><path class="cls-1" d="M100.92,89.76a.45.45,0,0,1-.12-.31c0,.12,0,.23,0,.34S100.9,89.83,100.92,89.76Z"/><path class="cls-1" d="M53.35,2.9l-1.61,0C52.19,2.89,52.78,2.9,53.35,2.9Z"/><path class="cls-1" d="M2.76,83.66l0,.37A1.35,1.35,0,0,0,2.76,83.66Z"/><path class="cls-1" d="M46.93,2.9A3.87,3.87,0,0,0,46,2.71a.84.84,0,0,0-.19.07Z"/><path class="cls-1" d="M57.35,100.56h0Z"/><path class="cls-1" d="M68,99.89c-1.54,0-.72.36-1.05.57-1.84.11-.85-.27-1.48-.46-1.15.1-2,.44-2.89.43-.06-.07-.23-.09,0-.16-1.22.29-3.61,0-5,.38a.36.36,0,0,1-.18-.09.47.47,0,0,1,.22.51c-.7,0-1.29.23-1.55,0a1.12,1.12,0,0,0,.66-.17L56,101c-.66-.35,1-.12,1-.38a30.75,30.75,0,0,1-4.14.3c-.22-.34,2.53-.11,1.09-.41l1.67.12c-1.28-.53,1,0-.15-.53-2.21-.1-2.47.17-4.67.07-.49.19.17.28-.33.47-3.12.34-2.46-.85-4.76-.4a3.15,3.15,0,0,1-2.46.43l.56-.39c-2.13,0-1.22.56-3.45.3.39-.15,1.67-.13,1.35-.18-1.45-.3-1,.22-2.14.22l-.23-.34c-2.27.06-4.77.3-7.29.36.14-.1.57-.2,0-.31a86.57,86.57,0,0,1-9.83-.24l-1.17.29c-.27,0-.51-.13-.21-.19-1.19-.11-.06.19-.64.3s-.89-.16-.46-.25a40.15,40.15,0,0,1-8.22.22l.43-.09c-1.72-.12-1.95.6-3.55.33l.31,0c-1.16,0-2.36,0-3.54,0H3.32l-.82,0,0-.46,0-.22v-.41a17.58,17.58,0,0,1,.19-1.76c-.42-.55.19-3.71-.4-4A34,34,0,0,0,3,89.25c0-.8-.37-1.2-.43-2.19l.31,0-.32-1.35L2.87,85,2.8,84c0,.37-.14.79-.23.73a9.1,9.1,0,0,1,.37-3.59l-.26-3.45c.12.08.17.66.25,1.11-.32-1.84.32-.33,0-2-.07.23-.18-.12-.24-.16a21.72,21.72,0,0,0,.11-4.17l.21.27c0-2.56-.1-5.4-.1-8.27-.1,1-.47.8-.5,0l.32-.33c-.2-.55-.12.88-.37-.24,0-1.07.37-.72.48-.11l-.11-1.3c.09-.08.15.23.27.31-.2-.54.33-2.25,0-3l.09-.08c0-2.87-.11-4.17-.12-6.51-.28,0-.22-1-.45-1.66.09-1.72.31-3.62.29-5.69-.14-1.46-.24-.43-.41-1.08.26-.11.23-2.18.42-1.11,0-2.48-.05-3.17-.26-6.32-.11.35-.15.73-.24.53,0-.57.11-1.3.23-1.22l0,.16c-.39-3.53.75-8.15.21-11l0,.16-.28-2.91c0-1.34.19.8.35-.19-.43-3.15.06-5-.22-7.56.75-2-.06-7.11.43-9.81l-.18.16c-.18-.7.1-.85.14-1.37-.14.08-.16.76-.26.33,0-.65,0-1.31-.05-2l2.62.05,3.81.14c2.54.1,5.09.22,7.6.28,2.22,0,1.26-.92,4.06-.49l-.8.33c4.48-.4,9.16,0,13.55-.32a1.58,1.58,0,0,1-.7.17,8.06,8.06,0,0,0,3.44-.18c.69,0,.16.17.58.27.93.14,2.33-.3,2.83-.06.08,0-.26.07-.43.09.6-.11,2.82,0,2.24-.25,1.65.14,3.15-.12,4.46,0,.86-.31,2.82.14,3.09-.29C49,2.87,52,2.78,53,2.57c-.35.14.9.14.49.33,1.19,0,2.28-.09,2.07-.32,2.19.54,4.4-.44,5.64.26,3.52-.25,6.79-.41,10-.52-.11.45-3.51.05-3.37.52a67.2,67.2,0,0,1,7.73-.46c.78.06-.43.19-.7.27,3-.19,5.82,0,8.5-.21,0,.05-.3.09-.57.13.53,0,1.23.06,1.17-.14l-.52,0c-.84-.29,2.1-.62,2.19-.78-.89.59,2.64.15,1.22.89.35,0,.79-.13.71-.27.51,0,.67.12.15.28,1.89-.11,1.22-.33,2.93-.33,0,.1-.35.14-.53.26a10.12,10.12,0,0,1,3.19-.31c-.09.06.08.14-.35.14,2.48,0,4.23-.52,7-.33-.42.22-.13.25.13.28s.39,0,.3.24l.27,0,.06.28a3.89,3.89,0,0,0,.18-.4,2.52,2.52,0,0,0,0,.48l0,.25,0,.45a8.7,8.7,0,0,1,0,1.69l-.15-1,.07,2.41.14-1.36c.19,1.3.47-.14.37,1.57a16.81,16.81,0,0,1-.22,1.95h0a7.21,7.21,0,0,1,.16,2.24c-.12.24-.42-.2-.5,0,.32.62.09,3,.42,3.8-.08-.27-.27-.28-.31-.19l.25.52c-.08.6-.12.68-.27.59,0,1.79.47-.57.27,1.55a1.76,1.76,0,0,1-.1-.43c-.11,2.13.16,4.12,0,6.08-.37.58-.09-1.71-.4-1.05.06,2.82.45,5.85.36,8.58l0-.51c.53.38-.26,2,0,3.42,0-.34-.3-.44-.24-.35-.08,1.87.13,3.83.3,6.67l-.14-.36c-.12,1.11-.07,2.91-.13,4.1.14.36.11,1,.31.62-.77,3.68.42,7-.23,10.27,0-.39-.12-.92-.12-.61l.13,2.77c.23-.22.14-.36.32-.94a6.4,6.4,0,0,1,.24,1.82c-.15-1.25-.37,0-.5.55.07-.09.15.09.22,0-.41,1.45.47.24.19,2.22l-.12-.1a17.47,17.47,0,0,1,.19,2.22c-.27.33-.13-.79-.35-.84,0,1.12.51,2.22.24,3.23-.07-.47-.07-1.16-.15-1.64a6.54,6.54,0,0,0-.28,2.06v-.08l-.15,1.9.09-.48c.69,1.4.13,2.86.58,4.75-.43-1.84-.25-.3-.55-.44-.09.48-.18,1.22-.26,1,.24.89-.2,1.49.16,2.75-.1.06,0,1-.25.76.07,1.16.17-.28.29-.18.33,1.79-.41,4.22,0,6.79.19,2.23.52,2.64.68,4.7-.15.7-.35-.57-.35-.57a11.83,11.83,0,0,0,0,3c-.08-.21-.16,0-.27.33,0,.85.36.57.22,1.69a3.08,3.08,0,0,1-.4-.85c.09,1,.28,2,.36,3-.17.27-.25-.63-.37-1a13,13,0,0,0,.43,3.38l.09-.75c0,.42-.23.22-.28-.1-.21-1,.1-1.44.2-1.49l.06.74c.57-.76-.09-3-.06-4.46l.41.62-.34-1.52c.11-.33.34-.55.4.19.21-1.07-.15-1,.08-1.86,0-.1.06-.06.08,0l-.13-1c.09.2.3-.18.24.46.24-1.87-.32-3,0-3.72l0,.16c-.14-2.59-.3-.25-.66-2.19l.75-1.31-.3-.26c0-.27,0-.79.15-.7-.2-1-.13.17-.33-.41.28-1.28-.13-3.55.36-3.84-.23-.46-.18,1.24-.34-.14.52-.39-.09-1.59.15-2.76.27.36.13,1.47.37.3-.46-.71.1-2.3,0-3.29-.36,0-.15-2.15-.27-3.82.12.11.2-3.13.33-4.68l.06,0c-.37-.3-.3-1.9-.37-3.06.22,0,.3.25.4.88V56.64a3.64,3.64,0,0,1-.22-1.31l.27.27a37.9,37.9,0,0,1-.14-4.8c-.25-.1-.71,1.49-.88-.49.14-.07.37-.15.43.37a3.33,3.33,0,0,1,0-1l.23.8c.1-.86-.2-.45-.17-1.13.19,0,.14-.51.29-.41a4.09,4.09,0,0,0,0,.86,7.22,7.22,0,0,1,.3-2c-.11.07-.27,0-.29-.56,0-1.46.24-.5.34-1.35-.14-.35,0-1.28-.29-1.3a1,1,0,0,1,.22-.67c-.13-.76,0-3.52-.35-2.67l0,.19,0-.12h0c-.29-2.47.17-5.13,0-7.58h.1c-.11-1.46-.06-3.25-.28-4.29,0-.44.18-1,.3-.84a11.52,11.52,0,0,1,0-2.86c.17,1.13.15-.39.12,1.15a10.41,10.41,0,0,0,0-3.34c.25.53.32-1.09.24-1.78l-.18,1c0-.78,0-1.46,0-2.15l.33.37c.4-3-.69-5.35,0-7.62-.23-.78-.17,1.62-.44.91a30.4,30.4,0,0,1,.53-3.22c.18-1.87-.49-1.74-.36-3.7-.12.25-.44.48-.55-1s.5-1.68.59-.82c0,.33,0,.49-.07.47,0,.45.1,1,.23.49l-.12-.18c.12-.68.11-2.56.3-2.12-.11-1-.19-.44-.26.32,0-.31,0-.59.07-.86v-.4c0-.15,0-.3,0-.45,0-.79,0-1.54,0-2.36-.67,0-1.39,0-2.24,0,.46.06.79.2.37.2l-1,0h-.52a1.18,1.18,0,0,0-.47.09A2.14,2.14,0,0,1,97.5,1c-1-.18.37-.43-1.44-.28-1.1-.12-.24-.32.2-.41a17.51,17.51,0,0,1-4-.19l.86-.1a9.34,9.34,0,0,1-1.37.05l.49.24c-.51,0-.94,0-.93-.14-.52.16.4.4-.64.61C90,.64,88.6.89,88.36.57c2.14.11-.23-.31,1.57-.36a7.89,7.89,0,0,1-1.28,0c-.08,0,.07-.07.21-.08-2-.28-.94.35-3.06.35.27-.18-.49-.34-.83-.3.85,0,.41.29-.38.43a9.7,9.7,0,0,0-2.18.09l.81.06a6,6,0,0,1-1.9.21c-.08-.14.86-.09.52-.16-1,.32-2.37-.32-3.84-.11-.68-.12-.06-.33-.66-.41C75.7.51,75.56,0,73.83.22c.5.24.59.18-.63.42L76,.47,74.22.82c.86,0,1.81-.15,2.32-.11-.87.19-.78.13-.37.33-1.17-.36-2.32.21-3.68,0l.05-.59c-2-.27-3.62.3-6.27.15l.85.1c-.35.24-1.63,0-2.48.13.07-.2-.46-.27-.83-.39,0,.15-1.93,0-2.17.38L60.46.53C58.32.42,58,1.09,56,1c.62-.21-.31-.35,1.06-.5-.69,0-1.3,0-1.31.1-.4-.13-1.9.26-2.53.07A2,2,0,0,1,52,1c-.09,0,0-.1,0-.1s-1.21.14-.53.35c-2.11-.61-5.9.05-7.74-.48-1.5.07-3.3.13-4.66.14.09-.05,0-.09.27-.07-1.88-.19-1.16.56-3.29.36C35,.85,37.23,1,36.55.88c-.3-.65-2.58.08-4-.3l.35,0c-1.1-.22-2.68.24-4.47.2,0,0,.09-.06,0-.1a32.15,32.15,0,0,1-5.26.53c.53-.25.78-.13.45-.39-.77,0,.23.41-1.31.49-.5-.14-1.62-.27-1.76-.54L22,.72c-.74-.35-1.88,0-2.65,0l.1-.15c-2.23,0-2.26.44-4.65.41l.24.12c-1.31.39-1.09-.22-2.4.07l-.4-.39c-.86.09-3,.38-4.57.45A31.7,31.7,0,0,1,11.48.57,16.5,16.5,0,0,0,8.13.79,4.22,4.22,0,0,1,9.25.72a14.73,14.73,0,0,1-4.14.45c.1-.25-.34-.35-1-.41l-.56,0H2.77L.82.69a10.32,10.32,0,0,1-.3,3c.28,3-.12,6-.08,9.5.6-1.25,0,1,.63.81a4.5,4.5,0,0,1,0,1.21L.69,17.68C.52,18.27.56,16.9.42,17c0,1.8-.26.76-.42,1.94.22-.24.31.63.23,1.65l.28-1.44C.84,21.63,0,21.29.32,23.81L.13,23c.11,1.3,0,4.78.49,6-.07.23-.24.54-.29,0-.07,3.09.53,6.89.22,9.3L.4,38.09a4.59,4.59,0,0,1,.13,1.73c-.06,0-.14-.23-.15,0a10,10,0,0,1,.17,2.3L.38,41.5c-.19,3,.41,4.64.52,7.17-.44,0-.59,2.37-.66,3.56l-.06,0c-.06,3.52.36,6,.54,9.23-.48,2-.2,6.85-.47,10.1.08-.49.34.08.39.66-.09.77.3,2.11-.1,2V73.9c-.4.57-.3,2.14-.31,3.36l.53.21c-.77,3.2.28,8.38-.4,10.13.13.77.13,1.73.26,2.5l-.28,0c-.08,2.14-.11,3.2,0,5.85l-.2-.54c0,1.49.82,1.88.84,3.26l-.43.42c0,1.2,0,2.4-.07,3.61l3.87.09A18.47,18.47,0,0,0,7,102.57c0,.06-.12.19-.54.2,1.22,0,4.74.29,4.29-.29,0,.38,2.69,0,4.1-.13l-.22.28a8.27,8.27,0,0,1,2.88-.55c.39,0,.34.22-.18.15,1.31.15,1-.26,2.61-.12l-.59.18a4.15,4.15,0,0,0,2-.28,5.85,5.85,0,0,1,2.75.32,3,3,0,0,1,1.71-.28c.11.09-.18.15-.32.18,2.25.19,3.34-.33,4.89,0a.31.31,0,0,0,.26.16c-1.79,0-3.23,0-3.09,0,0,.26,1.44.3.29.66a20.37,20.37,0,0,1,4.56-.49l.18.08-.14,0a3.25,3.25,0,0,0,.89,0c.45,0,.73.08,1.16.08a8.13,8.13,0,0,0,2.38.12c-.06-.28.88-.23,0-.46.11,0-.14,0-.61,0a2.32,2.32,0,0,0-.31,0l0,0H34.18a4.16,4.16,0,0,1,2-.1c.37-.18.77-.37,1-.46,1,.4,2.89.61,3.15.85,2.2-.16,5.19-.1,6.57-.63a1.3,1.3,0,0,1,1,.23c-.36.06-.79,0-1,.12,1.25-.13,3.7,0,4-.42,1.58.17-.89.34,1.28.28l-.29.11c4.26.59,6.92-.94,11.65-.18a1.45,1.45,0,0,1-.56-.13c5.39.33,11.1-.31,16.41.22a6.47,6.47,0,0,0,2.6-.31l.33.3,1.57-.35c2.24-.25,3.87.74,6.7.26l-.36-.2c1,0,3.22-.12,3,.11a1,1,0,0,1,.73-.11l0,.16,2.49-.27c1.94.12-.3.63,2.53.66,1.05-.06,3-.46,2.59-.57s-1.08-.09-1.11-.25l1-.09c.17-.46.91-.94-1.45-1.26l-1.64.28-.53-.22,1.38,0a3.22,3.22,0,0,0-1.83.11,1.31,1.31,0,0,0-.69-.25l-1.62.44c-.19-.18.73-.36-.35-.46-.76.21.72.41-.53.54-.79-.21-.56-.38-1.48-.2-.13-.12.07-.2.43-.25a15.29,15.29,0,0,0-2.59.31c-.82-.26-2.78.07-2.69-.37a10.25,10.25,0,0,1-2.2.36c1.37-.53-2.83,0-2.46-.59-1,.47-3.68.21-5.49.47a.92.92,0,0,1,.46-.09,13.18,13.18,0,0,1-2-.27c-.13.39-1.71.48-2.56.72-1.25-.38.75-.46.36-.82.06.31-2.16.31-1.74.58-.95-.24-.82-.11-1.31-.44-.17.49-.89.08-1.68.38-1.38-.24-.35-.45-1.87-.31C66.66,100.06,68,99.89,68,99.89Zm-36,.85h.74Zm-3,0h1.31c.11.1,0,.2-.31.2C30.13,100.88,29.41,100.82,29,100.74Zm6.4,2c-.48,0-.64,0-.7-.07l.84,0,0,0A.49.49,0,0,1,35.36,102.69Z"/><path class="cls-1" d="M36.23,102.32l.19,0-.28-.06-.17.09Z"/><path class="cls-1" d="M102,41.29v-.07a.39.39,0,0,1,0,.14S102,41.31,102,41.29Z"/><polygon class="cls-1" points="2.9 87.03 2.83 87.03 2.89 87.3 2.9 87.03"/><path class="cls-1" d="M101.07,58a.54.54,0,0,0-.07.22A.77.77,0,0,0,101.07,58Z"/><path class="cls-1" d="M101,65.16l-.1,1C101,65.74,101,65.42,101,65.16Z"/><path class="cls-1" d="M100.87,70.7a.29.29,0,0,0,.12.11h0Z"/><path class="cls-1" d="M82.79,2.57h-.22C82.07,2.63,82.41,2.61,82.79,2.57Z"/><path class="cls-1" d="M101.19,8.86c0-.28-.1-.55-.13-.84C101,8.48,101,8.84,101.19,8.86Z"/><path class="cls-1" d="M53.53,2.9Z"/><path class="cls-1" d="M101.07,6.8a5,5,0,0,0,0,1.22A8.29,8.29,0,0,0,101.07,6.8Z"/><path class="cls-1" d="M100.74,94.7V95s0,0,0,0Z"/><path class="cls-1" d="M100.77,95l0,.29C100.81,95.16,100.81,95,100.77,95Z"/><path class="cls-1" d="M100.88,95.92l-.07-.63A1.52,1.52,0,0,0,100.88,95.92Z"/><path class="cls-1" d="M100.87,87.37l-.1-.09A.13.13,0,0,0,100.87,87.37Z"/><path class="cls-1" d="M100.84,85.14a13.63,13.63,0,0,0-.15,2.07l.08.07C100.62,86.94,101,85.65,100.84,85.14Z"/><path class="cls-1" d="M102.1,75.84,102,77.71c.11-.33.25-.76.28.09C102.62,75.45,102.06,78.29,102.1,75.84Z"/><path class="cls-1" d="M102.26,70.06c0,1,.16,0,.22,0C102.38,69.46,102.35,69.31,102.26,70.06Z"/><path class="cls-1" d="M102.26,28.23l.26.1C102.48,27.56,102.42,28.32,102.26,28.23Z"/><polygon class="cls-1" points="100.94 20.23 100.78 20.98 101.01 21.34 100.94 20.23"/><polygon class="cls-1" points="102.76 15.51 102.8 15.85 102.7 14.56 102.76 15.51"/><path class="cls-1" d="M45.39.44l.24.31C46.15.69,46.26.34,45.39.44Z"/><path class="cls-1" d="M15.07.76A3.09,3.09,0,0,0,13.36.65C14,.67,14.72.8,15.07.76Z"/><polygon class="cls-1" points="0.37 78.99 0.27 78.38 0.36 79.53 0.37 78.99"/><path class="cls-1" d="M81.27,22c-.19-.18-.67-.49-.63-.34l.76.62Z"/><path class="cls-1" d="M81.13,23c-.7-.64-.37-.44-1.21-1.18,0-.15.35,0,.63.25-.18-.17.26,0-.21-.41-.69-.31-.8-.19-.39.31a3,3,0,0,1-.52-.37A7.15,7.15,0,0,0,81.13,23Z"/><path class="cls-1" d="M69.11,33.93a.28.28,0,0,0-.14-.18A.28.28,0,0,0,69.11,33.93Z"/><path class="cls-1" d="M67.67,34.2h.08C67.67,34.16,67.61,34.15,67.67,34.2Z"/><path class="cls-1" d="M72.51,29c.26.19.24.06.34,0Z"/><path class="cls-1" d="M80.61,24.07a1,1,0,0,0-.16-.22.38.38,0,0,1,0,.13Z"/><path class="cls-1" d="M73.66,26.34l0-.05-.3-.26Z"/><path class="cls-1" d="M75.56,25.23a1.55,1.55,0,0,1-.41-.41l-.49-.32A6.43,6.43,0,0,0,75.56,25.23Z"/><path class="cls-1" d="M46.41,79.84c.06.06.1.1.12.09Z"/><path class="cls-1" d="M41.88,79.62l0-.05-.38-.27Z"/><path class="cls-1" d="M65.77,35.21h0C65.73,35.12,65.73,35.15,65.77,35.21Z"/><path class="cls-1" d="M58.22,51.41c-.28-.16-.91-1-1.44-1C57.5,50.64,57.39,51.2,58.22,51.41Z"/><path class="cls-1" d="M64.11,39.38a3.06,3.06,0,0,0-.32-.16Z"/><path class="cls-1" d="M66.53,37.11h-.14C66.47,37.14,66.51,37.13,66.53,37.11Z"/><path class="cls-1" d="M63.75,41.31s-.08,0,0,.07l.09,0C63.74,41.37,63.71,41.32,63.75,41.31Z"/><path class="cls-1" d="M63.75,41.31h0Z"/><path class="cls-1" d="M62.87,42.82l.16.07a.2.2,0,0,1,0-.07Z"/><path class="cls-1" d="M49.11,75.15c-.21-.1-.43-.23-.65-.36C49,75.11,49,75.45,49.11,75.15Z"/><path class="cls-1" d="M80.5,24.06a.22.22,0,0,0,0-.08,1.86,1.86,0,0,0-.26-.17A1.12,1.12,0,0,1,80.5,24.06Z"/><path class="cls-1" d="M69.13,45.09l-.25.17A.39.39,0,0,0,69.13,45.09Z"/><path class="cls-1" d="M55.89,64.33l0,.11S56,64.4,55.89,64.33Z"/><path class="cls-1" d="M68.52,46a2,2,0,0,0-.55-.2,1.2,1.2,0,0,0,.16.15Z"/><path class="cls-1" d="M80.67,23.57A1.79,1.79,0,0,0,80,22.36l-.3-.05c0-.08.58.36.67.48.41.5-.36.06-.6-.1l-.08-.21c-1.45-.84-.06.59-.28.75l-.94-.78.68.8a2.48,2.48,0,0,1-1-.7c-.59-.19.27.38-.37.13a.41.41,0,0,1-.17-.12l.2.36c-.19-.18-.72-.47-.52-.46-.75-.13.47,1-.35.54l0-.07c.09.62.71.55,1.39,1.44L76.35,23.3l.71.55s-.15.06-.44-.16c.41.5.34.2.76.61-.79-.27,0,.74-1.22,0,.52.46.55.12.81.59-1.3-.82.06.39-.63.16-.61-.51-.16-.43-.85-.66,1,.87-.46.17-.34.46.87.61.16.57.29,1-.28-.22-.77.12-1.23.13l-.15-.11c.86.66.54.78.62,1.08a3,3,0,0,1-.89-.81l-.1.16a1.13,1.13,0,0,1,.41.57l-.64-.5c-.1.24.51,1-.11.94.6.44,1.85,1,2.08,1.55a4.39,4.39,0,0,1-1-.78c0,.06.22.28,0,.24L74,27.8c-.32-.05.43.39.31.45-.47-.33-.38-.16-.75-.43,0-.06.25,0,.09-.12a1.51,1.51,0,0,1-.92-.21c.28.17.64.44.65.57s-.62-.33-.94-.37c.3.28-.13.18.58.68,0,.06-.39-.16-.59-.27.24.33-.25.58.59,1h.07l0,0c.47.86-.89.48-.81,1.05L72,30c.13.41-.15.59.27,1.1,0,.07-.53-.15-.8-.37.08.29.33.49-.21.45-.31-.45-.41-.19-.2-.38-.34.08-.75-.14-.25.54-.56-.5-.87-.37-.75-.14l.53.15c0,.17-.1.24-.22.3L69.64,31C68.39,30.8,70.8,33,69,32.18c.48.51.54,0,1.13.6-.24.12-1.52-.47-1.56-.41-.62,0,1,1.07.52,1.15.3.16,1.09.66,1.22,1.06-.23.13-1.36-.59-1.5-.87,0-.07.11,0,.2,0a.74.74,0,0,0-.49-.44l.27.22c-.35-.1-.5.2-.93-.19a.64.64,0,0,0,.65.38c-.58,0-.27.39-.72.47.19.06.55.26.52.3-.6.14.43.55.39.9-.53-.16-1-.78-.81-.26-.4,0-.78-.49-1-.72.4.63-.65.2-.84.27l-.15-.29c.09.17.05.23,0,.3l.62.32a.43.43,0,0,1-.43-.1c.32.34,1,.6,1.4,1.11-.35-.1.12.52-.66,0,.46-.14-.79-.5-.74-.85.06.12,0,.18-.13.18a.37.37,0,0,1-.18-.17c-.87-.17.77.74.55,1-.4-.34-.86-.49-.8-.38.09-.12.75.43,1,.78-.46,0,.1.39,0,.46h.23c.4.34.28.4.33.63-.34-.21-.15-.28-.33-.33.65.67-1-.19-.63.37-.35-.1-.81-.55-1.06-.59.4.62-.75-.15-.46.42a1.77,1.77,0,0,1,.94.79l-.14-.7.66.85c.09-.12-.19-.52,0-.53a1.47,1.47,0,0,0,.76.61c-1-.42.29.69-.42.49l-1.42-1c-.82-.14.39,1-.22,1.18l.33.05c.53.44-.07.3.07.58a4.46,4.46,0,0,0-1-.54c.36.24-.21.27.72,1l-.74-.26c-.46.14,1.12,1.3.77,1.49-.46-.45-.88-.55-1.12-1-.07.1-.22.13.11.36-.33-.15.46.73-.05.51.18.18.67.54.56.63a2.21,2.21,0,0,1-.23-.17c.23.17.2.4.79.67-1.68-.72-.45.94-1.89.33a2.38,2.38,0,0,1-.09.92c-.14-.11-.24-.16-.17-.17-.61,0,1.26,1.12.57,1.09-.87-.37-.31-.45-.67-.55-1.59-1,0,.52-1.07.1l-.06-.12c-.64-.21.34.81.06,1a2.24,2.24,0,0,0-.24-.16,2.64,2.64,0,0,1,.79,1.66c-.56-.5-.25-.34-.9-.72,0,.17,1,.66,1,1a5.89,5.89,0,0,1-1.46-.64l.1-.24c-.93-.49-.15.3-.37.31l-.36-.28c-.09.41.85,1.08.56,1.38l.31.16c.81.85-.64-.2-.06.47l-1-.6a6.1,6.1,0,0,1,.67,1.44,8.59,8.59,0,0,1-1.13-1.59c-.08.12-.2.47.23.86-.06-.11-.25-.34-.08-.29.65.68.89,1.14.71,1.38-1.81-1.33-.88.33-2.43-.48.4.91-.85.67-1.07,1.27,1.55.81-.06.18,1.43,1.17,0,.18,0,.21-.13.16h.08l-.09,0h0l-1.11-.25c-.48-.21-.25-.34-.59-.56-.28.19-.69-.32-1.19-.42.55.33.69.62.4.63l.81.26c.55.91-1.44-.54-.9.37L55.25,51c.15.38-.46.7.6,1.7-.19-.08-.62-.32-.67-.47-.47.33.61,1.88-.35,1.73l-.33-.28c0,.16.58.62.15.47-.15-.11-.34-.28-.39-.26.1.13.49.67.21.63l-.34-.38c-.76.12.55,1.37.55,1.92a2.29,2.29,0,0,0-1.91-.58l-.14-.11c-.46.43.31,1.49.42,2.26-1.34-.5-1.12.67-2.07.7a2.23,2.23,0,0,1,.87.75c-.29,0,.54.82-.43.13l0,0c-1-.58-.9-.17-1,0l1.25.91c-2.15-.81-.11,1.71-1.93.81.24.34.15.48.4.81l-.68-.48c-.38.19-.56.29-.65.79l-.44-.41c-.18.18,1.79,1.64,1.7,1.87l-1-.65c-.23.4-1.37.16-.69,1.18-.15-.11-.44-.32-.44-.41-.14.16-1.13.22.31,1.12-.91-.63-.34.33-.08.82l-.65-.5c.75.77,1,.94,1.06,1.35-.1,0-.44-.23-.4-.28-.29,0,.56.59.09.57l-.38-.38c-.17.16.07.31.49.76.19.31-.4.26-1-.13.35.28.78.73.53.73a1.29,1.29,0,0,1-.41-.36c-.67,0,.46,1-.34.81a2.35,2.35,0,0,0-.43-.24c.19-.25.36-.44.4-.39-.62-.43-.87-.29-1.61-1,.35.49,1.18,1.49.76,1.49L46,67.8l-.06-.07c-.09,0-.06.09,0,.2-.15,0-.25,0-.3,0-.53-.34-.43,0-.52.14.68.46.48.52,1.12.78-.06,0-.06-.08-.05-.17s0,0,0-.09l.06,0a1.33,1.33,0,0,1,.12-.3c.29.33.52.61.07.47l1,.91c-1-.51-1.73-.59-2.33-1,.17.58-.24.93.9,2,.11.2-.43-.15-.65-.25s0-.19-.2-.35c.21.41-.22.63.64,1.29-.55,0-.74-.69-.79-.28L44.72,71a.77.77,0,0,0-.44,0c-.1-.25.1-.72.31-1.16l-.78.38a1.31,1.31,0,0,1,.45-.34c.19-.3-.46.3-.77.44-.09,0,.35-.37.59-.47-.73.21-1.66.32-1-.42l.23-.1c.19-.36-1.56.82-1,.21l.14-.06c.08-.57-.82-.52.08-1.53-1,.66.23-.66-1.21.3.58-.7.87-.81,1.16-1.43,0-.12-1,.5-1.17.51l.74-.52-.86.41.85-.68-.25,0a1.94,1.94,0,0,1-.5.45c-.43.09.3-.7.68-1l-.84.1a1.84,1.84,0,0,1,.51-.24c-.49.16.85-.61.11-.31a5.09,5.09,0,0,1-.6.39c.4-.39.29-.57,0-.58l.53-.33c0-.33-.57-.34-.74-.62a3.45,3.45,0,0,1-1.21.83l.76-.57c-.52.28-.24.28-.9.59,0-.17.85-.69,1.14-.81l-.35.07c.23-.17.37-.23.68-.43-.53.29.65-.75-.25-.24l.23-.17c-.17-.28-.51-.22-.7-.41a6,6,0,0,1-1.17.58c.11-.31.53-.86.34-1-.42.09-.6.36-1,.57.61-.43.43-.59.94-.8-.25-.16-.32-.21-1-.17a3,3,0,0,1-.54.45c-.14,0,.18-.3.48-.5l.07,0c-1.14.3,1.31-2-.15-1.4l.08,0-.85.19c0-.2.51-.25.84-.6-1.23.41-.16-.58-1-.35,1.7-1.45-.56-.59.44-1.65l-.42.31c-.46.22.2-.25.26-.37-.33.24-.34.34-.6.46-.87-.21-.11-1.6-.09-2.45,0-.29-2.3,1.42-1.44.44l.84-.47c-1.22.23-.52-.9-1.6-.76.2-.1.44-.26.47-.22.52-.49-.18-.35-.66,0,0-.1.42-.31.64-.52s-.89.29-.34-.15a.53.53,0,0,1,.26-.12c-.32.13-.1-.32-.73.19.22-.37-.49-.09-.17-.49-.8.43.18-.52-.89.19,1.1-.75.71-.89.13-.63.35-.2.29-.32.77-.6-.09-.1-.36-.07-.91.34,1.18-1.11-1.31.31.29-1a5.22,5.22,0,0,1-1.85-.09c1.1-.74.32.26,1.46-.54-.63,0-1.67.5-1.59,0,.1-.17.5-.28.7-.39-.63,0-.25-.62-1-.46a1.21,1.21,0,0,1,.33-.15c-.07,0,.09-.23-.4.12l.16,0a11,11,0,0,1-2,1.09c1.47-.89.2-.5,2.07-1.6a2.61,2.61,0,0,0-.7.39,1.62,1.62,0,0,1,.66-.48c-.38,0-.87.44-1,.27.24-.17.35-.2.64-.38-.52.24-1,.48-.92.2.15-.09.33-.23.35-.19-.22-.19-1.5.46-1.22-.11,1.09-.65.29-.33,1.18-1l-.35,0-.41.36c-.06-.14-.78.21-.56-.1l.43-.16-.31-.12-.26.37c-.54.2-1.13.8-1,.46.12,0-.06-.13.43-.56h0c-.33.14-.67.29-.5,0s1-.67,1.19-.82c-.79.46-.39-.14-1.24.34a6.42,6.42,0,0,0,.77-.51l-.65.38a2.23,2.23,0,0,1,.64-.52c0-.25-1.11.84-.75.3a2.27,2.27,0,0,1,.26-.12c.13-.38-.64-.12-.45-.52.87-.68.32,0,1.05-.58-.34-.16-1.44.19-1.4-.22l-.07.12c-1.3.85.51-.63-.17-.34a5.24,5.24,0,0,0,.58-.36c.1-.32-.54-.15-1.12-.14l.35-.2c.23-.3,0-.39.07-.61a3,3,0,0,0-.79.46c1.65-1.64-1.42,0-.06-1.36,0,0,.34-.11.32-.14L26,44.9a5.36,5.36,0,0,0-.71.63c-.35.19-.66.29-.7.23a3.43,3.43,0,0,0,1.17-.89c-.16.13-.36.24-.53.37.9-.83-1.14.75-.59.1l.3-.19c-.2,0-.62.23-.59.1.63-.48.35-.14.88-.5-.1-.08-1.35.63-.77.09.21-.07.25,0,.46-.09.69-.63.49-.51.56-.67v0l.23-.42-.18.19c-1.77,1-.48-.06-1.7.52,1.16-.54.62-.39,1.36-.88a2.9,2.9,0,0,1,.58-.53c-.65.32.37-.47-.57,0,.24-.17,0-.11.57-.5-.25,0-.39.31-.69.51-.91.38.72-1.08-.54-.56-.59.1-1.41.61-1.93.68a3.18,3.18,0,0,1,.89-.53c.28-.35.17-.39-.17-.3a3.4,3.4,0,0,0,.63-.48c-.12,0-.9.54-.62.19.28-.16.71-.43,1-.57-.28.06-.78.26-1.05.31a4.2,4.2,0,0,1,.95-.52A2.06,2.06,0,0,0,23,41.6l-.14.18a4.36,4.36,0,0,1,.64-.4c.57-.26-.14.29-.37.46l-.2,0c-1.33,1,.4.13.41.33l-1,.63.93-.43a3.7,3.7,0,0,1-1,.66c-.43.44.42-.16-.08.31a.61.61,0,0,1-.18.12l.37-.11c-.23.13-.7.51-.6.34-.46.58.94-.23.22.36l-.07,0c.5,0,.75-.48,1.74-.89l-1.74,1.37.75-.48s0,.13-.33.33c.56-.26.31-.24.82-.51-.6.58.53.12-.63,1,.59-.35.36-.42.83-.56-1.24.91.31,0-.2.52-.67.41-.39.07-.9.58,1.14-.69-.1.39.17.33.88-.6.49,0,.89-.08-.31.19-.3.63-.52,1l-.15.1c.91-.58.83-.32,1.09-.33a4.65,4.65,0,0,1-1,.59l.07.1a1.37,1.37,0,0,1,.61-.24l-.68.43c.13.11,1-.26.63.22a10.46,10.46,0,0,1,2.16-1.42,6.59,6.59,0,0,1-1.06.68c.05,0,.31-.13.19,0l-.61.31c-.19.25.5-.28.49-.18-.48.33-.31.28-.7.53-.05,0,.17-.19,0-.08a2.06,2.06,0,0,1-.6.69,2.66,2.66,0,0,1,.73-.43c.13.11-.54.44-.73.69.35-.19.06.13.78-.36,0,.05-.31.28-.49.43.36-.14.3.27,1-.33l0,0h0c.86-.26-.09.77.36.79l-.23.16c.36-.05.35.2.93-.05a2.09,2.09,0,0,1-.67.57c.25,0,.52-.19.23.24-.49.18-.35.29-.38.1-.11.28-.47.57.27.27-.64.37-.7.64-.48.58l.38-.4c.13,0,.12.11.11.22l-.82.51c-.8,1,2-.63.48.71.61-.31.3-.42,1-.81,0,.21-1.09,1.14-1.07,1.18-.33.48,1.28-.64,1.1-.25A4.51,4.51,0,0,1,27.1,51a4,4,0,0,1-1.39,1.07s0-.09.14-.16a1,1,0,0,0-.57.33l.3-.18c-.25.26-.11.42-.6.7a1,1,0,0,0,.6-.45c-.31.45.15.27,0,.63a1.77,1.77,0,0,1,.48-.36c-.2.49.61-.27.84-.18-.37.39-1.06.68-.59.6a2.71,2.71,0,0,1-1,.67c.65-.23-.18.54-.22.7l-.28.08c.16-.05.19,0,.21,0l.54-.45a.62.62,0,0,1-.28.33c.41-.21.93-.7,1.5-1-.25.26.44,0-.3.53.12-.39-.75.55-1,.46.12,0,.14,0,.07.13a.61.61,0,0,1-.22.12c-.55.66.92-.51,1-.29-.44.27-.78.61-.67.58s.69-.54,1.07-.69c-.25.36.33,0,.34.07l.11-.19c.44-.27.43-.17.62-.17-.33.24-.28.08-.41.21.82-.42-.64.77,0,.56-.25.26-.8.56-1,.75.65-.23-.48.57.08.42a2.72,2.72,0,0,1,1-.63H27l.95-.4c0-.09-.47.08-.41,0a2.12,2.12,0,0,0,.83-.52c-.79.71.64-.13.14.41l-1.42,1c-.52.63.95-.16.75.34l.19-.26c.59-.35.18.11.46,0a6.09,6.09,0,0,0-.89.73c.35-.25.08.21,1.05-.43l-.56.55c-.13.38,1.51-.71,1.47-.4a8,8,0,0,1-1.29.75c0,.07,0,.18.32,0-.28.24.75-.26.34.11.23-.12.73-.45.74-.35l-.24.16a3.36,3.36,0,0,0,.88-.54c-1.36,1.23.47.49-.7,1.55a1.37,1.37,0,0,1,.63.2c-.15.09-.24.17-.2.11-.33.48,1.44-.84,1.07-.29-.7.63-.49.18-.74.44-1.55,1.11.37.1-.45.87l-.12,0c-.46.47.76-.16.75.09a2.27,2.27,0,0,0-.23.17,2.76,2.76,0,0,1,1.6-.39,4.51,4.51,0,0,0-1,.61c.13,0,1-.71,1.25-.69A9,9,0,0,1,31,60.15L30.84,60c-.82.67.14.16,0,.34l-.38.25c.26.13,1.21-.53,1.28-.25l.27-.22c1-.52-.46.47.32.11l-.93.7a6.92,6.92,0,0,1,1.38-.33,10.44,10.44,0,0,1-1.72.67c0,.08.25.23.74-.06-.11,0-.37.15-.24,0,.81-.42,1.26-.54,1.35-.37-1.87,1.25-.2.75-1.56,1.86.87-.19.07.77.4,1,1.36-1.11.1.07,1.56-1,.14,0,.14.06,0,.13l.05-.06-.06.07h0l-.73.85c-.4.35-.37.15-.7.38,0,.25-.58.51-.9.89.51-.39.79-.46.65-.22l.6-.61c.93-.3-1.11,1.06-.18.76l-.51.25c.35-.07.28.46,1.54-.24a2.61,2.61,0,0,1-.68.47c0,.42,1.68-.21,1.09.52l-.37.23c.14,0,.74-.38.42-.06-.15.1-.38.23-.38.27s.72-.29.56-.07l-.45.22c-.29.61,1.27-.24,1.67-.17-1.06.73-1.26,1.19-1.36,1.43l-.15.1c.08.42,1.24,0,1.85,0-1,1-.06,1-.51,1.74a3.36,3.36,0,0,1,1-.58c-.17.22.86-.31-.12.35v0c-.92.71-.58.68-.53.82l1.29-.86c-1.66,1.58,1.19.33-.37,1.64.37-.15.42,0,.79-.2l-.69.47c0,.32-.06.49.26.63l-.52.28C36,72.35,38,71,38.16,71.1l-1,.75c.18.23-.56,1.1.52.71-.15.1-.45.3-.52.28.05.14-.4.93,1-.08-.91.64.08.32.56.18l-.68.44c.93-.48,1.16-.64,1.5-.64,0,.08-.38.31-.4.28-.12.23.71-.37.46,0l-.46.24c0,.16.25,0,.8-.28.32-.11,0,.36-.61.8.38-.24.92-.51.79-.31a2.72,2.72,0,0,1-.46.27c-.32.53,1-.22.42.38l-.39.3c-.09-.18-.14-.34-.08-.36A8.82,8.82,0,0,1,38,75.19c.54-.21,1.67-.72,1.47-.39a2.49,2.49,0,0,1-.21.17l-.07,0c-.05.08,0,.06.15,0-.08.11-.13.19-.12.24-.5.37-.17.35-.15.43a6.9,6.9,0,0,0,1.13-.78.11.11,0,0,1-.15,0A.16.16,0,0,0,40,75l.06,0a.64.64,0,0,1-.15-.14c.38-.18.7-.32.37,0l1.16-.66c-.89.75-1.28,1.28-1.85,1.71a2.35,2.35,0,0,0,1.92-.43c.21-.05-.32.33-.5.49s-.16,0-.36.1c.41-.1.36.27,1.26-.32-.3.43-.87.48-.59.59l-.29.16c-.49.58-.1.52.4.37a1.48,1.48,0,0,0,.15.25l.52.29c-.18.08,0,.67-.56.25.08.08.48.41.19.29l-.39-.26.42.82c-.46.09-1.48-1.1-1.82-.73A3.82,3.82,0,0,0,41,79c.06,0,.34,0,.72.26l.11.28c.61.45,1.22.92,1.81,1.29-.13.12-.22.23-.19.32A1.89,1.89,0,0,0,44,81a3.51,3.51,0,0,0,1.1.45l-.53-.71h0l.58.29-.1.23c.59.24.18-.15-.08-.45a2.47,2.47,0,0,0,.67.32L45,80.5l0,0a.15.15,0,0,1,0-.06,1.61,1.61,0,0,0,.8.48,3.62,3.62,0,0,0-.75-.54.92.92,0,0,1,.14-.14c.1,0,.14,0,.07-.06l0,0a1.71,1.71,0,0,1,.43.39.88.88,0,0,1-.15-.45l.26-.16h0l-.21.15a.47.47,0,0,0-.05-.1h0l.26,0,.34-.22.26.16a1.88,1.88,0,0,1-.2-.2l.64-.43a2.4,2.4,0,0,1,.55.34,3.36,3.36,0,0,1-.4-.44,8.58,8.58,0,0,0,1.78-1.46L48,78l.52-.43.12.11c.46-.43,0-.16-.37,0a3.64,3.64,0,0,0,.56-.48c.14.16.24.3.24.3S49,77.2,48.69,77l.05-.06a.18.18,0,0,1-.07,0L48,76.53l.19-.13a8.47,8.47,0,0,0,.83.51c-.12-.33-.86-1-.74-1.13a2,2,0,0,1,.38.26c-.2-.22-.22-.36-.2-.47l.08-.06-.08,0c0-.22.25-.36-.25-.9l.24.13c-.38-.23-.74-.47-1-.68l.18-.09.12.11L47.63,74l.09,0c.58.35.06.28.62.67-.14-.4-.67-1.12-.34-1.12.84.54,0,.57.9.86l-.46,0c1.41.71-.19.09,1.3.87.44-.16-.19-.65.26-.81-.41-.39-.69-.44-1.1-.83-.52-1,2.29,1.07,1.42,0-.49-.46-1.5-1.22-.8-1.08l.87.73c.29-.25-1.21-1.1-.38-1,.32.31.15.46.29.49.86.29-.43-.52-.33-.68l.84.53c.09-.42-.27-1.2-.18-1.67a2.3,2.3,0,0,0,.75.52c-.11-.75.74-.93,1.51-1l-.59-.67a1,1,0,0,1,.47.29c.38,0-.44-.32-.66-.6,0-.13.49.15.66.36-.4-.72-.73-1.78.24-1.58l.17.21c.44,0-1.27-1.29-.46-1.07l.1.14c.66-.34.4-1.4,1.73-1.08-1-.79.81-.23-.59-1.25.9.17,1.1.44,1.86.32.14-.07-.78-.79-.83-1l.74.51-.65-.74,1,.51-.11-.27a1.19,1.19,0,0,1-.61-.27c-.2-.45.85-.16,1.23.1l-.3-.95a2,2,0,0,1,.49.58c-.59-.8.81.49.27-.24a3.15,3.15,0,0,1-.57-.43c.53.18.71-.09.65-.43l.49.39c.37-.28.26-1,.54-1.38a2.18,2.18,0,0,1-1.2-.85l.81.5c-.43-.42-.38-.08-.87-.65.2-.1,1,.51,1.16.78l-.15-.38c.24.15.34.28.63.5-.44-.42,1,.21.22-.49l.24.15c.28-.41.13-.79.31-1.16-.67-.48-.43-.51-.91-1,.37-.11,1.09,0,1.22-.36-.2-.45-.53-.46-.87-.84.62.41.76.07,1.1.54a1.82,1.82,0,0,0,0-1.37,1.73,1.73,0,0,1-.62-.32c0-.15.38,0,.67.21l.05.07c-.59-1.17,2.56.05,1.54-1.26l0,.07-.39-.9c.23-.12.38.44.86.56-.73-1.17.62-.62.17-1.48,2,1,.54-1.13,2-.72l-.44-.28c-.36-.39.32,0,.47,0-.34-.22-.46-.16-.65-.38,0-1.23,1.77-1.36,2.73-2,.33-.25-2.1-1.72-.81-1.42l.72.66c-.53-1.32.89-1.32.5-2.53.16.17.39.34.35.4.67.26.35-.49-.12-.82.12-.06.44.28.72.38s-.52-.86.11-.53a.5.5,0,0,1,.19.23c-.23-.29.33-.37-.39-.75.48,0,0-.67.52-.59-.66-.64.62-.16-.4-.93,1.07.77,1.14.18.73-.33.3.28.43.11.84.48.1-.18,0-.48-.58-.84,1.51.58-.63-1.38,1.15-.4a7.22,7.22,0,0,1-.3-2.32c1.08.77-.22.59.93,1.36-.16-.75-.93-1.65-.39-1.91.23,0,.43.39.6.56-.17-.76.64-.79.3-1.59a.9.9,0,0,1,.24.28c0-.1.28-.06-.22-.4L71,40c-.79-.37-1.3-1.35-1.67-1.63,1.34,1.12.61-.14,2.26,1.31a1.85,1.85,0,0,0-.59-.56c.15,0,.35.11.68.44-.09-.46-.68-.73-.51-1,.24.17.3.28.57.5-.39-.45-.77-.9-.43-1,.13.11.34.22.29.28.16-.42-.84-1.49-.14-1.58,1,.84.43.1,1.35.71l-.13-.4-.5-.22c.14-.18-.41-.8,0-.76l.28.4.06-.47L72,36c-.34-.51-1.15-.77-.74-.85.06.12.13-.18.72.09h0c-.23-.29-.47-.59-.16-.58s1,.72,1.18.83c-.69-.61.08-.59-.65-1.26a4.24,4.24,0,0,0,.74.55l-.56-.5a1.47,1.47,0,0,1,.72.38c.28-.19-1.19-.71-.5-.68,0,.06.13.11.19.23.46-.14,0-.88.48-1,1,.54.06.41.89.84.1-.53-.53-1.61-.06-1.87H74.1c-1.24-1,.82.14.35-.49a3.15,3.15,0,0,0,.53.45c.38-.13,0-.78-.09-1.48l.3.28c.4,0,.44-.31.7-.38-.29-.28-.17-.34-.69-.61,2.21.76-.34-1.73,1.52-1.13,0,.06.2.34.23.29l0-.61a3,3,0,0,0-.86-.4c-.3-.28-.48-.57-.41-.68.25.44.89.62,1.25.76-.18-.1-.35-.26-.53-.38,1.13.48-1.09-.81-.24-.64l.28.22c-.08-.21-.4-.58-.24-.64.67.4.23.32.75.7.07-.19-1-1.17-.27-.88.13.2.07.3.2.49.86.37.68.21.88.18h0l.52-.05L78,27.17c-1.55-1.37,0-.63-1-1.67.86,1,.57.46,1.29,1a1.87,1.87,0,0,1,.73.29c-.51-.54.6.1-.14-.68.24.15.11-.13.68.31-.07-.3-.43-.24-.72-.46-.63-.82,1.37.06.51-1.09-.24-.64-1-1.25-1.19-1.83a2.07,2.07,0,0,1,.8.68c.45.08.47-.09.3-.43a2.11,2.11,0,0,0,.67.39c0-.16-.8-.67-.35-.6.24.21.64.54.86.78-.12-.3-.47-.75-.58-1.05A3.12,3.12,0,0,1,80.67,23.57ZM45.39,68c0-.14.09-.07.24,0a.52.52,0,0,0,0,.18l.08.06A2.37,2.37,0,0,1,45.39,68Zm-6.27,7.47c-.13,0,0-.08.13-.19a.21.21,0,0,0,.13,0l.09-.06Zm8.26-1.7s0,.06,0,.1l-.21.06C47.16,73.77,46.84,73.43,47.38,73.76Zm-2.91-.92.35-.21a.72.72,0,0,1,0,.19C44.48,73,44.2,73.16,44.47,72.84Zm0-.43.18-.07a.61.61,0,0,0,.07.14C44.48,72.63,44.27,72.73,44.51,72.41Zm-.15,0,.26-.19a.2.2,0,0,1,0,.08C44.51,72.38,44.38,72.45,44.36,72.41Zm3.3,5.34Zm-.26.06.16-.15.06,0A1.38,1.38,0,0,1,47.4,77.81Zm.24-.22.3-.24.12.07-.36.25Zm.16-.26.05,0h0Zm-.28-.11.07-.06h0Zm.15-.14c.17-.21-.06-.17.1-.35.23.11.41.22.51.27-.2,0-.22-.06-.57.12Zm-.17-.39,0-.06h0l.11,0ZM44.24,71.5c0,.09.09.18.14.28a1.21,1.21,0,0,1-.53,0Zm-.6.38.08,0-.1,0Zm-.21-.27a.19.19,0,0,0,0,.14c-.23.17-.47.33-.48.29C43.17,72,43.26,71.79,43.43,71.61Zm-1.37,5c.28-.07.48-.08.44.09Zm2.65,3.47a.61.61,0,0,1-.13-.15h0l.19.09A.27.27,0,0,0,44.71,80.08Zm4.11-2.91-1.09.55h0c.13-.1.26-.18.38-.26l.07,0-.06,0a3,3,0,0,0,.55-.4ZM48.64,77c-.2.12-.39.26-.57.39L48,77.32c.08-.06.07-.08-.05,0l0,0a4.12,4.12,0,0,1,.42-.26c.06,0,.09,0,.08,0a.05.05,0,0,1,0,0h0l0-.13A1.11,1.11,0,0,1,48.64,77ZM48,76.5l-.15-.12c.07-.06.09-.1.09-.14a1.15,1.15,0,0,1,.29.15Zm-.56-2.4-.14-.1.17-.14a.92.92,0,0,0,.14.13ZM47.6,74l-.07-.12.14.08Zm2.79-3.06s0-.07,0-.15h0A.44.44,0,0,0,50.39,70.91Zm.14-.43c-.24-.14-.48-.33-.43-.36.14.13.34.12.58.19A.42.42,0,0,0,50.53,70.48Z"/><path class="cls-1" d="M48.14,66.11h0A.08.08,0,0,0,48.14,66.11Z"/><path class="cls-1" d="M46.19,68.73s0,0,0,.07l.18.06-.19-.17S46.2,68.72,46.19,68.73Z"/><path class="cls-1" d="M73,29.08l.11,0-.09,0Z"/><polygon class="cls-1" points="55.91 65.06 55.73 64.94 55.86 65.09 55.91 65.06"/><path class="cls-1" d="M77.72,27.29h.34A1,1,0,0,0,77.72,27.29Z"/><path class="cls-1" d="M78.58,26.71l-.28-.22h0Z"/><path class="cls-1" d="M71.09,40.2a.13.13,0,0,0,0,.06C71.19,40.42,71.17,40.34,71.09,40.2Z"/><path class="cls-1" d="M72,35.25a3.72,3.72,0,0,1,.24.35C72.31,35.57,72.36,35.52,72,35.25Z"/><path class="cls-1" d="M69.16,45.07h0s0,0,0,0Z"/><path class="cls-1" d="M72.09,35.77c.18,0,.19-.05.13-.17S72,35.64,72.09,35.77Z"/><path class="cls-1" d="M81.14,23.39l0,0-.1-.08Z"/><path class="cls-1" d="M81.09,23.29l0-.1S81,23.23,81.09,23.29Z"/><path class="cls-1" d="M80.92,23l.12.21S81.1,23.14,80.92,23Z"/><path class="cls-1" d="M80.38,24.43l-.24-.18Z"/><path class="cls-1" d="M80.38,24.43c.33.31-.75-.16-.38.2.11,0,.65.17.56-.05Z"/><path class="cls-1" d="M76.09,23.89l.37-.14c-.29-.14-.68-.32-.66-.49C74.8,23.07,76.43,23.6,76.09,23.89Z"/><path class="cls-1" d="M75.17,24.47c0-.23-.38-.26-.52-.37C74.82,24.36,74.87,24.42,75.17,24.47Z"/><path class="cls-1" d="M71.23,30.62l-.6-.44C70.64,30.36,70.86,30.35,71.23,30.62Z"/><polygon class="cls-1" points="73.66 34.01 74.12 34.17 73.59 33.72 73.66 34.01"/><polygon class="cls-1" points="68.83 31.66 68.78 31.55 68.88 31.89 68.83 31.66"/><path class="cls-1" d="M63.23,42.63c-.09-.17-.93-.78-.78-.49Z"/><path class="cls-1" d="M60.37,47.14c-.41-.22-.74-.26-.41.07C60.07,47.15,60.43,47.25,60.37,47.14Z"/><polygon class="cls-1" points="50.38 59.38 50.48 59.7 50.58 59.65 50.38 59.38"/><path class="cls-1" d="M23.67,40.46l-.27.07c-.22.12-.68.46-.55.45Z"/><path class="cls-1" d="M24,40.77c-.8.47-.49.23-1.45.79-.13,0,.19-.27.49-.46-.21.12.12-.21-.4.11-.57.49-.54.6,0,.35a6.32,6.32,0,0,1-.54.36A10.06,10.06,0,0,0,24,40.77Z"/><path class="cls-1" d="M25.85,51.92a.29.29,0,0,0,.19-.08A.35.35,0,0,0,25.85,51.92Z"/><path class="cls-1" d="M25.53,53a.36.36,0,0,0,0-.07C25.5,53,25.46,53.05,25.53,53Z"/><path class="cls-1" d="M24.16,48.45c.26-.17.16-.18.19-.26Z"/><path class="cls-1" d="M24.56,41.33a1.56,1.56,0,0,0-.24.1h.11Z"/><path class="cls-1" d="M22.77,47.16l0,0-.34.2Z"/><path class="cls-1" d="M22.9,45.5a2,2,0,0,1-.5.26l-.48.35S22.59,45.69,22.9,45.5Z"/><path class="cls-1" d="M23.14,48.07l-.24.18Z"/><path class="cls-1" d="M25.32,54.67v0C25.24,54.68,25.26,54.69,25.32,54.67Z"/><path class="cls-1" d="M31.93,63.94c.54-.53.89-.36,1.46-1A7.39,7.39,0,0,0,31.93,63.94Z"/><path class="cls-1" d="M27.55,56.57a2.64,2.64,0,0,0-.28.23Z"/><path class="cls-1" d="M27.09,54.34l-.06.1C27.08,54.38,27.09,54.35,27.09,54.34Z"/><path class="cls-1" d="M28.82,57.07c0,.06-.13.13,0,.1l.08-.06C28.78,57.16,28.73,57.17,28.82,57.07Z"/><path class="cls-1" d="M29.44,58l.12-.11h0Z"/><path class="cls-1" d="M24.49,41.43h-.06l-.25.18A1.25,1.25,0,0,1,24.49,41.43Z"/><path class="cls-1" d="M34.19,53.42v.22A.24.24,0,0,0,34.19,53.42Z"/><path class="cls-1" d="M41.65,66.63l.11,0S41.74,66.59,41.65,66.63Z"/><path class="cls-1" d="M34.58,54a3,3,0,0,0-.41.41l.18-.1Z"/><path class="cls-1" d="M39.11,73l0,0Z"/><path class="cls-1" d="M22.81,41.84l0-.06S22.8,41.83,22.81,41.84Z"/><path class="cls-1" d="M41.61,66l.15-.06Z"/><path class="cls-1" d="M40.06,74.93l.06,0,.13-.13-.22.13Z"/><path class="cls-1" d="M24.43,48.09a.3.3,0,0,1,.08-.08l-.07.06Z"/><polygon class="cls-1" points="42.19 66.72 42.02 66.84 42.19 66.77 42.19 66.72"/><path class="cls-1" d="M25.47,44.08l.18-.26A1.09,1.09,0,0,0,25.47,44.08Z"/><path class="cls-1" d="M25.47,43.32l-.3.19h0Z"/><path class="cls-1" d="M31.6,51.17h0C31.81,51.12,31.73,51.13,31.6,51.17Z"/><path class="cls-1" d="M28.43,49.76l.37-.14C28.83,49.54,28.82,49.5,28.43,49.76Z"/><path class="cls-1" d="M34.19,53.39h0a0,0,0,0,1,0,0Z"/><path class="cls-1" d="M28.86,49.75c.11-.14.06-.16-.06-.13S28.74,49.78,28.86,49.75Z"/><path class="cls-1" d="M24.34,40.78l-.11.07.09,0Z"/><path class="cls-1" d="M24.23,40.85l-.1,0S24.15,40.9,24.23,40.85Z"/><path class="cls-1" d="M24.13,40.88s0-.07-.21,0Z"/><path class="cls-1" d="M24.66,41.9c0-.09.45-.49.25-.45l-.2.12C25.09,41.36,24.22,42.14,24.66,41.9Z"/><path class="cls-1" d="M22.19,44.89l.08-.32c-.24.21-.57.5-.68.46C21,45.79,22.14,44.58,22.19,44.89Z"/><path class="cls-1" d="M22.16,45.7c-.19,0-.38.26-.54.36A.92.92,0,0,0,22.16,45.7Z"/><path class="cls-1" d="M24.69,49.69l-.63.42C24.2,50.12,24.3,49.94,24.69,49.69Z"/><polygon class="cls-1" points="28.36 48.25 28.7 47.91 28.11 48.27 28.36 48.25"/><polygon class="cls-1" points="24.14 51.76 24.45 51.73 24.25 51.73 24.14 51.76"/><path class="cls-1" d="M28.73,58.28l.74-.55C29.31,57.78,28.44,58.36,28.73,58.28Z"/><path class="cls-1" d="M31.34,60.64c-.36.29-.55.54-.15.34C31.2,60.87,31.46,60.6,31.34,60.64Z"/><polygon class="cls-1" points="35.6 70.25 35.61 70.17 35.32 70.28 35.6 70.25"/></g></g></g></svg>