<svg xmlns="http://www.w3.org/2000/svg" viewBox="0 0 701.39 80"><defs><style>.cls-1{fill:#fff;}</style></defs><g id="Layer_2" data-name="Layer 2"><g id="Layer_1-2" data-name="Layer 1"><path d="M701.18,65v-.29c.22-.13.32-.25,0-.37V22.41l.08.43-.08-1.28v-5.5a8.26,8.26,0,0,1,.13,1.77c.08-1.45.08-2.52.06-3.26l-1.77.06c-.57,0-1.26,0-2.33-.08-.38,0-.21-.06.14-.08l-3.9.13c.76-.09-.65-.29,1.75-.23-7-.24-11.3.31-13.94,0l.58,0c-7.27.1-4.19.22-5.23.42h-4.55l-3.36-.51-1,.3c-1,0-3,0-2.62-.15-3.73.21.64.13-1.53.33-4.83-.28-13.32.13-14.4-.36-1.74.23,4.61.18-.54.34-1.47-.52-6,.09-10.37-.15,1.35-.27,5.53-.13,1.12-.37-2.67.46-8.59-.1-12.32,0-.17.36-8.09.15-14.33.27.39-.12-11.75-.2-17.56-.33l.17-.06c-1.12.37-7.12.3-11.48.37.17-.22,1-.3,3.32-.4h-4.1a48.37,48.37,0,0,1-4.91.22l1-.27c-5.45,0-11,.32-18,.14-.27.17,2.38.44,1.82.64h-3.81a4.3,4.3,0,0,1,1.54-.19c-.64,0-2.27.11-3.55.06l3-.24c-3.2-.1-1.67.2-4.23.18,0-.2-1.89-.14-1.52-.3.65,0,2.23.08,3.21,0-2.89,0-6.37-.15-7.52-.3.25.11,0,.27-2.12.29-5.46,0-1.86-.24-5-.34-1.32.14-4.8,0-4.89.29a11.9,11.9,0,0,1-2.52-.22c-2.82.13-13.19,0-10,.36l.73,0h-.46c-9.26.29-19.24-.17-28.43,0l0-.1c-5.49.11-12.21.07-16.13.28-1.62,0-3.83-.18-3.13-.3-4.2.07-4.67.19-10.72,0,4.21-.17-1.46-.15,4.32-.12-5.45-.09-6.69-.25-12.53,0,2-.25-4.11-.32-6.7-.24l3.82.18c-2.91,0-5.46,0-8,0l1.4-.33c-11.15-.4-20.11.69-28.6,0-2.94.24,6.06.17,3.42.44-5.13,0-10.47-.52-12.07-.52-7-.19-6.56.48-13.91.36.94.11,1.83.43-3.66.54-5.14,0-6.31-.5-3.07-.59a7.4,7.4,0,0,1,1.77.07c1.66-.05,3.83-.1,1.8-.23l-.66.12c-2.55-.12-9.61-.11-7.95-.3-3.32.1-2.17.17,0,.23-5.87-.13-9.52,0-15.88-.09,1.08.06,2.07.2,1,.2-9.94-.15-4.37.22-11.11.28-3.82-.18,1.37-.44-5.41-.28-4.13-.13-.87-.32.77-.42-6.17.23-11.54-.15-15.06-.19l3.25-.09c-1.94.05-3.54.05-5.16.05l1.86.24a24.34,24.34,0,0,1-3.49-.14c-2,.15,1.5.39-2.4.6-2.55-.12-7.76.13-8.64-.18,7.26.1.64-.24,4.38-.34l-3.3,0c-.29,0,.27-.07.79-.09-7.66-.28-3.52.36-11.46.35,1-.18-1.84-.33-3.14-.3,3.2,0,1.53.3-1.4.44-5.09-.14-5.54.1-8.2.08l3,.07c-1,.17-3.58.15-7.13.21-.3-.14,3.23-.1,2-.16-3.94.31-8.91-.32-14.4-.11-2.55-.12-.25-.34-2.48-.42-6.16.23-6.67-.24-13.15-.05,1.87.24,2.19.18-2.36.41l10.64-.16-6.83.34c3.21,0,6.78-.15,8.7-.11-3.25.2-2.92.14-1.38.34-4.4-.36-8.72.2-13.8,0l.16-.59c-7.64-.26-13.57.31-23.49.16l3.19.1c-1.33.23-6.12,0-9.34.13.3-.2-1.71-.27-3.08-.4.17.15-7.26,0-8.16.39l-4.42-.26c-8-.11-9.14.56-16.84.49,2.32-.21-1.18-.35,4-.51a38.15,38.15,0,0,0-4.93.1c-1.5-.12-7.12.27-9.49.08a26.06,26.06,0,0,1-4.32.28c-.19,0-.15-.06-.08-.08-.61.08-4.22.13-1.9.33-7.92-.61-22.13.05-29-.48l-17.46.14c.33-.06,0-.1,1-.08-7-.18-4.31.57-12.31.36-4.08-.31,4.25-.17,1.7-.29-1.11-.65-9.65.09-15-.29l1.31,0c-4.11-.22-10,.25-16.75.2,0,0,.32-.06,0-.1-4.6.34-13.29.45-19.76.54,2-.26,2.94-.14,1.71-.4-2.9,0,.85.42-4.93.49-1.88-.14-6.05-.26-6.61-.53l5.46,0c-2.8-.36-7.06,0-9.94-.05l.37-.16c-8.36.06-8.47.45-17.46.42l.93.12c-4.91.39-4.12-.22-9,.07L41,14c-3.24.1-11.34.39-17.15.46,3.29-.29,10.09-.44,14.29-.62-3.21,0-10.91,0-12.58.23,1.29,0,2.92-.14,4.2-.08q-5.91.47-15.52.46c.37-.25-1.29-.36-3.84-.41L6.06,14,.38,14c0,1.14,0,2.25,0,3.31,0,.81,0,1.58,0,2.29C.25,21,.18,22.18.08,23,.36,34.31,0,45.44,0,58.63c.6-4.68,0,3.85.63,3,0,1.78,0,3,0,3.83.92,0,1.39,0,1.58,0l-.85,0,.88,0h0l9.43.36c2.21.18-2.92.14-2.64.27,6.73,0,2.82.26,7.27.43-.91-.22,2.34-.32,6.18-.23l-5.4-.29c9.4-.32,8.12.52,17.6.2l-3,.19c4.86-.12,17.93,0,22.7-.49.86.07,2,.24-.14.28,11.61.08,25.86-.52,34.89-.22l-.88.15c2.16,0,3.77-.28,6.48-.13-.14.06-.87.15.13.16,1.15,0,5.76-.26,8.63-.18l-2.45.17c11.33.2,17.39-.41,26.9-.51,0,.44,8.89.58,13.34.65l-.16.07c13.2,0,22.42-.37,34.64-.54,7.59.48,25.7.2,37.89.47-1.87-.08.3-.35,2.47-.39,2.86.09,7.91-.3,7.45.1h-1c2.16.4,8,.29,12.63.3l.76-.53c12,.77,31.46-.28,38,.41,2.89-.13,6.48-.13,9.36-.26l-.16.28c8,.07,12,.11,22,0l-2,.2c5.6,0,7.07-.81,12.23-.83l1.55.42c9.77,0,19.66.37,29.31,0a5.26,5.26,0,0,1-2,.21c4.43,0,16.86.26,16.23-.24,1.13.28,10.26,0,15.23-.19l-.82.28c4.45-.36,4.6-.45,10.81-.55,1.48,0,1.29.22-.66.15,4.91.15,3.82-.26,9.77-.12l-2.21.18A55.47,55.47,0,0,0,400,65.5a79.23,79.23,0,0,1,10.32.32,39,39,0,0,1,6.43-.28c.4.09-.68.15-1.23.18,8.45.19,12.56-.32,18.37,0a2.57,2.57,0,0,0,1,.17c-6.17,0-11.23,0-11.61,0,.07.25,5.39.3,1.11.65,4.35-.19,11.79-.61,17.07-.49a5.75,5.75,0,0,1,.7.09l-.55,0c1.22,0,2.31,0,3.34,0,1.69,0,2.76.08,4.38.08.62.21,6.21.12,8.92.13-.23-.29,3.31-.24,0-.47a17.93,17.93,0,0,1-2.31,0l-1.15,0,.18,0-6.72,0a55.62,55.62,0,0,1,7.36-.11c1.38-.18,2.91-.37,3.77-.45,3.7.39,10.83.6,11.82.84,8.25-.16,19.44-.1,24.63-.63a16,16,0,0,1,3.57.23c-1.35.06-3,0-3.7.12,4.69-.13,13.9,0,15-.42,5.91.17-3.32.34,4.8.28l-1.1.12c16,.58,26-.95,43.71-.19a18.61,18.61,0,0,1-2.1-.13c20.21.33,41.63-.31,61.57.22a88,88,0,0,0,9.74-.31l1.22.3,5.92-.35c8.38-.25,14.51.74,25.13.26l-1.37-.2c3.81,0,12.07-.12,11.44.11a12,12,0,0,1,2.74-.1l.11.15,9.37-.27c7.26.12-1.14.63,9.46.66,3.93-.06,11.21-.46,9.73-.56a22.66,22.66,0,0,1-4.18-.26l3.6-.08.06,0v0h-.07c-.07.05-.15.1-.15.15l.24,0c0,.21.09.21.14,0l.49-.1h-.48a.25.25,0,0,1,0-.08Zm-248,1.09.22,0a4.18,4.18,0,0,1-.71.14,13.48,13.48,0,0,1-2.65-.07ZM695.72,14.72l.52,0h-2.31Z"/><path d="M525.34,14.34l-1.37,0Z"/><path d="M392.14,14.12a8.51,8.51,0,0,0,1.47-.07A7.24,7.24,0,0,0,392.14,14.12Z"/><path d="M369.63,13.75l1.32,0A12.58,12.58,0,0,0,369.63,13.75Z"/><path d="M524,14.3l-3.52-.1A25.11,25.11,0,0,0,524,14.3Z"/><path d="M582.09,14h1.07l.89-.13Z"/><path d="M626.69,14a3.91,3.91,0,0,0-1.75.39,13.85,13.85,0,0,1,2.2-.19S627,14.06,626.69,14Z"/><path d="M698.13,14.45h0Z"/><path d="M697.41,14.47l.72,0Z"/><path d="M550.17,14a1.43,1.43,0,0,0-.41-.1S549.92,13.94,550.17,14Z"/><path d="M328.43,13.39h.19C329.7,13.37,329.09,13.37,328.43,13.39Z"/><path d="M.43,65.73a18.52,18.52,0,0,0-.2-2c-.06-.24-.13.2-.18,2.34l1.17,0a11.13,11.13,0,0,1-1.14-.06c0-.73.08-.6.11-.11l2.2-.09.94,0,.68,0c.37,0,.56-.07.36-.11a5.7,5.7,0,0,0-.61-.06l-.58,0-.91,0A6.9,6.9,0,0,1,.43,65.73Z"/><path d="M234.48,13.68a5.06,5.06,0,0,0-1-.12A6.83,6.83,0,0,0,234.48,13.68Z"/><path d="M304.23,14l-1.75,0C303.17,14,303.73,14,304.23,14Z"/><path d="M196,13.94c-.48,0-.92,0-1.8,0l.39,0C195,13.94,195.4,13.93,196,13.94Z"/><path d="M196,13.94l.77,0Z"/><path d="M158.59,14l.7.06,1.21,0Z"/><path d="M190.22,14.17c.05,0,.09,0,.09,0Z"/><path d="M423.23,65.8h0S423.2,65.8,423.23,65.8Z"/><path d="M330.94,13.51c.54,0,1.05,0,1.52,0C331.82,13.49,331.32,13.49,330.94,13.51Z"/><path d="M455.89,65.81l.74,0-1.07-.06-.64.09Z"/><path d="M525.34,14.34l.41,0-.17,0Z"/><path d="M525.85,14.38h0Z"/><path d="M662.55,14.08c-8.82-.32,1.83.24-7.35.2l7,.08C661,14.25,659.37,14.11,662.55,14.08Z"/><path d="M633.65,13.9c-2.39.1-3,.13-.16.22C637.25,14.07,633.45,14,633.65,13.9Z"/><path d="M476.6,14.12l.38-.25C474.08,13.9,477,14,476.6,14.12Z"/><polygon points="430.15 13.58 425.32 13.68 428.89 13.62 430.15 13.58"/><path d="M165.39,13.71l.87.32C168.22,14,168.63,13.62,165.39,13.71Z"/><path d="M51.63,14a42.39,42.39,0,0,0-6.41-.1C47.78,14,50.33,14.07,51.63,14Z"/><polygon points="239.38 66.33 243.7 66.24 241.67 66.22 239.38 66.33"/><path class="cls-1" d="M390,41.42c-.27-.62-1.49-.26-1.21-.28C388.74,41.5,389.83,41.37,390,41.42Z"/><polygon class="cls-1" points="386.28 35.57 385.07 34.94 385.82 35.55 386.28 35.57"/><path class="cls-1" d="M384.65,33.48l1.58.09c-.52-1.09-1.85-2.25-1.57-3.17-1.66,1,.78,1.75.37,2.84Z"/><path class="cls-1" d="M387.5,27a1.11,1.11,0,0,1,.12-.18,2.84,2.84,0,0,1-.17-.58C386.84,26.71,386.63,25.86,387.5,27Z"/><path class="cls-1" d="M387.62,26.84c.27.56.43-.6,0,0Z"/><path class="cls-1" d="M387.56,23.94c-.69-.62-1-.27-1.44.45l.95.47C387.39,24.53,387.16,23.82,387.56,23.94Z"/><path class="cls-1" d="M384.56,24.3l.43.25C385.12,24.41,385.13,24.28,384.56,24.3Z"/><path class="cls-1" d="M385.35,24.81c-.53.17,0,.1.54.27l-.9-.53C384.76,24.78,384.22,25,385.35,24.81Z"/><path class="cls-1" d="M385.84,25.64c-.17.56-.22,1.18-1.11.72C385.49,27.62,386.68,26.94,385.84,25.64Z"/><path class="cls-1" d="M384.08,20.86c.08-.4,0-1,.46-1.37-.36.17-.75.79-1.16,1.1Z"/><path class="cls-1" d="M383.38,20.59l-1-.37C382.68,20.91,383,20.86,383.38,20.59Z"/><path class="cls-1" d="M384.53,25.71c-.68-.3-1.36-.58-2-.84l.13.22C383.26,25.28,383.89,25.49,384.53,25.71Z"/><polygon class="cls-1" points="382.6 16.6 383.66 16.48 381.99 16.57 382.6 16.6"/><path class="cls-1" d="M381.06,14.89c.84-.2.63-1.22,1.27-1.22a3.52,3.52,0,0,0-2.17-.34C380.75,13.49,381.07,14,381.06,14.89Z"/><path class="cls-1" d="M380.16,13.33a2.56,2.56,0,0,0-1.18,0A5.66,5.66,0,0,0,380.16,13.33Z"/><path class="cls-1" d="M381.5,18.61l.19.28a1.58,1.58,0,0,0,.51-1.21Z"/><path class="cls-1" d="M381.48,18.64l0,0-.39-.63C381.15,18.06,381.26,18.26,381.48,18.64Z"/><path class="cls-1" d="M381.74,19l-.05-.07C381.62,19,381.6,19,381.74,19Z"/><path class="cls-1" d="M380.31,23.39c.84-.09,1-.84,2.22-.68C381.72,22.58,380.64,22.1,380.31,23.39Z"/><path class="cls-1" d="M381.09,21c.24-.17.52-.55.91-.51-.4-.13-.77-.27-1.17-.38C380.93,20.37,381,20.68,381.09,21Z"/><polygon class="cls-1" points="380.28 19.94 380.83 20.08 380.71 19.77 380.28 19.94"/><path class="cls-1" d="M379.3,15.21a1.82,1.82,0,0,1-1.35-.57,4,4,0,0,0,.81,1.38C379.08,15.85,379.71,15.61,379.3,15.21Z"/><path class="cls-1" d="M380.33,16.91l-.1,0C380.19,17,380.19,17,380.33,16.91Z"/><path class="cls-1" d="M374.46,11.33c0,.07,0,.14-.07.21l.14-.14Z"/><path class="cls-1" d="M378.66,16.22c.1.43.46.43.88.37a2.7,2.7,0,0,1-.78-.57C378.62,16.1,378.54,16.17,378.66,16.22Z"/><path class="cls-1" d="M377.64,12.69c0,.31,0,.61.06.92C377.82,13.21,377.9,12.53,377.64,12.69Z"/><path class="cls-1" d="M380.39,16.58l.07,0C380.57,16.34,380.49,16.43,380.39,16.58Z"/><path class="cls-1" d="M380.39,16.58a2.7,2.7,0,0,0-.85,0,1.91,1.91,0,0,0,.69.29A1.26,1.26,0,0,1,380.39,16.58Z"/><path class="cls-1" d="M375.59,12.76l.37.16a3.85,3.85,0,0,1,0-1.92,1.7,1.7,0,0,0-1.4.4l1.26,1.33Z"/><path class="cls-1" d="M377.17,14.05c-1,.56-2,.36-2.44,1.56.79.65,1.17-.15,2,0-1.36-1.06.79-.07.4-1.43a2.7,2.7,0,0,1,.86.49,5.74,5.74,0,0,1-.25-1,.24.24,0,0,0,0,.08h0l0,0c-.05.15-.09.23-.09.11h0a1.81,1.81,0,0,1-.36.23c-.18-.53.15-.26.36-.23l.13-.1v0c-.55-.3-1.16-.52-1.72-.77C376.12,13.29,376.5,13.55,377.17,14.05Z"/><path class="cls-1" d="M379.75,21l.17-.17S379.82,20.94,379.75,21Z"/><path class="cls-1" d="M375.61,10c-.58.22-1.18.5-1.75.76l.83,0Z"/><polygon class="cls-1" points="373.74 8.96 372.94 9.15 373.06 9.74 373.74 8.96"/><path class="cls-1" d="M328.29,7.89c-1.05-.49-2.53-1.34-1.81-.42l.8.84A.94.94,0,0,1,328.29,7.89Z"/><path class="cls-1" d="M354.81,2.69a2.83,2.83,0,0,0-1.27-.88C354.13,2.55,354.51,3.6,354.81,2.69Z"/><path class="cls-1" d="M315,60.13a.86.86,0,0,0,.8,0A.72.72,0,0,0,315,60.13Z"/><path class="cls-1" d="M353.54,1.81c-.44-.55-1-.85-1.6-.1a3.63,3.63,0,0,0,.27.28A2,2,0,0,1,353.54,1.81Z"/><path class="cls-1" d="M387.06,46.47a2.22,2.22,0,0,1,0,.72C387.14,47.07,387.16,46.86,387.06,46.47Z"/><path class="cls-1" d="M366.6,5.29c.41.11.11-.09,0,0Z"/><path class="cls-1" d="M366.93,6a1.71,1.71,0,0,0-.32-.53A2,2,0,0,0,366.93,6Z"/><path class="cls-1" d="M367.1,5.51c.11.1.19.18.28.25C367.51,5.62,367.52,5.49,367.1,5.51Z"/><path class="cls-1" d="M366.05,5.09a1.6,1.6,0,0,1,.56.4c0-.1-.05-.18,0-.2C366.48,5.25,366.32,5.2,366.05,5.09Z"/><path class="cls-1" d="M387,47.19c-.26.32-1.12-.18-1.75-.21.67-.6,1.38-1.24,2-1.91-1.71-.55,0-2.35-1.64-2.64l.26.68a3.73,3.73,0,0,0-2.58-.06c.09-1,.16-2,.16-3a34.89,34.89,0,0,0-1.11-8.6l.68.24c-.35-.13.21-1.12-.36-.91a5.24,5.24,0,0,1-.34.61,34.28,34.28,0,0,0-3.21-8.2s0,0,0,0h0l-.13-.21a5.5,5.5,0,0,1,.73-1.85,13.68,13.68,0,0,0-1.11,1.21,38.13,38.13,0,0,0-2.24-3.34l.1-.1c.31.72.75.16,1.17,0a13.31,13.31,0,0,0-1.3-.67l-.16.58a33.61,33.61,0,0,0-3.52-3.93,12.74,12.74,0,0,0,1.7-3.2,1.72,1.72,0,0,1-1.66.58c-.06.55.47,2-.32,2.37-.28-.27-.56-.53-.85-.78a2,2,0,0,0,.09-.72,1.17,1.17,0,0,1-.34.49,35.94,35.94,0,0,0-3.09-2.4l-.1-1.11c1.12-.24,3.06-1.14,3.66,0,.49-1.59-.3,0,.08-2-.68,2.27-2.46-1.61-2.78,1,.4-2.24-.7-1.54-.83-3.63-.21.48-.12,1.06-.87.41a2.24,2.24,0,0,1-.4.32L366.93,6l0,.08c-.07.05-.08.06,0,0a1.62,1.62,0,0,1,.07.92c-1,.87-2.26.22-2.95.58-.38-.45.45-.45.41-1.09q-.53.25-1.05.57c.4-1.1-.66-2.32.85-2.49l-1.12-.47c-.45-.85-1.33-1.46-2.06-1.17-.5-.4-1.77.88-1,.12l-2,.23,0-.29c-.88-.33-1.94,0-2.93.12a3.26,3.26,0,0,1-3-1.17,2.83,2.83,0,0,1-2.34.21l-.19-1c-.8.3-2.51-.93-2.82.13A2,2,0,0,0,344.2.14c-1.09.29-2.17.87-2.95.75l.2,1.31a6,6,0,0,0-2.86,1.54L339,4.85c-.71,1.11-2.72,0-4.24.66-.06-.46.38-.49.74-.34a1.72,1.72,0,0,0-1.72-.26,3.51,3.51,0,0,0-1.16,1.17c-.66,1-1.22,1.9-2.44,1.52a.65.65,0,0,1-.92.53A.17.17,0,0,0,329.3,8a1.18,1.18,0,0,0-.16.08c-.27-.07-.57-.16-.85-.21a3,3,0,0,0,.77.27,3.15,3.15,0,0,0-.91,1.09l-.87-.94s-.06,0-.09.09c-.69-.12,0,.7.75,1.35a2.33,2.33,0,0,0-.1,1c-1.5-1.42-.62,1.31-2.35-.1.19.52-.19,1-.45,1.67a2.37,2.37,0,0,0,0,1.78l-.32.29a.93.93,0,0,0-.59.54l-.28.26-1-.82c.13.48.29,1,.45,1.46l-.62.69A1.87,1.87,0,0,1,321.29,15c.2,2.25-.3,1.73-.07,3.13-.09.1-.16.21-.25.32l-.39-.36a2.08,2.08,0,0,0-.05,1c-.18.23-.35.45-.52.69-1.11-.11-2.06,1-2.92,2.38s-1.76,3.05-3.27,4.06c1.53.35,1.05.51.49.75s-1.22.56-.13,1c-.74-.1-1.27.17-1.68-.53.14,1.72-2,1.91-.3,3.54-.75,0-.93-.61-1.39-.58.12.17.48.67,0,.71s-.53-.38-.76-.72c-.32,1.68,1.82,2.34,3.83,2.91-1.12.49-1.1.92,0,1.64a.59.59,0,0,0,0,.14c-.67.14-1.33.35-1.42-.56-.17.49-1.51,3.16.19,3.38-.44.12-.17.73,0,.88a7.84,7.84,0,0,0-.22,2.45l.29-.32a2.65,2.65,0,0,1,.81.3c0,.27,0,.54,0,.81a1,1,0,0,0-.11.76l-.21,0c-.68,1.09-.49,1.33-.33,1.54s.24.41-.41,1.56l1.23-.26H314c.06.41.1.82.18,1.23-.49.63-1,1.42-.48,1.88l.63-.57c.49.24-.29.85-1.22,1.55s-2,1.5-2.08,1.9c-.19.21-.43-.15-.65-.33-1.05,2.3,1.66-.17,2.38,1.06-.78.51-2.28.32-2.14,1.31-.26.34.67.79,1.51,1.34s1.54,1.19,1.07,2.1c.5-.53,1-1,1.76-.67.32.38,0,1.23-.07,2s.05,1.46,1.24,1.3a1,1,0,0,1-.37.42c.87.37,2.06,1.6,3.26,1.31-1.64,1.48-.46,2.14.62,2.63s2.16.8.65,2.09L322,67.7l-.33.24c.84,1.26,1.95.87,2.95.51.06.42-.37.54-.53.67,1,2,1.45,2,4,1.48l-.62,1.16c.42-.16.72.71,1.36,1.55s1.48,1.81,2.8,1.59a1.11,1.11,0,0,1-.48.41c1.44-.17,2.29,1.31,3.31,2.22s2.06,1.39,3.19-.71a18,18,0,0,0,1.8-.69c-1.42-.67,0-1.49.3-2.28l.83.22c.2.5.18,1.06-.32,1.07l-.08-.27c-1,2.28,2.09,1.46,1.71,3,3.84.63,7.69,2.06,11.56,1.82l-.62-1.85c.42,0,.84,0,1.27-.06.39.39.66,1.41-.29,1.47.65,1,1.44-1.13,1.38-1.54,1.93.48-.34,2.3.21,2.26l.76-.26-.22-.19c.49-.89.39-1.63,1.47-1.82.77.2.63,1,.92,1.06,0,.13.14.17.43-.06l1.68-.26-1.07-1.28c.5-.89,1.48-.32.28-1.75.89,1.12,2.4.8,3.77.31s2.49-1.4,3-1.17a3.52,3.52,0,0,1,2.31-2.4c-.43-.11-1.47-1.46-.52-1.8.8,1.55,1.43,1.66,2.09,1.49a2.55,2.55,0,0,1,2.5.21c-.83-.43-.27-1,.17-1.54s.7-1.24-.5-1.74c.83-.36.89,1,1.94,1.14.32-1.25,1.38-1.78,2.44-2.5s2.36-1.35,2.95-2.59c-.34-.31-1.16-.4-1.37-1.25.88.1,1.78.19,2.69.25.13-.58-1.87-1.86-.05-1.79-.4-.09-1-.25-.93-.62,2.31-1.51,3.2-4.12,3.91-6.6a28.25,28.25,0,0,1,1.31-3.68A12.52,12.52,0,0,1,388,47.65C387,48.23,387,47.73,387,47.19ZM367.61,9.55l-.38.91-.45-.27a.37.37,0,0,0-.19-.11c-.49-.3-1-.62-1.49-.9C366,8.86,367.06,8.61,367.61,9.55Zm-5.57-5-.05,0C361.52,3.89,361.68,4.15,362,4.53Zm-.61,1.56a2.76,2.76,0,0,1-.07,1.38c-.84-.33-1.68-.66-2.54-.92l.46-.42C360,5.47,360.65,4.94,361.43,6.09ZM356.77,6l-.68-.17C356.5,5.77,356.68,5.86,356.77,6ZM335.2,7.63,335,7.7c.06-.11.12-.23.18-.33C335.19,7.44,335.2,7.55,335.2,7.63Zm-1.37.47.11.11-.17.08A1.06,1.06,0,0,1,333.83,8.1Zm24.54,70.2L358,78C358.52,77.55,358.44,77.91,358.37,78.3Z"/><path class="cls-1" d="M370.22,7.44c.14-.26.21-.71.47-.58l-.95-.19C370.14,6.84,370.14,7.16,370.22,7.44Z"/><path class="cls-1" d="M369.12,10.8c-.53.94.12.85.68,1a.14.14,0,0,1-.08-.05C370.71,10.67,369.92,10.69,369.12,10.8Z"/><path class="cls-1" d="M369.93,11.89a1,1,0,0,1,.44.29C370.77,11.74,370.26,12,369.93,11.89Z"/><path class="cls-1" d="M365,5.5c.16.37.72-1.16.7-.69C366.55,3.7,363.26,5.48,365,5.5Z"/><polygon class="cls-1" points="388.76 43.67 389.36 42.88 388.44 43.37 388.76 43.67"/><path class="cls-1" d="M386.86,42.07l1.71-.16-1.52-.49C387.12,41.6,387.25,41.94,386.86,42.07Z"/><path class="cls-1" d="M351.18,25.36h-.47c-3.59-.18,1.28-.43-5.07-.28-3.88-.12-.82-.31.72-.41-5.79.23-10.81-.15-14.12-.19l3.05-.1c-1.82.06-3.31.06-4.84.06l1.75.24a22.39,22.39,0,0,1-3.28-.15c-1.84.16,1.42.4-2.24.61-2.39-.12-7.27.13-8.09-.18,6.8.09.59-.24,4.09-.35-.91,0-1.93,0-3.09,0-.27,0,.26-.06.75-.08-7.18-.28-3.3.36-10.74.35.94-.18-1.73-.34-2.94-.3,3,0,1.43.3-1.32.43-4.77-.14-5.19.11-7.69.09l2.86.06c-1,.18-3.36.16-6.68.21-.29-.13,3-.09,1.83-.15-3.69.31-8.34-.32-13.49-.11-2.39-.12-.23-.34-2.33-.42-5.77.23-6.25-.24-12.32-.05,1.75.24,2.06.18-2.21.41l10-.17-6.4.35c3,0,6.35-.15,8.15-.11-3,.19-2.73.14-1.29.33-4.12-.35-8.17.21-12.93,0l.15-.59c-7.16-.26-12.72.3-22,.15l3,.11c-1.24.23-5.73,0-8.74.12.28-.19-1.6-.26-2.89-.39.16.15-6.8,0-7.65.38l-4.14-.26c-7.51-.1-8.57.57-15.78.5,2.17-.22-1.11-.36,3.72-.51a31.68,31.68,0,0,0-4.61.1c-1.4-.12-6.68.27-8.89.08a24.22,24.22,0,0,1-4,.28c-.19,0-.13-.06-.07-.08-.55.08-4,.13-1.79.33-7.42-.62-20.74,0-27.2-.49l-16.36.15c.31-.06,0-.1.92-.08-6.58-.18-4.05.57-11.54.36-3.82-.32,4-.17,1.59-.29-1-.65-9,.09-14.08-.29l1.22,0c-3.85-.22-9.4.25-15.69.2,0,0,.31-.06,0-.1-4.31.33-12.46.44-18.51.53,1.88-.25,2.75-.13,1.6-.39-2.72,0,.79.42-4.63.49-1.76-.14-5.67-.26-6.19-.54h5.12c-2.62-.36-6.62,0-9.31-.05l.34-.16c-7.83.05-7.94.45-16.36.42l.87.12c-4.6.38-3.86-.22-8.45.07L51,25.11c-3,.1-10.64.38-16.08.46,3.08-.3,9.45-.45,13.39-.62-3,0-10.22,0-11.79.22,1.21,0,2.74-.13,3.94-.07-3.69.31-8.55.46-14.55.46.35-.25-1.2-.36-3.6-.41l-4.09,0-5.38,0c0,2.74,0,3.89-.08,5.3s-.12,2.45-.22,3.21c.09,3.33.11,6.64.1,10,0,3.72-.07,7.49-.1,11.39l7.49.06,6.72,0c-4.39-.6,3.61,0,2.85-.63,2.85,0,4,0,4.22,0l-.6,0,.62,0h0l8.71.37c2.07.17-2.73.13-2.47.27,6.3,0,2.64.26,6.82.42-.86-.22,2.19-.31,5.78-.23L47.66,55c8.81-.33,7.61.51,16.49.19l-2.81.19c4.56-.11,16.81,0,21.27-.49.81.07,1.87.24-.13.28,10.89.08,24.23-.52,32.7-.22l-.83.15c2,0,3.54-.28,6.08-.13-.13.07-.82.15.12.16s5.4-.26,8.09-.17l-2.3.17c10.62.19,16.3-.41,25.2-.52,0,.44,8.33.59,12.5.66l-.14.06c12.37,0,21-.37,32.46-.54,7.1.48,24.08.2,35.5.47-1.75-.08.28-.34,2.31-.39,2.69.09,7.42-.3,7,.1h-1c2,.4,7.53.29,11.84.3l.71-.52c11.25.76,29.48-.29,35.62.4,2.72-.13,6.08-.13,8.77-.26l-.14.28c7.52.08,11.28.11,20.58,0l-1.9.21c5.25,0,6.62-.82,11.46-.84l1.46.43c7.51,0,15.1.23,22.58.11Z"/></g></g></svg>