<svg xmlns="http://www.w3.org/2000/svg" viewBox="0 0 200 200"><defs><style>.cls-1{fill:none;}.cls-2{fill-rule:evenodd;}.cls-3{fill:#fff;}</style></defs><g id="Layer_2" data-name="Layer 2"><g id="Layer_1-2" data-name="Layer 1"><path class="cls-1" d="M200,100a99.92,99.92,0,1,0-7.61,38.28A100,100,0,0,0,200,100H164a63.77,63.77,0,1,1-4.85-24.48A64,64,0,0,1,164,100Z"/><path class="cls-2" d="M180.35,100c.05,0,0,.24,0,.39a7.23,7.23,0,0,1,.2,2.37C180.55,101.69,180.34,101.24,180.35,100Z"/><path class="cls-2" d="M177.23,108.74a11,11,0,0,1-.17,1.71A4.67,4.67,0,0,1,177.23,108.74Z"/><path class="cls-2" d="M177.2,111.8c.15.06-.08,1-.17,1.52C176.84,113.26,177.13,112.22,177.2,111.8Z"/><path class="cls-2" d="M176.72,113.1c.16-.46-.16,1.11-.13,1.33l-.14,0c-.28,1.25-.11,1.45-.43,2.64a5.5,5.5,0,0,1,.2-1.83C176.36,114.48,176.57,113.69,176.72,113.1Z"/><path class="cls-2" d="M177,113.51c.17,0,0,.71-.08,1.34A11.46,11.46,0,0,1,177,113.51Z"/><path class="cls-2" d="M176.74,114.45a7.93,7.93,0,0,1-.09,1.21,5.62,5.62,0,0,1-.35,1.24C176.26,116.46,176.62,115.7,176.74,114.45Z"/><path class="cls-2" d="M184.86,115.41c.1.08-.14,1,0,.86,0,.18,0,.19-.09.2l-.07.42A5.08,5.08,0,0,1,184.86,115.41Z"/><path class="cls-2" d="M184.06,118.07a3.1,3.1,0,0,1-.14,1.26A3.12,3.12,0,0,1,184.06,118.07Z"/><path class="cls-2" d="M189.63,119.54a16.58,16.58,0,0,1-.51,2.43A23.42,23.42,0,0,1,189.63,119.54Z"/><path class="cls-2" d="M175.45,119.08a5.56,5.56,0,0,1-.64,2.2C174.82,120.81,175.3,120,175.45,119.08Z"/><path class="cls-2" d="M182.67,124a11.69,11.69,0,0,0,.4-1.43c.16-.08-.32,1.5,0,.86a9.6,9.6,0,0,1-.41,1.64C182.61,124.8,182.8,124.12,182.67,124Z"/><path class="cls-2" d="M187.81,126.29a6.53,6.53,0,0,1-.35,1.39,5.56,5.56,0,0,1-.65,1.61C187.08,128.53,187.44,127.65,187.81,126.29Z"/><path class="cls-2" d="M180.59,130.92a4.2,4.2,0,0,1-.49,1.4A7.94,7.94,0,0,1,180.59,130.92Z"/><path class="cls-2" d="M172,128.79c.2.13-.37,1-.46,1C171.48,129.48,171.81,129.41,172,128.79Z"/><path class="cls-2" d="M167.09,138.89c.36-.48-.48,1-.56,1C166.47,139.55,166.78,139.54,167.09,138.89Z"/><path class="cls-2" d="M167.53,139.11c.05.07-.26.51-.19.55a9.62,9.62,0,0,0-.65,1c-.27.42-.49.76-.43.58C166.72,140.56,167.12,139.83,167.53,139.11Z"/><path class="cls-2" d="M161.34,147.18c-.06.25-1.67,2.39-2,2.33A25,25,0,0,0,161.34,147.18Z"/><path class="cls-2" d="M164.57,156.15c.37-.71,2-2.21,0,0Z"/><path class="cls-2" d="M154.53,154.36a7.51,7.51,0,0,1-2,2C152.83,155.81,154,155.05,154.53,154.36Z"/><path class="cls-2" d="M157,162.32a1.25,1.25,0,0,1-.5.66c-.44.24-.09-.18-.25-.24C157.07,162,156.45,162.84,157,162.32Z"/><path class="cls-2" d="M146.41,170.6c0,.13-.85.57-1.19.82C145.27,171.17,145.9,170.94,146.41,170.6Z"/><path class="cls-2" d="M141.62,164.5c0,.08-1.06.92-1.11.71A6.81,6.81,0,0,0,141.62,164.5Z"/><path class="cls-2" d="M147,173.18c.2.08-1.39,1-1.32.73C146.36,173.46,146.47,173.55,147,173.18Z"/><path class="cls-2" d="M139.9,165.67a22.28,22.28,0,0,1-3,1.92A19.49,19.49,0,0,1,139.9,165.67Z"/><path class="cls-2" d="M136.31,166.68c-.26.27-.81.21-1.54.69A4.25,4.25,0,0,1,136.31,166.68Z"/><path class="cls-2" d="M134.42,167.5c0,.11-.6.35-.59.47-.23.1-.2,0-.26-.09A4.16,4.16,0,0,0,134.42,167.5Z"/><path class="cls-2" d="M134.92,168.73a19.75,19.75,0,0,0-2.76,1.25,10.76,10.76,0,0,1,1.41-.83A2.49,2.49,0,0,1,134.92,168.73Z"/><path class="cls-2" d="M128.75,159.63c.22.09-.44.3-.57.32C126.81,160.58,128.63,159.61,128.75,159.63Z"/><path class="cls-2" d="M136.78,175.91c.58-.22-.11.3-.67.48C135.71,176.36,136.91,176,136.78,175.91Z"/><path class="cls-2" d="M130.73,172.63c.05.22-1.11.68-1.73.85C129.28,173.16,130.26,173,130.73,172.63Z"/><path class="cls-2" d="M129.65,171.74c-.08.08-.46.26-.13.16-.13.18-.8.27-.78.15a3.75,3.75,0,0,1,.69-.33C129.43,171.78,129.51,171.78,129.65,171.74Z"/><path class="cls-2" d="M127.37,174.61c.6-.14-1,.44-1.1.38s0-.07.16-.11.17-.08.17-.11C126.89,174.69,126.82,174.86,127.37,174.61Z"/><path class="cls-2" d="M126.63,180.07a10.09,10.09,0,0,1-1.95.69A14.57,14.57,0,0,1,126.63,180.07Z"/><path class="cls-2" d="M123.51,178.79l-.78.23C122.51,178.88,123.59,178.57,123.51,178.79Z"/><path class="cls-2" d="M119.64,180c-.29.35-1.36.25-2.16.51A10.16,10.16,0,0,1,119.64,180Z"/><path class="cls-2" d="M113.85,172.82c-.52.11-.57,0-1.09.1C112.75,172.77,113.89,172.65,113.85,172.82Z"/><path class="cls-2" d="M109,180a4.81,4.81,0,0,1-1.76.28C107.59,180.11,108.44,180.08,109,180Z"/><path class="cls-2" d="M106,180.22a16.7,16.7,0,0,1-2.56.27A19.83,19.83,0,0,1,106,180.22Z"/><path class="cls-2" d="M101.33,173.66c-.24.12-1.33.08-1.1-.11C100.84,173.51,100.53,173.76,101.33,173.66Z"/><path class="cls-2" d="M101.05,180.07a5.09,5.09,0,0,1-2,.16c-.15-.13,1.34-.06.58-.19A9.65,9.65,0,0,1,101.05,180.07Z"/><path class="cls-2" d="M97.52,180.24c-.4-.11.08-.09.19-.19.34,0,1.05,0,1,.17a2.85,2.85,0,0,0-.6-.06A1.45,1.45,0,0,1,97.52,180.24Z"/><path class="cls-2" d="M97.72,180.3c-.56.12-1.24-.18-2-.05A3.62,3.62,0,0,1,97.72,180.3Z"/><path class="cls-2" d="M93.71,188.24c.1.21-1.06,0-1.09-.08C92.81,188,93.17,188.27,93.71,188.24Z"/><path class="cls-2" d="M89.39,183.83c.14.21-1.34-.06-1-.17A5.16,5.16,0,0,0,89.39,183.83Z"/><path class="cls-2" d="M85,185.49a4.76,4.76,0,0,1-1.48-.21A7.09,7.09,0,0,1,85,185.49Z"/><path class="cls-2" d="M80.06,193.16a2.89,2.89,0,0,1-.93-.11c.05-.08-.26-.16-.19-.24l.68.15C79.28,193,79.39,193,80.06,193.16Z"/><path class="cls-2" d="M73.87,177.69c-.65-.18-1.3-.38-2-.59s-1.28-.5-1.93-.77l-2-.82-2-.94a12.77,12.77,0,0,1,2,.69c.66.27,1.31.55,2,.85s1.27.62,1.92.9A17.8,17.8,0,0,0,73.87,177.69Z"/><path class="cls-2" d="M71.75,185.85c0,.18-1.22-.17-1-.35Z"/><path class="cls-2" d="M69.72,187.41a5.73,5.73,0,0,1-1.51-.51C68.58,186.87,69.15,187.26,69.72,187.41Z"/><path class="cls-2" d="M67.75,184.5a6.92,6.92,0,0,1-1.48-.47C66.16,183.79,67.27,184.36,67.75,184.5Z"/><path class="cls-2" d="M64.87,184c.47.24.1.14-.33,0s-.9-.42-.7-.43C64.37,183.74,64.65,184.08,64.87,184Z"/><path class="cls-2" d="M63.44,183.39c0,.16-1.84-.63-1.64-.73C62.4,183,62.54,183,63.44,183.39Z"/><path class="cls-2" d="M65.89,174.35c0,.23-1.3-.52-1.38-.34-.42-.24-.81-.49-.82-.64C64.34,173.58,65.38,174.21,65.89,174.35Z"/><path class="cls-2" d="M62.3,175.09c.63.48-.9-.34-1.33-.56,0-.05.09,0,.2.05l0-.09C61.63,174.68,62.15,175.14,62.3,175.09Z"/><path class="cls-2" d="M59.11,173.14a2.87,2.87,0,0,1-1.33-.53C58.28,172.84,58.55,172.85,59.11,173.14Z"/><path class="cls-2" d="M55.93,176.82a5.63,5.63,0,0,1-1.17-.55C54.77,176.09,55.66,176.58,55.93,176.82Z"/><path class="cls-2" d="M54.36,179c-.07,0-.4-.19-.43-.13a3.66,3.66,0,0,0-.91-.69A4.29,4.29,0,0,1,54.36,179Z"/><path class="cls-2" d="M51.58,182.1c.09.26-1-.48-1.45-.74C50.21,181.26,51,181.79,51.58,182.1Z"/><path class="cls-2" d="M57.23,157.53a2.55,2.55,0,0,1-1-.44c0-.12.61.32.22,0A2.25,2.25,0,0,1,57.23,157.53Z"/><path class="cls-2" d="M46.37,172.81a6.19,6.19,0,0,1-1.71-1.42A17.15,17.15,0,0,0,46.37,172.81Z"/><path class="cls-2" d="M55.33,154.75c-.1,0-.19-.05-.23,0a8.89,8.89,0,0,0-1.69-1.5A6.46,6.46,0,0,1,55.33,154.75Z"/><path class="cls-2" d="M53.43,155.54a9,9,0,0,1-1.68-1.31A11.43,11.43,0,0,1,53.43,155.54Z"/><path class="cls-2" d="M53.21,153c-.11.29-.83-.79-.75-.45-.1.09-.43-.38-.35-.39-1.78-1.63-.49-.62.15.08.13.12.14.05.19,0C52.87,152.56,52.79,152.63,53.21,153Z"/><path class="cls-2" d="M39.32,170a2.87,2.87,0,0,1-1.1-.81A7.53,7.53,0,0,1,39.32,170Z"/><path class="cls-2" d="M39.75,167.59a6.93,6.93,0,0,0-1.67-1.46c.15.09.24.08.28,0a11.83,11.83,0,0,0,1.34,1.16C39.81,167.44,39.82,167.53,39.75,167.59Z"/><path class="cls-2" d="M39.05,167.77a25.94,25.94,0,0,1-3.59-3c.09-.07.71.64,1,.89.07-.13-.62-.71-1.07-1.16A38.18,38.18,0,0,1,39.05,167.77Z"/><path class="cls-2" d="M50.53,150.48c-.11.09-.6-.42-.94-.78A4.48,4.48,0,0,1,50.53,150.48Z"/><path class="cls-2" d="M49.45,149.34c-.05.17-.36-.15-.7-.52C48.89,148.82,49.06,148.88,49.45,149.34Z"/><path class="cls-2" d="M48.54,148.53c-.08.09-.44-.37-.78-.78s-.62-.81-.63-.51c-.12-.23-.15-.5.1-.34A19.48,19.48,0,0,0,48.54,148.53Z"/><path class="cls-2" d="M33,162.08l-.1.11a20.31,20.31,0,0,0-1.44-1.73c0-.15.79,1,.69.56A4.3,4.3,0,0,0,33,162.08Z"/><path class="cls-2" d="M38.59,155.93c-.47-.53-1.05-1.17-1-1.33C38.09,155.15,38.72,155.81,38.59,155.93Z"/><path class="cls-2" d="M31.67,160.28c-.3-.16-.37-.29-.32,0-.23-.42-.68-.83-.81-.78-.48-.52.12-.23-.45-.81C30.63,159.24,31,159.55,31.67,160.28Z"/><path class="cls-2" d="M30.5,160.51c-.2-.06-1.12-1-.86-1.06A9.31,9.31,0,0,0,30.5,160.51Z"/><path class="cls-2" d="M30,158.46a4.64,4.64,0,0,1-1.21-1.32A11.81,11.81,0,0,1,30,158.46Z"/><path class="cls-2" d="M29.87,158c-.3-.08-.58-.5-.88-1C29.09,156.92,29.59,157.7,29.87,158Z"/><path class="cls-2" d="M27.42,156.89A12.06,12.06,0,0,1,26,155.14,22.14,22.14,0,0,1,27.42,156.89Z"/><path class="cls-2" d="M43.08,142.68c-.1,0-.34-.29-.59-.65,0-.2.25,0,.33-.05C43,142.26,42.84,142.34,43.08,142.68Z"/><path class="cls-2" d="M27.59,154.64c0,.38-1.69-1.9-1.69-2.06S27.32,154.44,27.59,154.64Z"/><path class="cls-2" d="M23.07,155.22l-.41-.57c-.1-.23.08-.33.46.22C22.9,154.8,23.22,155.22,23.07,155.22Z"/><path class="cls-2" d="M40.68,140.78c-.17-.13-.26,0-.57-.46C40.24,140.3,40.36,140.27,40.68,140.78Z"/><path class="cls-2" d="M39.41,138.86c-.12.1-.44-.45-.7-.8C38.83,138,39.15,138.51,39.41,138.86Z"/><path class="cls-2" d="M23,149.15c-.28-.25,0,0-.16.12-.14-.32-.51-.87-.33-.87Z"/><path class="cls-2" d="M21.55,146.1c0-.12.16.09.3.33.07,0,0-.1,0-.25C22.34,146.73,22,147,21.55,146.1Z"/><path class="cls-2" d="M19.63,147.7c-.76-1-.74-1.49-1.54-2.56C18.29,145,19.55,147.34,19.63,147.7Z"/><path class="cls-2" d="M21,144.88c-.21-.06-.57-.63-.88-1,.11.09.41.35,0-.28,0-.14.54.69.24.11C20.87,144.25,20.39,144.24,21,144.88Z"/><path class="cls-2" d="M20.46,145.21a10.51,10.51,0,0,1-1.52-2.75C19.66,143.54,19.72,144.17,20.46,145.21Z"/><path class="cls-2" d="M36.8,133.83a19.18,19.18,0,0,1-.85-1.74A7,7,0,0,1,36.8,133.83Z"/><path class="cls-2" d="M15.3,139.34c.1.25,0,.22,0,.28-.27-.68-.77-1.32-.65-1-.55-1-.88-1.95-1.43-3.15.11.15.19.19.27.13C14,137.47,14.59,137.91,15.3,139.34Z"/><path class="cls-2" d="M16.37,136.7a7.93,7.93,0,0,1-.61-1.15c-.15-.39-.2-.65.06-.33C15.75,135.58,16.25,136.13,16.37,136.7Z"/><path class="cls-2" d="M13.09,136.09c0,.4-.7-1.34-.43-1.08Z"/><path class="cls-2" d="M15.31,134.47c.06.37-.69-1.62-.92-2C14.7,132.6,15,133.57,15.31,134.47Z"/><path class="cls-2" d="M15.36,134.2a15,15,0,0,1-1.18-3.89C14.58,131.21,14.83,132.72,15.36,134.2Z"/><path class="cls-2" d="M13.14,135c-.32-.06-.33-1.31-.6-1.24-.1-.3.05-.23.1-.3Z"/><path class="cls-2" d="M14.41,133.41c-.09.08-.32-.73-.46-1,.19.09.14.11.22-.1C14.33,132.78,14.24,132.91,14.41,133.41Z"/><path class="cls-2" d="M13.59,132.3a1.53,1.53,0,0,1-.48-1A4.39,4.39,0,0,1,13.59,132.3Z"/><path class="cls-2" d="M13.15,130a9.08,9.08,0,0,1-1-2.53c.22.34.28.78.33.35A10.46,10.46,0,0,0,13.15,130Z"/><path class="cls-2" d="M21.67,121.73c.06.23,0,.19-.08.24a3.89,3.89,0,0,1-.19-1C21.58,121,21.56,121.86,21.67,121.73Z"/><path class="cls-2" d="M11.36,124c-.06.22-.44-.75-.64-1.72s-.34-1.92-.09-1.6c0,.27-.05.22-.09.27A30.05,30.05,0,0,0,11.36,124Z"/><path class="cls-2" d="M21.25,117.9a2.06,2.06,0,0,1-.32-.94l.14,0A4.7,4.7,0,0,1,21.25,117.9Z"/><path class="cls-2" d="M20.06,116a15.15,15.15,0,0,1-.49-2.14A10.41,10.41,0,0,1,20.06,116Z"/><path class="cls-2" d="M29.78,111.67a6.43,6.43,0,0,1,0-1.06C29.84,110.76,29.91,111.66,29.78,111.67Z"/><path class="cls-2" d="M20.07,112.07a2.4,2.4,0,0,1-.43-1.33A4.9,4.9,0,0,1,20.07,112.07Z"/><path class="cls-2" d="M8.56,112.1a8.63,8.63,0,0,1-.26-1.56A4,4,0,0,1,8.56,112.1Z"/><path class="cls-2" d="M19.37,109.38c-.11,0-.15-.73-.25-.77s0-.19,0-.2,0-.09,0-.21A2.82,2.82,0,0,1,19.37,109.38Z"/><path class="cls-2" d="M29.09,104.53l-.15,0c0-.44-.16-3.56,0-1.23A8.88,8.88,0,0,1,29.09,104.53Z"/><path class="cls-2" d="M30.79,103.65a3.17,3.17,0,0,1-.09-1.36C30.82,102.4,30.74,103.24,30.79,103.65Z"/><path class="cls-2" d="M18.61,101c-.1,0-.14-.52-.15-1.07s.07-1.14.1-1.33A18.32,18.32,0,0,0,18.61,101Z"/><path class="cls-2" d="M30.74,99.55c0-.47-.19-.8,0-1A1.49,1.49,0,0,1,30.74,99.55Z"/><path class="cls-2" d="M31,98.18h-.15c.06-.25.06-.76.21-.68C31,97.8,31,97.86,31,98.18Z"/><path class="cls-2" d="M7.6,95.85a2.46,2.46,0,0,1-.09-1.36A5.67,5.67,0,0,1,7.6,95.85Z"/><path class="cls-2" d="M29,95.09c-.16.67,0-.66-.16-.53,0-.3.11-.39.22-.34C29.08,94.65,28.85,94.94,29,95.09Z"/><path class="cls-2" d="M30.84,94.61c-.2,0,.06-.61,0-1H31C31,94.11,30.84,94.09,30.84,94.61Z"/><path class="cls-2" d="M30.36,93.74c-.14.5.11-1.24-.14-.87C30.41,92,30.46,93,30.36,93.74Z"/><path class="cls-2" d="M31.33,91.91s0-.21,0-.35,0-.09-.05,0c-.06-.06,0-.43,0-.68C31.49,90.8,31.4,91.39,31.33,91.91Z"/><path class="cls-2" d="M30.78,89.46h-.19a8.48,8.48,0,0,0,.25-1.19C31,88.29,30.8,89,30.78,89.46Z"/><path class="cls-2" d="M32.62,85.41c.06-.56.1-1.09.18-1.69A3.81,3.81,0,0,1,32.62,85.41Z"/><path class="cls-2" d="M9.05,82.08c-.15-.33.41-1.91.61-2.9.15-.05-.32,1.24-.05.91A6.77,6.77,0,0,0,9.05,82.08Z"/><path class="cls-2" d="M38.06,69.43l-.18-.08c.09.11.65-.81.28-.43,0-.29.28-.33.43-.74A5.07,5.07,0,0,1,38.06,69.43Z"/><path class="cls-2" d="M42.61,61.49a2.91,2.91,0,0,1,.6-1A3.67,3.67,0,0,1,42.61,61.49Z"/><path class="cls-2" d="M21.17,47.63c-.06-.1.54-.86.56-1a2.87,2.87,0,0,0-.48.53c.09-.43.73-1,.69-.67C21.44,47.11,21.47,47.33,21.17,47.63Z"/><path class="cls-2" d="M43.42,58.36c0-.11,0-.22-.08,0,.14-.38.26-.21.62-.83C44.05,57.56,43.67,58,43.42,58.36Z"/><path class="cls-2" d="M44.17,58.24a6.43,6.43,0,0,1,1.06-1.35A6.43,6.43,0,0,1,44.17,58.24Z"/><path class="cls-2" d="M44.06,57.34c.28-.44.69-.87,1.17-1.5-.1.31-.82,1.07-1,1.42C44.22,57.2,44.16,57.24,44.06,57.34Z"/><path class="cls-2" d="M51,52.17c.17-.39.76-.69,1-1.11C52.24,51.25,51.38,51.76,51,52.17Z"/><path class="cls-2" d="M50.65,51.85c-.26,0,.35-.43.08-.38.26-.3.24,0,.46-.28C51.21,51.42,51,51.44,50.65,51.85Z"/><path class="cls-2" d="M51.59,52c.18-.12.58-.54.78-.64C52.2,51.68,51.74,52.12,51.59,52Z"/><path class="cls-2" d="M52.82,49.7a6.27,6.27,0,0,1,.87-1,5.49,5.49,0,0,1,1-.75c0,.15-.25.39-.54.66.22-.27-.09-.07-.39.19s-.57.6-.33.53C53.1,49.65,53.18,49.29,52.82,49.7Z"/><path class="cls-2" d="M57.24,45.48l-.1-.11c.47-.43.34,0,.77-.42C58,45.07,57.34,45.44,57.24,45.48Z"/><path class="cls-2" d="M60,44c-.05-.29.76-.58,1.15-1C61.15,43.2,60.25,43.73,60,44Z"/><path class="cls-2" d="M61.07,44.57,61,44.45c.17,0,.91-.71.9-.46Z"/><path class="cls-2" d="M54.64,17.09c0-.16.87-.59,1.77-1.1,0,.11.21,0,.46-.13C56.42,16.19,55.35,16.57,54.64,17.09Z"/><path class="cls-2" d="M70.41,40.15a8.43,8.43,0,0,1,1.13-.66C71.5,39.68,70.77,40,70.41,40.15Z"/><path class="cls-2" d="M76.83,8.29a3.17,3.17,0,0,1,1.09-.41C78.26,8,77.43,8.15,76.83,8.29Z"/><path class="cls-2" d="M98.38,4.94c.13,0,.65-.09.23-.1a15.52,15.52,0,0,1,3.73,0C101,4.88,100.1,4.83,98.38,4.94Z"/><path class="cls-2" d="M98.9,5.57c.46-.15,1.34-.21,1.84-.31C100.53,5.54,100,5.51,98.9,5.57Z"/><path class="cls-2" d="M102.59,5.25a2.21,2.21,0,0,0-.7-.06c.26-.14,1.33-.09,1.62-.21.4,0,.15.11-.23.09.21.18,0,.12.24.3-.84,0-1.44,0-2.08.1-.34,0-.5-.13-.47-.25C101.63,5.07,102.12,5.36,102.59,5.25Z"/><path class="cls-2" d="M103.74,4.83a4.53,4.53,0,0,1,1.63,0c.87,0-.24-.3.93.06C105.33,4.91,104.81,4.78,103.74,4.83Z"/><path class="cls-2" d="M105.25,33.55c.15-.31.74.11,1.32,0C106.66,33.74,105.67,33.54,105.25,33.55Z"/><path class="cls-2" d="M111,5.36a23.61,23.61,0,0,1,2.56.22A18.12,18.12,0,0,1,111,5.36Z"/><path class="cls-2" d="M115.57,6.34a4.78,4.78,0,0,0,1.15.2C116.92,6.78,115.32,6.5,115.57,6.34Z"/><path class="cls-2" d="M117.77,7.57a11.65,11.65,0,0,1,1.37.21C119.33,8,117.93,7.64,117.77,7.57Z"/><path class="cls-2" d="M117,36.37a4.56,4.56,0,0,0,1.26.31C118.18,36.8,117,36.67,117,36.37Z"/><path class="cls-2" d="M121.84,13.79l0-.15a8.8,8.8,0,0,1,1.91.51C123.08,14,122.7,14,121.84,13.79Z"/><path class="cls-2" d="M130.48,14.54c.07-.07.39,0,.87.19,0,0,0,.1.18.18C131.45,15,130.6,14.6,130.48,14.54Z"/><path class="cls-2" d="M131.18,14.51c.38.06.75.31,1.47.52.07.21-.66-.1-1.29-.35C131.41,14.64,131.34,14.58,131.18,14.51Z"/><path class="cls-2" d="M134.12,14.12c.69.17,1,.3,2,.56a1.07,1.07,0,0,0,.39.28c0,.14-.95-.44-.68-.13C135.17,14.52,135.06,14.53,134.12,14.12Z"/><path class="cls-2" d="M139.32,22.26c0-.29,1.27.65,2,.83.18-.16-.84-.58-1.3-.77.39-.22,1.91,1.16,2,.76.43.28.82.55,1.47.9.1.26-.77-.36-1.16-.55.61.57-.7-.2,0,.46A17.11,17.11,0,0,0,139.32,22.26Z"/><path class="cls-2" d="M132.94,43c.05-.3.71.45.94.3.24.24-.58,0,0,.43C133.27,43.57,133.38,43.2,132.94,43Z"/><path class="cls-2" d="M137.32,44.78c.74.39-.27-.49,1,.31l-.13.21C137.67,45,137.75,45.19,137.32,44.78Z"/><path class="cls-2" d="M137.78,45.59a21.18,21.18,0,0,1,2.12.94c.08,0-.09-.16-.06-.22-.35-.16-.8-.46-1.15-.63,0-.17.62-.12-.28-.79.81.26.86,1,1.85,1.68-.12.17,0,.46.27.77a8.29,8.29,0,0,1-1.1-.42c-.5-.32-.64-.54-.69-.72C138.35,46.08,138.36,46,137.78,45.59Z"/><path class="cls-2" d="M140.22,45.44c1,.66-.11.28.77.94-.26-.15-.43-.18-.74-.38C140.5,45.9,140,45.56,140.22,45.44Z"/><path class="cls-2" d="M157.3,31.25c.55.29.21,0,.18-.24.29.26.38.25.69.53C157.83,31.37,158.08,32,157.3,31.25Z"/><path class="cls-2" d="M160.49,30.29c.37.19,1.11.77.8.82C160.74,30.68,161,30.72,160.49,30.29Z"/><path class="cls-2" d="M166.17,34.12c0-.22,1.5,1.4,1.62,1.62.4.38.48.23.68.28a4.51,4.51,0,0,1,.49,1.15c-.35-.24-1.85-1.88-1.36-1.56A19.87,19.87,0,0,1,166.17,34.12Z"/><path class="cls-2" d="M164.9,40.47A4.39,4.39,0,0,1,166,41.8C165.75,41.67,165.3,40.86,164.9,40.47Z"/><path class="cls-2" d="M168,46.1c.47.5.84.8,1.34,1.37C169.15,47.6,168.5,46.75,168,46.1Z"/><path class="cls-2" d="M163.67,51.6l.11-.09c.16.23.67.76.56.81C164.34,52.58,163.92,51.87,163.67,51.6Z"/><path class="cls-2" d="M164.08,52.79c.14,0,.43.31.72.67-.14.06.29.7-.12.35S164.54,53.35,164.08,52.79Z"/><path class="cls-2" d="M155,63.57a5.58,5.58,0,0,1,.88,1.36c-.07,0-.32-.36-.26-.4-.17-.18-.34-.39-.43-.29C155,63.89,154.92,63.67,155,63.57Z"/><path class="cls-2" d="M155,64c.36,1,1.39,2.25,1.42,3.12C156.23,66.49,154.91,64.52,155,64Z"/><path class="cls-2" d="M171.27,55.84c.29.33.86,1.18.68,1.28C171.67,56.61,171.58,56.33,171.27,55.84Z"/><path class="cls-2" d="M158.27,67.65c.17,0,.37.07.66.56-.12.06-.21.2-.37,0A3.41,3.41,0,0,0,158.27,67.65Z"/><path class="cls-2" d="M171.35,59.72a10.42,10.42,0,0,1,.86,1.32c.26.5.5,1,.72,1.56a8.17,8.17,0,0,1,.71,2.52c-.29-.73-.59-1.51-.91-2.41A15.74,15.74,0,0,0,171.35,59.72Z"/><path class="cls-2" d="M173.25,67.58c.26.1.33.72.69,1.41.11,0,.09-.22-.11-.61a2.26,2.26,0,0,1,.35,1.36c-.08.21-.28-.46-.36-.25C173.51,68.63,173.45,68.23,173.25,67.58Z"/><path class="cls-2" d="M165.18,76.25a11.07,11.07,0,0,1,.69,2.47A24.46,24.46,0,0,1,165.18,76.25Z"/><path class="cls-2" d="M170.41,98.86c.07.08.13.24.2.33-.08.41-.12,1-.32.71A4.72,4.72,0,0,1,170.41,98.86Z"/><path class="cls-2" d="M180.79,104.34c0-.33,0-.66,0-1,.07,0,.14,0,.15-.2,0,.31.15.3.13.8-.19-.19-.52,1.59-.5.2C180.64,104.29,180.7,104.35,180.79,104.34Z"/><path class="cls-2" d="M168.14,135a10.64,10.64,0,0,1-.7,1.51,5.22,5.22,0,0,1-.81,1.1l.72-1.16C167.6,136,167.88,135.47,168.14,135Z"/><path class="cls-2" d="M163.88,143.85a4.38,4.38,0,0,0,.72-.9c0,.25.1.49.56-.33-.22.49-.57,1.11-.77,1.53-.06-.26-.71.33-.12-.51-.21,0-.35.38-.59.75C163.26,144.85,164.11,143.74,163.88,143.85Z"/><path class="cls-2" d="M156.22,150.16c.15.05,0,.4-.28.73s-.6.62-.73.6C156.36,150.4,155.71,150.92,156.22,150.16Z"/><path class="cls-2" d="M155.89,153.28c-.1-.11.76-1,1-1.13,0,.09-.17.29-.15.36C156.62,152.49,156.44,152.59,155.89,153.28Z"/><path class="cls-2" d="M136.16,165.74c-.73.37-1.61.74-2.41,1.14l-2.06,1a6.7,6.7,0,0,0-2,.75c-.8.39-1.62.65-1.87.47-.69.26-.14.37-.92.63-.57.14-1,.23-1.63.37a3.14,3.14,0,0,1-1.77.5c.23-.08.13-.13.31-.21a8.88,8.88,0,0,0,1.57-.43,9.61,9.61,0,0,0,1.51-.7c-1.22.52-2.87.92-3.94,1.43.2-.06.48-.18.53-.13-.51.16-.49.28-1,.45-.15-.07.43-.32-.22-.08a3,3,0,0,1-.65.34,32.17,32.17,0,0,0-4.09,1,20.07,20.07,0,0,0-3.21.54c-1.11.2-2.06.34-2.27,0a16,16,0,0,1-4.33.51c-.34.05-.1.18-.52.2-1.48-.19-3.66.45-5.45.33.1-.2,1.83,0,1.26-.24a19.55,19.55,0,0,1-3.57,0c-1.11-.1-2.14-.22-3.15-.23.07-.12.79,0,.72-.19-.56,0-1.77-.17-2.52-.14-.06-.07-.25-.11-.18-.21a10.23,10.23,0,0,1-1.92-.16c-.63-.13-1.27-.29-2-.43-.25.08.45.24,0,.2l-1.08-.13c.24,0,.26-.16-.16-.22-.76-.07-1.6-.25-2.43-.38s-1.65-.26-2.35-.34c.55-.06-.45-.15-.52-.17s0-.09,0-.1c-.66-.21-1.49-.39-2.39-.62s-1.84-.48-2.75-.7a22.78,22.78,0,0,1-4-1.36c.25.22-.83,0-1.38-.39-.08-.17.36,0,.4-.05a68.42,68.42,0,0,1-12.67-6.3c.12.08.3.19.28.23-1-.67-1.68-1.15-2.33-1.62A23.18,23.18,0,0,0,56.91,159c-1.42-1.11-4.07-3.16-4.75-3.83.1.13.71.75.32.47-1.29-1.49-2.5-2.61-4.43-4.49,0-.32-1.32-1.71-1.49-1.55a2.47,2.47,0,0,0,.81.71c.11.21.65.68.36.66-.64-.66-2.65-2.7-1.51-1.79-2-2-2.28-2.83-3.9-4.68,0-.63-2.18-3.11-1.85-3.09a5.11,5.11,0,0,1-.74-.91,5.28,5.28,0,0,1-.49-1.07c.91,1.24,1.51,2.12,2.14,2.84a3.23,3.23,0,0,1-.64-1.07,5,5,0,0,1-1.3-1.91c-.16.15-.41-.59-.48-.75-.25-.09.28.51,0,.42a14.68,14.68,0,0,1-1-1.57c-.3-.57-.57-1.16-.8-1.7a2.17,2.17,0,0,0,.44.56c-.55-.82-.9-1.91-1.23-1.94.14.34.63,1,.57,1.1a10.17,10.17,0,0,1-1.34-2.71c.1.21.58,1.15.36.61a7.19,7.19,0,0,0-.82-1.37,20.32,20.32,0,0,0-.81-2.33,24.8,24.8,0,0,1-.93-2.34,7.49,7.49,0,0,1-.93-1.9c.07,0,.07-.12.07-.23s.29.62.38.42a15.09,15.09,0,0,1-1-3.21,6.46,6.46,0,0,1-.56-1.37,2.63,2.63,0,0,1-.18-1.34c.19.58.37,1.13.52,1.61a8.39,8.39,0,0,1,.37,1.23,8.62,8.62,0,0,1,.64,1.73c.27.8.6,1.51.67,1.33a1.23,1.23,0,0,0,.13.71c.16.2.43.68.72,1-.18,0,0,.26.11.52s.35.52.24.67c.2.53.27.27.43.57.15.45.13.69.33,1.2,2,3.41,3.93,7.53,6.32,10.68l-.77-1.15a4.74,4.74,0,0,1-.46-1c.18.24.36.81.57.88a8.75,8.75,0,0,1-.49-.94c.57.74.72,1.41,1,1.65-.57-.83.17-.08.15-.12-.13-.33-.55-.68-.67-1.24-.09,0,0,.23-.06.26-.18-.3-.08-.36-.26-.67-1.8-1.71-3.24-5.28-4.75-7.69.15-.26-.21-.75-.29-.64a3.19,3.19,0,0,1-.24-1.24,4.61,4.61,0,0,1-.87-1.6,10,10,0,0,0-.8-1.84,43.11,43.11,0,0,0-1.59-4.43c0,.13,0,.2,0,.2a3.69,3.69,0,0,1-.34-1.36c.22.36,0,.34.19.86,0-1.33-.87-3.15-1.12-5a9.73,9.73,0,0,1-.39-1,13.44,13.44,0,0,0-.3-2.08c-.17-.1-.31-.37-.42-1.16a9.83,9.83,0,0,0,.52,3.66c-.32-.55-.13.4-.41-.25a32.24,32.24,0,0,0-.62-4c0,.33.12.74,0,.72a7.05,7.05,0,0,1-.29-1.92c.08.89.25.65.17,1.23a5.47,5.47,0,0,0,.15-1.46c-.17-.11,0,.61-.2.39a2,2,0,0,0-.1-.34c.11-.26-.19-1.92.06-1.44a11,11,0,0,1-.23-2.12,4.64,4.64,0,0,1,.13-1.58c-.17-1.06-.21-2-.28-3,0-.48-.06-1-.08-1.45s0-1,.07-1.55c.07,0,.18.06.2-.18a4.12,4.12,0,0,1-.18-.87c.17-.06,0-.48.11-.53,0,.24.1.2.14.35a3.93,3.93,0,0,1,.06-.88c-.15-.13-.07.6-.25.35,0-.43-.07-.54-.06-.88.23-.67,0-1.74.26-3,.06.05.08.25.19.18,0-.64-.17-.63-.12-1.23.06,0,0,.29.1.35-.24-.89.38-2.93.49-3.47,0,.19-.15.41-.13.16.31-1.38.49-2.69.75-4l.41-1.88A18.56,18.56,0,0,1,31,81.26c.06,0,0,.26.1,0,.16-.56.43-2.37.89-3.83s.83-2.64.92-2c.06-.12.13-.32.17-.31-.07.19-.18.46-.13.5a21.34,21.34,0,0,0,.73-2.15,3.24,3.24,0,0,0,.37-.42c.13-1.34,1.05-1.92,1.44-3.19.14,0-.24.63,0,.55A7.56,7.56,0,0,1,36,68.93c.24-.52.52-1.08.82-1.65.57-1.17,1.34-2.33,1.89-3.46.15,0-.52.83-.21.68.2-.41.45-.9.75-1.43l1.06-1.66c.71-1.16,1.57-2.3,2.17-3.28-.18.52.43-.49.56-.46-.59,1.44-1.83,2.58-2.67,4.48.11,0,.11.29.31,0a3.29,3.29,0,0,1,.69-1.62c.44-.65,1-1.37,1.34-2,.11,0,.35-.42.36-.18A11.69,11.69,0,0,1,44.55,56a23.11,23.11,0,0,1,2.23-2.47c.16-.53,1.12-1.27,1.66-2-.2.32,0,.39-.37.82-.24.07.21-.52-.27,0,.12.39-1.52,1.95-1.73,2.38.3-.32-.09.24.15.12.38-.64.93-1.06,1.24-1.66.35-.21,1.46-1.16.69-.78.62-.24,1.4-1.4,2-1.69a34.48,34.48,0,0,0-2.53,3,16.86,16.86,0,0,0,1.46-1.47c.05,0,0,.13,0,.22a25.11,25.11,0,0,1,4.46-4c0-.06-.13-.08,0-.22a42.12,42.12,0,0,0,3.33-2.69c-.17.13-.33.24-.34.14.59-.46,1.26-1,1.44-.95.29-.26,0-.27.4-.57s.82-.21,1.36-.49c-.55.16,1.7-1.58,1.28-.86a6.65,6.65,0,0,1,2.07-1.18,4.82,4.82,0,0,1,.71-.76c-.36-.33-.09-.57-.36-.82-.71.58-1.23,1-1.67.91a5.74,5.74,0,0,1-1.58,1.06c-.76.93-2.36,1.51-3.77,2.75-.08-.24-.49.32-.84.36.48-.41.87-.77,1.29-1.16-.09.27.15.13.47,0a2.21,2.21,0,0,1,1.1-.83c0-.28-.65.35-.82.36.49-.46,1.13-.95,1.56-1.38.45,0,1.46-.75,2.09-1.26.36-.1.37-.08.15.2a17.17,17.17,0,0,1,2-1.48,16.4,16.4,0,0,1,2-.93c.1-.27.52-.48,1-.67a5.09,5.09,0,0,0,1.16-.49,1.14,1.14,0,0,1-.54.11c.49-.21.41-.31.9-.52.06.18.66-.14,1-.27.1-.15-.54.1-.1-.17a20.47,20.47,0,0,0,2.8-1.36c.21.08.14.26,1.07-.17,0-.07,0-.15.08-.24-.43.1-.59.42-.79.35.87-.52,1.7-.45,2.36-1.08.25,0,.63-.21.56,0-.32.1-.21-.13-.7.12.29.13-.53.46-1,.67,1.06-.4,1.89-.16,2.17-.65a21.53,21.53,0,0,1,2.24-.56c.72-.14,1.43-.34,2.32-.48,0,.08-.24.16-.28.23.9-.15,1.3-.63,1.49-.37a8.82,8.82,0,0,0-2.09.72,1.46,1.46,0,0,1,.69-.12c-.76.1-.09.22-1.42.58.2.13-.41.3-.37.44a7.86,7.86,0,0,1,1.35-.26,7.36,7.36,0,0,1-2.75.84c.22-.1.85-.23.78-.32-.87.33.49-.35-.38,0a10.62,10.62,0,0,1-1.46.87c.24-.31-.66.41-1,.24-.25.15-.25.28-.54.43a11.49,11.49,0,0,0-2.49.81l-1.32.56-1.1.52c.26-.06.7-.31.7-.14a2.37,2.37,0,0,0-.27.2c-.57.05-1.45.78-1.78.64a6.37,6.37,0,0,1-1.21.61c-.07.17.2.16-.62.6,0-.11.34-.31.33-.42-.58.33-1.38.82-2.12,1.28a8.21,8.21,0,0,1-1.83,1,12.25,12.25,0,0,1-3.06,2.38,10.7,10.7,0,0,0-2.78,2.23s-.26.16-.32.15c.35-.27.46-.4.29-.43-.66.55-.63.53-1.61,1.25.38,0,1.33-.87,1.84-1-.23.28-.91.84-1.37,1.25A14.45,14.45,0,0,0,57,46.74a.36.36,0,0,1,.17-.32c.19-.14.43-.17.62-.31.46-.32,1-.81,1.45-1.19a3.69,3.69,0,0,1,1.3-.75c-.5.32-.68.53-.73.7a28.62,28.62,0,0,1,3-2.14l1.56-1,1.86-1.09s-.09.11-.09.16a14.46,14.46,0,0,1,1.46-.88A8.84,8.84,0,0,0,69.19,39c0,.08-.21.2-.23.29.61-.36,1.07-.7,1.55-1-.27.25.59-.09.75,0-.08-.08,0-.19.39-.34s-.14.2.22.07l2.2-1.19c.05.07-.72.46-.2.34a10.05,10.05,0,0,1,2.25-.94c.92-.3,1.86-.48,2.33-.63-.49.11.44-.31.61-.26.17-.19-.67.07-.22-.13.28.1,1.27-.38,1.48-.32s-.54.18-.43.27a20.29,20.29,0,0,0,2.31-.41c-1.42.61-4.49,1.17-6.36,2.33.17.05.65-.31.9-.42.22.26.55-.16,1-.19-.12.26-.54.38-1,.52a6.11,6.11,0,0,0-1.26.45c.18-.07.36-.13.34,0s-.16.11-.28.17c-.49.17-1.17.38-1.73.6s-1,.45-1,.59a13.09,13.09,0,0,0-2.06.68,5,5,0,0,1,2-.43c0,.06-1,.51-.55.36a12.6,12.6,0,0,1,2.48-1.26c-.14,0-.74.3-.67.11.47-.17,1.17-.52,1.26-.4-.41.25.34.15.37,0-.43.13,0-.21.22-.3.06.06.39-.1.63-.2,0,.09.1.13.23.12.47-.19.72-.32,1-.48,2.07-.45,4.71-1.82,6.73-2.1-.1,0-.19,0-.15.08.28-.29,1.32-.36,1.23-.49a4.65,4.65,0,0,0,1.13-.21c-.12-.08-.76.18-.83.09s.16-.12.3-.18a1.8,1.8,0,0,0,1-.19l.52.06c1-.25,1.44-.34,2.42-.53,0,.07-.06.12-.14.17a2.83,2.83,0,0,1,1.16-.1,5.3,5.3,0,0,0-1.1.39,7.74,7.74,0,0,0,2.08-.52c-.3,0-.66.23-.82.11a10.66,10.66,0,0,0,1.28-.37c0,.09.18.09.5,0-.34.17.23.24.55.3.08-.19-.39-.16-.39-.32.78,0,.17-.09.49-.13.84-.09,1,.1,1.67.06-.18.17-.83.24-1.11.39.92-.05,1-.27,1.78-.35,0,.13-.3.18.18.19a7.4,7.4,0,0,1,2.11-.3c.82,0,1.68-.08,2.32-.07-.22-.12-.49.08-.66-.06,0-.07.36,0,.49-.09.1.12.65.12.51.31a19.16,19.16,0,0,1,3.13,0c.15.08.39.4.82.26-.2,0-.39-.05-.33-.13.7,0,1.18,0,2.31.12.08.36,1.42.5,2.08.75.36,0-.2-.14.17-.13l2.21.55c.71.19,1.52.3,2.58.61-1-.16,1,.29.28.27a10.55,10.55,0,0,1,2.39.44c-.26,0-.21-.29,0-.2s0,.19.61.28c-.13.14,0,.28.41.42.22,0,.06-.18.35-.11.47.21.6.21.92.36a1,1,0,0,0-.51,0c.53.11.23.17.12.19a5.49,5.49,0,0,1,1.2.54c.06-.23-.3-.48.13-.52-.48-.18-.37-.34-.54-.52a33.45,33.45,0,0,1,3.73,1.36,24.06,24.06,0,0,1,3.29,1.77c-.34,0-.39.16,0,.48.6-.23,1.54.2,2.54.79A16.58,16.58,0,0,0,132,42.39c.32-.13,0-.34.12-.61a4.11,4.11,0,0,0,2,.7,21.55,21.55,0,0,1,2.14,1.21c0,.06,0,.13.23.26.4.2-.33-.31,0-.3a4.29,4.29,0,0,0,1.19.45,2.72,2.72,0,0,1,1.08.59c-.13-.42.23-.36.42-.36,0,.05.35.32.41.28-.21-.16.05,0,.3.16-.33-.14.48.79.75.69-.44-.41-1.26-1.09-.72-1-.5-.32-.69-.53-.75-.71a6.6,6.6,0,0,1,.66.23,4.23,4.23,0,0,0-.43-.6,7.53,7.53,0,0,1,2.85,2.14c.57.36,1.42.47,1.7,1.12a2.81,2.81,0,0,0-.95-.42,8.2,8.2,0,0,0,.93.57,1.61,1.61,0,0,1,.67.68c-.61-.35-1.4-.8-2.21-1.33-.41-.27-.82-.56-1.22-.87s-.82-.58-1.2-.89a15.08,15.08,0,0,0,1.9,1.53c.76.56,1.64,1,2.33,1.53a14.49,14.49,0,0,0,2.48,2c.26.3.22.44.49.74.45.44,1.33,1,1.94,1.64s1.1,1.12.86,1.28c.36.49.19-.05.45.26s.35.49.18.54c-.72-.43-1.52-1-2.32-1.62s-1.68-1.14-2.43-1.58c.25.41.7.92.56,1.13.33.31.65.59,1,.83s.58.5.86.71c.56.43,1.09.77,1.64,1.12s1,.76,1.59,1.22a10.78,10.78,0,0,1,1.71,1.77c0-.74,1.13.37.91-.59a2.62,2.62,0,0,0,.46.5c.18-.4.21-.81.92-.34.06-.06-.28-.4-.25-.47.36.45.44.23.65.35,0-.13-.4-.53-.35-.61a6.22,6.22,0,0,0,.18-2c-.05-.72-.18-1.5-.28-2.5-.75-1.25-.88-2-1.68-3.21.45.19-.33-.94.18-.73-.3-.3-.47-.51-.45-.61.28.31.49.49.58.46-.65-.62-.09-.42-.09-.45-.08-.67-1-2-1-2.54a9.7,9.7,0,0,1,1.1,1c.33.36.62.76.91,1.14a11.41,11.41,0,0,0,1.81,2c.34.6,1,1.43.91,1.72-.39-.44-.75-.81-.87-.7.7,1.09,1.48,2.2,2.57,3.68-.08.25.27.82.75,1.48s1,1.45,1.34,2.06c-.08,0-.34-.37-.37-.18.3.39.61.81.93,1.25l.86,1.4a25.89,25.89,0,0,1,1.55,2.84,8.63,8.63,0,0,0,.9,2.62c.42,1.06.8,2,.57,2.23a6.24,6.24,0,0,1,.68,2.09c-.32-.11-.7-.63-.95-.3a21.72,21.72,0,0,0,.72,2.63c.2,0,.73.9.84,1.55-.13-.07-.3-.45-.44-.57,0,.77-.3.71-.37,1.33.23.53.62,1.33.45,1.52-.14-.28-.14-.73-.32-.81.19.52,0,.55.2,1.05.3-.12.23.66.33,1,.27.44.2-.17.48.18.79,2.06.25,3.87,1.13,5.15a6.53,6.53,0,0,0-.3-1.18,15.81,15.81,0,0,0,0-2.06c-.06-.74-.18-1.52-.28-2.31.08,0,.17.2.24.09-.23-.57-.43-.84-.66-1.45A2.41,2.41,0,0,0,167.3,74c.47.58,0-.59.16-.66.28.51.27.43.4.21.13.33.21.16.36.63.26.76.45,1.61.7,2.5s.54,1.83.8,2.85a17.87,17.87,0,0,0-.61-3.79c.48.09.42-.61.32-1.71-.16-.57-.2-.06-.36-.63.26-.7,0-2.48.66-2.33a7.86,7.86,0,0,0,1.08,2,8.85,8.85,0,0,1,.52.81,9.81,9.81,0,0,1,.51,1.3c.21,0,.48.61.71.72.07-.09,0-.4,0-.6.16.06.35.46.53.8.81.33-.14-2,.3-2.18.33.77.68,1.74,1,2.66a20.23,20.23,0,0,0,.89,2.35c-.17-.73.06-1.13.36-.54-.16-1.06.21-1.33,0-2.46-.87-1.74-1.32-1.45-2.31-3.44a4.64,4.64,0,0,0-.2-1.7,15.42,15.42,0,0,0-.79-2.42c-.34-.84-.69-1.69-1-2.43s-.64-1.36-.81-1.77c.1.23.13.38,0,.42a10.65,10.65,0,0,1-.8-1.78c-.1.23-.52-.8-.73-.91.11.27.25.57.13.61-.75-1.31-1.4-2.29-2-3.26s-1.41-1.87-2.27-3.11c-.06,0-.09.11-.23-.07a45,45,0,0,0-3.29-4.27c-1.05-1.27-2.2-2.41-3.46-3.79-.06,0-.08.13-.23,0a21.9,21.9,0,0,0-1.51-1.73c.09.12.12.19.06.21-1.95-2.22-5.05-4.59-5.07-5.54.18.23.33.35.47.34-.37-.42-1-1.19-.46-1-.78-.59-1.11-1.26-.65-1.07,0-.1-.15-.26,0-.29-.46-.42-.29-.28-.64-.44.05,0,0-.15-.06-.24.24.18.53.42.51.28-1.06-.78-.08-.34-.41-.76-.61-.44-.56,0-1.38-.76.42.19.06-.2.2-.29.08.09.52.57.62.48-.4-.31-.15-.34-.33-.56a3.7,3.7,0,0,0-.65-.44c.67.29-.8-.62-.33-.57a20.76,20.76,0,0,0,3,2.26c.2.59,2,2,2.21,2.61a3.13,3.13,0,0,0-.5-.31c.3.31.26.46.44.7,1.61,1.4,1.29,2.19,2.87,3.81.21-.16.9.54,1.48,1.25.16-.18.56.32,1,.88,0-.66,1.48.91,1.27.1.12.24.43.59.55.56,0-.17-.64-.72-.41-.7.07,0,.34.33.55.56.15-.22-.16-.76-.54-1.35a10.51,10.51,0,0,1-1-1.59,13.26,13.26,0,0,1,2.48,2.87c.31.45.6.89.93,1.33A13.75,13.75,0,0,0,163.4,50l-.15.13c1.36,2,1.94,1.43,3,3.14a13.11,13.11,0,0,1,1.37,1.24c.46.52,1,1.14,1.49,1.85,0-.19.81,1,1,1,1.69,2.9.79-.48,1.32-.18a8.54,8.54,0,0,1-.5-1.9c.41.63.39.45.23.08l.45.7c.22-.23.63.39.29-.46a12.91,12.91,0,0,1-2.26-4.28c.19.26.19.05.44.45.28,0-.52-.93-.38-1A25.84,25.84,0,0,1,171,53.48c0-.23.26.17.31,0-.2-.34-.29-.35-.49-.67.3.28-.11-.45,0-.53a13.31,13.31,0,0,1-.86-1.46,3.57,3.57,0,0,1-.9-1.16c.76,1.08-.09-.37.52.38a26.31,26.31,0,0,0-1.88-2.82c.48.51.89.84,1.08.74-.37-.43-.17-.39-.28-.6-.8-1.08-1.26-1.94-1.81-2.82a29.34,29.34,0,0,0-2.2-3,27.53,27.53,0,0,1,3.35,3.59c.32.18.76.58.89.34-.37-.44-.73-.94-1.12-1.45l-1.23-1.55c-.42-.52-.85-1.05-1.3-1.54a14.52,14.52,0,0,0-1.42-1.32c-.77-1.3-3.5-3.32-5.3-5.05-.72-.67-2.49-2.21-3.12-2.27A81,81,0,0,0,147,26.54c-.15-.25.66.17-.09-.29a15.58,15.58,0,0,1-2.08-1.1,22,22,0,0,0-2.08-1.09L145,25.41l2.16,1.42c1.45.92,2.81,2,4.3,3,0,.09.24.28.27.37a22.32,22.32,0,0,0-3-1.81c-.88-.46-1.48-.71-1.19-.76-.22-.06-.89-.72-1.57-1.12-.33.06-.78-.25-1.33-.63a21.44,21.44,0,0,0-1.8-1.17c0,.15-.74-.37-.64-.13s.65.53.6.68a7.41,7.41,0,0,1-1.88-.85c-.67-.36-1.4-.78-2.28-1.21,0-.1-.19-.19.06-.13-.47-.2-1.85-.78-1.67-.94,1,.36.33.18.93.51.45,0,.08-.27-.43-.61.61.2.67-.05,1.48.31a2.64,2.64,0,0,1-.73-.48c.18,0,.77.27.86.16a26.15,26.15,0,0,1-2.48-1.29c-.08.24-1.28-.39-1.61-.57a3.29,3.29,0,0,1,1.4.52c-.29-.37.8.29.68,0-.77-.41-3.1-.85-4-1.63a19.94,19.94,0,0,0,3.26,1.09c.86-.31-1.57-1.25-2.74-1.94-.88-.31-2-.78-3-1.22A17.14,17.14,0,0,0,128,16.1c.62.27,2.06.66,2.2,1-.5.09-1.18-.52-1.47-.39.89.37,1.31.39,1.6.7-.27-.1-.21,0-.43,0-.81-.33-1.72-.78-1.55-.88,0,.17-.56-.32-.63-.16.29.15.26.26.35.38,1,.32,1.64.61,1.77.86-1.56-.26-2.7-.94-3.95-1a5.45,5.45,0,0,0-1.84-.62c.37.1.47.18.38.26a52.88,52.88,0,0,0-7.47-2,12.7,12.7,0,0,1,2.13.29,5.08,5.08,0,0,1-1.23-.53c.72.06,1.32.11,1.32-.05a18.86,18.86,0,0,1,3.18.64,5.38,5.38,0,0,0-2.1-.55s-.16-.1-.2-.14c1.06,0,.65-.35.36-.83a39.75,39.75,0,0,1,6.15,1.66c1.93.75,3.88,1.4,6,2.12.75.33,1.5.69,2.33,1.11s1.74.9,2.84,1.35c-.12.08.33.27.11.32a23.8,23.8,0,0,1,4.42,2.42c.32-.21,1.56,1,2.3,1.25,0,.11.19.21-.07.13,1.6.53,2.24,1.71,4,2.64-.76-.54.81.19-.61-.69-.31-.06.38.47-.1.18.2-.23-1.35-1.16-1.79-1.72a20.72,20.72,0,0,1-3.62-2.06,1.37,1.37,0,0,0-.87-.72c.8.39-.22.08-.3.13-1.12-.56-2.07-1.25-3.06-1.74.45-.05.39,0,1.22.48.06-.18-.16-.25.12-.28a3.52,3.52,0,0,0-1.45-.52c.41-.18-2.26-1.16-2.91-1.63,0,.12-.21.07-.66-.11.1,0,.27,0,0-.14-2-.77-3.85-1.49-5.74-2.05s-3.72-1.13-5.55-1.7c-1.27-.2-5-.84-4.69-1.31a82.48,82.48,0,0,0-14.22-2,34.68,34.68,0,0,1-5.29,0c.23,0-.45.13-.87.08-1.58-.19,1.09-.42,2.4-.39-1.15,0,0-.32.19-.44,1.24,0,2.37,0,3.45,0s2.13.08,3.22.08c.57.07.66.2,1.33.25a16.87,16.87,0,0,1,3.09.41c.66.05,1.14-.1,1.79,0s1.35.43,2,.53c.36.07,1,.09,1.32.14,0,0-.16.07-.23,0,.66.12,1,0,1.56.13.1,0,.15.18.2.19a26.1,26.1,0,0,0,2.64.4c.61.28-.77.05.18.29.08-.15,1,.09,1.35.06.56.43,2.43.65,2.1.84.74.17,1.77.37,2.76.65s2,.59,2.62.82c-.25-.09-.21-.16-.18-.22,1.6.53,2.1.75,3,1,0,.05-.19,0-.24,0,1.18.46,2.29.84,3.26,1.26s1.81.82,2.52,1.17a4.09,4.09,0,0,1,.69.1,1.83,1.83,0,0,0,1,.43c.37.29.12.39.72.59-.62-.47.86.25,1.28.43,0,.09.52.34.32.39,0,.13-.6-.25-.66-.17,1.32.65,1.38.51,1.56.35-.44-.32-1.25-.73-1.74-1.06-.49.06-2.57-1.18-3-1.47.27.12.22,0,.45.09,0,.07-.09.12.15.23a17,17,0,0,1,4.06,1.93c-.39-.42.44.05.54-.11-1.59-.8-3.18-1.64-4.65-2.32.62.38-.65-.14-.89-.19a10.41,10.41,0,0,0-1.81-1c.24.12.2.17.16.23a18.71,18.71,0,0,0-3.28-1.54,9.57,9.57,0,0,0,1.73.51A6.85,6.85,0,0,0,133,14l.05-.15c-1-.32-2.29-.79-3.64-1.28-.67-.25-1.36-.51-2.05-.73s-1.39-.39-2.06-.53c0-.07.07-.13-.19-.21-.58-.11-1.22-.28-1.87-.46l-2-.5a17.52,17.52,0,0,0-3-.63c-.06-.21,1-.05,1.57.19-.1-.38-1.41-.41-2-.46,0,0,0-.11,0-.1-.9-.1-1.32,0-2.27-.1a20.68,20.68,0,0,0-3.13-.61c.46.29-1.66-.19-2.25-.13,1.21.16.53.13-.45,0s-2.27-.19-2.26-.37a7.85,7.85,0,0,0,1.36,0c-1.24-.08-.66-.1-.9-.32a12.32,12.32,0,0,1-1.82-.23c.11.17,1,.22,1.36.35a3.79,3.79,0,0,0-.68,0c-.52-.1-.87-.37-1.36-.2,0-.08,0-.15-.23-.21,1.83.07,3.08.11,4.3.2s2.4.31,4.09.62a21.43,21.43,0,0,1,3.11.51c1,.21,2.12.39,3.19.52,0,.1.73.2.64.3a26,26,0,0,1,4.16,1.11,28,28,0,0,0,3.78,1c-.61-.23-1.51-.43-1.51-.57.69.17,3.77,1.07,3,1.17a18.12,18.12,0,0,1,1.74.53c.39-.09-1.12-.38-1-.5a15,15,0,0,1,3.81,1.57,49.32,49.32,0,0,1,9,4.36c.23-.16.36.31.77.51s-.08-.32.3-.11a4.4,4.4,0,0,0,.42.18c.78.4.65.51,1.12.81a10.77,10.77,0,0,1,2,1c0,.43,1.48,1.1,2.24,1.6,1.58,1,3.29,2.33,5,3.55s3.16,2.51,4.28,3.48c-1.69-1.61-2.4-1.94-3.78-3.32-1.14-.73-2.39-1.61-3.64-2.56s-2.61-1.8-3.88-2.58c.09-.09-.23-.33-.28-.45.28.06.77.38,1,.47-.68-.6-3-1.5-4.11-2.51-.18.08-.78-.36-1.23-.6-.8,0-3.84-1.63-5-2.18.08-.07,1.89.84,1.28.47s-1.27-.57-1.2-.7c.38.14,1.21.6,1.28.52-.64-.37-2-.9-1.57-1-.87-.43.22.3-.7-.1,0-.06-.16-.13-.4-.23-.19-.34.46-.06.74,0-.89-.54-1-.38-1.1-.33-.61-.41.62.07.1-.28a18.32,18.32,0,0,0-2.32-1,1,1,0,0,1,.4.26c-.37-.18-.94-.21-1.08-.42a2.34,2.34,0,0,0,.66.2c-.57-.3-1.36-.61-2.09-.91a11,11,0,0,1-1.74-.77c-.55-.11.36.28-.27.12a10.87,10.87,0,0,1-1.92-.85c-.14,0,.2.33-.28.17-.76-.3-2.15-.54-2-.74.25,0,1.71.44,1.14.22a15,15,0,0,0-2.72-.56c-.88-.31.22-.21-.61-.48-.31-.05-.07.18-.48.07s-2.62-.91-1.55-.47c-1-.26-1.14-.3-2.48-.61,0,.06.06.2-.25.14-1.88-.48-3.66-.75-5.39-1s-3.4-.41-5.1-.64c-.09.08.34.15,0,.14a12,12,0,0,0-3.22-.18c0-.07.11-.1.23-.13-.94,0-2.15-.14-3-.23.63-.18,1.82,0,2.06-.28-1.6,0-2.28.37-4.14.23-.31.11.61.2,0,.2a3.39,3.39,0,0,0-1.38,0c0-.17-.69-.17-1.17-.21-1.82.23-3.62-.07-5.27.39A58.55,58.55,0,0,0,81.37,8.15c-.23-.09-1.27.23-1.19,0-1.23.47-2,.34-2.89.77.27-.06.53-.11.48,0-.53.18-.59.15-1.55.44,0-.07,0-.17-.49,0-.61.51-2.49.72-3.57,1,0,.11.34,0,.5,0-.86.26-2.41.86-2.7.68.53-.24.84-.06,1.11-.32-.31.09-.29,0-.5,0-1.13.55-2.54,1-3.82,1.57s-2.48,1-3.24,1.24a7.14,7.14,0,0,0-1,.61,17,17,0,0,0-2.37.92,6.59,6.59,0,0,0-.84.39,19.67,19.67,0,0,1-2.92,1.39c-.16-.06,1.56-.89,1-.66a11.28,11.28,0,0,1-1.65.85c.15.07-.09.25-.42.43a5,5,0,0,1-.94.44A14.84,14.84,0,0,0,56,16.68c-1.25.71-3.42,2.28-3.52,1.81,0,0-.31.25-.4.23.75-.57.36-.47,1-1A37.72,37.72,0,0,1,49.61,20a12.06,12.06,0,0,0-3.14,2.38c-.11-.05.14-.24.06-.29a14.61,14.61,0,0,1-1.26,1c0-.1-.28.07-.32,0a14.07,14.07,0,0,0-1.25,1c.82-.62,1.25-.8,1.48-.76-.65.42-1.1.78-1.54,1.12a9.13,9.13,0,0,1-1.49,1c.76-.54.45-.54,1.21-1.08-.25.05-.26-.19-.92.35,0,.08.18.09-.06.29,0-.25-2.48,1.54-3.45,2.42-.06.29.53-.28.56-.09a7.62,7.62,0,0,0-1.09.87c.28-.4.18-.29,0-.36-.6.46-.13.33-.6.72-.11-.15-1,.73-1.23.74-.64.79-.93.92-.93.73a17.77,17.77,0,0,0-1.16,1.45c-.35.2,0-.06-.15-.13a6.35,6.35,0,0,1-1.21,1.1c-.22.28-.3.49-.51.79s-.67.67-.27.07c-1.83,1.81-2,2.76-2.9,3.63.19.33-.62,1-1.29,1.64-.11.31.54-.35.16.12a7.6,7.6,0,0,0-1.38,1.56c-.25.07.1-.38.09-.51-.26.46-.79,1-.82,1.13a2.16,2.16,0,0,1,.55-.47c-.34.43-.35.59-.82,1.13l-.12-.09c-1,1.67-2.79,3.78-3.1,4.61-.39.63-.38.33-.66.68.06,0,.16,0,.26-.11-.26.5-2,2.63-1,1.54a12.7,12.7,0,0,0-1.21,1.71c.31-.45.41-.39.14.07.11-.32-.05-.23-.38.32a8.46,8.46,0,0,1-.48,1c.19-.6-.61.89-.74,1.19.1-.16.23-.4.28-.38a10.61,10.61,0,0,1-1,1.8c0-.15.43-.77.36-.84a9.4,9.4,0,0,0-.82,1.65c-.46.18-.86,2.14-1.31,2.2a10.44,10.44,0,0,0,1-2.15A4,4,0,0,1,18,53.29c-.23-.15.31-.76.75-1.69-.28.16.07-.37.05-.49-.57.91-.28.6-.37.85s-.44.73-.48.54c.13-.24.33-.57.3-.63a3.49,3.49,0,0,1-.94,1.35c-.25.56-.52,1-.86,1.61s-.73,1.37-1.29,2.53c-.11.43.29-.22,0,.5a23.22,23.22,0,0,0-1.82,3.92C12.8,63,12.43,64.27,12,65.34c0,.49.43-.31,0,.74-.27.51-.31.33-.37.13-.3,1-.61,1.84-.94,2.68s-.67,1.7-1,2.8c.14,1-1.15,4-1.14,5.44a9.86,9.86,0,0,1,.87-2.89,11.85,11.85,0,0,1-.42,2c-.19.72-.38,1.29-.51,1.09-.11,1.26-.72,2.27-.51,2.73-.41.2-.86,2.8-1,4.3,0-.23-.11.33-.21.91-.2,1.52-.4,3.22-.59,4.89S5.94,93.54,6,95c-.07,0-.18,0-.17.47.13,0,.26,0,.23.68-.11.16-.14-.64-.15.24a2.27,2.27,0,0,1,0,1.15c.06.51.13-.29.15.22a3.29,3.29,0,0,1-.12.93c-.08,0,0-.58-.14-.45.09.84,0,1,.12,2.07.16,0,0-.78.2-.94.6,4.9.88,10.84,1.84,15.93-.07.27-.32-1.38-.26-.65a18.4,18.4,0,0,1,.83,4.28,4.89,4.89,0,0,0,.55,1.28c.08.82.9,3,.89,4,.21.06.3,1.09.59,1.49-.17.08,0,.45.14.67-.23.2.28,1.24.23,1.63a4.21,4.21,0,0,1,.63,1.72c.23.45,0-.32.21.16.25,1.11,1,2.59,1,3.31a18,18,0,0,1,1.62,4.06,6.51,6.51,0,0,1,1.22,2.46L17.09,142c-.11-.07-.26-.24-.37-.3.47.94.93,1.83,1.4,2.7l1.54,2.54.79,1.32.88,1.37c.61.93,1.2,2,1.93,3.07.06-.07.2.06.38.28a13.39,13.39,0,0,0,1.81,2.63c.72.85,1.31,1.56,1.1,1.78.72.9.19,0,.75.54.78,1.06,1.54,1.88,2.19,2.61a17.67,17.67,0,0,1,1.58,2c1.08.94,1.51,1.46,2.82,2.66,0,.13-.49-.43-.57-.38.76.79,1.38,1.33,2,1.86a14.71,14.71,0,0,1,1.59,1.71c.08-.23,1,.7,1.22.65a11.45,11.45,0,0,1-2.31-2.55c.78.6.91,1.1,1.29,1.28-1.4-1.77-2.58-2.35-4.36-4.3,0-.06.15,0,.26.05A24.83,24.83,0,0,0,31,161.57c-2.69-3.38-6.26-7.19-8.22-10.85a32.61,32.61,0,0,1-3.3-4.88c.38.18,1.35,2.24,1.74,2.37-.59-.94-3-4.78-2.34-4.41-.12.07-.19.27-.46-.25s-.13-.45-.34-.85a8.78,8.78,0,0,1-1.24-2c-.52-1-1-2.21-1.23-2.8.06.17.07.26,0,.25a20.92,20.92,0,0,1-1.11-2.49c.18.49.35.78.45.79-.23-.93-.48-.63-.83-1.61.08-.12.29.58.39.57-.39-.88-.87-2.13-1.35-3.35s-.84-2.45-1.16-3.24c-.24-.2.2.71,0,.51s-.44-1.1-.33-1.1.2.32.29.38c-.57-1.66-1-3.33-1.53-5.07-.25-.87-.44-1.79-.67-2.73s-.47-1.93-.63-3c.14-.62-.67-3.25-.77-4.48-.16-1.62-.64-4.25-.82-6.54-.37-3.64-.21-7.38-.36-10.45.08,0,.17,0,.16-.46-.07,0-.18.09-.19-.22a7.47,7.47,0,0,1,.44-2.27,4.06,4.06,0,0,1-.18-.91c0,.4,0,1.13-.1,1.36a4.9,4.9,0,0,1,0-1.14c.38-.92.14-.4.33-1.81a1.41,1.41,0,0,0,0,.68c-.11-1,.4-2.61.35-3.62-.23,1.17-.23,1.54-.46,2.48.11-1.18.18-1.45.21-2.5.12-.21.08.69.2,0a7.28,7.28,0,0,1,.31-2,9.72,9.72,0,0,0,.43-2.29c0,.46-.29,1.23-.22.66a10.71,10.71,0,0,1,.3-1.11,5,5,0,0,1,.14-1.73,15.53,15.53,0,0,0,.38-1.87A1.3,1.3,0,0,1,9.67,79a11.77,11.77,0,0,1,.5-2.92c.18-.08-.25,1-.15,1.13.55-2.22.62-3,.81-4,.12-.51.2-.21.33-.63-.34.3.16-1.35.5-2.46.14.12.24.07.21.29a5,5,0,0,0-.38,1.31c.3-.59-.05.69.07.72-.17.45-.21.45-.21.19-.33,1.65-1.09,3.63-1.33,5.3,0,0,0-.42-.15,0,.25-.31-.14.76,0,.69.24-.62.09.55.05.93,0-.26-.07-.26-.2.2.19.55-.43,1.66-.33,2.24-.16.51-.08-.46-.23.43l.2,0c-.13.81-.5,3.15-.61,3.81s.33-.61.14.46c-.2-.17-.21,2.49-.58,2.68-.06,1-.14,1.78-.19,2.48A14.63,14.63,0,0,0,8,94a3.8,3.8,0,0,0-.14,1.58c0-.36.15-1,.11-.45-.15,1.66-.25,3.61-.23,5.58s.07,4,.19,5.73A1,1,0,0,1,8,106l.07.9c-.07,0-.12-.09-.17-.21.19.77,0,2,.1,2.5,0-.65.08.36.05.46.16.12.12,0,.28.64a3.65,3.65,0,0,1-.06-.91c.45,1.88.54,4.72.93,6.73.21.68,0-.79.24-.06-.05.73.54,1.66.36,2-.15-.16-.49-2.27-.53-1.26a11.78,11.78,0,0,1,.87,3c.44-.33.88,2.71,1.38,3.57a11.24,11.24,0,0,0,.71,2.85,11.79,11.79,0,0,1-.56-3.61c.06.26.16.62.22.63-.26-1.24-.4-.7-.63-1.91-.18,0,.23,1.3.08,1.39a44.41,44.41,0,0,1-1-4.61c.1.72.22.26.33.84a5.05,5.05,0,0,0,.26,1.32,12.42,12.42,0,0,1,1.24,4.07,5.77,5.77,0,0,1,.62,2.15c-.12-.6.23.12.31.36-.23.06.58,2.22.4,1,.3.87.24,1.09.18,1.13a19.63,19.63,0,0,0,1,1.77c-.12,0-.28-.34-.11.29.25.48.14.09.29.36s.06.26,0,.24c.62.61.84,2.58,1.15,2.91-.09-.26-.18-.5-.07-.46a12.9,12.9,0,0,1,.78,2.35c.34.2.25.73.61,1.44a6.66,6.66,0,0,1,1.14,1.8c.45.83.8,1.63.62,1.56a5.48,5.48,0,0,1,1.11,1.93c.35.12-.64-1.36-.66-1.68a9.89,9.89,0,0,1,.76,1.34,10.09,10.09,0,0,0,.81,1.34c.16.55.29,1,.12,1,.33.5.49.48.76.82-.12-.23-.32-.54-.29-.6a6.36,6.36,0,0,1,.85,1.3c.24.46.39.86.25.91-.26-.48-.58-.49-.41-.26.35.15,1.1,1.4,1.49,1.67-.48-.88-.49-.49-.92-1.25,0-.33.28.07,0-.54a26.35,26.35,0,0,0,1.6,2.39c-.08.06-.38-.47-.4-.25.41.72.37.26.64.62s.51.88.47,1c1.31,1.34,1.91,2.56,3.55,4.54.36.11-.82-1-.71-1.14.86.88,1.68,1.83,2.5,2.78s1.73,1.84,2.62,2.69c-.08,0-.3-.21-.39-.22,1,.85,1.55,1.69,1.93,1.79.52.62,1.21,1.42,2,2.25l2.67,2.59,4.87,4.32c.67.51,1.47,1.07,2.23,1.57a8.19,8.19,0,0,1,1.83,1.49,13.22,13.22,0,0,1,1.63,1,10.51,10.51,0,0,0,1.57.93c-.28-.19,0-.09.24,0a23,23,0,0,0,3.8,2.25l1.94,1c.71.34,1.47.73,2.36,1.22,0-.28-2.54-1.21-2-1.37-1.9-1.06-2.37-1.56-4.12-2.54.23.12.54.32.6.28-.15-.09-.38-.21-.36-.26a5.31,5.31,0,0,0,1.77.84c-.68-.37-1.49-.78-2.24-1.26a19.65,19.65,0,0,1-2-1.43c.45,0,2.71,1.79,3,1.76-1.12-.75-2.06-1.54-3.38-2.41.67.24-.54-.36-.27-.4a20.18,20.18,0,0,1,1.85,1.12c-.23-.13-.56-.53-.11-.25a8.33,8.33,0,0,0,1.28.81c0,.08-.82-.34-.28.06a10,10,0,0,1,2.66,1.45c.09-.06-.16-.22-.1-.29a6.83,6.83,0,0,0,1.15.6l-.06.13a10.34,10.34,0,0,0,2.43.9A13.85,13.85,0,0,0,63,179.48a12.12,12.12,0,0,1-3-1.64c-.65-.33-1.33-.66-2-1l-1.94-1.13c-1.27-.71-2.37-1.42-3.16-1.88-.51-.3-1.1-.7-1.67-1.09s-1.1-.82-1.53-1.1a9.78,9.78,0,0,1-2.56-2c.45.5,1.22.8,1.71,1.31.43.21-.16-.26.25,0A66,66,0,0,0,63.44,179a112.86,112.86,0,0,0,16.39,5.31c0-.46,3.15.48,4.19.73.57-.18,1.88.35,2.11.17-.49-.2-2-.34-2.06-.57.13-.06-.22-.33.24-.25,1.27.16,2.24.45,3.08.61a8.29,8.29,0,0,0,2.12.26c-1.32-.16-2.33-.61-4.34-1,.29,0,.33-.35,0-.25.18.38-1-.11-1.47,0-.72-.13-.89-.3-1-.47.65-.1,2.35.24,3.13.2,0-.21-.69-.41-1.42-.45-1.54-.42-3.62-.93-5.76-1.36a52.88,52.88,0,0,1-5.91-1.69c-.39-.13-.22-.22-.76-.36-.89-.25-2-.62-3.18-1-.57-.21-1.14-.42-1.65-.65a8.76,8.76,0,0,1-1.35-.78,25.86,25.86,0,0,1-3.4-1.58c-.12.09-.52-.06-1.17-.43.34.07,0-.06.07-.18a9.57,9.57,0,0,0,1.34.57c-.21-.18-1-.5-.66-.56a10.87,10.87,0,0,0,1.47.63,14.92,14.92,0,0,1,1.42.48,4.22,4.22,0,0,0-.91-.51c-.91-.1-2.83-1.14-3.4-1-.4-.25-.57-.58-.23-.51A26.4,26.4,0,0,0,58,172.91a17,17,0,0,1-2.37-1.48c.08-.17.73.26,1,.29-1.24-.82.24,0,.29-.12A43.58,43.58,0,0,1,53,169.35a123.73,123.73,0,0,1-12.33-10.5,71.43,71.43,0,0,1-10-12.21c-.84-1.2-1.71-2.43-2.45-3.6l-1.89-3.13A18,18,0,0,1,24,135.78a35.92,35.92,0,0,1-2-4.28c.47,1.19,0-.09.05-.26.63,1.62,1.11,2.74,1.48,2.95a3.4,3.4,0,0,1,.17.61c-.08-.14-.17-.37-.22-.36.5,1.27.17-.41.65.59-.17.26.64,1.28.25,1.27-.29-.58-.25-.83-.47-.92A21,21,0,0,0,25,137.71c.37.68.71,1.27,1,1.68a27,27,0,0,0-1.42-2.75c0-.22.06-.27,0-.49a15.53,15.53,0,0,1-.93-2.52c1.32,2.48.75,2.12,1.63,3.78-.05-.1-.07-.23,0,0,.64,1.14.83,1.73,1.47,2.7.17.44.61,1.83.93,1.6a4.93,4.93,0,0,1-.91-1.85c-.73-1.61-1.52-2.32-1.87-3.41A5.27,5.27,0,0,0,26,137.94c-.37-.8-.47-.49-.87-1.38.08,0,.22.25.31.28a8,8,0,0,1-1.27-2.79l1.1,2.14c.37.66.71,1.26,1,1.8-.07,0-.14.14,0,.23l.08-.05c-.65-1.73-1.39-2.24-1.58-3.54.34.85.84,1.51,1.06,2.2.4.17,1.33,1.94,1.81,2.93a18.9,18.9,0,0,0-1.79-3.42,33.43,33.43,0,0,1-1.8-3.17c.08-.24.74,1.22.56.4-1.45-2.4-2.35-6.16-3.15-8.56.47,1.11.89,2.15,1.26,3.15s.79,1.93,1.11,2.86c.21.59-.07-.54.2.13a19.92,19.92,0,0,0,1.32,3.13c.56,1.22,1.32,2.47,1.94,3.56-.1,0-.18-.17-.13.08.83.92,1.79,3,2.54,4.1-.07-.14-.2-.34-.17-.37.34.67.77,1.36,1.22,2.07s.91,1.45,1.4,2.17,1,1.39,1.54,2a18.31,18.31,0,0,0,1.5,1.76l-.15.13c2,2.37,5.23,5.62,7.57,8.29.05-.1.22,0,.54.3.78.76,1.56,1.55,2.41,2.29l2.59,2.2L50.92,165c.92.68,1.9,1.3,2.84,1.95a112,112,0,0,0,11.43,6.47c-.29-.12-.63-.28-.51-.34.82.46,1.63.86,2.42,1.25l1.18.56,1.2.48,2.36.91c.8.28,1.6.52,2.41.79.39.21.53.4.88.61.05-.21-.25-.21-.3-.47a12.68,12.68,0,0,0,2.49.93c.91.26,1.84.51,2.66.66l0,.14a16.73,16.73,0,0,1,3.91.78c-.23-.05-.2-.12-.17-.18,1,.13,1.88.26,2,.44a3.68,3.68,0,0,1,1.56.42c.75.09,0-.24.42-.23a74.57,74.57,0,0,0,12.8,1,76.68,76.68,0,0,0,13.37-1.33,93,93,0,0,1-20.63,1c0-.14-1.3,0-1-.22-3.86-.18-8.75-1.44-12.34-2.1,0-.06,0-.12-.17-.19.12.23-.44.07-.81,0-.35-.33-1.79-.5-2.63-1-.32.16-2.56-.85-3-1-.21,0-.23.12-.63,0-.06-.2-.92-.3-1.26-.62a11.83,11.83,0,0,1-2.45-.8c-.07-.32-1.21-.67-2.14-1.09-.43-.12.19.21-.23.06A76.62,76.62,0,0,1,53.15,166c.13.08.32.23.35.19-.48-.39-.38-.11-.86-.49.08-.11-.22-.28.1-.17a15.63,15.63,0,0,1-2.51-1.94c-.27,0,.17.29.2.41-.37-.31-.39-.2-.81-.57.06-.08.46.28.42.08-.69-.62-.62-.28-1.31-.9.22-.1-.73-.68-1.09-1.18-.41-.11-.47-.17-.48,0a2.43,2.43,0,0,0-.94-.73l.09-.12c-.33-.2-1.61-1.13-1.61-1.47a7.54,7.54,0,0,0,1,.86,5.82,5.82,0,0,1,1.08,1c.09-.2-.68-.79-1.46-1.5a7.94,7.94,0,0,1-1.72-1.81l2.29,2.13,2.23,1.93c.72.66,1.52,1.24,2.31,1.89l1.22,1c.43.33.88.64,1.34,1,.11,0-.17-.28.08-.13s1,.62.94.73c-.25,0-.61-.57-.69-.37.4.29,1,.7,1.52,1.07s1.07.65,1.29.77c-.33-.21-1-.8-.38-.53a59.69,59.69,0,0,0,9.4,5.42,84.32,84.32,0,0,0,13.06,5.12l0,.1c1.82.31,3.35.94,4.83,1,.53.17,1,.32,1.13.49.35,0,1.14.25,1.18.15-.86-.13-1.31-.29-1.33-.48,1.09.15,4,.74,5.26.94.92,0,2.08.19,3.22.26s2.26.15,3.08.12c-1.14-.23-3.77-.07-3.93-.58,1.23.22,2.2-.06,3.53.21-.05-.18.39-.12,1.17,0,.91-.38,3.9.14,5.48-.22a11.43,11.43,0,0,0,1.78.2c.11-.16-.71-.05-.21-.19-.35,0-1.15.09-1.18,0,2.11-.06,3.91-.33,5.64-.49.87-.11,1.71-.27,2.57-.39s1.72-.24,2.62-.43c-.13-.45,2-.46,2.63-.68-.46,0-.06-.1.53-.22s1.38-.26,1.73-.35a32.36,32.36,0,0,0,4.41-1.43c-.92,0-1.83.65-3,.79,0-.12.13-.23.48-.37.18,0,1.25-.36,1.07-.46a11.48,11.48,0,0,1-1.26.37c-.38.07-.74.11-1.19.17a13.76,13.76,0,0,1,3.66-1.15c.73-.41,2.06-.76,3.57-1.37-.42-.14,1.31-.63,2.42-1.11.78-.55-.1-.32,1.25-.92-.5.09-.79.37-1.08.37.25-.35.47-.68,1.73-1.17,0,.08-.24.19-.28.28a9.72,9.72,0,0,0,2-1.15c.84-.25.62-.3,1.18-.59a10.85,10.85,0,0,0,2.6-1.49c-.67.22-1.41.81-1.76.69.56-.45,1.16-.45,1.14-.65-.55.13-2.08,1.16-2.27.93.35-.15.68-.32,1-.5-.06-.14-.93.33-.48-.08-.22.16-.9.35-.82.44.37-.18.56-.21.58-.1-.43.2-1.36.59-2.05.88a21,21,0,0,1,2.5-1.44c1-.55,2-1.07,2.71-1.4a1.09,1.09,0,0,1,.35-.49c-.74.43-1.52.79-.59.45a2.43,2.43,0,0,1-1.09.34c1.06-.82,1-.41,2-1.06C136,166.07,135.75,166.12,136.16,165.74Zm-99.88,1.53c-.24,0-.62-.5-.83-.78C35.57,166.44,36.19,167.16,36.28,167.27Zm-21-28.7c-.15-.27-.62-1.13-1-1.81.08.1.17.19.22.15a4.58,4.58,0,0,0,.66,1.2C15.26,138.34,15.15,138.3,15.27,138.57Zm2.29-85.49c.07.05.2-.09.36-.34.08.08-.19.56-.49,1.06.11-.4-.17.1-.06-.29-.24.37-.63,1.25-.67,1A11.45,11.45,0,0,0,17.56,53.08Zm117.68-34c.09-.1.32.22.79.35l-.05.14a4.42,4.42,0,0,1-.77-.4C135.34,19.21,135.48,19.22,135.24,19.1Zm6.81,25.74c.57.57,1.56,1,1.58,1.29C143.23,45.93,142,45.12,142.05,44.84ZM28.91,109.52a15.53,15.53,0,0,1-.34-2.79A18.18,18.18,0,0,1,28.91,109.52Zm105.61,57.42c0,.09-.42.29-.23.34-.51.29-.62.23-1.17.56,0-.07.27-.19.46-.3,0-.06-.08-.06-.21,0A3.8,3.8,0,0,1,134.52,166.94ZM128,171.77a4.42,4.42,0,0,1-1.19.58c0-.17.61-.4,1-.6C127.77,171.81,127.85,171.81,128,171.77Zm-8.91,4.43c-.17.15-1.74.66-1.69.4C118.17,176.46,118.15,176.41,119.08,176.2Zm-21.92-2.56c.7.09-1.48.19-1.27,0A5.44,5.44,0,0,0,97.16,173.64Zm-4.69-.53c.15.12-.92,0-.37.1-.14,0-1.76-.09-1.61-.25A13.39,13.39,0,0,0,92.47,173.11ZM50.52,174.9c-.09.14-1.27-.68-1.49-.94A7.2,7.2,0,0,1,50.52,174.9Zm-2.1-12.57c-.06.22-.68-.53-.93-.74C47.58,161.49,48.27,162.11,48.42,162.33Zm-15.75-17c0-.26.64.83.81.88,0-.15-.33-.42-.54-.84a16.86,16.86,0,0,1-2.42-3.23c-.76-1.39-1.59-2.86-2.27-4.15-.56-1.05-1.14-2-1.64-2.9s-.91-1.76-1.24-2.56c0-.14-.15-.44,0-.43a13.57,13.57,0,0,1-.91-2.22c0-.32.19.16-.21-.78.23.31.12,0,.22-.1.23.48,0,.4.09.61a2.89,2.89,0,0,0,.52.64c.11.38,0,.48.12.82s.25.31.43.67c0-.43-.68-1.74-.67-2.31.39.89.33,1.17.72,2.06-.1-.47-.36-1.15-.52-1.72-.77-1.51-1.19-1.09-1.83-2.87a4.09,4.09,0,0,0,.25,1.19c-.71-1.31-.91-2.82-1.48-3.71,0-.28-.17-.74-.09-.83-.18-.52-.71-1.65-.6-1.9-.11-.36-.19-.08-.3-.53a15.5,15.5,0,0,0-.57-2.64,11.39,11.39,0,0,1-.58-2.66,16.57,16.57,0,0,1-.81-4.13,11.38,11.38,0,0,1-.61-2.9,21.84,21.84,0,0,1-.05-3.28,27.06,27.06,0,0,1-.3-2.8,8.25,8.25,0,0,0-.05,1.42c-.19,0-.19-1-.22-2.4a2.11,2.11,0,0,1,.06.4c0-.51,0-1.15-.08-1.86s-.05-1.48-.06-2.27,0-1.58.05-2.33a10.48,10.48,0,0,1,.42-2,11.85,11.85,0,0,0-.05,2c0-.46.36-2.73.07-3a2,2,0,0,1,.22-1c.11.08.23.14.14.81.12.08,0-.91.19-.59-.08,1.29-.26,2.05-.34,3.39a15.29,15.29,0,0,0,.34-2.59c0,2.91,0,4.77-.11,8,.11,0,.14-.32.17-.65a1.87,1.87,0,0,1,.18-.77c-.13,2.12.27,3.52.2,5h-.1c-.1.11-.1-.27-.11-.58-.15.36.07,1.05.22.77.06.65.17,1,.2,1.77-.11,0-.15-.48-.18-1a10.33,10.33,0,0,0,.38,2.94c.15.69-.15.15-.07.62s.29,1.62.45,2.88.41,2.54.39,3c.15.49.21.58.31.33.16.69.18,1.1.07,1.2a9.33,9.33,0,0,1,.63,2.92c.16.68.06-.46.18.15s0,.24,0,.22c.16.72.32.52.54,1.48a.37.37,0,0,0-.48,0c.13.41.22,0,.34.09.28.8.08.78.24,1.38.13-.34.8.8.63,1.46a4.24,4.24,0,0,1-.24-1.17c-.11.06,0,.4-.23.08a8.27,8.27,0,0,1,.53,1.92c.14,0,.43.43.42-.16.13.61.34,1.35.45,1.94-.12,0-.3-.59-.47-1.09-.13-.32-.08.35-.1.47.17.41,0-.26.2.13s.17.74.4,1.34c0,.35-.06,0-.18.07.55,1.13.68.44,1.12,1.68a1.1,1.1,0,0,0-.13-.59,20.67,20.67,0,0,1,1.5,3.4,17,17,0,0,0,1.45,3.06c.19.6,0,.3.41.9-.05.46-.51-.24-.93-.84.06-.13.17.06.26.08a16.64,16.64,0,0,0-1.57-3.42c.76,1.6,1,2.74,1.67,4-.24-.12-.16,0-.12.3.35.58,0-.62.39,0,0,.33.84,1.43,1.1,2.34.14.24.08,0,0-.23.25.23.22.71.6,1.27a3.59,3.59,0,0,0-.22-.57c.19,0,.17.39.4.69,0,0-.09-.24-.16-.37.15,0,.54.85.72.94a2.28,2.28,0,0,0,.65,1.23c.57,1.18,1.29,2.34,2,3.51s1.57,2.28,2.34,3.38l-.11.09c.65.7,1.24,1.4,1.8,2.12l.85,1.08.92,1.06a8.81,8.81,0,0,1-1.88-1.95l-2-2.6A33.64,33.64,0,0,1,32.67,145.3Zm10,11.58c-1.18-.69-2.81-2.83-4.15-4.27a17.94,17.94,0,0,1,2,2Zm-.91-13.3a10,10,0,0,1-1.47-1.79A7.14,7.14,0,0,1,41.73,143.58ZM24.49,130.26c-.1.12-.25-.18-.43-.67l.13-.07Zm8.74-5.42a6.38,6.38,0,0,1-.58-1.65A9.12,9.12,0,0,1,33.23,124.84Zm-9,3.12c-.21-.53.1-.55.24-.32C24.74,128.36,24.37,127.86,24.26,128Zm-.16-.57c-.06,0-.16-.33-.24-.55.18.1,0-.31.16-.28C24.19,127.06,24.06,127.09,24.1,127.39Zm7.84-3.53c-.15-.09-.53-1.06-.3-1A8.18,8.18,0,0,1,31.94,123.86Zm-1.13-5.4a5.58,5.58,0,0,0-.31-1.19c0-.22.13.09.25.45S31,118.47,30.81,118.46Zm-10.28,3c-.19,0-.36-.91-.42-1.36C20.32,120.26,20.34,120.91,20.53,121.49Zm10.52-3.84c-.19.08-.32-1.33-.5-1.49-.13-.6.28.25.15-.22C30.82,116.34,30.93,117.06,31.05,117.65Zm-20.38,2.51c-.12,0-.24-.56-.35-.6-.06-.35.11-.23-.11-.9C10.36,118.65,10.51,119.55,10.67,120.16Zm-.4-2.22c-.19-1-.44-1.76-.57-2.86A12.26,12.26,0,0,1,10.27,117.94ZM9,117.6c0-.61-.28-1.27-.24-1.59S9.2,117.91,9,117.6Zm1-.51a2.29,2.29,0,0,1-.34-1.3A4,4,0,0,1,10,117.09Zm-.58-3.56a5.51,5.51,0,0,1-.33-1.76c.1-.06.13.79.19,1.11.11,0-.08-.8-.09-1.13A6.16,6.16,0,0,1,9.39,113.53ZM8.3,106.2C8,106,8.16,104.38,8.06,104A20.68,20.68,0,0,1,8.3,106.2Zm.12-.93a7.52,7.52,0,0,1-.09-2c.12-.1,0,1,.17.66A9.3,9.3,0,0,0,8.42,105.27Zm9.42-1.74a30.78,30.78,0,0,1-.38-4.23c.09.08,0,.93.18.6C17.65,101.37,17.79,102.24,17.84,103.53Zm-9.69.19a8,8,0,0,1-.08-2.93A21,21,0,0,0,8.15,103.72Zm.36-1.16a1.81,1.81,0,0,1-.18-1.11A2.22,2.22,0,0,1,8.51,102.56Zm-.23-1.11c0-.38-.07-.93-.08-1.53s0-1.25,0-1.84c.25.44-.1,2.26.22,2.23a5.81,5.81,0,0,1,0,.9C8.37,100.84,8.22,100.44,8.28,101.45Zm20.23-5.31c-.18.18,0-.55,0-.88C28.65,95.14,28.6,95.88,28.51,96.14ZM8.38,95.83c0-.87.07-1.88.13-3s.14-2.39.26-3.73c-.23.16-.09,1.08-.28,1.56-.16-.08.07-1.29.14-2,.24-.44.21.34.45,0l-.24,1.92c0,.6-.07,1.18-.11,1.74C8.66,93.45,8.53,94.55,8.38,95.83Zm10.44-4.19c-.24,0,0-1.21.07-2.2C19.12,89.61,18.92,90.89,18.82,91.64ZM18.75,89c-.26,0,.39-3.14.05-.8A5.32,5.32,0,0,1,18.75,89ZM9.11,85.72c-.22.17.12-1.06.17-1.57A5.75,5.75,0,0,1,9.11,85.72ZM9.56,84c-.11-.09-.06-.6,0-1.14,0,.18.07.25.16.25Zm.55-5.4c0-.07,0-.85.15-.89.05-.22,0-.19,0-.24.19-.64.13-.24.25-.19C10.34,77.92,10.23,77.88,10.11,78.56Zm.58-2.2c0-.14,0-.28-.1,0-.11,0,.2-.78.26-1.1A2.25,2.25,0,0,1,10.69,76.36ZM11.8,71c-.1-.24.3-.87.41-1.54C12.45,69.36,11.93,70.52,11.8,71ZM10.39,70c.34-.84.68-1.67.9-1.44C11,68.93,10.65,69.87,10.39,70Zm1.53-.08c0-.34.34-1.5-.12-.27a7.78,7.78,0,0,1,.71-2.17A23.65,23.65,0,0,1,11.92,69.88Zm21.16,5.05c0-.32-.13.09-.12-.22a18.21,18.21,0,0,0,1-2.27A13.41,13.41,0,0,1,33.08,74.93ZM11.39,68.07c-.32.19.45-1.83.56-1.52C11.62,67.32,11.65,67.62,11.39,68.07ZM12.68,68c-.14-.06.43-1.43.61-1.72C13.17,66.8,13,67.06,12.68,68Zm21.44,4.17c-.24.09.3-.87.39-1A2.06,2.06,0,0,1,34.12,72.13ZM13.54,64.39c-.16,0,.12-.82.34-1.09A4.78,4.78,0,0,1,13.54,64.39ZM15,60c.66-1.39,1.07-2.56,1.65-3.55.21-.09-.05.41.16.32-.24.28-.7,1.41-.8,1.16A11.67,11.67,0,0,1,15,60Zm.23-.4c.24-.32.35-.06-.05.72,0-.74-.39.94-.7,1C14.91,60.48,14.82,60.6,15.24,59.64ZM15.51,57a4.75,4.75,0,0,1,.74-1.45A4.64,4.64,0,0,1,15.51,57Zm27.63.56c-.09,0,0-.18,0-.22.34-.45.53-.54.9-1.08C44.11,56.41,43.44,57.31,43.14,57.56Zm-18-14.24c.19-.53.91-1.14,1-1.57a15.45,15.45,0,0,0,1.58-2l.2.14C27.06,40.84,26.17,42.22,25.18,43.32ZM44.93,55.19c.44-.46.53-.66.93-1C45.94,54.29,45,55.36,44.93,55.19ZM28,39.65A9.21,9.21,0,0,1,30.18,37a7.48,7.48,0,0,1,2.22-2.66c-.31.53-1.56,1.59-1.48,2.07C29.56,37.78,28.63,39,28,39.65Zm.82,0c-.12-.09.75-1.06,1-1.25,0,.19-.26.59-.74,1.16C29,39.53,29,39.48,28.78,39.68Zm1.42-1.5c0-.22.59-.71,1.18-1.4.05.07.27-.14.31-.05C31.15,37.24,30.62,37.81,30.2,38.18ZM49.59,51.6a3.9,3.9,0,0,1,.79-.9C50.4,51,50,51.13,49.59,51.6Zm-18.93-16c-.07-.09.66-.73.92-1-.26.44.12,0,.55-.44C32.09,34.45,31.13,35.14,30.66,35.61ZM32,35.24l-.12-.1.79-.84C32.88,34.34,32.27,34.91,32,35.24Zm18.7,15.31a2.57,2.57,0,0,1,.67-.78C51.42,49.91,51.07,50.37,50.73,50.55Zm-.17-.86c-.06-.07.49-.42.66-.56C51.22,49.39,50.75,49.62,50.56,49.69Zm.85-1.09c-.07-.1.35-.47.68-.8C52.24,47.88,51.68,48.46,51.41,48.6Zm1.37-1.09c-.15.12-.11,0,0,0s-.53.42-.53.21c.32-.27.22-.31.62-.61a.78.78,0,0,0,.33-.16C53.24,47,52.7,47.41,52.78,47.51ZM36.34,29.8c.07,0,.34-.25.56-.43s-.41.58.14.14a3.56,3.56,0,0,1-1,.61c.58-.58.32-.48,1-1C37,29.24,36.59,29.56,36.34,29.8ZM54.58,47.37c-.14-.09.56-.78.64-.56A1.92,1.92,0,0,1,54.58,47.37ZM54,46.51c-.16,0,.26-.4.22-.52.2-.13.32-.13.4-.08A3.24,3.24,0,0,1,54,46.51Zm-14.4-19c.07-.11.13-.21.07-.26.21-.16.52-.31.25-.08.15-.06.45-.29.46-.18-.18.11-.36.22-.36.29C39.81,27.41,39.82,27.28,39.59,27.48Zm1.12-1.17c.25.05.29,0,.06.4C40.42,26.85,40,26.92,40.71,26.31ZM57.83,44.07c0-.06-.09,0-.2,0,.24-.31.31-.13.83-.62,0,.1.17,0,.34-.12C58.6,43.66,58.18,43.6,57.83,44.07ZM44.92,25.16a37.3,37.3,0,0,1,3-2.35C49.12,22,50.34,21.2,51,20.72a14,14,0,0,1-2.5,1.89C47.25,23.45,45.86,24.47,44.92,25.16Zm1.82-1.73-.09-.12a7.64,7.64,0,0,1,1.15-.75C47.85,22.67,47.23,23.08,46.74,23.43Zm1.22-1-.09-.12c.38-.22.84-.52.86-.38Zm.48-1.25c0-.07.18-.15.2-.13.53-.61.23,0,.83-.42a3.69,3.69,0,0,1-.74.54C48.7,21.07,48.68,21,48.44,21.14Zm4.32-1.48c-.06-.17,1-.71,1.5-1.05C54.12,19,53.33,19.21,52.76,19.66Zm19.45,17.9A2.75,2.75,0,0,1,73.26,37C73.24,37.15,72.51,37.39,72.21,37.56Zm9.94-28.3c1,0,1.14.1.76.26a24.06,24.06,0,0,1-2.62.64A6.84,6.84,0,0,0,81.42,10c.14.12-1,.27-1.06.4-.3,0-.22-.08-.28-.14-2.11.57-2.28.55-4.56,1.25-.36-.09-1.11.32-1.59.25-.58.22.7-.08.07.19a15.87,15.87,0,0,0-3,.87c0,.14,1.38-.54,1.13-.23a14.44,14.44,0,0,0-2.55.92c-.11-.08,0-.19.12-.3-.57.18-.68.3-.56.4a5.43,5.43,0,0,1-1.77.46,5.27,5.27,0,0,1,1.2-.64c.53-.2,1.16-.41,1.81-.63,1.29-.42,2.62-.85,3.31-1.16l3.82-1,3.9-.86c0-.08-.75.14-.9.11s1.32-.41,1.33-.25C82.4,9.46,82.43,9.41,82.15,9.26Zm-3.9,27.16a1.83,1.83,0,0,1,.9-.41A2.28,2.28,0,0,1,78.25,36.42Zm.6.16c-.19-.13.67-.43.62-.21Zm-1.34-3.39c.27-.18,1.75-.72,1.52-.37A8.84,8.84,0,0,0,77.51,33.19ZM79.31,36c.79-.54,2.32-.65,3.15-1-.26.14-.38.28-.39.42a15.6,15.6,0,0,0-2.08.49C79.82,35.85,79.79,35.74,79.31,36ZM71.6,13.22a8.56,8.56,0,0,1,1.69-.61C73,12.94,72.48,12.93,71.6,13.22Zm8.32,20.52c.11-.07.13-.15.09-.23.5-.18.36,0,.85-.14C80.89,33.49,80.35,33.62,79.92,33.74Zm.34-.55-.05-.14a10,10,0,0,1,2.17-.53C81.75,32.83,81,32.86,80.26,33.19Zm2.1-.72c1.36-.47,2.54-.49,4.17-1-.14.15,0,.12-.09.32a6.31,6.31,0,0,0-2.68.56c-.29.06-.4,0-.39-.11-.47.15-.16.11-.11.22C82.78,32.6,82.81,32.38,82.36,32.47Zm-6.1-20.2c-.09-.2.65-.18,1.28-.4A4.11,4.11,0,0,1,76.26,12.27Zm2.58.76a49.49,49.49,0,0,1,8.62-1.73c.54-.12-.22-.19-.69-.11.19-.16.93-.11,1.31-.17,0,.08-.25.14-.18.22a8,8,0,0,0,1.53-.15,42.3,42.3,0,0,1-4.59.92l-2.68.43c-1,.18-2,.41-3.06.68C79.09,13.05,79.09,13,78.84,13Zm-.43-2.83a9.66,9.66,0,0,1,1.3-.41c0,.09.3,0,.27.14C79.12,10.18,79.28,9.94,78.41,10.2Zm8.52,21.49c0-.19.69-.3,1.3-.43,0,.08-.18.13-.13.22A5.39,5.39,0,0,0,86.93,31.69Zm-3.5-22c0-.13.3-.25.13-.38,1.25-.17,1.8-.21,3.18-.29C86,9.3,84.76,9.36,83.43,9.68Zm6.76-1.91-1.13.14,1.42-.23L92,7.51c1.06-.11,2.16-.22,3.3-.3a56.86,56.86,0,0,1,6.91,0c.24,0,.15-.09.45-.09.53,0,.94.08,1.37.13,0,.15-1.13.06-1.82.06,0,.07,0,.14.24.15-1.11,0-2.66,0-4.34.06l-2.59.12c-.87.07-1.74.2-2.56.33a8.83,8.83,0,0,1-1.85-.1c-.65.1.17.15,0,.25-.56.07-1.06-.09-1.35.09-.67,0-.27,0-.26-.16a26.21,26.21,0,0,1-2.69.45c-.19.19.72,0,1.15-.05a12.94,12.94,0,0,1-2.92.42c-.21-.15,1-.5-.3-.29.94-.39,3.6-.35,4-.64-.87.06-2,.21-3.14.37a11.28,11.28,0,0,1-2.54.26A21,21,0,0,1,86.57,8c1.14-.12,2.3-.22,3.58-.42Zm-5.86,2.74c0-.13.45-.32.84-.3C85.27,10.32,84.75,10.41,84.33,10.51Zm2.14-.67c0,.05-.22.08-.2.13,1.41-.19,2.19-.3,2.91-.43s1.4-.26,2.61-.39c.49.24-.57.36-1.89.59l-3.57.52C85.38,10.29,85.16,10.11,86.47,9.84Zm1.18-.9c.13-.13.72-.22.84-.36.33.11,1.93-.24,2.06-.06C89.54,8.5,88.82,8.9,87.65,8.94Zm8.76,1.33c0,.05.28,0,.45,0,0,.08-.65,0-.65.12a13.09,13.09,0,0,0,2,0c-.9.26-3.15.24-3.91.47-.35-.08-.19-.25,0-.29-.22-.15-.49,0-.89,0-.6.11.71,0,.47.21a13.27,13.27,0,0,0-2.83.32,3.56,3.56,0,0,0-1.31.12c-.17-.32,1.38-.27,1.93-.41-.77-.19-2.81.52-2.87.18.69-.07,1.41-.18,2.16-.29l2.32-.26c.79-.08,1.59-.17,2.39-.19a22.68,22.68,0,0,1,2.35.08C97.51,10.43,97.23,10.21,96.41,10.27Zm-5.8-1.41c-.79.08.53-.26-.26-.17.19-.19.76,0,.91,0S90.62,8.76,90.61,8.86Zm.86-.27a31.8,31.8,0,0,1,3.22-.29c1-.06,1.76,0,1.3.16C94.84,8.28,93.33,8.65,91.47,8.59Zm4.29,3.62c-.34,0,.18-.09-.23-.09A9.27,9.27,0,0,1,98.12,12C97.88,12.3,96.18,12,95.76,12.21Zm2.16-.07,1.07,0c-.13.05-.25.1,0,.1,0,.07-.64,0-.64.12C98,12.33,97.86,12.26,97.92,12.14Zm-1.28-3.9c.74-.08,1.94-.11,3.28-.15s2.83.07,4.15.05c-1.55.35-4.14,0-6.52.18C97.76,8.16,97,8.24,96.64,8.24Zm7.75,4.29c.49.11,1.83.05,2.14.29a8.35,8.35,0,0,1,1.5,0c.12.11.61.21.21.26s-.23-.16-.64-.19-.5.1,0,.15c-2.18-.08-3.23-.15-5.13-.27a4.62,4.62,0,0,1,1.49-.07c0-.3-1-.15-1.5-.08-.06-.06-.82-.21-.44-.21,0-.15,1.07,0,1.72-.06-.59-.15-2.47,0-2.8-.11.15.13.45.26-.41.24,0-.17-.19-.28-.6-.34a12.28,12.28,0,0,0-1.59-.07c.17-.05.22-.11.2-.2,1.18,0,3,0,4.88,0,1,0,1.93,0,2.86.09s1.84.12,2.64.21c0,.09-.27.08-.23.18a15.05,15.05,0,0,1,1.52,0v.2c.38,0,.45,0,.86,0s-.26-.11.22-.12l1.08.14s0,.09.2.12a3.63,3.63,0,0,1-1.51.06c.16.06.22.14.2.22-.5-.16-1.21,0-1.71-.26-.29,0-.4.06-.43.15C107.34,12.72,106.32,12.62,104.39,12.53Zm.8-4.74c.2.17-.35.13-.45.22-1.27-.09-1.58-.06-2.94-.12,1.29.26-2.82.1-3.16,0a21.5,21.5,0,0,1,3.52-.07A26.51,26.51,0,0,0,105.19,7.79Zm-.91-.24c.06-.12,1,0,1.13.06C105.24,7.77,104.62,7.61,104.28,7.55Zm1.36.52c-.15-.19.36-.19,1.13-.11.17.14-.45.06-.45.16,1.8.27,3.64.26,4.27.72a13.4,13.4,0,0,0-3.37-.16,4.29,4.29,0,0,0-.9-.21,2.52,2.52,0,0,1,1.12,0A3.42,3.42,0,0,0,105.64,8.07Zm7.21.65c.18-.09,1.39.13,1.11.24a5.6,5.6,0,0,1-.9-.06C113.09,8.83,113.11,8.76,112.85,8.72ZM114.13,35c.42-.11.81.23,1.42.37,0,.15-.86-.23-.81-.08C114.32,35.25,114.65,35.11,114.13,35Zm5.2.7a27.5,27.5,0,0,0,2.69.76c.55.18.24.33.88.5.12.14-.52,0-.06.19a15.87,15.87,0,0,1-2.22-.58c-.18-.13-.15-.24.07-.24C120.22,36.14,119.63,35.93,119.33,35.74Zm9.12-22.25c.05-.09.9.28,1.28.38C129.7,14,128.7,13.65,128.45,13.49Zm1.08-.62a9.46,9.46,0,0,1,1.52.46C130.88,13.57,130.36,13.11,129.53,12.87Zm7.81,3.66c-.58-.35.52,0,1.08.33C138.53,17.17,137.38,16.47,137.34,16.53Zm-3.06,22.65c.51.22,1.19.61,1,.29,1.15.59,1.26,1.35.25,1C135,40,134.14,39.48,134.28,39.18Zm13.87-10.84c0-.19.45.12.95.48-.07.06.15.24.07.29A8.47,8.47,0,0,1,148.15,28.34Zm.6,21c.06-.28.62.3,1,.49.31-.24-.11-.78.61-.43a4.34,4.34,0,0,1,.76,1c-.17.43-.24.37-.77.33-.35-.31-.95-1-1-.71C149.19,49.8,148.89,49.52,148.75,49.33Zm7.32-6.49c.13,0,.79.69.84.82a2.62,2.62,0,0,1-.62-.48C156.4,43.17,156.24,43,156.07,42.84Zm-4.59,8.38c.22.22.22.31.45.54,0,.2-.26-.09-.29.05C151.55,51.59,151.32,51.29,151.48,51.22ZM163,40c0-.25,1.21,1.08.85,1A4.12,4.12,0,0,1,163,40Zm5.15,7.13.27.34c-.15.07.13.54-.45-.17C168.17,47.28,167.84,46.88,168.15,47.12Z"/><path class="cls-2" d="M29.14,105.76a7.94,7.94,0,0,0,.07,1.35c.06.47.18,1,.27,1.42-.25-.11.12.44,0,.54a6.27,6.27,0,0,1-.29-1.55,7.19,7.19,0,0,0-.26-1.73c-.07.07,0,.45,0,.71s-.13-1.49,0-1.42C29,105.77,29,106.1,29.14,105.76Z"/><path class="cls-2" d="M5.73,103.53c0-.46-.14-.28-.12-.91a11.45,11.45,0,0,0-.16-3c0-.48.08-.49.15-.24,0-1.35,0-2.53,0-3.68s.09-2.26,0-3.49c.14.6.29-2.28.07-1.62C5.93,89,6.18,87,6.44,85s.49-3.89.68-5.31a27.91,27.91,0,0,0-.69,4.14c-.12-.55-.21,1-.15,1.16H6.13a102.83,102.83,0,0,0-1.06,15.35,111,111,0,0,0,1.17,14.35c.34.9.64,4.1,1.23,5a15,15,0,0,0,.64,3c-.38-.44.3,1.39,0,1.21.4,1,.52,2.27.82,2.67a10.08,10.08,0,0,1-.63-2.74,25.83,25.83,0,0,1,.89,3.63,27,27,0,0,1,1.29,3.75c.25,0,.35,1.21.71,1.71.11,0,0-.37.13-.06.43.81.65,1.94,1,2.59-.1-.26-.19-.52-.08-.47.29.64.18.67.47,1.31.18,0-.3-1-.38-1.36a12.05,12.05,0,0,1-1.29-3.22,6,6,0,0,1,.69,1.72c.18.1-.08-.47,0-.52a14.18,14.18,0,0,1-.69-1.46c.17.09.39.55.57.75-.26-.79-.38-.51-.63-1.23,0-.24.38.59.18-.08a5,5,0,0,1-.43-1.56c-.21.26-.35-1.1-.65-1.48.27.65.29,1.29,0,.73a17.3,17.3,0,0,0-.4-1.83c.05,0,0-.19,0-.25.3,1,.51.78.11.2-.34-1.4-.75-2.9-.91-3.82,0,.27.06.52.07.7-.35-1.36-.1-1.17-.37-1.33-.24-1,0-.86,0-1.44-.12.27-.27-1-.4-.84.08.43.39,1.34.17,1.15-.29-1.48-.38-1.64-.69-2.91.1,0,.06-.29.15-.28a3.54,3.54,0,0,0,.46,1.78A12.1,12.1,0,0,0,7.65,117c0-.61-.21-1.42-.3-1.36,0-.67.13-.31.29-.07a9,9,0,0,1-.33-2.75c.06.32.14.24.21.43a4.75,4.75,0,0,1-.19-1.83,13.1,13.1,0,0,1-.47-2.33,20.4,20.4,0,0,1-.14-2.9,7.07,7.07,0,0,1-.26-1.47c0-.59-.07-1.34-.12-2.41-.23-.3,0,1.38-.11,1.4a5.53,5.53,0,0,1-.17-2.52c.12-.1,0,1,.17.67C6,99.24,5.76,102.35,5.73,103.53Zm4.16,23.88-.14,0c-.25-.68-.08-.57-.16-.93A3.86,3.86,0,0,1,9.89,127.41Zm-.33-1.85a6.74,6.74,0,0,1-1-2.84l.19-.06c.12.39.08,1,.28,1.12.16.76-.17-.21-.21-.17C8.9,124.21,9.32,124.41,9.56,125.56Zm-2.47-10.8A7.26,7.26,0,0,1,6.76,112C6.87,112.91,7.07,114.19,7.09,114.76Zm.14-1.45a8.57,8.57,0,0,1-.37-2A5.74,5.74,0,0,1,7.23,113.31Zm-.53-1.77a6.55,6.55,0,0,1-.28-1.35C6.58,110,6.73,111.18,6.7,111.54Zm.27-1c-.12.09-.2-.29-.27-.89C6.82,109.58,6.9,110,7,110.56Zm-.48-.62c-.39-.39-.21-3,0-2.56A11,11,0,0,0,6.49,109.94Zm-.38-2c0,.35-.09-1-.19-1.83A3.79,3.79,0,0,1,6.11,107.9Zm.47-1c-.11.27-.29-.66-.3,0,0-1.08-.09-1.32-.09-3A13.34,13.34,0,0,1,6.58,106.9Z"/><path class="cls-2" d="M136.67,167.6c-.22.17-1.36,1-1.51.79A13.81,13.81,0,0,0,136.67,167.6Z"/><path class="cls-2" d="M141.4,181.67c-.17.16-2.35,1.11-2.8,1.43-.32.05.27-.25,1-.59S141.17,181.74,141.4,181.67Z"/><path class="cls-2" d="M123.09,176a4,4,0,0,1-1.08.46c0-.13-.63.07-.64-.07A5.39,5.39,0,0,0,123.09,176Z"/><path class="cls-2" d="M114.48,181c.69-.15.53.08,1.23-.07-.13.14-1.22.27-1,.08-.24.07-.39.14-.36.22C113.53,181.27,114.14,181.07,114.48,181Z"/><path class="cls-2" d="M92.68,185c0,.14-.48.15-.85.18C88.76,184.69,92.07,185.22,92.68,185Z"/><path class="cls-2" d="M91.59,186.31c.31,0-.09.06,0,.15-.7-.09-1.45-.26-2.11-.39C90,186,91,186.47,91.59,186.31Z"/><path class="cls-2" d="M86.74,194.41c.28,0,.21-.07.25-.12,1.49.15,2.49.66,3.94.6-.09-.1-1.24-.11-1.39-.24.59,0,.94.16,1.86.13.2.19,0,.12.23.31-2-.08-1.71-.18-4.2-.45.71-.08-1.28-.23-1.15-.29.08.21-.89.07-1.39-.2-.65-.07.33.19-.25.15-.78-.24-2.65-.38-2.29-.55-.27,0-.42-.08-.46-.13-.57-.05.43.3-.72.08.8,0-.53-.22-.89-.39,1.24,0,4.23.72,5.78.82A4.12,4.12,0,0,1,86.74,194.41Z"/><path class="cls-2" d="M91.29,189.35a19.53,19.53,0,0,1-2.41-.33A15.66,15.66,0,0,1,91.29,189.35Z"/><path class="cls-2" d="M88.44,185.55c-.27,0-1.13-.22-1.89-.3-.08-.14,1.14.2,1.06.05A4.68,4.68,0,0,0,88.44,185.55Z"/><path class="cls-2" d="M71.71,179.41a12.64,12.64,0,0,1-2.14-.8C70.07,178.76,71,179.12,71.71,179.41Z"/><path class="cls-2" d="M60.38,182a8.39,8.39,0,0,1-1.84-.82C59,181.31,59.81,181.77,60.38,182Z"/><path class="cls-2" d="M53.87,180.06c-.39-.11-1.38-.76-1.47-.61C51.9,179,53.53,179.75,53.87,180.06Z"/><path class="cls-2" d="M48.27,179.89c-.38,0,.73.85,1.48,1.17-.39,0-2.32-1.31-3.3-1.76.74.4.93.26,1.28.59s.23-.11-.1-.3C47.71,179.56,48.22,180,48.27,179.89Z"/><path class="cls-2" d="M55.69,156.34c-1.32-.7-3-2.63-4.21-3.2,0-.19-.58-.66-.48-.79a8.85,8.85,0,0,0,1.5,1.35,7.14,7.14,0,0,1,1.24,1.14A14.34,14.34,0,0,1,55.69,156.34Z"/><path class="cls-2" d="M43.91,172.11c-.08-.24-.24-.25-.68-.59-.61-.58.71.56.44.15.51.39,1,.75.8.81-.16-.11-.16-.15-.15-.18a1.34,1.34,0,0,0-.44-.15C43.68,172,43.81,172,43.91,172.11Z"/><path class="cls-2" d="M38.53,167.7c-.3-.3-.69-.67-.56-.73a8,8,0,0,0,1.39,1.13s-.18-.21-.31-.33c1,.49,2.56,2.18,3.71,3.25-.11,0-.43-.17-.65-.25C42.09,170.38,39.26,168.19,38.53,167.7Z"/><path class="cls-2" d="M34.75,168.4a13.83,13.83,0,0,1-1-.92c.14,0,.33.14.46.17a22.72,22.72,0,0,1-2.11-2c-.72-.77-1.49-1.58-2.22-2.42-1.45-1.71-2.92-3.4-4.17-4.73-.52-1.17-1.89-2-2-2.83,0,.23,0,.19-.19.16,1,1.19,2.52,3.2,2.37,3.48.13-.27-.46-.11-.76-.88-.28-.18.24.6-.14.13q-.32-.59-.54-1.08l-.92-1.05c0-.07.13-.06,0-.29-.1.36-.76-.93-1-1.29.1.45.9,1.53,1,1.93.24.07.27.34.75.9,0,.06-.13.06,0,.28a10.21,10.21,0,0,0,1.05,1.25c-.28-.4-.25-.44,0-.28.65,1,1.61,1.92,2.27,3,.28-.1.74.64,1.3,1.34.08,0,.07-.19.29,0s.22.44.33.67c-.26-.31-1-1-.57-.42.06,0,.32.27.58.58s.54.59.6.55c-.36-.36-.49-.56-.39-.61.31.5.42.28,1,1a.53.53,0,0,1,.56.08c.22.59,1,.86,1.52,1.43a4,4,0,0,1,.7,1.32,8.72,8.72,0,0,0,.88.76c-.34-.34-.25-.42-.38-.63a28,28,0,0,1,2.54,2.39,2.72,2.72,0,0,1,1.15.8,17.52,17.52,0,0,0-1.51-1.37A6.66,6.66,0,0,1,34.75,168.4Zm-6.33-6.46c.17.22.07.22,0,.28a5.57,5.57,0,0,1-.8-.84C27.58,161,28.51,162.37,28.42,161.94Z"/><path class="cls-2" d="M50.36,152c.12.29-.54-.64-1-1a5.34,5.34,0,0,1,1.26,1C50.41,151.88,49.9,151.5,50.36,152Z"/><path class="cls-2" d="M34,163c.3.32.28.1.68.57a2.13,2.13,0,0,0,.46.83c-.07,0-.33-.29-.38-.25-.08-.45-1-1.19-1-1.58C34,162.76,34.1,162.92,34,163Z"/><path class="cls-2" d="M33.57,162.49c0,.24-.36-.26-.31-.32-.22-.23-.43-.46-.5-.45-.35-.43.33.07.6.34C33.24,162.08,33.29,162.21,33.57,162.49Z"/><path class="cls-2" d="M47.07,147.55c-.14-.14-.1,0,0,0-.35-.22-1.08-1.24-1.46-1.51a1.6,1.6,0,0,1,.3.23l.62.55c.44.42.85.87.77,1C47.13,147.7,47.07,147.61,47.07,147.55Z"/><path class="cls-2" d="M45.53,145.64c.24.09-.48-.86-.67-1.28a14.68,14.68,0,0,1-2-2.41c.23.22.9,1,1.5,1.69a6.75,6.75,0,0,1,1.16,1.76c.61.75.69.8,1.23,1.48A18.2,18.2,0,0,1,45,145.07c-.61-.75-1.2-1.51-1.57-2C43.72,143.21,44.92,145,45.53,145.64Z"/><path class="cls-2" d="M27.73,155.7c.5.74-.06,0-.14.13l-.7-.88c.36.29,0-.14,0-.3-.41-.58-.26.1-.8-.79,0-.17.3.31.37.27a8.71,8.71,0,0,1-1.44-2,3,3,0,0,1,.79,1.09c.18.1.44.38.58.39a4.21,4.21,0,0,0,.48.76c-.06,0-.27-.31-.43-.51C26.66,154.2,27.45,155.62,27.73,155.7Z"/><path class="cls-2" d="M42.26,141.54a4.45,4.45,0,0,0-.29-.66c.09,0,.29.33.45.54-.2-.16-.2,0,.09.38-.3-.31-.43-.17-.81-.7C41.72,140.79,42.08,141.41,42.26,141.54Z"/><path class="cls-2" d="M40.73,140.08c-.35-.26-.51-.87-.81-1.15C40.14,138.94,40.52,139.77,40.73,140.08Z"/><path class="cls-2" d="M24.48,151.43c-.32-.4-.47-.71-.43-.8-.39-.52-.2-.17-.28-.07l-.49-.75c.75.86-.15-.39,0-.53A14.88,14.88,0,0,1,24.48,151.43Z"/><path class="cls-2" d="M21.45,146.71c.38.77.81,1.17.94,1.53-.1,0-.28-.29-.37-.29-.27-.51-.94-1.82-.45-1.33C21.72,146.92,21.47,146.58,21.45,146.71Z"/><path class="cls-2" d="M27.15,140.56c.08-.15,1.4,2.07.8,1.19C27.64,141.19,27.53,141.33,27.15,140.56Z"/><path class="cls-2" d="M27.32,140.45a3,3,0,0,1-.53-.81c-.16-.35-.31-.72-.45-1C26.61,138.93,26.83,139.77,27.32,140.45Z"/><path class="cls-2" d="M18.77,140.73c0,.19.26.67.14.7-.75-1.41-1-1.92-1.53-3,.3.4.19.12.4.29l.28.61c-.07,0-.21-.35-.32-.58A4.58,4.58,0,0,0,18.77,140.73Z"/><path class="cls-2" d="M16,138.19c-.36-.66-.57-1.4-1.11-2.48A13.59,13.59,0,0,1,16,138.19Z"/><path class="cls-2" d="M13.13,136.84c.33.64,0,.34.4,1.1-.21-.13-.57-.95-.75-.92C12.66,136.36,13.44,138,13.13,136.84Z"/><path class="cls-2" d="M15.28,135.74c-.07-.46-.45-1.35-.62-2l-.09,0C14.36,132.83,15.55,135.8,15.28,135.74Z"/><path class="cls-2" d="M12.38,133.11c-.06.13-.18-.1-.26-.14-.17-.5.14-.52-.31-1.37-.18-.69.24.44.29.37A3.37,3.37,0,0,0,12.38,133.11Z"/><path class="cls-2" d="M13.91,131.9c-.31-.19-.47-1.39-.63-1.93.08.1.15.19.21.15-.4-.8-.09-.62-.3-1.33-.09-.23-.14-.11-.24-.39-.24-.66-.28-1-.1-.92a10.83,10.83,0,0,0,.72,2.12l-.13.06a6.93,6.93,0,0,1,.32,1.08c.07-.16.06-.35.29.11.14,0-.35-.95-.08-.69.11.45.21.88.31,1.33-.39-.91-.29-.33-.39-.07a4.35,4.35,0,0,0-.37-1.06C13.3,130.29,13.65,131.23,13.91,131.9Z"/><path class="cls-2" d="M11.71,131.9a5.18,5.18,0,0,0-.41-1.33c.08,0,.07-.21,0-.5A7.25,7.25,0,0,1,11.71,131.9Z"/><path class="cls-2" d="M12.69,127.78a1.71,1.71,0,0,1-.22-1.36,2,2,0,0,1-.28-.61C12.66,126.17,12.45,127,12.69,127.78Z"/><path class="cls-2" d="M31.32,110.11c-.1-.3-.16-1.54-.24-2.2A11.49,11.49,0,0,1,31.32,110.11Z"/><path class="cls-2" d="M19.39,109.58c0,.38.13.7.1.38.17,1,.07,1.24-.21.25,0-.21.15-.44,0-.61C19.23,109.3,19.32,109.67,19.39,109.58Z"/><path class="cls-2" d="M18.86,102.82c-.06,0,0-.2,0-.2a2.35,2.35,0,0,1-.13-1A1.9,1.9,0,0,1,18.86,102.82Z"/><path class="cls-2" d="M30.51,100.93a3.91,3.91,0,0,1,0-1.71C30.58,99.42,30.42,100.27,30.51,100.93Z"/><path class="cls-2" d="M33.11,82.23l-.09.33s-.07,0-.1.15a9.52,9.52,0,0,1,.18-1.35C33.27,81.35,32.94,82.07,33.11,82.23Z"/><path class="cls-2" d="M34.83,76c0,.33-.63,1.54-.18.83a14.65,14.65,0,0,0-1.32,3.87A7.13,7.13,0,0,1,34,79c-.22,1.13-.7,1.68-.7,2.44.08-.25.14-.09.14,0,.13-.43.24-1,.37-1,0,.2-.49,1.32-.31,1.48a58,58,0,0,1,4-11.11c-.18.22-.39.7-.55.88,0-.13.13-.31.09-.33s-.14.3-.19.29c.3-.55.59-1.47.35-1.14a3.86,3.86,0,0,1-.62,1.4c-.09.42.38-.23.13.41A7.38,7.38,0,0,0,36,74.12a3.82,3.82,0,0,1-.65,1.35c.11-.61,1-2.22.87-2.75a14.36,14.36,0,0,1-1.15,2.66l0,.52C34.72,76.45,35,75.74,34.83,76ZM34.1,78.8c-.17,0,.06-.75.23-1A2.66,2.66,0,0,1,34.1,78.8Z"/><path class="cls-2" d="M31.36,80.8c-.1,0,.18-.72.24-1,0,.11,0,.22.09,0C31.77,79.92,31.45,80.42,31.36,80.8Z"/><path class="cls-2" d="M36.11,70.47c.07-.26.17-.63.3-1a4.61,4.61,0,0,1,.57-1,8,8,0,0,1-.43,1C36.38,69.76,36.22,70.15,36.11,70.47Z"/><path class="cls-2" d="M36.88,69.48c-.13.2-.18.08-.26.08.22-.4.52-1.44.71-1.19C37.05,68.85,36.6,69.37,36.88,69.48Z"/><path class="cls-2" d="M41,64.26c0-.06-.09,0-.17.1a4.45,4.45,0,0,1,1-1.56C41.71,63.19,41.24,63.67,41,64.26Z"/><path class="cls-2" d="M19.59,50.21c-.3.51-.86,1-.6.47C18.93,50.65,19.27,50.55,19.59,50.21Z"/><path class="cls-2" d="M41.28,61.3c-.16.26-.25.27-.41.55.05-.42.26-.6.61-1.24C41.76,60.28,41,61.4,41.28,61.3Z"/><path class="cls-2" d="M44.16,57.61c.3-.63,1.3-1.66,1.65-2.42A10.61,10.61,0,0,1,44.16,57.61Z"/><path class="cls-2" d="M45.57,56.29c0,.1.15,0,.29-.21.06.1-.19.43-.38.57-.12,0,.16-.79.3-.63Z"/><path class="cls-2" d="M26.46,40c-.32.18,1.08-1.13,1.35-1.61-.3.56.46-.24.8-.56a8.39,8.39,0,0,1-1.32,1.62C27.89,38.57,26.84,39.59,26.46,40Z"/><path class="cls-2" d="M24.57,34.83c.12,0-.54.67-.75,1-.13-.22.49-1,1.16-1.88Z"/><path class="cls-2" d="M51.35,51.11c0-.28.62-.58,1-.94C52.29,50.37,51.72,50.67,51.35,51.11Z"/><path class="cls-2" d="M49.58,19.17c0,.12-.26.15-.59.38.24-.23.57-.49-.25.05-.21,0,1.06-.81,1.54-1.05C50.29,18.64,48.85,19.53,49.58,19.17Z"/><path class="cls-2" d="M73.54,8.75C72.91,9,75,8.18,75.26,8a4.94,4.94,0,0,0,1.63-.28c.24.08-.06.15-.55.23a16.66,16.66,0,0,0-1.71.39,3.6,3.6,0,0,0,1-.12C75.22,8.44,74.55,8.36,73.54,8.75Z"/><path class="cls-2" d="M80.92,7.39c-.43.07-1.35.38-1.16.16C81.1,7.3,81.27,7,80.57,7c.13-.08.51-.16.42-.24C81.89,6.77,81,7.14,80.92,7.39Z"/><path class="cls-2" d="M84.68,6.15c-.17.18.78.16.31.29-.8.1-.1-.19-.77-.21.39-.05.42-.11.43-.18,1.45-.15,1.94-.35,3.71-.53a2.61,2.61,0,0,1-1.15.2c.54.13-.82.25-1.55.51L85.6,6Z"/><path class="cls-2" d="M93.89,2.87c-.37.28.77.11,1.22.15C94.54,3.22,92.17,3,93.89,2.87Z"/><path class="cls-2" d="M104.69,5.64c-.51,0-3.27-.09-.7-.11A4.7,4.7,0,0,0,104.69,5.64Z"/><path class="cls-2" d="M107.47,5.64c-.8,0-1.54,0-2.78-.09.55-.11-.3-.2-.47-.31a4.67,4.67,0,0,1,1.86.25c.34,0-.07-.08.23-.18a5,5,0,0,0,1.39.1C108.13,5.5,106.77,5.42,107.47,5.64Z"/><path class="cls-2" d="M107.23,6a17.54,17.54,0,0,1,3-.09c1.38.08,2.94.21,4.14.36.27,0,.2-.06.24-.11.59.17.71.23.44.32a6.6,6.6,0,0,1,1.6.33c.28,0,.47,0,.47-.06l1.8.34,1.69.39,3.15.69c2,.52,3.77.9,5.38,1.4-.72-.08.73.33.37.43a4.31,4.31,0,0,1,.67.18c-.06-.13-.84-.33-.61-.42,1,.45,1.55.56,1.92,1-.4,0-1.14-.63-1.13-.28l-2.4-.8L125.78,9l-2.1-.6-2.09-.5c-1.4-.33-2.82-.67-4.42-.93l-2.5-.45c-.88-.15-1.82-.25-2.82-.38-.61-.11-.45,0-.69.06S110.06,6.1,110,6c-.34,0-.73,0-.7.13A14,14,0,0,0,107.23,6Z"/><path class="cls-2" d="M124.63,13.22c0-.14,1,.22,1.32.21a4.21,4.21,0,0,0-.62-.27c1.39,0,3.54,1,5.54,1.61-.67,0,4,2,4.54,1.87.66.25.38.31.76.5a13.57,13.57,0,0,1,1.51.41c-.18,0-.26,0-.27.09a8.25,8.25,0,0,1,1.89,1.24,4.21,4.21,0,0,1,1.4.66c-.89-.33.09.25.93.64a24.47,24.47,0,0,1-2.87-1.12c.09,0,.37.09.45.05a13.09,13.09,0,0,0-2.57-1.32c-.23-.18-.19-.29.09-.23A11.36,11.36,0,0,1,135.2,17a3.37,3.37,0,0,0-1.41-.37c-.44-.21-.77-.41-1.41-.66.28-.1.62.26,1.24.49a1.5,1.5,0,0,0,.46,0c-1.24-.47-2.81-1.16-4.49-1.7l-2.53-.84C126.22,13.63,125.39,13.42,124.63,13.22Z"/><path class="cls-2" d="M126.35,15.59c-.37-.25-1.57-.53-1.83-.77.87.26,2,.71,2.48.84S126.48,15.59,126.35,15.59Z"/><path class="cls-2" d="M121.46,39.53c.13,0,.19-.05.21-.14a2,2,0,0,0,1.13.58c.12.08,0,.16.25.25-.18.12-.36-.13-.89-.3C122.27,39.8,121.89,39.66,121.46,39.53Z"/><path class="cls-2" d="M133.92,14c-1.26-.4-1.89-.73-3.22-1.09a1.27,1.27,0,0,1,.67.12c-.11-.08-.2-.15-.18-.21A19,19,0,0,0,134.4,14C134.09,13.89,132.54,13.46,133.92,14Z"/><path class="cls-2" d="M136.89,15.1c-.34-.29.84.43.56.46a5.23,5.23,0,0,0-.81-.42C136.55,15,137.49,15.39,136.89,15.1Z"/><path class="cls-2" d="M138.32,14.5c0-.06.1,0,.23,0l0-.09c.21.35,2.52,1.13,2.18,1.37-.45-.2-.37-.25-.36-.33C139.52,15,138.82,14.75,138.32,14.5Z"/><path class="cls-2" d="M147.65,15.21c.62.33.59.46,1.21.79a7.79,7.79,0,0,1-1.73-.81c-.06.07.22.24.13.3a9.1,9.1,0,0,0-1.46-.81,1.79,1.79,0,0,0,.59.43c-.35,0-.68-.33-1.13-.37-.44-.25.12-.18.31-.12a6.4,6.4,0,0,0-1-.68c.16,0,.51.21.48.09A21.11,21.11,0,0,0,147.65,15.21Z"/><path class="cls-2" d="M141.29,23.59c-.21-.12-.09-.1,0,0-.1-.11-.42-.27-.32-.33a10.91,10.91,0,0,1,1.23.89C142.67,24.54,141.27,23.44,141.29,23.59Z"/><path class="cls-2" d="M143.48,23.47a2.7,2.7,0,0,1,1.21.47c-.84-.18,1.14.53,1.65,1,.18.09.59.11.28-.06.38.29,1.27.88,2.2,1.51a19.83,19.83,0,0,1,2.34,1.86c.55,0,1.22,1,1.7,1,.31.25,0,.22.24.44a23.3,23.3,0,0,1,2.35,1.9c.25.21-.44.15.4.56.16.38-1-.64-1-.88a17.74,17.74,0,0,1-1.82-1.54c-.31-.23-.44-.24-.45-.1a10.33,10.33,0,0,0-1.94-1.38c.32-.09-.29-.53-1.07-1.06a11.54,11.54,0,0,1-2.15-1.56,13,13,0,0,1-1.76-1C145,24.29,144.27,23.86,143.48,23.47Z"/><path class="cls-2" d="M149.07,22.69a4.44,4.44,0,0,1,1.18.63c.23,0-.2-.28-.07-.33,1,.66,1.64.92,2.36,1.33-.31,0,.61.67,1.61,1.46a7.74,7.74,0,0,1,2.07,2,5.55,5.55,0,0,1,.74.52,8.1,8.1,0,0,0,1.44,1.46c.61,1,2.45,2.67,2.76,3.36-.41-.49-1.5-1.24-1.2-1-.76-.6-1.6-1.37-2.52-2.18l-2.91-2.42A24,24,0,0,0,149.09,24a21.66,21.66,0,0,1,2.48,1.47c-1-.55-1.27-.45-2.65-1.17-.1.1,1.25.73.86.73s-.6-.44-1.3-.83c1,.24-1.67-1.45-2.33-1.74,0-.08.55.25.47.05a19.52,19.52,0,0,0,1.7,1.06,5.75,5.75,0,0,0-1.47-1.16c-.63-.36-1.35-.73-2.07-1.18a17.69,17.69,0,0,0,2.28,1,25,25,0,0,1,2.43,1.08c.74.52,1.76,1.17,2,1.05.43.31.26.39.85.77s.08-.27,1.38.74c.27.15.4.15.47.09-.37-.53-2.44-1.64-1.92-1.6-.4-.31-.31-.1-.6-.3-.14.05.85.57.48.52s-.91-.6-.67-.65C150.49,23.32,150.21,23.44,149.07,22.69Z"/><path class="cls-2" d="M145.54,25.11c.08-.08.43.35.91.58.13.26,0,.17-.29.1C146,25.58,146.35,25.65,145.54,25.11Z"/><path class="cls-2" d="M153.08,30.11c.64.52,1.41,1.11,2.15,1.8A15.18,15.18,0,0,1,153.08,30.11Z"/><path class="cls-2" d="M157.17,30.68c-.39.24-2-1.61-2.9-2.39A34.73,34.73,0,0,1,157.17,30.68Z"/><path class="cls-2" d="M152.81,42.19c.58.52.3.57.68,1S152.52,42.19,152.81,42.19Z"/><path class="cls-2" d="M154.26,61.9c.38.53.13.58.34,1C154.48,62.78,154.16,62,154.26,61.9Z"/><path class="cls-2" d="M160.9,60.28c.17,0,.19.45.45.78a1.94,1.94,0,0,1-.6-.67C160.9,60.47,161.19,60.81,160.9,60.28Z"/><path class="cls-2" d="M156.62,66.39a4.09,4.09,0,0,1,.57,1.37A7.33,7.33,0,0,1,156.62,66.39Z"/><path class="cls-2" d="M156.45,67.08c.31.2.27.63.41.89C157.34,69,156.44,67.27,156.45,67.08Z"/><path class="cls-2" d="M165.91,76.12c.1.3.18.32.27.63-.17.07-.59-1.16-.67-1.39.41.69.18-.2.3-.32.28.33.62.86.56.33a7,7,0,0,1,.3,1.74C166.46,76.38,166.19,75.51,165.91,76.12Z"/><path class="cls-2" d="M170.61,94.3c0-.74-.08-.45-.16-.15.22-.08.16,1.16.32,2.06-.09.11-.13.45-.28.38,0-.54,0-1.93-.33-1.71-.14-.63-.21-1.49-.34-2.31a12.15,12.15,0,0,0-.48-2.09c-.44.65,0,1.78.27,3.09-.19-.11-.13.47-.19.72-.55-.82-.43-3-.5-4.43.11.41.13-.38.26.13.21-1,0-2.56.29-3.25-.06-.41-.15-.35-.2-.84.12,0,.18-.07.2-.23-.23-.57-.47-1.34-.1-1.06-.08-.3-.15-.86-.25-.65,0-.31.11-.4.08-.75-.07-.57-.19-.08-.26-.65.22-.22-.18-1.33.05-1.48a4,4,0,0,1-.21-2.35,9.87,9.87,0,0,1,.88,3,32,32,0,0,0,.57,3.72c-.3,0-.2,1,.07,2,0,.31-.08.41-.23.41a8.9,8.9,0,0,1,.23,1.56A21.62,21.62,0,0,1,171.71,95c-.16.26-.05.36-.08.9a13.89,13.89,0,0,0-.69-1.86C170.89,94.33,170.74,94.28,170.61,94.3Z"/><path class="cls-2" d="M172.79,132.55c0,.16,0,.23.1.25-.38.77-.37,1-.75,1.81,0-.18-.4.07-.36.28-.27.4.16-.86-.45.45-.15-.11.5-1.15.25-1.17A5,5,0,0,0,172.79,132.55Z"/><path class="cls-2" d="M43,176.48c-.49-.2-1.35-.85-1.83-1s-.33-.41-.23-.49c-.26-.13-.41-.26-.34-.33-.63-.32-1-.74-1.73-1.2A5.36,5.36,0,0,0,37.55,172c.66.5,1.27,1,1.82,1.54a13.56,13.56,0,0,0,1.45,1.1,11,11,0,0,0,1,1.07,10.73,10.73,0,0,1,1.59,1c-.11,0,0,.15.31.39-.12,0-.24-.07-.27,0A4.25,4.25,0,0,1,43,176.48Z"/><path class="cls-2" d="M14.77,135.24c-.17-.31-.27-.24-.47-.77.25,0-.2-1-.5-1.77.15-.17.57,1.28.85,1.85C14.69,134.79,14.51,134.7,14.77,135.24Z"/><path class="cls-2" d="M138,12c.08.16-.73-.28-.73-.05-.22-.27-1.57-.72-1.42-.93-1.2-.38-2.06-.54-2-.07a30.8,30.8,0,0,1-3.71-1.21c-1.2-.48-2.25-1-2.89-1.31-.61-.79.46-1,2.29-.49a26.85,26.85,0,0,1,4,1.58A19.56,19.56,0,0,0,137.09,11c.71.35,2.86,1.36,3.82,2-.3,0-.06.09-.11.27-.83-.33-2.2-1-2.22-.78A1.74,1.74,0,0,1,138,12Z"/><path class="cls-3" d="M112.61,178.75c-.69.12-1.38.17-2.07.26a84,84,0,0,0,20.06-5.22A90.92,90.92,0,0,1,119.31,177a103.72,103.72,0,0,1-11.73,1.73l-2.88.21c-1,.09-1.9.07-2.84.12-1.87.12-3.7.07-5.48.11-.88,0-1.75,0-2.61,0s-1.7,0-2.52-.05c-1.63-.09-3.22-.05-4.7-.14a10.78,10.78,0,0,0-2.88-1.11c-1.48-.52-3.38-1-5.19-1.67-3.66-1.18-7.09-2.61-7.27-2.57-.71-.24-1.44-.48-2.16-.74L66.92,172c-1.44-.54-2.82-1.25-4.24-1.89l2.9,1.37,2.94,1.21-2.94-1.21-2.9-1.37a73.43,73.43,0,0,1-24-19,76.82,76.82,0,0,1-14.93-28.73c-.2-.74-.43-1.56-.67-2.45L22.46,117c-.25-1-.4-2.13-.6-3.28-.1-.58-.21-1.16-.29-1.77s-.15-1.22-.22-1.84a80.51,80.51,0,0,1-.24-16.43,77.48,77.48,0,0,1,3.14-16.14,80.28,80.28,0,0,1,4.68-11.69c.87-1.59,1.65-3.21,2.62-4.76-.8,1.28-1.16,2-1.51,2.62s-.76,1.32-1.43,2.68c.35-.89.8-1.72,1.19-2.57s.78-1.69,1.23-2.48l1.29-2.4,1.37-2.29c.44-.77.93-1.5,1.42-2.22s1-1.45,1.45-2.15c1-1.37,2-2.76,3.12-4-.44.41-.71.63-1.13,1s-.92.94-1.86,2c.74-.88,1.43-1.8,2.23-2.64.44-.65,1.08-1.49,1.81-2.41s1.66-1.87,2.55-2.85L46,40.61c.9-.82,1.72-1.56,2.34-2.15-.21.32.18,0,.89-.5s1.72-1.29,2.67-2l-.82.48A88.18,88.18,0,0,1,63,28.82a73.77,73.77,0,0,1,12.38-5.23A14.31,14.31,0,0,1,77.82,23l1.85-.56c.62-.19,1.25-.32,1.88-.49,1.25-.31,2.5-.64,3.78-.86-.27.17,1.32-.06,2.52-.22s2-.18.22.13a83,83,0,0,1,17.13-1.13,80.92,80.92,0,0,1,29.33,7.4,83.17,83.17,0,0,1,25.11,18l-.28-.43a85.64,85.64,0,0,1,7,8,56.9,56.9,0,0,1,6.26,10,77.94,77.94,0,0,1,4.55,9.3c.59,1.58,1.23,3,1.66,4.25A26.23,26.23,0,0,0,180,79.19c.44,1.8.85,3.31,1.15,4.71s.58,2.65.81,3.92.43,2.53.63,3.93.35,3,.44,4.76c.11-.94.23.82.34,2.38s.16,2.87.27,1.11c.26-4.87-.09-5.12-.17-9.27l-.07.13a82.4,82.4,0,0,0-7.6-27.92,83.28,83.28,0,0,0-17-23.8c-9.55-9-22.05-16.66-35.28-20.31a84,84,0,0,0-10.94-2.32c-1.87-.2-3.73-.49-5.6-.57-.93-.06-1.86-.13-2.79-.17l-2.78,0a80.82,80.82,0,0,0-20.57,2.48l-3.91,1-1.79.4c-.59.15-1.19.32-1.8.49A87.47,87.47,0,0,0,56,28.19,82.73,82.73,0,0,0,40.26,40.8a6.14,6.14,0,0,1,.46-.45c-1.2,1.25-2.35,2.4-3.4,3.56s-2.09,2.26-3,3.45S32.38,49.68,31.5,51c-.46.63-.92,1.26-1.39,1.92L28.78,55a10.14,10.14,0,0,1-.73,1.35A16.67,16.67,0,0,0,27,58c-.3.51-.64,1.12-1,1.81L24.76,62.2a82.16,82.16,0,0,0-5,13A84,84,0,0,0,17.06,89c-.11,1-.23,1.9-.3,2.73s-.1,1.57-.14,2.21c-.09,1.28-.15,2.13-.17,2.43,0,.7,0,1.42,0,2.16a88.49,88.49,0,0,0,1.84,21.21,73.45,73.45,0,0,0,6.63,18.74l1,1.76,1.13,1.74c.38.57.75,1.12,1.1,1.66L29.25,145a13.65,13.65,0,0,0,1.33,2c.44.54.93,1.12,1.67,2.19a36.75,36.75,0,0,0,4.22,6c.91,1,1.08,1,.06-.35a90.17,90.17,0,0,0,11.38,10.83c1.77,1.38,3.63,2.61,5.52,3.85a19.47,19.47,0,0,1,3.22,2.3c4.32,2.36,3,1.83,7.54,4.2a20.63,20.63,0,0,0,2.33,1.1c1.19.52,2.74,1,4.27,1.58s3.13.94,4.4,1.32,2.25.56,2.59.68l-.82-.19,2.06.62,1.94.51,1.84.51c.61.17,1.21.29,1.81.44A55.52,55.52,0,0,0,92.35,184a82.53,82.53,0,0,0,12.41.3,88.6,88.6,0,0,0,12.48-1.63,92.51,92.51,0,0,0,11.88-3.41,95,95,0,0,0,10.73-4.8c0-.3-2.94,1.57-3.25,1.34a96,96,0,0,0,11.62-6.59c.91-.64,1.86-1.24,2.76-1.92l2.68-2c1.72-1.43,3.45-2.87,5.06-4.44,1.25-1,2.67-2.44,3.25-2.91a9.24,9.24,0,0,0,1.46-1.64,10.62,10.62,0,0,1,1-1.26l.36-.07c1-1.21,1.66-2.09,2.42-2.91a20.54,20.54,0,0,0,2.26-2.86,13.41,13.41,0,0,1,1.21-1.9c.23.09,1.71-2.69,1.81-2.45v0c.35-.52.56-.92,1-1.56l1.08-2.2c.54-1.1,1.13-2.53,1.75-3.93s1.1-2.87,1.53-4,.66-2,.75-2.32l.24-.51c.62-1.53.63-2.27.29-1.37l.66-1.92-.06.23.66-1.91c.14-.35.35-.72.3-.14a34.47,34.47,0,0,1,.9-3.46c-.53,1.5-1,3.21-1.75,4.87-.34.84-.67,1.68-1,2.49s-.76,1.58-1.11,2.34c.21-.65.57-1.53.94-2.43s.67-1.83.9-2.53c.17-.41.39-.92.63-1.51s.43-1.27.67-2,.49-1.43.7-2.17.4-1.47.59-2.15a13.59,13.59,0,0,1,.35-2.44c.3-.64.27-1.56.61-2.69a36.65,36.65,0,0,1-.69,4c.31-.18.75-3.25,1-4.3,0-.51.42-3.12.55-4.78.16.75.24-1.32.43-2.3s.08-1.83,0-1.38c-.21-.37-.48,4.43-.6,2.85a28,28,0,0,0,.32-3.75c-.13,0-.12.79-.22,0,.06-1.31-.06-2.69.09-3.44a9.52,9.52,0,0,1,0,1.17c0-.85.23,1.45.27,3.71s0,4.47.09,3.36c-.08.28-.06-2.17-.09-4.53S184,99.43,184,100c-.09,1-.22-.74-.28.33l.12,1.19c-.09,1.46-.32,2-.4,1.53s.08-.48.14,0a21.54,21.54,0,0,1,.18,2.29c.06,1.79.09,3.65.11,2.59,0,.28-.07.56-.13.84a29.59,29.59,0,0,1,.3-4.18,10.24,10.24,0,0,1-.14-2.21l0-.35c0-1,0-2.46-.15-1.79-.07,3-.36,2-.66,1s-.62-2-.73.84c.17-1.2.23-1,.25-.18s0,2.27-.08,3.53a17.24,17.24,0,0,0-.55,3.15c-.18,1.56,0,.92,0,1.23-.17.86-.43,2.5-.55,2.26a26.72,26.72,0,0,1-.63,3.37c-.15,1.28.09-.08,0,.84-.43,1.9-1,4.55-1.54,6-.29.54-1,2.21-.86.89.82-2.81,0,1.17.81-1.78-.33.59-.16-.06.07-.94a11.84,11.84,0,0,0,.4-2.29,18.17,18.17,0,0,0-.58,2c-.21.79-.44,1.66-.66,2.45l.13-.31c-.19.7-.41,1.77-.79,2.8s-.73,2.09-1.06,2.8c0-.38-.28.23,0-.78-.2.63-.44,1.24-.7,1.85-.06.25-.12.5.11,0a14.56,14.56,0,0,1-1,2.4s-.29.68-.68,1.6-.81,2.16-1.37,3.32-1,2.35-1.46,3.18-.7,1.35-.67,1.27c-.72,1.24-1,1.47-1.68,2.7a2.83,2.83,0,0,0,.3-.45,14.61,14.61,0,0,0,.75-1.31c.58-1.11,1.42-2.54,2.07-4,.34-.72.68-1.44,1-2.09s.52-1.25.72-1.73c.39-.95.57-1.42.39-1-.16.27-.6,1.34-1.25,2.8s-1.5,3.28-2.48,5-2,3.48-2.79,4.82a23,23,0,0,1-1.67,2.35c-.59.88-1.37,1.91-1.13,1.78-1.15,1.38.16-.56-.72.38,0,0,.11-.05-.14.27l-.88.87a42.75,42.75,0,0,1-3.08,3.73c-1.21,1.24-2.37,2.55-3.36,3.63.54-.66,1-1.53,2.24-3l.27-.19.64-.77c.24-.33.46-.64.4-.66-.59.65-1.19,1.22-1.75,1.84s-1.12,1.25-1.75,1.94c-.27.22-.58.47-.8.63,0,0,0,0,0,0-.49.37-.45.31-.32.13a.9.9,0,0,1,.07-.11,33.59,33.59,0,0,0-3.19,2.86,39.56,39.56,0,0,1-4.52,3.76c-.75.59,0,.1-1,.84l-1.94,1.27c-.63.38-1.24.72-1.85,1.09l-1.86,1.09-2.12,1.14c-.88.68-.93.78.31.25-.76.42-1.53.84-2.32,1.21,1.92-1.43-4.49,1.88-2.35.34-.7.27-2.14.86-3.42,1.52-.1.15-.23.42-1.94,1.08a39.87,39.87,0,0,1-3.85,1.2c-.51,0,.2-.25.08-.32-3,1.21-2.76.6-5.67,1.47-1.82.53-5.49,1.34-5.55,1.53C112.41,179.14,112.38,179,112.61,178.75Z"/></g></g></svg>