<svg xmlns="http://www.w3.org/2000/svg" viewBox="0 0 350 75"><defs><style>.cls-1{fill:#fff;}</style></defs><g id="Layer_2" data-name="Layer 2"><g id="Layer_1-2" data-name="Layer 1"><rect class="cls-1" x="1.41" y="1.43" width="347.85" height="72.11"/><path class="cls-1" d="M348.67,73.54c.08.48.25.21.21-1.11l-.28-.94Z"/><path class="cls-1" d="M349.21,64.63c-.14-1.56-.39-3.36-.65-2.35.27,1.55.16,1.92.49,3.58,0,1.33-.09,2.31-.2,2.09a25.66,25.66,0,0,0,.12,2.77,30.82,30.82,0,0,0,0-6.19C349.08,64,349.15,64.52,349.21,64.63Z"/><path class="cls-1" d="M289.25,1,290,1Z"/><path class="cls-1" d="M216.67.81a2.65,2.65,0,0,0,.81-.07C217,.76,216.54.78,216.67.81Z"/><path class="cls-1" d="M204.27.46l.73,0A3.09,3.09,0,0,0,204.27.46Z"/><path class="cls-1" d="M289.25,1l-1.93-.1C287.18,1,288.31,1,289.25,1Z"/><path class="cls-1" d="M348.51,46.77c0,.44,0,.82.08,1.16l0-1.09Z"/><path class="cls-1" d="M321.25.73h.59a4.93,4.93,0,0,0,.49-.13Z"/><path class="cls-1" d="M345.81.68a1.49,1.49,0,0,0-1,.37,4.3,4.3,0,0,1,1.21-.18C346.07.82,346,.76,345.81.68Z"/><path class="cls-1" d="M349.5,40.68l0,.76C349.53,41.25,349.51,40.91,349.5,40.68Z"/><path class="cls-1" d="M303.68.67a.49.49,0,0,0-.23-.1S303.54.64,303.68.67Z"/><path class="cls-1" d="M320.79,72.27s0,0,0,0S321,72.28,320.79,72.27Z"/><path class="cls-1" d="M349.25,73.61l-.39,0c0,.05-.09.1-.09.15Z"/><path class="cls-1" d="M181.59.11h.1C182.29.09,182,.09,181.59.11Z"/><path class="cls-1" d="M.4,32.43c.21-2.61.28,4.24.52.32C.82,33.11.54,29.18.4,32.43Z"/><path class="cls-1" d="M348.54,46.06V45C348.53,45.46,348.53,45.8,348.54,46.06Z"/><path class="cls-1" d="M.92,32.75h0l0-.41C.93,32.51.93,32.6.92,32.75Z"/><path class="cls-1" d="M129.33.27a2.34,2.34,0,0,0,.53.12A1.61,1.61,0,0,0,129.33.27Z"/><path class="cls-1" d="M168.26.66l-1,0C167.68.65,168,.66,168.26.66Z"/><path class="cls-1" d="M109.12.66a12.4,12.4,0,0,0-1.42,0l.22,0A4.94,4.94,0,0,1,109.12.66Z"/><path class="cls-1" d="M88.08.66l.38,0h.67Z"/><path class="cls-1" d="M256.84,72.4a4.68,4.68,0,0,1,1,.25C257.49,72.45,260.58,72.39,256.84,72.4Z"/><path class="cls-1" d="M348.65,46.75a2,2,0,0,1-.11-.69c0,.27,0,.53,0,.78C348.59,46.9,348.63,46.92,348.65,46.75Z"/><path class="cls-1" d="M108.26,2.79l-3.34,0C105.85,2.77,107.07,2.79,108.26,2.79Z"/><path class="cls-1" d="M105.9,72.44l.76,0A4.41,4.41,0,0,0,105.9,72.44Z"/><path class="cls-1" d="M95,2.79a18.31,18.31,0,0,0-1.89-.19,2.9,2.9,0,0,0-.38.07Z"/><path class="cls-1" d="M257.82,72.65h0Z"/><path class="cls-1" d="M279.84,72c-3.19,0-1.5.35-2.17.55-3.8.1-1.76-.26-3.06-.44-2.37.09-4.19.42-6,.4-.13-.06-.48-.08-.07-.15-2.51.28-7.45,0-10.38.37a1.36,1.36,0,0,1-.38-.09c.47.18.55.36.45.49a14,14,0,0,1-3.19,0,4.39,4.39,0,0,0,1.36-.16l-1.5.1c-1.34-.33,2.05-.11,2.05-.36-2.92.11-6.32.38-8.56.29-.46-.33,5.23-.11,2.25-.4l3.46.12c-2.65-.51,2.1,0-.33-.51-4.55-.1-5.09.16-9.63.07-1,.18.34.27-.69.45-6.45.33-5.08-.82-9.82-.39a13.13,13.13,0,0,1-5.09.42l1.16-.37c-4.41,0-2.52.53-7.14.28.82-.15,3.47-.12,2.8-.17-3-.29-2.11.21-4.41.21l-.48-.33-15.06.35c.29-.1,1.18-.2,0-.3-6.55.17-14,0-20.31-.23l-2.42.28c-.56,0-1-.13-.43-.18-2.46-.11-.13.18-1.31.29-1.4,0-1.85-.16-1-.25-4.35.24-12.39.52-17,.21l.89-.08c-3.57-.11-4,.58-7.33.32l.63-.05c-7.74-.13-16.3.13-22.2-.29-1.13.4-7.67-.18-8.16.38-4.43-.28-3.16-.38-9.39-.57-1.66,0-2.47.36-4.53.41l0-.29-2.79.31-1.49-.36-1.93.08c.77,0,1.64.13,1.52.22a40,40,0,0,1-7.42-.36l-7.12.25a13.7,13.7,0,0,1,2.29-.24c-3.8.31-.69-.31-4.17,0,.46.07-.26.18-.34.24-1.73-.18-5.69-.18-8.61-.11l.56-.2c-5.29-.06-11.15.09-17.08.09,2.13.1,1.64.45-.1.48l-.69-.31c-1.13.19,1.81.12-.49.36-2.22,0-1.49-.36-.22-.46l-2.69.11c-.16-.1.47-.15.63-.27-1.1.2-4.65-.31-6.24,0l-.15-.09c-5.93,0-8.62.1-13.45.12-.1.27-2,.21-3.43.43-3.55-.09-7.49-.3-11.76-.28-3,.13-.88.23-2.23.39-.22-.25-4.5-.22-2.28-.4-5.13,0-6.56.05-13,.25.71.1,1.5.14,1.09.23a6.39,6.39,0,0,1-2.51-.23l.31,0c-1.19.06-2.43.08-3.71.08l-1.94,0H2.64l-.39,0,0-.46v-.88c0-.76,0-1.51.08-2.26,0-1.5.09-3,.13-4.41.06-2.85.07-5.48-.08-7.65l0,.36-.24-6.65c0-3.06.16,1.84.3-.43-.37-7.18.06-11.34-.19-17.25.66-4.57-.05-16.23.37-22.41l-.15.36a16.34,16.34,0,0,1,.12-3.11c-.12.17-.14,1.73-.22.74,0-2,0-4-.05-6l6.78.05L17,2.71,32.74,3c4.58,0,2.6-.89,8.38-.48l-1.64.32c9.25-.38,18.92,0,28-.31A6.36,6.36,0,0,1,66,2.68a35.76,35.76,0,0,0,7.11-.17c1.41,0,.32.17,1.19.26,1.92.14,4.82-.29,5.84-.06.17,0-.54.07-.89.09,1.25-.11,5.83,0,4.63-.24,3.4.13,6.5-.12,9.21,0,1.77-.3,5.82.14,6.39-.28-.25.44,6,.35,8.11.15-.72.13,1.87.14,1,.32,2.46,0,4.7-.09,4.28-.31,4.52.52,9.08-.42,11.63.25,7.28-.24,14-.4,20.58-.5-.23.44-7.24,0-7,.5,6.22-.18,9.8-.55,16-.45,1.6.06-.91.19-1.44.27,6.21-.18,12,0,17.54-.2a7.61,7.61,0,0,1-1.18.12c1.09,0,2.54.06,2.41-.14l-1.06.06c-1.74-.29,4.33-.6,4.52-.75-1.85.56,5.46.14,2.53.85.71,0,1.61-.13,1.45-.26,1.06,0,1.4.12.32.27,3.9-.11,2.52-.32,6.05-.31,0,.09-.72.13-1.09.24a44.07,44.07,0,0,1,6.58-.29c-.18.06.16.13-.73.13,5.13,0,8.75-.5,14.38-.32-1.66.42,1.91.14,2.21.5l3-.11-1.22-.17c2.66,0,5-.26,7.28-.14l-2,.15,5-.07L215.9,2c2.68-.18-.29-.45,3.24-.35-.72,0,2.65,0,4,.22h0a30.68,30.68,0,0,1,4.63-.15c.51.12-.41.4-.08.47,1.29-.3,6.21-.08,7.85-.4-.55.08-.58.26-.4.3l1.09-.24c1.23.08,1.41.12,1.21.27,3.69,0-1.18-.46,3.21-.26-.35,0-.18,0-.9.09,4.41.1,8.51-.16,12.56,0,1.19.37-3.54.09-2.17.4,5.83-.07,12.08-.44,17.73-.35l-1.05,0c.78-.51,4.2.25,7.06,0-.7,0-.92.28-.73.23,3.87.08,7.91-.13,13.77-.29l-.73.13c2.28.12,6,.07,8.46.13C295.4,2,296.81,2,296,1.8c7.59.75,14.48-.4,21.21.22-.8,0-1.92.12-1.28.12L321.63,2a6.91,6.91,0,0,0-2-.31,26.94,26.94,0,0,1,3.77-.24c-2.58.15,0,.36,1.13.49-.18-.07.2-.15.11-.22,3,.4.5-.44,4.59-.18l-.22.12c1.53-.06,2.94-.21,4.6-.18.68.26-1.63.12-1.74.33,2.32,0,4.58-.49,6.68-.23-1,.07-2.41.07-3.39.14a28.42,28.42,0,0,0,4.25.28h-.17l3.93.14-1-.09a16.06,16.06,0,0,1,3.35-.35l3.46,0c0,.4,0,.81.05,1.25s.07,1,.12,1.57c-.19-2.17-.25-2.06-.29-1.85s-.06,1-.19.83c-.08,1.11-.16,2.79-.23,2.31.21,2-.17,3.41.14,6.29-.09.13,0,2.19-.22,1.73.06,2.65.15-.63.25-.41.29,4.1-.35,9.63.05,15.52.16,5.07.45,6,.59,10.73-.14,1.59-.31-1.31-.31-1.31-.12,2.57-.1,4.5,0,6.92-.08-.49-.14,0-.24.75,0,1.94.31,1.3.19,3.86a13,13,0,0,1-.34-1.94c.1,2.29.2,4.55.31,6.91-.15.63-.22-1.43-.32-2.26A75,75,0,0,0,349,60.3l.08-1.71c0,1-.2.5-.24-.22A8.35,8.35,0,0,1,349,55l.06,1.69c.5-1.73-.08-6.77-.05-10.17l.36,1.42-.3-3.48c.09-.74.3-1.25.35.43.18-2.44-.13-2.16.07-4.25,0-.23.05-.12.06.09l-.11-2.38c.08.47.26-.39.21,1.07.21-4.27-.27-6.88,0-8.49l0,.36c-.12-5.92-.26-.58-.57-5l.65-3-.26-.58c0-.61,0-1.82.13-1.59-.18-2.28-.11.38-.29-.94.25-2.93-.11-8.1.31-8.76-.2-1.06-.15,2.81-.29-.33.45-.9-.08-3.63.13-6.31.23.82.11,3.36.32.68A19.17,19.17,0,0,1,349.66,1L347.58.89c-.55,0-1.06,0-1.52,0-.1.35-4.45.14-7.89.26.22-.12-6.47-.19-9.67-.32l.09-.06c-.61.36-3.91.29-6.32.36.1-.21.53-.29,1.83-.39h-2.26a16,16,0,0,1-2.7.21l.57-.27c-3,0-6,.32-9.92.14-.22.25,3.07.68-1,.85-.16-.13-.31-.36.76-.42a15.45,15.45,0,0,1-2,.06l1.63-.23c-1.76-.09-.92.19-2.33.17,0-.19-1-.14-.84-.29a17,17,0,0,0,1.77,0,33.43,33.43,0,0,1-4.14-.29c.13.11,0,.25-1.17.28-3,0-1-.23-2.78-.33-.73.13-2.64,0-2.69.28a3.84,3.84,0,0,1-1.39-.21c-1.55.13-7.26,0-5.51.34l.4,0h-.25c-5.1.28-10.6-.16-15.65,0V.93c-3,.1-6.72.06-8.87.26-.9,0-2.11-.17-1.73-.28a48.91,48.91,0,0,1-5.9,0c2.32-.17-.8-.15,2.38-.12a46.8,46.8,0,0,0-6.9,0c1.09-.24-2.26-.3-3.69-.23l2.1.17c-1.6,0-3,0-4.43,0l.77-.32c-6.13-.39-11.06.66-15.74,0-1.62.22,3.34.16,1.88.42-2.82-.05-5.76-.51-6.65-.51-3.86-.17-3.6.47-7.65.35.52.11,1,.42-2,.53-2.83-.05-3.47-.48-1.69-.57.68,0,1,0,1,.06.91,0,2.11-.09,1-.21l-.37.11c-1.4-.12-5.29-.1-4.37-.29-2.14.11-.92.19.66.25-3.62-.17-5.66,0-9.39-.12.6.06,1.14.2.55.2-5.47-.15-2.41.21-6.11.26-2.11-.17.75-.41-3-.27-2.28-.11-.48-.3.42-.39a76.83,76.83,0,0,1-8.29-.19L190.38,0c-1.07.05-1.95.05-2.84.05l1,.23a8.4,8.4,0,0,1-1.92-.13c-1.09.14.83.37-1.32.58-1.41-.12-4.27.12-4.76-.18,4.41.1-.48-.3,3.25-.35-.72,0-1.6,0-2.66,0-.15,0,.15-.06.44-.08-4.22-.27-1.94.34-6.31.34.55-.17-1-.33-1.73-.29,1.76,0,.85.29-.77.42a42.25,42.25,0,0,0-4.52.08l1.68.06a25.26,25.26,0,0,1-3.93.2c-.16-.13,1.78-.09,1.08-.15-2.17.3-4.9-.31-7.93-.1-1.4-.12-.13-.33-1.36-.4-3.39.22-3.68-.24-7.24-.05,1,.22,1.21.17-1.3.39l5.86-.16-3.76.33c1.76,0,3.73-.14,4.79-.1-1.8.19-1.61.13-.76.32-2.42-.34-4.8.2-7.6,0l.09-.57c-4.21-.25-7.48.29-12.94.15l1.76.1c-.73.22-3.37,0-5.14.12.16-.19-.94-.26-1.7-.38.09.14-4,0-4.49.37L122.93.51c-4.41-.1-5,.54-9.27.48,1.28-.21-.65-.35,2.19-.49a11.92,11.92,0,0,0-2.71.09c-.83-.12-3.92.26-5.22.08a8.48,8.48,0,0,1-2.38.26c-.18,0,0-.09,0-.09s-2.49.13-1.1.34c-4.36-.59-12.18,0-16-.47-3.08.07-6.81.13-9.61.14.18-.06,0-.09.54-.07-3.87-.18-2.38.54-6.78.34C70.36.82,75,1,73.55.84c-.61-.62-5.32.09-8.28-.28l.72,0c-2.26-.22-5.52.23-9.22.19,0,0,.18-.06,0-.1-2.53.32-7.32.43-10.88.52C47,.89,47.53,1,46.85.76c-1.59,0,.47.4-2.71.47-1-.14-3.33-.25-3.64-.52h3C42,.35,39.62.71,38,.65L38.24.5c-4.61.05-4.67.42-9.62.4l.51.11c-2.7.38-2.26-.21-5,.07L23.36.7c-1.79.09-6.25.37-9.45.44C15.72.86,19.46.71,21.78.55c-1.77,0-6,0-6.93.21A17.88,17.88,0,0,1,17.16.69a65.11,65.11,0,0,1-8.54.44C8.82.89,7.91.78,6.5.73L4.1.69.71.66c0,.78,0,1.55,0,2.28,0,.5,0,1,0,1.41A17.14,17.14,0,0,1,.45,6.44C.7,13.33.34,20.11.38,28.14.9,25.29.4,30.48.93,30a26,26,0,0,1,0,2.75L.6,38.4C.45,39.75.49,36.63.37,36.8c0,4.09-.23,1.72-.37,4.43.19-.56.27,1.42.2,3.75L.44,41.7C.73,47.42,0,46.64.28,52.41L.11,50.59c.1,3,0,10.91.43,13.81-.07.53-.21,1.22-.25-.08,0,1.46,0,3,0,4.53,0,1.92.07,3.87.1,5.79l6.85-.15c1.84,0,3.55,0,5,.08l-.48.14a22.25,22.25,0,0,1,3.57-.13c-.08.06-.48.15.07.16a42.38,42.38,0,0,1,4.75-.17l-1.35.16c6.24.19,9.58-.39,14.81-.49,0,.42,4.9.56,7.35.63l-.09.06c7.27,0,12.35-.35,19.07-.52,4.18.46,14.15.19,20.86.45-1-.08.17-.33,1.37-.37,1.57.08,4.35-.3,4.1.09h-.56c1.19.38,4.42.28,7,.29l.42-.5c6.61.73,17.32-.28,20.93.39,1.6-.13,3.57-.13,5.15-.26l-.08.28c4.42.07,6.63.1,12.09,0l-1.11.19c3.08,0,3.89-.79,6.73-.8l.86.41c5.37,0,10.82.35,16.13,0-.09.06-.25.17-1.12.19,2.53,0,9.79.28,8.88-.28.06.36,5.54,0,8.45-.13l-.45.27a36,36,0,0,1,6-.53c.81,0,.71.21-.37.15,2.7.14,2.11-.26,5.38-.11l-1.22.17a17.67,17.67,0,0,0,4.09-.27,24.37,24.37,0,0,1,5.69.31,12.36,12.36,0,0,1,3.54-.28c.22.09-.38.15-.68.18,4.65.18,6.92-.32,10.11-.05a.93.93,0,0,0,.54.16c-3.69,0-6.66,0-6.39,0,0,.24,3,.29.61.63a90.76,90.76,0,0,1,9.4-.48,2.84,2.84,0,0,1,.39.09l-.3,0a18.15,18.15,0,0,0,1.84,0c.92,0,1.51.07,2.41.07a34.23,34.23,0,0,0,4.91.12c-.13-.27,1.82-.23,0-.45a5.66,5.66,0,0,1-1.28,0l-.63,0,.1,0-3.7,0a18,18,0,0,1,4-.11c.77-.17,1.61-.35,2.08-.43,2,.38,6,.58,6.51.81,4.54-.15,10.7-.1,13.56-.61a5.11,5.11,0,0,1,2,.23c-.74,0-1.63,0-2,.12,2.58-.13,7.65-.06,8.27-.41,3.25.16-1.83.33,2.64.27l-.6.11c8.8.56,14.3-.91,24.06-.18a5.58,5.58,0,0,1-1.15-.13c11.12.33,22.92-.3,33.89.21a27.25,27.25,0,0,0,5.37-.29l.67.29,3.26-.34c4.61-.24,8,.71,13.84.25l-.76-.2c2.1,0,6.65-.11,6.3.11a4.13,4.13,0,0,1,1.51-.1l.06.15,5.16-.26c4,.11-.63.61,5.21.64,2.16-.06,6.17-.45,5.36-.55a7.27,7.27,0,0,1-2.31-.24l2-.08c.36-.45,1.88-.91-3-1.22l-3.39.27-1.09-.21,2.85,0a14.36,14.36,0,0,0-3.79.1,5.3,5.3,0,0,0-1.42-.24l-3.33.43c-.41-.17,1.49-.35-.74-.44-1.56.19,1.49.39-1.09.52a8.08,8.08,0,0,0-3.05-.2c-.27-.11.13-.19.89-.24-1.7.14-4.49.06-5.37.3-1.69-.25-5.72.07-5.55-.36a42.75,42.75,0,0,1-4.55.35c2.85-.5-5.83,0-5.07-.57-2.11.45-7.61.2-11.34.45a4.31,4.31,0,0,1,.95-.08c-2.1,0-2.71-.18-4.06-.26-.27.37-3.54.46-5.3.69-2.57-.36,1.56-.44.76-.79.12.31-4.47.31-3.6.56a10.41,10.41,0,0,1-2.71-.42c-.34.47-1.83.08-3.46.37-2.85-.24-.74-.44-3.86-.3C277.06,72.17,279.84,72,279.84,72Zm-74.4.81h0l1.54,0Zm-6.25,0h2.71c.22.09,0,.19-.64.18A11.88,11.88,0,0,0,199.19,72.83Zm13.23,1.87a4.42,4.42,0,0,1-1.46-.07l1.73,0,.12,0A1.24,1.24,0,0,1,212.42,74.7Z"/><path class="cls-1" d="M214.19,74.35l.41,0-.59-.07-.35.09Z"/><path class="cls-1" d="M290.14,1H290a1.7,1.7,0,0,1,.28,0Z"/><polygon class="cls-1" points="112.86 72.31 112.87 72.38 113.42 72.32 112.86 72.31"/><path class="cls-1" d="M324.57,2A2.65,2.65,0,0,0,325,2,3.39,3.39,0,0,0,324.57,2Z"/><path class="cls-1" d="M339.45,2l2.1.09C340.64,2.06,340,2,339.45,2Z"/><path class="cls-1" d="M348.6,3.24a.52.52,0,0,0,.11.24v0Z"/><path class="cls-1" d="M169.05,2.47h-.44C167.57,2.53,168.28,2.51,169.05,2.47Z"/><path class="cls-1" d="M223.16,1.84c-.57,0-1.14.09-1.74.12C222.39,2,223.14,2,223.16,1.84Z"/><path class="cls-1" d="M108.63,2.79Z"/><path class="cls-1" d="M218.91,2a23.25,23.25,0,0,0,2.51,0C220.63,2,219.7,1.92,218.91,2Z"/><path class="cls-1" d="M348.49,58v.61s0,0,0,.07Z"/><path class="cls-1" d="M348.52,58.72l0,.68A3.74,3.74,0,0,0,348.52,58.72Z"/><path class="cls-1" d="M348.61,60.82l-.06-1.42A8.68,8.68,0,0,0,348.61,60.82Z"/><path class="cls-1" d="M348.6,41.3l-.09-.19C348.53,41.21,348.56,41.28,348.6,41.3Z"/><path class="cls-1" d="M348.58,36.21c0,1.22-.19,3-.14,4.74l.07.16C348.38,40.31,348.73,37.37,348.58,36.21Z"/><path class="cls-1" d="M349.67,15l-.07,4.26c.1-.74.22-1.72.25.22C350.13,14.09,349.63,20.57,349.67,15Z"/><path class="cls-1" d="M349.81,1.28c0,1.58.06,1.6.09,1.18s.07-1.27.1-1.2c0-.26,0-.5,0-.63-1.38.07-1.54.1-.14.16C349.83.85,349.82,1.05,349.81,1.28Z"/><path class="cls-1" d="M263.17.81l.21-.24C261.78.6,263.36.66,263.17.81Z"/><polygon class="cls-1" points="246.66 2.08 248.21 2.24 248.95 2.01 246.66 2.08"/><polygon class="cls-1" points="236.9 0.33 237.6 0.3 234.94 0.39 236.9 0.33"/><path class="cls-1" d="M91.82.42l.48.3C93.38.67,93.61.33,91.82.42Z"/><path class="cls-1" d="M29.18.73a13.25,13.25,0,0,0-3.52-.1C27.06.65,28.47.77,29.18.73Z"/><polygon class="cls-1" points="96.25 74.74 94.99 74.84 97.36 74.76 96.25 74.74"/></g></g></svg>