<svg xmlns="http://www.w3.org/2000/svg" viewBox="0 0 701.39 53.32"><defs><style>.cls-1{fill:#fff;}</style></defs><g id="Layer_2" data-name="Layer 2"><g id="Layer_1-2" data-name="Layer 1"><path d="M701.18,51.7v-.28c.22-.13.32-.26,0-.38V9.13l.08.43-.08-1.28V2.78a8.44,8.44,0,0,1,.13,1.77c.08-1.44.08-2.51.06-3.25l-1.77.05c-.57,0-1.26,0-2.33-.08-.38,0-.21-.05.14-.07l-3.9.12c.76-.08-.65-.29,1.75-.23-7-.24-11.3.31-13.94,0l.58,0c-7.27.11-4.19.22-5.23.43h-4.55L668.76,1l-1,.31c-1,0-3,0-2.62-.16-3.73.21.64.13-1.53.33-4.83-.28-13.32.13-14.4-.36-1.74.24,4.61.18-.54.34-1.47-.52-6,.09-10.37-.15,1.35-.27,5.53-.12,1.12-.36-2.67.45-8.59-.1-12.32,0-.17.37-8.09.15-14.33.28.39-.13-11.75-.2-17.56-.34l.17-.06c-1.12.37-7.12.3-11.48.38.17-.22,1-.31,3.32-.41h-4.1c-1,.12-2.25.18-4.91.23l1-.28c-5.45,0-11,.32-18,.14-.27.17,2.38.44,1.82.65h-3.81a3.93,3.93,0,0,1,1.54-.2c-.64,0-2.27.12-3.55.06l3-.23c-3.2-.11-1.67.19-4.23.17,0-.2-1.89-.14-1.52-.3.65,0,2.23.08,3.21,0-2.89,0-6.37-.16-7.52-.31.25.12,0,.27-2.12.3-5.46,0-1.86-.24-5-.34-1.32.13-4.8,0-4.89.29a11.9,11.9,0,0,1-2.52-.22c-2.82.13-13.19,0-10,.35l.73,0h-.46c-9.26.3-19.24-.16-28.43,0l0-.1c-5.49.12-12.21.07-16.13.28-1.62,0-3.83-.18-3.13-.3-4.2.08-4.67.19-10.72,0,4.21-.18-1.46-.16,4.32-.13-5.45-.08-6.69-.24-12.53,0,2-.26-4.11-.32-6.7-.25l3.82.18c-2.91,0-5.46,0-8,0l1.4-.33c-11.15-.41-20.11.68-28.6,0-2.94.23,6.06.16,3.42.43-5.13,0-10.47-.52-12.07-.52-7-.19-6.56.48-13.91.36.94.12,1.83.43-3.66.55-5.14-.05-6.31-.5-3.07-.6a7.4,7.4,0,0,1,1.77.07c1.66,0,3.83-.09,1.8-.22l-.66.12C392.2.55,385.14.56,386.8.36c-3.32.1-2.17.17,0,.23C381,.47,377.31.61,371,.5c1.08.06,2.07.2,1,.2C362,.56,367.58.93,360.84,1,357,.8,362.21.55,355.43.7c-4.13-.12-.87-.32.77-.41C350,.52,344.66.14,341.14.1l3.25-.1c-1.94.06-3.54.06-5.16.05l1.86.24A24.34,24.34,0,0,1,337.6.15c-2,.16,1.5.4-2.4.61-2.55-.12-7.76.13-8.64-.19,7.26.1.64-.24,4.38-.34-1,0-2.07,0-3.3,0-.29,0,.27-.07.79-.08-7.66-.28-3.52.35-11.46.35,1-.18-1.84-.34-3.14-.3,3.2,0,1.53.29-1.4.43-5.09-.14-5.54.1-8.2.09l3,.06c-1,.18-3.58.15-7.13.21-.3-.14,3.23-.09,2-.16-3.94.32-8.91-.32-14.4-.11-2.55-.12-.25-.33-2.48-.41-6.16.23-6.67-.25-13.15-.06,1.87.24,2.19.18-2.36.42L280.35.47l-6.83.35c3.21,0,6.78-.15,8.7-.11C279,.9,279.3.84,280.84,1c-4.4-.36-8.72.21-13.8,0l.16-.59c-7.64-.27-13.57.3-23.49.15l3.19.1c-1.33.24-6.12,0-9.34.13.3-.2-1.71-.27-3.08-.39.17.15-7.26,0-8.16.38L221.9.53c-8-.11-9.14.56-16.84.49,2.32-.21-1.18-.35,4-.5a34.37,34.37,0,0,0-4.93.1c-1.5-.13-7.12.26-9.49.07A24.92,24.92,0,0,1,190.3,1c-.19,0-.15,0-.08-.07-.61.08-4.22.12-1.9.33-7.92-.62-22.13,0-29-.49L141.83.88c.33-.05,0-.09,1-.07-7-.19-4.31.56-12.31.36-4.08-.32,4.25-.17,1.7-.29-1.11-.65-9.65.08-15-.3l1.31,0c-4.11-.22-10,.24-16.75.2,0,0,.32-.06,0-.1-4.6.33-13.29.44-19.76.53C84,.93,85,1.05,83.72.79c-2.9,0,.85.41-4.93.49C76.91,1.14,72.74,1,72.18.74l5.46,0c-2.8-.35-7.06,0-9.94,0l.37-.15C59.71.57,59.6,1,50.61.93l.93.12c-4.91.39-4.12-.22-9,.07L41,.73c-3.24.09-11.34.38-17.15.45C27.18.89,34,.74,38.18.57,35,.56,27.27.6,25.6.79c1.29,0,2.92-.13,4.2-.07q-5.91.47-15.52.45C14.65.92,13,.82,10.44.76L6.06.72.38.69c0,1.13,0,2.24,0,3.31,0,.8,0,1.57,0,2.28C.25,7.71.18,8.91.08,9.71.36,21,0,32.17,0,45.36c.6-4.68,0,3.85.63,3,0,1.77,0,3,0,3.83.92,0,1.39,0,1.58,0l-.85,0,.88,0h0l9.43.37c2.21.17-2.92.13-2.64.27,6.73.05,2.82.26,7.27.42-.91-.22,2.34-.31,6.18-.23l-5.4-.28c9.4-.33,8.12.51,17.6.19l-3,.19c4.86-.11,17.93,0,22.7-.49.86.07,2,.24-.14.29,11.61.07,25.86-.53,34.89-.22l-.88.15c2.16-.05,3.77-.29,6.48-.14-.14.07-.87.15.13.16,1.15,0,5.76-.26,8.63-.17l-2.45.17c11.33.19,17.39-.41,26.9-.52,0,.44,8.89.59,13.34.66l-.16.06c13.2.06,22.42-.36,34.64-.54,7.59.48,25.7.2,37.89.47-1.87-.08.3-.34,2.47-.39,2.86.09,7.91-.3,7.45.1h-1c2.16.4,8,.3,12.63.31l.76-.53c12,.77,31.46-.28,38,.4,2.89-.13,6.48-.13,9.36-.26l-.16.28c8,.08,12,.11,22,0l-2,.21c5.6,0,7.07-.82,12.23-.84l1.55.43c9.77,0,19.66.36,29.31,0a5.73,5.73,0,0,1-2,.2c4.43,0,16.86.27,16.23-.24,1.13.28,10.26,0,15.23-.18l-.82.27c4.45-.35,4.6-.45,10.81-.55,1.48,0,1.29.23-.66.15,4.91.15,3.82-.26,9.77-.11l-2.21.18a57.28,57.28,0,0,0,7.43-.28,77.46,77.46,0,0,1,10.32.32,38.55,38.55,0,0,1,6.43-.29c.4.1-.68.16-1.23.18,8.45.19,12.56-.32,18.37,0a2.39,2.39,0,0,0,1,.17c-6.17,0-11.23,0-11.61,0,.07.26,5.39.3,1.11.65,4.35-.19,11.79-.61,17.07-.49.26,0,.51,0,.7.09l-.55,0c1.22,0,2.31,0,3.34,0,1.69,0,2.76.07,4.38.07.62.22,6.21.12,8.92.13-.23-.28,3.31-.24,0-.47a18.1,18.1,0,0,1-2.31,0c-.41,0-.89,0-1.15,0l.18,0-6.72,0a59.29,59.29,0,0,1,7.36-.11c1.38-.18,2.91-.36,3.77-.45,3.7.39,10.83.6,11.82.85,8.25-.16,19.44-.11,24.63-.64a15.71,15.71,0,0,1,3.57.24c-1.35,0-3,0-3.7.12,4.69-.14,13.9,0,15-.42,5.91.16-3.32.34,4.8.28l-1.1.11c16,.59,26-.94,43.71-.19a14.49,14.49,0,0,1-2.1-.13c20.21.34,41.63-.31,61.57.22a85.54,85.54,0,0,0,9.74-.31l1.22.3,5.92-.34c8.38-.26,14.51.74,25.13.25l-1.37-.2c3.81,0,12.07-.12,11.44.12a11.81,11.81,0,0,1,2.74-.11l.11.16,9.37-.27c7.26.11-1.14.62,9.46.65,3.93-.06,11.21-.46,9.73-.56a22.66,22.66,0,0,1-4.18-.26l3.6-.08.06,0v0h-.07c-.07.05-.15.11-.15.16l.24-.05c0,.21.09.22.14,0l.49-.1h-.48a.25.25,0,0,1,0-.08Zm-248,1.1.22,0a3.26,3.26,0,0,1-.71.15,13,13,0,0,1-2.65-.08ZM695.72,1.44l.52.05h-2.31Z"/><path d="M525.34,1.06,524,1Z"/><path d="M392.14.84a8.51,8.51,0,0,0,1.47-.07A7.24,7.24,0,0,0,392.14.84Z"/><path d="M369.63.48,371,.5A10.06,10.06,0,0,0,369.63.48Z"/><path d="M524,1l-3.52-.1A23.4,23.4,0,0,0,524,1Z"/><path d="M582.09.76h1.07c.32,0,.61-.08.89-.13Z"/><path d="M626.69.7a3.74,3.74,0,0,0-1.75.4,12.64,12.64,0,0,1,2.2-.2C627.16.85,627,.79,626.69.7Z"/><path d="M698.13,1.18l.54,0Z"/><path d="M697.41,1.2l.72,0Z"/><path d="M550.17.69a1.87,1.87,0,0,0-.41-.1S549.92.66,550.17.69Z"/><path d="M328.43.12h.19C329.7.09,329.09.1,328.43.12Z"/><path d="M.43,52.45a19.16,19.16,0,0,0-.2-2c-.06-.24-.13.21-.18,2.34l1.17,0c-.67,0-1.09,0-1.14-.07,0-.73.08-.59.11-.11l2.2-.09.94-.05.68,0c.37,0,.56-.07.36-.11a5.7,5.7,0,0,0-.61-.06l-.58,0-.91,0A6.9,6.9,0,0,1,.43,52.45Z"/><path d="M234.48.41a3.53,3.53,0,0,0-1-.12A8.78,8.78,0,0,0,234.48.41Z"/><path d="M304.23.69l-1.75,0Z"/><path d="M196,.66c-.48,0-.92,0-1.8,0l.39,0C195,.67,195.4.65,196,.66Z"/><path d="M196,.66l.77,0Z"/><path d="M158.59.68l.7.06h1.21Z"/><path d="M190.22.9c.05,0,.09,0,.09,0Z"/><path d="M330.94.23l1.52,0Z"/><path d="M423.23,52.52Z"/><path d="M455.89,52.54l.74,0-1.07-.07-.64.09Z"/><path d="M525.85,1.1h0Z"/><path d="M525.34,1.06l.41,0-.17,0Z"/><path d="M662.55.8c-8.82-.32,1.83.25-7.35.2l7,.08C661,1,659.37.83,662.55.8Z"/><path d="M633.65.63c-2.39.1-3,.12-.16.22C637.25.8,633.45.69,633.65.63Z"/><path d="M476.6.84,477,.59C474.08.63,477,.69,476.6.84Z"/><polygon points="430.15 0.31 425.32 0.4 428.89 0.34 430.15 0.31"/><path d="M165.39.44l.87.31C168.22.69,168.63.34,165.39.44Z"/><path d="M51.63.76A42.24,42.24,0,0,0,45.22.65C47.78.67,50.33.8,51.63.76Z"/><polygon points="239.38 53.05 243.7 52.96 241.67 52.95 239.38 53.05"/><path class="cls-1" d="M688.68,40.59v-.28c.21-.13.3-.26,0-.38V12.59H676.79l.4-.07-1.2.07h-5.16a8.28,8.28,0,0,1,1.67-.13c-3.75-.21-3.32.15-6.54-.08-.35,0-.19-.06.14-.07l-3.66.12c.71-.09-.61-.29,1.64-.23-6.57-.24-10.6.31-13.07,0l.55,0c-6.81.1-3.93.22-4.9.42H642.4l-3.16-.51-.89.3c-.94,0-2.8,0-2.46-.15-3.5.21.6.13-1.43.33-4.53-.28-12.48.13-13.5-.36-1.62.23,4.33.18-.5.34-1.38-.52-5.59.09-9.72-.15,1.27-.27,5.18-.13,1-.37-2.5.46-8-.1-11.54,0-.16.36-7.58.15-13.43.27.37-.12-11-.2-16.46-.33l.16-.06c-1,.37-6.67.3-10.75.38.16-.22.89-.31,3.11-.41H559a42.2,42.2,0,0,1-4.6.22l1-.27c-5.11,0-10.3.32-16.88.14-.25.17,2.23.44,1.7.64h-3.56a3.75,3.75,0,0,1,1.44-.19c-.6,0-2.13.12-3.33.06l2.78-.24c-3-.1-1.57.2-4,.18,0-.2-1.78-.14-1.43-.3.61,0,2.09.08,3,0-2.7,0-6-.15-7-.3.24.11,0,.27-2,.29-5.12,0-1.76-.23-4.74-.34-1.24.14-4.5,0-4.59.29a10.64,10.64,0,0,1-2.35-.21c-2.65.13-12.36,0-9.38.35l.68,0h-.43c-8.68.29-18-.17-26.64,0v-.1c-5.14.11-11.44.07-15.11.28-1.52,0-3.58-.18-2.93-.3-3.93.08-4.37.19-10.05,0,3.95-.17-1.36-.15,4.05-.12-5.11-.09-6.26-.25-11.74,0,1.86-.25-3.85-.31-6.27-.24l3.57.18c-2.72,0-5.11,0-7.53,0l1.31-.34c-10.45-.4-18.84.69-26.8,0-2.76.24,5.68.17,3.21.44-4.81,0-9.81-.52-11.32-.52-6.58-.19-6.14.48-13,.36.88.11,1.71.43-3.43.54-4.81,0-5.91-.49-2.88-.59a6.52,6.52,0,0,1,1.66.07c1.56,0,3.59-.1,1.69-.22l-.62.11c-2.39-.12-9-.1-7.45-.3-3.12.1-2,.17,0,.23-5.5-.13-8.92,0-14.89-.09,1,.06,1.94.2.94.2-9.32-.15-4.1.23-10.41.28-3.59-.18,1.28-.43-5.07-.28-3.88-.13-.82-.32.72-.41-5.79.22-10.81-.15-14.12-.2l3.05-.09c-1.82.05-3.31.05-4.84.05l1.75.24a21.66,21.66,0,0,1-3.28-.14c-1.84.15,1.42.39-2.24.61-2.39-.12-7.27.13-8.09-.19,6.8.1.59-.24,4.09-.34l-3.09,0c-.27,0,.26-.07.75-.09-7.18-.28-3.3.36-10.74.35.94-.17-1.73-.33-2.94-.3,3,0,1.43.3-1.32.44-4.77-.14-5.19.1-7.69.08l2.86.07c-1,.18-3.36.15-6.68.21-.29-.14,3-.1,1.83-.16-3.69.31-8.34-.32-13.49-.11-2.39-.12-.23-.33-2.33-.42-5.77.23-6.25-.24-12.32-.05,1.75.24,2.06.18-2.21.41l10-.16-6.4.34c3,0,6.35-.15,8.15-.11-3,.2-2.73.14-1.29.34-4.12-.36-8.17.21-12.93,0l.15-.59c-7.16-.26-12.72.31-22,.16l3,.1c-1.24.24-5.73,0-8.74.13.28-.2-1.6-.27-2.89-.39.16.14-6.8,0-7.65.38l-4.14-.26c-7.51-.11-8.57.56-15.78.49,2.17-.21-1.11-.35,3.72-.51a33.42,33.42,0,0,0-4.61.1c-1.4-.12-6.68.27-8.89.08a22.09,22.09,0,0,1-4,.28c-.19,0-.13-.06-.07-.08-.55.09-4,.13-1.79.33-7.42-.61-20.74.05-27.2-.48L145.48,12c.31-.06,0-.1.92-.08-6.58-.18-4.05.57-11.54.37-3.82-.32,4-.18,1.59-.3-1-.65-9,.09-14.08-.29l1.22,0c-3.85-.22-9.4.25-15.69.2,0,0,.31,0,0-.09-4.31.33-12.46.44-18.51.53,1.88-.26,2.75-.14,1.6-.39-2.72,0,.79.41-4.63.48-1.76-.14-5.67-.26-6.19-.53l5.12,0c-2.62-.36-6.62,0-9.31-.05l.34-.15c-7.83,0-7.94.44-16.36.41l.87.12c-4.6.39-3.86-.22-8.45.07L51,11.84c-3,.09-10.64.38-16.08.45,3.08-.29,9.45-.44,13.39-.62-3,0-10.22,0-11.79.23,1.21,0,2.74-.14,3.94-.08-3.69.31-8.55.47-14.55.46.35-.25-1.2-.36-3.6-.41l-4.09,0-5.38,0c0,2.74,0,3.89-.08,5.3s-.12,2.46-.22,3.21c.09,3.33.11,6.64.1,10,0,3.72-.07,7.5-.1,11.39l7.49.07h6.72c-4.39-.59,3.61,0,2.85-.63,2.85,0,4,0,4.22,0l-.6,0,.62,0h0l8.71.37c2.07.18-2.73.13-2.47.27,6.3.05,2.64.26,6.82.42-.86-.22,2.19-.31,5.78-.23l-5.06-.28c8.81-.32,7.61.51,16.49.19l-2.81.19c4.56-.11,16.81,0,21.27-.48.81.07,1.87.23-.13.28,10.89.07,24.23-.52,32.7-.22l-.83.15a58.28,58.28,0,0,1,6.08-.13c-.13.06-.82.15.12.16s5.4-.27,8.09-.18l-2.3.17c10.62.19,16.3-.41,25.2-.51,0,.44,8.33.58,12.5.65l-.14.06c12.37.06,21-.36,32.46-.53,7.1.47,24.08.2,35.5.46-1.75-.08.28-.34,2.31-.38,2.69.09,7.42-.31,7,.1h-1c2,.39,7.53.29,11.84.3l.71-.53c11.25.77,29.48-.28,35.62.41,2.72-.14,6.08-.13,8.77-.27l-.14.29c7.52.07,11.28.1,20.58,0l-1.9.2c5.25,0,6.62-.82,11.46-.83l1.46.42c9.15,0,18.41.36,27.46,0a5,5,0,0,1-1.9.2c4.16,0,15.86.27,15.2-.24,1,.29,9.6,0,14.28-.18l-.77.28A96.48,96.48,0,0,1,393,41.18c1.38,0,1.21.23-.62.16,4.6.14,3.58-.27,9.16-.12l-2.08.18a48.67,48.67,0,0,0,7-.28,69.73,69.73,0,0,1,9.68.32,34.88,34.88,0,0,1,6-.29c.38.1-.64.16-1.15.19,7.91.19,11.77-.33,17.21-.05a2.33,2.33,0,0,0,.92.16c-5.77,0-10.5,0-10.87,0,.07.25,5,.29,1,.65,4.08-.2,11.05-.62,16-.5.24,0,.47,0,.65.09l-.51,0c1.14,0,2.17,0,3.13,0,1.58,0,2.58.07,4.1.08.59.21,5.83.11,8.36.12-.21-.28,3-.24.09-.46.08,0-.78,0-2.25,0-.39,0-.83,0-1.08,0l.17,0-6.3,0a50.48,50.48,0,0,1,6.89-.1c1.3-.19,2.73-.37,3.54-.46,3.47.39,10.15.61,11.08.85,7.73-.16,18.21-.11,23.07-.63a14,14,0,0,1,3.35.23c-1.27,0-2.78,0-3.46.12,4.39-.13,13-.05,14.07-.42,5.54.17-3.11.34,4.5.28l-1,.11c15,.59,24.35-.94,41-.18a16.14,16.14,0,0,1-2-.13c18.93.33,39-.32,57.69.21a75.12,75.12,0,0,0,9.13-.31l1.15.31,5.54-.35c7.85-.26,13.6.74,23.55.26L648.4,41c3.57,0,11.31-.12,10.71.12a11,11,0,0,1,2.57-.11l.11.16,8.78-.27c6.8.11-1.07.63,8.86.66,3.69-.06,10.51-.46,9.12-.57a20,20,0,0,1-3.92-.26l3.38-.08h0c-.07.06-.15.11-.15.16l.19,0c0,.18.09.18.13,0l.5-.1h-.48a.28.28,0,0,1,0-.09Zm-232.42,1.1.2,0a3.43,3.43,0,0,1-.66.14,11.3,11.3,0,0,1-2.48-.08ZM664.51,12.55l.49,0h-2.16Z"/><path class="cls-1" d="M504.85,12.17l-1.28,0Z"/><path class="cls-1" d="M380,12a7.53,7.53,0,0,0,1.38-.07A6.49,6.49,0,0,0,380,12Z"/><path class="cls-1" d="M358.94,11.58l1.24,0A11.11,11.11,0,0,0,358.94,11.58Z"/><path class="cls-1" d="M503.57,12.13l-3.3-.1A22.15,22.15,0,0,0,503.57,12.13Z"/><path class="cls-1" d="M558,11.86h1l.84-.13Z"/><path class="cls-1" d="M599.82,11.81a3.43,3.43,0,0,0-1.63.39,12.06,12.06,0,0,1,2.06-.19S600.14,11.89,599.82,11.81Z"/><path class="cls-1" d="M666.52,12.29l.75,0Z"/><path class="cls-1" d="M666.1,12.31l.42,0Z"/><path class="cls-1" d="M528.11,11.8a1.2,1.2,0,0,0-.38-.1S527.88,11.77,528.11,11.8Z"/><path class="cls-1" d="M320.34,11.22h.17C321.52,11.2,321,11.2,320.34,11.22Z"/><path class="cls-1" d="M33.39,41.76c-4-.25,6.54-.32.49-.6C34.45,41.27,28.39,41.59,33.39,41.76Z"/><path class="cls-1" d="M232.3,11.52a3.28,3.28,0,0,0-.91-.13A7.81,7.81,0,0,0,232.3,11.52Z"/><path class="cls-1" d="M297.65,11.79l-1.64,0Z"/><path class="cls-1" d="M196.27,11.77c-.45,0-.86,0-1.69,0l.37,0A12.31,12.31,0,0,1,196.27,11.77Z"/><path class="cls-1" d="M196.27,11.77l.72,0Z"/><path class="cls-1" d="M161.18,11.79l.66.06,1.14,0Z"/><path class="cls-1" d="M190.83,12s.08,0,.08,0Z"/><path class="cls-1" d="M461,41.38h0Z"/><path class="cls-1" d="M428.23,41.42h0S428.2,41.41,428.23,41.42Z"/><path class="cls-1" d="M322.68,11.34c.51,0,1,0,1.43,0Z"/><path class="cls-1" d="M458.83,41.43l.69,0-1-.06-.59.08Z"/><path class="cls-1" d="M504.85,12.17l.48,0-.25,0Z"/><path class="cls-1" d="M633.43,11.91c-8.27-.32,1.71.24-6.89.2l6.56.08C632,12.08,630.45,11.94,633.43,11.91Z"/><path class="cls-1" d="M606.34,11.73c-2.23.1-2.78.13-.14.22C609.72,11.9,606.16,11.8,606.34,11.73Z"/><path class="cls-1" d="M459.18,12l.35-.25C456.81,11.73,459.51,11.8,459.18,12Z"/><polygon class="cls-1" points="415.66 11.42 411.12 11.51 414.47 11.45 415.66 11.42"/><path class="cls-1" d="M167.55,11.54l.82.32C170.21,11.8,170.59,11.45,167.55,11.54Z"/><path class="cls-1" d="M61,11.86a38.48,38.48,0,0,0-6-.1C57.35,11.78,59.74,11.9,61,11.86Z"/><polygon class="cls-1" points="255.95 41.94 259.99 41.86 258.09 41.84 255.95 41.94"/></g></g></svg>