<svg xmlns="http://www.w3.org/2000/svg" viewBox="0 0 200 200"><defs><style>.cls-1{fill-rule:evenodd;}.cls-2{fill:#fff;}</style></defs><g id="Layer_2" data-name="Layer 2"><g id="Layer_1-2" data-name="Layer 1"><polygon points="99.27 190.96 10.77 190.96 55.02 102.53 99.27 14.1 143.51 102.53 187.76 190.96 99.27 190.96"/><path class="cls-1" d="M110.89,47.91c-.19.08-.42-.57-.61-.29l-.34-.68c.08-.19.68.78.41.1C110.51,47.05,110.71,47.57,110.89,47.91ZM113,50.58c-.13,0-.28-.43-.41-.37-.34-.42,0-.4,0-.55-.11-.4-.83-1.26-.37-1.23A6.82,6.82,0,0,1,113,50.58ZM110.7,48l.56,1.14C111,49.27,110.2,48,110.7,48Zm7.75,12.16a1.92,1.92,0,0,1-.66-1.1c-.22-.42-.4,0-.61-.28l-1.13-2.29c-.27-.77.33.35.44.64.19-.17-.21-.87.15-.9-.23-.42-.4,0-.62-.29a3.12,3.12,0,0,1-.43-2.32,3.55,3.55,0,0,1-.8-1.87,15.79,15.79,0,0,1,1.51,3.79c0-.19-.16-.57.07-.59.37.85.87,1.81.51,2,.41,1.39,1.36,2,1.86,3.07,0-.06-.23.3,0,.55.3-.09-.19-.86.36-.72.16.83.59,1,.88,1.56a6.18,6.18,0,0,0,.58,1.41c-.1,0-.21-.24-.32-.41-.64-.65-1.2-.15-1.87-1.4.39.52.74.19,1.13.61.09-.08-.13-.45-.24-.73a4.16,4.16,0,0,0-.91-.15C118.1,60.28,118.31,60.25,118.45,60.16Zm-5.4-7.63c-.26.31-.75-.65-.76-1.06C112.52,51.41,112.78,52,113.05,52.53Zm2.47,5-.23-.45c-.44-.7-.19-.78-.37-1.23-.92-2.05.21.32.54.6C115.44,56.81,115.81,57.48,115.52,57.56Zm-1.88-3.34a3.36,3.36,0,0,1-.35-1c.3.19.66,1.18.93.7C114.43,54.49,113.79,54.37,113.64,54.22ZM113.26,51c-.27-.65.3-.15.42.37.14-.3-.81-1.58-.71-1.92.47.43.36.83.89,1.56-.2.17.21.88-.15.9C113.41,51.57,113.62,51.06,113.26,51Zm-2.55-4.72c.28-.45,1.33,1.68.78,1.6A5.06,5.06,0,0,0,110.71,46.32ZM43.32,128.53c-.2-.41-.51.62-.77,1-.08-.28.27-1.23.58-1.14.2-.43-.24-.31-.14-.66A19.55,19.55,0,0,0,44,126c.06-.08.21.21.28.15s.74-1.63.65-.8a2,2,0,0,1-1,1.2,4.44,4.44,0,0,0-.5,1.47c.54-.08.38-.75.69-1.36.83-.51,2.12-4.13,3.17-5.53-1.54,3.35-3.75,7.58-5.44,10.68C41.88,131.12,43.32,129.22,43.32,128.53Zm-2.5,7.94c.26.5-.5,1.3-.65,2-.08.41,0,.26-.46.91C38.82,139.4,40.72,136.68,40.82,136.47Zm1.32-1.89c0-.2-.07-.5-.28-.16s-.1.64.07.33c.07.58-.66,1-.92,1.82l-.19-.1c.81-1.78,1.33-3.59,2.06-5,.39-.75.73-.72,1-1.77.26-.2.19,0,.28.16.36-.08.8-1,1.2-1.66.48,0-1.05,1.81-.51,1.46.07.6-.61.52-.83.7-.14.65-.46.48-.53.58s-.3.72-.47.91-.29-.12-.41.35c-.1.25,0,.16.18.11.38-.17.26-.48.77-1,0,0,0,.42.07.33.28-.35.51-1.4.76-1C43.45,132.42,42.87,133.29,42.14,134.58Zm0-.61c.26-.41.48-.27.77-1C42.72,132.51,42,133.67,42.09,134ZM112.75,49c-.47-.93-.06-1.09-.72-2.19a2.25,2.25,0,0,1,.9,1.84,2.88,2.88,0,0,1,1.11,2c0,.64-.22-.64-.57-1.14S113,49.21,112.75,49ZM39.06,141.32c-.38.92-1.46,1.79-.81.42C38.17,142.69,38.8,141,39.06,141.32Zm.28-2.18-.58,1.13C38.3,140.47,39.23,138.63,39.34,139.14Zm70.45-93.25.33.69-.38.17-.34-.68C109.78,46.36,109.51,46,109.79,45.89ZM46,127.69c.16.29-.33,1.14-.11,1.39-.85,1.56-1.72,3.59-2.53,4.72.45-1.49,1.56-3,2.11-4.37C45.77,128.7,45.67,128.39,46,127.69ZM85.16,55.58c.13,1-.71,2.15-1.58,3.79-.21-.36.52-1.15.84-1.87S84.81,56.21,85.16,55.58Zm34,7.32c-.49-1-.22.56-.72-.52,0,.2.15.57-.07.59a4,4,0,0,1-.47-1.19c-.15-.4-.77-1.28-.36-1.23a3.67,3.67,0,0,1,.46,1.19c.24.5.35-.12.29-.13.27.07.52,1,.73.51.29,1.17.83,1.18,1,2.06-.14-.08-.28-.17-.41-.1C119.55,63.73,119,63,119.2,62.9ZM48.58,123.58a1.67,1.67,0,0,1-.69,1.36c-.11.22,0,.24.07.33-.46.43-.47,1.13-.72,1.64-.13.27-.41,1.08-.65.81.62-.9.49-1.63.76-2.2C47.7,124.79,48.13,124.57,48.58,123.58Zm3.24,67c.34.43-2.33.7-2,.09.51,0,.31.3,1,.22s-.27-.29-.5-.32c-1.1,0-.65.58-1.8.52a2.63,2.63,0,0,1,2.07-.73C51.17,190.41,51.15,190.62,51.82,190.62Zm-21.17-.47c-.61,0-1.62.25-1.52-.23.49.05.45.31,1.27.22.21-.36-1-.14-.74-.53.68.06,2.45.43,2,0,.38-.28,1.4.06,1.26.33-.3,0-.74-.06-1,0s-.21.21-.27.21C31.37,190.19,31,190.12,30.65,190.15Zm3.77,1.4a25.78,25.78,0,0,1-3.83.08c.35-.17.69-.35.54-.74.86-.1.38.33.49.54.68.1.31-.22.52-.32s.61-.11.51,0c.13-.16.09-.29-.23-.43-.16-.07-.32.09-.26.1-.25,0-1-.48-1.52-.33a1.57,1.57,0,0,1,1.53,0c1.37,0,1.28-.32,2.56-.09,0,.27-.87.2-1.54.2l0,.32c1,0,1-.36,2-.09.3,0,.22-.2.27-.32.7-.07.5.22,1,.22.72,0,.51-.36,1.54-.2,0,.35-.74.4-1.55.41-.92.22-.79.4-1.05.74-1,.15,0-.48-1-.33C34.11,191.36,34.16,191.55,34.42,191.55Zm14.13-2.12c.37-.17.49.09,1,.11s.76-.12,1-.09c.69.06,1.09.32,1.77.33-.69.57-1.78-.28-2.81.08A2.33,2.33,0,0,0,48.55,189.43Zm-3.59.29c-.11-.21,1.19-.33,1.28-.1a5.32,5.32,0,0,1,2.06-.3c-1.3.16-.46.46.49.54-1.13.56-2.16-.21-3.58.08C45.26,189.81,45.16,189.75,45,189.72Zm-22.42.36h.69a1.13,1.13,0,0,1-1.14.52C22,190.31,22.54,190.34,22.54,190.08Zm-.28,1.38c.5,0,.39.31,1.3.22.3-.06.33-.24.86-.2-.05.15-.1.3.23.32C24,191.91,22.14,192,22.26,191.46Zm2.68.23c.35-.42,1.24.05,2.33-.08-.47-.47,1.72.08,2.57-.2.17.46-1.34.27-2.06.31A9.11,9.11,0,0,1,24.94,191.69Zm-.47-.53c0-.1.32-.08.53-.1,0-.18-.17-.28-.47-.32,0-.15,1.43-.13.52-.32.12-.38.87.1,1,.11.3.05.74,0,1,0s.15.2.25.22c.38.08.9-.06.76.21.45,0,1.28-.09,1,.22-.65-.15-1.55-.1-2.29-.22-.45-.08-.88-.66-1.52-.23.44.2,1.68.09,1.51.54C25.49,191.36,25.56,190.9,24.47,191.16Zm27.39-1.49c-.16-.1-.3-.19,0-.21,1.07-.09,3.53.08,5.35,0,.93-.07.92.19,0,.1A38.59,38.59,0,0,1,51.86,189.67Zm-25.78.12c.48-.15.32-.58,1.3-.52-.77.15.64.56-.54.53.15.22,1.29,0,1,.43a4.85,4.85,0,0,0-1.61-.15H25.3a5.72,5.72,0,0,1-.9-.09c.63-.27-.35-.09-.14-.43C25.27,189.44,25,189.86,26.08,189.79Zm.55-1c-.83-.27,1.82.07,1.8-.2.71.17,1.09-.12,1.78.12a19.05,19.05,0,0,1-2.82.29C28.25,188.74,27.6,188.73,26.63,188.74Zm17.79,1.83c.52.06.58-.2.77-.21.65,0,.31.28,1,.33-.61.33.07.55-1.05.63-.17-.33.45-.31.28-.64-.65-.06-1.46.36-.79.53,0,.12-.25,0-.25,0h-.51c-.18-.33.71-.2.53-.53a6.06,6.06,0,0,1-2.3.09c0-.31.6-.39,1-.52C44,190.24,43.83,190.5,44.42,190.57Zm30.4-.84c-.48-.21,2.05,0,2.81-.08C77.18,190.12,75.9,189.64,74.82,189.73Zm-10,2.05a4.63,4.63,0,0,0,2,.23c-.11.34-1.77.33-1.79.09-.11.24-1,.13-1.29.31a6.86,6.86,0,0,0,2.81-.08c-.05,0,0,.2,0,.21a2.27,2.27,0,0,0,1-.42c.44,0,.66.08.76.22a9.92,9.92,0,0,1,1.79-.09c1-.15,0,.47,1,.32.35,0,0-.19-.25-.21.2-.24,1.43,0,2.05-.09-.32.15-1,.15-1.29.3,0,.09.25.11.24.22a7.89,7.89,0,0,0,1.29-.31c-.25.36,2,.28,2.54.34a9.42,9.42,0,0,1-1.55.31c.08.14.64.09,1,.11a24.36,24.36,0,0,1-5.38.38c-.43,0-.48-.05-.5-.21-.27,0-.19.18-.52.21-.53,0-.4-.22-.5-.22-.31,0-.43.18-.77.21-.55,0-1.32-.22-2-.23-1.14,0-2.18.13-3.33.08s-1.95-.28-3-.34a2.53,2.53,0,0,0-.77.1c-1.7,0-3.36-.39-4.85,0a2.89,2.89,0,0,0-.76-.22c.21-.23,1.58,0,1.3-.41a13.93,13.93,0,0,0-2.07.51c-1.19-.37-3.4-.07-5.09-.25-.61-.06-.55-.21-1-.32-.63-.16-1.54-.05-1.77-.33.22-.5,1.48-.1,2-.09.79,0,1.71,0,2.29,0A1.12,1.12,0,0,0,49,192c.19,0,.68.22.75.22.31,0,.91-.11,1.29-.1a5.6,5.6,0,0,0,2-.09c.06.31-1,.39,0,.53.38,0-.1-.14,0-.32.57-.11,1.41-.11,1.55-.41,2,.19,3.31.08,4.83.36a3.6,3.6,0,0,0,2.07-.63,12.73,12.73,0,0,0,2.29.13v.42C64.41,192.13,64.85,192.06,64.78,191.78Zm-9.2.25c.05.12.28.17.5.22,0-.5-.71-.21-1.52-.23.23.19.07.53.48.64C55.6,192.43,54.73,192.19,55.58,192Zm1.78.23c-.8-.06-.69.28-1.29.3,0-.1-.44-.13-.51,0,1-.1.39.4,1.26.33C56.57,192.49,57.47,192.59,57.36,192.26Zm1.78.22c-.12-.3-1-.31-1.52-.43-.22.29.35.27.23.53C58.47,192.63,58.42,192.39,59.14,192.48Zm10.94.72c.2,0,.29.09.24.21.63,0,1.32-.08,1.3-.41A2.87,2.87,0,0,0,70.08,193.2Zm-7.64-.38c-.82.12-2.51-.27-2,0C60.7,192.9,63,193,62.44,192.82Zm.79-.73c-.14-.63-2.6-.06-2.81.29C61.88,192.51,61.65,191.91,63.23,192.09ZM38.06,142.81c-.46.73.24.49-.3,1.29-.23-.24.24-1.07-.3-1C37.69,142.67,37.88,142.62,38.06,142.81ZM99.27,191c-.35.45-1.27,0-2.3.09C96.35,190.87,98.65,191,99.27,191Zm-46.95-.25c1-.14.48.3,1.27.22-.37.34-1.26-.15-1.54.1C51.19,190.93,52.76,191,52.32,190.73Zm1.75,1c.13.24-.5.15-.53.31a5.07,5.07,0,0,0-1.78,0C52.16,191.51,52.9,191.83,54.07,191.7Zm5.71-2.19h1c-.14.09-.28.17-.27.32H61c.32,0,.26-.21,0-.21.32-.32,1,.08,1.27.12,0-.19-.31-.23-.24-.43a4.56,4.56,0,0,0,2.54.23c-.09.25-1.21,0-1,.42a3.27,3.27,0,0,1-.75-.22c-.17,0-.27.21-.27.21a17.51,17.51,0,0,0-2.29,0C60.27,189.73,59.58,189.8,59.78,189.51ZM120.93,67.15c-.26.17-.74-.67-.75-1.06C120.4,66,120.67,66.57,120.93,67.15ZM58,190.46c1,0,1.84.45,2.3-.09,1-.11.71.27,1.52.22,1,.09,1.34-.38,2-.09a5,5,0,0,1-2.06.3C60.48,190.85,58.17,191,58,190.46Zm-.52.1c-.23.84-2.19,0-3.33.4.31-.47.15-.14-.5-.32C54.51,190.11,56.08,190.94,57.43,190.56Zm2,1c.46,0,.55-.12,1-.1.39.42-1.11,0-1,.31a35,35,0,0,0-3.82-.24C55.19,191.2,58.72,191.52,59.43,191.53Zm38.65-8.41c-.67.44-.94,1.07-2.1,1.36-.18,0-.89,0-1.28.1a5.68,5.68,0,0,1-2.31.19,12.88,12.88,0,0,0-1.29.31c-3.66-.12-6,.18-8.42-.06a2.73,2.73,0,0,1,.78-.21c-.17-.33-.68-.14-1.27-.12-.18-.33-1.5-.57-2-.44a6.11,6.11,0,0,0,2.27.66c-1,.25-1.88-.1-3.06.08.45-.36-.74-.37.52-.42a3,3,0,0,0-1.52-.12c0,.34,1,.3.73.75H77.83c1.65-.13-.28-.69-1-.43,0,.16.56,0,.76.11.6.2-1.42,0-2,.2-.16-.11-.58-.11-.49-.32-.78.25-1.94-.19-2.79-.34,1.31-.15,2.88-.2,3.09-.83.28,0,.17.21.5.22.77-.07-.23-.23,0-.43,1,.09,1.23-.12,2-.09.24.32-.58.19-1,.21-.25.49,1.79.25,2,0,.81,0,.56.33,1.52.23l.78-.32c0-.23-.82,0-.77,0-.33,0-.39-.21-.75-.22a7.71,7.71,0,0,1-2,0c2.24-.11,4.59-.17,6.9-.26-.33.44-.31.74,0,1.06.78.08.76-.18,1.54-.1.7-.09-.67-.2-.23-.53h1.27c-.08-.48-.79-.41-1.77-.33.64-.41,2.63-.24,3.85-.4-.14.09-.28.17-.27.32a6.89,6.89,0,0,0,1.28-.2.73.73,0,0,0-.5-.22,29.64,29.64,0,0,1,4.61-.39c-.29.15-.29.26.24.32s1.07-.38.53-.42c0-.23,1.09,0,1.54-.09C97.25,182.26,97.33,182.82,98.08,183.12Zm-18.17,1c0-.34-1.9-.49-2-.12C78.59,184.19,78.92,184,79.91,184.15Zm4.6-.07c-.76-.29-1.06-.29-.73-.86-1.31-.13-.4.63-.79.63-.37-.27-2.38-.33-2.31.2.8.12.63-.17,1-.21C82.74,184,83.63,184.47,84.51,184.08Zm5.39-.6a3.85,3.85,0,0,0-1.8.09c-.35.05-1.63-.13-1.28.2.05.22,1.12,0,1.26.23C88.45,183.48,89.26,183.76,89.9,183.48Zm-.54.63c-.09.28.52.28,1,.33C90.63,184.09,90,184.09,89.36,184.11Zm1.82-.83a1.3,1.3,0,0,0-1,.31,3.85,3.85,0,0,0,1,.11ZM92,183c-.21.08-.72.73.22.64C92.58,183.6,92.78,182.82,92,183Zm3.59-.39c.27,0,.2-.14-.25-.11-.09.34.28.51,1,.54C96.53,182.66,95.46,182.84,95.55,182.57ZM29.38,159.84c.4-.5.86-1.79,1.21-1.66-.45,1-.82,1.19-1.26,2.22C29.26,160.29,29.5,159.91,29.38,159.84Zm.72-.47c.59-.66-.12,1.26-.51,1.46C29.51,160.47,30.31,159.8,30.1,159.37ZM26.46,167a3.86,3.86,0,0,1,1.21-2.82,11.8,11.8,0,0,1,.51-1.47c.1,0,0,.14,0,.28s.14,0,.21-.18c.07.92-1.94,2.78-1.23,3.11C26.88,166.57,26.7,166.4,26.46,167Zm4.38-9.51c.64-1.06.33-1.32,1-2.38.39.24-.5,1.55-.46,2.08-.26.31-1.06,1.15-.91.37-.29-.14-.16,1-.46.91s.25-1.17.63-1.7C31,156.7,30.71,157.25,30.84,157.45Zm-3.68,5.82c.82-1.4,1.05-2.08,1.94-3.58.32.42,0,1.39-.6,2.58-.55.16.47-1,.18-1.07C28,161.73,27.83,163.16,27.16,163.27Zm6.1,25.62c0-.18.45-.27,0-.32.4-.31,1.14.09,1,.33Zm-.82-35.51a19.4,19.4,0,0,0-1.16,2.27c-.18-.19.49-1.11.09-1.12C31.73,154.05,32.14,153.11,32.44,153.38ZM38,145.09a6.17,6.17,0,0,1-1.5,2.95c-.45,0,.2-.42.35-.68A20.89,20.89,0,0,1,38,145.09ZM26,165.82c-.71,1.45.52.49-.25,1.9-.19-.27,0-.9-.3-1,.48-.94.77-2.13,1.34-2.17C26.34,165.16,26.08,166.58,26,165.82Zm10.11-16.54a19.39,19.39,0,0,1-1.42,3A10.29,10.29,0,0,1,36.08,149.28Zm-2.11,2c-.47.5-.31.71-.79,1.31-.16-.16.34-.89.18-1.06C33.58,151.29,33.78,151.25,34,151.31Zm2.73-6.06c.21.21.46-.14.74-.75.15.76-1,1.79-1.2,2.83-.24.16-.46,0-.72.47-.29.72.31-.11.37.21a3.1,3.1,0,0,0-.56.85c-.28.13,0-.85-.37-.2-.09-.15.27-1.33.6-1.41.23-.46-.1-.43.28-1,.25,0,0,.43-.16.79.12.14.27-.13.39-.08.28-.92,0-1.38.6-2.58.14.81.34-.22.56-.85.18.06.05.38.26.43C37.2,144.67,37,144.52,36.7,145.25Zm-3,9.41a9.1,9.1,0,0,0-1.16,2.27c-.19.41-.34.43-.55.86s-.15.53-.37,1c-.93,1.74-2.15,4.09-3.25,6.36-.48-.35.61-1.61.86-2.15s.28-1.19.72-1.64c.12-.3-.07-.33-.19-.11-.11-.35.59-1,.74-.75.88-2,1.75-3.33,2.25-4.87C33.06,155.22,33.4,154.61,33.69,154.66Zm1.88,34c-.67-.28,1.53-.37,2-.2C37.49,188.81,35.69,188.39,35.57,188.7Zm2.94,2.67a7,7,0,0,0-1.52-.22c-.13-.43,1.73.12,1.53.12.2,0,1.24-.1,2-.1a10.77,10.77,0,0,0,2,0c.06.19.43.25,1,.22-.82.3-1.84-.11-3.06-.13C39.78,191.27,39.18,191.42,38.51,191.37Zm-2.2-2c.17.33-.89.12-.54.53-.44,0-.66-.09-.76-.22C35.47,189.56,35.36,189.22,36.31,189.34Zm-1.3.31c-.72,0,.28.69-.78.52-.32-.26.76-.43,0-.53C34.33,189.39,35,189.4,35,189.65Zm1,1.7c.78,0,1,.35,1.53.12C38.31,191.58,35.38,192,36,191.35ZM22.39,178.69a6.12,6.12,0,0,1-.49.87c0,.09-.11.17-.16.28l-.08.19c0,.05,0,.08,0,.13s-.17-.13-.17-.2a2,2,0,0,1,.22-.44c.18-.3.35-.59,0-.63C22,178.07,22.16,178.7,22.39,178.69Zm1.76,7.36A1.74,1.74,0,0,1,25.2,186l.14,0h.2l.6.05c.39,0,.76,0,1.12,0,1.12,0,1.82-.39,2.56-.2.06.3-1,.16-1.54.2s-.9.19-1.29.21-.37-.11-.5-.11-.4.05-.65.07a1.08,1.08,0,0,1-.36,0c-.12,0-.11-.08-.16-.17A1.33,1.33,0,0,1,24.15,186.05Zm15.67,4.69a4.16,4.16,0,0,1-1.29.21C38.37,190.58,39.44,190.57,39.82,190.74Zm2.61-1.46a10.24,10.24,0,0,0,1.52.33c-.82.79-3.13.37-4.87.39-.3,0-.22.19-.27.31-.69-.4-1.38,0-2.3.09s-.66-.29-1.26-.33c.84-.26,1.8.15,2.81-.08.46-.16.47-.52,1.3-.52.07.17-.25.18-.27.31C40.6,189.62,42.38,190.15,42.43,189.28Zm-4.49-2.37c.27-.46,1.24-.44,2.31-.3.3-.21,2.2-.4,2,.12C40.82,186.74,38.85,187,37.94,186.91Zm139-9.73c-.72-1-1.49-2.86-2.22-4A19.2,19.2,0,0,1,177,177.18ZM39.09,125.6c.24.3-.3.93-.6,1.41C38.25,126.71,38.79,126.08,39.09,125.6Zm-.35,1.84,1-2C40.06,125.47,39,127.74,38.74,127.44Zm-.81-.74c-.21-.32.19-.67.49-1.19C38.64,125.67,38.2,126.48,37.93,126.7ZM46,113.41c-.16-.21.53-1.14.71-1.64C47,112.17,46.34,112.72,46,113.41Zm-9.16,13.28c-.68,1.69-1.27,2.38-1.85,3.64-.18-.53-.54,1-.72.47.5-.68.76-1.43,1.14-2,0,0,.14.13.18.1s.4-.93.58-1.13c.09-.39-.17,0-.26-.44.59-.38.62-1.2,1.23-1.94.12-.27,0-.18-.09-.05-.17-.38.42-.55.56-.86.25,0-.47,1.5,0,.89,0,.55-.73,1.07-.72.48C36.92,126.12,36.53,126.71,36.86,126.69Zm-.36,5.63c-.26-.35.71-1.73,1.09-2.6C37.75,130.41,36.73,131.3,36.5,132.32Zm10.07-23.26c.21.16.47-.19.72-.48a1.31,1.31,0,0,0,0-.61,9.24,9.24,0,0,0,.9-1.54c0,.68.25.27.12.94-.59.82-.09-.1-.37-.2-.36.82,0,1-.76,2.2-.48-.36-.48.29-1,1.2-.39-.23,0-1.09.46-2.07C46.81,108.5,46.7,108.77,46.57,109.06Zm-11.12,21.8c.06.36-.73,1.16-1,2C34.14,132.68,35.11,131.39,35.45,130.86Zm-.14-3c-.22-.07.37-.83.49-1.19C36.11,127,35.65,127.6,35.31,127.87Zm13.27-23.23a3.26,3.26,0,0,1,.42-1.52C49.28,103.27,48.82,104.05,48.58,104.64Zm3.34-6.31a2.18,2.18,0,0,0-.44.63,3.22,3.22,0,0,1,.41-1.52C52.05,97.61,51.76,98.16,51.92,98.33ZM36,133.23c-1.62,3.08-2,3.93-3.68,7-.5.64.33-.87.6-1.42l3.13-6.13C36.28,132.67,36.17,132.94,36,133.23ZM56.39,88.86c.46-1,.68-.75.81-.42C56.88,89.15,56.66,88.74,56.39,88.86ZM60.48,78c.28-.61.54-1,.75-.75C61,77.88,60.69,78.22,60.48,78Zm-4.42,8.91a22.11,22.11,0,0,1,2.41-4.49c.41-.69,0-.67.51-1.47.05.09,0,.28.07.33a12.06,12.06,0,0,0,1.09-2.6c.31.55.74-.32,1.13-.83.16.8-1.05,2.08-1.46,2.4a2.3,2.3,0,0,1-.37,2.13c-.3-.05.35-.9.19-1.07-.4.07-.35.79-.37,1-.21.18-.43,1.14-.7,1.37,0,0-.17-.13-.18-.11-.16.29-.12.61-.28,1s-.25.28-.32.41c-.17.3-.09.7-.58,1.13-.09.08-.24.34-.33.41C56.61,86.72,56.64,85.75,56.06,86.93Zm.74-.75c.44-1.07,1.42-1.53.74-1.92C57.22,85,56.54,86,56.8,86.18Zm-7.29,20.14c.26.3-.41,1.17-.71,1.64C48.64,107.75,49.33,106.82,49.51,106.32Zm-.23-.71a16,16,0,0,1-1.3,2.77A16.78,16.78,0,0,1,49.28,105.61ZM65.49,75c-.09-.6.41-1,.84-1.87C66.8,72.59,65.72,74.47,65.49,75ZM61.56,82.7a20.53,20.53,0,0,1,1.53-3.24c.52-1,2.43-4.67,1.48-2.67C63.85,78.31,62.36,81,61.56,82.7ZM101.4,21.07c.13,1.33-.75-1.52-1.12-1.8.23-.08.66.38.8,1.38C101.21,21,101.35,21.24,101.4,21.07Zm1.31,3.41A19.09,19.09,0,0,0,101.62,22,3.61,3.61,0,0,1,102.71,24.48Zm.18,2.27c.19.44-.18.44-.24.48a6.16,6.16,0,0,1-.28-1.06C102.58,26,102.62,27.22,102.89,26.75ZM31.33,142a13.72,13.72,0,0,1-1.74,3.41A18.83,18.83,0,0,1,31.33,142ZM61.67,77.8c-.76-.55.21-2.43,1.27-3.66.13-.34-.15-.11-.3.12,0-.81.89-1.41,1.23-1.94.14-.28-.07-.16-.1,0a7.53,7.53,0,0,1,1.37-2.45c0-.41.63-1.31.21-1.34a11.78,11.78,0,0,0,1.71-3.13c.4-.48.74-.26,1.16-1.1.09-.66-.84,1.15-.79.14.2-.47.38-.7.54-.58A53,53,0,0,0,70.3,59c.24-.5.45-.68.63-.53-.17-.51.48-1.8,1.2-2.82-.12-.38.46-1.34.65-2,.25,0,0,.43-.16.79.57-.44.6-1.5,1.14-2,.11-.27,0-.18-.1-.06-.23-.42.26-.32.44-.63l.58-1.13c.21-.37.37-.78.58-1.14a3.31,3.31,0,0,1,.53-.58c.13-.26.06-.69.19-1.06s.3-.34.44-.63,0-.28.14-.51a9.69,9.69,0,0,0,1.13-2c0-.08-.28.28-.39.52a20.48,20.48,0,0,1,1.67-3c.19-.35.27-.78.48-1.18a5.07,5.07,0,0,0,.56-.86c.14-.33-.12-.12-.07-.33.1-.47.67-1.12.81-1.59.13.14,0,.51-.28,1,.61-.83.19.5.68.08.07-.19,0-.28.13-.5.29-.72-.31.1-.37-.21s.29-.47.46-.91c0-.09.15-.74.17-.78s.82-.88.37-1c.2-.54.34-.23.53-.58s.15-.47,0-.56a6.28,6.28,0,0,0,1.39-2.73,11.4,11.4,0,0,0,1.2-1.66c-.11-.17-.26.08-.42.35.06-.46.46-.8.72-1.64.2-.43-.24-.31-.14-.66a1.48,1.48,0,0,0,.34-.84V27.5l.06-.27a3.28,3.28,0,0,1,.15-.51c.16-.39.69-1.26,1-1.94C88,21.86,90.89,16.57,93,12.42c.42-.81,1-2.62,1.4-2.52.44-.74.22-.88.52-1.51C96.68,5.1,98,2.24,99.27,0c.38.84.75,1.7,1.11,2.6A9,9,0,0,1,99.27.5a13.9,13.9,0,0,0-1.18,2.41c-.24,1.32.68-.85,1.13-1.77l0-.09c.22.48.54,1.33.51,1.28.45.83.67.77,1,1.46,1,2.51,2.15,5,2.86,5.54.81,1.81,1.58,3.26,2.28,4.64a28.74,28.74,0,0,1,1.74,4,28.71,28.71,0,0,1,2.26,4.15c.79,1.69,1.56,3.46,2.18,4.83a1.52,1.52,0,0,1,.32.34c.1.13.26.39.32.48a8.85,8.85,0,0,1,.47.93c.32.72.65,1.6,1,2.4.61,1.23,1.37,2.31,1.88,3.35.72,1.45,1.43,2.92,2,4.12s1,2.65,1.78,3.39c0,.74.53,1.1.9,1.83.19.38.1.43.24.73.6,1.28,1.56,2.76,2.33,4.26.41.81.64,1.6,1,2.33.25.47.61.82.87,1.29s.41,1.11.69,1.65a10.65,10.65,0,0,1,1.22,2.24c.11.22.21.13.31.14a10.79,10.79,0,0,0,.8,1.88A5.62,5.62,0,0,0,129,61c-.06.59-.92-.73-1.31-.25-.12.39.59,1.19.79,1.6s.12-.13.5.06c.49.82-.13.66.17,1.31.32.91.57.55.87,1.29-.19,0-.06.37-.27.4.31.83.57.82.88,1.56-.12.14-.27-.14-.4-.1a4.49,4.49,0,0,1,.91,2.11c.14.27.17.05.1,0a9.23,9.23,0,0,1,1.25,2.79c.29.4.37,0,.43.65a3.7,3.7,0,0,0,1.07,1.2c.05.35-.18.44-.05.85a2.69,2.69,0,0,1,.43.65c.23-.1.09-.52.47-.49.29.58.06.31-.08.31.21.69.45.53.66,1.11s-.23,1.51.59,1.68c.1-.1-.21-.74-.34-.68-.09-.42.29-.43.36-.72a11.22,11.22,0,0,1,1,1.79c-.27,0-.61-1.26-.86-1A6,6,0,0,0,138,79.91c.26.79,1.15,2.14.62,2.23.31.9.56.55.87,1.29.13.45-.18-.09-.33-.42-.25.24.33,1.65-.43,1a3.53,3.53,0,0,0,.78,1.6,3.82,3.82,0,0,0-.37-1.23c.33.3.38-.61.92.43s-.26-.19-.38.17c.39.77.81.85.67,1.37.4.66.1-.31.39-.17a12.43,12.43,0,0,0,1,2.33c.08.51-.6-.22-.26.67.19.4.37.57.54.6s-.31-.69-.15-.77c.21-.38.5.65.76,1.06.26-.37-.38-1-.69-1.65.69.16.88,1.51,1.54,2.66-.17,0-.35-.33-.51-.32.91,1.41.43,1.59.52,2.27.11.18.21.19.32.42.14-.49,0-1.21.31-1.54.17.54.26,1,0,1.13.31.74.58.89.85,1a.52.52,0,0,1-.16.63c.41.71.35.17.77,1.33.13.37.4.94.26,1,.48.81.24-.23.71.24l-.34-.68c.3.15.88,1.63.38,1.5.58,1,.55,1.43,1,2.33-.08-.63-1-2.53-.32-2.09.33.64,0,.66.27,1.28.11.17.21.18.32.41.19,0,.07-.37.28-.4a3.36,3.36,0,0,0-.55-.88c0-.52.88,1.33.9,1.84-.16.1-.34-.19-.5-.06.6.81,1.34,2.35,1.16,2.83.39.37.23-.34.26-.67.89,1.13.62,2.61,1.71,4,.42.67-.19.42.37,1.23.28.77.49.36.74.78a22.28,22.28,0,0,1,.95,2.65c.17.2.34.14.53.6.24.27.47.15.72.51,0-.31.1-.28.31.15-.26.19-.91-.38-.57.53.32.58,0-.39.39-.18a20.65,20.65,0,0,0,1.21,2c.41.85.37,1.6.94,2.64.23.57.38-.32.63.56.39.7-.07.17-.08.32s.32.75,0,.81c.57.88.48.14.92.43a9.24,9.24,0,0,0,1.24,2.52c0,.58-.33.11-.6,0,0,.47.7,1.4,1.22,2.24-.43,0-.35.35-.92-.43-.09.13.2.61.36,1s.45-.08.69,0c.34.7.62.4,1,1.25.14.26.27.11.4.09.6,1.56,1.41,2.87,1.92,4.17.12.22.21.12.31.14.43,1,.88,1.64,1.12,2.29,0,0-.19,0-.19.08,0,.24.51.88.56,1.15s.27.07.42.37c.45.14-.29-.77.16-.63.78.9-.29.82.71,1.92-.13.13-.27-.14-.4-.1.22.76.91,1.14.78,1.6.15.26.27.11.41.1a15.53,15.53,0,0,0,1.78,3.39c-.17,0-.37-.67-.53-.6-.18.43,1.62,2.33.74.78.26,0,.59,1.11.88,1.56-.25,0-.18.27-.27.4.14.26.16.09.09,0,.61.39.78,2.36,1.43,2.43.4.7,0,.65.48,1.46.26,0,0-.41-.14-.77.32.13.64,1.33.69,1.64.22.38.19-.44.63.56.28.47.07.5-.07.59a18.11,18.11,0,0,0,1.42,2.16c.07.13,0,.31.12.5a1.24,1.24,0,0,0,.33.41c.27.57.72,1.58,1.23,2.52.23.41.58,1.17.79,1.6.28.6.81,1,.79,1.6a1.94,1.94,0,0,0,.35,1,2.09,2.09,0,0,0,.3.15c.05.08.34,1.8,1,1.78.47.89.74,1.39,1.45,2.71a8.53,8.53,0,0,0,.54.87c.14.31,0,.44.15.77.35.73.62.48.56,1.15l.63.55c.85,1.68,1.71,3.33,2.56,4.92l1.28,2.32.63,1.12,1,1.92a1.82,1.82,0,0,1,.07.86c1.2,1.82,2.3,3.77,3.35,5.73l3.13,5.92c.48,1,.74.55,1.26,1.82-.57-.41-.37.23-.17.86.63.53-.25-1,.37-.45.53,1,1,2,.7,1.89a3.65,3.65,0,0,0,1.06,1.17c.88,1.67,1.38,2.7,2,3.92l-3.63,0c.61-.48.41-.55-.24-1.16-1-.05-.63.15-.45.32a8.2,8.2,0,0,1-2.57-.65c-1.87.2-4.16-.21-4.93.19-.91.05-.8-.2-1.48-.22-.44,0-.11.21-.68.21-1.44.08-1.77-.16-3.09-.12a3.74,3.74,0,0,0-2.27-.33c-.82.35,3.53.14,1,.33-.67,0-1.57,0-1.71,0-1,.05-1.22.19-1.65.2-.76,0-.95-.11-1.75-.11l-2.6,0-1.9,0a22,22,0,0,1-2.5,0c-.3,0-.23.2-.27.32a12.81,12.81,0,0,0-4.61.28,9.54,9.54,0,0,1-1.27-.11c-.47,0-.62.2-.77.2-.31,0-.35-.19-.5-.21s-1.19.09-1.28.09a8,8,0,0,1-1.54.1c.07.14.64.09,1,.11.61.2-1.69.06-2.3.09.6-.26-.74-.34.28-.53-.23-.29-.49.28-1.29.1-.36.24.65.4,0,.42-1,0,.09-.16-.5-.32s-.32.26-.52.32-1.35-.14-1,.2c-1.41,0-2.41-.08-3.57-.13.14-.33-.54-.42,0-.64a21.39,21.39,0,0,0-4.6,0c-.22,0-.22.1-.26.21-2.12.13-4.46-.31-5.62.06-1.09-.09-2.77-.3-2.81.19a12.94,12.94,0,0,0-2.05.09c-.49,0-1.12-.13-1.52-.11a5.79,5.79,0,0,0-.78.2c-1,.13-2.27,0-3.32.08-.88,0-2.47,0-3.83.08-.88.08-1.5.28-2.31.3a18.9,18.9,0,0,0-2.81.09c.2-.33-.24-.39-.23-.64,1,.09.58-.4,1.3-.42-.23-.29-.81.15-1.54,0,.65-.33.88-.94-.2-1.17-.14,0-.57.2-.77.21-.55,0-1.77-.07-2.81,0a6.38,6.38,0,0,1-2.3.09c-.58.37-3.21.24-4.87.39-.51,0-.76.24-1.29.3a26.93,26.93,0,0,1-4.33-.13c.16-.41-.63-.45-.73-.75-1.41-.17-1.5-.86-2.76-1.08.53-.39,0-.43-.74-.54,1-.52-.64-.75-.72-1.17.41,0,.45-.1.77-.1-.07-.15-.63-.1-1-.12.62-.26.12-.33.78-.52.11-.18-.19-.2-.5-.22.34-.06.2-.29.53-.42.07,0,.46,0,.51,0,.27-.16-.11-.48.28-.52.17,0,.29.15.51.11a1.71,1.71,0,0,0,1-.53c.88.09,1-.15,1.79-.09.3,0,.22-.19.27-.32,1.22.42,3.65.35,4.55.89h2c.13-.64-.76-.87-1-1.38,1.7-.08-.14-.66.56-1h1c0-.25-.43-.31-.23-.64,1.39.09,1.61.07,2.8.13a1.34,1.34,0,0,0,1,.43c.89,0,0-.28.53-.31h1l0,.42c1-.11,1.76.33,2-.09,0-.17-1.53.19-1.26-.33l7.91.06c.34,0,.41-.18.77-.21,0-.24-.42-.31-.22-.63a7.45,7.45,0,0,1,2.56-.2c.27-.31-.56-.19-1-.22-.81-.09.46-.13.77-.1,1.76.13,4.77-.24,5.34.36a3.4,3.4,0,0,1,2.06-.3c-.07.15-.77,0-.78.21s.25.1.25.21c.61-.06,1.19-.13,1.29-.42,1.78-.08,3.16.3,4.59,0-1.32.31,1.07.26,1.28,0,1.6,0,3.47.09,4.85,0,3.72-.14,8.51.36,11.23-.12.45.08,0,.19,0,.31.29,0,.45,0,.5.12.73,0,.62-.2,1.29-.21.45,0,1.06.23,1.52.23s.68-.25,1.28-.21.81.1.75.33c.56-.12.64-.45,1.8-.31-.06.12-.51.07-.52.21.3.19,1.07,0,1.78.12.09,0,.47.21.51.22,1.85.11,3.93-.16,5.1-.07a1.29,1.29,0,0,0,.53-.32c.78.4,2,.12,2.93,0l.13.32c.39-.08,1,0,1-.3.63.11,0,.28.05.42a2.09,2.09,0,0,0,1.13-.31,4.56,4.56,0,0,0,2.37-.18c.33.06.64.16,1,.22.56-.12,1.13-.22,1.74-.29a34.44,34.44,0,0,1-2.83-5.57,11.59,11.59,0,0,0-.89-1.09,11.41,11.41,0,0,0-.67-1.88l.4-.14-.4-.45a9,9,0,0,1-.54-.72,2.87,2.87,0,0,1-.61-1.52c.39.16.58,1.2.78,1.6a1.5,1.5,0,0,0,.53.47,1,1,0,0,1,.44.54c.08-.17,0-.41-.16-.81.47.57.75,0,1.08.27.79.58,1,1.74,1.83,2.78.15.4.4.89,0,.8.21.3.43.53.65.84.2,0,.12-.31-.15-.8a8,8,0,0,1,1.23,2.53c-.55-.37-.41-.21-.6,0,.27.49.87.86.72,1.23a.7.7,0,0,1,.4.33c.44.14-1-1.76-.27-1.29a14,14,0,0,1,1.08,2.46c.52.85.57.3,1,.84-.31-.68-1-1.41-.87-1.78a2.13,2.13,0,0,1,.83.72c.16,0,.19-.2.1-.52-.69-1-.2.26-.63-.07a1,1,0,0,0-.67-.63c-.43-.71-.24-.75-.5-1.28.22.13.39.6.58,1,.47-.13-.69-1.26-1-1.65a2.51,2.51,0,0,1-.25-1.49c-.31-.48-.67-.13-.94-.95-.07-.37.13-.48.25-.68-.27-.31-.53-.28-.79-.66-1.1-2.08-2.41-5-3.8-7.74-.23-.54-.41-.13-.63-.56a1.84,1.84,0,0,0,.25,1c-.62-.48-.48.54-.65.85l-.22-.46-.23-.45c.46.19.66-.06.25-.95-.38,0,.27.84-.26.67a4.07,4.07,0,0,0-1.22-2.24c0,.49.45.86.67,1.37a16.56,16.56,0,0,1,.63,2.23c-.29-.26-.92-.59-.59.26a17.69,17.69,0,0,0-1.49-1.84c-.38-.59,0-.55-.26-1a12.71,12.71,0,0,0-1-1.79c-.2-.37-.09-.44-.24-.73-.4-.77-.82-1.31-1.11-2-.6-1.43-2.08-4.23-2.81-5.73-.21-.42-.3-1.25-.77-1.33-.38-.59,0-.54-.26-1s-.29-.4-.42-.37c-.44-.7.17-.46-.16-1.05-.34-.87-.86-1.16-.9-1.83-.14-.26-.27-.11-.4-.1a12.31,12.31,0,0,0-1.27-3.06,1.11,1.11,0,0,0-.51-.32c-1.22-2.54-4.26-8.82-6.5-13-.35-.64-.72-1.06-1.1-1.74-.81-1.46-1.33-3-2.12-4.08.5,1.21.14.94-.51-.32.38.73-2.26-4.73-3.26-6.64-.2-.37-.09-.44-.24-.73s-.62-1-.89-1.56-.33-.94-.46-1.19a10.05,10.05,0,0,1-1.21-2,3.33,3.33,0,0,1-.14-.77c-.18-.35-.62-.64-.85-1-.07-.12-.1-.46-.24-.73-.31-.58-.77-1.1-1.1-1.74s-1.42-3.1-1.91-3.89c-.14-.25-.36-.11-.53-.6.13-.14.28.14.41.09-.19-.41-.36-.42-.55-.87-.13,0-.15.13-.08.32-.32,0-.36-.72,0-.55a4.21,4.21,0,0,1-.77-1.33c-.08-.18-.81-1.16-1-1.51s-.32-.92-.58-1.42c-.71-1.36-1.67-3.07-2.23-4.3-.27-.6-.81-1.18-1.1-1.75a4.74,4.74,0,0,1-.24-.73c-.28-.71-.76-1.27-1-1.78a12,12,0,0,1-.37-1.24c-.17-.44-.42-1.12-.58-1.41a5,5,0,0,0-.53-.6c-.2-.37-.1-.43-.24-.73s-.34-.44-.54-.87-.35-1-.58-1.42a14.41,14.41,0,0,1-1.9-3.62,13.34,13.34,0,0,1-1.86-3.07c-.17-.33-.29-.85-.47-1.19-1.26-2.43-2.78-4.83-3.67-7-.19-.46-.13-1-.58-1.42-.1.09.12.46.24.73-.42-.41-1.5-2.53-1-2.6-.33,0-.39-.51-.87-1.29a6.16,6.16,0,0,1-1.21-2c.16-.2.35.24.53.6,0-.18.1-.69.41.1.21-.28-.34-.45-.45-.92a.41.41,0,0,0,.5.06c-.24-.68-.43-.53-.66-1.1.52.08.13-.92-.27-1.28-.19.44.25,1.44-.1,1.72-.32-.28-.65-.88-1-1,0-.38.2-.51.15-.9-.35-.66-.74-.35-.28.4a1.4,1.4,0,0,1-.3-1.82c-.42-.33-.87-1.25-1.24-.84-.15-.33-.31-.65-.44-.64,0-.56-.6-1.57-.3-1.82.32.59.6,1.13.16,1l.56,1.14c.46,0-.43-1.16,0-1.13a1.87,1.87,0,0,1,.46,1.19c.29-.22-.22-1.14,0-1.41-.33-.71-.84-.88-.88-1.56.46-.18,1.53,1.33,1.64.94.45.45.52,1.27,1.11,2-.38-.3-.11.08-.39.17.5,1.1.87.14,1.37,1.34.29.59.07.32-.08.32.2.53.35.24.53.6.63,1,.18,1,.71,1.92.51.69,0-.58.37-.45-.1.22.54,1.08.37,1.23.29.53.13-.37.06-.59.44.5.71,1.67,1.32,2.21.12-.58-.56-.73-.77-1.33.18-.2-.24-1.13.26-.68-.39-1.09-.71-.78-1.09-1.74s.15-.29-.47-1.19a10.27,10.27,0,0,1-.75-1.06,10.24,10.24,0,0,0-.5-1.73c-.49-.73.28.65-.18.36-.74-.73-1.23-2.94-1.77-3.12a3.78,3.78,0,0,0-.59-1.69c.71.16.42,1.37,1,1.79,0-1-.3-2.16-.38-3.18-.72-.67-.22.83,0,1.41-.39.06-.9-1.77-1.26-1.12-.19-.39-.22-.62-.14-.77A8,8,0,0,1,118.51,56c.23,0,.52,1,.74.78-.13-.54-.31-1.14-.5-1.73s-.54-.31-.8-.2c-.21-.57-.94-1.6-.8-1.87.42-.27.36,1.06.86,1.29.13-.85-.75-1.28-.91-2.11-.19,0-.07.37-.28.41l-1-2.06c-.13-.81.75,1.66,1,1.24,0-.65-1-1.59-1.33-2.47.28,1.37-.78-1.2-1.21-2-.16-.73.65,1.14.88,1.56.25-.52-.77-1.81-1.12-2.29a5.92,5.92,0,0,0-1.36-3c-.07.42.74,1.61,1,2.34-.19.13-.44-.8-.66-1.11-.41-.83-.83-1.83-1.2-2a29.17,29.17,0,0,0-1.72-4c-.14-.23-.27-.07-.42-.37-.32-.59-.23-.81,0-.86-1.06-1.39-1-2.59-1.91-3.89,0-.55.24,0,.5.06-.2-.36-.1-.44-.24-.73s-.43-.17-.29.13c-.68-.45-1-1.56-1.52-2.38-.14.06-.3.07-.18.35-.42-.39-.43-1.09-.94-1.68.38.27.51-.27.31-.8.32-.07.14.5.4.82.22-.1.2-.37,0-.82-.53-.86-.39.47-.78.09a9.86,9.86,0,0,0-.92-2.35l.2-.31c-.52-1.06-.87-.92-1.38-2.11.27-.06,0-.65-.06-.82,0-.33.28-.45,0-1-.46-.35.25,1.21-.12,1.43-.42-.71-.12-1.14-.58-1.9-.16-.23-.07.27,0,.53-.31,0-.39-1-.67-1.62s-.61-.81-.86-1.28-.47-1.32-.7-1.43c0-.41.11-.17.14-.43-.32-.72-.43-.11-.63-1,0-.59.3.36.33,0-.32-.87-.33-.36-.5-.57a1.55,1.55,0,0,1-.14.29c0,.18.07.2.14.2a4.84,4.84,0,0,1,.24,1.45,2.32,2.32,0,0,0-.24-.47c-.07.15-.12.27-.14.25s.14-.64.1-.67c-.24-.12-.48,0-1.06.88-.28.75.34-.14,0,.85-.29.44-.55.73-.86,1.2l-.07-.57c-.26.2-.23.54-.43.85-.4.61-.53.2-.62,1.44.27-.29.8-.75.25.46.25.05.78-1.45,1.14-2,.11.6-.4,1.22-.64,1.73s-.67,1.29-.88,1.72l-.21-.77c-.45.85-.48,1.39-.19,1.54l-.59,1.15c0-.23.09-.54,0-.78-.43,1-.74,1-1.2,2.11,0-.12,0-.31,0-.42-.92,1.52-1.27,2.52-2.14,3.95.25.35,0,1.1-.66,2.23.4.14.56-1.36,1.11-1.7,0,.48-.85,1.74-1.18,2.54-.2,0-.08-.28.05-.56-.5.75-.33-.23-.7.19-.62,1,.4-.17,0,.61-.41,1.09-.67.28-1.09,1.44-.21.44.53-.16.35.48-.51.42-.81,2-.88,1.26a14.68,14.68,0,0,1-1.53,3.24c.28.57.72-.83,1.09-1.44.27.39-.45,1-.72,1.64a7.55,7.55,0,0,1-.51,1.47c-.42.05-.14-.49.19-1.07-.22-.07-.49.47-.77,1-.17-.25-.17-.48-.58,0-.11.32.54-.05.24.71.11.38.82-.8.58,0-.3.58-.21.24-.31.12a20.67,20.67,0,0,1-1.39,2.73c-.48-.23.73-1.08.3-1.29-.5.34-.4.62-.88,1.26-.25.5.3.19.28.15.22.39-.48.78,0,.89-.49.82-.5,1.57-1,2,0,.68-1.2,2.65-2,4.41a4.59,4.59,0,0,1-1,1.77c-.1.26.11.26,0,.56-1.58,2.87-2.12,4.75-3.59,7-.11.26.1.26,0,.56-.24.56-.42.4-.67,1.08-.47,0-.06-.64-.12-.94a3.45,3.45,0,0,0,1.23-1.94c-.34,0-.46.81-.88,1.26-.1.11-.33,0-.4.07-.28.35-.49.88-.78,1.31.15.45.44-.69.6-.24,0,.41-.57,1.89.12.93.07.19-.82,2.18-1,1.77-.25,1.31-1.37,2.91-2.34,4.82-1.07,2.09-2.27,4.75-3.06,6.47-.25.65-.42.35-.65.8A5.19,5.19,0,0,1,68.56,79c-.15.39.15.52-.39,1.24-.53.25,0-.49.07-.84,0-.17-.1-.44,0-.61s.92-1.13.49-1.19c-.2,0-.1.36-.35.68-.07.09-.55-.09-.74.76.18.21.47-1.06.62-.53-.43,1.13-1.45,2.31-1.92,3.3.34.17.83-1.44,1.21-1.66.53-.1,0,.66.32.77a40.16,40.16,0,0,1-3.19,5.8,15.72,15.72,0,0,1-2,4.42c.26.36.58,0,.93-.65.18.19-.42,1-.3,1.29.36.17.33-.64.46-.91.37-.76.91-1.5,1.37-2.45.1-.26-.11-.25,0-.55a5.57,5.57,0,0,1,1-1.49c.21-.54-.28.19-.16-.38,1-1.46,1.52-3.35,2.52-4.72,0,.79.89-1.14,1.26-1.06.33-.58-.63-.07,0-.88-.13,0-.29.37-.44.63-.45.68.08-.47.26-.74a5.81,5.81,0,0,0,1.08-1.43c-.16-.39-.42.41-.65.8-.29-.2.27-.71.49-1.18.45-1,1-2.47,1.76-3.69.25,0,0,.42-.16.78.65-.17.63-1.29.62-1.69,1-1.81,1.47-1.75,2.23-3.43-.26-.37-.67,1-1,1.49.43-2,2.07-4,2.69-5.5a2.72,2.72,0,0,0,0-.56c.16-.35.16.14.18.1.23-.44.3-1.05.51-1.46.45-.88.87-.93,1.21-1.67.12-.27-.08-.28-.17-.38,1.19-2.06,1.79-4.16,2.87-5.4.15-.28-.06-.16-.09-.05A10.67,10.67,0,0,1,83,52.62a10.42,10.42,0,0,0,.42-1.52c1-1.8,2.45-4.2,3.7-6.11.59-.07,1.06-.65,1.4-.39.88-2,1.46-2.86,2.43-4.77a1.31,1.31,0,0,0,0-.61,3.68,3.68,0,0,1,.67-1.08c.25-.56-.38.11-.51.3-.64,1-.25,1.48-1,2.09a6.32,6.32,0,0,1,.77-2.19.68.68,0,0,0-.42.35c-.1-.23.15-.37.23-.46s.41-.53.6-.25c.17-.28.3-.62.47-.9a2.66,2.66,0,0,1,.53-.58c.21-.42-.08-.6.39-1.24.38.12.87-1.15,1.26-1.06.24-.75-.53.14-.35-.48s.67-1,.62-.53a2.25,2.25,0,0,1,.48-1.06c.17-.26.21-.34,0-.49s-.15,0-.17.09a1.82,1.82,0,0,0-.06.32c-.06.29-.1.58-.25.54s-.13-.24,0-.56.16-.3.21-.39a1,1,0,0,0,.13-.25c0-.13,0-.48,0-.55.31-.81.94-2.06,1.31-2.07.1-.55.55-.9.78-1.51a9.4,9.4,0,0,0,.3-1.28c-.46.23-.53,1.33-.9,1.73A3.29,3.29,0,0,1,96.58,26a9,9,0,0,0,1-1.64c.16.45-.13.75-.09,1.13.18-.58.26-1.23.47-1.87.23.27.34-.47.71-.89,0-.61-.4,1-.34-.05a3.61,3.61,0,0,0,.6-1.65c.13,0,.27-.17.38-.16a7,7,0,0,1,.16.95c.11,0,.29.41.25-.43.22.17.29,1.33.32.43a7.55,7.55,0,0,1,.36,1.93c.22.24-.15-.76,0-1.13a6.38,6.38,0,0,0,.73,1.76,6.57,6.57,0,0,1,.71,1.43c.11.07.19-.16.33.2-.42.18.09.61,0,1.13.18-.08.78.86.74.32.28-.21.08.45.17.59.28.35.06-.52.34-.25.38.85.76,1.59,1.13,2.3s.84,1.56,1.23,2.28c.19.37.09.45.24.73a16.92,16.92,0,0,1,1.09,1.75,2.07,2.07,0,0,1,.26,1c.45.79,1,1.84,1.44,2.7,1.36,2.46,2.25,4.44,2.13,6-.42.1-.7.33-.43,1-.2,0-.42-.3-.65-.83.05.58-1-.2-.44,1-.45-.76-.85-.51-1.24-.84-.17-.14-.39-1-.53-.6-.9-2.44-2.29-5-3.3-7.45-.17-.39-.18-.8-.37-1.23-.27-.6-.71-1.12-1-1.79a10.19,10.19,0,0,0-.35-1,.92.92,0,0,0-.21-.32l-.16-.14c-.09-.09-.13-.18,0-.4s-.19.07-.25-.05-.27-.42-.33-.7a2.09,2.09,0,0,1,0-.46c0-.1-.2,0-.27-.06s-.13-.58-.24-.75-.18,0-.27-.09a2.25,2.25,0,0,1-.38-1c-.06-.22-.11,0-.15.16a7.78,7.78,0,0,0-1-2c-.08-.52.09-.79-.07-1.34h0c-.14.56.06.79,0,1.28a7.35,7.35,0,0,0-.76,1.44,1.2,1.2,0,0,1,.08-.64c-.24-.42-.16.93-.14,1-.17.53,0-.58-.17-.37s0,.41,0,.68l-.29.56c-.16-.17,0-.2-.17-.61l-.14.27c-.06.27.35.3.1.74s-.06-.2-.24-.47c-.13.26-.19,0-.19.37-.1.21.22.56.29.83l-.28.53a1.38,1.38,0,0,0-.22-.51c0,.26-.23.46.1.73-.16.5-.41.56-.74.49-.12.16.24.7-.23.44,0,.3.49,0,.12.45.15-.07.22,0,.29-.09a1.24,1.24,0,0,1,0,.15c-.07.18-.18.45-.28.67-.22.44-.46.78-.58.41-.35.69.06.73-.41,1.52l-.28-.16c.08.23-.2.77-.19,1.07a2,2,0,0,1-.95.93c.4.26-.63,1.82-.76,2.19a1.51,1.51,0,0,0,.44-.63c-.34,1.4-1.52,2.76-2.2,4.32a3.75,3.75,0,0,0-1.65,1.13c-.42.66,0,.57-.39,1.24.68-.48,0,.94.67.08,0,.39-.86,1.59-.11,1.39-1.1,2.78-3.2,6.18-4.31,8.69-.27-.33.53-1.46,1-2.38a16.53,16.53,0,0,0,1.07-2.32c-.36.36-.74,1.06-1.07,1.15-.53.88.11.78-.32,1.57l-.19-.1a7,7,0,0,1-1.43,2.12c-.11.26.1.25-.05.55L83.79,58c-.41.49-.26,0-.51.3-.47.89.18,0,0,.61-.31.6-.82,1.38-.3,1.29-.9,1.28-1.76,3.43-2.41,4.49A29,29,0,0,1,82.38,61c0-.34.1-.78-.12-.94-.33.58-.46,1-.18,1.06a22.62,22.62,0,0,0-1.39,2.73c0-.34-.11-.17-.28-.16-.89,2-1.81,3.91-3.06,6.47-.41.49-.07-.57-.49,0-.49,1,.65-.06-.2,1.34-.47.35-.33-.59-.1-1.22-.42,0-.9,1.42-.3,1.29-.26.42-.35.86-.14.51C73.93,76.61,70.42,83,68.46,87.4c-.12.27,0,.18.09,0-.2.56-.72,1.48-1.18,2.55-.37,0,.29-.89-.26-.43a3.17,3.17,0,0,0-.67,1.08c-.41.54.41-.82.39-1.24-.55.81-1.08,1.42-1.64,2.3.31.47.08,1.4-.09,2.28-.34.52-.68,1.12-.95.93-.22,1.21-1.2,2.36-2.23,4.59a.37.37,0,0,1-.48,0c-.29.46-.09.51,0,.61-.62,1-1.15,2.25-1.85,3.63-1,2-2.26,3.88-3.17,5.53-.45.8-.64,1.73-1.14,2-.12.32,0,.45-.16.79a3.19,3.19,0,0,1-.86,1c-.53,1.94-2.11,4.14-3.49,7.09-.51.43,0-.43-.35-.49-.54,1.1.14,1.19-.7,2.54-.06-.3.09-.77-.32-.77-.49.79-.06,1.09-.72,1.64-.11-.25.48-1.09.3-1.29-.49.42-.28,1.35-1,2.38-.28-.07-.15-.49.18-1.07-.53.26-.24.89-.6,1.42-.22-.05-.53,1-.76,1-.16.7-.13,1.76-.58,2.3,0-.3-.23-.41-.24-.71.2-.41.36-.42.56-.86-.38-.36-.91,1.15-1.11,1.72-.3-.09,0-.67-.33-.77-.07.41,0,.71-.09,1.12-.36.82-.64.66-.95.93.52-1.1,1.46-3.82,2.41-4.49.21-.54-.29.19-.16-.38a20.2,20.2,0,0,1,1.6-2.91c.11-.22,0-.23-.08-.33.66-1.34,1.43-2.07,1.53-3.23.6-.47,1.6-2.91,1.88-3.91.4-.2.87-1.18,1.32-1.89-.34-.23-.77.76-1.16,1.1-.22-.49.27-.45.58-1.13.27-.49-.28-.29-.35-.49a5.37,5.37,0,0,0-.81,2.76c-1.54,2.82-2.24,4.53-3.45,6.54.17-.62-.28-.72,0-1.45-.25,0-.61,1.2-.88,1.26.15.18.32.12.51-.3.27.21-.42,1.22-.74,1.92-.15-.06-.3-.3-.49,0-.51.78.4.36-.3,1.29-.1-.56,0-.53-.58,0-.13.42.14.26.31-.12.1.12-.32.69-.17.78-.43.46-.79.94-.9.37-.51.91-.16,1.09-.86,2.15-.43.91-.75.48-1.18,1.39-.2.71-.45,1.46.09,1.21-.65,1.26-.8,2-.46,2.08-.25.68-.43.52-.67,1.08-.25,0,0-.42.16-.78-.28-.14-.61.33-.93.65a3,3,0,0,1-.81,1.59c-.44.11.31-.77-.14-.66-.22-.12-.28.64,0,.56a21.17,21.17,0,0,1-1,2.09c.18.2.37.16.58,0a6.38,6.38,0,0,1,.72-1.64c.38.4.92-1.05,1.32-.72-1.41,2.56-3.54,7.24-5,9.49-.41-.26.18-.59.37-1,1-1.91,2.44-4.87,3.48-6.82-.5.53-1,1.72-1.51,1.79-.47.74.23.5-.3,1.29-.21.53-.34.22-.53.58-.43.45-.14.7-.17.78s-.23.25-.32.4a1.44,1.44,0,0,0-.14.51,14.55,14.55,0,0,0-1.5,2.95c-.17.41-.3.39-.42.36-.29.71.31-.11.37.2-.27.58-.49.44-.74.76-.27.48.28.28.35.48-.85,1.83-1.58,3.56-2.36,5.1-.13.25-.36.24-.42.35s-.42,1-.6,1.42-.67,1.1-.61,1.41c-.17.14-.37.59-.53.58-.3,1.28-2,3.7-2.59,5.55-.4,0,.11-.69,0-.88a10.2,10.2,0,0,0,1.16-2.28c.19-.45-.27-.38.19-1.06-.68.54-.5,1.45-.86,2.15-.33.11-.77,1.52-1.07,1.16-.06.47.52,0,.33.76s-.43.51-.67,1.08c.16.39.42-.41.65-.8a7.92,7.92,0,0,1-.88,2.42c-.31.66-.63,1.32-.93,1.82a2.66,2.66,0,0,1-.53.58c-.14.27,0,.41-.05.56-.2.53-.67.77-.6,1.41-.16.41-.29.39-.42.35-.36.65-.14.82-.51,1.47-.13-.15,0-.51.28-1-.26.05-.57.57-.83.7-.24.54-.49,1.1-.1,1.11-.15.12-.93,1.22-.48,1.19s.31-.94.81-1.59a4,4,0,0,1-.4,1.24c.36,0,.81-1.12,1.16-1.1a3.21,3.21,0,0,1,1.12-1.72c.16.22-.86.78-.49,1.19.15,0,.32-.4.23-.46.59-.61.08,1.39.91-.37.38.35-1.14,1.71-.77,2.2a14.55,14.55,0,0,0,1.56-2.34c.26-.71-.39.16-.47-.26.37-.53.68-.37,1-.6.24-.55.3-1,.7-1.36.05,1.1-1.12,2.41-1.69,4-.1-.18.28-.76-.14-.66-.53.84.21.6-.42,1.52.09.1.19,0,.3-.12-.19.85-.55,1.85-.18,2.23-.29.77-.51.62-.77,1-.58,1-.57,1.43-1.06,2.32-.22-.07-.2-.35.07-.83-.8.43-1.19,2.43-1.83,2.18-.37,1,.55.26.88-.09.22.07-.37.83-.49,1.19.06-.84-.58.12-.88.09a10.65,10.65,0,0,0-.36,1.59,1.61,1.61,0,0,1-.22.94c-.08.31-.33.16-.5.26s.05.14,0,.25.46-.27.4.16c-.06.22-.27.19-.46.19a1.65,1.65,0,0,1-.19,1.05c-.19.27-.58.38-.65.8.17-.06.21-.22.3-.36.12.12-.08.47-.32.89a3,3,0,0,0-.48,1.1c-.26.29-.88.53-1,.89,0,.13.23-.17.49-.29l-.2.38a8.15,8.15,0,0,0,1.63-.09c-.38.31-.48.51.09.44.05-.11-.16-.12.13-.33s0,.21,0,.22c.2.07.87-.29.87,0-.79.37-.94.08-1.77.19-.35,0-.74.37-1.11.31.83-.33-.31-.18-.64-.26a1.79,1.79,0,0,1,.22-.25l-.31-.08a7,7,0,0,1,1.22-1c-.28-.12.57-.57.61-1-.8.19-1,1-1.54.94a3.83,3.83,0,0,1,1.5-1.1c.37-.5-.11-.39-.45,0-.21,0,.05-.25.26-.28a2.46,2.46,0,0,1,.69-.88c.16-.22-.5-.07-.46.2-.31-.09.52-.57.25-.71s-.27.14-.44.17c.06.19-.48.84,0,.69-.12.45-.61.48-.74,1-.35.18-.07-.18-.28-.13s0,.2,0,.23-.43.33-.5.51.13.23-.06.56c0,.16.33-.07.55-.16-.19.47-.73.8-1.11,1.24s.23.14.4.14l-.1.1c0,.16-.26.42-.29.61a7.93,7.93,0,0,1,2.62-.51c-.58.38.4.16.63.22.52,0,.81-.56,1.36-.41a2.17,2.17,0,0,1-.59.21c-.18.25.59.07.71,0,0-.1,0-.23,0-.32-.11-.33-.52-.12,0-.43l-1.08,0c.6-.36.77,0,1.4-.08a8.1,8.1,0,0,1,1.89,0c-.2.32,0,.38-.09.63a3,3,0,0,0,.86.06h.38a4.87,4.87,0,0,1,.54.06.82.82,0,0,1-.32.29,1,1,0,0,1-.41.13.34.34,0,0,0,.29.08,1.46,1.46,0,0,0,.32-.14,2.31,2.31,0,0,1,.89-.35c.9-.05.61.38,1.51.33.49,0,0-.46-.75-.32.54-.53.9.16,1.52.22,1-.12.34-.36.8-.63,1,.05-.33.45.74.53.15-.25,1.3-.08,1-.52.77.19,2.19-.1,1.52.23.7-.07,2,.15,2.3-.09.45.08,0,.19,0,.31.82.11.37-.34.78-.41.4.4.7-.18,2,0-.16.22-.55.34-.78.53-4.82-.16-6.75.31-11,.34-.36,0,0,.18.24.21l-.68.07-.33,0-.22,0a4.72,4.72,0,0,1-.8.06c-.14,0-.24-.22-.44-.22s-.42.09-.36.1c-.24-.06.32-.3-.56-.22.54-.66,1.11-.15,1.64-.3a4.67,4.67,0,0,0-2.25-.67,1,1,0,0,0,.33-.32.82.82,0,0,0-.69.85c.57.12.69-.35,1.17-.3-.28.48-1.2,1-.17,1.06-.68,0-1.56.12-2.49.18a7.15,7.15,0,0,1-2.44-.13,8.34,8.34,0,0,1-2.71.18l.14-.27c.09-.26-.58.25-.17-.36a6.78,6.78,0,0,1,1.37-1.06c.22-.63.24-.53.6-1.4a2.25,2.25,0,0,0-.66.37c.18.13-.19.77.05.82-.73.7-1,.74-1,.42a3.8,3.8,0,0,1,.67-1.4s.19.08.2.06.48-.95.14-.73A48,48,0,0,0,18.85,180c.11-.26.23-.53.37-.79l.5-.94c.38-.69.75-1.35,1-2s.42-1.45.76-2.2a6.85,6.85,0,0,0,.88-2.42c-.38,0-.87,1.19-1.25,1.05-.33,1.1-1.25,2.74-1.78,2.8a3,3,0,0,1-.37,2.12c.16.34.4-.18.58,0-.6,1.45-.89.45-1,.05a5.72,5.72,0,0,0-.4.7,6.31,6.31,0,0,1-.55.93c-.19.39.53-.16.4.38.23,0,.13-1,.69-1.35,0,.3-.08.61.09.76-.81,1.28-1.4,2.86-2.5,4.87-.56.64.62-1.14.09-.86-.33,0-.58.68-.85,1.2s.45,0,0,.65c-.18-.34-.66.42-.72.71s.66-.23,0,.34-1.06,1.15-1,1.5c.42-.34.69-1,1.16-1.11-.22.55-.66.68-.95,1.16-.05.14.06.12,0,.31.36-.09.5-.55.76-.8.43-.33-.12.45-.13.47-.09.35.07.27,0,.54s-.18.41-.31.66c.71,0,1.47.07,2.31,0-.88.29-.88.08-1.71.09-.4.27.35.22.88.23-.41.31-.06.39.14.53.92-.17-.2-.28.61-.63,1.25-.08.05.64.47.86a7.68,7.68,0,0,1,1.84.23c.44,0,.44-.36.8-.42,1.17-.08.6.48,2,.33-.39.49.68.46.28,1a4.43,4.43,0,0,0-2.52.31c0,.14.61.09,1,.11a.87.87,0,0,0-.52.42c-.62,0-.83-.09-.62-.32-.34-.06-1,.41-.89.1-.25-.19-.06-.25.7-.21-.37-.19.15-.56.7-.63-.13-.32-1,.18-1.59.09.13-.25,0-.4.4-.74-.7,0-.7.53-1.45.52-.35.28.89.09.36.43-.32-.06-1.46.11-1.18-.12a4.89,4.89,0,0,1-1.91.31c.87-.35,1.1-.65-.34-.54-.32-.25,1-.28.7-.53a3,3,0,0,1-1.47.2c.35-.18.11-.2-.15-.21.52-.24,1.39-.64,1.28-.85-.5.09-.93.43-1.56.31h0c.2-.16.29-.21.35-.21.37-.14.79-.1,1.09-.42a1.14,1.14,0,0,0-.41,0c0-.17-.45.17-.5.06.25-.41.77-.46.88-1-.12,0-.59.28-.51-.16-.47.37.19.26-.44,1.09-.29-.05-.54.62-.81.89,0,0,0,0,0,0a.84.84,0,0,1-.25.15,1.16,1.16,0,0,0-.24.14l0,0c0,.1.41.1,0,.3a5.58,5.58,0,0,1-.59.09,4,4,0,0,1,.33-.69c.18,0,.07.24.28.15.3-.55.37-.84.22-.9a3.55,3.55,0,0,0-1.29,1.72l.79-.05c-.2.26-.63.22-1,.21.05-.11.11-.21.14-.29l-.49.5c-.06.13-.21.25-.6.37-.05,0-.08-.07-.08-.18a2.45,2.45,0,0,0-.36.45c.07,0,.1.05,0,.1.76,0,1.55-.39,1.85-.09a5.87,5.87,0,0,1-2.37.31c.36-.71.81-1.54,1.13-2.21a18.61,18.61,0,0,1,1-2.29c.12-.07-.16.7-.38,1,.74-1,.32-.83.65-1.52a4.82,4.82,0,0,1,.68-.87c.2-.43.05-.7.25-1.2s.44-.62.67-1.07a10.32,10.32,0,0,1,1.33-2.61c.47.26.23,1.19-.69,2.52.47-.14.91-1.14,1.36-2,.25-.7,0-.29-.34-.27.29-.49.37-.78.16-.77.2-.46.75-1.25.3-1.07-.22,0-.32,1-.77,1.29a42.84,42.84,0,0,1,2-4.22c.13-.3.12-.66.28-1,.46-1,1.14-2.42,1.64-3.46.83-1.73,1.75-3.66,2.43-4.77,0,0,.16.13.19.1.2-.17.14-.71.37-.95.37.81.07-.58.81-1.59.12-.28-.07-.29-.16-.39.5-.91,1-2.24,1.46-2.39.41-.69,0-.67.51-1.47.41,0,.38.37-.09,1.12.27.18.62-.54,1-1.21-.2-.32-.46,0-.67-.09,5.12-11,10.9-21.84,16.25-32.35.91-1.78,1.6-3.25,2.55-5,.2-.36.1-.45.26-.73.42-.77,1.24-2.22,1.94-3.59.39-.75.61-1.54,1.07-2.32.61-1,2.31-4.27,3.12-6.13a13.44,13.44,0,0,1,2-3.86,10,10,0,0,1,1.51-3c-.17.1-.36.47-.51.3,1-1.61,1.45-3,2.55-5,.08.15-.06.49,0,.61.58-.87,0-.75.21-1.34s.47.1.46.26c.28-.67.27-1.09.54-1.74a10.3,10.3,0,0,0,1-2c.2-.41.5-.71.67-1.08A15.61,15.61,0,0,1,58.74,91a4.3,4.3,0,0,1,.53-.58c.22-.38,0-.77.58-1.14.33-.8,1-2.78,1.48-3.84a6,6,0,0,1,.55-.85c.22-.41.14-.54.37-1s.41-.38.54-.58.11-.47.25-.74c.52-1,1.44-2.41,1.83-3.35.17-.42.17-.75.4-1.24a2.79,2.79,0,0,0,.53-.58,7.77,7.77,0,0,1,1-2.1c.25-.48.37-1.16.62-1.69s.35-.42.56-.85c.72-1.56,1.69-3.63,2.48-5.33.18-.38.3-.34.44-.63.75-1.57,1.25-3,1.78-4,.27-.47.29-.27.53-.58.57-1.25,1-2.36,1.67-3.73.17-.1.36-.47.51-.3.12-.28-.07-.29-.16-.38C76,56.17,76,54.85,77,54c.34-.85.41-.83.83-1.87.25-.19.5-.55.7-.19.51-1-.06-.41,0-.89.44-1.09.79-1,1.22-1.94.2-.43-.24-.32-.14-.66.75-1,1.31-2.76,2.2-4.32.27-.47.71-1,1-1.49.74-1.38,1.64-4.11,2.53-4.72a1.4,1.4,0,0,0,0-.6c1-1.38,1-2.52,2.08-4.09-.22-.59.27-1,.65-2-.06-.14-.46.22-.51.3-.14.23,0,.5-.16.78s-.34.36-.44.63-.14.71-.28,1c-.24.51-.5.78-.79,1.31a18.24,18.24,0,0,1-1.16,2.27,4.3,4.3,0,0,1-.53.58c-.14.24-.39,1.06-.72,1.64-.41.74-.42.88-.92,1.82s-1,1.91-1.62,3.18c-.19,0-.05-.3-.17-.38-.35.69-.7,1.52-1,1.21-.12.27.07.28.16.38s.45-.78.67-1.09A8.41,8.41,0,0,1,79,48.34c-.41.5,0,.92-.37,1-.43.37-.13-.19,0-.61.06-.26-.24,0,0-.55.1-.18.22-.17.32-.4.09.09-.13.45-.25.73.62-.59.69-1.53,1.25-2.22-.34-.62-.92,1.76-1.25,1-.5,1.34-.26,2-1.25,3.39.25.52.66-1,.93-.65a9.09,9.09,0,0,1-1.46,2.39c.06-.46.72-1.75,0-1.16-.18.46.27.38-.18,1.06-.43-.49-1.11,1.32-1,1.77a2.76,2.76,0,0,0,.88-1.26c.26.41-.5,1.18-.83,1.86-.1-.72-.58.22-1,.6.23.46.74-.62.67.09-.37.58-.68.35-1.07,1.15s.33-.29.42-.35c-.92,2.32-2.62,5.55-4.1,8.51-.13.27-.88,1.11-.71,1.64a46.27,46.27,0,0,0-2.53,4.72c-.14-.52.61-1.63,1.09-2.6.68-1.39,1.39-2.65,1.76-3.69-.37-.11-.55.5-.68-.08-.33.87-.78,1.12-.81,1.59.2-.27.34-.42.77-1,.21.78-.76,1.34-1.16,2.27.18.21.48-1.06.63-.53-2.7,5.22-6.48,12.57-9.27,18.17-.19.38-.49.71-.67,1.09s-.34,1-.6,1.41c-.42.75-1.31,1.45-1.25,2.22-.26,0-.59.84-.86,1-.12.3.07.33.19.11-1.55,4.25-4.41,8.35-5.63,11.74-.21.3-.07-.07-.19-.11a18.09,18.09,0,0,1-1.2,2.83c-.23-.15.32-1,.09-1.11-.37.71-.53,1.9-1.06,2.32-.41-.23.59-.9.3-1.29.32-.74.57-.71.9-1.54.08-.19,0-.28.14-.5-.18-.19-.38-.14-.61.24a1.18,1.18,0,0,0-.18-1.27c-.55.18-.67,1.34-1.11,1.72-.36,0,.29-.77.37-1s-.12-.22-.07-.33c.27-.7.74-1.53,1.18-2.55.36-.29.86,0,.62.64.12.28.81-.63.65-.81.52-.63.06.63.24.71.27-.48.29-.76.07-.83.31-.74.54-.36.88-1.26.17.59-.86,1.4-.65,2-.4.78-1.28,1.49-1.37,2.45.24.52.93-1.81.84-.7.24-1.07.79-1.59.87-2.43.27-.41.54-1,.75-.76a20.42,20.42,0,0,1,2.31-4.54,8,8,0,0,1,1.21-2.83,10.71,10.71,0,0,1,.76-2.2c.18.07.05.39.26.44.3-.56.07-.67.18-1.07a12.49,12.49,0,0,0,1.07-2.32,1.86,1.86,0,0,0-.65.81c.05-.53.65-1.51.64-2,.54-1,1-1.14,1.53-2.06.14-.36-.16,0-.27-.16.46-1,.86-1.08,1.34-2.16.06-.27-.09-.36.16-.79-.11-.17-.27.08-.42.35a3.61,3.61,0,0,1,1-1.76c.21-.55-.28.19-.16-.39.45-.71.78,0,1.28-1.33-.17.1-.37.47-.51.3.56-.68.2-1,.6-1.41,0,0,.12.38.28.15s.1-.73-.07-.33c-.32,0,.7-1.2.39-1.24-.4.14-1,2.17-1.3,1.61-.13.33.14.32.26.44ZM49,101.34c.31.13.64.15,1-.59l-.56-.31Zm1.32.45.35-.68c-.39.07-.77-.13-1.25,1C49.61,102.79,50,101.16,50.27,101.79Zm9-17.16c-.38.64-.64-.11-1.07,1.15.16.43.41-.23.61-.24C58.87,85.78,59.49,84.55,59.26,84.63ZM15.52,190.77c.73-.14,1.69-.08,2-.52-.65-.1-.77.28-1.28.31.33-.26.6-.51.13-.53Zm-.82-6.59.33-.64c-.47.21-.34-.17-.64-.14C13.91,184.26,14.5,184,14.7,184.18Zm-1.42.7c-.13-.44-.5-.12-.27-1.1C12.55,184.73,12.43,186.07,13.28,184.88Zm-1.43,4c-.47.24-.38-.59-1.06.71.72-.55.25.24.43.29C11.41,189.42,11.67,189.24,11.85,188.84Zm1.06-.68c.2-.06.09.22.26.18a4.54,4.54,0,0,0,.57-.89A1.51,1.51,0,0,0,12.91,188.16Zm-1.1-.39c-.17,0-.11-.23-.47,0a4.9,4.9,0,0,1-.67,1.08A1.74,1.74,0,0,0,11.81,187.77Zm3.94-4.71c-.66.69-.53,1.28-1.16,2.26-.22.11-.41.41-.63.55s.06-.34-.06-.35c-.4.58-.88.7-1.26,1.55-.2.45,0,.49,0,.72a5.09,5.09,0,0,0,2.08-2c-.22,0-.33.34-.5.51s-1,.88-.84.49a2.44,2.44,0,0,1,1.3-1.15A12.83,12.83,0,0,0,15.75,183.06Zm2.53-.54c-.25.44-.37.78-.22.88.05-.5.26-.45.59-.9Zm2.79-2.64c-.13.05-.77.86-.33.87C21,180.71,21.33,180,21.07,179.88Zm.09-2.74a8.13,8.13,0,0,1-.92,1.46,6.09,6.09,0,0,0-.39.63,1.17,1.17,0,0,0-.15.53c.47.34.69-.36.74-1C20.85,177.86,21.24,177.71,21.16,177.14ZM22.78,174c-.69.59-.59,1.9-1.27,2.49C22.21,176.33,22.57,174.73,22.78,174Zm1.49-.35c-.53,1-1.56,2-1.51,3C23.22,175.33,24.16,174.47,24.27,173.61Zm-8.55,6.48c-.06,0-.11-.07,0-.27-.24-.15-.52.26-.82.92C15.17,180.85,15.44,180.72,15.72,180.09Zm2,.24c-.36-.22-.67,1-1,1.51-.22-.34-.47,0-.89.81C16.56,182.76,17.52,180.93,17.74,180.33Zm-.74-.19c-.25.69-.5.63-.76.79-.19.41-.3.74-.21.89.47-.84.66-.89.67-.39C17,180.93,17.19,179.88,17,180.14Zm-1.45-.65c.48-.67.85-.23,1.36-1.5-.08-.36-.42.34-.63.3-.05,0,.19-.64,0-.64s-.28,0-.72.94C16.22,178.54,15.53,179.06,15.55,179.49Zm3.31-5.09c.69.07-1.11,1.81-.12,1.4a3.46,3.46,0,0,0-.51,1.46,16.23,16.23,0,0,0-1.73,2.24l.41.13c.45-1,.8-1.5.93-.9.25-.53.48-1.12.67-1.64s.39-1.06.65-1.65C18.61,175.48,19.93,173.13,18.86,174.4Zm0-3.22a18.87,18.87,0,0,0-.79,2.48,19.66,19.66,0,0,0-1.8,3.08.41.41,0,0,0,.58,0c.09-.47.65-1.34.62-1.7-.45.49-.3.86-.67,1.09a2.9,2.9,0,0,1,1.11-1.72c-.46,1.28.19.56,0,1.45-.2.44-.36.44-.55.85.24.19.56-.56.81-.42,0,.12-.43,1.18-.05.56.29-.81-.15-1,.46-2.08-.72.38-.27-.57-.11-.94-.23.43-.3-.34-.14-.66.42.35,1-1.47,1.48-1.5l-.46-.26c-.31.6-.63,1.36-.88,1.26C18.7,172.07,19.4,171.09,18.83,171.18Zm2.25-.21c.25-.68.43-.51.67-1.08C21.54,169.26,20.81,170.9,21.08,171Zm-.23-1.88c-.54,1,.1.43-.07.84-.31.6-.73,1.31-.51,1.47.53-.82.59-1.54.93-1.82C20.84,169.62,21.12,169.12,20.85,169.09Zm.23-1.62c-.18.42-.84,1-.7,1.37.11-.17.22-.22.31-.13C21,168.16,21.26,167.62,21.08,167.47Zm1-1.48c.26-.8.39,0,.65-.81.15-.38-.19-.35.28-1-.16-.45-.44.69-.6.25.32-.69.94-.92.69-1.37-.31.68-.56.59-.88,1.26a14,14,0,0,1-.81,2.76c.09.1.29.11.17.38-.45,1.19.41-.56.25-.73.14-.31.73-.48.56-.86C22.23,166.1,22,166.32,22.07,166Zm2.05-2.37a4.69,4.69,0,0,0-.79,1.31c.15.45.44-.69.6-.25a9.16,9.16,0,0,1-.79,1.32c0,.48.13,0,.37.2.25-.73.93-1.81.77-2.2C23.73,165.06,24.19,163.75,24.12,163.62ZM24,162.4c.3-.09,1.09,0,1.14-.82-.23.38-.43.43-.61.25.19-.42.68-1.09.28-1a10.42,10.42,0,0,1-1,1.77c-.16.29-.85,1.64-.37,1Zm.86,1.36c.22-.26,1.36-2,.9-1.54C25.59,162.16,24.8,163.37,24.88,163.76Zm1.3-1.61c-.49.67.21.34-.28,1-.19.35-.33,0-.53.58l.37.2c.37-.89.67-1,1-1.77C26.52,161.9,26.11,162.82,26.18,162.15Zm0-2.34c-.17-.43-1.34,1.77-.88,1.26C25.63,160.11,25.84,160.78,26.18,159.81Zm1.3-.44A8.41,8.41,0,0,0,26.27,161C26.54,161.33,27.45,160,27.48,159.37Zm1-2.66c-.34.54-1.29,1.61-1,2C27.77,158.23,28.74,156.94,28.47,156.71ZM28,155.29c-.25.59-1,.82-.88,1.26C27.43,156.34,28.25,155.76,28,155.29Zm-.83-.46a16.92,16.92,0,0,0-1.48,2.67c.25.43.68-1.25.95-.93-.16.32.11.37.3-.12-.07-.2-.62,0-.35-.49A1.18,1.18,0,0,0,27.17,154.83Zm4.38-8.36a8.22,8.22,0,0,0,.78-1.31C32.2,144.68,31.41,146.39,31.55,146.47Zm-2.08,8.76c.07-.19.22-.45.14-.51-.55.85-.1.86,0,1.17l.46-.91C29.9,154.67,29.65,155.33,29.47,155.23Zm-1.42-1.66c-.21-.17-.47.18-.72.47.09.14,0,.42.26.43Zm3.39-2.2a10.77,10.77,0,0,0-1,2.37c-.24-.14.09-.76.1-1.12a2.13,2.13,0,0,0-.44,1.8c.73-1.13.92-2,1.66-2.57C31.43,151.89,31.71,151.4,31.44,151.37Zm-1.75-.1c1.08-2.34-.73.77-.37,1C29.54,151.81,29.51,151.68,29.69,151.27Zm1.6-2.9-.46-.26c-.12-.09.77-1.66.28-1a13.89,13.89,0,0,1-1.26,2.22c.28.62.74-1.09,1-.6-.24.42-.16.56-.37,1-.43-.4-1.93,1.69-1.56,2.35.48-.91,1-1.72,1.14-2,.68-.19-.14.89.21,1C30.84,150,30.58,149.57,31.29,148.37Zm3-2.68c-.25.65-.42.35-.65.8s.37-.16.17.38c-.21,0-.13.31-.35.69-.37,0-.07-.59-.47-.26-.15.35-.46.82-.37,1,.07-.13.21-.22.1.05-.46,1.23-.78.81-1.19,1.38.41.13.31.69.82.75a8,8,0,0,1,1.13-2c-.1-.09-.18-.19,0-.55.35-.71.62-.49,1-1.49C34.44,146.2,34.73,145.66,34.33,145.69Zm-.67-.09c-.67.74-.55.24-.67,1.09-.23-.44-.56.41-.79.14-.32.43-.14,1,0,.61-.09-.05.09-.46.24-.45l.18.1c-.18.5-.87,1.43-.72,1.64a3.93,3.93,0,0,0,.81-1.59c.66-.41.87-1.25,1.44-2.11C34,144.73,33.88,145.36,33.66,145.6Zm.53-2.91c-.26.38-.53.92-.77,1l.81-1.59c0-.25-.09-.44-.35-.49-.81,1.29-.42,1.57-1,2.65.12.25.38-.31.51-.29a1.4,1.4,0,0,0,0,.55s.31-.39.33-.4,0,.58.3-.12C33.28,144.23,34.37,142.93,34.19,142.69ZM36,141.06a12.51,12.51,0,0,0-1.25,2.22C35.36,143.42,35.86,141.82,36,141.06Zm0-1,.26-.36c.18-.24.27-.06.53-.58.09-.17.49-.84.28-1-.26.37-.57,1.4-.79,1.31.63-1,.1-.75.19-1.06a5.22,5.22,0,0,0,.79-1.31c-.48-.09-1.11,1.68-1.65,2.29-.09-.05,0-.25-.07-.33a3.67,3.67,0,0,0-.58,1.13c.19.53.54-1,.72-.47L35,140.83c.27.44.56-1,.86-1,.12,0,.09.14,0,.24S35.86,140.22,35.92,140.08Zm2.16-3.39c-.71,1.17-.12.63-.28,1-.41,1-1.22,1.86-1.48,2.67.19-.33.33-.08.49,0a16.76,16.76,0,0,1,1.64-3.46Zm3.31-6c-.12-.08-.25,0-.39.08a1.34,1.34,0,0,0-.19,1.06A2,2,0,0,0,41.39,130.66Zm.44-3c-.15.43-.79,1.27-.6,1.42C41.51,128.9,42.08,127.85,41.83,127.7Zm1.9-5.36c-.39.37-.14.3-.46.91C43.53,123.63,44.18,122.36,43.73,122.34Zm1,.29c-.33.48-1.21,1.45-1.25,2.22A8.4,8.4,0,0,0,44.77,122.63ZM48.18,119c-.22.33-.39,0-.65.8l.28.16C48,119.6,48.27,119.13,48.18,119Zm.56-2c-.55.68-1,1.67-.44,1.8.1-.13.67-.75.46-.91-.08.14-.15.26-.21.18C49,117.34,48.77,117.24,48.74,117Zm2-3c-.39-.34-.48.9-.7,1.36s-1.05,1.43-.83,1.87A23.74,23.74,0,0,0,50.73,114Zm-.1-2.39c-.27.22-.85,1.27-.6,1.42C50.18,112.59,50.82,111.75,50.63,111.6ZM46.4,125.28c-.38.74-.71.73-1.11,1.72C45.74,127.28,46.22,126.05,46.4,125.28Zm1.37-2.44c-.27.82-1,1-.9,1.53.56-.86.48-.41.37.21C47.55,123.89,47.89,123.17,47.77,122.84ZM50,120.57c-.33.1-.62-.25-1,.6C49.27,121.47,49.64,120.93,50,120.57Zm-.11-.93c-.75,1.16-.13-1.15-.91.37C49.1,120.52,49.77,120.29,49.88,119.64Zm2.75-6.34c.15-.26.28-.17.4-.08a3.32,3.32,0,0,0,.37-1C53.25,112,52.51,113,52.63,113.3Zm2.14-1.15c-.16,0-.3-.27-.49,0,.22,0-.35.65-.44.63s.22-.62-.05-.61c-.54,1-1,2.47-1.64,3.46-.34.54-.76.62-1.07,1.16.35-.74.73-2.16.35-1.85.07.63-.74,2.16-.6,2.58,0-.05.43-.7.41-.35-.26.37-.2,1.09-.58,1.13.13-.27.35-.63.26-.73-.28.28-.59.87-.86,1,0-.33-.1-.37-.39.07.37,0-.29.85.23.72.28-.58.18-.81.56-.86l.48,1.15.47-.91c-.08-.43-.75.73-.49,0,.11-.22.5-1,.56-.86,0,0-.26.66-.14.51a13.09,13.09,0,0,0,1-2c.23-.47.9-1.15.6-1.41-.54,1.08-1,1.2-1.53,2.06,0-.82.87-1.2,1.21-1.66s.63-1.81,1-2c.28.1-.87,1.42-.3,1.29A11.22,11.22,0,0,1,54.77,112.15Zm.06-5.5A1.44,1.44,0,0,0,53.55,108a.75.75,0,0,1,.42-.35,6.23,6.23,0,0,1-.72,1.64c-.15-.42-.4.23-.6.25-.48.74-.31,1-.72,1.64.37,0,.26-.06.47.26Zm2.87-6.57a12.92,12.92,0,0,0-1,2.1c-.25-.05.23-.72.07-.84-.11.17-.23.45-.32.4l-.24.46c.12.11.39.11.26.43-.57.09-.61,1.17-.93,1.82l-.28-.16c-.17,1.1-1.54,2.22-1.18,2.55.41-1,1.07-1.55,1-.87a5.83,5.83,0,0,0,.76-2.2C56.47,102.53,58.13,100.84,57.7,100.08Zm5.13-3.27c-.21.74-.54.78-.4,1.23.4-.46.21-.43.67-1.08Zm-1.07-2.35A4.69,4.69,0,0,0,61,95.77C61.1,96.26,61.9,94.55,61.76,94.46ZM61,93.77c-.74,1.53-.22-.38-.7.2a22,22,0,0,0-1.18,2.55c-.16.62.49-.26.25.43A6.9,6.9,0,0,0,58,98.51a1,1,0,0,0,.21,1c.43-.81,1-1.8.28-1,.45-.76.87-1.07,1.32-1.89C59.67,95.84,61,94.61,61,93.77Zm-.35-.48c.16-.27.17-.09.18.1.31-.61.55-.33.86-1C61.83,91.89,60.67,92.64,60.69,93.29Zm45.16-53.73c.15.26.3.66.43.64-.35-.86.8.4.17-.63C106.23,39.36,106.23,39.58,105.85,39.56Zm-2.51-11.17c.33.74.4,1.22.86,1.53A4.91,4.91,0,0,0,103.34,28.39Zm-3.9-1.81c.15.13.16.57.26.78C99.75,26.77,99.47,25.89,99.44,26.58Zm-.67.82c.1-.75.27-.1.35-.92C99.08,26.35,98.68,26.67,98.77,27.4Zm-7,13.51c0-.3-.23-.42-.23-.72l-.46.91C91.32,41.26,91.53,41.39,91.8,40.91Zm-7.28,9.36c.4-.89.67-.22,1.09-1.43-.23-.28-.64.64-.58,0A2.91,2.91,0,0,0,84.52,50.27ZM85,55.2c.26-.78.43-.48.65-.81-.24-.21-.54.25-.81.42-.18-.1.2-.68-.14-.66C84,55.49,84.66,54.81,85,55.2ZM78.11,68a2.75,2.75,0,0,0,.51-1.47C78.25,67.4,77.69,67.71,78.11,68Zm-4.87,4.87.58-1.13C73.56,71.3,72.76,72.88,73.24,72.86Zm.47,2.59c.31-.6.74-1.3.51-1.46C74,74.49,73.27,75.48,73.71,75.45Zm-2.13,3.48c.46-.74.76-2,.32-1.57C72,77.52,70.83,79,71.58,78.93Zm-4.06,4.45c.36,0,.76-.49,1.19-1.38C68.4,81.34,68,82.58,67.52,83.38Zm-.34,5.35c.62-.56.75-1.5,1.44-2.12-.17-.28-.31.32-.54.58C67.69,87.65,66.93,88.29,67.18,88.73Zm-4.55,2.14a4.91,4.91,0,0,0,.49-2.35c-.29.64-1.08,1.44-1,2C62.37,90.08,62.66,90.66,62.63,90.87ZM65.16,85c-.3-.34-.75,1.19-1.11,1.72a3.74,3.74,0,0,1-.37,1c-.18-.27-.39-.09-.63.53.2.32.5-.53.7-.2a2.36,2.36,0,0,0-.42,1.52A30.33,30.33,0,0,1,65.16,85Zm6.23-12c-.11.16-.21.22-.3.12a3.72,3.72,0,0,1-.58,1.14C70.68,74.62,71.51,72.89,71.39,73Zm2-4.42c-.29.5-.41.86-.27,1a3.56,3.56,0,0,0,.55-.86ZM74.31,67c-.4.13-.78,0-1.26,1,.22.43.33-.17.61-.24,0,0,0,.41.18.1Zm7.2-15.53A2.75,2.75,0,0,0,81,53c.31-.68.56-.58.88-1.26Zm39.87,12.93c-.15.17-.52-.39-.95-1,.22.45-.13.4.25,1C120.87,64.54,121.87,65.36,121.38,64.44ZM124,69.38c-.06-.18-.05-.3.08-.31-.31-.8-.56-.66-.85-1C123.52,68.43,123.81,69.45,124,69.38Zm57.43,111.91c-.32-.47.09-.88-.47-1.2C181,180.33,181,181,181.47,181.29Zm.47,2.67c-.17-.32-.07-.38.23-.26-.22-.57-.55-.69-.75-1.3-.24-.05-.14.79,0,1s.32,0,.35.23C181.57,183.57,181.56,184,181.94,184Zm2.4,3.45c.46.3.12-.73-.25-1A5.08,5.08,0,0,0,184.34,187.41Zm-69.1,2.47c-1-.09-1,.5,0,.42Zm6.9-.16c0-.33-.76-.33-1.52-.33C120.46,189.77,121.37,189.72,122.14,189.72Zm2.71,8.08c-.33-.18.12-.67-.73-.64-.22.12-.35.28-.28.53C124.32,197.67,124.39,197.81,124.85,197.8Zm6.63.27c.08-.21-.34-.22-.5-.33.18-.25.54-.54-.49-.53,0,.14.11.23.24.32-.55,0-.81.08-.77.31A3.18,3.18,0,0,1,131.48,198.07Zm1.19-9.87c-.71.09-2.39-.23-2.31.2s.4-.24,1-.1c0,.13.07.25.5.22C131.51,188.14,132.76,188.46,132.67,188.2Zm1.14,9c-.63,0-1.62.22-1.3.52,1,0,1.5-.65,2.57-.29C135.32,197.15,134.26,197.22,133.81,197.23Zm3.08-.5c-.39.22-1.28.23-1.3.62C136.76,197.48,138,196.91,136.89,196.73Zm15.68-8.38c.6,0,.46.38,1.26.33C154,188.4,152.8,188.13,152.57,188.35Zm19,3,0,.43h.76C172.41,191.51,172.25,191.33,171.58,191.36Zm9.14-14.74c.31.68,1.18,2.18,1.1,1.77C181.51,178,180.64,176.12,180.72,176.62Zm-.78-3.28c.22.59-.14.66.38,1.51C180.53,174.72,180.36,173.6,179.94,173.34Zm-2.37-1.45c.43-.11-.59-1.36-.79-1.6A4.07,4.07,0,0,0,177.57,171.89Zm-3.19-8.9c.37.58,0,.53.05.82a5.64,5.64,0,0,0,1.2,2c-.11.12.14.55.14.77a17.44,17.44,0,0,1,2.24,4.31c.07-.3.7,1.28.42.37-.2-.44-.36-.46-.55-.88.19-.18-.1-1-.29-1.54s-.38-.54-.66-1.1-.45-1.39-.7-1.92c-.14-.3-.28-.26-.43-.64C175.54,164.52,174.8,162.81,174.38,163Zm-14-27.52c.23.56.26,1.19.5,1.73s.51.63.76,1.06c.12.22,0,.21,0,.27.08.21.2.17.21.19.61,1.15,1,1.76,1.4,1.88-.32-.89-1.22-2.09-1.88-3.34C161.05,136.61,160.93,135.52,160.39,135.47Zm-19.59-30c.23.55.27,1,.67,1.38C141.93,106.86,141,105.2,140.8,105.43Zm2.7,3.82c-.23-1-.89-.71-.71-.24C143,108.7,143.29,109.74,143.5,109.25Zm-.08-1.36c.24.55-.13.57.27,1.27C144.54,110.25,144.1,108.09,143.42,107.89Zm16.36,27.29c.32-.06.05-.65.36-.71.11.16.22.45.32.41C159.82,133.66,159.1,133.76,159.78,135.18Zm-1.84-15.08a4.21,4.21,0,0,0,1,1.79C158.45,121,158.47,120.39,157.94,120.1ZM154.71,114c.63.77.29.89.59,1.69.25-.08.51.29.49-.22C155.44,115.17,155,113.78,154.71,114ZM148,101.09c0,.35.4,1.19.66,1.11C148.66,101.84,148.27,101,148,101.09Zm-4.58,3.45c.21.89.55,1,1,1.78-.5,0,.33.91.35,1,.21.49,0,.72.27,1.28.35-.36.8,1.16,1.16,1.15.18.42.66,1.11.26,1-.41-.7-.24-1-.66-1.11a3.42,3.42,0,0,0,.46,1.19c.25.4,1.63,1.6,1.21,2-.07-.12-.21-.22-.1,0,.42.16.23,1.53.88,1.56.07-.2-.41-.89-.25-1,.57,1.09.69,2,1.33,2.48.09.18-.09.5-.06.59s.76,1.44.78,1.6-.21,0-.19.08c.19.46.64.85.77,1.33-.1.09-.3.09-.18.36.45.41.3-.16.37-.44.57.91.51.07,1.16,1.16.22.45-.12.4.26,1,.24.08.47.54.64.83a33,33,0,0,1,2.25,4.57,1.38,1.38,0,0,1,.74.79c1.3,2.41,1.92,3.53,3.23,6.09.77-.14-.65-1.78-1-2.6-.69-1.41-1.16-2.76-1.72-4-.16.09-.34-.07-.52-.33a29.35,29.35,0,0,0-2.55-4.72c.14-.24.63.51.18-.36-.31-.18-.64-.78-1-1-.75-1.71-1.78-3.22-1.93-4.16a6.65,6.65,0,0,1-1.23-2.52c-.34.49-.79-1.06-1.18-1.43.23,0,.5.54.73.52a9.88,9.88,0,0,1-1-2.06c-.57-.2.45,1,.15,1s-.51-1.11-1.1-2c-.14,0-.27,0-.42-.38.53.31,0-.11-.24-.72-.43-1-.77-1.74-1.21-2a.41.41,0,0,1,.5.06c-.31-.9-.57-.65-.85-1-.65-1.5-1.35-2.86-1.28-3.33.13,0,.42.31.29-.13s-.54-.19-.82-.47c-.31-.62-.12-1.26-.68-1.37.35,1,1,1.72.82,2.14-.28-.33-.64-1-1-1.51-.59-.92-.12-.36-.47-1.19C140.41,99.49,143.22,104.74,143.43,104.54ZM137.67,94c.41,0,0-1-.37-1.24C136.88,92.75,137.34,93.72,137.67,94Zm-5.41-6a8.28,8.28,0,0,1,.8,1.87c.09-.23.19-1.11-.18-1.31.07.14.12.27,0,.27A1.93,1.93,0,0,0,132.26,88Zm.18-2a2.05,2.05,0,0,0,.77,1.33A2,2,0,0,0,132.44,86Zm.15-.9c-.41.14,0,.7.37,1.23C133.4,86.42,132.76,85.55,132.59,85.1Zm5.19-3.16c.07.78.72,1,1.08,1.48C138.48,82.59,138.12,82.07,137.78,81.94Zm.36-.71c.35,0,.07-.63-.27-1.28C137.51,80,137.8,80.58,138.14,81.23Zm-2.16-3c.27.58.53,1.12.76,1.06C136.72,78.93,136.24,78,136,78.28Zm-6-.39c.29.93.49.32.76,1.06.14.49.68,2.49,1.23,2.51-.32-.86-1-1.67-.91-2.1,0,.08.43.69.21.19C130.87,79.26,130.37,77.45,130,77.89Zm4.53-2.58c.4.61.16.65.47,1.18a.37.37,0,0,0,.27-.4A1.29,1.29,0,0,0,134.52,75.31Zm-8.3-4.39c.8,1,.65,2,1.22,2.25-.25-.74.12-.93-.3-1.82-.28-.2-.38-.16-.39.17C126.56,71.13,126.39,71,126.22,70.92Zm-.45-2.59c.27.62.51.69.73.52C126.19,68.23,125.74,67.84,125.77,68.33ZM119.69,55.7c.07.19,0,.3-.08.32.21.69.93,1.5.78,1.6s-.52-1-.74-.79c.22.91.45.82.89,1.56.13-.47.41-.09.47-.49A21.18,21.18,0,0,1,119.69,55.7Zm-7.52-13.38c.23.42.14.55.35,1,.18-.31.41.21.6,0A2,2,0,0,0,112.17,42.32Zm-1.57-3.21c.18.55.1,1,.48,1.46.14,0,.16-.2.18-.36.68.65.46,1.5.9,1.83.16-.36-.57-1.53-.73-2.19-.16,0-.31.24-.5-.05.17-.12-.32-.8-.25-1C109.68,37.45,110.33,38.3,110.6,39.11ZM94.89,9.69a14.8,14.8,0,0,0,1.5-3.18c-.24.4-.14,0,0-.41C95.74,7.7,95,8,94.89,9.69Zm-.31,1.1c0,.17.36-.42.37-.74-.41.59-.5.07-1.07,1.17C93.83,12.09,94.44,10.6,94.58,10.79Zm-2.71,4.88a5.52,5.52,0,0,0,1-2.56C92.48,14.39,92,14.67,91.87,15.67Zm-1,10.17a11.49,11.49,0,0,0,.8-2.29A3.59,3.59,0,0,0,90.9,25.84Zm-3.52-1.08c.76-1.37,1-1.58,1-2.42A4.43,4.43,0,0,0,87.38,24.76ZM81.64,42.84a5.15,5.15,0,0,0,.6-1.41c-.19-.07-.39,0-.6.24C82.19,41.6,81.6,42.48,81.64,42.84Zm-.88,1.26c.12-.11.72-.48.55-.86-.71.35.24-.6.28-1C81,42,80.67,43.74,80.76,44.1Zm-6.35,8.72c.28-.24,1-1.49.71-1.64C75,51.89,74.4,52.25,74.41,52.82ZM70.1,61.5c-.07-.16,0-.4.16-.78-.24-.27-.52.07-.81.42.18.06.1.34-.16.78C69.52,62.19,69.81,61.85,70.1,61.5Zm-1.51,1.79a2.19,2.19,0,0,0,.91-.38C69.21,62.84,69,62.21,68.59,63.29Zm1.86,1c.29-.94,1.3-2.48,1-2.93-.34.31-.08.29-.26.73C70.92,62.85,70,64.17,70.45,64.32Zm-4.68,7.31c-.12.48-.4,1.11-.21,1.34.25-.68.43-.52.67-1.08Zm0-1.45A3.78,3.78,0,0,0,66.28,69c-.12-.3-.75-.1-.61.24C66.05,68.77,65.82,69.89,65.79,70.18Zm-2.13,3.48c.21-.61,1.18-1.85.74-1.92C64.18,72.36,63.22,73.6,63.66,73.66Zm.09,0c.44.13,1.06-1.85,1.58-2.62-.17-.12.32-.79.07-.83A23.18,23.18,0,0,1,63.75,73.71ZM150.16,118c.33,0,.69.45,1.06,1.19-.17,0-.34-.2-.53-.59-.1,0-.05.13,0,.27C150.54,118.86,150.34,118.33,150.16,118ZM15.62,185.63c-.42.06.15-.63.41-1C16.32,184.66,15.84,185.25,15.62,185.63ZM108.3,35.39a9.5,9.5,0,0,1-1.67-3.16c.39-.22.17.36.34.69A10.11,10.11,0,0,1,108.3,35.39Zm-14-8.66A23.89,23.89,0,0,1,93,29.37,10.22,10.22,0,0,1,94.26,26.73ZM19.66,164.65c-.34-.62.8-2.16,1.32-3.06.35-.61.68-1.78,1.11-1.71A32.66,32.66,0,0,0,19.66,164.65ZM13.05,191.5c-.46,0-.75.13-1.23.1a2.08,2.08,0,0,1,.73-.85C13.12,190.89,13.5,191.08,13.05,191.5Zm4-22.47a19.39,19.39,0,0,1,1.42-3A13.5,13.5,0,0,1,17.06,169Zm10.68-20-2,3.87c.66-2.38,2.12-4,3.5-7.1C29.66,145.42,28.22,148.07,27.74,149Zm-13.7,43-2.83,0C11.88,192,14.44,191.58,14,192.05Zm8.1-.27a2.88,2.88,0,0,1-1.72.1A2.9,2.9,0,0,1,22.14,191.78Zm-4.6.18a6.47,6.47,0,0,1-2.7-.12,8.79,8.79,0,0,1,2.42-.2C17.08,191.82,17.22,191.92,17.54,192Zm2-15.14c.59-.89.26-1,.63-1.7.84-.23.69-1.5,1.13-2,0,.16,0,.32.17.38-.3.44-.65,1.56-.91,1.54C20.38,175.6,20,177.12,19.53,176.82Zm147.84-18.23a47,47,0,0,1-2.36-4.81,41.32,41.32,0,0,1,2.33,4.26C167.56,158.41,167.47,158.51,167.37,158.59ZM128.82,58.88l.79,1.6C129.42,60.5,128.38,59,128.82,58.88Zm55.75,138.7a7.16,7.16,0,0,1-2.5.31c-.7,0-2.55-.1-2.37-.33C181.68,197.71,182.15,197.54,184.57,197.58ZM134.42,70.05a14.9,14.9,0,0,0,1.14,2.56c.44.93,1.23,2.1.93,2.38C135.9,73.42,134,70.73,134.42,70.05Zm28,57.26c0-.93,1,1.67,1.3,1.93-.09.09.13.45.24.73C163.4,129.83,162.75,127.56,162.42,127.31Zm-22-42.64c.28.59.56,1.19.27,1.28C140.35,85.3,140.07,84.7,140.42,84.67Zm-7.66-15.83c.22-.23.54,1.28.76,1-.15.3,1,1.74.5,1.74C133.54,70.65,133.39,70,132.76,68.84Zm-3.59-7.33a11.52,11.52,0,0,1,.72,2.19S128.6,61.45,129.17,61.51Zm3.54,8.19c.37.75.84,1.6.5,1.73C133.18,71,132.33,69.79,132.71,69.7Zm1.17,3.1c.42,0-.33-1,.15-.9.38.76.07.92.5,1.73C134.33,73.65,134.11,73.34,133.88,72.8Zm39.28,96.87c-.53-.26-1-1.66-1.42-2.43-1.08-2.13-1.9-3.83-2.81-5.72-.46-1-1.44-2-1.14-2.56a58.48,58.48,0,0,0,2.9,5.67C171.42,166.12,172.18,167.86,173.16,169.67ZM163.1,149.89A13.21,13.21,0,0,1,162,147.6,4.94,4.94,0,0,1,163.1,149.89Zm-6.42-13.32a6.92,6.92,0,0,1-1-1.51C156,134.71,156.35,136.08,156.68,136.57Zm5.17,10.53c-.35.23-1.41-2.41-1.56-2.93A19.72,19.72,0,0,1,161.85,147.1ZM180.52,184a3.22,3.22,0,0,1-.82-1.45C180.09,182.77,180.23,183.54,180.52,184Zm-7,4c.16-.35.6-.08,1-.09,1.45-.06,3.37-.15,4.73-.16.36.59-.92.19-1.33.2C176.76,188,175.52,188,173.55,188Zm1.08-15.33c-.47-.14-1.6-2.65-1.24-2.52C173.6,170.85,174.13,171.47,174.63,172.65Zm5.06,9.61c-.34,0-.6-.66-.54-.85C179.42,181.41,179.5,182,179.69,182.26ZM118.3,38.18a16.31,16.31,0,0,1,1.45,2.7A16.24,16.24,0,0,1,118.3,38.18ZM46,109.3c0-.39.38-1.09.42-1.51a.71.71,0,0,0-.42.35c-.15-.55.39-.22.56-.86A3.87,3.87,0,0,1,46,109.3Zm-3,5.35c-.38-.45.4-1.18.83-1.87C44,113.07,43.22,114.08,43,114.65Zm2.71-8.11c.34-.68.69-1.39,1-1.21C46.38,105.38,46,107,45.71,106.54Zm-2.39,5.38c-.07-.5.69-1.37.91-1.54.27-.57.18-.8.58-1.14A8,8,0,0,1,43.32,111.92Zm3-4.74c-.1-.31.36-.75.49-1.19,0-.16-.09-.28-.07-.33.14-.38.32-.34.44-.63a3,3,0,0,1,.42-1.52c.39-.07-.1.6-.28,1,.35,0,.11.75.58,0,.18.46-.33.43-.44.64s.12.15.07.33c-.11.38-.69.8-.9,1.53C46.55,107,46.44,107,46.33,107.18Zm6.4-12.77c.6-1.12.38-1.53,1.2-2.83.14.21.34-.23.53-.58a4,4,0,0,1-1.29,2.78c.24.1.5-.27.46.25.44-1,1.77-3.64,2.43-3.6-.49.94-.94,1.2-1.43,2.12-.17.26-.13.93.16.38-.44,1.61-2.14,3.92-2.57,5.27-.15-.58.53-1.73.67-2.25-.12-.28-.81.63-.65.81-.66.72.25-1,.51-1.47.38-.33.22.25.35.49a20.16,20.16,0,0,1,1.13-2c-.26-.39-.58.61-.74.75s0-.42-.07-.33-.41.86-.62.53C52.91,94.51,52.77,94.5,52.73,94.41Zm-7.79,12c.42-.94.51-1.88.81-2.75.22-.64.32-.23.46-.91a36.54,36.54,0,0,1,2.43-5.94c.24-.15.51-.69.74-.75.47.16-.41,1.44.31,1-.27.88-.57,1-.83,1.87.4.21.94-1.23,1.43-2.12.18.07.06.39.26.44-.94,1-1.41,2.63-2.3,4.26-.25,0,0-.42.17-.78a1.76,1.76,0,0,0,0-1.17c-.69.67-.29.76-.39,1.24-.94,1.79-2,3.21-2.43,4.77A1.88,1.88,0,0,0,44.94,106.4ZM47,102c.16,0,.36-.44.53-.58-.3-.36-.71.71-1.09,1.43C45.64,104.4,46.68,102.66,47,102Zm4.54-5.64c.07.11-.17.48,0,.55s.53-.94.79-1.31c-.09,0-.21.24-.32.41-.36,0-.1-.86-.61.24,0-.63.19-.75.6-1.41.11-.17-.12.55-.13.51,0,.13.62-1.32.81-1.6.25,0,0,.43-.17.79A7.19,7.19,0,0,1,51.36,98c0-.16,0-.32-.16-.38-.12.53.24.66-.32,1.57-.22-.2-.45-.14-.72.47-.44-.53.38-1.6.69-2.53.26.12,0,.48.37.21C51.36,97,51,97,51.5,96.35ZM43.3,115.7c-.1-.13.32-.7.16-.79.31-.59.68-1.32.93-1.82.43-.78.88-1.76,1.21-1.66-.25.57-.43.4-.68,1.09l.28.15c.64-.48.71-1.3,1.37-2.45.48-.06-.21.79-.39,1.24s-.24.88-.4,1.24c-.51,1.18-1.23,2.37-1.52,3.23-.51.44,0-.43-.35-.48.48,0,1.3-1.75,1.57-2.63-.36.05-.74.4-1.16,1.11.17.27.38.09.63-.53C44.77,114.41,43.8,114.84,43.3,115.7Zm11-24.8c0-1.13.77-1.06,1.36-2.45-.62.93-.55.27-.14-.66.38.37.59-.81,1.16-1.11,0,.2-.19,1.12.28.16.26.41-.5,1.19-.83,1.87-.14-.28.54-1.23,0-1.17-.11.22,0,.24.07.33l-.81,1.59c-.17.38.63-.12,0,.89C54.88,90.64,55.17,89.07,54.28,90.9ZM39,122.05c-.44.78-.54.41-.79,1.31C37.78,123.29,38.83,121.79,39,122.05ZM89.32,190.9a19.21,19.21,0,0,1,3.32-.08A19.24,19.24,0,0,1,89.32,190.9ZM39.06,122.38c.11-.52.35-1.17.12-1.4.42-.78.85-1.76,1.2-1.66a6.1,6.1,0,0,0-1,2.05c.09,0,.21-.24.32-.41A2,2,0,0,1,39.06,122.38Zm54.11,73.86c-.07.19-.45.24-1,.2,0,.29.41.22,0,.43a24.8,24.8,0,0,1-3.07.19c-1.64.09-3.34.25-5.12.28a3.89,3.89,0,0,1-.76-.11c-2.56,0-5.13.3-7.67.36-.45,0-1-.13-1.53-.11-.28,0-.72.2-1,.2s-.88-.12-1.28-.12c-1.76,0-4,.17-5.87.07.23-.3-.35-.28-.23-.54-1,.13.06.22,0,.53-1.88.09-2.78,0-3.59.3-.58.24-.71-.11-1-.12-.56,0-1.08.33-1.79,0,.27.68-.75.18-1.29.41a2.42,2.42,0,0,1,1,.54c.43-.17-.09-.4.54-.63.81-.05.89.2,1.78.12l0,.42c.86,0,.17-.56,1.31-.62,0,.19-.32.22-.28.42,1,.09,1.34-.38,2-.09a6.69,6.69,0,0,1,2.82-.41,4.42,4.42,0,0,1-1.54.31,5.44,5.44,0,0,0,1,.33c.56,0-.24-.23-.25-.22.14-.16.45,0,.77-.1s.42-.54,1.28-.2c.25.29-.56.12-.77.21s0,.39-.53.42c1,.42,1.52.14,2.54.23,0-.5-1-.09-1.26-.33-.3-.45.86-.28,1-.52.86.1.12.2.24.53a2.71,2.71,0,0,0,1.76.44c0,.37-1,.67-1.28.31-.7.09.67.2.23.53s-1.19,0-1.79,0c-.24,0-.56.11-1,.09-1.18,0-2.53-.23-3.82-.24-.52,0-.69.11-1,.1-1.82,0-4.08-.2-5.86-.15-.77,0-1.32-.08-2-.12-4.3-.21-8.81-.29-13-.63a10.33,10.33,0,0,1-1-.22,23.62,23.62,0,0,0-2.81,0,8.15,8.15,0,0,0-2,0c-.81.05-.66-.29-1.26-.32-1.27.2-2.69-.16-4.09.07-.46,0,0-.41.52-.31-.92-.38-2.29.13-2.05.3-.93-.11-2.13-.12-2.27-.55a2.93,2.93,0,0,1-1.05.16l-.81,0-1.06-.06A13,13,0,0,0,20,198c-.89.1-1-.2-1.26-.21s-.81.12-1.4.1c-1.94-.09-5.12-.35-7.75-.36a9.43,9.43,0,0,0-2.46.21c-.5,0-.13-.2,0-.32a54.4,54.4,0,0,1-6.09,0,1.71,1.71,0,0,0-.79.21l-.24,0a25,25,0,0,1,1.75-3.06c.52-.91,0-.41.28-1,.64-1,1.64-2.78,2.49-4.45.52-1,1.38-2.9,1.65-3.5.37-.81.59-1.58,1-2.35,1.38-2.91,3-5.88,4.21-8.33.72-1.33,1.05-2.91,1.86-3.63.17-.4.09-.61.28-1s.31-.34.44-.63c.24-.53.46-1.35.74-1.92.64-1.29,1.43-2.42,2.06-3.81.16-.35.12-.45.25-.73s.49-.7.68-1.08.16-.74.27-1c.06-.12.31-.37.44-.63s.15-.53.37-1c.91-1.76,2-3.61,2.67-5.22.16-.39.3-.33.44-.63a10.82,10.82,0,0,1,1.53-3.23c.17-1,1.11-2.22,1.87-3.91.17.12-.32.78-.07.83a1.34,1.34,0,0,0,.19-1.06A12.51,12.51,0,0,0,26.6,144c.29-.51-.14-.4.07-.84,1.09-2.34,2.35-4.34,3.24-6.36.24-.54.28-1,.51-1.46.67-1.46,1.56-2.84,2.29-4.27.22-.43.38-1,.6-1.41s.5-.59.77-1,.26-.75.49-1.18c.86-1.68,2-3.59,3-5.35.35,0-.41.9-.72,1.64-.18.45-.31,1.71-.81,1.59-.46.78,0,.74-.41,1.52-.16-.1-.33,0-.51.3.26,0,0,1-.61,1.41.23.44.59-.77.82-.42-.73,1.57-1.08,2.19-1.65,3.46.26.4.66-.91.91-.37-1,1.47-1,2.85-2.06,3.8-.19.51-.11.57.16.39-.14.58-.68.72-.47.9-.29.53-.11-.39-.25-.43a18.63,18.63,0,0,1-2,4.42c.1,0,.22-.24.33-.4A28.41,28.41,0,0,1,28.15,144c-.46.77.05.74-.41,1.52a3.91,3.91,0,0,0-.88,1.25c-.23.37-.15.47-.05.56-.3.48-.84,1.11-.6,1.42.3-.06.69-1.26,1-1.77.21.2.44.14.72-.47.07-.2,0-.28.14-.51-.17.09-.37.47-.51.3,3.08-5.52,4-8.13,6.92-13.35.26-.21.19,0,.28.15.73-1.45,1.27-2.72,2-3.86.1-.26-.11-.26,0-.56.37-.59.74-1.21,1-.87.2-.66.28-.75-.14-.66.18-.2.33-.12.53-.58.29.27-.14,1.15-.14,1.67a7.12,7.12,0,0,0-1.13,2c-.51.17.34-.8.07-.83-.46.33-.94,1.78-.3,1.29-.55.84-.47,1.43-.93,1.81-.25,0,0-.42.16-.78-.41.19-.79,1.43-.51,1.47a26.13,26.13,0,0,0-2,3.86c-.38.61-.72.84-1.09,1.43-.11.26.1.26,0,.56-1.14,2.09-2.35,4.91-3.45,6.54-.43.06.21-.79.39-1.24a3.07,3.07,0,0,0-.76,2.2,76.14,76.14,0,0,0-4,7.67c-.26.07-.41.64-.4.07-.47.66-.13.63-.27,1A56,56,0,0,0,21,160.7c-.39.87-.88,2-1.29,2.78s-.71,1.13-1,1.77c-.18.36-.3.82-.49,1.18s-.44.43-.65.81-1,2.22-1.2,2.83c-.09.25.09.26-.05.55a5.52,5.52,0,0,0-.9,1.54c-.36.77-.71.86-.6,1.42-.35.73-.64.62-1,1.48.13,0,.29-.37.44-.63.25.45-.34.91-.6,1.42l-3,6.12c-1,2.1-2.16,4.3-3.57,6.92-.82,1.53-2.18,4.25-3.25,6.42h.39c.68,0,.6.13,1.34.12,1.58,0,3.78-.3,4,.13a18.79,18.79,0,0,1,4.78-.19,4.47,4.47,0,0,1-1.23.1c-.31.18,2,.2,1.61-.1a8.63,8.63,0,0,0,2.89.23c.05-.11-.42-.09-.7-.11,1.68-.24,4.7,0,6.91-.08.34.07.7.14,1.09.2l.59.09.44.07a12.36,12.36,0,0,0,2.23.1c-.15-.22-1.29,0-1-.43,1.46.11,1.7-.28,3.32-.19.95,0,2,.23,3.06.23-.05.13-.47.09-.77.1.54.29,1.7,0,1-.31.58,0,1,0,1,.22,1.52-.3,4,0,5.88-.17-.88.32,1.08.44,1.52.23-.14-.39-1.3.27-1-.22,2.45,0,5.43.09,7.14.05-.08.17.23.19.24.32l.78-.31c1.1,0,2.25.06,3.32,0,1.85-.06,3.84.13,5.86.15.48,0,1.06-.09,1.54-.09,2.14,0,5.94.14,8.67.06.83,0,1.53-.16,2.31-.19,1.65-.06,3.22.06,4.84,0,2,0,4-.16,5.88-.17.46,0,.53.12,1,.11s.7-.1,1-.1a3.76,3.76,0,0,0,2-.09c3.11.07,3.52,0,6.63,0,0,.19-.32.22-.27.43l-2.05,0c-.55,0-.13.38-.27.53.56.06.37-.2.77-.21.64,0,.23.17.5.22a1.59,1.59,0,0,0,.77-.1C92.54,196,92.63,196.44,93.17,196.24Zm-63.74-52.4c.21-.47.88-.69.79-1.31C30,143,29.34,143.22,29.43,143.84Zm3.47-10.31c.32-.37.67-1,1-1.49-.27-.32-1.17.9-1.16,1.1C33.13,132.52,32.71,133.57,32.9,133.53Zm-2.18,1.7c.26.14,1.14-1.32,1.11-1.71A6,6,0,0,0,30.72,135.23Zm-3.66,7.88c.33-.48,1.21-1.77,1-2.1C27.77,141.88,27.17,142.3,27.06,143.11Zm-.85,6.81c.36-.2.94-2.08.63-1.69C26.94,148.53,26.06,149.66,26.21,149.92Zm-9.45,14.57a3.22,3.22,0,0,0,.71-1.64C17.17,163.32,16.5,164.19,16.76,164.49Zm-3.29,6.92c.25.06.21-.67.16-.78l-1,2C12.81,173.07,13.17,171.85,13.47,171.41Zm8,25.15a4.7,4.7,0,0,0-2.22.31C20.33,196.86,21.43,196.86,21.47,196.56Zm2.25-.94a27.08,27.08,0,0,1-2.83-.13,4.33,4.33,0,0,0-2.25.21c1.43.13.58.05,1.22-.1a5.77,5.77,0,0,1,2.28.15C22.91,195.88,23.58,196,23.72,195.62Zm6.19-.17c-.48-.2-1.57,0-1.54.3A2.41,2.41,0,0,0,29.91,195.45Zm.51.21c.74,0,.77.25,1.52.23C32.28,195.53,30.66,195.44,30.42,195.66Zm10.86,2.53h-1C39.83,198.67,41.56,198.56,41.28,198.19Zm3.83-.08c-1.36.13-.77-.53-2-.44,0,.34.86.35,1.25.54.3.34-.83.07-.53.42A1.62,1.62,0,0,0,45.11,198.11Zm8.12,1.12h1C54.47,198.83,53,198.82,53.23,199.23Zm1.57-1a2.89,2.89,0,0,0-1.54.2.76.76,0,0,1,.51.22C54.42,198.59,54.76,198.45,54.8,198.18Zm13.23.95a4.53,4.53,0,0,0,1.51.65c.42-.38-.72-.34-1-.44-.08,0,.08-.17,0-.21S68,199,68,199c-.33-.08-.68,0-1-.11C66.75,199.23,67.58,199.1,68,199.13Zm-1.8.3H65C64.55,199.75,66.61,199.76,66.23,199.43ZM64,198.67c.2.54,1.32.08,1.77.44-.07-.24.74-.11.78-.31C65.55,198.65,65.1,198.84,64,198.67Zm-2.08.94c.63.14.73-.16,1.28-.2.27,0,1.36.37,1.28-.1C64,199.15,61.85,199.2,61.89,199.61Zm-4.07-.24c.62-.06,1.31-.08,1.29-.41C58.49,199,57.79,199,57.82,199.37ZM84,196.28c-.1-.21-.07-.46-.75-.43-.46.22-.59.31-.28.63C83.64,196.56,83.47,196.27,84,196.28Zm3.6-.61a.73.73,0,0,1-.5-.22c.27,0,.65,0,.26-.1-.56.23-.87-.1-1.79,0-.11.46.92.3,1.52.23C87,195.73,87.4,195.85,87.58,195.67Zm-46-76.29a12.07,12.07,0,0,0,.79-2.48,10.59,10.59,0,0,1,1.37-1.28,8.1,8.1,0,0,1-.72,2.81,3.5,3.5,0,0,1,.44-1.8c-.21-.2-.47.15-.74.76.38.41-.43,3.39-1.34,3.33.29-.56.53-.6.57-1.13-.91.71-1.19,2.82-1.92,3.3l.37.21c.51-.82.44-1.15.84-1.87.77-.17-.62,2.4-1,2.37a5.58,5.58,0,0,1-.92,1.82c-.06-.3.27-.92.09-1.11.23-.43.39,0,.63-.53.14-.34-.24-.23-.05-.61-.16,0-.37.53-.56.86-.26-.48.19-1.51.58-2.3S41.13,120.23,41.54,119.38Zm-1.32-.44.35-.68c-.07.67.34-.25.58,0C40.8,119,40.51,118.94,40.22,118.94Zm-1.41,4.17a11.78,11.78,0,0,1-.79,1.31C37.88,124.34,38.68,122.62,38.81,123.11Z"/><path class="cls-2" d="M29.83,155.57l1.08-2.12c-3.47,6.86-7.11,14.08-10.7,21.19,8.12-15.31,17.61-33.45,22.82-45.83a89.64,89.64,0,0,0,4.8-8.46c2.07-3.92,4-7.75,4-7.93l4.55-9.57-3.18,6.61,3.18-6.61c9.79-20.38,20.92-42.27,32.45-64.91l10.4-20.51L116,51.37c.93,1.88,1.84,3.75,2.78,5.65l-3.06-6.31c4,7.83,7.71,14.92,11.26,21.78-.55-1.25-.6-1.49-2-4.42l1.72,3.55c1.79,3.12,5.49,10.54,7.3,14-.46-.7.89,2.05,2.09,4.48l-.42-1,14.07,28.05c.57,1.15,1,2,1.19,2.55l4,7.84c-.42-.54,3.16,6.59,1.21,2.87,3.09,5.82,6,11.84,9,17.38L176,169.32l10.61,20.92-19.65.17.56.05c-8.12.09-15.28.36-25.16.27-7,.18-17.08.28-19.89.56-8.14,0-11.39.18-19.37.26,2.06.14-7.75.17-3.82.28,5.29.2,5.58,0,10.08.19l-.14-.05c21,.21,42,.33,63.23.4l17.51-.06L176,164.43l-21.11-41.62c-1.49-2.89-2.44-5-3.62-7.55l-19.14-38c.12.23.23.46.31.62L123.37,59.5s-.53-1-.8-1.45c-.4-1.22-19.66-38.42-20.72-40.78l-1.48-2.92-1.1-2.22L93.35,23.71c-1.72,3.32-3.42,6.63-5.1,9.87-3.35,6.49-6.57,12.75-9.42,18.49-1.21,2.62-2.57,5.55-3.59,7.77-1.13,2.06-1.19,2.54-2.48,5.06-3.55,6.26-5.29,10.09-3.51,6.83L61.63,87c-1.07,2.19-2.12,4.37-3.2,6.58a39.61,39.61,0,0,1-2,3.8c-2.34,4.8-1.72,3.35-4.26,8.34-.72,1.15-6.1,12.65-6.84,14l.39-.82c-2.92,5.77-5.07,9.51-7.91,15.16L14,181.57c.05.2,1.58-3.23,1.82-3.32q-3.53,7-7.09,14l17.38.12c1.75,0,3.89.11,4.69.15,3.1.05,1.83-.07,4.09,0l.31.13c3.31-.11,4.84.13,8,.08.16,0,1.3,0,2.41,0,0,.13,3.41,0,3.25.11h0c.67,0,1.15,0,2,0l14.45-.47.6,0c1.78,0,2.54-.11,1.5-.13h4.13c.4,0,.86.08.24.13,1.23,0,2.62-.07,3.86,0-3.44-.08-7.71-.2-11.31-.33,1.48,0,4.15,0,5.75,0,1.91.09,5.85.16,8.91.22a22.47,22.47,0,0,1,2.66-.09c.75.1,1.72,0,3,.07-1.45.05-2.88,0-4.36,0,.26.12,3.6.09,4.77.12.54,0,3.39,0,5.19,0-.78.11,1.44.07,2.51.13s2,0,1.49-.07c.39-.13-4.81-.08-3.13-.21.44.06,2.81,0,4.08,0,0-.07-.87,0,0-.12,1.42,0,2.92-.07,3.73,0-.26,0-.85,0-1.26,0,1.84,0-10,.44-7.61.41-.62-.07,10.5-.41,9.28-.41s.8-.13-.36-.15l-1.3.08c-1.59,0-2.24-.14-1.68-.19,2.67,0-7.57.47-5.29.4l-.93,0c1,0,3.55-.08,4.55,0a18.67,18.67,0,0,1,2.38-.11H97c1.11,0,2.67,0,2-.11-6.54,0,4.3-.68-2-.72,2.66.15-.89.15-3.68.17-.27,0-1.51-.13-3.51-.17-1.74,0-1,.06-1.36.1a20.16,20.16,0,0,1-2.56-.14c-1.35.09-2.16-.06-3.78,0-1.43,0,.09,0-.92.08l-6.86,0c-.67-.07-2.68-.2-1.21-.32,3.25,0-1.24.19,2.14.17-1.45-.17,3-.05,3.62-.18-1.08-.07-3.27-.07-5.1,0l.37,0c-1.61,0-4.84.06-6.58,0,.41-.06-.35-.11.83-.12H66.12c-.28,0-.57,0,.07.05-1,0-2.09,0-2.9,0-.24-.06-11.8.27-11.44.23-1.6,0-2-.09-3.55,0h2.29l5-.08c3.57-.05,6.91-.11,5.85-.1-1.36-.07-18.12.31-19.11.19a13,13,0,0,0-2.34.08c-2,0,.6-.12-.82-.18,0,0,.11,0-.34,0l-1.37-.08c-3.11.1-7.67,0-10.92.1.94-.07,2-.19,4.11-.25l.37,0c.29,0,2,0,2-.1-2,0-3.69,0-5.79,0l-1.14-.05s0,0,0,0c-.68,0-.61,0-.36-.07h.15c-1.25-.19-7.82.12-11.45,0a3.84,3.84,0,0,0-.62,0l-.66,0-1.59-.05c.49-.93.94-1.78,1.41-2.65l1.87-3.62c.48-1.15.5-1.25-.25,0L16,181.62c-1,2.48,2.63-4.8,1.5-2.08.43-.74,1.23-2.31,1.93-3.8a9.26,9.26,0,0,1,1-2.28l2.15-4c.31-.47-.06.32,0,.26,1.56-3.33,1.57-2.8,3.11-5.91.95-2,2.86-5.78,2.8-5.93C29.79,155.23,29.87,155.27,29.83,155.57Z"/></g></g></svg>