<svg xmlns="http://www.w3.org/2000/svg" viewBox="0 0 650 50"><defs><style>.cls-1{fill:#474747;}</style></defs><g id="Layer_2" data-name="Layer 2"><g id="Layer_1-2" data-name="Layer 1"><path d="M2.8,45.1c2,1,5.47,1.1,8.75,1.27A21.7,21.7,0,0,0,2.8,45.1Z"/><path d="M11.62,46.39h-.07Z"/><path d="M647.57,1.42l-2.7.06A18.6,18.6,0,0,0,647.57,1.42Z"/><path d="M170.38,49.28l.5-1.66c7.77,0,2.26,1.9,9.45,1.49,2.81-2.36,11.94.24,14.43-1-.06.19,3.46.26,3.24,1,1.08-1.28,3.62-.3,5.84-.63.81-.35-.59-.38-1.19-.77l5.09-.45c2,.41,2.47,1.17.31,1.31,13.29.45,77.11,1.68,91.43,1-1.84-1-6.26-.31-7.94-1.83,3.78-.85,5.57.3,7.24-.6,1.45,2.26,8.32.54,11.19,2.83l1.08-1.28,1.88.78c16.65-1.33,3.81-.65,18.57-.34,8.54-.2,12.6-2,17.35-1.32-.71,0-2.59-.8-.38-1.12.38,1.12,5.89-.81,7,.32,2.17-.14,9.19,0,6.81-1.53,1.19.77,7.46,1.08,3.73,1.75a27.68,27.68,0,0,0,5.68-.07L369,46.76c7.13-.22,11,1,15.67-.42L382,45.73c4.26-.1,7.83-.22,9.51,1.3l-4.38.47a119.14,119.14,0,0,0,17.24-1l-2.11,0c7.52-1.52,46.83-2.77,53.75-4.67l-3.19-1.18,6-1c-.71,0-2.88,3.83-3.47,3.44,12.76-.11,79.13-1,90.92-.23,4.75.66.85,1.87.8,2.06,5.78-.44,2.49-1.25,7.41-1.15,1.35.21-.28.93-1,1.09,2.16-.13,4.15.27,4.32-.28-2.7-.42-1.55-1.89-2.7-2.84l6.33.13-.28.92c1.41,0,3.58-2.52,9.8-2,10.48.4,21.87.08,32.42.29-.17.56-2.38.89-4.6,1.21a21.75,21.75,0,0,1,4.87.28c-2.55-1,4.43-.65,2.44-1.06,7.72-2.26,17.71-.2,24.53-1.73.6-2,14.6-34.87,14.6-37.29a31.83,31.83,0,0,1,4.87.29c-.55-.57-4.71-.84-6.92-.51l-.38,1.29c-5.09.45-1.19-.77-6.16-.68-.26-1.06,4.31-1.29,8.33-1.39-3.62-.12-7.23-.89-8.71.27-3.4-.44.38-1.3-3.72-1.75-2.92.31-6.76,1.35-10.12.72l.06-.19c-8.16-1.09-12.48,1.61-19.94.53l.8-.35c-2.63-.62-7.82.21-12.58-.45,1.36.22,2.54,1-.32,1.11-5.47-.67-9.2,0-13.19-.83l-3.84,1C554.28,1.38,479.1,2.85,460,3l.75-.17c-29.13.52-88.94.44-119,1.87-4.66-1-11.08-.78-15.94-1.07,2.7.43,1.78,1.15-.33,1.11-14.81-.12-1,.7-16,1.14-17.24.95-83.21-.13-98.51-1-8.22,1.5-18.48.37-26.53,1.32l.81-.36c-8.65.57-57.61-.82-67.66-.29l1.35.22c-8.76.93-7.57-.71-14.48-1.23.91,1.69-6.6,2.65-9.46,2.78L95.08,7c-4.32.28-14.11,1.75-21.24,2L74.12,8c-6,1-17.14.58-21.41.68-9.78-.38-24.86-2-37.94-.77L6.33,5.3l-1.24.26S-8.51,37.34,8.76,44.11L8.48,45l3.41-.12c4.1.45,6-.62,5.72.3L12,45.1c4.11.27,1.24.76-.33,1.28a34,34,0,0,1,4.75.48c.81-.35-.6-.38-1.24-.58,2.22-.33,5.3-1.19,8-.77,4.21.09.27,1.49,5.18,1.59,25.94.72,51.07,1.78,77.29,1.58.59.38-.12.37-.88.54,7.9-.4,14.92-.26,22.11-.67A6.84,6.84,0,0,1,130,49.91C128.83,49.15,169.73,49.08,170.38,49.28Z"/><path class="cls-1" d="M168.59,47.5a32.39,32.39,0,0,1-7.56-1,2,2,0,0,1-1-1.08,4.71,4.71,0,0,1-.47-1.64c.06-1.66,1.33-2.5,3.78-2.5a2.11,2.11,0,0,1,1.07.22,2,2,0,0,0,.93.28,2.67,2.67,0,0,0,1.72-1.06,7.65,7.65,0,0,0,1.1-1.14,4,4,0,0,0,.62-1.39,20.39,20.39,0,0,0,.5-4.31,14.58,14.58,0,0,0-.34-3.22,7.32,7.32,0,0,1-.13-1.41,10.26,10.26,0,0,1,.08-1.22,10.13,10.13,0,0,0,.08-1.22q0-.46,0-.9a35.79,35.79,0,0,1-.25-4.13,24.31,24.31,0,0,1,.28-3.84,21,21,0,0,0,.22-2.91,16.24,16.24,0,0,0-.1-1.87A4.21,4.21,0,0,0,168,11.22a7.16,7.16,0,0,0-1.19-1.41,1.94,1.94,0,0,0-1.28-.43,2.38,2.38,0,0,0-1.12.31,1.35,1.35,0,0,1-.41.06,3.35,3.35,0,0,1-1.14-.23,20,20,0,0,0-2.45-.64,3.52,3.52,0,0,0-.85-.22,1.48,1.48,0,0,1-.22-.78c0-1.07.87-1.68,2.6-1.85q1.44-.09,18.78-.12a4.66,4.66,0,0,1,2,1,0,0,0,0,1,0,0c.25.15.37.3.37.47a.86.86,0,0,1-.31.56Q181.69,9.25,177,9.44a3.93,3.93,0,0,0-2.88,1.12,4.51,4.51,0,0,0-.93,3.06c.08,1.59.14,3.14.18,4.66q.22,7.29,1.5,20.56a2,2,0,0,0,1.47,1.75,13.36,13.36,0,0,0,3.5.29c2.52,0,4-.05,4.39-.08l1.3-.08q3.38,0,3.59-3.25c.07-.81.1-1.63.1-2.44a22.7,22.7,0,0,1,.72-6.37A3,3,0,0,1,191.28,27a3.67,3.67,0,0,1,1.69-.44,2.44,2.44,0,0,1,.48.05.66.66,0,0,1,.41.37,2.8,2.8,0,0,1,.25.74,4,4,0,0,1,.08.69Q194,36,193.62,43a3,3,0,0,1-1.56,2.23,6,6,0,0,1-3.06,1q-1.06,0-2.16,0a93.36,93.36,0,0,0-13.68.78A31.64,31.64,0,0,1,168.59,47.5Z"/><path class="cls-1" d="M215,47.22c-3.35,0-5.84-.61-7.47-1.81a22.66,22.66,0,0,1-3-2.69q-.72-.75-1.5-1.47a4.54,4.54,0,0,1-1.9-3.28,4.69,4.69,0,0,1,.15-1.13l-.25-.53-.34-1a17.64,17.64,0,0,1-.84-2.87l0-.22c0-.33.29-.78.85-1.34a2.34,2.34,0,0,0,.3-.32c.09-.12.2-.26.32-.4l.1-.13,0-.62a10,10,0,0,1,2.25-6.25q3.09-4.41,6.87-5.44a18.46,18.46,0,0,1,4.75-.63,12.9,12.9,0,0,1,8.78,3.72,13.64,13.64,0,0,1,4.06,6.6,20.37,20.37,0,0,1,.94,4.44A15.46,15.46,0,0,1,222.47,45,12.2,12.2,0,0,1,215,47.22Zm-.5-4.19a7.25,7.25,0,0,0,2.09-.31q4.84-1.22,6.94-7.22a10.79,10.79,0,0,0,.69-3.75,12.85,12.85,0,0,0-2.53-7.31,9.82,9.82,0,0,0-4.44-3.1,4.52,4.52,0,0,0-1.66-.25l-1.59,0a7.47,7.47,0,0,1-.94,0,15.05,15.05,0,0,0-3.18,1,5.14,5.14,0,0,0-1.82,1.47,16.31,16.31,0,0,0-1.34,2.09,18,18,0,0,1-1,1.54,4.23,4.23,0,0,0-.91,1.9,1.56,1.56,0,0,0,.35.91,1.55,1.55,0,0,1,.19.72,3.12,3.12,0,0,1-.1.72,8.6,8.6,0,0,0-.19,1.75,9.66,9.66,0,0,0,.38,2.46q1,3.63,2.59,4.79Q211.72,43,214.53,43Z"/><path class="cls-1" d="M264.75,48.44a7.73,7.73,0,0,1-4.53-1.5,4.37,4.37,0,0,0-2.33-.88l-1.27,0a5.64,5.64,0,0,0-3.18.81.73.73,0,0,1-.35.22c-4.2.34-6.78.5-7.72.5-.6,0-1.2,0-1.81-.09a16.52,16.52,0,0,0-2.09-.13h-.22a3.75,3.75,0,0,1-1-.12,1.73,1.73,0,0,1-.94-1,38.3,38.3,0,0,0-1.9-3.72c-.42-.73-.82-1.46-1.19-2.19a3.37,3.37,0,0,1-.25-1.4,6.25,6.25,0,0,1,.4-2.35,2.1,2.1,0,0,1,1.07-1.25,6.25,6.25,0,0,0,2.18-1.37,5,5,0,0,1,2.82-1.5,7.47,7.47,0,0,0,3.68-.91c.13-.08.48-.27,1.07-.56a3.64,3.64,0,0,1,1.4-.5l1.28,0,2.41.06a26.91,26.91,0,0,0,2.69-.13,3.14,3.14,0,0,0,1.39-.59,2.39,2.39,0,0,0,.92-1.05,2.93,2.93,0,0,0,.22-1.14,3.58,3.58,0,0,0-.53-2q-1.76-2.55-3.22-2.84a12.81,12.81,0,0,0-2-.28,7.69,7.69,0,0,0-4.06,1.34,4.64,4.64,0,0,0-1.06,1.1,5.42,5.42,0,0,1-1,1.09l-.37.28a15.39,15.39,0,0,1-4.19,2.34,3,3,0,0,1-.69.07,7.54,7.54,0,0,1-2.93-.85c-.13-.06-.21-.34-.25-.84a2,2,0,0,0-.25-1.06,1.21,1.21,0,0,1-.25-.66,1,1,0,0,1,.43-.69,1.89,1.89,0,0,0,.32-.31,9.56,9.56,0,0,0,1.47-2.53c.23-.6.57-.91,1-.91a1.71,1.71,0,0,1,.59.13,2.59,2.59,0,0,0,1,.22,2.36,2.36,0,0,0,2-1.25c.77-1,2.08-1.53,3.94-1.53a6,6,0,0,1,1.87.28c1.38.48,2.77.93,4.19,1.34,4.17,1.13,6.45,2,6.84,2.75a.68.68,0,0,1,.1.31v.07a3.45,3.45,0,0,0-.1.81,13.27,13.27,0,0,0,.44,2.62,7.94,7.94,0,0,1,.35,1.82c0,.27-.1.41-.29.43a36.22,36.22,0,0,0-.18,4.57q0,4.71,1.84,5.78a8.76,8.76,0,0,1,3,3.06,13.67,13.67,0,0,0,1.41,1.87,2.9,2.9,0,0,1,.5,1.82,2.47,2.47,0,0,1-.75,1.87,2,2,0,0,1-1,.57A7.47,7.47,0,0,1,264.75,48.44ZM246,40.81c.31,0,.75-.12,1.31-.25l.5,0h.25l.44,0,1.06,0q3-.06,3.66-.72a10.81,10.81,0,0,0,2.09-3.31,2.64,2.64,0,0,0,.25-1c0-.34-.25-.56-.75-.69a1.86,1.86,0,0,0-.59-.13,10.81,10.81,0,0,0-1.34.29,17.73,17.73,0,0,1-4,.62,7.93,7.93,0,0,1-2.28-.34h-.13a1.35,1.35,0,0,0-.69.25,1.76,1.76,0,0,0-.62.59,30.72,30.72,0,0,0-1.31,2.85L243.44,40a7.87,7.87,0,0,0,2.43.81Z"/><path class="cls-1" d="M282.31,47.22a4.17,4.17,0,0,1-3-1.63,7.6,7.6,0,0,1-1-1.36,6.27,6.27,0,0,0-1-1.26,15.75,15.75,0,0,1-5.15-12.09,13.45,13.45,0,0,1,1.72-6.72L274,24a20.5,20.5,0,0,1,2.55-3.58A8.47,8.47,0,0,1,280.53,18a5.24,5.24,0,0,0,1.31-.59,7.36,7.36,0,0,1,1.44-.69,8.35,8.35,0,0,1,1.66-.28,6.5,6.5,0,0,0,.9-.13,9.87,9.87,0,0,1,1.5-.12,6,6,0,0,1,5.38,3.4,3.39,3.39,0,0,0,1.31.88l-.37-.19a7.82,7.82,0,0,0,.21-1.09.36.36,0,0,0,0-.11,1.28,1.28,0,0,0-.12-.21,2.44,2.44,0,0,1-.16-.23q-.06-.11-.15-.3a11.54,11.54,0,0,1-.93-2,5.62,5.62,0,0,1-.32-1.81,6.36,6.36,0,0,1,.06-.87l.06-.57c0-.89-.59-1.42-1.78-1.59a4.64,4.64,0,0,1-3.63-3.38,1.25,1.25,0,0,1-.12-.56A2.12,2.12,0,0,1,287,6.47c1.29-2.38,2.59-3.81,3.91-4.31l1.21-.6a7.89,7.89,0,0,1,.75,1,4.5,4.5,0,0,1-.12.8,2.92,2.92,0,0,0-.09.7,1.85,1.85,0,0,0,.06.5,2,2,0,0,0,1.87,1.5,4.18,4.18,0,0,1,3.25,1.57,4.62,4.62,0,0,1,.94,2.68,6.24,6.24,0,0,1-.12,1.19,46.38,46.38,0,0,0-1.47,10.69c0,.58,0,1.15,0,1.7a4.59,4.59,0,0,0,.33,1.49,4.51,4.51,0,0,1,.63,2.34,5.74,5.74,0,0,1-.1,1.06,20.52,20.52,0,0,0-.34,3.78v.6l-.16,3.9c0,1.3-.1,2.6-.18,3.91l0,.31c0,.57.22.85.66.85l.34,0,2.52-.21,2.55-.22h.12a4.06,4.06,0,0,1,2.22.7A2.36,2.36,0,0,1,307,44a2.28,2.28,0,0,1-.52,1.36,5.41,5.41,0,0,1-1.25,1.23,2.43,2.43,0,0,1-1.45.53c-.6,0-3.67-.44-9.19-1.34a2.77,2.77,0,0,1-1-.47.47.47,0,0,0-.12-.09,2.67,2.67,0,0,0-1.35-.57c-.33,0-.73.28-1.21.82a3.9,3.9,0,0,1-.5.53,7.4,7.4,0,0,1-2.16.53A53.51,53.51,0,0,1,282.31,47.22Zm5.75-5.13a.54.54,0,0,1,.13-.18c.41-.44.85-.87,1.31-1.29a15.65,15.65,0,0,0,3.12-3.74,3.07,3.07,0,0,0,.22-1.19l0-2.07v-.4a21.5,21.5,0,0,1,.19-2.81l0-.47a.85.85,0,0,0-.47-.82,3.54,3.54,0,0,1-1.75-2.93,3.83,3.83,0,0,1,.11-.86,3.33,3.33,0,0,0,.11-.86,2.1,2.1,0,0,0-1.31-1.91,9.08,9.08,0,0,0-4.53-1.68,5,5,0,0,0-2.78,1,2.48,2.48,0,0,1-1,.35,3.93,3.93,0,0,0-2.66,2A15.76,15.76,0,0,0,276,32.62l0,.19a1.3,1.3,0,0,0,0,.31l.69,1.66q.93,2.31,2,4.5a3.93,3.93,0,0,0,1.34,1.28l.69.53a3.36,3.36,0,0,0,1.69.8c.52,0,1,.08,1.4.08s.68,0,1,0,.71,0,1.11,0a10.94,10.94,0,0,1,2,.18Z"/><path class="cls-1" d="M362.19,46.75a14.05,14.05,0,0,1-6.72-1.91,11.36,11.36,0,0,1-5.1-5.56c-.83-2.06-1.56-4.2-2.2-6.4a26.5,26.5,0,0,1-1-6.85,20.72,20.72,0,0,1,.46-4.12,36.32,36.32,0,0,1,3.82-10.19A9,9,0,0,1,354,8.5,8,8,0,0,0,355,7.56a7.08,7.08,0,0,1,.94-.84Q356.84,6,361.84,5a18.31,18.31,0,0,1,2-.12,4.9,4.9,0,0,1,3.47,1.18,4.36,4.36,0,0,0,1.56,1.19l.57.34,0-.06a3.69,3.69,0,0,0,.34-.62,1.91,1.91,0,0,1,1.75-1.41,2,2,0,0,1,1.81,1.35A2.24,2.24,0,0,1,373.69,8l0,.25a21.21,21.21,0,0,0-.38,3.91,18.53,18.53,0,0,0,.47,4.15,4.43,4.43,0,0,1,.09.81,1.71,1.71,0,0,1-.4,1.16,2,2,0,0,1-1.63.72,2.06,2.06,0,0,1-2-1.53c-.31-.94-.66-2.15-1.06-3.63l-.33-1.09a.89.89,0,0,0-.23-.34,18.84,18.84,0,0,0-2.6-2.44,6,6,0,0,0-3.75-1.22,8.88,8.88,0,0,0-7,3.34A12.93,12.93,0,0,0,352,18.81V19a45.31,45.31,0,0,0-.69,7.15q0,9.89,6.06,15.16a6.29,6.29,0,0,0,4.22,1.47,8.44,8.44,0,0,0,1.5-.13q4.76-.9,6.5-6.09A8.22,8.22,0,0,0,370,34c0-1,0-2.1-.13-3.19a2.23,2.23,0,0,0-.53-.37,4.23,4.23,0,0,0-2-.41l-2.31.06c-1.54,0-2.31-.63-2.31-1.9a1.63,1.63,0,0,1,.25-.94,2.7,2.7,0,0,1,1.69-.78c.6-.1,2.91-.18,6.93-.22,3.75-.1,6-.16,6.75-.16,1.9,0,2.85.64,2.85,1.91a2.3,2.3,0,0,1-.83,1.85,3,3,0,0,1-2,.68c-.75-.06-1.34-.09-1.78-.09a2.62,2.62,0,0,0-2,.53,3.22,3.22,0,0,0-.5,2.16c0,.35,0,.76.07,1.22s.06,1.08.06,1.62l-.09,3.44c0,.52,0,1.12.09,1.81A5.61,5.61,0,0,0,375,43.5a2,2,0,0,1,.28,1,2,2,0,0,1-1.5,1.94,2.54,2.54,0,0,1-.78.12,2.58,2.58,0,0,1-1.59-.53,2.85,2.85,0,0,1-1-1.4l-.29-1c-.56.35-1.67,1-3.34,2A9.38,9.38,0,0,1,362.19,46.75Z"/><path class="cls-1" d="M414.75,48.44a7.73,7.73,0,0,1-4.53-1.5,4.37,4.37,0,0,0-2.33-.88l-1.27,0a5.64,5.64,0,0,0-3.18.81.73.73,0,0,1-.35.22c-4.2.34-6.78.5-7.72.5-.6,0-1.2,0-1.81-.09a16.52,16.52,0,0,0-2.09-.13h-.22a3.75,3.75,0,0,1-1-.12,1.73,1.73,0,0,1-.94-1,38.3,38.3,0,0,0-1.9-3.72c-.42-.73-.82-1.46-1.19-2.19a3.37,3.37,0,0,1-.25-1.4,6.25,6.25,0,0,1,.4-2.35,2.1,2.1,0,0,1,1.07-1.25,6.25,6.25,0,0,0,2.18-1.37,5,5,0,0,1,2.82-1.5,7.47,7.47,0,0,0,3.68-.91c.13-.08.48-.27,1.07-.56a3.64,3.64,0,0,1,1.4-.5l1.28,0,2.41.06a26.91,26.91,0,0,0,2.69-.13,3.14,3.14,0,0,0,1.39-.59,2.39,2.39,0,0,0,.92-1.05,2.93,2.93,0,0,0,.22-1.14,3.58,3.58,0,0,0-.53-2q-1.75-2.55-3.22-2.84a12.81,12.81,0,0,0-2-.28,7.69,7.69,0,0,0-4.06,1.34,4.64,4.64,0,0,0-1.06,1.1,5.42,5.42,0,0,1-1,1.09l-.37.28a15.39,15.39,0,0,1-4.19,2.34,3,3,0,0,1-.69.07,7.54,7.54,0,0,1-2.93-.85c-.13-.06-.21-.34-.25-.84a2,2,0,0,0-.25-1.06,1.21,1.21,0,0,1-.25-.66,1,1,0,0,1,.43-.69,1.89,1.89,0,0,0,.32-.31,9.56,9.56,0,0,0,1.47-2.53c.23-.6.57-.91,1-.91a1.71,1.71,0,0,1,.59.13,2.59,2.59,0,0,0,1,.22,2.36,2.36,0,0,0,2-1.25c.77-1,2.08-1.53,3.94-1.53a6,6,0,0,1,1.87.28c1.38.48,2.77.93,4.19,1.34,4.17,1.13,6.45,2,6.84,2.75a.68.68,0,0,1,.1.31v.07a3.45,3.45,0,0,0-.1.81,13.27,13.27,0,0,0,.44,2.62,7.94,7.94,0,0,1,.35,1.82c0,.27-.1.41-.29.43a36.22,36.22,0,0,0-.18,4.57q0,4.71,1.84,5.78a8.76,8.76,0,0,1,3,3.06,13.67,13.67,0,0,0,1.41,1.87,2.9,2.9,0,0,1,.5,1.82,2.47,2.47,0,0,1-.75,1.87,2,2,0,0,1-1,.57A7.47,7.47,0,0,1,414.75,48.44ZM396,40.81c.31,0,.75-.12,1.31-.25l.5,0h.25l.44,0,1.06,0q3-.06,3.66-.72a10.81,10.81,0,0,0,2.09-3.31,2.64,2.64,0,0,0,.25-1c0-.34-.25-.56-.75-.69a1.86,1.86,0,0,0-.59-.13,10.81,10.81,0,0,0-1.34.29,17.73,17.73,0,0,1-4,.62,7.93,7.93,0,0,1-2.28-.34h-.13a1.35,1.35,0,0,0-.69.25,1.76,1.76,0,0,0-.62.59,30.72,30.72,0,0,0-1.31,2.85L393.44,40a7.87,7.87,0,0,0,2.43.81Z"/><path class="cls-1" d="M455.56,47c-3,0-5.87-.08-8.75-.19a4,4,0,0,1-1.62-.47l-.82-.43-.18-.22s-.05,0-.1.06a1.67,1.67,0,0,1-1.37.84q-3.32,0-6.69-.18a1.84,1.84,0,0,1-1.28-1l0-.5a3.41,3.41,0,0,1,.15-1l.52-.41a2.65,2.65,0,0,1,1.05-.37,3.88,3.88,0,0,0,.81-.21,2.44,2.44,0,0,0,0-.57,22.09,22.09,0,0,1-.25-3.16l.06-3.84c.07-1.82.1-3.65.1-5.5s-.07-3.93-.19-6A2.86,2.86,0,0,0,435,21a2.49,2.49,0,0,0-.81-.15,3.34,3.34,0,0,0-2.38,1.37,7.77,7.77,0,0,0-2.22,5.69l0,.62c0,2.27-.06,4.12-.16,5.53-.1,1.92-.16,4.92-.16,9a4.15,4.15,0,0,1,.85-.06,4.71,4.71,0,0,1,2.72.88c.06.6.09,1.06.09,1.37,0,.65-.6,1.06-1.81,1.25-2.32.1-5.14.16-8.47.16a2.31,2.31,0,0,1-1.5-.72,6.54,6.54,0,0,1-.22-1.35.46.46,0,0,1,.09-.31q1-1,4.32-1.53a2.17,2.17,0,0,0,0-.4c.14-4.38.22-7,.22-7.85.18-6,.3-9.39.34-10.06s.1-1.5.12-2.25q0-.69-.18-.81a.57.57,0,0,0-.38-.13,4.27,4.27,0,0,1-2-.4l-1.28-.44.35-2.13c2.48.19,4.17.36,5.09.5a1.64,1.64,0,0,1,1,.81l.37.85.44-.53a4.82,4.82,0,0,1,4.22-2.13c3.67,0,5.82,1.23,6.47,3.69a6.5,6.5,0,0,1,1.5-1.59,7.82,7.82,0,0,1,5-2.22A6.22,6.22,0,0,1,452,20.84a7.87,7.87,0,0,1,1,2.91c.06.65.09,1.27.09,1.87l-.06,2.5q.09,3.6.09,7.26,0,4.45-.06,7.43l.72,0c1.94,0,3.27.4,4,1.19a1.45,1.45,0,0,1,.4,1,1.9,1.9,0,0,1-1.06,1.62A2.76,2.76,0,0,1,455.56,47Zm-11.31-2.69c.35-.75,1.16-1.12,2.41-1.12.25,0,.49,0,.71,0a3.67,3.67,0,0,0,.57,0c.87,0,1.31-.3,1.31-.91a3,3,0,0,0-.16-.75,7.78,7.78,0,0,1-.4-2.59,14.66,14.66,0,0,1,.09-1.62,15,15,0,0,0,.09-1.63c0-.73-.06-1.77-.18-3.13-.09-1.12-.16-2.27-.22-3.43q0-1.5.12-3l.28-3.41c0-.71-.48-1.26-1.46-1.65a3.46,3.46,0,0,0-1.35-.35,1.54,1.54,0,0,0-1.22.6q-3.68,4.68-3.75,5.37c.09,1.11.13,2.14.13,3.1a30,30,0,0,1-.35,4.56,44.34,44.34,0,0,0-.37,5.31c0,.67,0,1.77.12,3.31,0,.09.3.14.88.16a2.94,2.94,0,0,1,2.53.94Z"/><path class="cls-1" d="M476,47a11.45,11.45,0,0,1-7.66-2.56,20.12,20.12,0,0,1-4.56-7.69,5.2,5.2,0,0,0-.56-1.23,2.41,2.41,0,0,1-.38-1.27,2.35,2.35,0,0,1,.1-.69q0-1.53.12-3.09a18.5,18.5,0,0,1,2.5-6.85,10.09,10.09,0,0,1,2.25-2.71l.81-.75a10.12,10.12,0,0,1,3.47-2.32,12.43,12.43,0,0,1,3.53-.92l1.41,0A9.2,9.2,0,0,1,481.25,18a4.82,4.82,0,0,0,1.5.5,6.57,6.57,0,0,1,2.28.84,12.05,12.05,0,0,0,1.22,1,18.33,18.33,0,0,1,3.31,3.06,11.39,11.39,0,0,1,1,5.47c.06,0,.09.15.09.44a4.73,4.73,0,0,1-.81,2.78,6.51,6.51,0,0,1-5,2.13,2.45,2.45,0,0,1-1.53-.38,3.33,3.33,0,0,0-1.83-1.11,12.44,12.44,0,0,0-1.48-.11,9,9,0,0,0-1.35.1c-1.14.08-2.3.12-3.46.12-.44,0-2.15-.05-5.13-.16a4.58,4.58,0,0,0-1.14.15,1.8,1.8,0,0,0-1.05.92,2.13,2.13,0,0,0-.37,1.15,2.41,2.41,0,0,0,.62,1.54c.23.5.44,1,.63,1.46a9.42,9.42,0,0,0,.84,1.78,6.55,6.55,0,0,0,1.78,1.69,6.76,6.76,0,0,0,3.41,1.63h1.41a8.1,8.1,0,0,0,4.46-1.32,6,6,0,0,0,1.47-2l.63-1.09a4.06,4.06,0,0,1,3.34-1.84,3.73,3.73,0,0,1,3.35,2.19,3,3,0,0,1,.21,1.21,1.33,1.33,0,0,1-.28.88A14.46,14.46,0,0,1,485.87,44,18.08,18.08,0,0,1,476,47Zm7-18,.34-1.72a2.81,2.81,0,0,0,.06-.59,3.45,3.45,0,0,0-.28-1.32c-.6-1.33-1.37-2-2.31-2a6.56,6.56,0,0,0-1.61.22c-.55.15-1.16.28-1.83.41a6.76,6.76,0,0,1-2,.31,6.41,6.41,0,0,1-1.06-.09,6.41,6.41,0,0,0-1.87-.35,4.32,4.32,0,0,0-3,1.54c-.5.47-.76.84-.77,1.1s0,.41,0,.43a2.92,2.92,0,0,0,.32,1.32c.22.43.41.66.55.68l.38,0a2.92,2.92,0,0,0,.59-.08,14.67,14.67,0,0,1,1.81-.14c.75-.08,1.52-.14,2.31-.16a7.91,7.91,0,0,1,1.1.08,7.56,7.56,0,0,0,1.06.08c.52,0,1.06-.06,1.63-.13a21.77,21.77,0,0,1,2.31-.12,7.79,7.79,0,0,1,1.9.37Z"/></g></g></svg>