<svg xmlns="http://www.w3.org/2000/svg" viewBox="0 0 500 90"><defs><style>.cls-1{fill:#f8f8f8;}</style></defs><g id="Layer_2" data-name="Layer 2"><g id="Layer_1-2" data-name="Layer 1"><path d="M0,41.16C.13,41.1.25,41,.38,41s.22.14.32.22l-.38.18Z"/><path d="M134.93,64.77h0l-.12,0h.13a.38.38,0,0,0,0-.1.42.42,0,0,1,0,.1Z"/><path d="M73.88,59.76a5.35,5.35,0,0,1-.54.43c-.27.17-.6.3-.79,0A.94.94,0,0,1,72.71,59c.6-.33.27.53.58.69s.38.21.59,0h0c0,.12-.09.23-.14.35C73.79,60,73.83,59.88,73.88,59.76Z"/><path d="M77.61,26.29v0s.06-.08.06-.08l-.06.14h0Z"/><path d="M72.52,55.38l0,0h0l-.06,0h.07l0,0,0,0h.09l-.07,0h0l.18.07h-.28Z"/><path d="M73.89,59.76l0,0,0,0Z"/><path d="M500,89.28V6.63c-1.26-.44-2.54-.85-3.83-1.23-5.12-1.52-10.4-1.72-15.59-2.63-2.3-.41-4.7-.41-7.05-.69-2.11-.24-4.2-.66-6.35-.76-3.66-.18-7.3-.41-11-.42-3.13,0-6.26-.35-9.39-.55a18,18,0,0,0-2.06-.16c-4,.25-8.06-.19-12.1.24C429.8.74,426.86.15,424,0a43.72,43.72,0,0,0-8.38.72c-1.79.28-3.65,0-5.45.4-3.27.68-6.57.18-9.86.38-5.56.32-11.13.72-16.7.76-3.5,0-7,.25-10.52,0a24,24,0,0,0-5.91.75c-3.71.7-7.47.57-11.2,1-9.32,1.05-18.68.3-28,.46-5.59.09-11.16.53-16.75.64-7.57.16-15.11,1.15-22.71,1a49.31,49.31,0,0,0-11.4,1.15,6.2,6.2,0,0,1-1.14.1c-3.73.12-7.45.26-11.16.56H243.68v.65c-2.84,0-5.67.07-8.5.34-2.23.21-4.45-.08-6.66,0-3.52.14-7,.45-10.55.73-4.88.38-9.76.83-14.64,1.18a31.36,31.36,0,0,0-3.62.58,63.7,63.7,0,0,1-14.19.82,59.3,59.3,0,0,0-7.55.41,9.29,9.29,0,0,1-4.32-.21c-1.35-.53-2.65.3-4.05.1-2.3-.32-4.67-.64-7,.24a.69.69,0,0,1-.45,0c-4.06-1.51-8.09.9-12.14.09-2.62,1-5.51-.27-8.08,1.15-1.2-.72-2.52-.44-3.79-.55a57.75,57.75,0,0,0-9.3.24,18.56,18.56,0,0,1-4.34-.11c-3.67-.6-7.29.08-10.87,1-.1,0-.15.27-.23.41v-.19l0,.17-.88-.45h0l-1,.38c-.07-.09-.07-.1-.06-.09l0-.05s0,0,0,.1l-.09,0,.12.11h0l1-.39c-.06.13,0,0,0,0,.17.4.55.32.86.45h0a2,2,0,0,0,2.54,1,8.71,8.71,0,0,1,4.09-.14,10.9,10.9,0,0,0,3.42,0c.77-.13,1.47,0,1.9-1a1.12,1.12,0,0,1,1.93-.42c1.26,1.87,3.22,1.57,4.81,1.69a9.63,9.63,0,0,1,4.47,1.4c.66.4.8,0,.83-.57v0c.74-.63,2.05,0,2.5-1.34.22-.67.34.11.53.15,1,.23,1.48,1.23,2.18,1.9a2.47,2.47,0,0,0,1.23,1.61.78.78,0,0,1,.3,1.34c-.43.4-.95.15-1.45-.12s.19-2-1.18-1.56c-1,.3-.25,1.49-.8,2.05-.16.17-.28.38-.42.56-.95-1.07-1.18-1.1-1.87-.17a2.6,2.6,0,0,1-3.33.95v0c-.44-.32-.86-.66-1.31-1s-.87-.43-1.25.34a1.71,1.71,0,0,1-2.74.84,1.54,1.54,0,0,0-2.34.27c-1,1.07-2.48.36-3.74.56a14.44,14.44,0,0,0-3.4.66,3.41,3.41,0,0,1-3,.06,2.35,2.35,0,0,0-2.49.26,5,5,0,0,1-2.6.85c-.56,0-.76.44-.61,1v0c-1-.17-2.33.6-2.73-1.19a.52.52,0,0,0-.74-.35c-1,.43-2.16-.05-3.07.69-.43.35-.82.48-1.18,0a1.05,1.05,0,0,1-.15-1.32,1.7,1.7,0,0,0,.27-.65c.23-1.07-.48-.93-1.07-.92-.56-1-1.14-1-1.48.16-.17.58-.18,1.18-.89,1.14-.52,0-1.1-.36-1.44.26a2.58,2.58,0,0,0-.5,1.84c.62,2-.68,2.84-1.8,3.76-1.34,1.11-2.28,1-3.28-.44-.6-.87-1.77-1.37-1.66-2.78,0-.53-.26-.31-.56-.18-.53.24-.95-.39-1.49-.33,0,.32-.06.65-.36.78s-.37-.1-.49-.33c-.44-.87-.48-.9-1.24-.38-.44.31-.55,0-.61-.29a4.61,4.61,0,0,1,.07-1.92A1.93,1.93,0,0,0,87,22.25c-.2-.26-.5-.42-.77-.17s0,.38.14.55c1.05,1,.08,1.1-.53,1.36V24c-.4-.8-.79-1.25-1.74-.59-1.45,1-2.88,2.16-4.84,1.82-.66-.11-.91,1.05-1.66,1.08,0,.85.22,1.83-1.25,1.19-.83-.35-1.83-.12-2.14-1.46-.09-.41-.75-.67-1.17-1-.07-1.38-1-.1-1.37-.46h0c-.11-.08-.21-.18-.31-.19-1.57-.05-2.84-.55-3.25-2.41,0-.22-.34-.44-.52-.28s.08.38.18.57c.29.56,0,1.24.51,1.81.81.94.14,1.46-.66,1.78a1,1,0,0,1-1.41-1A3,3,0,0,0,64.86,22c-.13-.08-.32-.19-.42-.14-.35.16-.11.39,0,.53a2.36,2.36,0,0,1,.39,3.25v.07l0,0-.38.2c-.4.24-.94.51-.68,1.08s.77.14,1.16,0c.13,0,.23-.19.34-.3l0,0,0,0h0v0c.56,2,.5,2.17-1.16,2.36A16.16,16.16,0,0,1,60,29c-2-.29-4-.32-6.09-.42A3,3,0,0,0,51.39,30c-.34.43-.61.7-.26,1.24a1.63,1.63,0,0,1,.22,1.17c-.09.59-.85,1.14-.16,1.77a1.86,1.86,0,0,0,1.54.32c.23,0,.6.15.51.3-.69,1.22.73,2.06.42,3.27s.26,1.64,1.22,1.28c1.9-.73,2.72,1,3.94,1.81.39.24.15.74-.37.78-1.51.1-3.08-.12-4.34,1.14-.11.1-.44,0-.66-.07-3-.79-6,.39-9.06-.06a28.22,28.22,0,0,0-6.3.06,33.62,33.62,0,0,1-6-.3c-1.13-.11-2.77-1-3.61,1-.2.46-.78.12-1.13-.29-.91-1-4.45-2.36-5.55-1.66-1.43.9-2.24,0-3.27-.56l.08.07-.08,0v-.11h0l-2.52-.07c-.23,0-.61-.09-.67,0-1.1,2-2.7.73-4.08.68A21.06,21.06,0,0,0,9,42c-1,.08-2,.57-2.9-.52a.53.53,0,0,0-.82.08c-.27.42.07.76.34,1,.42.44,1,.22,1.53.36.9.25,2.1.2,1.54,1.92-.21.66.53.68.94.73,3.9.47,7.72,1.68,11.64,1.75,2.28,0,4.49.77,6.77.48a2.54,2.54,0,0,1,.91.08c3.75,1,7.58,1,11.4,1.29,3.08.24,6.12-.22,9.16.13a1.63,1.63,0,0,1,.44.08c.69.27.71,1.65,1.28,1.44s.82-1.1,1.65-1,1.51-.35,2.12.82c.83,1.58,2.61.84,3.95,1.17.49.12.52-.63.64-1.11.34-1.27,1.28-1.66,1.86-.68s1,.77,1.7.78c2,.06,2,.07,2.7,2.23a8.71,8.71,0,0,0,.3,1.17.83.83,0,0,0,.56.35c.36,0,.48-.25.57-.6.44-1.77.43-1.71,1.93-1.16S72,53.68,73.38,54c.51.13,1,.38.89.92s-.7.5-1.14.51l-.41,0c1,.42,1.89,1.26,3.07.83-.41,1.1-.81,2.2-1.24,3.28-.11.29-.32.53-.63.24.36.37.66,1,1.26.6,1-.64,1.32,0,1.35.85A2.34,2.34,0,0,0,77.06,63c.3.28.66.5,1,.24a.84.84,0,0,0,.24-1.09,6.51,6.51,0,0,0-.53-.8c-.3-.49-.59-1.09-.2-1.59a1.6,1.6,0,0,1,1.64-.68c.61.16.8.69.83,1.32a3.54,3.54,0,0,0,.06.73c0,.12.2.21.3.31.08-.11.24-.23.23-.32-.35-2,.9-3.48,1.36-5.21v0h0s0,0,0,.06c0,.52.09,1,.14,1.54h0s0,0,0,0v0c0-.52-.09-1-.14-1.52a3,3,0,0,0,.12-.43l-.12.16.1-.15h0c.5-.37,1.65-.31,1.19-1.38-.7-1.61.62-1,1.1-1.23.13-.06.47.53.69.51.77-.07,1.63-.28,2.14.44s0,1.41-.06,2.11.06,1,.81.91a1.16,1.16,0,0,1,1.26,1.57c-.53,1.19-.42,2.52-1,3.65-.81,1.58-.83,1.56.52,2.6l.37.29c.24.19.55.5.79.24.42-.46-.13-.7-.34-1-1-1.2.21-2.06.5-3s1.31-.84,2.19-.53c1.4.5,1.42.46,1.52-1.14,0-.61.11-1.21.83-1.22s1.56-.52,2.08.46c.19.35.29.76.48,1.11.31.56.31,1.41,1,1.62.84.29.74-.84,1.22-1.16s.91-.62,1.47-.24A12,12,0,0,0,107,62.72c.81,0,1.1,1.09,1.31,1.87.38,1.38,1.12,2,2.51,1.82.41-.06,1,.33,1.09-.41.1-.55.16-1.17-.48-1.48-.35-.17-.7-.31-1-.49a3.74,3.74,0,0,1-1.42-4c.42-1.53.26-3.16.67-4.72.51-2,.62-2.15,2.49-1.75.5.1,1,.58,1.5,0,.19-.19.45-.59.71-.3s-.09.58-.26.84a1.43,1.43,0,0,0-.29,1.37,1.54,1.54,0,0,1-.39,2c-.25.2-.23.49-.15.86.37,1.66-.46,2.74-2,2.65a.54.54,0,0,1-.57-.6c0-.35.55-1.14-.42-.78-.37.13-.69,1.06-.35,1.22,1.58.71,1.94,3.42,4.27,2.94.36-.08.86.6,1.43.27l-.14.15.13,0v0l0-.06h0c-.2-1.1.39-1.54,1.26-1.48.53,0,1,1.69.7,2.39a1.34,1.34,0,0,1-.8.83c-.46.16-.4.47-.08.68a1.81,1.81,0,0,0,2.33-.66A5.63,5.63,0,0,1,121.73,63a2.8,2.8,0,0,0,1.39-1.86c.18-.57.34-1.13,1-1.17s.86.43,1.13,1c.76,1.61.8,1.57,2.32.9a3.37,3.37,0,0,1,1.53-.41.85.85,0,0,1,.79,1.18c-.17.43-.73,1.08-.41,1.26.87.5,1.09,1.57,1.86,2.06.38.25.77,0,.72-.56-.18-1.8,1.51-1.22,2.22-1.9.31-.3.48.64.67,1.16.05-.36.09-.73.17-1.08.39-1.71,1.51-2.11,2.83-1.06.42.34,1,.47,1.19,1.09a.32.32,0,0,0,.55.16c.27-.24.5-1,.79-.56a1.32,1.32,0,0,1-.24,1.74c-.79.59-.15.67.2.91s1.06-.64,1.37.32,1.43,1.75,1.26,3.08c-.06.53-.22,1.4.43,1.45s1.45.4,2.17-.19c1.43-1.18,1.46-1.14,2.31.8l0,.09v0c.1.15-.08-.08.11.15.05.06,0,0-.1-.21.76-.4.55-1.91,1.87-1.79.4,0,.58-.69.42-1.21a.77.77,0,0,0-.95-.5,4.41,4.41,0,0,1-1.58.08c-1.57-.34-1.49-.3-1.16-2.14.17-.89.6-1.89-.09-2.81s.54-2,0-3.07c-.09-.16.31-.53.44-.39.69.74,1.66.25,2.39.73s.62,1.34.72,2.16,1.15,1.24,1.19,2.26c.06,1.19,1,1.3,1.82,1.51,1.16.29.7,1.5,1.1,2.23a2.15,2.15,0,0,1,0,1.44.65.65,0,0,0,.4.79c.39.12.63-.26.66-.52.1-1-.06-2,1-2.63a1.72,1.72,0,0,0-.21-.63c-.37-.52-.41-.79.31-1a18.06,18.06,0,0,1,3.36-.27,1.87,1.87,0,0,1,1.58.86,2.07,2.07,0,0,1,.26,2.28c-.46.67-1.09.1-1.57-.33-.24-.21-.54-.42-.82-.2s-.15.77,0,1.11c.45,1.08,1.4,2,.8,3.38a.39.39,0,0,0,.33.52.81.81,0,0,0,.92-.56c.21-.51-.22-.93-.22-1.41,0-1.13.44-1.48,1.39-.78.63.47.81.32.83-.27,0-1.13.91-1.89,1-3a1,1,0,0,1,1.29-1c.71.11.92.58.76,1.22-.25,1,.37,1.24,1,1.63,1.77,1.1,1.8,1.22,1.22,3.26a3.31,3.31,0,0,0-.16,1.2c.06.88.28,1.37,1.29,1.06a3.17,3.17,0,0,1,2.88.27,4.46,4.46,0,0,0,2.9.25,1.65,1.65,0,0,0,.82-.39c1.7-1.75,2-1.26,4.51-1.82s4.2.69,6.06,1.79c1.46.86,3,.62,4.45.42a10,10,0,0,1,4.77.13,1.24,1.24,0,0,0,1.32,0,1.21,1.21,0,0,1,1.84.11.87.87,0,0,0,1.24.18c.68-.47,0-.78-.09-1.19-.32-1,.23-1.43,1-1.39s1.61.43,2.47,0c.39-.18.76.08.73.62s-.19.8-.7.73a1.69,1.69,0,0,1-.43-.15c-.29-.12-.71-.32-.8.06s.47.86.69.82c1.16-.2,2.2.46,3.33.41,1.94-.09,2.17.12,2.54,2.24.12.75.57,1.25,1.22,1.08s1-.15,1.36.43a.88.88,0,0,0,1.66-.09c.31-.67,1-1.75-.19-2.29a1.13,1.13,0,0,1-.68-1.71c.31-.72,1-.74,1.58-.69s1.5.38,1.35,1c-.36,1.54,1,2.75.5,4.25-.13.45,0,1-.32,1.4-.58.69-1.33,1.29,0,2,.3.18,0,.59-.13.87a.78.78,0,0,1-1.16.42c-1.14-1.19-3.13-1.41-3.69-3-.5-1.44-1.09-.66-1.72-.56l0,.07A4.24,4.24,0,0,0,207,77.38c-1.14-1-1.93-.62-2.07,1a7.83,7.83,0,0,1-.29,1.56,3.91,3.91,0,0,1-.36-1.55c0-.46.13-1.15-.57-1.06-.42,0-.45.66-.34,1,.44,1.39-.1,2.5-.71,3.68-.46.89.06,2.23-1,2.86-.93.54-1.76-.3-2.64-.35a3.66,3.66,0,0,1-2.43-.52c-.38-.32-.62-.11-1,.16-1.67,1.32-3.3,2-5.44.78-.95-.53-2.45-.09-3.56.54a1.76,1.76,0,0,1-2.32-.06,1.19,1.19,0,0,0-1.5-.24c-2,1.29-3.67.35-5.38-.65a6.49,6.49,0,0,0-.87-.33c.17-.28,0,.09.12-.2,0-.06,0,0-.11.13v0a.36.36,0,0,0,0,.09h0c-.43.94-1.33,1-2.1,1.14s-1.57.12-1.61-1.08l-.15-.44c0,.12.07.24.11.37l-.21-.33.23.41c-.49.1-.92-1.33-1.56.14a2.41,2.41,0,0,1-3,1,10.66,10.66,0,0,0-4.64-.26,90.74,90.74,0,0,1-9.9.13c-.38,0-.88-.24-1.11-.06-1.58,1.22-3.15.81-4.79.21a2.43,2.43,0,0,0-1.35.1c-.54.14-1.58-.27-1.51.58s1.05.41,1.54.22c1.19-.45,2.23.32,3.38.32,2.22,0,4.43-.27,6.64-.28a73.83,73.83,0,0,1,15.67,1.47,25.68,25.68,0,0,0,9.3.29c5.47-.84,11-.6,16.53-.43,2.53.08,5-.49,7.56-.09,4.11.66,8.25.07,12.38.51a27.67,27.67,0,0,0,5.72-.36,17.13,17.13,0,0,1,6.36.64c4.89,1.28,9.83,1.32,14.79,1.5a106.43,106.43,0,0,0,13-.6l.67-.08ZM18.57,41.3h0v0Zm84.27-18.63s0-.11,0,0Zm37.37-.9s0-.1,0,0Zm2.89-4h0v0s0,0,0,0h0v0Zm0,0,0,0,0,0Zm.06,0h-.1l0,0A.1.1,0,0,0,143.18,17.79Z"/><path d="M87.2,64.6a2.9,2.9,0,0,0,.5.49c1.75,1.38,1.8,1.68.54,3.63l.07-.06a5.18,5.18,0,0,1,.63,1.27c.07.37-.17.87-.67.62-.31-.15-1,.25-.89-.3a5.43,5.43,0,0,0-1.33-4.46,2.24,2.24,0,0,1,.11-1.88C86.31,63.63,86.9,64.22,87.2,64.6Z"/><path d="M75.65,15.6a.3.3,0,0,0-.19.13c-1.21,1.75-2.82,1-4.35.81h0l-1.33,0c-.21,0-.42,0-.64-.06,0-.13,0-.36.08-.37a1.62,1.62,0,0,1,.62,0c.43.11.84.25,1.26.38-.1-.16-.13-.22-.09-.16l.1.16c0-.08,0-.19,0-.23.45-.42-.3-2.85,1.49-1,.23.24.36.1.5-.15.49-.81,1.3-.77,2-.77s1.67-.32,1.84.48C77.3,16.15,76.21,15.5,75.65,15.6Z"/><path d="M101.24,16.17c-1.67-.17-3.33-.36-5-.55-.24,0-.48-.16-.43-.43a.92.92,0,0,1,.39-.54c.74-.41,1.5.07,2.25,0,1.06-.11,2.14-.45,3.08.4.16.15.37.39.35.58A.56.56,0,0,1,101.24,16.17Z"/><path d="M84.39,56.47c0-.1.19-.19.29-.29a2.87,2.87,0,0,1,.17.62c.09,2-.38,2.73-2.29,3.59h0l0,.09a.15.15,0,0,1,.06.18l0,.13,0-.09s0,0,0,0-.11-.09-.12-.13a.35.35,0,0,1,0-.13l0-.06c.32-1-.43-1.88-.34-2.85C83,57.31,84.23,58.24,84.39,56.47Z"/><path d="M119.71,87.06c0,.78-.79.41-1.27.45a.89.89,0,0,1-.22,0c-.92-.17-2,.16-2.71-.74.92-.3,1.83-.66,2.77-.87A1.2,1.2,0,0,1,119.71,87.06Z"/><polygon points="83.87 68.29 83.87 68.29 83.87 68.29 83.87 68.29"/><path d="M82.92,64.41c-.18-.14-.32-.42-.13-.61s.59,0,.77.22c.42.54.68,1.31.12,1.75-1.35,1-.44,1.73.19,2.52-.25.18-.67.45-.8.21-.48-.86-1.18-1.82-.17-2.76C83.44,65.24,83.53,64.88,82.92,64.41Z"/><path d="M84.31,15.66c-.94.14-1.54.2-2-.35a.43.43,0,0,1,0-.41c.46-.61,1.1-.42,1.66-.29s1.3.05,1.27.65C85.24,16,84.44,15.64,84.31,15.66Z"/><path d="M93.56,15.77c-.51-.93-1.93.5-2.2-.52-.14-.53,1.5.11,2.08-.69.06-.09.29-.08.43-.05.4.11.23.52.32.8S94.14,15.89,93.56,15.77Z"/><path d="M72.19,19.26c.49-.23.64.26.82.57.26.46.69,1,.11,1.48-.21.19-.46.53-.77.34-.54-.35-.38-1-.42-1.53C71.9,19.79,71.89,19.41,72.19,19.26Z"/><path d="M197.43,82.36c0,.31,0,.67-.31.81s-1.52-1-1.52-1.17c.08-.57.41-.6.83-.61C197.08,81.39,197.44,81.64,197.43,82.36Z"/><path d="M107.85,16c-.33,0-.42-.38-.47-.7,0-.47.2-.74.66-.71.3,0,.65.18.63.5C108.62,15.57,108.38,16,107.85,16Z"/><path d="M134.33,85.74c.41.1,1-.08,1.15.45.06.33-.5.47-.89.49s-.81,0-.88-.45S134,85.75,134.33,85.74Z"/><path d="M64.78,25.63l.07,0,0,0S64.8,25.65,64.78,25.63Z"/><path d="M126,86.26c.39-.07.58.14.6.5s-.17.41-.4.48a.5.5,0,0,1-.7-.37C125.38,86.47,125.75,86.41,126,86.26Z"/><path d="M66.24,59.25a.41.41,0,0,1,.31.53c-.07.34-.24.62-.57.66a.4.4,0,0,1-.44-.42A.77.77,0,0,1,66.24,59.25Z"/><path d="M175.28,78.05a.44.44,0,0,1,.35.59c0,.24-.17.47-.44.36a.5.5,0,0,1-.26-.58C175,78.16,175.13,78,175.28,78.05Z"/><path d="M75.33,23.37c.4.07.7.23.57.74a.55.55,0,0,1-.32.2c-.23-.28-.43-.58-.65-.88Z"/><path d="M199.28,79.55a.4.4,0,0,1-.31.24c-.25,0-.35-.24-.32-.51.1-.09.22-.28.31-.27A.44.44,0,0,1,199.28,79.55Z"/><path d="M72.74,63.81l1.26,1C73.1,65.17,72.79,64.66,72.74,63.81Z"/><path d="M72.74,63.81l-.06-.05,0,0A.38.38,0,0,0,72.74,63.81Z"/><path d="M100,86c0,.12-.08.26-.13.39a3.44,3.44,0,0,1-.27-.27s0-.15.08-.2S99.94,85.8,100,86Z"/><path d="M103.44,86.13c.07.17,0,.26-.2.21a1.76,1.76,0,0,1-.37-.17,2.72,2.72,0,0,1,.38-.11C103.31,86.05,103.42,86.08,103.44,86.13Z"/><path d="M54.63,26.69a.24.24,0,0,1,.12-.16c.18-.06.29,0,.31.22s-.08.11-.12.17S54.64,26.89,54.63,26.69Z"/><path d="M67.57,57a1.29,1.29,0,0,1,.19.37l-.32.2a1.22,1.22,0,0,1-.15-.4C67.29,57,67.43,56.86,67.57,57Z"/><path d="M87.82,15.71c-.16,0-.23-.15-.18-.34s.18-.26.34-.14.12.15.1.19S87.92,15.7,87.82,15.71Z"/><path d="M196.58,77.68c0-.06,0-.14.07-.17a.15.15,0,0,1,.17,0c.13.13.09.24-.08.27S196.63,77.71,196.58,77.68Z"/><path d="M49.52,34l.17-.09c0,.06.08.13.07.18s-.11.06-.16.09Z"/><path d="M160.19,74.64s-.12,0-.18-.07l.08-.2C160.31,74.37,160.35,74.47,160.19,74.64Z"/><path d="M47.89,31.08a2.13,2.13,0,0,1,.1-.42c.1.08.27.13.29.23a.47.47,0,0,1-.13.39C48,31.39,47.89,31.29,47.89,31.08Z"/><path d="M168.79,78.54l-.32.19c0-.07-.1-.16-.08-.19s.15-.28.24-.3S168.84,78.37,168.79,78.54Z"/><path d="M132.65,86.31c0,.11-.1.21-.15.32l-.25-.24a1.28,1.28,0,0,1,.26-.2S132.65,86.28,132.65,86.31Z"/><path d="M52.58,37c0,.18-.09.27-.27.23s-.08-.11-.12-.17.1-.27.27-.24A.27.27,0,0,1,52.58,37Z"/><path d="M99.67,64.6c.07-.1.15-.19.22-.28l.27.2a2.11,2.11,0,0,1-.33.18S99.73,64.64,99.67,64.6Z"/><path d="M86.57,58.85c0-.14,0-.35.11-.39s.23.07.18.27a1.13,1.13,0,0,1-.19.31Z"/><path d="M135.19,19.75c-.05-.05-.13-.1-.14-.16s0-.14,0-.21S135.27,19.58,135.19,19.75Z"/><path d="M132,69.38l1.11.9C132.08,70.8,132.13,69.94,132,69.38Z"/><path d="M145.73,72.8c.21,0,.25.1.12.28a.2.2,0,0,1-.19,0s0-.12-.07-.18S145.68,72.8,145.73,72.8Z"/><path d="M136.77,20.84a1.71,1.71,0,0,1-.2.27l-.22-.27c.05-.18.15-.23.31-.14S136.78,20.82,136.77,20.84Z"/><path d="M75,25.42a1.18,1.18,0,0,1,.13.18s0,.11,0,.17Z"/><path d="M75,25.19a1.55,1.55,0,0,1,0,.23l-.11-.17Z"/><path d="M75,25.19l-.06.06-.07-.12A.26.26,0,0,1,75,25.19Z"/><path d="M74.62,24.71c.08.14.16.28.23.42C74.66,25.09,74.39,25.11,74.62,24.71Z"/><path d="M162.48,73.26a.21.21,0,0,1-.07-.13l.06-.07Z"/><path d="M162.5,73.7c0-.15,0-.3,0-.44C162.59,73.38,162.77,73.5,162.5,73.7Z"/><path d="M112.31,69a.25.25,0,0,1-.12.15s-.12,0-.18-.05,0-.16,0-.2S112.29,68.83,112.31,69Z"/><path d="M110.32,69.05l-.37-.21.42.15Z"/><path d="M83.87,68.29h0c0,.22,0,.43-.07.64l.06-.63c-.17.12-.22.17-.17.12l.08-.08s0,0,.09-.06Z"/><polygon points="63.37 63.7 63.26 63.62 63.38 63.55 63.37 63.7"/><path d="M80.81,70.35s-.09.15-.11.14a2.48,2.48,0,0,1-.32-.17l.24-.28A3.21,3.21,0,0,1,80.81,70.35Z"/><path d="M53.59,19.27l-.05-.06s0,0-.06-.1c0,.24-.13.46-.42.36-.05,0-.1-.14-.08-.2.09-.31.31-.23.53-.18h0l.17,0-.16,0C53.6,19.26,53.62,19.31,53.59,19.27Z"/><polygon points="103.01 16 103.14 16.04 103.03 16.12 103.01 16"/><path d="M90.32,25l-.47.93C89.93,25.57,89.83,25.11,90.32,25Z"/><path d="M89.85,25.93v0h0v0h0A.3.3,0,0,0,89.85,25.93Z"/><path d="M90.34,24.92l0,0h0l-.05,0,0-.06Z"/><path d="M90.28,24.39l.06.53a3.3,3.3,0,0,1-.13-.37S90.25,24.44,90.28,24.39Z"/><path d="M162.23,72.73l.13.29C162.22,73,162.05,73,162.23,72.73Z"/><path d="M162.47,73.06l-.06.07,0-.11Z"/><path d="M148,71.47a.19.19,0,0,1,0-.08c0,.07,0,.14,0,.22A.84.84,0,0,1,148,71.47Z"/><path d="M111,69.77l-.08-.14,0,0Z"/><path d="M111,69.77a1.07,1.07,0,0,1,.12.68Z"/><path d="M133.07,69.89c0,.13,0,.27,0,.42h0l-.05,0h0C133.08,70.14,133.07,70,133.07,69.89Z"/><path d="M176.59,84.05a.59.59,0,0,1,0,.08l0-.22A.71.71,0,0,1,176.59,84.05Z"/><path d="M131.92,68.91a2.29,2.29,0,0,1,0,.25C131.84,69.08,131.73,69,131.92,68.91Z"/><path d="M131.92,69.26a.56.56,0,0,1,0,.12l-.08-.06c0-.06,0-.11,0-.16a.12.12,0,0,1,0,.1Z"/><path d="M74,64.69l0,.13v.06l-.06,0,0,0Z"/><path d="M72.73,63.71l0,0-.58-.45.06-.05Z"/><polygon points="72.16 63.26 72.09 63.31 72.13 63.15 72.16 63.26"/><path d="M72.41,55.33s0,0,.06,0l0,.08Z"/><path d="M111.29,70.64l-.11,0-.07,0,0-.2,0,.2Z"/><path d="M167.06,70.12l-.05.06Z"/><path d="M111,69.59l0,0-.62-.58.05-.06Z"/><path d="M90.1,68.65l-.07.17v-.07Z"/><path d="M73.38,22.16s0,0,0,0l0-.06.05.05v0h0v0Z"/><path d="M73.4,22.11l-.05,0L73.4,22h0v0l.09.1,0,0c0,.06,0,.09,0,.07l0,0s0,0,0,0Z"/><path d="M64.34,19.84l0-.1,0,.16Z"/><polygon points="121.11 87.5 121 87.44 121.17 87.47 121.11 87.5"/><path d="M88.24,68.72l.07-.06Z"/><path class="cls-1" d="M104.64,65.61a11.74,11.74,0,0,1-3.71-.53q-1.64-.52-3.3-1.23c-.38-.17-.78-.33-1.19-.49l-1.08.52q-1.58.76-3.33,1.41a1.13,1.13,0,0,1-.39.07,2.64,2.64,0,0,1-.92-.2c-.77-.28-1.24-1.54-1.41-3.79-.11-1.67-.2-3.32-.26-4.95a26.38,26.38,0,0,0-.22-2.92,1.19,1.19,0,0,1-.1-.45,8.33,8.33,0,0,1,.86-1.93l.45-.87c1,1,1.54,1.58,1.73,1.84.47.72.92,1.45,1.35,2.18.55,1,1.15,1.91,1.79,2.83a3.33,3.33,0,0,0,1.18.87h0l.44.2a1.16,1.16,0,0,0,.43.15,1.4,1.4,0,0,1,.61.26,7.48,7.48,0,0,0,4.93,1.64,26.93,26.93,0,0,0,3.1-.29,12,12,0,0,0,4.45-1.19,20.58,20.58,0,0,0,4.8-4.47,1.74,1.74,0,0,0,.26-1,2.15,2.15,0,0,0-.13-.77,8.18,8.18,0,0,0-3.1-4.21,17.22,17.22,0,0,0-7-2.83,22.4,22.4,0,0,1-5.66-1.49q-2.73-1.11-5.32-2.43a3.68,3.68,0,0,1-1.79-1.73,11,11,0,0,1-.77-2.22,11.34,11.34,0,0,1-.48-3.05,9.05,9.05,0,0,1,.61-3.25,10,10,0,0,1,5-5.91A35.31,35.31,0,0,1,103,23.17H103a14.7,14.7,0,0,1,2.94-.55,4.45,4.45,0,0,1,2.66.83.24.24,0,0,0,.19.07,2.44,2.44,0,0,0,1-.29,6.91,6.91,0,0,1,2.44-.42c.36,0,1.07,0,2.14.13l2.24.1a2.44,2.44,0,0,1,.9.16c.27.1.48.43.62,1a5.31,5.31,0,0,0,.72,1.58,9.38,9.38,0,0,1,.64,1.22,3.13,3.13,0,0,1,.16,1v.19c0,.23.08,1.05.23,2.44a32.86,32.86,0,0,1,.38,4.11,3.66,3.66,0,0,1-.37,1.5,1.75,1.75,0,0,1-.89,1,3.51,3.51,0,0,1-1.2.19,8.89,8.89,0,0,1-2.34-.32.64.64,0,0,1-.39-.16,2.52,2.52,0,0,1-.6-1.25,16,16,0,0,1-.63-2.62,3.55,3.55,0,0,0-.93-2,10.45,10.45,0,0,0-1.71-1.43c-.4-.3-.8-.61-1.18-.93a4.58,4.58,0,0,0-3.08-.8,8.81,8.81,0,0,1-3.29-.84,3.75,3.75,0,0,0-1.35-.22,7.31,7.31,0,0,0-5.5,2.79c-.47.48-1,.94-1.48,1.39a4.59,4.59,0,0,0-1.47,3.76,2.24,2.24,0,0,0,.21,1,3.82,3.82,0,0,0,1,1.12l.06,0a28,28,0,0,0,4.13,3A13.72,13.72,0,0,0,103.1,41l.64.13c2.26.47,4.52.89,6.76,1.25a9.65,9.65,0,0,0,1.82.23q.36,0,.72,0l.75,0h.26a3.44,3.44,0,0,1,1.47.32c3.1,1.95,4.64,4.36,4.64,7.23l0,.87,0,.19a10.61,10.61,0,0,1,.64,3.25,8.73,8.73,0,0,1-.78,3.26,13.41,13.41,0,0,1-2.51,3.78,9.25,9.25,0,0,1-7,3.69c-1.11,0-2.2.08-3.26.16C106.42,65.54,105.54,65.59,104.64,65.61Z"/><path class="cls-1" d="M145.9,66.19a10.41,10.41,0,0,1-7.3-3.31,9.66,9.66,0,0,1-2.46-6.52c0-.56,0-1.22,0-2H136l.16-2.8c.15-1.78.22-3.55.22-5.33a4.11,4.11,0,0,0-.67-2.25,11.23,11.23,0,0,0-2.63-3,3.92,3.92,0,0,0-1.85-.87l-.87,0a6.15,6.15,0,0,1-1.82-.22c-.47-.15-.71-.56-.71-1.22a3.86,3.86,0,0,1,.45-1.51c.58-1.08,1.81-1.61,3.68-1.61l1,0a1.42,1.42,0,0,0,1.53-.93A11.17,11.17,0,0,0,136.25,31a30.8,30.8,0,0,0,.75-4,2.19,2.19,0,0,1,.9-1.16,2.54,2.54,0,0,1,1.5-.58c1.52,0,2.28.7,2.28,2.09v.13a69.06,69.06,0,0,0,.38,7.3c.13,1,.63,1.57,1.5,1.57l.55,0c1-.09,2-.14,3.07-.16,1.24,0,2.27-.11,3.11-.2a15.47,15.47,0,0,1,1.92-.12,16.66,16.66,0,0,1,4.64.7,1.73,1.73,0,0,1,.93.84,2.87,2.87,0,0,1,.35,1.12c0,.39-.35.76-1.06,1.13a8.58,8.58,0,0,1-3.71.58c-1.67,0-3.33,0-5,0l-4.34,0a3,3,0,0,0-1.53.32,2.56,2.56,0,0,0-.74,1.74,42.66,42.66,0,0,0-.54,6.75,44.08,44.08,0,0,0,.38,5.72,2.36,2.36,0,0,0,0,.35v.13a.49.49,0,0,1-.16.38,1.82,1.82,0,0,0-.41,1.06,3.8,3.8,0,0,0,.32,1.42,6.58,6.58,0,0,1,.35,1.06,3.24,3.24,0,0,0,1.89,2.38,3.71,3.71,0,0,0,1.53.32,5.28,5.28,0,0,0,1.19-.16,6.16,6.16,0,0,0,4.26-3.22,13.64,13.64,0,0,0,1-2.25q1.31-3.59,2.78-3.59a1.91,1.91,0,0,1,1.32.61,2.27,2.27,0,0,1,.7,1.09,10.81,10.81,0,0,1,.13,1.61,10.05,10.05,0,0,1-1.19,4.62A10.29,10.29,0,0,1,150.7,65,11.38,11.38,0,0,1,145.9,66.19Z"/><path class="cls-1" d="M195,67.38a7.9,7.9,0,0,1-4.65-1.54,4.39,4.39,0,0,0-2.38-.9l-1.3,0a5.81,5.81,0,0,0-3.26.83.82.82,0,0,1-.35.23q-6.47.51-7.91.51-.93,0-1.86-.09a17.3,17.3,0,0,0-2.14-.13H171a4,4,0,0,1-1-.13,1.79,1.79,0,0,1-1-1.06A40.54,40.54,0,0,0,167,61.24c-.43-.75-.83-1.5-1.22-2.25a3.53,3.53,0,0,1-.26-1.44,6.33,6.33,0,0,1,.42-2.41,2.1,2.1,0,0,1,1.09-1.29,6.45,6.45,0,0,0,2.24-1.41,5.14,5.14,0,0,1,2.88-1.54A7.62,7.62,0,0,0,176,50c.13-.08.49-.27,1.09-.57a3.86,3.86,0,0,1,1.44-.52l1.31,0,2.46.06q1.38,0,2.76-.12a3.3,3.3,0,0,0,1.42-.61,2.66,2.66,0,0,0,.95-1.08,3.37,3.37,0,0,0,.22-1.17,3.66,3.66,0,0,0-.54-2c-1.2-1.75-2.3-2.73-3.3-2.92a12.51,12.51,0,0,0-2-.29,7.81,7.81,0,0,0-4.16,1.38,5.05,5.05,0,0,0-1.09,1.12,5.45,5.45,0,0,1-1.05,1.13l-.39.29A15.75,15.75,0,0,1,170.77,47a3.8,3.8,0,0,1-.7.06,7.76,7.76,0,0,1-3-.87c-.13-.06-.21-.35-.26-.86a2,2,0,0,0-.25-1.1,1.27,1.27,0,0,1-.26-.67,1.05,1.05,0,0,1,.45-.71,1.94,1.94,0,0,0,.32-.32,9.52,9.52,0,0,0,1.5-2.6c.24-.62.59-.93,1.06-.93a1.6,1.6,0,0,1,.61.13,2.65,2.65,0,0,0,1,.22,2.42,2.42,0,0,0,2.05-1.28c.79-1,2.13-1.58,4-1.58a6.34,6.34,0,0,1,1.93.29c1.4.49,2.83,1,4.28,1.38q6.41,1.74,7,2.83a.72.72,0,0,1,.1.32v.06a3.72,3.72,0,0,0-.1.84,13.49,13.49,0,0,0,.45,2.7,8,8,0,0,1,.36,1.86c0,.28-.1.43-.29.45a34.94,34.94,0,0,0-.2,4.69q0,4.86,1.89,5.95A9.08,9.08,0,0,1,195.84,61,13.45,13.45,0,0,0,197.28,63a2.94,2.94,0,0,1,.51,1.86,2.57,2.57,0,0,1-.77,1.93,2,2,0,0,1-1,.58A7.91,7.91,0,0,1,195,67.38Zm-19.18-7.84c.32,0,.77-.13,1.35-.26l.51,0H178l.45,0,1.09,0c2,0,3.28-.29,3.75-.74A11.28,11.28,0,0,0,185.4,55a2.77,2.77,0,0,0,.26-1c0-.34-.26-.57-.77-.7a1.76,1.76,0,0,0-.61-.13,9.59,9.59,0,0,0-1.38.29,17.55,17.55,0,0,1-4.06.64,8.35,8.35,0,0,1-2.34-.35h-.13a1.41,1.41,0,0,0-.7.25,2.09,2.09,0,0,0-.64.61c-.49,1-.94,1.92-1.34,2.93l-.48,1.16a8,8,0,0,0,2.49.83Z"/><path class="cls-1" d="M220.74,66a1,1,0,0,1-.67-.19,5,5,0,0,0-2-.85,11.81,11.81,0,0,0-1.75-.15c-.32,0-.64,0-1,0s-.65,0-1,0-.63,0-.93,0l-1.47,0a31,31,0,0,0-3.72.23c-1.43.15-2.48.22-3.16.22a2.36,2.36,0,0,1-1.29-.25q-.51-.39-.51-1.83a2.22,2.22,0,0,1,2.31-2.54,8.31,8.31,0,0,1,1.76.19,11.5,11.5,0,0,0,1.41.23,1.8,1.8,0,0,0,1.5-.52,21.71,21.71,0,0,0,2.5-6.62l.25-1.06-.22-1.38,0-1a7.92,7.92,0,0,0-.16-1.61,8,8,0,0,1-.16-1.61c0-1.24.05-2.86.16-4.85a2.9,2.9,0,0,0-.83-1.9A2.51,2.51,0,0,0,210,39.36h0a3.18,3.18,0,0,1-.51.26,7.62,7.62,0,0,1-2.95.74,1.75,1.75,0,0,1-1.63-1.1,3.3,3.3,0,0,1-.38-1.44,2.38,2.38,0,0,1,.89-1.8,1.92,1.92,0,0,1,1.16-.32,4.62,4.62,0,0,1,1.4.29,8.31,8.31,0,0,0,2.73.61,4,4,0,0,0,1.85-.49.85.85,0,0,1,.35-.06,10.17,10.17,0,0,1,1.54.45,29.88,29.88,0,0,1,3.36,1.22,2.4,2.4,0,0,0,1,.23,3.48,3.48,0,0,0,1.57-.52,5.93,5.93,0,0,1,.86-.38,33.65,33.65,0,0,0,5-2.06,4,4,0,0,1,2.4-1,3.58,3.58,0,0,1,2.75,1.57,15.07,15.07,0,0,0,1.68,1.53,17.9,17.9,0,0,1,1.65,1.46,8.16,8.16,0,0,1,2.37,5.65,3,3,0,0,1-2.24,3,4.92,4.92,0,0,1-2.18.61c-.56,0-1.09-.59-1.6-1.77a15.31,15.31,0,0,0-1.86-1.35L227,44.37c-1.75,0-2.68.05-2.8.07a1.93,1.93,0,0,1-.33,0,1.45,1.45,0,0,1-.55-.1c-.27-.08-.44-.37-.51-.86,0,0,0-.09-.16-.13a1.81,1.81,0,0,0-.37-.1l-.37-.06a4.63,4.63,0,0,0-.54,0l-.45,0-.61.61a2.24,2.24,0,0,0-2.4,2.19,26.43,26.43,0,0,0,.2,4.08c.06.3.17,1.1.32,2.41a7.58,7.58,0,0,0,1.08,3.37l.55,1.16a5.26,5.26,0,0,0,4.51,3.31,6,6,0,0,1,3.11,1.41,2.17,2.17,0,0,1,.73,1.38c0,.56-.43,1-1.31,1.42A44.19,44.19,0,0,1,222.37,66Z"/><path class="cls-1" d="M261.14,66.19a10.37,10.37,0,0,1-7.3-3.31,9.72,9.72,0,0,1-2.47-6.52c0-.56,0-1.22,0-2h-.13l.16-2.8c.15-1.78.23-3.55.23-5.33a4.2,4.2,0,0,0-.67-2.25,11.23,11.23,0,0,0-2.63-3,3.91,3.91,0,0,0-1.86-.87l-.86,0a6.06,6.06,0,0,1-1.82-.22c-.47-.15-.71-.56-.71-1.22a3.56,3.56,0,0,1,.45-1.51c.58-1.08,1.8-1.61,3.68-1.61l1,0a2.22,2.22,0,0,0,.76-.11,2.25,2.25,0,0,0,.77-.82A11.38,11.38,0,0,0,251.49,31a30.8,30.8,0,0,0,.75-4,2.12,2.12,0,0,1,.89-1.16,2.59,2.59,0,0,1,1.51-.58c1.51,0,2.27.7,2.27,2.09v.13a69.09,69.09,0,0,0,.39,7.3c.12,1,.63,1.57,1.5,1.57l.54,0c1-.09,2.05-.14,3.08-.16,1.24,0,2.27-.11,3.1-.2a15.47,15.47,0,0,1,1.92-.12,16.6,16.6,0,0,1,4.64.7,1.66,1.66,0,0,1,.93.84,2.9,2.9,0,0,1,.36,1.12c0,.39-.36.76-1.06,1.13a8.61,8.61,0,0,1-3.71.58c-1.67,0-3.33,0-5,0l-4.34,0a3,3,0,0,0-1.54.32c-.34.22-.58.8-.73,1.74a41.53,41.53,0,0,0-.55,6.75,42.4,42.4,0,0,0,.39,5.72,2.36,2.36,0,0,0,0,.35v.13a.49.49,0,0,1-.16.38,1.77,1.77,0,0,0-.42,1.06,4,4,0,0,0,.32,1.42,6.62,6.62,0,0,1,.36,1.06,3.22,3.22,0,0,0,1.88,2.38,3.76,3.76,0,0,0,1.54.32,5.36,5.36,0,0,0,1.19-.16,6.12,6.12,0,0,0,4.25-3.22,12.86,12.86,0,0,0,1-2.25q1.31-3.59,2.78-3.59a1.87,1.87,0,0,1,1.31.61,2.23,2.23,0,0,1,.71,1.09,10.81,10.81,0,0,1,.12,1.61,10,10,0,0,1-1.18,4.62A10.34,10.34,0,0,1,265.94,65,11.45,11.45,0,0,1,261.14,66.19Z"/><path class="cls-1" d="M333.26,65.65a14.45,14.45,0,0,1-6.89-2A11.61,11.61,0,0,1,321.16,58a65.46,65.46,0,0,1-2.26-6.59,27.11,27.11,0,0,1-1-7,21.18,21.18,0,0,1,.48-4.24,37.69,37.69,0,0,1,3.9-10.48,9.31,9.31,0,0,1,2.6-3.31,8.5,8.5,0,0,0,1.09-1,6.83,6.83,0,0,1,1-.87c.59-.47,2.6-1.05,6-1.73a17,17,0,0,1,2-.13,5,5,0,0,1,3.55,1.22,4.49,4.49,0,0,0,1.6,1.22l.58.35,0-.06a3.28,3.28,0,0,0,.35-.64,2,2,0,0,1,1.8-1.45,2.09,2.09,0,0,1,1.85,1.38A2.32,2.32,0,0,1,345,25.8l0,.26a22.36,22.36,0,0,0-.38,4,19,19,0,0,0,.48,4.28,4.75,4.75,0,0,1,.1.83,1.73,1.73,0,0,1-.42,1.19,2,2,0,0,1-1.66.74,2.09,2.09,0,0,1-2-1.57c-.32-1-.68-2.21-1.09-3.73-.19-.64-.3-1-.34-1.13a.91.91,0,0,0-.24-.35,19.81,19.81,0,0,0-2.65-2.51,6.16,6.16,0,0,0-3.84-1.25A9.08,9.08,0,0,0,325.8,30a13.34,13.34,0,0,0-3,6.91v.16a46.66,46.66,0,0,0-.7,7.36q0,10.16,6.21,15.58a6.38,6.38,0,0,0,4.32,1.51,8.78,8.78,0,0,0,1.53-.13q4.88-.93,6.66-6.26a8.42,8.42,0,0,0,.39-2.57c0-1.07-.05-2.17-.13-3.28a2.37,2.37,0,0,0-.55-.39,4.41,4.41,0,0,0-2-.41l-2.37.06c-1.58,0-2.37-.65-2.37-2a1.67,1.67,0,0,1,.26-1,2.67,2.67,0,0,1,1.72-.81c.62-.1,3-.18,7.11-.22q5.76-.16,6.92-.16c1.94,0,2.91.65,2.91,2a2.32,2.32,0,0,1-.85,1.89,3,3,0,0,1-2,.71c-.77-.06-1.38-.1-1.83-.1a2.63,2.63,0,0,0-2,.55,3.25,3.25,0,0,0-.52,2.22c0,.36,0,.78.07,1.25s.06,1.12.06,1.67l-.09,3.54q0,.79.09,1.86a5.91,5.91,0,0,0,.8,2.31,2.2,2.2,0,0,1,.29,1.06,2,2,0,0,1-1.54,2,2.63,2.63,0,0,1-.8.13,2.71,2.71,0,0,1-1.63-.55,3.06,3.06,0,0,1-1.06-1.45l-.28-1c-.58.37-1.72,1.06-3.43,2.06A9.48,9.48,0,0,1,333.26,65.65Z"/><path class="cls-1" d="M387.1,67.38a7.85,7.85,0,0,1-4.64-1.54,4.45,4.45,0,0,0-2.39-.9l-1.3,0a5.81,5.81,0,0,0-3.26.83.76.76,0,0,1-.35.23q-6.46.51-7.91.51-.93,0-1.86-.09a17.3,17.3,0,0,0-2.14-.13H363a4,4,0,0,1-1-.13,1.79,1.79,0,0,1-1-1.06,40.54,40.54,0,0,0-2-3.83c-.43-.75-.83-1.5-1.22-2.25a3.54,3.54,0,0,1-.25-1.44,6.34,6.34,0,0,1,.41-2.41,2.1,2.1,0,0,1,1.09-1.29,6.45,6.45,0,0,0,2.24-1.41,5.14,5.14,0,0,1,2.88-1.54A7.62,7.62,0,0,0,368,50c.13-.08.49-.27,1.09-.57a3.86,3.86,0,0,1,1.44-.52l1.31,0,2.47.06c.91,0,1.83,0,2.75-.12a3.3,3.3,0,0,0,1.42-.61,2.66,2.66,0,0,0,.95-1.08,3.15,3.15,0,0,0,.22-1.17,3.66,3.66,0,0,0-.54-2c-1.2-1.75-2.3-2.73-3.3-2.92a12.51,12.51,0,0,0-2-.29,7.81,7.81,0,0,0-4.16,1.38,5.05,5.05,0,0,0-1.09,1.12,5.45,5.45,0,0,1-1.05,1.13l-.39.29A15.75,15.75,0,0,1,362.83,47a3.73,3.73,0,0,1-.7.06,7.76,7.76,0,0,1-3-.87c-.13-.06-.21-.35-.26-.86a2,2,0,0,0-.25-1.1,1.27,1.27,0,0,1-.26-.67,1.05,1.05,0,0,1,.45-.71,1.94,1.94,0,0,0,.32-.32,9.52,9.52,0,0,0,1.5-2.6c.24-.62.59-.93,1.06-.93a1.56,1.56,0,0,1,.61.13,2.65,2.65,0,0,0,1,.22,2.42,2.42,0,0,0,2.05-1.28c.79-1,2.14-1.58,4-1.58a6.33,6.33,0,0,1,1.92.29q2.1.74,4.29,1.38,6.39,1.74,7,2.83a.82.82,0,0,1,.09.32v.06a3.73,3.73,0,0,0-.09.84,13.27,13.27,0,0,0,.44,2.7,8,8,0,0,1,.36,1.86c0,.28-.1.43-.29.45a35.53,35.53,0,0,0-.19,4.69q0,4.86,1.88,5.95A9.08,9.08,0,0,1,387.9,61,13.45,13.45,0,0,0,389.34,63a2.94,2.94,0,0,1,.51,1.86,2.57,2.57,0,0,1-.77,1.93,2,2,0,0,1-1,.58A7.78,7.78,0,0,1,387.1,67.38Zm-19.18-7.84c.32,0,.77-.13,1.35-.26l.51,0H370l.44,0,1.09,0c2,0,3.28-.29,3.75-.74A11.28,11.28,0,0,0,377.46,55a2.77,2.77,0,0,0,.26-1c0-.34-.26-.57-.77-.7a1.76,1.76,0,0,0-.61-.13,9.31,9.31,0,0,0-1.37.29,17.7,17.7,0,0,1-4.07.64,8.35,8.35,0,0,1-2.34-.35h-.12a1.41,1.41,0,0,0-.71.25,2.09,2.09,0,0,0-.64.61c-.49,1-.94,1.92-1.34,2.93l-.48,1.16a8.08,8.08,0,0,0,2.49.83Z"/><path class="cls-1" d="M428.9,65.9q-4.54,0-9-.19a3.94,3.94,0,0,1-1.66-.48l-.84-.45-.19-.23s-.05,0-.1.07a1.71,1.71,0,0,1-1.4.87q-3.4,0-6.85-.2a1.86,1.86,0,0,1-1.32-1l0-.52a3.4,3.4,0,0,1,.16-1c.17-.12.35-.26.53-.41a2.66,2.66,0,0,1,1.07-.39,3.87,3.87,0,0,0,.83-.21,1.86,1.86,0,0,0,0-.59,23.4,23.4,0,0,1-.26-3.25L410,54c.07-1.86.1-3.75.1-5.66s-.06-4-.19-6.13a2.94,2.94,0,0,0-2-3A2.38,2.38,0,0,0,407,39a3.41,3.41,0,0,0-2.43,1.41,8,8,0,0,0-2.28,5.85l0,.64c0,2.34-.06,4.24-.16,5.69q-.16,3-.16,9.26a3.45,3.45,0,0,1,.86-.07,4.87,4.87,0,0,1,2.79.9c.06.62.09,1.09.09,1.42,0,.66-.62,1.09-1.86,1.28-2.36.11-5.26.16-8.67.16a2.36,2.36,0,0,1-1.54-.74,6.84,6.84,0,0,1-.22-1.38.41.41,0,0,1,.1-.32c.68-.69,2.15-1.21,4.41-1.58a2.22,2.22,0,0,0,0-.41q.22-6.75.23-8.07.28-9.31.35-10.35c.06-.77.11-1.54.13-2.31,0-.47-.09-.75-.19-.83a.59.59,0,0,0-.39-.13,4.28,4.28,0,0,1-2-.42l-1.32-.45.36-2.19c2.54.2,4.27.37,5.21.52a1.7,1.7,0,0,1,1,.83l.38.87.45-.54a4.92,4.92,0,0,1,4.32-2.19q5.64,0,6.63,3.79A6.94,6.94,0,0,1,414.75,38a8,8,0,0,1,5.09-2.28q3.21,0,5.38,3.25a7.7,7.7,0,0,1,1,3,18.17,18.17,0,0,1,.1,1.92l-.06,2.57c.06,2.47.09,4.95.09,7.46q0,4.59-.06,7.65l.73,0c2,0,3.35.41,4.1,1.23a1.5,1.5,0,0,1,.42,1,2,2,0,0,1-1.09,1.67A2.8,2.8,0,0,1,428.9,65.9Zm-11.59-2.76A2.46,2.46,0,0,1,419.78,62c.26,0,.5,0,.74,0a2.43,2.43,0,0,0,.57,0q1.35,0,1.35-.93a3.75,3.75,0,0,0-.16-.78,7.94,7.94,0,0,1-.42-2.66A13.25,13.25,0,0,1,422,56a15.76,15.76,0,0,0,.09-1.68c0-.74-.06-1.82-.19-3.21-.09-1.16-.16-2.33-.22-3.53q0-1.55.12-3.06l.29-3.5c0-.73-.5-1.29-1.5-1.7a3.48,3.48,0,0,0-1.38-.36,1.58,1.58,0,0,0-1.25.62q-3.78,4.81-3.84,5.52c.09,1.14.13,2.2.13,3.18a31.91,31.91,0,0,1-.35,4.7,45.14,45.14,0,0,0-.39,5.46c0,.68,0,1.82.13,3.4,0,.09.3.14.9.16a3,3,0,0,1,2.59,1Z"/><path class="cls-1" d="M449.81,65.9A11.75,11.75,0,0,1,442,63.27a20.61,20.61,0,0,1-4.67-7.91,5.51,5.51,0,0,0-.58-1.27,2.48,2.48,0,0,1-.38-1.3,2.8,2.8,0,0,1,.09-.7c0-1.05.05-2.11.13-3.19a19,19,0,0,1,2.56-7,10.54,10.54,0,0,1,2.31-2.8l.83-.77a10.22,10.22,0,0,1,3.55-2.38,13,13,0,0,1,3.62-1l1.44,0a9.39,9.39,0,0,1,4.35,1.12,4.9,4.9,0,0,0,1.54.51,6.83,6.83,0,0,1,2.34.87,11.65,11.65,0,0,0,1.25,1,18.25,18.25,0,0,1,3.39,3.15c.66,1.13,1,3,1,5.62.07,0,.1.15.1.45a4.88,4.88,0,0,1-.83,2.86,6.68,6.68,0,0,1-5.13,2.19,2.48,2.48,0,0,1-1.56-.39,3.39,3.39,0,0,0-1.88-1.14,13.06,13.06,0,0,0-1.52-.11,10.74,10.74,0,0,0-1.37.09c-1.18.09-2.36.13-3.56.13-.45,0-2.2-.05-5.25-.16a4.82,4.82,0,0,0-1.17.15,1.84,1.84,0,0,0-1.07.94,2.31,2.31,0,0,0-.38,1.19,2.45,2.45,0,0,0,.64,1.58c.23.51.45,1,.64,1.51a9.62,9.62,0,0,0,.86,1.83,6.75,6.75,0,0,0,1.83,1.73,6.9,6.9,0,0,0,3.49,1.68H450a8.3,8.3,0,0,0,4.57-1.35,6.43,6.43,0,0,0,1.51-2.06l.64-1.13a4.16,4.16,0,0,1,3.42-1.89,3.8,3.8,0,0,1,3.43,2.25,3,3,0,0,1,.22,1.25,1.36,1.36,0,0,1-.28.9A15.26,15.26,0,0,1,460,62.85,18.53,18.53,0,0,1,449.81,65.9ZM457,47.36l.35-1.77a2.93,2.93,0,0,0,.06-.61,3.5,3.5,0,0,0-.29-1.35c-.62-1.37-1.4-2.05-2.37-2.05a6.33,6.33,0,0,0-1.64.22c-.57.15-1.19.29-1.88.42a6.78,6.78,0,0,1-2,.32,6.56,6.56,0,0,1-1.08-.09,6.48,6.48,0,0,0-1.92-.36,4.42,4.42,0,0,0-3,1.58c-.52.49-.78.87-.79,1.14s0,.41,0,.43a3,3,0,0,0,.34,1.37c.22.44.41.67.56.69l.39,0a2.92,2.92,0,0,0,.6-.08,17.25,17.25,0,0,1,1.86-.15c.77-.08,1.56-.13,2.37-.16a8.2,8.2,0,0,1,1.12.08,6.58,6.58,0,0,0,1.09.08c.53,0,1.09-.06,1.66-.12a20.41,20.41,0,0,1,2.37-.13,7.74,7.74,0,0,1,1.95.38Z"/></g></g></svg>