<svg xmlns="http://www.w3.org/2000/svg" viewBox="0 0 650 50"><defs><style>.cls-1{fill:red;}.cls-2{fill:#ff2020;}</style></defs><g id="Layer_2" data-name="Layer 2"><g id="Layer_1-2" data-name="Layer 1"><path d="M2.8,45.1c2,1,5.47,1.1,8.75,1.27A21.7,21.7,0,0,0,2.8,45.1Z"/><path d="M11.62,46.39h-.07Z"/><path d="M647.57,1.42l-2.7.06A18.6,18.6,0,0,0,647.57,1.42Z"/><path d="M170.38,49.28l.5-1.66c7.77,0,2.26,1.9,9.45,1.49,2.81-2.36,11.94.24,14.43-1-.06.19,3.46.26,3.24,1,1.08-1.28,3.62-.3,5.84-.63.81-.35-.59-.38-1.19-.77l5.09-.45c2,.41,2.47,1.17.31,1.31,13.29.45,77.11,1.68,91.43,1-1.84-1-6.26-.31-7.94-1.83,3.78-.85,5.57.3,7.24-.6,1.45,2.26,8.32.54,11.19,2.83l1.08-1.28,1.88.78c16.65-1.33,3.81-.65,18.57-.34,8.54-.2,12.6-2,17.35-1.32-.71,0-2.59-.8-.38-1.12.38,1.12,5.89-.81,7,.32,2.17-.14,9.19,0,6.81-1.53,1.19.77,7.46,1.08,3.73,1.75a27.68,27.68,0,0,0,5.68-.07L369,46.76c7.13-.22,11,1,15.67-.42L382,45.73c4.26-.1,7.83-.22,9.51,1.3l-4.38.47a119.14,119.14,0,0,0,17.24-1l-2.11,0c7.52-1.52,46.83-2.77,53.75-4.67l-3.19-1.18,6-1c-.71,0-2.88,3.83-3.47,3.44,12.76-.11,79.13-1,90.92-.23,4.75.66.85,1.87.8,2.06,5.78-.44,2.49-1.25,7.41-1.15,1.35.21-.28.93-1,1.09,2.16-.13,4.15.27,4.32-.28-2.7-.42-1.55-1.89-2.7-2.84l6.33.13-.28.92c1.41,0,3.58-2.52,9.8-2,10.48.4,21.87.08,32.42.29-.17.56-2.38.89-4.6,1.21a21.75,21.75,0,0,1,4.87.28c-2.55-1,4.43-.65,2.44-1.06,7.72-2.26,17.71-.2,24.53-1.73.6-2,14.6-34.87,14.6-37.29a31.83,31.83,0,0,1,4.87.29c-.55-.57-4.71-.84-6.92-.51l-.38,1.29c-5.09.45-1.19-.77-6.16-.68-.26-1.06,4.31-1.29,8.33-1.39-3.62-.12-7.23-.89-8.71.27-3.4-.44.38-1.3-3.72-1.75-2.92.31-6.76,1.35-10.12.72l.06-.19c-8.16-1.09-12.48,1.61-19.94.53l.8-.35c-2.63-.62-7.82.21-12.58-.45,1.36.22,2.54,1-.32,1.11-5.47-.67-9.2,0-13.19-.83l-3.84,1C554.28,1.38,479.1,2.85,460,3l.75-.17c-29.13.52-88.94.44-119,1.87-4.66-1-11.08-.78-15.94-1.07,2.7.43,1.78,1.15-.33,1.11-14.81-.12-1,.7-16,1.14-17.24.95-83.21-.13-98.51-1-8.22,1.5-18.48.37-26.53,1.32l.81-.36c-8.65.57-57.61-.82-67.66-.29l1.35.22c-8.76.93-7.57-.71-14.48-1.23.91,1.69-6.6,2.65-9.46,2.78L95.08,7c-4.32.28-14.11,1.75-21.24,2L74.12,8c-6,1-17.14.58-21.41.68-9.78-.38-24.86-2-37.94-.77L6.33,5.3l-1.24.26S-8.51,37.34,8.76,44.11L8.48,45l3.41-.12c4.1.45,6-.62,5.72.3L12,45.1c4.11.27,1.24.76-.33,1.28a34,34,0,0,1,4.75.48c.81-.35-.6-.38-1.24-.58,2.22-.33,5.3-1.19,8-.77,4.21.09.27,1.49,5.18,1.59,25.94.72,51.07,1.78,77.29,1.58.59.38-.12.37-.88.54,7.9-.4,14.92-.26,22.11-.67A6.84,6.84,0,0,1,130,49.91C128.83,49.15,169.73,49.08,170.38,49.28Z"/><path class="cls-1" d="M152.87,45.61a11.85,11.85,0,0,1-3.72-.53q-1.64-.53-3.3-1.23c-.38-.17-.77-.33-1.18-.49l-1.09.52a34,34,0,0,1-3.33,1.41,1,1,0,0,1-.38.07,2.64,2.64,0,0,1-.93-.2c-.77-.28-1.24-1.54-1.41-3.79-.1-1.67-.19-3.32-.25-4.95a22.56,22.56,0,0,0-.23-2.92,1.38,1.38,0,0,1-.09-.45,7.86,7.86,0,0,1,.86-1.93l.45-.87c1,1,1.54,1.58,1.73,1.84.47.72.91,1.45,1.34,2.18.56,1,1.15,1.91,1.79,2.83a3.37,3.37,0,0,0,1.19.87h0l.43.2a1.23,1.23,0,0,0,.43.15,1.35,1.35,0,0,1,.61.26,7.52,7.52,0,0,0,4.93,1.64,27.05,27.05,0,0,0,3.11-.29,12,12,0,0,0,4.45-1.19,20.58,20.58,0,0,0,4.8-4.47,1.74,1.74,0,0,0,.25-1,2.39,2.39,0,0,0-.12-.77,8.2,8.2,0,0,0-3.11-4.21,17.18,17.18,0,0,0-7-2.83,22.58,22.58,0,0,1-5.67-1.49q-2.71-1.11-5.31-2.43a3.68,3.68,0,0,1-1.79-1.73,11,11,0,0,1-.77-2.22,11.34,11.34,0,0,1-.48-3,8.84,8.84,0,0,1,.61-3.25,10,10,0,0,1,5-5.91,35.07,35.07,0,0,1,6.56-2.18h.06a14.88,14.88,0,0,1,3-.55,4.47,4.47,0,0,1,2.66.83.22.22,0,0,0,.19.07,2.53,2.53,0,0,0,1-.29,6.89,6.89,0,0,1,2.43-.42c.36,0,1.08,0,2.15.13l2.24.1a2.35,2.35,0,0,1,.89.16c.28.1.49.43.63,1a5.31,5.31,0,0,0,.72,1.58A10.8,10.8,0,0,1,167.72,7a3.42,3.42,0,0,1,.16,1v.19c0,.23.07,1.05.22,2.44a32.87,32.87,0,0,1,.39,4.11,3.82,3.82,0,0,1-.37,1.5,1.79,1.79,0,0,1-.9,1,3.44,3.44,0,0,1-1.2.19,9,9,0,0,1-2.34-.32.61.61,0,0,1-.38-.16,2.51,2.51,0,0,1-.61-1.25,15.89,15.89,0,0,1-.62-2.62,3.62,3.62,0,0,0-.93-2,10.45,10.45,0,0,0-1.71-1.43c-.41-.3-.8-.61-1.19-.93a4.54,4.54,0,0,0-3.07-.8,8.9,8.9,0,0,1-3.3-.84,3.66,3.66,0,0,0-1.34-.22A7.33,7.33,0,0,0,145,9.62c-.47.48-1,.94-1.47,1.39a4.59,4.59,0,0,0-1.47,3.76,2.24,2.24,0,0,0,.21,1,3.56,3.56,0,0,0,1,1.12l.06,0a27.52,27.52,0,0,0,4.13,3A13.52,13.52,0,0,0,151.33,21l.64.13q3.39.7,6.75,1.25a9.83,9.83,0,0,0,1.83.23l.72,0q.36,0,.75,0h.26a3.44,3.44,0,0,1,1.47.32q4.63,2.93,4.64,7.23l0,.87,0,.19a10.61,10.61,0,0,1,.64,3.25,8.73,8.73,0,0,1-.78,3.26,13.46,13.46,0,0,1-2.52,3.78,9.23,9.23,0,0,1-6.94,3.69c-1.11,0-2.2.08-3.27.16C154.65,45.54,153.76,45.59,152.87,45.61Z"/><path class="cls-1" d="M194.13,46.19a10.37,10.37,0,0,1-7.3-3.31,9.67,9.67,0,0,1-2.47-6.52c0-.56,0-1.22,0-2h-.13l.16-2.8c.15-1.78.23-3.55.23-5.33a4.2,4.2,0,0,0-.67-2.25,11.4,11.4,0,0,0-2.63-3,3.91,3.91,0,0,0-1.86-.87l-.86,0a6.18,6.18,0,0,1-1.83-.22c-.46-.15-.7-.56-.7-1.22a3.56,3.56,0,0,1,.45-1.51c.57-1.07,1.8-1.61,3.68-1.61l1,0a2.29,2.29,0,0,0,.77-.11,2.33,2.33,0,0,0,.77-.82A11.49,11.49,0,0,0,184.48,11a30.8,30.8,0,0,0,.75-4,2.12,2.12,0,0,1,.89-1.16,2.59,2.59,0,0,1,1.51-.58c1.51,0,2.27.7,2.27,2.09v.13a69.09,69.09,0,0,0,.39,7.3c.12,1.05.62,1.57,1.5,1.57l.54,0c1-.09,2-.14,3.08-.16,1.23,0,2.27-.11,3.1-.2a15.47,15.47,0,0,1,1.92-.12,16.66,16.66,0,0,1,4.64.7,1.66,1.66,0,0,1,.93.84,2.71,2.71,0,0,1,.35,1.12c0,.39-.35.76-1,1.13a8.66,8.66,0,0,1-3.72.58c-1.66,0-3.32,0-5,0l-4.34,0a3,3,0,0,0-1.54.32c-.34.22-.58.8-.73,1.74a41.53,41.53,0,0,0-.55,6.75,42.4,42.4,0,0,0,.39,5.72,2.36,2.36,0,0,0,0,.35v.13a.49.49,0,0,1-.16.38,1.77,1.77,0,0,0-.42,1.06,4,4,0,0,0,.32,1.42,6.62,6.62,0,0,1,.36,1.06,3.22,3.22,0,0,0,1.88,2.38,3.72,3.72,0,0,0,1.54.32,5.2,5.2,0,0,0,1.18-.16,6.11,6.11,0,0,0,4.26-3.22,12.14,12.14,0,0,0,1-2.25q1.32-3.59,2.79-3.59a1.89,1.89,0,0,1,1.31.61,2.27,2.27,0,0,1,.71,1.09,10.81,10.81,0,0,1,.12,1.61,10,10,0,0,1-1.18,4.62A10.34,10.34,0,0,1,198.93,45,11.45,11.45,0,0,1,194.13,46.19Z"/><path class="cls-1" d="M243.26,47.38a7.87,7.87,0,0,1-4.64-1.54,4.42,4.42,0,0,0-2.38-.9l-1.3,0a5.85,5.85,0,0,0-3.27.83.76.76,0,0,1-.35.23q-6.47.51-7.9.51-.93,0-1.86-.09a17.46,17.46,0,0,0-2.15-.13h-.22a3.89,3.89,0,0,1-1-.13,1.73,1.73,0,0,1-1-1.06,38.39,38.39,0,0,0-2-3.83c-.42-.75-.83-1.5-1.21-2.25a3.53,3.53,0,0,1-.26-1.44,6.33,6.33,0,0,1,.42-2.41,2.07,2.07,0,0,1,1.09-1.29,6.45,6.45,0,0,0,2.24-1.41,5.14,5.14,0,0,1,2.88-1.54,7.54,7.54,0,0,0,3.77-.94c.13-.08.49-.27,1.09-.57a3.86,3.86,0,0,1,1.44-.52l1.32,0,2.46.06c.92,0,1.83,0,2.75-.12a3.33,3.33,0,0,0,1.43-.61,2.63,2.63,0,0,0,.94-1.08,3.17,3.17,0,0,0,.23-1.17,3.66,3.66,0,0,0-.55-2C234.1,22.14,233,21.16,232,21a12.44,12.44,0,0,0-2-.29,7.79,7.79,0,0,0-4.16,1.38,4.84,4.84,0,0,0-1.09,1.12,5.23,5.23,0,0,1-1.06,1.13l-.38.29A16.05,16.05,0,0,1,219,27a3.92,3.92,0,0,1-.71.06,7.73,7.73,0,0,1-3-.87c-.13-.06-.22-.35-.26-.86a2,2,0,0,0-.26-1.1,1.24,1.24,0,0,1-.25-.67,1.07,1.07,0,0,1,.44-.71,2,2,0,0,0,.33-.32,9.52,9.52,0,0,0,1.5-2.6c.23-.62.59-.93,1.06-.93a1.51,1.51,0,0,1,.6.13,2.73,2.73,0,0,0,1,.22,2.43,2.43,0,0,0,2.05-1.28c.79-1,2.13-1.58,4-1.58a6.33,6.33,0,0,1,1.92.29q2.11.74,4.29,1.38c4.27,1.16,6.6,2.1,7,2.83a.87.87,0,0,1,.1.32v.07a3.1,3.1,0,0,0-.1.83,13.49,13.49,0,0,0,.45,2.7,8.37,8.37,0,0,1,.35,1.86c0,.28-.1.43-.29.45a35.53,35.53,0,0,0-.19,4.69q0,4.86,1.89,5.95A9.07,9.07,0,0,1,244.06,41,15.13,15.13,0,0,0,245.5,43a2.94,2.94,0,0,1,.51,1.86,2.56,2.56,0,0,1-.76,1.93,2,2,0,0,1-1,.58A7.94,7.94,0,0,1,243.26,47.38Zm-19.17-7.84c.32,0,.77-.13,1.34-.26l.51,0h.26l.45,0,1.09,0c2,0,3.27-.29,3.74-.74A11.28,11.28,0,0,0,233.63,35a2.73,2.73,0,0,0,.25-1c0-.34-.25-.57-.77-.7a1.67,1.67,0,0,0-.6-.13,9.59,9.59,0,0,0-1.38.29,17.62,17.62,0,0,1-4.07.64,8.34,8.34,0,0,1-2.33-.35h-.13a1.38,1.38,0,0,0-.7.25,2,2,0,0,0-.64.61c-.5,1-.94,1.92-1.35,2.93l-.48,1.16a8.1,8.1,0,0,0,2.5.83Z"/><path class="cls-1" d="M269,46a1,1,0,0,1-.68-.19,4.92,4.92,0,0,0-2-.85,11.57,11.57,0,0,0-1.74-.15c-.32,0-.65,0-1,0s-.66,0-1,0-.63,0-.92,0l-1.48,0a30.92,30.92,0,0,0-3.71.23c-1.43.15-2.49.22-3.17.22a2.32,2.32,0,0,1-1.28-.25q-.51-.39-.51-1.83a2.22,2.22,0,0,1,2.3-2.54,8.17,8.17,0,0,1,1.76.19,11.5,11.5,0,0,0,1.41.23,1.81,1.81,0,0,0,1.51-.52A21.69,21.69,0,0,0,261,34l.26-1.06L261,31.54l0-1a8.7,8.7,0,0,0-.16-1.61,8,8,0,0,1-.16-1.61c0-1.24.05-2.86.16-4.85a2.9,2.9,0,0,0-.83-1.9,2.51,2.51,0,0,0-1.86-1.25h0a3.42,3.42,0,0,1-.52.26,7.62,7.62,0,0,1-2.94.74,1.74,1.74,0,0,1-1.63-1.1,3.19,3.19,0,0,1-.39-1.44,2.36,2.36,0,0,1,.9-1.8,1.89,1.89,0,0,1,1.15-.32,4.73,4.73,0,0,1,1.41.29,8.31,8.31,0,0,0,2.72.61,4.15,4.15,0,0,0,1.86-.48.68.68,0,0,1,.35-.07,10.17,10.17,0,0,1,1.54.45A29.88,29.88,0,0,1,266,17.72a2.4,2.4,0,0,0,1,.23,3.52,3.52,0,0,0,1.57-.52,5.1,5.1,0,0,1,.86-.38,33.31,33.31,0,0,0,5-2.06,4,4,0,0,1,2.4-1,3.61,3.61,0,0,1,2.76,1.57,15.07,15.07,0,0,0,1.68,1.53,19.17,19.17,0,0,1,1.64,1.46,8.08,8.08,0,0,1,2.37,5.65,3,3,0,0,1-2.24,3,4.88,4.88,0,0,1-2.17.61c-.56,0-1.09-.59-1.6-1.77a15.31,15.31,0,0,0-1.86-1.35l-2.05-.32c-1.75,0-2.68.05-2.8.07l-.34,0a1.4,1.4,0,0,1-.54-.1c-.28-.08-.45-.37-.51-.86,0-.05-.06-.09-.16-.13a1.81,1.81,0,0,0-.37-.1l-.37-.06a4.63,4.63,0,0,0-.54,0l-.45,0-.61.61a2.23,2.23,0,0,0-2.4,2.19,26.88,26.88,0,0,0,.19,4.08c.07.3.17,1.1.32,2.41a7.48,7.48,0,0,0,1.09,3.37l.54,1.16a5.27,5.27,0,0,0,4.52,3.31,6,6,0,0,1,3.1,1.41,2.2,2.2,0,0,1,.74,1.38c0,.56-.44,1-1.31,1.42A42,42,0,0,1,270.6,46Z"/><path class="cls-1" d="M309.36,46.19a10.41,10.41,0,0,1-7.3-3.31,9.66,9.66,0,0,1-2.46-6.52c0-.56,0-1.22,0-2h-.13l.16-2.8c.15-1.78.22-3.55.22-5.33a4.11,4.11,0,0,0-.67-2.25,11.22,11.22,0,0,0-2.62-3,4,4,0,0,0-1.86-.87l-.86,0a6.18,6.18,0,0,1-1.83-.22c-.47-.15-.7-.56-.7-1.22a3.56,3.56,0,0,1,.45-1.51c.57-1.07,1.8-1.61,3.68-1.61l1,0a2.29,2.29,0,0,0,.77-.11,2.33,2.33,0,0,0,.77-.82A11.25,11.25,0,0,0,299.71,11a30.8,30.8,0,0,0,.75-4,2.19,2.19,0,0,1,.9-1.16,2.54,2.54,0,0,1,1.5-.58c1.52,0,2.28.7,2.28,2.09v.13a71.84,71.84,0,0,0,.38,7.3c.13,1.05.63,1.57,1.51,1.57l.54,0c1-.09,2.05-.14,3.07-.16,1.24,0,2.28-.11,3.11-.2a15.47,15.47,0,0,1,1.92-.12,16.66,16.66,0,0,1,4.64.7,1.66,1.66,0,0,1,.93.84,2.87,2.87,0,0,1,.35,1.12c0,.39-.35.76-1.06,1.13a8.58,8.58,0,0,1-3.71.58c-1.66,0-3.32,0-5,0l-4.33,0a3,3,0,0,0-1.54.32,2.56,2.56,0,0,0-.74,1.74,42.66,42.66,0,0,0-.54,6.75,44.08,44.08,0,0,0,.38,5.72,1.56,1.56,0,0,0,0,.35v.13a.53.53,0,0,1-.16.38,1.77,1.77,0,0,0-.42,1.06,4,4,0,0,0,.32,1.42,5.72,5.72,0,0,1,.35,1.06,3.26,3.26,0,0,0,1.89,2.38,3.72,3.72,0,0,0,1.54.32,5.27,5.27,0,0,0,1.18-.16,6.16,6.16,0,0,0,4.26-3.22,13.64,13.64,0,0,0,1-2.25c.88-2.39,1.8-3.59,2.79-3.59a1.91,1.91,0,0,1,1.31.61,2.24,2.24,0,0,1,.7,1.09,9.63,9.63,0,0,1,.13,1.61,10,10,0,0,1-1.18,4.62A10.36,10.36,0,0,1,314.16,45,11.38,11.38,0,0,1,309.36,46.19Z"/><path class="cls-1" d="M381.48,45.65a14.42,14.42,0,0,1-6.88-2A11.67,11.67,0,0,1,369.38,38a68,68,0,0,1-2.25-6.59,26.69,26.69,0,0,1-1-7,21.18,21.18,0,0,1,.48-4.24,37.07,37.07,0,0,1,3.9-10.48,9.3,9.3,0,0,1,2.59-3.31,8.5,8.5,0,0,0,1.09-1,8.17,8.17,0,0,1,1-.87q.9-.71,6-1.73a17,17,0,0,1,2-.13,5,5,0,0,1,3.55,1.22,4.4,4.4,0,0,0,1.6,1.22l.58.35,0-.06a3.28,3.28,0,0,0,.35-.64c.41-1,1-1.45,1.79-1.45a2.1,2.1,0,0,1,1.86,1.38,2.41,2.41,0,0,1,.35,1.16l0,.26a21.48,21.48,0,0,0-.38,4,19,19,0,0,0,.48,4.28,4.63,4.63,0,0,1,.09.83,1.77,1.77,0,0,1-.41,1.19,2,2,0,0,1-1.67.74,2.1,2.1,0,0,1-2-1.57c-.32-1-.68-2.21-1.08-3.73-.2-.64-.31-1-.34-1.13a.91.91,0,0,0-.24-.35A19.86,19.86,0,0,0,385,7.82a6.16,6.16,0,0,0-3.84-1.25A9.1,9.1,0,0,0,374,10a13.25,13.25,0,0,0-3,6.91v.16a46.67,46.67,0,0,0-.71,7.36q0,10.15,6.21,15.58a6.41,6.41,0,0,0,4.32,1.51,8.81,8.81,0,0,0,1.54-.13q4.86-.93,6.66-6.26a8.73,8.73,0,0,0,.38-2.57c0-1.07,0-2.17-.13-3.28a2,2,0,0,0-.54-.39,4.45,4.45,0,0,0-2-.41l-2.37.06c-1.57,0-2.36-.65-2.36-2a1.67,1.67,0,0,1,.25-1,2.72,2.72,0,0,1,1.73-.81c.62-.1,3-.18,7.11-.22q5.76-.17,6.91-.16c1.94,0,2.91.65,2.91,2a2.34,2.34,0,0,1-.84,1.89,3.06,3.06,0,0,1-2,.71c-.77-.06-1.37-.1-1.82-.1a2.66,2.66,0,0,0-2,.55,3.31,3.31,0,0,0-.51,2.22c0,.36,0,.78.06,1.25s.07,1.12.07,1.67l-.1,3.54c0,.53,0,1.15.1,1.86a5.75,5.75,0,0,0,.8,2.31,2.2,2.2,0,0,1,.29,1.06,2,2,0,0,1-1.54,2,2.64,2.64,0,0,1-2.43-.42,3,3,0,0,1-1.06-1.45l-.29-1c-.57.37-1.72,1.06-3.42,2.06A9.54,9.54,0,0,1,381.48,45.65Z"/><path class="cls-1" d="M435.32,47.38a7.87,7.87,0,0,1-4.64-1.54,4.42,4.42,0,0,0-2.38-.9l-1.3,0a5.81,5.81,0,0,0-3.26.83.86.86,0,0,1-.36.23q-6.47.51-7.9.51-.93,0-1.86-.09a17.42,17.42,0,0,0-2.14-.13h-.23a4,4,0,0,1-1-.13,1.73,1.73,0,0,1-1-1.06,38.39,38.39,0,0,0-2-3.83c-.42-.75-.83-1.5-1.21-2.25a3.53,3.53,0,0,1-.26-1.44,6.33,6.33,0,0,1,.42-2.41,2.07,2.07,0,0,1,1.09-1.29,6.45,6.45,0,0,0,2.24-1.41,5.14,5.14,0,0,1,2.88-1.54,7.54,7.54,0,0,0,3.77-.94c.13-.08.5-.27,1.09-.57a3.86,3.86,0,0,1,1.44-.52l1.32,0,2.46.06c.92,0,1.84,0,2.75-.12a3.33,3.33,0,0,0,1.43-.61,2.63,2.63,0,0,0,.94-1.08,3.17,3.17,0,0,0,.23-1.17,3.58,3.58,0,0,0-.55-2c-1.19-1.75-2.29-2.73-3.29-2.92a12.66,12.66,0,0,0-2-.29,7.81,7.81,0,0,0-4.16,1.38,4.84,4.84,0,0,0-1.09,1.12,5.23,5.23,0,0,1-1.06,1.13l-.38.29A16.05,16.05,0,0,1,411.06,27a3.8,3.8,0,0,1-.7.06,7.76,7.76,0,0,1-3-.87c-.13-.06-.22-.35-.26-.86a2,2,0,0,0-.26-1.1,1.24,1.24,0,0,1-.25-.67,1.05,1.05,0,0,1,.45-.71,2.42,2.42,0,0,0,.32-.32,9.52,9.52,0,0,0,1.5-2.6c.24-.62.59-.93,1.06-.93a1.6,1.6,0,0,1,.61.13,2.65,2.65,0,0,0,1,.22,2.43,2.43,0,0,0,2-1.28c.79-1,2.13-1.58,4-1.58a6.33,6.33,0,0,1,1.92.29q2.11.74,4.29,1.38,6.41,1.74,7,2.83a.72.72,0,0,1,.1.32v.07a3.1,3.1,0,0,0-.1.83,13.49,13.49,0,0,0,.45,2.7,8.37,8.37,0,0,1,.35,1.86c0,.28-.09.43-.29.45a37.46,37.46,0,0,0-.19,4.69q0,4.86,1.89,5.95A9,9,0,0,1,436.12,41,15.13,15.13,0,0,0,437.56,43a2.94,2.94,0,0,1,.52,1.86,2.57,2.57,0,0,1-.77,1.93,2,2,0,0,1-1,.58A7.94,7.94,0,0,1,435.32,47.38Zm-19.17-7.84c.32,0,.77-.13,1.34-.26l.52,0h.25l.45,0,1.09,0c2,0,3.27-.29,3.74-.74A11.28,11.28,0,0,0,425.69,35a2.73,2.73,0,0,0,.25-1c0-.34-.25-.57-.76-.7a1.76,1.76,0,0,0-.61-.13,9.59,9.59,0,0,0-1.38.29,17.63,17.63,0,0,1-4.06.64,8.35,8.35,0,0,1-2.34-.35h-.13a1.38,1.38,0,0,0-.7.25,2.09,2.09,0,0,0-.64.61c-.49,1-.94,1.92-1.35,2.93l-.48,1.16a8.1,8.1,0,0,0,2.5.83Z"/><path class="cls-1" d="M477.13,45.9q-4.54,0-9-.19a4,4,0,0,1-1.67-.48l-.83-.45-.19-.23a.22.22,0,0,0-.1.07,1.72,1.72,0,0,1-1.41.87q-3.39,0-6.85-.2a1.87,1.87,0,0,1-1.31-1l0-.52a3.4,3.4,0,0,1,.16-1c.17-.12.34-.26.53-.41a2.6,2.6,0,0,1,1.07-.39,4.11,4.11,0,0,0,.83-.21,2.63,2.63,0,0,0,0-.59,23.28,23.28,0,0,1-.25-3.25l.06-3.95c.06-1.86.1-3.75.1-5.66s-.07-4-.2-6.13a2.92,2.92,0,0,0-2-3,2.43,2.43,0,0,0-.83-.16,3.43,3.43,0,0,0-2.44,1.41,8,8,0,0,0-2.27,5.85l0,.64c0,2.34,0,4.24-.16,5.69q-.17,3-.16,9.26a3.54,3.54,0,0,1,.87-.07,4.82,4.82,0,0,1,2.78.9c.06.62.1,1.09.1,1.42,0,.66-.62,1.09-1.86,1.28q-3.56.16-8.67.16a2.36,2.36,0,0,1-1.54-.74,6.84,6.84,0,0,1-.22-1.38.45.45,0,0,1,.09-.32c.68-.69,2.16-1.21,4.42-1.57a2.42,2.42,0,0,0,0-.42q.23-6.75.22-8.07c.2-6.21.31-9.66.36-10.35s.1-1.54.12-2.31c0-.47-.08-.75-.19-.83a.55.55,0,0,0-.38-.13,4.35,4.35,0,0,1-2-.42l-1.31-.45.35-2.19c2.54.2,4.28.37,5.22.52a1.65,1.65,0,0,1,1,.83l.39.87.45-.54a4.92,4.92,0,0,1,4.32-2.19q5.63,0,6.62,3.79A7,7,0,0,1,463,18a8,8,0,0,1,5.09-2.28c2.13,0,3.93,1.08,5.38,3.25a8,8,0,0,1,1,3c.06.66.1,1.3.1,1.92l-.07,2.57c.07,2.47.1,5,.1,7.46q0,4.59-.07,7.65l.74,0c2,0,3.35.4,4.1,1.22a1.53,1.53,0,0,1,.41,1,1.94,1.94,0,0,1-1.09,1.67A2.77,2.77,0,0,1,477.13,45.9Zm-11.59-2.76c.36-.77,1.19-1.16,2.47-1.16.25,0,.5,0,.73,0a2.59,2.59,0,0,0,.58,0c.89,0,1.34-.31,1.34-.93a3.17,3.17,0,0,0-.16-.78,7.94,7.94,0,0,1-.41-2.66,15.43,15.43,0,0,1,.09-1.67,13.52,13.52,0,0,0,.1-1.68c0-.74-.07-1.82-.19-3.21-.09-1.16-.16-2.33-.23-3.53,0-1,0-2.05.13-3.06l.29-3.5c0-.73-.5-1.29-1.51-1.7A3.44,3.44,0,0,0,467.4,19a1.58,1.58,0,0,0-1.25.62q-3.78,4.82-3.84,5.52c.08,1.14.13,2.2.13,3.18a30.61,30.61,0,0,1-.36,4.7,47.18,47.18,0,0,0-.38,5.46c0,.68,0,1.82.13,3.4,0,.09.3.14.89.16a3,3,0,0,1,2.6,1Z"/><path class="cls-1" d="M498,45.9a11.72,11.72,0,0,1-7.84-2.63,20.65,20.65,0,0,1-4.68-7.91,5.46,5.46,0,0,0-.57-1.27,2.4,2.4,0,0,1-.39-1.3,2.82,2.82,0,0,1,.1-.7c0-1.05,0-2.11.13-3.19a18.85,18.85,0,0,1,2.56-7,10.31,10.31,0,0,1,2.3-2.8l.84-.77A10.13,10.13,0,0,1,494,15.92a12.88,12.88,0,0,1,3.62-.95l1.44,0a9.39,9.39,0,0,1,4.35,1.12,4.74,4.74,0,0,0,1.54.51,6.77,6.77,0,0,1,2.33.87,14,14,0,0,0,1.25,1,18.32,18.32,0,0,1,3.4,3.15c.66,1.13,1,3,1,5.62q.09,0,.09.45a4.8,4.8,0,0,1-.83,2.86,6.65,6.65,0,0,1-5.12,2.19,2.49,2.49,0,0,1-1.57-.39,3.34,3.34,0,0,0-1.87-1.14,13.36,13.36,0,0,0-1.52-.11,10.89,10.89,0,0,0-1.38.09c-1.17.09-2.36.13-3.55.13-.45,0-2.2-.05-5.25-.16a4.75,4.75,0,0,0-1.17.15,1.84,1.84,0,0,0-1.07.94,2.23,2.23,0,0,0-.39,1.19A2.51,2.51,0,0,0,490,35c.24.51.45,1,.64,1.51a10.29,10.29,0,0,0,.87,1.83,6.85,6.85,0,0,0,1.82,1.73,6.94,6.94,0,0,0,3.49,1.68h1.44a8.34,8.34,0,0,0,4.58-1.35,6.41,6.41,0,0,0,1.5-2.06l.65-1.13a4.15,4.15,0,0,1,3.42-1.89,3.82,3.82,0,0,1,3.43,2.25A3.15,3.15,0,0,1,512,38.8a1.37,1.37,0,0,1-.29.9,15.21,15.21,0,0,1-3.55,3.15A18.54,18.54,0,0,1,498,45.9Zm7.17-18.54.35-1.77a2.37,2.37,0,0,0,.07-.61,3.69,3.69,0,0,0-.29-1.35c-.62-1.37-1.41-2.05-2.37-2.05a6.46,6.46,0,0,0-1.65.22c-.56.15-1.19.29-1.87.42a6.7,6.7,0,0,1-3.14.23,6.43,6.43,0,0,0-1.92-.36,4.46,4.46,0,0,0-3,1.58q-.76.73-.78,1.14c0,.27,0,.41,0,.43a2.92,2.92,0,0,0,.34,1.37c.22.44.41.67.56.69l.38,0a3.1,3.1,0,0,0,.61-.08,16.72,16.72,0,0,1,1.86-.15c.76-.08,1.55-.13,2.36-.16a8.09,8.09,0,0,1,1.12.08,6.75,6.75,0,0,0,1.09.08c.54,0,1.09-.06,1.67-.12a20.41,20.41,0,0,1,2.37-.13,7.74,7.74,0,0,1,2,.38Z"/><path class="cls-2" d="M628.85,19.1c.32.18.15.61-.73.55l-.64-.7Z"/><path class="cls-2" d="M623,20.61c-1-.32-2.25-.89-1.6-1.57,1,.66,1.28.36,2.41,1.15.88.06,1.53-.28,1.37-.54.32.18,1.36-.2,1.85.24a5.65,5.65,0,0,1-4.11.24C622.57,20.3,622.89,20.48,623,20.61Z"/><path class="cls-2" d="M537.09,24.29l.55-.1A2.58,2.58,0,0,1,537.09,24.29Z"/><path class="cls-2" d="M483.87,26.28c.41,0,.58.07.6.13C484.09,26.38,483.78,26.34,483.87,26.28Z"/><path class="cls-2" d="M474.8,27.34l.54-.07A.84.84,0,0,1,474.8,27.34Z"/><path class="cls-2" d="M537.09,24.29l-1.42.27C535.57,24.33,536.4,24.37,537.09,24.29Z"/><path class="cls-2" d="M611.08,19.23a3.14,3.14,0,0,1,.77.17l-.72-.06Z"/><path class="cls-2" d="M560.57,24.17H561a2,2,0,0,1,.37.28Z"/><path class="cls-2" d="M578.58,23.74c-.4,0-.56-.56-.72-.82a1.41,1.41,0,0,0,.9.39A.65.65,0,0,1,578.58,23.74Z"/><path class="cls-2" d="M607.11,21.82l.51.07Z"/><path class="cls-2" d="M547.69,24.69a.45.45,0,0,1-.16.22A.31.31,0,0,1,547.69,24.69Z"/><path class="cls-2" d="M43.87,35.16s0,.07,0,.11S43.73,35.17,43.87,35.16Z"/><path class="cls-2" d="M23.07,38.8l.29,0a1.32,1.32,0,0,1,.08.33Z"/><path class="cls-2" d="M458.19,28.62l.08,0C458.71,28.66,458.46,28.65,458.19,28.62Z"/><path class="cls-2" d="M305.49,32.73c1.72-.6-2.83-.62-.25-1.3C305,31.68,307.64,32.31,305.49,32.73Z"/><path class="cls-2" d="M610.61,19.33h-.74A3.72,3.72,0,0,1,610.61,19.33Z"/><path class="cls-2" d="M305.24,31.43h0l.27-.07Z"/><path class="cls-2" d="M419.86,29.39a1.12,1.12,0,0,1,.38-.27C420.23,29.18,420.15,29.26,419.86,29.39Z"/><path class="cls-2" d="M448.39,27.67l-.71.11A4.6,4.6,0,0,1,448.39,27.67Z"/><path class="cls-2" d="M405,29a2.76,2.76,0,0,1-1,.08.8.8,0,0,1,.16-.08A1.34,1.34,0,0,0,405,29Z"/><path class="cls-2" d="M389.58,29.43l.28-.13.49,0Z"/><path class="cls-2" d="M90.76,34.05a2.3,2.3,0,0,0-.69.57C90.29,34.18,88,34.09,90.76,34.05Z"/><path class="cls-2" d="M611.08,19.57a.55.55,0,0,0-.47-.24h.52C611.17,19.43,611.19,19.52,611.08,19.57Z"/><path class="cls-2" d="M404.25,24.19l-2.45.16C402.49,24.27,403.38,24.22,404.25,24.19Z"/><path class="cls-2" d="M201.46,30.83l-.57,0A1.28,1.28,0,0,1,201.46,30.83Z"/><path class="cls-2" d="M394.52,24.48a4.75,4.75,0,0,1-1.36.46,1,1,0,0,1-.29-.14Z"/><path class="cls-2" d="M90.06,34.63a0,0,0,0,0,0,0A0,0,0,0,1,90.06,34.63Z"/><path class="cls-2" d="M74.84,34.34c-2.3-.26-.74.17-2.81.75-1.21-.61-2.28.3-2.56-.75-.73.72-.53.46-2,1,.62-.6-2.75-.49-2.68-1.18-.57.8,2.47.89.61,1.76-1.31-.48-3.71-.61-3.93-1.45a13.9,13.9,0,0,1-3,.68,1.22,1.22,0,0,1,.7.17c-2.75-.48-6.77.21-8.34-.77.58,1.2-5.81.32-3.69,1.4a10.74,10.74,0,0,1-3.35-.69c.15.95-2.83.33-4.06.93-.65-.52-2.69-.28-4-.55.56.1.86.25.67.52-1.41-.35-1.05,0-2.23.51-1.9-.24.33-.75-.82-1.16-1.64.27-.24.61-.52,1l-2.47-.89a1.68,1.68,0,0,0-1,.57,3.52,3.52,0,0,0-2.79-.15l2.1,0-.79.52L25.48,36c-3.55.81-2.41,1.81-2.12,2.82l1.46.13c0,.34-1,.57-1.67.61-.59.24,2.37,1,4,1.11,4.27-.2.85-1.21,3.78-1.54l3.79.47,0-.34a1.1,1.1,0,0,1,1.11.19c-.27-.5,3.08-.26,4.61-.38l-.54.45c4.32.92,6.74-1.31,10.14-.86l2.4.68.48-.67c1.41.35,1.67.85,4,.55,8-1.38,16.71-.24,24.85-1.21-.1.14-.35.19-.84.31,7.11-1.85,11.24,1.34,17.66-.13L98.1,38c3.28,0-.46-.23,1.92-.66.47.78,4.18.49,6.09.73a8.83,8.83,0,0,0-1.5-.22c.35-.19.47-.67,1.43-.55,2.12,1.08,6.64.83,10,1.08.38-.54,3.25-1.09,4.72-2,.35.18,1,.56,1.55.94a4.47,4.47,0,0,1,3,.14c-1.06,0-2,0-2.71,0l.08,0c-.11,0-.31,0-.47,0-.73,0-1.11,0-.93-.07-1.33.55.1.41,0,1,1.09-.06,3.36.09,3.6-.38a13.87,13.87,0,0,0,1.76-.22,4,4,0,0,0,1.35,0l-.22-.06a.9.9,0,0,1,.27-.2c2.13-.32,5.16.5,6.93.86-1.77-.71.42-.88.4-1.43.21,0-2,.13-4.68.23a.54.54,0,0,0,.39-.37c2.33-.67,4,.4,7.42-.11-.23-.06-.67-.18-.51-.39a3.37,3.37,0,0,1,2.61.55c.29-.56,2.86-1,4.15-.83a4.6,4.6,0,0,0,3,.52l-.91-.36c2.4-.39,2,.51,4,.14-.79.18-.87-.23-.28-.32a9.48,9.48,0,0,1,4.4,1.06l-.35-.59c2.14.3,6.18.91,6.2.09-.64,1.28,4.67.53,6.53.45-.64,0-.77-.28-.83-.41,3.92.71,7.89-.21,11.83-.32l.6-.93c2.09,0,2.73,1.76,5,1.66l-.83-.42a84.4,84.4,0,0,0,8.87-.35l-.08-.61c1.16.25,2.61.2,3.79.45,2.61-1.57,10.52.47,15.33-1.33l.33,1.13c1.86-.08,4.24.08,5.08-.81l-.41,0c-.2-.87,1.86-.07,3-.3.87.07,1.77.61,1,.81,4.9-.73,12.23-.34,15.27-1.47,4.94.23,8.69,1,14,.75l-.06-.14c1.79-.21,5.38-.62,5.35-1.58,3.84.11,6.32,1.35,10.89.79l-1-.34a10.8,10.8,0,0,1,3.49.28c.41,0,.1-.21,0-.35,1.09-.35,1.75.14,2.63.21l-.36-.31c3.62-.77,9.41.35,14.1,0-.87-.07-.42-.44-.08-.61,2,1,7.23.6,9.2.79l-1.22-.39c3.84.59,3.28-1.21,7.09-.62l-2.16.67c1.54-.22,2.86-.06,2.5.43,1.79-.41.2-.82,2.91-1,.11-.3-2-.15-1.08-.56l3.74-.9a4.65,4.65,0,0,1,1.82-.08c-.29,1.33,3.12,0,1.27,1.32,5.33-.06,9.8-1.07,14.38-.59,1.84-1.34,9.07-.32,8.57-2a15.82,15.82,0,0,1,6.29.8,4.9,4.9,0,0,1-1.7-.11c.69.4,3.8.38,5.09.33-1.7-.32-4.46-.57-5.8-1.16,2.35.09,5.64.61,6.95.78l.57-.87c2,.56,1.64-.74,3.65,0l-.37.27c3.63-.17,3.7.68,7.08.69l-.16-.34c1.15-.17,2.9.58,4-.22l-2.21,0c.21-.61,1.89-.92,2.64-1.24,2.34.08.85.95,2,1,.48-.57.11-.3-.72-.83,2.62.12,6.14.26,8,.92.12-.09,0-.21,0-.21,2.71-.19,5.13.75,6.78.23l-.53-.07c2.15-.89,5.64.61,6.05-.81,1-.29-2.34.12-.71-.62,3.22-.54,2.17,1.12,5,.64-.39.06-.27,0-.4-.16,2.05,0,4.79,0,7.05.1,2.76-1.23,8.53,0,11.69-1.4-1,.51.82.53.83.74,0,0-.14-.12,0-.21,1.16-.07,1.32.37,1.76.55.94-.44,3.24.34,3.84.05,0,.3.95.19,2,.16-2.09-.27-.69-.62-1.63-1.05,3.1-.24,3.6,1.19,6.82.87l1.78-.62c.38.84,3.37.41,3.31.73.55-.29,1.36-.47,1.22-.89,1.31.17,3.23-.33,3.78.16l-1.28.26c4-.44,6.42.72,9.49.06l-.1-1.28c2-.59,3.82.59,5.57-.24-.61.45-.75.32.58.71-.77.11-2.22-.18-3.52-.14l2.78.67-4.31-.23c1.86.45,1.72.32,1,.86,2.63.34,2.8-.69,5.31-.27.89-.2-.05-.64,1-.93,2.23.39,4.2-1.05,5.81-.42.51-.14-.91,0-.8-.31,1.44.08,2.46,0,2.89.37l-1.22.17c1.07-.06,1.27.45,3.31.09,1.2.26,1.89.88.6.92.52.07,1.66-.31,1.24-.68,3.21-.11,1.58,1.32,4.65.62-.21,0-.44-.1-.32-.18a7.75,7.75,0,0,1,1.94-.07c-2.74,0,.83-1.05-2.4-.72.34-.69,2.46-.21,3.48-.51,1.59.42.2,1,1,1.29,0-.21.63-.23,1.4-.35l-.73.54a12.41,12.41,0,0,1,2.08.06l-1.31-.17c1.42-.14,3.56-1,6.07-.6-.67-.19-2-.57-.34-.88,2.75.24.63-.24,2.17-.68,2.72,0,.5.91,4.5.47.43,0,0,.3-.39.45,2.73-.33,4.23,0,6.88-.46-1.16.16-2.05.37-.48.57-.68-.41,2.17-.46,3.2-.76l.27.25c.81-.3-.07-.38-.74-.46,0,.09-.21.18-.71.17-1.31-.17-.87-1.16,1.2-1.32,2.23.17,1.89.87,1.51,1.14,3-.36,2.82,1.1,5.64.61.65,0,2.78-1.12,4.85-1.28,1.08.56-2.56.52-1.36,1,3.39-1.57,7.07.69,11.55-.32l-.59-.71a30.82,30.82,0,0,1,3.25-.11l-1.53.44c1.05.13,3.51-.08,2.69-.61,2.37.52,2.86.16,5.06-.09-2.33.13,0,.1-1.75-.22A11.73,11.73,0,0,1,518.6,25c-.28-.25.6-.67,1.25-.69,1.6.42,4.31.24,6.53.41v-.21c3.72.16,7.72-1,11.47-.43h0l.19,0-.29.05c-1.27.72,2.91.4,4.06.64.25-.18.36-.48,1-.5.06.64,1.45.29,2,.57,1.28-.26-.19-.76,2-.8.85,0,1,.36.87.61a8.21,8.21,0,0,1,3-.75c-.4-.15-1,.09-1.3,0-.16-.33.63-.23.6-.66,1-.08.43.58,1.72.32l-1.22-.47a3.74,3.74,0,0,1,1.44.08c-.79-.1-.69-.61-.59-.92,3,.28.62,1.35.8,1.9,2.82-.49,5.08.12,7.28.08l-.43-.58a4.15,4.15,0,0,1,2,.42l1.66,0c-1-.19-1.28-.37-1.36-.84,1.76.11,4.18-.11,4.65.67l-.07-.13c2.34-.36,7.24-.67,7.07-.93,2.53.19,5.71-.37,5.81.42,1.5.14,3.86-1.13,5-.18,1.76-.57.08-.21-.48-.78,1.77-.57,3.62.7,4.18-.45,2.09.29-.48.25.24.73.41-1.07,3.86-.29,5.79-.95.89.4-.88.29.64.7-.16-.26.64-.33,1-.37l.4.65L597.49,21c3,.69-.57,1.15,3.36,1.34l-.23,0c1-.72,2.81.43,5.63-.18-1,.16-.41-.3-.72-.48l1.58.22c-.14,0-.21-.07-.06-.15,1.37-.54,1.21.23,2.81-.26-1.12-.11-.8-.62-.31-.87l2.33.68-1-.87c2.25-.14,5.64,1.2,6.75-.08l-1.12-.1c.08-.21.73-.89,2.25-.48.48.09.81.61.16.6l1.13-.24c-.56-.57-3.37-.65-5.14-.76.56.22,1.93.37,1.52.75-1.57-.14-3.08-.49-4.61-.64a4.18,4.18,0,0,1,1.31.81c-1.69.36-1.28-.37-2.57-.38-.48.25-.81.41-.48.59a12.73,12.73,0,0,0-4.59.15s1.94.37.89.74c-3.14-.26-3.78-.95-7.16-1.26-3.93-.87-7.56.83-10.29.19-.16-.26,2-.53.25-.64.32.52-1.05.37-1.13.59-1.93-.72-2.81.25-4.18-.24.32.18-.79.42-1.52.62.24.65-2.1.33.71,1.18-2.89-.91-5.06.39-7.23-1.05l.72-.21-2.87.4.12,0a6.78,6.78,0,0,0-3.09.71c.72.13,1.76.11,2.49.25-1.53.62-3.21-.4-4.91-.38.09.48,1.78.12,1.29.71a17,17,0,0,1-3.38-.31l.17.26c-3,.69-1.21-1.26-3.38-.3.06-.16-.22-.32-.09-.48-.81.3-2.7.83-.8,1.11a6.8,6.8,0,0,1-2.78-.45c.87-.41,1.1-.22,1.42-.73l-4.22-.15c-.47,0,.36.25,1,.23-4.9,1.55-10-.88-15.55,1,.62-.45-.41-.37-1-.65-1.8.19-4.53.16-6.19.47l.54.28c-4.31-.23-7.29-.61-10.12-.34-.14-.13,0,.42.55.49-2.11-.48-4.57,1.31-5.18.18l.77-.11c-4.13.31-8.74-.38-13-.4-1,.72,2.47,0,1.62.84-3,.36-6-.13-9.22.2.53.07.41.15.67.19-3.21.54.33-.7-2.37-.51.15.33,0,.42-.87.62l-.81-.52c-.13.09-.1.51.3.67-1.22-.69-4.81-.09-5.78-.74-.24.18.46.8.09,1.07a7.77,7.77,0,0,1-3.4-.23h0c-1,.51-3.48.51-2.95.58-2.58.3-.42-.37-2.4-.73l2.06-.37-3.65,0,1.45.29c-1.66.31-3.4-.23-5.34-.15l.88-.42-2.23-.18c-.19.82-2.83.27-1.59,1.17-4.12.52-6.8-.45-10.56-.4.65,0,.4.15.54.28a11,11,0,0,1-4.84-.51c.27.24.8.31.81.52-2.59.09-1.59-.41-4.45-.57.8.32.55.5-.22.61.11-.3-.56-.49-1.09-.56,2.2,1.54-3.18.75-1.79,2-.16-.33-4.62-.9-3.37-1.59l.79.1c.07-.45-1-.24-1.78-.25.42.06.86.15.87.24-4.07-.41-8.31.21-12.88-.06.4.16,2.25.39,1.08.56-4.52.37-7.17-.39-11.74-.65-.18,1,4.94,0,5.14,1-4.82-.09-9.77-.3-15.13-.66-1.82,1.55-5.23-.46-8.51.81.3-.51-1.36-.65-3.16-.61.63.39-1.26.46-.73.74-1.59-.41-6.14-.46-5.94.51-.43-.94-3.38.15-4.69-.49-2,.42-4.27-.07-6.76.29.86-.62-2.49-.21-3.41-.43.26,0,.78.1.66.19-.73.54-2.89-.37-4.29,0-.63.24.18.55-.86.63,0-.43-3.83-.81-5.22-.25.65,0,.67.2,1.07.35-6.67-.53-13.73.57-20.54-.09l1.22.68c-4.21,1.05-2.82-1.09-6.17-.89-9.19.63-18.7,1.94-27.68,1.74-.67-.19.37-.27.47-.57-.77.11-1,.72-2,.37l.23-.39c-4.07,1.17-11.85-.36-14.84,1.37-3.94-.5-6.67.65-11.46-.14-1.49.39,1.77.61-.26.77l-4.43-.47.24.05c-4.29-1-11.21,1.63-16.58,1l.23.05c.14.26-1,.62-1.82.55-.31-.18.27-.3.78-.54-4.78-.31-5.82-.3-9.59-.27,1.64.35-1.49.39-1.64.95-1-.33.55-.59-1.66-.83-3.14,0-6,.61-8.61.88-1.07-.46-2.45-.29-2.54-.89-3.54.07-5.52-.12-9.87,0l-.11.21c-1.19-.72-3.75.5-4.58.09.13.26.6.36.49.57l-2-.18c.94.2,1.49.9-.14,1-1.7-.48.46-.37-.38-.79l-.49.73c-1.27,0-1.65-.83-.1-1.09-4.35.14-8.66-.07-12.53.16l.43.45a21.92,21.92,0,0,0-6.32.42c-.06-.13-.59-.36-.26-.52-2.57-.55-.25.77-3.06.17.7.15,1.58.22,1.7.48l-5.24-.41c0,.35-3.2,1.21-5.42,1-.09-.19.54-.47,1.1-.52l-1.42-.13-1.06.83-2.07-.64,0,.67c-1.51-.09-2.13-.93-3.35-.83-4.55.56-3.62.76-6.84,1.49-.4-1.27-5.16.2-6-.69-4.31,1.09-10.6.69-16.27,1.14l.47.1c-2.41.66-2.79-.89-5.4-.55l.66.17c-3.34.78-9.25.33-12.45-.11.65.17.34.59-.69.58-.88-.23.82-.92-1-.63.45.11.1.4-.31.42L143.36,32a91.5,91.5,0,0,1-14.88,1c-.89.25-.23.46,0,.68-3.82,0-7.62-.44-11.06-.46l-.33.75c-1.69,0-1.08-1.1-3.25-.37-.49.11,1.45,0,2.06.31-3.37.66-2-.66-5.25-.48l.87.81c-2.47.56-2.84-.36-3.75-.82-3.51-.88-2.43,1.68-7.19,1.08-.76-.38.23-.61-.53-1-3.32.32-3.73-.26-7.07.06-1.74,1.29,1.7-.06-.2,1.16l2.53-.35c-2.17.72,2,.1,1.67.85-1.64.26-4.15-.29-6.29-.47,0,.56,2.48,0,1.52.77l-1.11-.19c.31.15.37.36,1,.33-.38.53-1.29.07-2.34.09a1.25,1.25,0,0,1,.3-1.11.73.73,0,0,1-.27.21c-2.17-.74-5.78,0-7.63-.61.3.16,0,.21,0,.35-1.29.07-2.65-.63-4.4-.79-.93.44.59,1.21-2.21,1.07-.51-.45.71-1.28-1.63-1.2C73.87,33.66,75.93,34,74.84,34.34Zm52.51-.48h0Zm4.22.37c-.47,0-.65-.19-.49-.4.73,0,1.43,0,2-.09C132.39,33.94,131.31,34.09,131.57,34.23ZM123.19,38l.09.07,1.27,0c-.09.13-.33.26-1.06.19A.76.76,0,0,1,123.19,38Z"/><path class="cls-2" d="M122.16,37.49a2.16,2.16,0,0,0-.3,0l.43-.15.26.18Z"/><path class="cls-2" d="M537.74,24.17l-.1,0a.75.75,0,0,0,.2-.09C537.78,24.13,537.78,24.15,537.74,24.17Z"/><polygon class="cls-2" points="196.34 30.68 196.34 30.84 195.94 30.72 196.34 30.68"/><path class="cls-2" d="M562.93,21.33a.68.68,0,0,1,.33-.17A1,1,0,0,1,562.93,21.33Z"/><path class="cls-2" d="M573.83,20.87l1.54-.27A15.43,15.43,0,0,1,573.83,20.87Z"/><path class="cls-2" d="M582.21,20.31a.7.7,0,0,1,.17.26h0Z"/><path class="cls-2" d="M448.85,23.58a1.67,1.67,0,0,1-.32,0C447.76,23.47,448.28,23.5,448.85,23.58Z"/><path class="cls-2" d="M488.57,23.82c-.42-.1-.84-.19-1.28-.25C488,23.5,488.54,23.47,488.57,23.82Z"/><path class="cls-2" d="M404.52,24.17h-.27Z"/><path class="cls-2" d="M485.44,23.64a5.36,5.36,0,0,1,1.85-.07A8.79,8.79,0,0,1,485.44,23.64Z"/><path class="cls-2" d="M618.55,19l.41,0a.09.09,0,0,0,0,.1Z"/><path class="cls-2" d="M619,19l.45.06C619.25,19.08,619.07,19.08,619,19Z"/><path class="cls-2" d="M620.41,19.19l-.95-.12A1.71,1.71,0,0,1,620.41,19.19Z"/><path class="cls-2" d="M607.46,19.57l-.13-.22A.29.29,0,0,1,607.46,19.57Z"/><path class="cls-2" d="M604.08,19.6a15.12,15.12,0,0,1,3.14-.42l.11.17C606.79,19,604.86,20,604.08,19.6Z"/><path class="cls-2" d="M590.08,22.75l2.82-.26c-.49.25-1.13.59.16.61C589.51,23.9,593.78,22.55,590.08,22.75Z"/><path class="cls-2" d="M581.32,23.36c1.52.06,0,.34.08.47C580.43,23.64,580.19,23.6,581.32,23.36Z"/><path class="cls-2" d="M518,25.25l.17.55C517,25.76,518.12,25.59,518,25.25Z"/><polygon class="cls-2" points="505.78 22.75 506.91 22.37 507.47 22.86 505.78 22.75"/><polygon class="cls-2" points="498.74 26.91 499.25 26.97 497.3 26.83 498.74 26.91"/><path class="cls-2" d="M392.34,29.89l.34-.69C393.47,29.3,393.66,30.06,392.34,29.89Z"/><path class="cls-2" d="M346.39,30.57a3.36,3.36,0,0,1-2.58.3A24.12,24.12,0,0,1,346.39,30.57Z"/><polygon class="cls-2" points="208.68 35.8 209.61 36 207.86 35.86 208.68 35.8"/></g></g></svg>