<svg xmlns="http://www.w3.org/2000/svg" viewBox="0 0 650 52.03"><defs><style>.cls-1{fill:#fff;}</style></defs><g id="Layer_2" data-name="Layer 2"><g id="Layer_1-2" data-name="Layer 1"><path d="M2.8,46.12c2,1,5.47,1.1,8.75,1.26A21.54,21.54,0,0,0,2.8,46.12Z"/><path d="M11.62,47.41l.05,0h-.12Z"/><path d="M647.57,2.44l-2.7.06A20.14,20.14,0,0,0,647.57,2.44Z"/><path d="M170.38,50.29l.5-1.66c7.77,0,2.26,1.9,9.45,1.49,2.81-2.35,11.94.25,14.43-1-.06.18,3.46.25,3.24,1,1.08-1.28,3.62-.3,5.84-.62.81-.36-.59-.38-1.19-.77l5.09-.45c2,.41,2.47,1.16.31,1.3,13.29.46,77.11,1.68,91.43,1-1.84-1-6.26-.32-7.94-1.83,3.78-.86,5.57.29,7.24-.6,1.45,2.26,8.32.54,11.19,2.83l1.08-1.28,1.88.78c16.65-1.33,3.81-.65,18.57-.35,8.54-.2,12.6-2,17.35-1.32-.71,0-2.59-.79-.38-1.12.38,1.12,5.89-.81,7,.33,2.17-.14,9.19,0,6.81-1.53,1.19.76,7.46,1.08,3.73,1.74a27,27,0,0,0,5.68-.07L369,47.78c7.13-.23,11,1,15.67-.43L382,46.74c4.26-.09,7.83-.21,9.51,1.31l-4.38.47a119.14,119.14,0,0,0,17.24-1l-2.11,0c7.52-1.52,46.83-2.77,53.75-4.67l-3.19-1.18,6-1c-.71,0-2.88,3.83-3.47,3.45,12.76-.11,79.13-1,90.92-.23,4.75.65.85,1.87.8,2.06,5.78-.44,2.49-1.25,7.41-1.15,1.35.21-.28.92-1,1.09,2.16-.14,4.15.27,4.32-.28-2.7-.43-1.55-1.89-2.7-2.84l6.33.13-.28.92c1.41,0,3.58-2.53,9.8-2,10.48.4,21.87.08,32.42.29-.17.55-2.38.88-4.6,1.21a20.63,20.63,0,0,1,4.87.28c-2.55-1,4.43-.65,2.44-1.06,7.72-2.26,17.71-.2,24.53-1.73.6-2,14.6-34.88,14.6-37.29a30.55,30.55,0,0,1,4.87.29c-.55-.57-4.71-.84-6.92-.52l-.38,1.3c-5.09.45-1.19-.77-6.16-.69-.26-1,4.31-1.28,8.33-1.38-3.62-.13-7.23-.9-8.71.26-3.4-.44.38-1.29-3.72-1.74-2.92.31-6.76,1.34-10.12.72l.06-.19c-8.16-1.09-12.48,1.61-19.94.52l.8-.35c-2.63-.61-7.82.21-12.58-.44,1.36.21,2.54,1-.32,1.1-5.47-.66-9.2,0-13.19-.82l-3.84,1C554.28,2.39,479.1,3.87,460,4l.75-.16c-29.13.52-88.94.43-119,1.86-4.66-1-11.08-.78-15.94-1.06,2.7.42,1.78,1.15-.33,1.1-14.81-.11-1,.71-16,1.15-17.24,1-83.21-.13-98.51-1-8.22,1.5-18.48.36-26.53,1.31l.81-.35c-8.65.56-57.61-.83-67.66-.29l1.35.21c-8.76.94-7.57-.71-14.48-1.22.91,1.69-6.6,2.64-9.46,2.77L95.08,8C90.76,8.27,81,9.73,73.84,10L74.12,9c-6,1-17.14.58-21.41.67-9.78-.38-24.86-2-37.94-.77L6.33,6.31l-1.24.26S-8.51,38.35,8.76,45.12L8.48,46l3.41-.12c4.1.46,6-.61,5.72.31L12,46.12c4.11.26,1.24.75-.33,1.27a32.47,32.47,0,0,1,4.75.49c.81-.36-.6-.39-1.24-.59,2.22-.32,5.3-1.19,8-.76,4.21.08.27,1.49,5.18,1.59,25.94.71,51.07,1.78,77.29,1.57.59.38-.12.37-.88.54,7.9-.39,14.92-.25,22.11-.66A6.84,6.84,0,0,1,130,50.93C128.83,50.16,169.73,50.09,170.38,50.29Z"/><path class="cls-1" d="M194.84,41.81a11.85,11.85,0,0,1-3.62-.51c-1.06-.35-2.14-.75-3.22-1.21-.38-.16-.76-.32-1.16-.47l-1.06.5a33.4,33.4,0,0,1-3.25,1.38,1,1,0,0,1-.37.06,2.71,2.71,0,0,1-.91-.18c-.75-.28-1.21-1.5-1.38-3.69-.1-1.63-.18-3.23-.25-4.81a24,24,0,0,0-.21-2.85,1.11,1.11,0,0,1-.1-.44,7.82,7.82,0,0,1,.85-1.87l.43-.84a24,24,0,0,1,1.69,1.78c.46.71.9,1.41,1.31,2.12.55.94,1.13,1.86,1.75,2.75a3.1,3.1,0,0,0,1.16.85h0a4.09,4.09,0,0,1,.42.2,1.39,1.39,0,0,0,.42.14,1.35,1.35,0,0,1,.6.25,7.32,7.32,0,0,0,4.81,1.59,25,25,0,0,0,3-.28,11.52,11.52,0,0,0,4.35-1.16,19.88,19.88,0,0,0,4.68-4.34,1.66,1.66,0,0,0,.25-1A2.27,2.27,0,0,0,205,29a8,8,0,0,0-3-4.09,16.65,16.65,0,0,0-6.88-2.75,22.34,22.34,0,0,1-5.53-1.46c-1.77-.71-3.5-1.5-5.19-2.35a3.69,3.69,0,0,1-1.75-1.69,11.08,11.08,0,0,1-.75-2.16,11.09,11.09,0,0,1-.47-3,8.56,8.56,0,0,1,.6-3.15,9.73,9.73,0,0,1,4.84-5.75A34.19,34.19,0,0,1,193.22.53h.06A15.13,15.13,0,0,1,196.16,0a4.31,4.31,0,0,1,2.59.81.26.26,0,0,0,.19.07,2.33,2.33,0,0,0,.93-.29,6.83,6.83,0,0,1,2.38-.4c.35,0,1.05,0,2.09.12l2.19.1a2.54,2.54,0,0,1,.88.15c.27.11.47.42.61.94a5,5,0,0,0,.7,1.53,9.56,9.56,0,0,1,.62,1.19,3,3,0,0,1,.16,1v.19c0,.23.07,1,.22,2.37a31.13,31.13,0,0,1,.37,4,3.54,3.54,0,0,1-.36,1.45,1.71,1.71,0,0,1-.87,1,3.54,3.54,0,0,1-1.17.19,8.88,8.88,0,0,1-2.28-.32.64.64,0,0,1-.38-.15,2.4,2.4,0,0,1-.59-1.22,15.1,15.1,0,0,1-.61-2.55,3.51,3.51,0,0,0-.91-2,10.36,10.36,0,0,0-1.67-1.39c-.4-.29-.78-.59-1.16-.9a4.42,4.42,0,0,0-3-.79,8.83,8.83,0,0,1-3.22-.81,3.7,3.7,0,0,0-1.31-.22,7.14,7.14,0,0,0-5.37,2.72q-.69.69-1.44,1.35a4.46,4.46,0,0,0-1.44,3.65,2.12,2.12,0,0,0,.21.94,3.49,3.49,0,0,0,1,1.09l.06,0a27.36,27.36,0,0,0,4,2.9,13.75,13.75,0,0,0,3.72,1.13L194,18c2.21.46,4.4.87,6.59,1.22a9.24,9.24,0,0,0,1.78.22l.71,0c.24,0,.48,0,.73,0H204a3.44,3.44,0,0,1,1.44.31c3,1.9,4.53,4.24,4.53,7l0,.84,0,.19a10.2,10.2,0,0,1,.62,3.15,8.36,8.36,0,0,1-.76,3.17,13,13,0,0,1-2.45,3.68,9.05,9.05,0,0,1-6.79,3.59c-1.08,0-2.14.07-3.18.16C196.58,41.74,195.72,41.79,194.84,41.81Z"/><path class="cls-1" d="M231.81,42.09a11.43,11.43,0,0,1-7.65-2.56,20,20,0,0,1-4.57-7.69,5.16,5.16,0,0,0-.56-1.23,2.39,2.39,0,0,1-.37-1.27,2.71,2.71,0,0,1,.09-.68c0-1,0-2.06.12-3.1a18.41,18.41,0,0,1,2.5-6.84A10.35,10.35,0,0,1,223.62,16l.82-.75a9.78,9.78,0,0,1,3.47-2.31,12,12,0,0,1,3.53-.92c.81,0,1.28,0,1.4,0a9.17,9.17,0,0,1,4.25,1.09,4.82,4.82,0,0,0,1.5.5,6.37,6.37,0,0,1,2.28.85c.4.35.81.67,1.22,1a17.7,17.7,0,0,1,3.32,3.06,11.5,11.5,0,0,1,1,5.47c.07,0,.1.14.1.43a4.7,4.7,0,0,1-.81,2.78,6.52,6.52,0,0,1-5,2.13,2.58,2.58,0,0,1-1.54-.37,3.22,3.22,0,0,0-1.82-1.11,10.88,10.88,0,0,0-1.49-.11,10.28,10.28,0,0,0-1.34.09c-1.15.08-2.3.13-3.47.13-.44,0-2.15-.06-5.13-.16a5.07,5.07,0,0,0-1.14.14,1.79,1.79,0,0,0-1,.92,2.18,2.18,0,0,0-.38,1.16,2.37,2.37,0,0,0,.63,1.53c.23.5.43,1,.62,1.47a9.14,9.14,0,0,0,.85,1.78,6.41,6.41,0,0,0,1.78,1.69,6.78,6.78,0,0,0,3.4,1.62H232a8.23,8.23,0,0,0,4.47-1.31,6.37,6.37,0,0,0,1.47-2l.62-1.1a4.09,4.09,0,0,1,3.35-1.84A3.71,3.71,0,0,1,245.25,34a2.83,2.83,0,0,1,.22,1.22,1.37,1.37,0,0,1-.28.87,14.65,14.65,0,0,1-3.47,3.06A18.13,18.13,0,0,1,231.81,42.09Zm7-18,.35-1.72a2.74,2.74,0,0,0,.06-.59,3.59,3.59,0,0,0-.28-1.31c-.61-1.34-1.38-2-2.32-2a6,6,0,0,0-1.6.22c-.56.14-1.17.28-1.83.4a6.89,6.89,0,0,1-2,.32,6.46,6.46,0,0,1-1.07-.1,6.3,6.3,0,0,0-1.87-.34,4.34,4.34,0,0,0-3,1.53c-.5.48-.75.85-.76,1.11s0,.4,0,.42a2.88,2.88,0,0,0,.33,1.33c.22.43.4.65.54.67l.38,0a2.29,2.29,0,0,0,.59-.08,14.92,14.92,0,0,1,1.82-.14q1.13-.12,2.31-.15a7.78,7.78,0,0,1,1.09.07,6.39,6.39,0,0,0,1.06.08c.53,0,1.07-.06,1.63-.12a19.39,19.39,0,0,1,2.31-.13,7.44,7.44,0,0,1,1.91.38Z"/><path class="cls-1" d="M272.62,42.38a10.19,10.19,0,0,1-7.12-3.22,9.42,9.42,0,0,1-2.41-6.35c0-.54,0-1.19,0-1.93h-.12l.15-2.72c.15-1.73.22-3.46.22-5.19a4.12,4.12,0,0,0-.65-2.19,11.44,11.44,0,0,0-2.57-2.94,3.82,3.82,0,0,0-1.81-.84l-.84,0a5.82,5.82,0,0,1-1.78-.22c-.46-.14-.69-.54-.69-1.19a3.56,3.56,0,0,1,.44-1.46c.56-1,1.76-1.57,3.59-1.57l1,0a2.23,2.23,0,0,0,.75-.1,2.22,2.22,0,0,0,.75-.8,11,11,0,0,0,1.7-3.58,29.43,29.43,0,0,0,.74-3.89,2.1,2.1,0,0,1,.87-1.13,2.49,2.49,0,0,1,1.47-.56c1.48,0,2.22.68,2.22,2v.13a67.63,67.63,0,0,0,.37,7.09q.19,1.53,1.47,1.53l.53,0q1.5-.12,3-.15c1.21,0,2.22-.11,3-.19a14.69,14.69,0,0,1,1.87-.13,16.2,16.2,0,0,1,4.53.69,1.68,1.68,0,0,1,.91.81,2.71,2.71,0,0,1,.34,1.1c0,.37-.34.74-1,1.09a8.29,8.29,0,0,1-3.62.56q-2.45,0-4.86,0l-4.24,0a3,3,0,0,0-1.5.31c-.33.21-.57.78-.72,1.69a40.93,40.93,0,0,0-.15,12.13,2.14,2.14,0,0,0,0,.34v.12a.49.49,0,0,1-.16.38,1.7,1.7,0,0,0-.4,1,3.74,3.74,0,0,0,.31,1.38,5.92,5.92,0,0,1,.34,1,3.16,3.16,0,0,0,1.85,2.31,3.5,3.5,0,0,0,1.5.31,4.91,4.91,0,0,0,1.15-.15,6,6,0,0,0,4.16-3.13,12.93,12.93,0,0,0,1-2.19q1.28-3.5,2.72-3.5a1.87,1.87,0,0,1,1.28.6,2.19,2.19,0,0,1,.68,1.06,9.12,9.12,0,0,1,.13,1.56,9.79,9.79,0,0,1-1.16,4.5,10,10,0,0,1-4.53,4.44A11.18,11.18,0,0,1,272.62,42.38Z"/><path class="cls-1" d="M310.12,42.38A10.19,10.19,0,0,1,303,39.16a9.42,9.42,0,0,1-2.41-6.35c0-.54,0-1.19,0-1.93h-.12l.15-2.72c.15-1.73.22-3.46.22-5.19a4.12,4.12,0,0,0-.65-2.19,11.44,11.44,0,0,0-2.57-2.94,3.82,3.82,0,0,0-1.81-.84l-.84,0a5.82,5.82,0,0,1-1.78-.22c-.46-.14-.69-.54-.69-1.19a3.56,3.56,0,0,1,.44-1.46c.56-1,1.76-1.57,3.59-1.57l1,0a2.23,2.23,0,0,0,.75-.1,2.22,2.22,0,0,0,.75-.8,11,11,0,0,0,1.7-3.58,29.43,29.43,0,0,0,.74-3.89,2.1,2.1,0,0,1,.87-1.13,2.49,2.49,0,0,1,1.47-.56c1.48,0,2.22.68,2.22,2v.13a67.63,67.63,0,0,0,.37,7.09q.19,1.53,1.47,1.53l.53,0q1.5-.12,3-.15c1.21,0,2.22-.11,3-.19a14.69,14.69,0,0,1,1.87-.13,16.2,16.2,0,0,1,4.53.69,1.68,1.68,0,0,1,.91.81,2.71,2.71,0,0,1,.34,1.1c0,.37-.34.74-1,1.09a8.29,8.29,0,0,1-3.62.56q-2.45,0-4.86,0l-4.24,0a3,3,0,0,0-1.5.31c-.33.21-.57.78-.72,1.69a40.93,40.93,0,0,0-.15,12.13,2.14,2.14,0,0,0,0,.34v.12a.49.49,0,0,1-.16.38,1.7,1.7,0,0,0-.4,1,3.74,3.74,0,0,0,.31,1.38,5.92,5.92,0,0,1,.34,1,3.16,3.16,0,0,0,1.85,2.31,3.5,3.5,0,0,0,1.5.31,4.91,4.91,0,0,0,1.15-.15,6,6,0,0,0,4.16-3.13,12.93,12.93,0,0,0,1-2.19q1.28-3.5,2.72-3.5a1.87,1.87,0,0,1,1.28.6,2.19,2.19,0,0,1,.68,1.06,9.12,9.12,0,0,1,.13,1.56,9.79,9.79,0,0,1-1.16,4.5,10,10,0,0,1-4.53,4.44A11.18,11.18,0,0,1,310.12,42.38Z"/><path class="cls-1" d="M337.19,42.09,336,41.91a1.59,1.59,0,0,1-.56.06c-.17,0-.85-.11-2-.31a3.87,3.87,0,0,1-1.28-.82l-.54-1a1.43,1.43,0,0,1-.09-.5,1,1,0,0,1,.13-.5,12.91,12.91,0,0,1,4.9-.9l1,0a7.94,7.94,0,0,0,1.91-.16h0q.18,0,.75-.87a11.47,11.47,0,0,1,.53-1.25,8.72,8.72,0,0,0,1-3.35,4.44,4.44,0,0,0-.75-2.46,1.56,1.56,0,0,1-.34-.91,1.77,1.77,0,0,1,.4-1,8.63,8.63,0,0,0,1.56-5l0-.88q-.52-4.18-2.37-4.34a2.63,2.63,0,0,0-1-.74h-.32a2.74,2.74,0,0,0-1.43.62,2.43,2.43,0,0,1-1.41.47,2.27,2.27,0,0,1-2.16-1.47,2.84,2.84,0,0,0-.59-.9c-.64-.38-1-.71-1-1s.36-.7,1.06-1.16a3.21,3.21,0,0,1,1.79-.59,8.44,8.44,0,0,1,1.54.12,6.61,6.61,0,0,0,1.36.13A37.25,37.25,0,0,1,342,13c.64,0,1.29,0,1.94.06,1.66,0,2.54.72,2.62,2.16q.63,15.75.63,16.75a10.19,10.19,0,0,1-.16,1.76,12.47,12.47,0,0,0-.19,1.65,8.27,8.27,0,0,0,.22,1.74c.06.34.11.61.13.82q9.93,0,11.4.22a1.75,1.75,0,0,1,.69,1.28,1.3,1.3,0,0,1-.13.56.78.78,0,0,1-.43.53,32.23,32.23,0,0,1-9.57,1.5,31.7,31.7,0,0,1-4-.25,11.66,11.66,0,0,0-1.18-.06,15.29,15.29,0,0,0-2.75.25l-1.72-.13C338.7,41.91,337.94,42,337.19,42.09Zm7.9-36.43a3.51,3.51,0,0,1-1.9-.57,4.71,4.71,0,0,1-1.41-1.25.56.56,0,0,1-.16-.4,5.76,5.76,0,0,1,.5-1.75,2.09,2.09,0,0,1,2-1.35,2.45,2.45,0,0,1,.75-.12,4.05,4.05,0,0,1,2.72,1.5,1.22,1.22,0,0,1,.22.72l-.15.65A4.92,4.92,0,0,1,347,4.86,2,2,0,0,1,345.09,5.66Z"/><path class="cls-1" d="M397.16,43.06a13,13,0,0,1-2-.36,14.26,14.26,0,0,0-3.13-.36,9.92,9.92,0,0,0-1.23.07c-.41,0-.8.06-1.18.06a11.11,11.11,0,0,1-1.31-.08c-.41,0-.83-.08-1.25-.09a1.84,1.84,0,0,1-1.28-.89,1.18,1.18,0,0,1-.19-.69,1.39,1.39,0,0,1,.55-.75l.67-.38a13,13,0,0,1,1.72-.28.19.19,0,0,0,.13.07q.27,0,.75-.66a5.73,5.73,0,0,0,.06-.84,11.38,11.38,0,0,0-.28-2.29L389,33.72a18.87,18.87,0,0,1-.28-3.38,23.14,23.14,0,0,0-.56-3.53,7.59,7.59,0,0,1,1.21-3.09v-.06l.5-.91v-.59a5.27,5.27,0,0,0-1.46-3.75,3.6,3.6,0,0,0-2.5-1.16c-.9,0-2.13.6-3.69,1.81l-.56.41a3,3,0,0,0-1.29,2.62,2.49,2.49,0,0,1-.59,1.41,2.63,2.63,0,0,1-1.5.78,4,4,0,0,0-2.72,2.56c-.12.32-.28.67-.47,1.07a8.21,8.21,0,0,0-1.15,3.87c0,1,.65,3.46,2,7.31a2.41,2.41,0,0,0,1,.25l.37,0a4.29,4.29,0,0,1,2.38,1l.21.57a1.77,1.77,0,0,1-.15.62,1.31,1.31,0,0,1-.69.28,4.29,4.29,0,0,1-1.78.47l-2.72,0q-3.37,0-6.78-.12a15.49,15.49,0,0,1-2.06-.35l-.66-.53,0-.28c0-.75.61-1.24,1.84-1.47l2.1.13a2,2,0,0,0,.72-.13l.59-.31a6,6,0,0,0,.62-1.44l0-1.22a8.14,8.14,0,0,1,.16-1.75,13.08,13.08,0,0,0,.09-2c0-2.81-.15-6-.47-9.56-.16-2.14-.25-3.4-.25-3.78l0-.72a4.34,4.34,0,0,0,.09-.81q0-.69-.66-.69a6.45,6.45,0,0,0-.75.06l-.53,0c-.12,0-1-.08-2.59-.22-.15-.07-.22-.14-.22-.22v-.22c.52-1.44,1.35-2.16,2.5-2.16a13.39,13.39,0,0,0,1.53.1l1.84-.13c1.42,0,2.2.87,2.35,2.59a4.33,4.33,0,0,0,2.06.44,5,5,0,0,0,2.22-.5,19.68,19.68,0,0,1,2.34-1.94,3.1,3.1,0,0,1,1.28-.62,9.21,9.21,0,0,1,11.75,4.62,10.5,10.5,0,0,1,.85,4.1,12.76,12.76,0,0,1-.41,3.09,2.73,2.73,0,0,0,.28,1,6.51,6.51,0,0,1,.63,1.88,22.37,22.37,0,0,1-.91,5.09,3.8,3.8,0,0,0-.4,1.1,7.8,7.8,0,0,0,4.65,3.5l.56.43a1.36,1.36,0,0,1,1,1.41,2,2,0,0,1-1.12,1.87A2.8,2.8,0,0,1,397.16,43.06Z"/><path class="cls-1" d="M418.44,52a12.12,12.12,0,0,1-2.85-.47c-.37-.1-.76-.2-1.15-.28a1.32,1.32,0,0,1-.3-.09l-.22-.1-.14,0a3,3,0,0,1-1.34.38,4.92,4.92,0,0,1-2-.56,4.88,4.88,0,0,0-2.1-.54,1.27,1.27,0,0,1-1-.56c-1.34-1.6-2.19-2.68-2.57-3.22a7.56,7.56,0,0,1-.22-1.87l.47-.63a3,3,0,0,1-.09-4.12,18.41,18.41,0,0,0,2-3.35,0,0,0,0,1,0,0,.71.71,0,0,0-.06-.31,1.64,1.64,0,0,0-.57-.72,3.73,3.73,0,0,1-1.71-1.91,8.31,8.31,0,0,1-.63-2.9,7.07,7.07,0,0,1,.63-1.34c.41-.8.78-1.6,1.11-2.43a7.2,7.2,0,0,0,.48-2.64,5.13,5.13,0,0,0-.78-2.65,3.2,3.2,0,0,1-.41-1.54q0-2.81,2.94-5.4,2.13-1.82,7-2.72a1.11,1.11,0,0,1,.81.5,1.68,1.68,0,0,0,.94.16l.38,0a2.46,2.46,0,0,1,.4,0l.38.65.81,0c1.19.21,1.84.34,1.95.38a1.33,1.33,0,0,0,.42.06,4,4,0,0,1,1.91-.89,15.3,15.3,0,0,1,2.28-.14,7.59,7.59,0,0,0,1.33-.1,7.31,7.31,0,0,1,1.11-.09,5.45,5.45,0,0,1,.89.08,9.16,9.16,0,0,0,1,.11,5.53,5.53,0,0,1,1.46.26,2.2,2.2,0,0,1,1.17,1l.66,1.44c.18,0,.28.1.28.25a1.23,1.23,0,0,1-.22.53l0,.28,1.56.59a.88.88,0,0,1,.28.5l0,.13a4.06,4.06,0,0,1-3.22,1.56c-3.79,0-5.69.63-5.69,1.87l0,.94q0,4.1-4.09,6.75a10.52,10.52,0,0,1-5.84,2.07,8.62,8.62,0,0,1-2.3-.32,33.23,33.23,0,0,0-4.39-.65q-.78,0-.84.9c-.07.52-.15,1.08-.25,1.66l-.13.87.3.18a3.44,3.44,0,0,0,.39.21.87.87,0,0,0,.44.11c.73,0,1.46-.06,2.21-.12s1.34-.1,2-.1,1.06,0,1.61.07,1.12.06,1.71.06q.58,0,1.17,0l1.11,0a12.73,12.73,0,0,1,4.31.62,11.11,11.11,0,0,0,3,.53,18.28,18.28,0,0,1,2,.25,7.59,7.59,0,0,1,3,1.57,6.91,6.91,0,0,0,.81.59,5.08,5.08,0,0,1,2.1,2.23,6,6,0,0,1,.59,2.36,4.63,4.63,0,0,1-.19,1.32,23.13,23.13,0,0,1-2.25,4.9,5.4,5.4,0,0,1-1.14,1.27,3.38,3.38,0,0,1-1.45.73,10.9,10.9,0,0,0-2.19.75,6.85,6.85,0,0,1-3,.88,6,6,0,0,1-1.11-.11,5,5,0,0,0-1.08-.11,7.85,7.85,0,0,0-1.89.26A8.9,8.9,0,0,1,418.44,52Zm2-3.53a5.89,5.89,0,0,0,2.68-.44A11.16,11.16,0,0,1,425.72,47a3.68,3.68,0,0,0,2.3-2,6.21,6.21,0,0,0,.67-2.35,3,3,0,0,0-.38-1.46l-1.15-2.07a1.47,1.47,0,0,0-.6-.56A12.32,12.32,0,0,0,423,38c-1.69,0-3.3,0-4.84-.09a13.05,13.05,0,0,0-1.41-.07,18.53,18.53,0,0,0-3.53.35l-1.81.4c-1.07.25-2.19,1.65-3.38,4.19q0,.55,0,.69a6.55,6.55,0,0,0,.16.78,12.87,12.87,0,0,1,2.28,1.28A4.22,4.22,0,0,0,414,47.44a5.12,5.12,0,0,1,3.66.53,5.49,5.49,0,0,0,1.7.48C419.81,48.48,420.16,48.5,420.41,48.5Zm-3.88-21.12A6.17,6.17,0,0,0,419,27a2.67,2.67,0,0,1,.55-.25.85.85,0,0,0,.39-.34c.85-.73,1.28-1.36,1.28-1.88.18-.44.36-.94.53-1.5,0-.17,0-.45-.06-.86s-.07-.63-.07-.67a8.61,8.61,0,0,1-.47-2.13c-.45-.68-.81-1.27-1.07-1.76a2.72,2.72,0,0,0-1.71-1.14,1.07,1.07,0,0,1-.5-.47,1.9,1.9,0,0,0-1.18-.41,12.67,12.67,0,0,1-1.72-.09,1.06,1.06,0,0,1-.47.19A6.11,6.11,0,0,0,408.75,19a3.09,3.09,0,0,0-.13.81,2.19,2.19,0,0,0,.07.53,19.58,19.58,0,0,0,.72,4.69,2.1,2.1,0,0,0,1.81,1.19,10.74,10.74,0,0,0,2.48.89c.39,0,.73,0,1,0a.6.6,0,0,1,.47.16A9.25,9.25,0,0,0,416.53,27.38Z"/><path class="cls-1" d="M459.34,41.06a20.56,20.56,0,0,1-2.68-.18c-.34-.05-.68-.08-1-.1-.89-.08-1.8-.19-2.71-.31a36.32,36.32,0,0,0-4.35-.41,8.49,8.49,0,0,0-1.78.19,10.69,10.69,0,0,1-1.53.22c-.9,0-1.35-.5-1.38-1.5V35.38h0V31.62a1.47,1.47,0,0,1,1.5-1.5,9.08,9.08,0,0,1,1.25-.09,4.62,4.62,0,0,1,4.5,2.56A6.81,6.81,0,0,0,455,36a12.91,12.91,0,0,0,4.19.91,7.3,7.3,0,0,0,1.75-.22,5.75,5.75,0,0,0,2.84-1.54,5,5,0,0,0,1.12-3.46,2.28,2.28,0,0,0-2-2.38q-7.47-1.53-12.59-2.37A6.66,6.66,0,0,1,445.61,24a7.59,7.59,0,0,1-1.33-3.78,6.32,6.32,0,0,1,.59-2.59,8.44,8.44,0,0,1,4.66-4.22,23.33,23.33,0,0,1,8-1.41c.67,0,1.34,0,2,.09l.5,0a5.15,5.15,0,0,1,1,.09,13.67,13.67,0,0,0,3.84.72,8.66,8.66,0,0,0,1.82-.19l.5-.06c1.06,0,1.63.69,1.71,2.06q.19,3,.25,5.94a1.29,1.29,0,0,1-.59,1.11,2.16,2.16,0,0,1-1.28.42,2.52,2.52,0,0,1-.88-.16,2.82,2.82,0,0,1-1.68-1.53.12.12,0,0,0,0-.09,1.61,1.61,0,0,0-.5-.78l-1.66-1c-3.46-2.1-5.71-3.16-6.75-3.16a3.57,3.57,0,0,0-1.19.22,6.32,6.32,0,0,0-2.22,1.34,3.4,3.4,0,0,0-1.17,1.8,10.37,10.37,0,0,0-.11,1.11A3.25,3.25,0,0,0,452.44,23a2.64,2.64,0,0,0,1.28.53c1.77.12,3.54.19,5.31.19q1.88,0,3.75.09a8.21,8.21,0,0,1,5.53,1.91,5.87,5.87,0,0,1,1.22,2.4l.28.75a11.63,11.63,0,0,1,.35,1.38l.21.94a9.09,9.09,0,0,1,.32,2.34,11.36,11.36,0,0,1-1.35,5,2.53,2.53,0,0,1-1.75,1.19A36.09,36.09,0,0,1,459.34,41.06Z"/></g></g></svg>